%FSLAX45Y45*%
G04 Gerber Fmt 4.5, Leading zero omitted, Abs format (unit mm)*
G04 Created by KiCad (PCBNEW (5.99.0-12766-g4a3658027e)) date 2021-10-23 13:29:27*
%MOMM*%
%LPD*%
G01*
G04 APERTURE LIST*
%TA.AperFunction,Profile*%
%ADD10C,0.050000*%
%TD*%
%ADD11C,0.200000*%
G04 APERTURE END LIST*
D10*
X3375000Y-1500000D02*
X1475000Y-2700000D01*
X13825000Y-11500000D02*
X13825000Y-9600000D01*
X10975000Y-7700000D02*
X12875000Y-7700000D01*
X10975000Y-2000000D02*
X7175000Y-2000000D01*
X10975000Y-7700000D02*
X10975000Y-2000000D01*
X7175000Y-1300000D02*
X5275000Y-1300000D01*
X5275000Y-1300000D02*
X3375000Y-1500000D01*
X7175000Y-2000000D02*
X7175000Y-1300000D01*
X1475000Y-2700000D02*
X1475000Y-11500000D01*
X1475000Y-11500000D02*
X13825000Y-11500000D01*
X13825000Y-9600000D02*
X12875000Y-7700000D01*
D11*
X1730119Y-11812976D02*
X1730119Y-11612976D01*
X1777738Y-11612976D01*
X1806309Y-11622500D01*
X1825357Y-11641548D01*
X1834881Y-11660595D01*
X1844405Y-11698690D01*
X1844405Y-11727262D01*
X1834881Y-11765357D01*
X1825357Y-11784405D01*
X1806309Y-11803452D01*
X1777738Y-11812976D01*
X1730119Y-11812976D01*
X1930119Y-11812976D02*
X1930119Y-11679643D01*
X1930119Y-11717738D02*
X1939643Y-11698690D01*
X1949167Y-11689167D01*
X1968214Y-11679643D01*
X1987262Y-11679643D01*
X2053928Y-11812976D02*
X2053928Y-11679643D01*
X2053928Y-11612976D02*
X2044405Y-11622500D01*
X2053928Y-11632024D01*
X2063452Y-11622500D01*
X2053928Y-11612976D01*
X2053928Y-11632024D01*
X2177738Y-11812976D02*
X2158690Y-11803452D01*
X2149167Y-11784405D01*
X2149167Y-11612976D01*
X2282500Y-11812976D02*
X2263452Y-11803452D01*
X2253929Y-11784405D01*
X2253929Y-11612976D01*
X2511071Y-11812976D02*
X2511071Y-11612976D01*
X2577738Y-11755833D01*
X2644405Y-11612976D01*
X2644405Y-11812976D01*
X2825357Y-11812976D02*
X2825357Y-11708214D01*
X2815833Y-11689167D01*
X2796786Y-11679643D01*
X2758690Y-11679643D01*
X2739643Y-11689167D01*
X2825357Y-11803452D02*
X2806309Y-11812976D01*
X2758690Y-11812976D01*
X2739643Y-11803452D01*
X2730119Y-11784405D01*
X2730119Y-11765357D01*
X2739643Y-11746309D01*
X2758690Y-11736786D01*
X2806309Y-11736786D01*
X2825357Y-11727262D01*
X2920595Y-11679643D02*
X2920595Y-11879643D01*
X2920595Y-11689167D02*
X2939643Y-11679643D01*
X2977738Y-11679643D01*
X2996786Y-11689167D01*
X3006309Y-11698690D01*
X3015833Y-11717738D01*
X3015833Y-11774881D01*
X3006309Y-11793928D01*
X2996786Y-11803452D01*
X2977738Y-11812976D01*
X2939643Y-11812976D01*
X2920595Y-11803452D01*
X3101548Y-11793928D02*
X3111071Y-11803452D01*
X3101548Y-11812976D01*
X3092024Y-11803452D01*
X3101548Y-11793928D01*
X3101548Y-11812976D01*
X3101548Y-11689167D02*
X3111071Y-11698690D01*
X3101548Y-11708214D01*
X3092024Y-11698690D01*
X3101548Y-11689167D01*
X3101548Y-11708214D01*
M02*
