%TF.GenerationSoftware,KiCad,Pcbnew,(5.99.0-12766-g4a3658027e)*%
%TF.CreationDate,2021-10-23T13:20:50+09:00*%
%TF.ProjectId,top,746f702e-6b69-4636-9164-5f7063625858,rev?*%
%TF.SameCoordinates,Original*%
%TF.FileFunction,Legend,Top*%
%TF.FilePolarity,Positive*%
%FSLAX46Y46*%
G04 Gerber Fmt 4.6, Leading zero omitted, Abs format (unit mm)*
G04 Created by KiCad (PCBNEW (5.99.0-12766-g4a3658027e)) date 2021-10-23 13:20:50*
%MOMM*%
%LPD*%
G01*
G04 APERTURE LIST*
%ADD10C,0.150000*%
%ADD11C,5.700000*%
G04 APERTURE END LIST*
D10*
%TO.C,H5*%
X74238095Y-95852380D02*
X74238095Y-94852380D01*
X74238095Y-95328571D02*
X74809523Y-95328571D01*
X74809523Y-95852380D02*
X74809523Y-94852380D01*
X75761904Y-94852380D02*
X75285714Y-94852380D01*
X75238095Y-95328571D01*
X75285714Y-95280952D01*
X75380952Y-95233333D01*
X75619047Y-95233333D01*
X75714285Y-95280952D01*
X75761904Y-95328571D01*
X75809523Y-95423809D01*
X75809523Y-95661904D01*
X75761904Y-95757142D01*
X75714285Y-95804761D01*
X75619047Y-95852380D01*
X75380952Y-95852380D01*
X75285714Y-95804761D01*
X75238095Y-95757142D01*
%TO.C,H7*%
X52738095Y-66602380D02*
X52738095Y-65602380D01*
X52738095Y-66078571D02*
X53309523Y-66078571D01*
X53309523Y-66602380D02*
X53309523Y-65602380D01*
X53690476Y-65602380D02*
X54357142Y-65602380D01*
X53928571Y-66602380D01*
%TO.C,H3*%
X89988095Y-35602380D02*
X89988095Y-34602380D01*
X89988095Y-35078571D02*
X90559523Y-35078571D01*
X90559523Y-35602380D02*
X90559523Y-34602380D01*
X90940476Y-34602380D02*
X91559523Y-34602380D01*
X91226190Y-34983333D01*
X91369047Y-34983333D01*
X91464285Y-35030952D01*
X91511904Y-35078571D01*
X91559523Y-35173809D01*
X91559523Y-35411904D01*
X91511904Y-35507142D01*
X91464285Y-35554761D01*
X91369047Y-35602380D01*
X91083333Y-35602380D01*
X90988095Y-35554761D01*
X90940476Y-35507142D01*
%TO.C,H2*%
X118488095Y-97202380D02*
X118488095Y-96202380D01*
X118488095Y-96678571D02*
X119059523Y-96678571D01*
X119059523Y-97202380D02*
X119059523Y-96202380D01*
X119488095Y-96297619D02*
X119535714Y-96250000D01*
X119630952Y-96202380D01*
X119869047Y-96202380D01*
X119964285Y-96250000D01*
X120011904Y-96297619D01*
X120059523Y-96392857D01*
X120059523Y-96488095D01*
X120011904Y-96630952D01*
X119440476Y-97202380D01*
X120059523Y-97202380D01*
%TO.C,H6*%
X70238095Y-28602380D02*
X70238095Y-27602380D01*
X70238095Y-28078571D02*
X70809523Y-28078571D01*
X70809523Y-28602380D02*
X70809523Y-27602380D01*
X71714285Y-27602380D02*
X71523809Y-27602380D01*
X71428571Y-27650000D01*
X71380952Y-27697619D01*
X71285714Y-27840476D01*
X71238095Y-28030952D01*
X71238095Y-28411904D01*
X71285714Y-28507142D01*
X71333333Y-28554761D01*
X71428571Y-28602380D01*
X71619047Y-28602380D01*
X71714285Y-28554761D01*
X71761904Y-28507142D01*
X71809523Y-28411904D01*
X71809523Y-28173809D01*
X71761904Y-28078571D01*
X71714285Y-28030952D01*
X71619047Y-27983333D01*
X71428571Y-27983333D01*
X71333333Y-28030952D01*
X71285714Y-28078571D01*
X71238095Y-28173809D01*
%TO.C,H4*%
X32488095Y-42602380D02*
X32488095Y-41602380D01*
X32488095Y-42078571D02*
X33059523Y-42078571D01*
X33059523Y-42602380D02*
X33059523Y-41602380D01*
X33964285Y-41935714D02*
X33964285Y-42602380D01*
X33726190Y-41554761D02*
X33488095Y-42269047D01*
X34107142Y-42269047D01*
%TO.C,H1*%
X29738095Y-89352380D02*
X29738095Y-88352380D01*
X29738095Y-88828571D02*
X30309523Y-88828571D01*
X30309523Y-89352380D02*
X30309523Y-88352380D01*
X31309523Y-89352380D02*
X30738095Y-89352380D01*
X31023809Y-89352380D02*
X31023809Y-88352380D01*
X30928571Y-88495238D01*
X30833333Y-88590476D01*
X30738095Y-88638095D01*
%TO.C,H8*%
X89988095Y-73602380D02*
X89988095Y-72602380D01*
X89988095Y-73078571D02*
X90559523Y-73078571D01*
X90559523Y-73602380D02*
X90559523Y-72602380D01*
X91178571Y-73030952D02*
X91083333Y-72983333D01*
X91035714Y-72935714D01*
X90988095Y-72840476D01*
X90988095Y-72792857D01*
X91035714Y-72697619D01*
X91083333Y-72650000D01*
X91178571Y-72602380D01*
X91369047Y-72602380D01*
X91464285Y-72650000D01*
X91511904Y-72697619D01*
X91559523Y-72792857D01*
X91559523Y-72840476D01*
X91511904Y-72935714D01*
X91464285Y-72983333D01*
X91369047Y-73030952D01*
X91178571Y-73030952D01*
X91083333Y-73078571D01*
X91035714Y-73126190D01*
X90988095Y-73221428D01*
X90988095Y-73411904D01*
X91035714Y-73507142D01*
X91083333Y-73554761D01*
X91178571Y-73602380D01*
X91369047Y-73602380D01*
X91464285Y-73554761D01*
X91511904Y-73507142D01*
X91559523Y-73411904D01*
X91559523Y-73221428D01*
X91511904Y-73126190D01*
X91464285Y-73078571D01*
X91369047Y-73030952D01*
%TO.C,G\u002A\u002A\u002A*%
G36*
X94836840Y-105262014D02*
G01*
X94834489Y-105272196D01*
X94825422Y-105273432D01*
X94811324Y-105267166D01*
X94814003Y-105262014D01*
X94834330Y-105259964D01*
X94836840Y-105262014D01*
G37*
G36*
X94816521Y-112312880D02*
G01*
X94830751Y-112352523D01*
X94835056Y-112372440D01*
X94840321Y-112418202D01*
X94838487Y-112451819D01*
X94830781Y-112465307D01*
X94821969Y-112457552D01*
X94813374Y-112431684D01*
X94803340Y-112386061D01*
X94799834Y-112366309D01*
X94796355Y-112318953D01*
X94803486Y-112301417D01*
X94816521Y-112312880D01*
G37*
G36*
X97515829Y-102274286D02*
G01*
X97536358Y-102291961D01*
X97572734Y-102326568D01*
X97583075Y-102342684D01*
X97578658Y-102344377D01*
X97563212Y-102335746D01*
X97557249Y-102331532D01*
X97534156Y-102308530D01*
X97514949Y-102284693D01*
X97504483Y-102267798D01*
X97515829Y-102274286D01*
G37*
G36*
X96931600Y-113507639D02*
G01*
X96932097Y-113511733D01*
X96919064Y-113528363D01*
X96914970Y-113528861D01*
X96898340Y-113515827D01*
X96897842Y-113511733D01*
X96910876Y-113495103D01*
X96914970Y-113494606D01*
X96931600Y-113507639D01*
G37*
G36*
X101998996Y-113020059D02*
G01*
X101984568Y-113047067D01*
X101945981Y-113090472D01*
X101919206Y-113115871D01*
X101859991Y-113175599D01*
X101810443Y-113236740D01*
X101776015Y-113291696D01*
X101762159Y-113332867D01*
X101762101Y-113334829D01*
X101776830Y-113350426D01*
X101815828Y-113373324D01*
X101871214Y-113399010D01*
X101881718Y-113403339D01*
X102001399Y-113451787D01*
X102001821Y-115001821D01*
X101382723Y-115001821D01*
X101242677Y-114868437D01*
X101159476Y-114790599D01*
X101094970Y-114734312D01*
X101044248Y-114696307D01*
X101002398Y-114673314D01*
X100964507Y-114662063D01*
X100928483Y-114659272D01*
X100863313Y-114647774D01*
X100790189Y-114611081D01*
X100776980Y-114602530D01*
X100720107Y-114566546D01*
X100652747Y-114526629D01*
X100582022Y-114486661D01*
X100515053Y-114450525D01*
X100458963Y-114422102D01*
X100420875Y-114405276D01*
X100409775Y-114402360D01*
X100389952Y-114411144D01*
X100395926Y-114435717D01*
X100424636Y-114473413D01*
X100473020Y-114521566D01*
X100538018Y-114577510D01*
X100616569Y-114638579D01*
X100705612Y-114702105D01*
X100802085Y-114765423D01*
X100882433Y-114814064D01*
X100945959Y-114854441D01*
X100985088Y-114889774D01*
X101007182Y-114927859D01*
X101015193Y-114954720D01*
X101019118Y-114988814D01*
X101005241Y-115000950D01*
X100992766Y-115001821D01*
X100964970Y-114989711D01*
X100953902Y-114955274D01*
X100950912Y-114936614D01*
X100944017Y-114920254D01*
X100929024Y-114902885D01*
X100901742Y-114881199D01*
X100857979Y-114851887D01*
X100793541Y-114811642D01*
X100704239Y-114757156D01*
X100698181Y-114753473D01*
X100624042Y-114705657D01*
X100549929Y-114653302D01*
X100488661Y-114605592D01*
X100473617Y-114592586D01*
X100428325Y-114555764D01*
X100393203Y-114534483D01*
X100375934Y-114532640D01*
X100365453Y-114555757D01*
X100350517Y-114602879D01*
X100334066Y-114664566D01*
X100331338Y-114675791D01*
X100300283Y-114779971D01*
X100261752Y-114869468D01*
X100218709Y-114939479D01*
X100174114Y-114985197D01*
X100130931Y-115001818D01*
X100130357Y-115001821D01*
X100116742Y-114997314D01*
X100121472Y-114980756D01*
X100146882Y-114947587D01*
X100173920Y-114916823D01*
X100220276Y-114859961D01*
X100246488Y-114811187D01*
X100259333Y-114757407D01*
X100260318Y-114749831D01*
X100275460Y-114661888D01*
X100300906Y-114552834D01*
X100333665Y-114433125D01*
X100370743Y-114313219D01*
X100409148Y-114203572D01*
X100435266Y-114138416D01*
X100506424Y-113992718D01*
X100586164Y-113863587D01*
X100670970Y-113755637D01*
X100757322Y-113673483D01*
X100822188Y-113630946D01*
X100870263Y-113610096D01*
X100891772Y-113608692D01*
X100885978Y-113623676D01*
X100852140Y-113651990D01*
X100830728Y-113666274D01*
X100765294Y-113718383D01*
X100694300Y-113792247D01*
X100625874Y-113878219D01*
X100568145Y-113966654D01*
X100551059Y-113998194D01*
X100524634Y-114054055D01*
X100495873Y-114120638D01*
X100468226Y-114189161D01*
X100445142Y-114250846D01*
X100430070Y-114296910D01*
X100426096Y-114316276D01*
X100440108Y-114331436D01*
X100477202Y-114357160D01*
X100529964Y-114388409D01*
X100541706Y-114394858D01*
X100617707Y-114438055D01*
X100699560Y-114487612D01*
X100760081Y-114526562D01*
X100814197Y-114562021D01*
X100851487Y-114581261D01*
X100883470Y-114587300D01*
X100921663Y-114583155D01*
X100952542Y-114576996D01*
X101037806Y-114549713D01*
X101132482Y-114503838D01*
X101228545Y-114444919D01*
X101317971Y-114378502D01*
X101392736Y-114310132D01*
X101444815Y-114245358D01*
X101452983Y-114231086D01*
X101468264Y-114192312D01*
X101488258Y-114128214D01*
X101510610Y-114046988D01*
X101532965Y-113956829D01*
X101537868Y-113935653D01*
X101587416Y-113731147D01*
X101635882Y-113558014D01*
X101684447Y-113413445D01*
X101734292Y-113294634D01*
X101786599Y-113198772D01*
X101842548Y-113123053D01*
X101903319Y-113064668D01*
X101904638Y-113063621D01*
X101958301Y-113025716D01*
X101989997Y-113012069D01*
X101998996Y-113020059D01*
G37*
G36*
X93759115Y-104951814D02*
G01*
X93757180Y-104962037D01*
X93738377Y-104971122D01*
X93710817Y-104970939D01*
X93703112Y-104964390D01*
X93708750Y-104951484D01*
X93728254Y-104948011D01*
X93759115Y-104951814D01*
G37*
G36*
X92872893Y-101342684D02*
G01*
X92864329Y-101351248D01*
X92855765Y-101342684D01*
X92864329Y-101334120D01*
X92872893Y-101342684D01*
G37*
G36*
X100566085Y-111819381D02*
G01*
X100612569Y-111850943D01*
X100657827Y-111889749D01*
X100691651Y-111929547D01*
X100700776Y-111946259D01*
X100714281Y-111984766D01*
X100714638Y-112001042D01*
X100701799Y-112004511D01*
X100700461Y-112004518D01*
X100684117Y-111990010D01*
X100673177Y-111962749D01*
X100654186Y-111929348D01*
X100616442Y-111887740D01*
X100584403Y-111859985D01*
X100540404Y-111822885D01*
X100524109Y-111803294D01*
X100533381Y-111801898D01*
X100566085Y-111819381D01*
G37*
G36*
X100494606Y-111773298D02*
G01*
X100486042Y-111781861D01*
X100477478Y-111773298D01*
X100486042Y-111764734D01*
X100494606Y-111773298D01*
G37*
G36*
X97224929Y-114582198D02*
G01*
X97230328Y-114629115D01*
X97232618Y-114698816D01*
X97231589Y-114779954D01*
X97229478Y-114826264D01*
X97224198Y-114905788D01*
X97218616Y-114957090D01*
X97211276Y-114986184D01*
X97200721Y-114999084D01*
X97186963Y-115001821D01*
X97160616Y-114989603D01*
X97155051Y-114963284D01*
X97158682Y-114927441D01*
X97167912Y-114870520D01*
X97180743Y-114804862D01*
X97194370Y-114729080D01*
X97204334Y-114652263D01*
X97208106Y-114599332D01*
X97210076Y-114513689D01*
X97224929Y-114582198D01*
G37*
G36*
X96790983Y-114000471D02*
G01*
X96797097Y-114009984D01*
X96772729Y-114021377D01*
X96716104Y-114035471D01*
X96714467Y-114035820D01*
X96617793Y-114063958D01*
X96519864Y-114105122D01*
X96435686Y-114152662D01*
X96411658Y-114170040D01*
X96398464Y-114182916D01*
X96395923Y-114197594D01*
X96407096Y-114219452D01*
X96435045Y-114253872D01*
X96482830Y-114306231D01*
X96499045Y-114323623D01*
X96552768Y-114384538D01*
X96618891Y-114464656D01*
X96690272Y-114555047D01*
X96759767Y-114646781D01*
X96783882Y-114679704D01*
X96842353Y-114760262D01*
X96896368Y-114834429D01*
X96941589Y-114896266D01*
X96973679Y-114939837D01*
X96984809Y-114954720D01*
X97020592Y-115001821D01*
X96972063Y-115000873D01*
X96953772Y-114999918D01*
X96937309Y-114995580D01*
X96919665Y-114984470D01*
X96897832Y-114963197D01*
X96868800Y-114928372D01*
X96829562Y-114876604D01*
X96777110Y-114804503D01*
X96708435Y-114708678D01*
X96690445Y-114683510D01*
X96600838Y-114560807D01*
X96519710Y-114455013D01*
X96449073Y-114368492D01*
X96390941Y-114303609D01*
X96347326Y-114262730D01*
X96320242Y-114248218D01*
X96319905Y-114248213D01*
X96295279Y-114260531D01*
X96254139Y-114293873D01*
X96201751Y-114342818D01*
X96143376Y-114401946D01*
X96084277Y-114465840D01*
X96029719Y-114529078D01*
X95984964Y-114586241D01*
X95968254Y-114610320D01*
X95927455Y-114678224D01*
X95886946Y-114758019D01*
X95843240Y-114857033D01*
X95800384Y-114963284D01*
X95773359Y-114995201D01*
X95748838Y-115001821D01*
X95722075Y-114993948D01*
X95721749Y-114977415D01*
X95810543Y-114770553D01*
X95908171Y-114592859D01*
X96018233Y-114439648D01*
X96144327Y-114306238D01*
X96290051Y-114187944D01*
X96369614Y-114134141D01*
X96454820Y-114085940D01*
X96544873Y-114045583D01*
X96632314Y-114015439D01*
X96709685Y-113997873D01*
X96769524Y-113995251D01*
X96790983Y-114000471D01*
G37*
G36*
X92653382Y-111408459D02*
G01*
X92680954Y-111417066D01*
X92684491Y-111422185D01*
X92669183Y-111432399D01*
X92630451Y-111438526D01*
X92607418Y-111439312D01*
X92561453Y-111435910D01*
X92533881Y-111427303D01*
X92530344Y-111422185D01*
X92545652Y-111411970D01*
X92584384Y-111405843D01*
X92607418Y-111405057D01*
X92653382Y-111408459D01*
G37*
G36*
X91125894Y-101685233D02*
G01*
X91117330Y-101693796D01*
X91108766Y-101685233D01*
X91117330Y-101676669D01*
X91125894Y-101685233D01*
G37*
G36*
X92815039Y-105864099D02*
G01*
X92856023Y-105880601D01*
X92881056Y-105889512D01*
X92883548Y-105890020D01*
X92889853Y-105903286D01*
X92890020Y-105907148D01*
X92877301Y-105922315D01*
X92841707Y-105916468D01*
X92800101Y-105897351D01*
X92761951Y-105870979D01*
X92755067Y-105854241D01*
X92777268Y-105851988D01*
X92815039Y-105864099D01*
G37*
G36*
X96246999Y-103260958D02*
G01*
X96238436Y-103269521D01*
X96229872Y-103260958D01*
X96238436Y-103252394D01*
X96246999Y-103260958D01*
G37*
G36*
X91841628Y-108370958D02*
G01*
X91932161Y-108396296D01*
X92053133Y-108413852D01*
X92201543Y-108423276D01*
X92304328Y-108424882D01*
X92416910Y-108427956D01*
X92546828Y-108436361D01*
X92677797Y-108448871D01*
X92759341Y-108459125D01*
X92867779Y-108475254D01*
X92983432Y-108493816D01*
X93101459Y-108513891D01*
X93217020Y-108534559D01*
X93325276Y-108554898D01*
X93421384Y-108573987D01*
X93500506Y-108590906D01*
X93557799Y-108604734D01*
X93588425Y-108614551D01*
X93592232Y-108617566D01*
X93577149Y-108625865D01*
X93538995Y-108628591D01*
X93488451Y-108626027D01*
X93436196Y-108618457D01*
X93412407Y-108612783D01*
X93363824Y-108602437D01*
X93286983Y-108590208D01*
X93187786Y-108576730D01*
X93072139Y-108562638D01*
X92945944Y-108548570D01*
X92815106Y-108535159D01*
X92685527Y-108523041D01*
X92563113Y-108512851D01*
X92453766Y-108505225D01*
X92376197Y-108501261D01*
X92268261Y-108495947D01*
X92160212Y-108488659D01*
X92061982Y-108480199D01*
X91983504Y-108471368D01*
X91956812Y-108467409D01*
X91874742Y-108456091D01*
X91822520Y-108454843D01*
X91798746Y-108462192D01*
X91773131Y-108467993D01*
X91729665Y-108465625D01*
X91680021Y-108457306D01*
X91635873Y-108445248D01*
X91608893Y-108431668D01*
X91605462Y-108425518D01*
X91620406Y-108413796D01*
X91659110Y-108396876D01*
X91700327Y-108382605D01*
X91764519Y-108365666D01*
X91809823Y-108362995D01*
X91841628Y-108370958D01*
G37*
G36*
X92240745Y-107523839D02*
G01*
X92297793Y-107535789D01*
X92340084Y-107550830D01*
X92360320Y-107565864D01*
X92358574Y-107573841D01*
X92338899Y-107578188D01*
X92293571Y-107583474D01*
X92231140Y-107588761D01*
X92208248Y-107590345D01*
X92138432Y-107594196D01*
X92096425Y-107593940D01*
X92075938Y-107588715D01*
X92070679Y-107577658D01*
X92071395Y-107571592D01*
X92093263Y-107542074D01*
X92140519Y-107524264D01*
X92205665Y-107520276D01*
X92240745Y-107523839D01*
G37*
G36*
X95100512Y-110974791D02*
G01*
X95118270Y-110993999D01*
X95154122Y-111029347D01*
X95175429Y-111036943D01*
X95179183Y-111032536D01*
X95196633Y-111012715D01*
X95202931Y-111011126D01*
X95220419Y-111025066D01*
X95245455Y-111059829D01*
X95271917Y-111104826D01*
X95293684Y-111149469D01*
X95304636Y-111183172D01*
X95304990Y-111187661D01*
X95318519Y-111210931D01*
X95353741Y-111243576D01*
X95395967Y-111273800D01*
X95445019Y-111306889D01*
X95512482Y-111354710D01*
X95589684Y-111411016D01*
X95667955Y-111469562D01*
X95672627Y-111473109D01*
X95784404Y-111552521D01*
X95904437Y-111628469D01*
X96017922Y-111691700D01*
X96039810Y-111702630D01*
X96123502Y-111745539D01*
X96206487Y-111791745D01*
X96277591Y-111834848D01*
X96315509Y-111860623D01*
X96379605Y-111907348D01*
X96454949Y-111961378D01*
X96521039Y-112008070D01*
X96601634Y-112070986D01*
X96689634Y-112150492D01*
X96777739Y-112238962D01*
X96858653Y-112328769D01*
X96925075Y-112412287D01*
X96963358Y-112470289D01*
X97017218Y-112592952D01*
X97052832Y-112737504D01*
X97068308Y-112895736D01*
X97068819Y-112927939D01*
X97067454Y-112994940D01*
X97060555Y-113045692D01*
X97044471Y-113093637D01*
X97015556Y-113152214D01*
X97000318Y-113180289D01*
X96965921Y-113250199D01*
X96938050Y-113320106D01*
X96921985Y-113376514D01*
X96920852Y-113383465D01*
X96909739Y-113440406D01*
X96897824Y-113466451D01*
X96887575Y-113460883D01*
X96881460Y-113422982D01*
X96880715Y-113395153D01*
X96886850Y-113332257D01*
X96907519Y-113264380D01*
X96942700Y-113186905D01*
X96973507Y-113122412D01*
X96991899Y-113071874D01*
X97000941Y-113021612D01*
X97003697Y-112957949D01*
X97003663Y-112914847D01*
X96996897Y-112776818D01*
X96979405Y-112653177D01*
X96952435Y-112549802D01*
X96917233Y-112472575D01*
X96906559Y-112457073D01*
X96876845Y-112421809D01*
X96829022Y-112369201D01*
X96769351Y-112305978D01*
X96704094Y-112238871D01*
X96694772Y-112229452D01*
X96506519Y-112060323D01*
X96289589Y-111902669D01*
X96048558Y-111759746D01*
X95995634Y-111732075D01*
X95911849Y-111686614D01*
X95827017Y-111636176D01*
X95753315Y-111588198D01*
X95718034Y-111562547D01*
X95652999Y-111512043D01*
X95580662Y-111456063D01*
X95507083Y-111399274D01*
X95438320Y-111346342D01*
X95380434Y-111301933D01*
X95339482Y-111270713D01*
X95324503Y-111259474D01*
X95285131Y-111225604D01*
X95237113Y-111177144D01*
X95186135Y-111120813D01*
X95137882Y-111063328D01*
X95098042Y-111011405D01*
X95072300Y-110971763D01*
X95065667Y-110953704D01*
X95075632Y-110953474D01*
X95100512Y-110974791D01*
G37*
G36*
X100869901Y-114941757D02*
G01*
X100871409Y-114946354D01*
X100856665Y-114961703D01*
X100824309Y-114972584D01*
X100770963Y-114984209D01*
X100734390Y-114993609D01*
X100691571Y-115005728D01*
X100729023Y-114977872D01*
X100767307Y-114956540D01*
X100810825Y-114941799D01*
X100848661Y-114936067D01*
X100869901Y-114941757D01*
G37*
G36*
X92375699Y-110613101D02*
G01*
X92376197Y-110617195D01*
X92363163Y-110633825D01*
X92359070Y-110634322D01*
X92342440Y-110621289D01*
X92341942Y-110617195D01*
X92354976Y-110600565D01*
X92359070Y-110600068D01*
X92375699Y-110613101D01*
G37*
G36*
X92434490Y-108758567D02*
G01*
X92500277Y-108762479D01*
X92560984Y-108768481D01*
X92607745Y-108776000D01*
X92631695Y-108784460D01*
X92633109Y-108787016D01*
X92618480Y-108798182D01*
X92591691Y-108801686D01*
X92549560Y-108804559D01*
X92527463Y-108808893D01*
X92494816Y-108811789D01*
X92487525Y-108810203D01*
X92462278Y-108805220D01*
X92414490Y-108798375D01*
X92368455Y-108792768D01*
X92313171Y-108784939D01*
X92288748Y-108776864D01*
X92291808Y-108767266D01*
X92295293Y-108765123D01*
X92323133Y-108759315D01*
X92372487Y-108757321D01*
X92434490Y-108758567D01*
G37*
G36*
X90857227Y-105679437D02*
G01*
X90912655Y-105718221D01*
X90974969Y-105748306D01*
X90992872Y-105754114D01*
X91046643Y-105769817D01*
X91091199Y-105784735D01*
X91100202Y-105788259D01*
X91145962Y-105804117D01*
X91168712Y-105810077D01*
X91171682Y-105813924D01*
X91146005Y-105816700D01*
X91100202Y-105817771D01*
X91032870Y-105815559D01*
X90970097Y-105809628D01*
X90939708Y-105804371D01*
X90868706Y-105772571D01*
X90822173Y-105717020D01*
X90807208Y-105675927D01*
X90794657Y-105624545D01*
X90857227Y-105679437D01*
G37*
G36*
X96931901Y-114004553D02*
G01*
X96932097Y-114008429D01*
X96918930Y-114024898D01*
X96913959Y-114025556D01*
X96903730Y-114015064D01*
X96906406Y-114008429D01*
X96921797Y-113992090D01*
X96924544Y-113991302D01*
X96931901Y-114004553D01*
G37*
G36*
X94031826Y-109963202D02*
G01*
X93955453Y-109954027D01*
X93902094Y-109950337D01*
X93860793Y-109953204D01*
X93820595Y-109963697D01*
X93770544Y-109982888D01*
X93751795Y-109990572D01*
X93659335Y-110027875D01*
X93587433Y-110053901D01*
X93525230Y-110071016D01*
X93461866Y-110081590D01*
X93386479Y-110087991D01*
X93288210Y-110092588D01*
X93283052Y-110092791D01*
X93198261Y-110096163D01*
X93126859Y-110099082D01*
X93075252Y-110101279D01*
X93049845Y-110102487D01*
X93048332Y-110102605D01*
X93056652Y-110115044D01*
X93082613Y-110147854D01*
X93121638Y-110195333D01*
X93148624Y-110227546D01*
X93229636Y-110326023D01*
X93297890Y-110415627D01*
X93356262Y-110501981D01*
X93407624Y-110590713D01*
X93454853Y-110687448D01*
X93500821Y-110797812D01*
X93548403Y-110927432D01*
X93600474Y-111081933D01*
X93627096Y-111164064D01*
X93669478Y-111300491D01*
X93704113Y-111421269D01*
X93730441Y-111523715D01*
X93747906Y-111605146D01*
X93755948Y-111662878D01*
X93754008Y-111694230D01*
X93741529Y-111696517D01*
X93737119Y-111692659D01*
X93729301Y-111673934D01*
X93713569Y-111628021D01*
X93691761Y-111560570D01*
X93665715Y-111477232D01*
X93645649Y-111411484D01*
X93593059Y-111241628D01*
X93542777Y-111087169D01*
X93495755Y-110950570D01*
X93452944Y-110834292D01*
X93415295Y-110740799D01*
X93383759Y-110672551D01*
X93359286Y-110632010D01*
X93342829Y-110621640D01*
X93341028Y-110622919D01*
X93342032Y-110642076D01*
X93352532Y-110684996D01*
X93370383Y-110743222D01*
X93375049Y-110757143D01*
X93440213Y-110979554D01*
X93494564Y-111230248D01*
X93537516Y-111504814D01*
X93568484Y-111798841D01*
X93586880Y-112107918D01*
X93592204Y-112390335D01*
X93593257Y-112499461D01*
X93596132Y-112608375D01*
X93600451Y-112707457D01*
X93605837Y-112787086D01*
X93609044Y-112818521D01*
X93616943Y-112886981D01*
X93626791Y-112978674D01*
X93637454Y-113082716D01*
X93647798Y-113188226D01*
X93650055Y-113212003D01*
X93661350Y-113314338D01*
X93675435Y-113415797D01*
X93690710Y-113506186D01*
X93705572Y-113575311D01*
X93709248Y-113588807D01*
X93761022Y-113765858D01*
X93804802Y-113914531D01*
X93841999Y-114039387D01*
X93874024Y-114144984D01*
X93902287Y-114235884D01*
X93928198Y-114316647D01*
X93953168Y-114391834D01*
X93978608Y-114466004D01*
X93995309Y-114513689D01*
X94030444Y-114612726D01*
X94065612Y-114710724D01*
X94097475Y-114798460D01*
X94122697Y-114866709D01*
X94130073Y-114886211D01*
X94174284Y-115001821D01*
X94135368Y-115001821D01*
X94122274Y-115001876D01*
X94111355Y-114999564D01*
X94100898Y-114991167D01*
X94089187Y-114972966D01*
X94074510Y-114941244D01*
X94055153Y-114892283D01*
X94029402Y-114822365D01*
X93995542Y-114727772D01*
X93951861Y-114604787D01*
X93950226Y-114600182D01*
X93804764Y-114152348D01*
X93679965Y-113687821D01*
X93627968Y-113460351D01*
X93608526Y-113358632D01*
X93588073Y-113231803D01*
X93567744Y-113088940D01*
X93548677Y-112939120D01*
X93532007Y-112791420D01*
X93518871Y-112654917D01*
X93510405Y-112538687D01*
X93508973Y-112509778D01*
X93498045Y-112252866D01*
X93378153Y-112249261D01*
X93264484Y-112244715D01*
X93138024Y-112237772D01*
X93006221Y-112229018D01*
X92876522Y-112219036D01*
X92756374Y-112208415D01*
X92653223Y-112197738D01*
X92574518Y-112187591D01*
X92556035Y-112184608D01*
X92440482Y-112166191D01*
X92356865Y-112156673D01*
X92304059Y-112155986D01*
X92280939Y-112164058D01*
X92279691Y-112167229D01*
X92286326Y-112186980D01*
X92306184Y-112232639D01*
X92337083Y-112299518D01*
X92376842Y-112382927D01*
X92423278Y-112478181D01*
X92443130Y-112518341D01*
X92537857Y-112717248D01*
X92637266Y-112940680D01*
X92737746Y-113179929D01*
X92835688Y-113426285D01*
X92927481Y-113671036D01*
X92968431Y-113785772D01*
X93004504Y-113887613D01*
X93033558Y-113964319D01*
X93059699Y-114023155D01*
X93087033Y-114071384D01*
X93119668Y-114116270D01*
X93161708Y-114165076D01*
X93216041Y-114223762D01*
X93255106Y-114267478D01*
X93311330Y-114333094D01*
X93380631Y-114415636D01*
X93458927Y-114510129D01*
X93542138Y-114611599D01*
X93626182Y-114715072D01*
X93706978Y-114815573D01*
X93780443Y-114908127D01*
X93836839Y-114980411D01*
X93832908Y-114983012D01*
X93816149Y-114985406D01*
X93785368Y-114987602D01*
X93739372Y-114989606D01*
X93676971Y-114991427D01*
X93596971Y-114993071D01*
X93498181Y-114994547D01*
X93379408Y-114995862D01*
X93239460Y-114997023D01*
X93077144Y-114998037D01*
X92891269Y-114998913D01*
X92680642Y-114999657D01*
X92444071Y-115000278D01*
X92180363Y-115000782D01*
X91888327Y-115001178D01*
X91566770Y-115001472D01*
X91214501Y-115001672D01*
X90830326Y-115001786D01*
X90425766Y-115001821D01*
X86998180Y-115001821D01*
X86998180Y-112095966D01*
X87182300Y-112039339D01*
X87283761Y-112009298D01*
X87399616Y-111976779D01*
X87510887Y-111947054D01*
X87554821Y-111935890D01*
X87781730Y-111877608D01*
X88012013Y-111814895D01*
X88243074Y-111748678D01*
X88472318Y-111679884D01*
X88697147Y-111609439D01*
X88914966Y-111538270D01*
X89123178Y-111467303D01*
X89319186Y-111397465D01*
X89500395Y-111329683D01*
X89664207Y-111264882D01*
X89808027Y-111203991D01*
X89929258Y-111147934D01*
X90025304Y-111097640D01*
X90093568Y-111054033D01*
X90131454Y-111018042D01*
X90132901Y-111015833D01*
X90162236Y-110985921D01*
X90219655Y-110946065D01*
X90306505Y-110895408D01*
X90405413Y-110842733D01*
X90507266Y-110788282D01*
X90615738Y-110727307D01*
X90719262Y-110666488D01*
X90806268Y-110612504D01*
X90822851Y-110601676D01*
X90855021Y-110581053D01*
X91264723Y-110581053D01*
X91276383Y-110621150D01*
X91290510Y-110635904D01*
X91331620Y-110676915D01*
X91385655Y-110740823D01*
X91447811Y-110821216D01*
X91513282Y-110911683D01*
X91577262Y-111005812D01*
X91629500Y-111088200D01*
X91674755Y-111160943D01*
X91715609Y-111223703D01*
X91747859Y-111270215D01*
X91767298Y-111294214D01*
X91768467Y-111295206D01*
X91793595Y-111304141D01*
X91845834Y-111315842D01*
X91918286Y-111328979D01*
X92004054Y-111342221D01*
X92033086Y-111346250D01*
X92119073Y-111358733D01*
X92191451Y-111370912D01*
X92244168Y-111381639D01*
X92271171Y-111389763D01*
X92273432Y-111391874D01*
X92268052Y-111399678D01*
X92248882Y-111403274D01*
X92211384Y-111402470D01*
X92151016Y-111397076D01*
X92063239Y-111386902D01*
X92016521Y-111381084D01*
X91941449Y-111372335D01*
X91879369Y-111366452D01*
X91837886Y-111364075D01*
X91824842Y-111364990D01*
X91827858Y-111381526D01*
X91845416Y-111420890D01*
X91874399Y-111476559D01*
X91899423Y-111521057D01*
X91942292Y-111596384D01*
X91983948Y-111671595D01*
X92017800Y-111734714D01*
X92028827Y-111756170D01*
X92057999Y-111810168D01*
X92085898Y-111855186D01*
X92098945Y-111872602D01*
X92122170Y-111907746D01*
X92129948Y-111929743D01*
X92141338Y-111959392D01*
X92165492Y-112003172D01*
X92177624Y-112022288D01*
X92194596Y-112047500D01*
X92210792Y-112066419D01*
X92231380Y-112080481D01*
X92261527Y-112091120D01*
X92306400Y-112099772D01*
X92371168Y-112107872D01*
X92460998Y-112116855D01*
X92547471Y-112124991D01*
X92728391Y-112141376D01*
X92882329Y-112153866D01*
X93016284Y-112162909D01*
X93137253Y-112168949D01*
X93252232Y-112172434D01*
X93305035Y-112173301D01*
X93390584Y-112174106D01*
X93447950Y-112173277D01*
X93483202Y-112169734D01*
X93502406Y-112162393D01*
X93511631Y-112150172D01*
X93516025Y-112135672D01*
X93519149Y-112096934D01*
X93516608Y-112039259D01*
X93511546Y-111994371D01*
X93501729Y-111937401D01*
X93490824Y-111907311D01*
X93475228Y-111896820D01*
X93463266Y-111896773D01*
X93434052Y-111898982D01*
X93378222Y-111902466D01*
X93303371Y-111906776D01*
X93217095Y-111911462D01*
X93202596Y-111912224D01*
X93103559Y-111916516D01*
X93035182Y-111917231D01*
X92994045Y-111914252D01*
X92976728Y-111907458D01*
X92975658Y-111904359D01*
X92991087Y-111891197D01*
X93031038Y-111884832D01*
X93041266Y-111884626D01*
X93087060Y-111881629D01*
X93151909Y-111873603D01*
X93227795Y-111861994D01*
X93306704Y-111848248D01*
X93380619Y-111833810D01*
X93441525Y-111820127D01*
X93481404Y-111808645D01*
X93492002Y-111803319D01*
X93496661Y-111780768D01*
X93497006Y-111733150D01*
X93493838Y-111669268D01*
X93487957Y-111597926D01*
X93480163Y-111527926D01*
X93471257Y-111468073D01*
X93462039Y-111427171D01*
X93456743Y-111415450D01*
X93447372Y-111392772D01*
X93432103Y-111342990D01*
X93412700Y-111272386D01*
X93390926Y-111187242D01*
X93379282Y-111139433D01*
X93352114Y-111026881D01*
X93330821Y-110943196D01*
X93313432Y-110883904D01*
X93297973Y-110844530D01*
X93282471Y-110820596D01*
X93264954Y-110807629D01*
X93243447Y-110801152D01*
X93229076Y-110798715D01*
X93188341Y-110792437D01*
X93123931Y-110782531D01*
X93046030Y-110770564D01*
X92992785Y-110762391D01*
X92924083Y-110750897D01*
X92841167Y-110735572D01*
X92750635Y-110717808D01*
X92659083Y-110698999D01*
X92573109Y-110680537D01*
X92499309Y-110663816D01*
X92444279Y-110650229D01*
X92414617Y-110641168D01*
X92411879Y-110639729D01*
X92413693Y-110625439D01*
X92414680Y-110624385D01*
X92434574Y-110623370D01*
X92480561Y-110628413D01*
X92545209Y-110638540D01*
X92601655Y-110648921D01*
X92754395Y-110677579D01*
X92883718Y-110699228D01*
X92999394Y-110715344D01*
X93111191Y-110727405D01*
X93134086Y-110729474D01*
X93200624Y-110734899D01*
X93240096Y-110735696D01*
X93259552Y-110730327D01*
X93266043Y-110717256D01*
X93266639Y-110700563D01*
X93261593Y-110660587D01*
X93248975Y-110604624D01*
X93240466Y-110574376D01*
X93221497Y-110510480D01*
X93203835Y-110448787D01*
X93198068Y-110427835D01*
X93180926Y-110388661D01*
X93148572Y-110333131D01*
X93106760Y-110269424D01*
X93061245Y-110205721D01*
X93017782Y-110150200D01*
X92982125Y-110111041D01*
X92966369Y-110098514D01*
X92938676Y-110091200D01*
X92886308Y-110083721D01*
X92818816Y-110077336D01*
X92791573Y-110075481D01*
X92710222Y-110068337D01*
X92630100Y-110057632D01*
X92566129Y-110045433D01*
X92556035Y-110042846D01*
X92495475Y-110027703D01*
X92417608Y-110010243D01*
X92338854Y-109994142D01*
X92335690Y-109993535D01*
X92261868Y-109976671D01*
X92192815Y-109956243D01*
X92142359Y-109936393D01*
X92138725Y-109934523D01*
X92007192Y-109866391D01*
X91882917Y-109805983D01*
X91772423Y-109756314D01*
X91682234Y-109720397D01*
X91655507Y-109711259D01*
X91590133Y-109704161D01*
X91524570Y-109719308D01*
X91471332Y-109752551D01*
X91450658Y-109779178D01*
X91443393Y-109808761D01*
X91436584Y-109865596D01*
X91430837Y-109942679D01*
X91426757Y-110033009D01*
X91425843Y-110066090D01*
X91422906Y-110158006D01*
X91418770Y-110239765D01*
X91413910Y-110304244D01*
X91408798Y-110344324D01*
X91406870Y-110351720D01*
X91388898Y-110383339D01*
X91356372Y-110428945D01*
X91328302Y-110464150D01*
X91281835Y-110529602D01*
X91264723Y-110581053D01*
X90855021Y-110581053D01*
X90921087Y-110538700D01*
X90998510Y-110494341D01*
X91061118Y-110465895D01*
X91114908Y-110450659D01*
X91165880Y-110445930D01*
X91168401Y-110445921D01*
X91208529Y-110439304D01*
X91244496Y-110414856D01*
X91278585Y-110376659D01*
X91313503Y-110328928D01*
X91338304Y-110281767D01*
X91354790Y-110227741D01*
X91364763Y-110159417D01*
X91370026Y-110069361D01*
X91371832Y-109992043D01*
X91375010Y-109883991D01*
X91382648Y-109804209D01*
X91397712Y-109746743D01*
X91423170Y-109705640D01*
X91461989Y-109674949D01*
X91517136Y-109648716D01*
X91549099Y-109636397D01*
X91608997Y-109614152D01*
X91772752Y-109614152D01*
X91777264Y-109659943D01*
X91791553Y-109682662D01*
X91821992Y-109705760D01*
X91839249Y-109705328D01*
X91837259Y-109681801D01*
X91836312Y-109679467D01*
X91822154Y-109637514D01*
X91815356Y-109610958D01*
X91801941Y-109577934D01*
X91786382Y-109578133D01*
X91773339Y-109611207D01*
X91772752Y-109614152D01*
X91608997Y-109614152D01*
X91665408Y-109593202D01*
X91659624Y-109398692D01*
X91656529Y-109312878D01*
X91651938Y-109252117D01*
X91643841Y-109207211D01*
X91630233Y-109168962D01*
X91609103Y-109128172D01*
X91595396Y-109104471D01*
X91565819Y-109052122D01*
X91544799Y-109011316D01*
X91536952Y-108991127D01*
X91529088Y-108970690D01*
X91508239Y-108928750D01*
X91478520Y-108873485D01*
X91470788Y-108859617D01*
X91432598Y-108791577D01*
X91385274Y-108707259D01*
X91336445Y-108620259D01*
X91313305Y-108579029D01*
X91266728Y-108494340D01*
X91214149Y-108395954D01*
X91158958Y-108290506D01*
X91104546Y-108184629D01*
X91054305Y-108084960D01*
X91011624Y-107998131D01*
X90979896Y-107930778D01*
X90967534Y-107902495D01*
X90950115Y-107862168D01*
X90941680Y-107851307D01*
X90938777Y-107867461D01*
X90938374Y-107881808D01*
X90945288Y-107969883D01*
X90967369Y-108082065D01*
X91002513Y-108212876D01*
X91048621Y-108356836D01*
X91103591Y-108508469D01*
X91165320Y-108662296D01*
X91231709Y-108812840D01*
X91300655Y-108954621D01*
X91370056Y-109082163D01*
X91437812Y-109189987D01*
X91443172Y-109197702D01*
X91482116Y-109255068D01*
X91510423Y-109300280D01*
X91524501Y-109327383D01*
X91524492Y-109332482D01*
X91506318Y-109322419D01*
X91467720Y-109295372D01*
X91414948Y-109255852D01*
X91372086Y-109222522D01*
X91290889Y-109151343D01*
X91194763Y-109055118D01*
X91086938Y-108937847D01*
X90970645Y-108803530D01*
X90849116Y-108656165D01*
X90725580Y-108499753D01*
X90603268Y-108338294D01*
X90485412Y-108175785D01*
X90375241Y-108016228D01*
X90281544Y-107872460D01*
X90182238Y-107714896D01*
X90193116Y-107791568D01*
X90204395Y-107854415D01*
X90220789Y-107927647D01*
X90229754Y-107962441D01*
X90250222Y-108027245D01*
X90281944Y-108115562D01*
X90321835Y-108219795D01*
X90366812Y-108332346D01*
X90413791Y-108445619D01*
X90459688Y-108552015D01*
X90501419Y-108643939D01*
X90530695Y-108703825D01*
X90560474Y-108764364D01*
X90581608Y-108812715D01*
X90590979Y-108841477D01*
X90590617Y-108845976D01*
X90583503Y-108847285D01*
X90571666Y-108838871D01*
X90553356Y-108818234D01*
X90526825Y-108782875D01*
X90490321Y-108730292D01*
X90442094Y-108657985D01*
X90380395Y-108563453D01*
X90303473Y-108444197D01*
X90238381Y-108342712D01*
X90175741Y-108241213D01*
X90115688Y-108135637D01*
X90056464Y-108022122D01*
X89996312Y-107896807D01*
X89933472Y-107755828D01*
X89866186Y-107595325D01*
X89792696Y-107411436D01*
X89711245Y-107200297D01*
X89676549Y-107108696D01*
X89612192Y-106925783D01*
X89548408Y-106721697D01*
X89487134Y-106504305D01*
X89430306Y-106281472D01*
X89379858Y-106061065D01*
X89337726Y-105850952D01*
X89305846Y-105658998D01*
X89290802Y-105540911D01*
X89279929Y-105451482D01*
X89270201Y-105395973D01*
X89261672Y-105374068D01*
X89254391Y-105385448D01*
X89248410Y-105429797D01*
X89243781Y-105506797D01*
X89240555Y-105616132D01*
X89238784Y-105757484D01*
X89238437Y-105864329D01*
X89238996Y-106016583D01*
X89241029Y-106141736D01*
X89244915Y-106246924D01*
X89251032Y-106339286D01*
X89259756Y-106425956D01*
X89271466Y-106514072D01*
X89273581Y-106528372D01*
X89288624Y-106617733D01*
X89308658Y-106720645D01*
X89332124Y-106830587D01*
X89357462Y-106941041D01*
X89383111Y-107045487D01*
X89407513Y-107137405D01*
X89429107Y-107210276D01*
X89446335Y-107257581D01*
X89449684Y-107264476D01*
X89458852Y-107290563D01*
X89450218Y-107295375D01*
X89430141Y-107281918D01*
X89404984Y-107253197D01*
X89395353Y-107238807D01*
X89375946Y-107198632D01*
X89349025Y-107130342D01*
X89316137Y-107038854D01*
X89278828Y-106929089D01*
X89238644Y-106805964D01*
X89197132Y-106674400D01*
X89155838Y-106539316D01*
X89116309Y-106405629D01*
X89080091Y-106278260D01*
X89048729Y-106162127D01*
X89023771Y-106062150D01*
X89019049Y-106041740D01*
X88969577Y-105809162D01*
X88932550Y-105598644D01*
X88906972Y-105400738D01*
X88891850Y-105205996D01*
X88886187Y-105004968D01*
X88886577Y-104972050D01*
X90462430Y-104972050D01*
X90463213Y-104990827D01*
X90471071Y-105036888D01*
X90484823Y-105104272D01*
X90503288Y-105187019D01*
X90514350Y-105234099D01*
X90536269Y-105329342D01*
X90553075Y-105412799D01*
X90565898Y-105493126D01*
X90575864Y-105578976D01*
X90584100Y-105679005D01*
X90591735Y-105801866D01*
X90594223Y-105847202D01*
X90604994Y-106035716D01*
X90615694Y-106195586D01*
X90626908Y-106332416D01*
X90639222Y-106451812D01*
X90653219Y-106559377D01*
X90669486Y-106660717D01*
X90688608Y-106761436D01*
X90690780Y-106772084D01*
X90732065Y-106951448D01*
X90784795Y-107147146D01*
X90844791Y-107345028D01*
X90907874Y-107530944D01*
X90941171Y-107619892D01*
X90976174Y-107709814D01*
X91012912Y-107804264D01*
X91045885Y-107889103D01*
X91061061Y-107928186D01*
X91091971Y-108001463D01*
X91132998Y-108090110D01*
X91177354Y-108179707D01*
X91198121Y-108219353D01*
X91241161Y-108299724D01*
X91293642Y-108397835D01*
X91348889Y-108501196D01*
X91399602Y-108596157D01*
X91450492Y-108690257D01*
X91505063Y-108789105D01*
X91556838Y-108881084D01*
X91599342Y-108954574D01*
X91600087Y-108955833D01*
X91708417Y-109145276D01*
X91796284Y-109313048D01*
X91862978Y-109457721D01*
X91904267Y-109566862D01*
X91945273Y-109670196D01*
X91995704Y-109748698D01*
X92062008Y-109808429D01*
X92150630Y-109855446D01*
X92247843Y-109889796D01*
X92442877Y-109942373D01*
X92636307Y-109981419D01*
X92822785Y-110006479D01*
X92996967Y-110017097D01*
X93153504Y-110012817D01*
X93287050Y-109993182D01*
X93329248Y-109982030D01*
X93409093Y-109953567D01*
X93496440Y-109916155D01*
X93557991Y-109885480D01*
X93630443Y-109846036D01*
X93715261Y-109800087D01*
X93794612Y-109757293D01*
X93797775Y-109755593D01*
X93919351Y-109687360D01*
X94062079Y-109602434D01*
X94219807Y-109504806D01*
X94386383Y-109398467D01*
X94555654Y-109287410D01*
X94721469Y-109175625D01*
X94877674Y-109067104D01*
X95018118Y-108965839D01*
X95039515Y-108949982D01*
X95100187Y-108903549D01*
X95179033Y-108841357D01*
X95268085Y-108769787D01*
X95359379Y-108695220D01*
X95413648Y-108650254D01*
X95650761Y-108452528D01*
X95639551Y-108280276D01*
X95596537Y-107771905D01*
X95534513Y-107266295D01*
X95526915Y-107213773D01*
X95522423Y-107183749D01*
X96638683Y-107183749D01*
X96664019Y-107187978D01*
X96717180Y-107181214D01*
X96793803Y-107164190D01*
X96858642Y-107146683D01*
X96918456Y-107124302D01*
X96968477Y-107090726D01*
X97021729Y-107037049D01*
X97025961Y-107032255D01*
X97101852Y-106943814D01*
X97170581Y-106859895D01*
X97228884Y-106784818D01*
X97273494Y-106722904D01*
X97301146Y-106678476D01*
X97308880Y-106657870D01*
X97322376Y-106630879D01*
X97355695Y-106600515D01*
X97364565Y-106594625D01*
X97417457Y-106554368D01*
X97480349Y-106495922D01*
X97543701Y-106429236D01*
X97597975Y-106364258D01*
X97629611Y-106318206D01*
X97657301Y-106259161D01*
X97688000Y-106175418D01*
X97719063Y-106076065D01*
X97747847Y-105970192D01*
X97771709Y-105866887D01*
X97788004Y-105775236D01*
X97788424Y-105772214D01*
X97800656Y-105654141D01*
X97807024Y-105527438D01*
X97807639Y-105401041D01*
X97802609Y-105283886D01*
X97792045Y-105184911D01*
X97780519Y-105127849D01*
X97750113Y-105028236D01*
X97719608Y-104959158D01*
X97685688Y-104917046D01*
X97645037Y-104898331D01*
X97594340Y-104899443D01*
X97572634Y-104904099D01*
X97539337Y-104921702D01*
X97535450Y-104952027D01*
X97560849Y-104997518D01*
X97567518Y-105006235D01*
X97594151Y-105051471D01*
X97618238Y-105110661D01*
X97624866Y-105132718D01*
X97640332Y-105189485D01*
X97654304Y-105238127D01*
X97658570Y-105252023D01*
X97666413Y-105285790D01*
X97661768Y-105293626D01*
X97648509Y-105279691D01*
X97630509Y-105248149D01*
X97611643Y-105203162D01*
X97610749Y-105200641D01*
X97586237Y-105149490D01*
X97549955Y-105095071D01*
X97507878Y-105043993D01*
X97465983Y-105002865D01*
X97430245Y-104978298D01*
X97407751Y-104976122D01*
X97401073Y-104997018D01*
X97396659Y-105045796D01*
X97394348Y-105116171D01*
X97393981Y-105201855D01*
X97395399Y-105296561D01*
X97398441Y-105394005D01*
X97402948Y-105487898D01*
X97408760Y-105571954D01*
X97415718Y-105639887D01*
X97423661Y-105685410D01*
X97425959Y-105693055D01*
X97438541Y-105748225D01*
X97446801Y-105824799D01*
X97449372Y-105907148D01*
X97447098Y-105986646D01*
X97439337Y-106046808D01*
X97422926Y-106102472D01*
X97394701Y-106168479D01*
X97392780Y-106172623D01*
X97361456Y-106235594D01*
X97330766Y-106289885D01*
X97306869Y-106324684D01*
X97305002Y-106326770D01*
X97276402Y-106360515D01*
X97238968Y-106408683D01*
X97217750Y-106437433D01*
X97185485Y-106477795D01*
X97151621Y-106506787D01*
X97106192Y-106530825D01*
X97039234Y-106556324D01*
X97025934Y-106560942D01*
X96957826Y-106582942D01*
X96898037Y-106599633D01*
X96857032Y-106608168D01*
X96850375Y-106608707D01*
X96811487Y-106624815D01*
X96796112Y-106647910D01*
X96778188Y-106696974D01*
X96755894Y-106764023D01*
X96731169Y-106842461D01*
X96705951Y-106925694D01*
X96682176Y-107007127D01*
X96661783Y-107080164D01*
X96646709Y-107138212D01*
X96638892Y-107174674D01*
X96638683Y-107183749D01*
X95522423Y-107183749D01*
X95502244Y-107048887D01*
X95479165Y-106903967D01*
X95456333Y-106774194D01*
X95432401Y-106654752D01*
X95406024Y-106540821D01*
X95381233Y-106447767D01*
X96852456Y-106447767D01*
X96865699Y-106469291D01*
X96873586Y-106472353D01*
X96884701Y-106458313D01*
X96898661Y-106427381D01*
X96911512Y-106400746D01*
X96930282Y-106389314D01*
X96965735Y-106389427D01*
X96998672Y-106393407D01*
X97055356Y-106397574D01*
X97088973Y-106390204D01*
X97103139Y-106378433D01*
X97131780Y-106356540D01*
X97147277Y-106352461D01*
X97175493Y-106342516D01*
X97176259Y-106313596D01*
X97149680Y-106267079D01*
X97139778Y-106254122D01*
X97106537Y-106207144D01*
X97065910Y-106142523D01*
X97025972Y-106073182D01*
X97020968Y-106063970D01*
X96989313Y-106008562D01*
X96963297Y-105969251D01*
X96947089Y-105952099D01*
X96944378Y-105952641D01*
X96938393Y-105974131D01*
X96928319Y-106022634D01*
X96915476Y-106091335D01*
X96901185Y-106173423D01*
X96898647Y-106188574D01*
X96884256Y-106272246D01*
X96871106Y-106343671D01*
X96860511Y-106396053D01*
X96853786Y-106422595D01*
X96853105Y-106424076D01*
X96852456Y-106447767D01*
X95381233Y-106447767D01*
X95376376Y-106429535D01*
X96538166Y-106429535D01*
X96546730Y-106438099D01*
X96555293Y-106429535D01*
X96546730Y-106420971D01*
X96538166Y-106429535D01*
X95376376Y-106429535D01*
X95375856Y-106427585D01*
X95360556Y-106376725D01*
X96539518Y-106376725D01*
X96542667Y-106398940D01*
X96548514Y-106399205D01*
X96552602Y-106376282D01*
X96549866Y-106366377D01*
X96542261Y-106359890D01*
X96539518Y-106376725D01*
X95360556Y-106376725D01*
X95340551Y-106310225D01*
X95298764Y-106183923D01*
X95249148Y-106043861D01*
X95190358Y-105885222D01*
X95121047Y-105703188D01*
X95062664Y-105551802D01*
X95032888Y-105477429D01*
X95006547Y-105416389D01*
X94986453Y-105374887D01*
X94975422Y-105359129D01*
X94975287Y-105359118D01*
X94970059Y-105375055D01*
X94965856Y-105418235D01*
X94963169Y-105481652D01*
X94962441Y-105542301D01*
X94960697Y-105637678D01*
X94956027Y-105738707D01*
X94949277Y-105829224D01*
X94945639Y-105863440D01*
X94938430Y-105927544D01*
X94929233Y-106016678D01*
X94918945Y-106121736D01*
X94908465Y-106233616D01*
X94901626Y-106309643D01*
X94886998Y-106465457D01*
X94872206Y-106597633D01*
X94855571Y-106716752D01*
X94835413Y-106833397D01*
X94810052Y-106958150D01*
X94777807Y-107101594D01*
X94771782Y-107127478D01*
X94748114Y-107222496D01*
X94727191Y-107294716D01*
X94709981Y-107342309D01*
X94697452Y-107363449D01*
X94690571Y-107356307D01*
X94690305Y-107319056D01*
X94694696Y-107273061D01*
X94707015Y-107139054D01*
X94714773Y-106989787D01*
X94717916Y-106835114D01*
X94716391Y-106684889D01*
X94710143Y-106548963D01*
X94699246Y-106438099D01*
X94667844Y-106215870D01*
X94638768Y-106022159D01*
X94610780Y-105851412D01*
X94582646Y-105698078D01*
X94553131Y-105556604D01*
X94520998Y-105421437D01*
X94517536Y-105408508D01*
X94671230Y-105408508D01*
X94672146Y-105466632D01*
X94675001Y-105538047D01*
X94679387Y-105615812D01*
X94684895Y-105692987D01*
X94691118Y-105762634D01*
X94697649Y-105817812D01*
X94704078Y-105851582D01*
X94706049Y-105856736D01*
X94722805Y-105884500D01*
X94731151Y-105882251D01*
X94735789Y-105847962D01*
X94736141Y-105843771D01*
X94735687Y-105808799D01*
X94731444Y-105751369D01*
X94724349Y-105679140D01*
X94715343Y-105599772D01*
X94705362Y-105520922D01*
X94695346Y-105450249D01*
X94686233Y-105395412D01*
X94678961Y-105364071D01*
X94676846Y-105359886D01*
X94672661Y-105370613D01*
X94671230Y-105408508D01*
X94517536Y-105408508D01*
X94485012Y-105287027D01*
X94443938Y-105147819D01*
X94396540Y-104998263D01*
X94342890Y-104836683D01*
X94320519Y-104777043D01*
X94287469Y-104697547D01*
X94246542Y-104604143D01*
X94200541Y-104502779D01*
X94152268Y-104399406D01*
X94104525Y-104299972D01*
X94060114Y-104210426D01*
X94021836Y-104136716D01*
X93992495Y-104084792D01*
X93979862Y-104065948D01*
X93960104Y-104042954D01*
X93953364Y-104046857D01*
X93952467Y-104063635D01*
X93956530Y-104093643D01*
X93967874Y-104147368D01*
X93984460Y-104215565D01*
X93994036Y-104252037D01*
X94008849Y-104309961D01*
X94024149Y-104376199D01*
X94040635Y-104454419D01*
X94059003Y-104548293D01*
X94079951Y-104661488D01*
X94104178Y-104797676D01*
X94132379Y-104960526D01*
X94163665Y-105144309D01*
X94201228Y-105366299D01*
X94269259Y-105380047D01*
X94331106Y-105393661D01*
X94361794Y-105406340D01*
X94363864Y-105423295D01*
X94339853Y-105449739D01*
X94314160Y-105472178D01*
X94272744Y-105510213D01*
X94251624Y-105541953D01*
X94244014Y-105582077D01*
X94243088Y-105625880D01*
X94240235Y-105677050D01*
X94232882Y-105710779D01*
X94225961Y-105718746D01*
X94211564Y-105704564D01*
X94208834Y-105687917D01*
X94199255Y-105645789D01*
X94172089Y-105632294D01*
X94129693Y-105648214D01*
X94116477Y-105657261D01*
X94062017Y-105696035D01*
X94031927Y-105713653D01*
X94024385Y-105711038D01*
X94029027Y-105701567D01*
X94032174Y-105686942D01*
X94009630Y-105688766D01*
X94001701Y-105690933D01*
X93891436Y-105714904D01*
X93762590Y-105730463D01*
X93635921Y-105735774D01*
X93564488Y-105733936D01*
X93525244Y-105729027D01*
X93516374Y-105722143D01*
X93536067Y-105714383D01*
X93582510Y-105706846D01*
X93653891Y-105700629D01*
X93697627Y-105698390D01*
X93781985Y-105693500D01*
X93843718Y-105685301D01*
X93894444Y-105671261D01*
X93945783Y-105648851D01*
X93961419Y-105640954D01*
X94010249Y-105610966D01*
X94060672Y-105572308D01*
X94106287Y-105531080D01*
X94140697Y-105493387D01*
X94157503Y-105465331D01*
X94156102Y-105455285D01*
X94136425Y-105449407D01*
X94093767Y-105441585D01*
X94059533Y-105436550D01*
X93970178Y-105424520D01*
X93924005Y-105518665D01*
X93873591Y-105595540D01*
X93810830Y-105651469D01*
X93742528Y-105681130D01*
X93711793Y-105684491D01*
X93617568Y-105669951D01*
X93537319Y-105629137D01*
X93516848Y-105607771D01*
X93653976Y-105607771D01*
X93673797Y-105614162D01*
X93691922Y-105612708D01*
X93729904Y-105598008D01*
X93743220Y-105577445D01*
X93736301Y-105553671D01*
X93730473Y-105551753D01*
X93783908Y-105551753D01*
X93788483Y-105574471D01*
X93818785Y-105581675D01*
X93823466Y-105581726D01*
X93856684Y-105575808D01*
X93863543Y-105554855D01*
X93863024Y-105551753D01*
X93843630Y-105527090D01*
X93823466Y-105521780D01*
X93793164Y-105534772D01*
X93783908Y-105551753D01*
X93730473Y-105551753D01*
X93711723Y-105545582D01*
X93681882Y-105552430D01*
X93659176Y-105573467D01*
X93655529Y-105582735D01*
X93653976Y-105607771D01*
X93516848Y-105607771D01*
X93477076Y-105566259D01*
X93446213Y-105499012D01*
X93430102Y-105456477D01*
X93405996Y-105437041D01*
X93370517Y-105430559D01*
X93268705Y-105436343D01*
X93171109Y-105470159D01*
X93091268Y-105526363D01*
X93046695Y-105574911D01*
X93030067Y-105609620D01*
X93040577Y-105635273D01*
X93069859Y-105653353D01*
X93105284Y-105674054D01*
X93107561Y-105688217D01*
X93077276Y-105695269D01*
X93027040Y-105695277D01*
X92961116Y-105688728D01*
X92926590Y-105673564D01*
X92920835Y-105645139D01*
X92941226Y-105598807D01*
X92957432Y-105572136D01*
X92986059Y-105524506D01*
X93005121Y-105488019D01*
X93009912Y-105474103D01*
X92994916Y-105467131D01*
X92957128Y-105467473D01*
X92937121Y-105469937D01*
X92864329Y-105481050D01*
X92932839Y-105440902D01*
X93013638Y-105394919D01*
X93076988Y-105364245D01*
X93134292Y-105345723D01*
X93196953Y-105336197D01*
X93276376Y-105332511D01*
X93326770Y-105331865D01*
X93412034Y-105332132D01*
X93519969Y-105333883D01*
X93639036Y-105336856D01*
X93757695Y-105340791D01*
X93806339Y-105342739D01*
X93902917Y-105346425D01*
X93987377Y-105348848D01*
X94053860Y-105349904D01*
X94096507Y-105349488D01*
X94109422Y-105348097D01*
X94108844Y-105329714D01*
X94097400Y-105283886D01*
X94076627Y-105215100D01*
X94048060Y-105127841D01*
X94013235Y-105026596D01*
X93973687Y-104915852D01*
X93930953Y-104800096D01*
X93886567Y-104683813D01*
X93852295Y-104596898D01*
X93733554Y-104307129D01*
X93619493Y-104043208D01*
X93506644Y-103797714D01*
X93391537Y-103563223D01*
X93270701Y-103332314D01*
X93204832Y-103211880D01*
X93150679Y-103115282D01*
X93107251Y-103044188D01*
X93068693Y-102994123D01*
X93029154Y-102960612D01*
X92982782Y-102939182D01*
X92923724Y-102925359D01*
X92846128Y-102914668D01*
X92810623Y-102910503D01*
X92624057Y-102890723D01*
X92427724Y-102873353D01*
X92227191Y-102858648D01*
X92028027Y-102846865D01*
X91835798Y-102838257D01*
X91656072Y-102833081D01*
X91494417Y-102831592D01*
X91356398Y-102834044D01*
X91261267Y-102839466D01*
X91170455Y-102848551D01*
X91078349Y-102860242D01*
X90991633Y-102873405D01*
X90916993Y-102886907D01*
X90861114Y-102899614D01*
X90830681Y-102910392D01*
X90827557Y-102913014D01*
X90818755Y-102929983D01*
X90799261Y-102969217D01*
X90773808Y-103021173D01*
X90746413Y-103074939D01*
X90723483Y-103115549D01*
X90710446Y-103133686D01*
X90689708Y-103161810D01*
X90664106Y-103215386D01*
X90636379Y-103286465D01*
X90609266Y-103367099D01*
X90585506Y-103449340D01*
X90567837Y-103525238D01*
X90560877Y-103567731D01*
X90550410Y-103641209D01*
X90538634Y-103707444D01*
X90527738Y-103754451D01*
X90525516Y-103761485D01*
X90519276Y-103798244D01*
X90515097Y-103863196D01*
X90513186Y-103950330D01*
X90513751Y-104053637D01*
X90514376Y-104084449D01*
X90520770Y-104357114D01*
X90610741Y-104614026D01*
X90642075Y-104703524D01*
X90669816Y-104782805D01*
X90691804Y-104845694D01*
X90705879Y-104886014D01*
X90709568Y-104896629D01*
X90725925Y-104917454D01*
X90763302Y-104953830D01*
X90815735Y-105000204D01*
X90863578Y-105040014D01*
X90933236Y-105094930D01*
X90988998Y-105133241D01*
X91042557Y-105161112D01*
X91105608Y-105184708D01*
X91182092Y-105207955D01*
X91263043Y-105232490D01*
X91319156Y-105253232D01*
X91358868Y-105274524D01*
X91390618Y-105300705D01*
X91416229Y-105328403D01*
X91452572Y-105371424D01*
X91479852Y-105405604D01*
X91488648Y-105417983D01*
X91506662Y-105441212D01*
X91539258Y-105478304D01*
X91558676Y-105499270D01*
X91601692Y-105551948D01*
X91639044Y-105609248D01*
X91648068Y-105626516D01*
X91668259Y-105687367D01*
X91682188Y-105764791D01*
X91688824Y-105846369D01*
X91687135Y-105919683D01*
X91676663Y-105970916D01*
X91668524Y-106002366D01*
X91656941Y-106062292D01*
X91642762Y-106145186D01*
X91626835Y-106245539D01*
X91610009Y-106357843D01*
X91593131Y-106476589D01*
X91577050Y-106596269D01*
X91562614Y-106711374D01*
X91562523Y-106712138D01*
X91551372Y-106777175D01*
X91532987Y-106857287D01*
X91511338Y-106935177D01*
X91511241Y-106935490D01*
X91473996Y-107065984D01*
X91449377Y-107175140D01*
X91437971Y-107259764D01*
X91440366Y-107316659D01*
X91440828Y-107318596D01*
X91457920Y-107353610D01*
X91491225Y-107400355D01*
X91533801Y-107451146D01*
X91578710Y-107498300D01*
X91619011Y-107534134D01*
X91647766Y-107550964D01*
X91651080Y-107551382D01*
X91679962Y-107559140D01*
X91725293Y-107578721D01*
X91776468Y-107604587D01*
X91822883Y-107631202D01*
X91853931Y-107653026D01*
X91860527Y-107660750D01*
X91875114Y-107681645D01*
X91905738Y-107718241D01*
X91934115Y-107749870D01*
X91972888Y-107797618D01*
X91985810Y-107825920D01*
X91975850Y-107833847D01*
X91945978Y-107820468D01*
X91899161Y-107784855D01*
X91879377Y-107767017D01*
X91833496Y-107726980D01*
X91795107Y-107698607D01*
X91773188Y-107688235D01*
X91731407Y-107678085D01*
X91672589Y-107651642D01*
X91606268Y-107614236D01*
X91541976Y-107571198D01*
X91493550Y-107531889D01*
X91440627Y-107474811D01*
X91392564Y-107408407D01*
X91355124Y-107342165D01*
X91334071Y-107285571D01*
X91331475Y-107265067D01*
X91336351Y-107237127D01*
X91349548Y-107184383D01*
X91368991Y-107114670D01*
X91390076Y-107044014D01*
X91420786Y-106933182D01*
X91452684Y-106798742D01*
X91484553Y-106647745D01*
X91515179Y-106487242D01*
X91543345Y-106324283D01*
X91567837Y-106165918D01*
X91587439Y-106019197D01*
X91600936Y-105891171D01*
X91607113Y-105788889D01*
X91607210Y-105784450D01*
X91605055Y-105693697D01*
X91592591Y-105626131D01*
X91567029Y-105571515D01*
X91539083Y-105534626D01*
X91509688Y-105503989D01*
X91492692Y-105499476D01*
X91480249Y-105519578D01*
X91478889Y-105523050D01*
X91482156Y-105553032D01*
X91503523Y-105598782D01*
X91519875Y-105624618D01*
X91549383Y-105673992D01*
X91567943Y-105717524D01*
X91571207Y-105734677D01*
X91562373Y-105764709D01*
X91542372Y-105767263D01*
X91527667Y-105751833D01*
X91504271Y-105740564D01*
X91492401Y-105742732D01*
X91472446Y-105738255D01*
X91468442Y-105719219D01*
X91459108Y-105683657D01*
X91431635Y-105676802D01*
X91386822Y-105698815D01*
X91382472Y-105701856D01*
X91324170Y-105729459D01*
X91245816Y-105740437D01*
X91236541Y-105740726D01*
X91178964Y-105739889D01*
X91140555Y-105730257D01*
X91106375Y-105706211D01*
X91081628Y-105682474D01*
X91076360Y-105676031D01*
X91196600Y-105676031D01*
X91211911Y-105683480D01*
X91246415Y-105678371D01*
X91292094Y-105670612D01*
X91324902Y-105667364D01*
X91325000Y-105667364D01*
X91343901Y-105654728D01*
X91347424Y-105627348D01*
X91335716Y-105601014D01*
X91324308Y-105593216D01*
X91278997Y-105589240D01*
X91234000Y-105604672D01*
X91202986Y-105633455D01*
X91197174Y-105649550D01*
X91196600Y-105676031D01*
X91076360Y-105676031D01*
X91039512Y-105630960D01*
X91005847Y-105573705D01*
X90998048Y-105554768D01*
X90983187Y-105515904D01*
X90966112Y-105495940D01*
X90936087Y-105488579D01*
X90883420Y-105487525D01*
X90791908Y-105487525D01*
X90797530Y-105551753D01*
X90796787Y-105598425D01*
X90784794Y-105613631D01*
X90763304Y-105597594D01*
X90734073Y-105550539D01*
X90730315Y-105543190D01*
X90702536Y-105492572D01*
X90675886Y-105451223D01*
X90667689Y-105440782D01*
X90654146Y-105423153D01*
X90654348Y-105411018D01*
X90673458Y-105401688D01*
X90716637Y-105392474D01*
X90780490Y-105382036D01*
X90871836Y-105367633D01*
X90815170Y-105290560D01*
X90784021Y-105246756D01*
X90782905Y-105245039D01*
X90851854Y-105245039D01*
X90858576Y-105265708D01*
X90875183Y-105303933D01*
X90879611Y-105313349D01*
X90907368Y-105371555D01*
X91106550Y-105393099D01*
X91220913Y-105406909D01*
X91313680Y-105421906D01*
X91397492Y-105440419D01*
X91467520Y-105459597D01*
X91461400Y-105450031D01*
X91437319Y-105423145D01*
X91417879Y-105402733D01*
X91353143Y-105352894D01*
X91290346Y-105327241D01*
X91231985Y-105312451D01*
X91161817Y-105293094D01*
X91125894Y-105282595D01*
X91065815Y-105267063D01*
X91000433Y-105253997D01*
X90938205Y-105244556D01*
X90887589Y-105239900D01*
X90857043Y-105241187D01*
X90851854Y-105245039D01*
X90782905Y-105245039D01*
X90763257Y-105214811D01*
X90758078Y-105204197D01*
X90750382Y-105185511D01*
X90730585Y-105145323D01*
X90721151Y-105127214D01*
X90802511Y-105127214D01*
X90802843Y-105127849D01*
X90816576Y-105158155D01*
X90822985Y-105174950D01*
X90839944Y-105195762D01*
X90863685Y-105204786D01*
X90881231Y-105199829D01*
X90882316Y-105184979D01*
X90864121Y-105161541D01*
X90834518Y-105137879D01*
X90808646Y-105123862D01*
X90802511Y-105127214D01*
X90721151Y-105127214D01*
X90702928Y-105092233D01*
X90702174Y-105090818D01*
X90671803Y-105035825D01*
X90648014Y-105003744D01*
X90621563Y-104987110D01*
X90583204Y-104978455D01*
X90558873Y-104975078D01*
X90507554Y-104970003D01*
X90471810Y-104969698D01*
X90462430Y-104972050D01*
X88886577Y-104972050D01*
X88887457Y-104897787D01*
X90479086Y-104897787D01*
X90491450Y-104910809D01*
X90522878Y-104913720D01*
X90542014Y-104913756D01*
X90608978Y-104913756D01*
X90521918Y-104733918D01*
X90498744Y-104810991D01*
X90482585Y-104867049D01*
X90479086Y-104897787D01*
X88887457Y-104897787D01*
X88888586Y-104802428D01*
X88897049Y-104585645D01*
X88909999Y-104397209D01*
X88928029Y-104231433D01*
X88951731Y-104082630D01*
X88975233Y-103971747D01*
X88991781Y-103898682D01*
X88999066Y-103856518D01*
X88996903Y-103843127D01*
X88985111Y-103856382D01*
X88967871Y-103886109D01*
X88932586Y-103962844D01*
X88893914Y-104068588D01*
X88853210Y-104198423D01*
X88811832Y-104347434D01*
X88771136Y-104510704D01*
X88732480Y-104683316D01*
X88697220Y-104860355D01*
X88693678Y-104879501D01*
X88674356Y-105008848D01*
X88658302Y-105164099D01*
X88645799Y-105337034D01*
X88637130Y-105519433D01*
X88632576Y-105703077D01*
X88632421Y-105879744D01*
X88636945Y-106041215D01*
X88646432Y-106179270D01*
X88648394Y-106198314D01*
X88658869Y-106290393D01*
X88669149Y-106373278D01*
X88678251Y-106439543D01*
X88685193Y-106481760D01*
X88686930Y-106489481D01*
X88693703Y-106522264D01*
X88690120Y-106528257D01*
X88678932Y-106512321D01*
X88662887Y-106479315D01*
X88644735Y-106434098D01*
X88628789Y-106386716D01*
X88594080Y-106263890D01*
X88565011Y-106139547D01*
X88540970Y-106008778D01*
X88521345Y-105866672D01*
X88505524Y-105708321D01*
X88492897Y-105528815D01*
X88482852Y-105323244D01*
X88477332Y-105170668D01*
X88480385Y-104782980D01*
X88515152Y-104400961D01*
X88582185Y-104020938D01*
X88682033Y-103639238D01*
X88729445Y-103490747D01*
X88777174Y-103358693D01*
X88837083Y-103209242D01*
X88905935Y-103049270D01*
X88980492Y-102885652D01*
X89057520Y-102725265D01*
X89133779Y-102574984D01*
X89206034Y-102441686D01*
X89271048Y-102332245D01*
X89284992Y-102310631D01*
X89335718Y-102228641D01*
X89354691Y-102195013D01*
X90047208Y-102195013D01*
X90048687Y-102345245D01*
X90052345Y-102489154D01*
X90058123Y-102619269D01*
X90065964Y-102728120D01*
X90072970Y-102789953D01*
X90092202Y-102916489D01*
X90114040Y-103044626D01*
X90137617Y-103170700D01*
X90162064Y-103291048D01*
X90186513Y-103402008D01*
X90210097Y-103499916D01*
X90231947Y-103581110D01*
X90251196Y-103641927D01*
X90266975Y-103678703D01*
X90278417Y-103687776D01*
X90283144Y-103676950D01*
X90282596Y-103651334D01*
X90277591Y-103598824D01*
X90268913Y-103526378D01*
X90257350Y-103440951D01*
X90253476Y-103414112D01*
X90242391Y-103325794D01*
X90230907Y-103212082D01*
X90219759Y-103081821D01*
X90209680Y-102943852D01*
X90201406Y-102807020D01*
X90198856Y-102756500D01*
X90192472Y-102611779D01*
X90188561Y-102492595D01*
X90187227Y-102390315D01*
X90188156Y-102325457D01*
X92924955Y-102325457D01*
X92932508Y-102347065D01*
X92954000Y-102393966D01*
X92987049Y-102461335D01*
X93029274Y-102544348D01*
X93078291Y-102638182D01*
X93094116Y-102668006D01*
X93169198Y-102812293D01*
X93249845Y-102973091D01*
X93332774Y-103143412D01*
X93414701Y-103316265D01*
X93492344Y-103484660D01*
X93562420Y-103641608D01*
X93621644Y-103780118D01*
X93653615Y-103859115D01*
X93686838Y-103940112D01*
X93713776Y-103995247D01*
X93738511Y-104031306D01*
X93765124Y-104055077D01*
X93775394Y-104061606D01*
X93815078Y-104092222D01*
X93839885Y-104124500D01*
X93841398Y-104128428D01*
X93853420Y-104152130D01*
X93861056Y-104153959D01*
X93861907Y-104134309D01*
X93856584Y-104089509D01*
X93846177Y-104027886D01*
X93841317Y-104002803D01*
X93807601Y-103872121D01*
X93755399Y-103719645D01*
X93687233Y-103550639D01*
X93605623Y-103370367D01*
X93552288Y-103262999D01*
X93838882Y-103262999D01*
X93843551Y-103296173D01*
X93861950Y-103353956D01*
X93894719Y-103438386D01*
X93936659Y-103538001D01*
X93985145Y-103653593D01*
X94039941Y-103789543D01*
X94099246Y-103940938D01*
X94161260Y-104102865D01*
X94224180Y-104270411D01*
X94286206Y-104438664D01*
X94345538Y-104602709D01*
X94400375Y-104757634D01*
X94448914Y-104898526D01*
X94489357Y-105020471D01*
X94519901Y-105118557D01*
X94532919Y-105164636D01*
X94550854Y-105222485D01*
X94573660Y-105282960D01*
X94597510Y-105337373D01*
X94618583Y-105377032D01*
X94633055Y-105393251D01*
X94633539Y-105393290D01*
X94642828Y-105378262D01*
X94649268Y-105341718D01*
X94649596Y-105337626D01*
X94646517Y-105275400D01*
X94631327Y-105185592D01*
X94605288Y-105072157D01*
X94569661Y-104939048D01*
X94567639Y-104932202D01*
X94758928Y-104932202D01*
X94761458Y-104946620D01*
X94762879Y-104951136D01*
X94769533Y-104982838D01*
X94777524Y-105036065D01*
X94783853Y-105088156D01*
X94792959Y-105148915D01*
X94804763Y-105197825D01*
X94814808Y-105221056D01*
X94825197Y-105237668D01*
X94810997Y-105231899D01*
X94810093Y-105231356D01*
X94794735Y-105227414D01*
X94793858Y-105247386D01*
X94797881Y-105266605D01*
X94806200Y-105314387D01*
X94813128Y-105382503D01*
X94818780Y-105473543D01*
X94823272Y-105590095D01*
X94826719Y-105734746D01*
X94829239Y-105910087D01*
X94829966Y-105984142D01*
X94831525Y-106113382D01*
X94833714Y-106209543D01*
X94836657Y-106272486D01*
X94840475Y-106302070D01*
X94845290Y-106298154D01*
X94851223Y-106260597D01*
X94858396Y-106189260D01*
X94866932Y-106084002D01*
X94876951Y-105944682D01*
X94878055Y-105928639D01*
X94888157Y-105748235D01*
X94892455Y-105588826D01*
X94891053Y-105452829D01*
X94884053Y-105342656D01*
X94871561Y-105260724D01*
X94853679Y-105209447D01*
X94846767Y-105199831D01*
X94820805Y-105153177D01*
X94803236Y-105083889D01*
X94801007Y-105067756D01*
X94791548Y-105010347D01*
X94779425Y-104964735D01*
X94771708Y-104947863D01*
X94758928Y-104932202D01*
X94567639Y-104932202D01*
X94525709Y-104790221D01*
X94474694Y-104629629D01*
X94434758Y-104511261D01*
X94705529Y-104511261D01*
X94714093Y-104519825D01*
X94722657Y-104511261D01*
X94714093Y-104502697D01*
X94705529Y-104511261D01*
X94434758Y-104511261D01*
X94423201Y-104477006D01*
X94688402Y-104477006D01*
X94696966Y-104485570D01*
X94705529Y-104477006D01*
X94696966Y-104468442D01*
X94688402Y-104477006D01*
X94423201Y-104477006D01*
X94417877Y-104461226D01*
X94356522Y-104288968D01*
X94291889Y-104116809D01*
X94225242Y-103948702D01*
X94157843Y-103788603D01*
X94148051Y-103766217D01*
X94088946Y-103636875D01*
X94031488Y-103520703D01*
X93977676Y-103421115D01*
X93929506Y-103341521D01*
X93888974Y-103285333D01*
X93858078Y-103255964D01*
X93847306Y-103252394D01*
X93838882Y-103262999D01*
X93552288Y-103262999D01*
X93513091Y-103184092D01*
X93412158Y-102997079D01*
X93305346Y-102814592D01*
X93195175Y-102641893D01*
X93175494Y-102612711D01*
X93120393Y-102534747D01*
X93066037Y-102463141D01*
X93015947Y-102401930D01*
X92973643Y-102355152D01*
X92942645Y-102326842D01*
X92926476Y-102321038D01*
X92924955Y-102325457D01*
X90188156Y-102325457D01*
X90188573Y-102296304D01*
X90192699Y-102201926D01*
X90199708Y-102098548D01*
X90207820Y-101999361D01*
X90222568Y-101851865D01*
X90241283Y-101703133D01*
X90262951Y-101558803D01*
X90286560Y-101424515D01*
X90311095Y-101305911D01*
X90335544Y-101208629D01*
X90358893Y-101138311D01*
X90365054Y-101124309D01*
X90391162Y-101078699D01*
X90411156Y-101061295D01*
X90422457Y-101073592D01*
X90424034Y-101090054D01*
X90437371Y-101117017D01*
X90470791Y-101151330D01*
X90492109Y-101167926D01*
X90626576Y-101273033D01*
X90768789Y-101403989D01*
X90921351Y-101563237D01*
X90965438Y-101612283D01*
X91027400Y-101680540D01*
X91081264Y-101736983D01*
X91123164Y-101777791D01*
X91149233Y-101799144D01*
X91155979Y-101800506D01*
X91153648Y-101771472D01*
X91143529Y-101746128D01*
X91129318Y-101715786D01*
X91131113Y-101709960D01*
X91145264Y-101725115D01*
X91168119Y-101757714D01*
X91186745Y-101787997D01*
X91213364Y-101831355D01*
X91232851Y-101859313D01*
X91238849Y-101865071D01*
X91246698Y-101853167D01*
X91235391Y-101816805D01*
X91204503Y-101755009D01*
X91153607Y-101666804D01*
X91148437Y-101658211D01*
X91006423Y-101438723D01*
X90865206Y-101252337D01*
X90725135Y-101099494D01*
X90653630Y-101034070D01*
X90599382Y-100991571D01*
X90717893Y-100991571D01*
X90725058Y-101002963D01*
X90749993Y-101032909D01*
X90786943Y-101075065D01*
X90830151Y-101123087D01*
X90873862Y-101170632D01*
X90912319Y-101211355D01*
X90939768Y-101238911D01*
X90949800Y-101247174D01*
X90948150Y-101234985D01*
X90942807Y-101218510D01*
X90912193Y-101157781D01*
X90867087Y-101097209D01*
X90814937Y-101044310D01*
X90763191Y-101006599D01*
X90719300Y-100991593D01*
X90717893Y-100991571D01*
X90599382Y-100991571D01*
X90592022Y-100985805D01*
X90547286Y-100960835D01*
X91010154Y-100960835D01*
X91017691Y-100989344D01*
X91032499Y-101002843D01*
X91062538Y-101019374D01*
X91085447Y-101014397D01*
X91106845Y-100983875D01*
X91128394Y-100933935D01*
X91134994Y-100917133D01*
X91408767Y-100917133D01*
X91416734Y-100923061D01*
X91433648Y-100912145D01*
X91434188Y-100908574D01*
X91444545Y-100889864D01*
X91454473Y-100876271D01*
X91766435Y-100876271D01*
X91776909Y-100888158D01*
X91809915Y-100915985D01*
X91860273Y-100955557D01*
X91920774Y-101001180D01*
X92217559Y-101235443D01*
X92498318Y-101487452D01*
X92770462Y-101764034D01*
X92881589Y-101886480D01*
X92927203Y-101937414D01*
X92963315Y-101976895D01*
X92984640Y-101999183D01*
X92988079Y-102002090D01*
X92985744Y-101988401D01*
X92976327Y-101961033D01*
X92968027Y-101926640D01*
X92970770Y-101909923D01*
X92967099Y-101890581D01*
X92942770Y-101850708D01*
X92901063Y-101794272D01*
X92845259Y-101725244D01*
X92778637Y-101647592D01*
X92704477Y-101565288D01*
X92626061Y-101482300D01*
X92572804Y-101428321D01*
X92412129Y-101277892D01*
X92253499Y-101149365D01*
X92154907Y-101079029D01*
X92109443Y-101049252D01*
X92312808Y-101049252D01*
X92321170Y-101062782D01*
X92349027Y-101091593D01*
X92380026Y-101120181D01*
X92474400Y-101205629D01*
X92579056Y-101303501D01*
X92689410Y-101409230D01*
X92800873Y-101518250D01*
X92908859Y-101625995D01*
X93008782Y-101727900D01*
X93096053Y-101819399D01*
X93166087Y-101895926D01*
X93205285Y-101941659D01*
X93345390Y-102118642D01*
X93482495Y-102302074D01*
X93613149Y-102486785D01*
X93733901Y-102667601D01*
X93841299Y-102839354D01*
X93931891Y-102996871D01*
X94002226Y-103134981D01*
X94003241Y-103137162D01*
X94034574Y-103202642D01*
X94065915Y-103264984D01*
X94086666Y-103303776D01*
X94106701Y-103341224D01*
X94137846Y-103401799D01*
X94176207Y-103477835D01*
X94217893Y-103561664D01*
X94227962Y-103582097D01*
X94276443Y-103678581D01*
X94312703Y-103745487D01*
X94338096Y-103784687D01*
X94353976Y-103798055D01*
X94361697Y-103787464D01*
X94362981Y-103768899D01*
X94357588Y-103736216D01*
X94343628Y-103684180D01*
X94328963Y-103638452D01*
X94314241Y-103597514D01*
X94313116Y-103594664D01*
X94440226Y-103594664D01*
X94442100Y-103615209D01*
X94453053Y-103663767D01*
X94471835Y-103735692D01*
X94497195Y-103826338D01*
X94527882Y-103931057D01*
X94553891Y-104016852D01*
X94588188Y-104126870D01*
X94619383Y-104223970D01*
X94646068Y-104304011D01*
X94666836Y-104362852D01*
X94680280Y-104396353D01*
X94684821Y-104402111D01*
X94700670Y-104390061D01*
X94706941Y-104392241D01*
X94712975Y-104385996D01*
X94705625Y-104357366D01*
X94705478Y-104356978D01*
X94691278Y-104315963D01*
X94690941Y-104300528D01*
X94704236Y-104304932D01*
X94706521Y-104293590D01*
X94700765Y-104255398D01*
X94688116Y-104196505D01*
X94671658Y-104130387D01*
X94629352Y-103977521D01*
X94588796Y-103846935D01*
X94550800Y-103740509D01*
X94516176Y-103660121D01*
X94485737Y-103607652D01*
X94460293Y-103584979D01*
X94440657Y-103593982D01*
X94440226Y-103594664D01*
X94313116Y-103594664D01*
X94296784Y-103553285D01*
X94274526Y-103501181D01*
X94245399Y-103436620D01*
X94207336Y-103355018D01*
X94158269Y-103251792D01*
X94096893Y-103123938D01*
X94058864Y-103043006D01*
X94021122Y-102959426D01*
X93989909Y-102887129D01*
X93980795Y-102864856D01*
X93936438Y-102768633D01*
X93872911Y-102651753D01*
X93793686Y-102519262D01*
X93702240Y-102376203D01*
X93602044Y-102227622D01*
X93496574Y-102078565D01*
X93389304Y-101934077D01*
X93283707Y-101799203D01*
X93183257Y-101678988D01*
X93104113Y-101591675D01*
X93049833Y-101533838D01*
X93011378Y-101491179D01*
X92990967Y-101466324D01*
X92990821Y-101461898D01*
X93001349Y-101470112D01*
X93152627Y-101601162D01*
X93283360Y-101719027D01*
X93391799Y-101822037D01*
X93476194Y-101908525D01*
X93534796Y-101976822D01*
X93540230Y-101984010D01*
X93587615Y-102045771D01*
X93628600Y-102095467D01*
X93660588Y-102130751D01*
X93680983Y-102149278D01*
X93687189Y-102148699D01*
X93676610Y-102126667D01*
X93646648Y-102080837D01*
X93645488Y-102079164D01*
X93603958Y-102019254D01*
X93551362Y-101943246D01*
X93496074Y-101863244D01*
X93467776Y-101822252D01*
X93400764Y-101731111D01*
X93328436Y-101642914D01*
X93255468Y-101562474D01*
X93187449Y-101495504D01*
X93322388Y-101495504D01*
X93328962Y-101511229D01*
X93352952Y-101546854D01*
X93389876Y-101595935D01*
X93408826Y-101619834D01*
X93469391Y-101699598D01*
X93541942Y-101802392D01*
X93621937Y-101921243D01*
X93704834Y-102049176D01*
X93786090Y-102179219D01*
X93861162Y-102304398D01*
X93908249Y-102386552D01*
X93967128Y-102486623D01*
X94036507Y-102596460D01*
X94109765Y-102706160D01*
X94180283Y-102805817D01*
X94241439Y-102885526D01*
X94243229Y-102887713D01*
X94258366Y-102910029D01*
X94260216Y-102915490D01*
X94268603Y-102935469D01*
X94291180Y-102977962D01*
X94324072Y-103036380D01*
X94363403Y-103104132D01*
X94405297Y-103174629D01*
X94445879Y-103241282D01*
X94481273Y-103297501D01*
X94507602Y-103336696D01*
X94509421Y-103339198D01*
X94537213Y-103382433D01*
X94575315Y-103449150D01*
X94619606Y-103531764D01*
X94665963Y-103622690D01*
X94688831Y-103669321D01*
X94729990Y-103753505D01*
X94766159Y-103825680D01*
X94794692Y-103880708D01*
X94812942Y-103913450D01*
X94818133Y-103920364D01*
X94822275Y-103905689D01*
X94812608Y-103864122D01*
X94790764Y-103799348D01*
X94758375Y-103715053D01*
X94717070Y-103614923D01*
X94676043Y-103520114D01*
X94828271Y-103520114D01*
X94829822Y-103526433D01*
X94839623Y-103552333D01*
X94859075Y-103602186D01*
X94885100Y-103668144D01*
X94907057Y-103723399D01*
X95035112Y-104067017D01*
X95154277Y-104433528D01*
X95265646Y-104826545D01*
X95370315Y-105249680D01*
X95372196Y-105257817D01*
X95415440Y-105445886D01*
X95451305Y-105603715D01*
X95480423Y-105734369D01*
X95503423Y-105840912D01*
X95520935Y-105926411D01*
X95533589Y-105993930D01*
X95542015Y-106046535D01*
X95546842Y-106087291D01*
X95548629Y-106116274D01*
X95551641Y-106149216D01*
X95561593Y-106152818D01*
X95575941Y-106140233D01*
X95588601Y-106118912D01*
X95596142Y-106081675D01*
X95599322Y-106022196D01*
X95599114Y-105946515D01*
X95593689Y-105847381D01*
X95580873Y-105721522D01*
X95561780Y-105575393D01*
X95537527Y-105415450D01*
X95509230Y-105248148D01*
X95478006Y-105079944D01*
X95444969Y-104917293D01*
X95444223Y-104913961D01*
X95719444Y-104913961D01*
X95720284Y-104949291D01*
X95723884Y-105004374D01*
X95730430Y-105082198D01*
X95740108Y-105185750D01*
X95753104Y-105318017D01*
X95765834Y-105444707D01*
X95788121Y-105659963D01*
X95808226Y-105843213D01*
X95826101Y-105994097D01*
X95841701Y-106112258D01*
X95854976Y-106197337D01*
X95865881Y-106248975D01*
X95874366Y-106266814D01*
X95874540Y-106266824D01*
X95884695Y-106252130D01*
X95886799Y-106219724D01*
X95884380Y-106141980D01*
X95888413Y-106092099D01*
X95897795Y-106071504D01*
X95911424Y-106081616D01*
X95928194Y-106123859D01*
X95936845Y-106155205D01*
X95949548Y-106200782D01*
X95959659Y-106228578D01*
X95962671Y-106232569D01*
X95965579Y-106216462D01*
X95964676Y-106171667D01*
X95960492Y-106103477D01*
X95953554Y-106017183D01*
X95944392Y-105918078D01*
X95933534Y-105811452D01*
X95921510Y-105702598D01*
X95908847Y-105596808D01*
X95896074Y-105499373D01*
X95883721Y-105415585D01*
X95877112Y-105376197D01*
X95861155Y-105299770D01*
X95839249Y-105212332D01*
X95813824Y-105121900D01*
X95787314Y-105036491D01*
X95762150Y-104964120D01*
X95740765Y-104912805D01*
X95731613Y-104896629D01*
X95725295Y-104890617D01*
X95721176Y-104895399D01*
X95719444Y-104913961D01*
X95444223Y-104913961D01*
X95411237Y-104766651D01*
X95377926Y-104634473D01*
X95363295Y-104582482D01*
X95319402Y-104442034D01*
X95269601Y-104298395D01*
X95215979Y-104156386D01*
X95160623Y-104020826D01*
X95105622Y-103896539D01*
X95053062Y-103788343D01*
X95005032Y-103701061D01*
X94963618Y-103639514D01*
X94946813Y-103620634D01*
X94889508Y-103565784D01*
X94852905Y-103532565D01*
X94833621Y-103518250D01*
X94828271Y-103520114D01*
X94676043Y-103520114D01*
X94668482Y-103502642D01*
X94614242Y-103381898D01*
X94555981Y-103256375D01*
X94495329Y-103129760D01*
X94433919Y-103005737D01*
X94373381Y-102887993D01*
X94315347Y-102780213D01*
X94306471Y-102764262D01*
X94123769Y-102464724D01*
X93911535Y-102165669D01*
X93862432Y-102104855D01*
X93951922Y-102104855D01*
X93958189Y-102118953D01*
X93963340Y-102116273D01*
X93965390Y-102095947D01*
X93963340Y-102093437D01*
X93953158Y-102095788D01*
X93951922Y-102104855D01*
X93862432Y-102104855D01*
X93694990Y-101897477D01*
X93624401Y-101814472D01*
X93562039Y-101740012D01*
X93511148Y-101678065D01*
X93474974Y-101632599D01*
X93456762Y-101607582D01*
X93455226Y-101604288D01*
X93468167Y-101591236D01*
X93470905Y-101591032D01*
X93487252Y-101602923D01*
X93521929Y-101635339D01*
X93570291Y-101683396D01*
X93627695Y-101742208D01*
X93689498Y-101806890D01*
X93751058Y-101872557D01*
X93807730Y-101934324D01*
X93854871Y-101987307D01*
X93887839Y-102026620D01*
X93898219Y-102040602D01*
X93924190Y-102068437D01*
X93946141Y-102075639D01*
X93972208Y-102083651D01*
X94015890Y-102117895D01*
X94075402Y-102176367D01*
X94148961Y-102257067D01*
X94234782Y-102357993D01*
X94331082Y-102477143D01*
X94436076Y-102612515D01*
X94498818Y-102695752D01*
X94568524Y-102789277D01*
X94624571Y-102865369D01*
X94670738Y-102929981D01*
X94710801Y-102989063D01*
X94748540Y-103048568D01*
X94787732Y-103114448D01*
X94832154Y-103192654D01*
X94885585Y-103289138D01*
X94949988Y-103406541D01*
X95003185Y-103503569D01*
X95056177Y-103600119D01*
X95104492Y-103688051D01*
X95143658Y-103759225D01*
X95161684Y-103791908D01*
X95203485Y-103871803D01*
X95247753Y-103962981D01*
X95282524Y-104040256D01*
X95337477Y-104170306D01*
X95387633Y-104290516D01*
X95430967Y-104395946D01*
X95465454Y-104481652D01*
X95489070Y-104542692D01*
X95494610Y-104557931D01*
X95512036Y-104603157D01*
X95521192Y-104617743D01*
X95522292Y-104604238D01*
X95515550Y-104565191D01*
X95501181Y-104503149D01*
X95484685Y-104439949D01*
X95460333Y-104352902D01*
X95435501Y-104270872D01*
X95408632Y-104190196D01*
X95378166Y-104107212D01*
X95342547Y-104018256D01*
X95300217Y-103919667D01*
X95249617Y-103807781D01*
X95189189Y-103678936D01*
X95117376Y-103529470D01*
X95032620Y-103355720D01*
X94964978Y-103218139D01*
X94863737Y-103014612D01*
X94805889Y-102901281D01*
X94979569Y-102901281D01*
X94988132Y-102909845D01*
X94996696Y-102901281D01*
X94988132Y-102892718D01*
X94979569Y-102901281D01*
X94805889Y-102901281D01*
X94773998Y-102838802D01*
X94693579Y-102687026D01*
X94620301Y-102555597D01*
X94551982Y-102440831D01*
X94486440Y-102339041D01*
X94421495Y-102246543D01*
X94354967Y-102159652D01*
X94296465Y-102088539D01*
X94262359Y-102045332D01*
X94244103Y-102016036D01*
X94244889Y-102005976D01*
X94247370Y-102006646D01*
X94271176Y-102012310D01*
X94273826Y-102002189D01*
X94254160Y-101974735D01*
X94211019Y-101928401D01*
X94143242Y-101861640D01*
X94127050Y-101846103D01*
X94032509Y-101757700D01*
X93953779Y-101690441D01*
X93905849Y-101656221D01*
X94048685Y-101656221D01*
X94066341Y-101687680D01*
X94109770Y-101739168D01*
X94173258Y-101807437D01*
X94371248Y-102035517D01*
X94560600Y-102291166D01*
X94736712Y-102567935D01*
X94815889Y-102707675D01*
X94863917Y-102789403D01*
X94905164Y-102846676D01*
X94937676Y-102877268D01*
X94959496Y-102878951D01*
X94962816Y-102874984D01*
X94964431Y-102847559D01*
X94949339Y-102796109D01*
X94917012Y-102719329D01*
X94866923Y-102615915D01*
X94826362Y-102537173D01*
X94796173Y-102477741D01*
X94774222Y-102430988D01*
X94763844Y-102404181D01*
X94763692Y-102400659D01*
X94777696Y-102408915D01*
X94806403Y-102441837D01*
X94846646Y-102494866D01*
X94895257Y-102563445D01*
X94949068Y-102643015D01*
X95004913Y-102729018D01*
X95059624Y-102816896D01*
X95099674Y-102884154D01*
X95213959Y-103084532D01*
X95312857Y-103267577D01*
X95399072Y-103439881D01*
X95475308Y-103608038D01*
X95544270Y-103778640D01*
X95608661Y-103958281D01*
X95671185Y-104153552D01*
X95734548Y-104371047D01*
X95784610Y-104554080D01*
X95815593Y-104669649D01*
X95839105Y-104756390D01*
X95856543Y-104818560D01*
X95869302Y-104860419D01*
X95878780Y-104886225D01*
X95886372Y-104900237D01*
X95893474Y-104906713D01*
X95901239Y-104909831D01*
X95915635Y-104900437D01*
X95921044Y-104862094D01*
X95918208Y-104798696D01*
X95907870Y-104714138D01*
X95890773Y-104612313D01*
X95867660Y-104497117D01*
X95839273Y-104372444D01*
X95806355Y-104242189D01*
X95769650Y-104110245D01*
X95729899Y-103980508D01*
X95715788Y-103937492D01*
X95657933Y-103773579D01*
X95588364Y-103591429D01*
X95511658Y-103402149D01*
X95432392Y-103216848D01*
X95355142Y-103046633D01*
X95311115Y-102955258D01*
X95269126Y-102869962D01*
X95233067Y-102795647D01*
X95205464Y-102737607D01*
X95188845Y-102701136D01*
X95185098Y-102691225D01*
X95193960Y-102698959D01*
X95217208Y-102728553D01*
X95249835Y-102773627D01*
X95250286Y-102774268D01*
X95290134Y-102830121D01*
X95341913Y-102901531D01*
X95397008Y-102976646D01*
X95421524Y-103009763D01*
X95488474Y-103103090D01*
X95546208Y-103191819D01*
X95599010Y-103283775D01*
X95651166Y-103386785D01*
X95706962Y-103508674D01*
X95752482Y-103614137D01*
X95835186Y-103815807D01*
X95903590Y-103999242D01*
X95960394Y-104173916D01*
X96008298Y-104349303D01*
X96050004Y-104534878D01*
X96088213Y-104740114D01*
X96108329Y-104862374D01*
X96125516Y-104982568D01*
X96143447Y-105128953D01*
X96161361Y-105293499D01*
X96178496Y-105468174D01*
X96194091Y-105644948D01*
X96207386Y-105815791D01*
X96217618Y-105972671D01*
X96222365Y-106065577D01*
X96227906Y-106171624D01*
X96234050Y-106246545D01*
X96241199Y-106293470D01*
X96249753Y-106315526D01*
X96254778Y-106318206D01*
X96266664Y-106303364D01*
X96278442Y-106257917D01*
X96290404Y-106180486D01*
X96298318Y-106113270D01*
X96312549Y-105936911D01*
X96320349Y-105737548D01*
X96321911Y-105524705D01*
X96317429Y-105307906D01*
X96307094Y-105096677D01*
X96291100Y-104900542D01*
X96270390Y-104733918D01*
X96242742Y-104566368D01*
X96212758Y-104415539D01*
X96177610Y-104269868D01*
X96134473Y-104117796D01*
X96080519Y-103947761D01*
X96071442Y-103920364D01*
X96032158Y-103805809D01*
X95993452Y-103701453D01*
X95952063Y-103599737D01*
X95904728Y-103493101D01*
X95848188Y-103373985D01*
X95779180Y-103234828D01*
X95755251Y-103187435D01*
X95656214Y-102994094D01*
X95568387Y-102828173D01*
X95489108Y-102685771D01*
X95415713Y-102562988D01*
X95345540Y-102455922D01*
X95275925Y-102360674D01*
X95204207Y-102273343D01*
X95127721Y-102190029D01*
X95043805Y-102106830D01*
X94972864Y-102040790D01*
X95174945Y-102040790D01*
X95183101Y-102055304D01*
X95209776Y-102090673D01*
X95251022Y-102141897D01*
X95302890Y-102203970D01*
X95314153Y-102217201D01*
X95426181Y-102352919D01*
X95527095Y-102485707D01*
X95620859Y-102621826D01*
X95711440Y-102767539D01*
X95802802Y-102929110D01*
X95898913Y-103112800D01*
X95964239Y-103243830D01*
X96019445Y-103364258D01*
X96079676Y-103509406D01*
X96141860Y-103670709D01*
X96202929Y-103839601D01*
X96259810Y-104007518D01*
X96309434Y-104165895D01*
X96348730Y-104306167D01*
X96357210Y-104339987D01*
X96408901Y-104561861D01*
X96450272Y-104762512D01*
X96482338Y-104950465D01*
X96506115Y-105134243D01*
X96522618Y-105322372D01*
X96532864Y-105523376D01*
X96537866Y-105745779D01*
X96538706Y-105863645D01*
X96539829Y-106020858D01*
X96542141Y-106144223D01*
X96545707Y-106234130D01*
X96550590Y-106290968D01*
X96556855Y-106315125D01*
X96564565Y-106306992D01*
X96573784Y-106266957D01*
X96584576Y-106195409D01*
X96588367Y-106165963D01*
X96612024Y-105892539D01*
X96618225Y-105597218D01*
X96607225Y-105287423D01*
X96579282Y-104970578D01*
X96536544Y-104665408D01*
X96527476Y-104612156D01*
X96517760Y-104558067D01*
X96506672Y-104499717D01*
X96493483Y-104433684D01*
X96477468Y-104356541D01*
X96457900Y-104264866D01*
X96434052Y-104155234D01*
X96405198Y-104024221D01*
X96370610Y-103868403D01*
X96329563Y-103684356D01*
X96305751Y-103577815D01*
X96281432Y-103468305D01*
X96264357Y-103388565D01*
X96254086Y-103334982D01*
X96250176Y-103303945D01*
X96252188Y-103291841D01*
X96259681Y-103295058D01*
X96272214Y-103309985D01*
X96273235Y-103311332D01*
X96291982Y-103333707D01*
X96297908Y-103326549D01*
X96298382Y-103304953D01*
X96303008Y-103279060D01*
X96316033Y-103282527D01*
X96336177Y-103311854D01*
X96362160Y-103363542D01*
X96392703Y-103434091D01*
X96426526Y-103520001D01*
X96462349Y-103617773D01*
X96498892Y-103723907D01*
X96534876Y-103834905D01*
X96569021Y-103947265D01*
X96600046Y-104057490D01*
X96626673Y-104162079D01*
X96647622Y-104257532D01*
X96648644Y-104262756D01*
X96676326Y-104405523D01*
X96699418Y-104526893D01*
X96718332Y-104631813D01*
X96733478Y-104725231D01*
X96745271Y-104812096D01*
X96754120Y-104897355D01*
X96760439Y-104985956D01*
X96764638Y-105082848D01*
X96767130Y-105192978D01*
X96768328Y-105321294D01*
X96768641Y-105472744D01*
X96768484Y-105652276D01*
X96768419Y-105701618D01*
X96768222Y-105891906D01*
X96768352Y-106049309D01*
X96769103Y-106175198D01*
X96770768Y-106270943D01*
X96773643Y-106337915D01*
X96778020Y-106377484D01*
X96784194Y-106391021D01*
X96792458Y-106379895D01*
X96803106Y-106345478D01*
X96816433Y-106289139D01*
X96832732Y-106212250D01*
X96852298Y-106116179D01*
X96854740Y-106104113D01*
X96887320Y-105930376D01*
X96912900Y-105762802D01*
X96914294Y-105750609D01*
X96982296Y-105750609D01*
X96985027Y-105833606D01*
X97008359Y-105922882D01*
X97023891Y-105959425D01*
X97053297Y-106013155D01*
X97092209Y-106073894D01*
X97135423Y-106134737D01*
X97177732Y-106188774D01*
X97213931Y-106229098D01*
X97238813Y-106248802D01*
X97242653Y-106249697D01*
X97259600Y-106235462D01*
X97279459Y-106200543D01*
X97282263Y-106194033D01*
X97292696Y-106158856D01*
X97297147Y-106113451D01*
X97295833Y-106050002D01*
X97288970Y-105960691D01*
X97288772Y-105958530D01*
X97280594Y-105876471D01*
X97271899Y-105800850D01*
X97263955Y-105742206D01*
X97259911Y-105718746D01*
X97247538Y-105658800D01*
X97133645Y-105653758D01*
X97071116Y-105652274D01*
X97033772Y-105656079D01*
X97012703Y-105667190D01*
X97000990Y-105683775D01*
X96982296Y-105750609D01*
X96914294Y-105750609D01*
X96932314Y-105593004D01*
X96944062Y-105442466D01*
X97022933Y-105442466D01*
X97028542Y-105476962D01*
X97043175Y-105491666D01*
X97069455Y-105491393D01*
X97110006Y-105480958D01*
X97127076Y-105476074D01*
X97174526Y-105460584D01*
X97207745Y-105446106D01*
X97213211Y-105442452D01*
X97214870Y-105421987D01*
X97208731Y-105376808D01*
X97196736Y-105315042D01*
X97180823Y-105244818D01*
X97162933Y-105174262D01*
X97145006Y-105111502D01*
X97128983Y-105064666D01*
X97117823Y-105042878D01*
X97095869Y-105040824D01*
X97070987Y-105060005D01*
X97056316Y-105081390D01*
X97045633Y-105114035D01*
X97037769Y-105164377D01*
X97031552Y-105238853D01*
X97028283Y-105294842D01*
X97023721Y-105383364D01*
X97022933Y-105442466D01*
X96944062Y-105442466D01*
X96946393Y-105412593D01*
X96955970Y-105213182D01*
X96960963Y-105033648D01*
X96963632Y-104899483D01*
X97034862Y-104899483D01*
X97038704Y-104956022D01*
X97050724Y-104980049D01*
X97071665Y-104972493D01*
X97083365Y-104960044D01*
X97092628Y-104931335D01*
X97085165Y-104882455D01*
X97080371Y-104865225D01*
X97063156Y-104819253D01*
X97049277Y-104806777D01*
X97039625Y-104827127D01*
X97035092Y-104879630D01*
X97034862Y-104899483D01*
X96963632Y-104899483D01*
X96963641Y-104899035D01*
X96965175Y-104792885D01*
X96965242Y-104709417D01*
X96963518Y-104642850D01*
X96959680Y-104587402D01*
X96953404Y-104537291D01*
X96944366Y-104486737D01*
X96932243Y-104429958D01*
X96925478Y-104399880D01*
X96906945Y-104324958D01*
X96879981Y-104225330D01*
X96846836Y-104108837D01*
X96809761Y-103983321D01*
X96771005Y-103856623D01*
X96754691Y-103804702D01*
X96720086Y-103694631D01*
X96689690Y-103596227D01*
X96664825Y-103513907D01*
X96646811Y-103452092D01*
X96636967Y-103415199D01*
X96635722Y-103406541D01*
X96645427Y-103421362D01*
X96667128Y-103462773D01*
X96698613Y-103526194D01*
X96737671Y-103607046D01*
X96782089Y-103700748D01*
X96829655Y-103802722D01*
X96878159Y-103908387D01*
X96878928Y-103910076D01*
X96905632Y-103964852D01*
X96927831Y-104003257D01*
X96941473Y-104018459D01*
X96942888Y-104018047D01*
X96945513Y-103994942D01*
X96937897Y-103947646D01*
X96922027Y-103883969D01*
X96899891Y-103811717D01*
X96873477Y-103738700D01*
X96868787Y-103726976D01*
X96845667Y-103667476D01*
X96834316Y-103630974D01*
X96835577Y-103618413D01*
X96850297Y-103630734D01*
X96879321Y-103668878D01*
X96923493Y-103733787D01*
X96983658Y-103826404D01*
X97045996Y-103924437D01*
X97082043Y-103994746D01*
X97120608Y-104093595D01*
X97160113Y-104215515D01*
X97198980Y-104355038D01*
X97235632Y-104506693D01*
X97268491Y-104665012D01*
X97283461Y-104747610D01*
X97299458Y-104834823D01*
X97311575Y-104888362D01*
X97319716Y-104908599D01*
X97323784Y-104895904D01*
X97323684Y-104850650D01*
X97320001Y-104785300D01*
X97385975Y-104785300D01*
X97457025Y-104779716D01*
X97547084Y-104789489D01*
X97594045Y-104808932D01*
X97635105Y-104830255D01*
X97660855Y-104842991D01*
X97664525Y-104844489D01*
X97661578Y-104831069D01*
X97648675Y-104796725D01*
X97643575Y-104784307D01*
X97615438Y-104727239D01*
X97582636Y-104673555D01*
X97581616Y-104672113D01*
X97555021Y-104640451D01*
X97526315Y-104626641D01*
X97481437Y-104625098D01*
X97465547Y-104626006D01*
X97385975Y-104631153D01*
X97385975Y-104785300D01*
X97320001Y-104785300D01*
X97319319Y-104773208D01*
X97310592Y-104663949D01*
X97309208Y-104648281D01*
X97297567Y-104522053D01*
X97754750Y-104522053D01*
X97758268Y-104574125D01*
X97768785Y-104629759D01*
X97771540Y-104639830D01*
X97783593Y-104689386D01*
X97797039Y-104756373D01*
X97806468Y-104810991D01*
X97820111Y-104886290D01*
X97836695Y-104961680D01*
X97854222Y-105029747D01*
X97870694Y-105083079D01*
X97884114Y-105114261D01*
X97889532Y-105119285D01*
X97898969Y-105104052D01*
X97915381Y-105063120D01*
X97936039Y-105003644D01*
X97948704Y-104964076D01*
X97996965Y-104808866D01*
X97968622Y-104681473D01*
X97950213Y-104611644D01*
X97932335Y-104567820D01*
X97917854Y-104554080D01*
X97888850Y-104542048D01*
X97874263Y-104528577D01*
X97850994Y-104511103D01*
X97839852Y-104511261D01*
X97819656Y-104506863D01*
X97805440Y-104493945D01*
X97780754Y-104472519D01*
X97769245Y-104468442D01*
X97758365Y-104483505D01*
X97754750Y-104522053D01*
X97297567Y-104522053D01*
X97295163Y-104495979D01*
X97282491Y-104372809D01*
X97270323Y-104273723D01*
X97257790Y-104193671D01*
X97244023Y-104127605D01*
X97228152Y-104070475D01*
X97209308Y-104017233D01*
X97194198Y-103980310D01*
X97163402Y-103906528D01*
X97134526Y-103834547D01*
X97112894Y-103777699D01*
X97109652Y-103768594D01*
X97087333Y-103714264D01*
X97075534Y-103689158D01*
X97655024Y-103689158D01*
X97666647Y-103737944D01*
X97693989Y-103812371D01*
X97737138Y-103911437D01*
X97749257Y-103937492D01*
X97813619Y-104076909D01*
X97871350Y-104206839D01*
X97920495Y-104322606D01*
X97959095Y-104419536D01*
X97985193Y-104492954D01*
X97993056Y-104519825D01*
X98010123Y-104585050D01*
X98021567Y-104622215D01*
X98030044Y-104636500D01*
X98038212Y-104633085D01*
X98045586Y-104622259D01*
X98058758Y-104591092D01*
X98074038Y-104541487D01*
X98080191Y-104517511D01*
X98088996Y-104472133D01*
X98088932Y-104433437D01*
X98078292Y-104389149D01*
X98055368Y-104326994D01*
X98052759Y-104320396D01*
X98001252Y-104199881D01*
X97941156Y-104074488D01*
X97877483Y-103953753D01*
X97815241Y-103847217D01*
X97763958Y-103770499D01*
X97713587Y-103706684D01*
X97678582Y-103672524D01*
X97659032Y-103667017D01*
X97655024Y-103689158D01*
X97075534Y-103689158D01*
X97050939Y-103636825D01*
X97003780Y-103542682D01*
X96981993Y-103501017D01*
X97754215Y-103501017D01*
X97763050Y-103539078D01*
X97786697Y-103597072D01*
X97820868Y-103666497D01*
X97861276Y-103738848D01*
X97903633Y-103805623D01*
X97918169Y-103826163D01*
X97949212Y-103873077D01*
X97979549Y-103926266D01*
X98004761Y-103976876D01*
X98020431Y-104016052D01*
X98022272Y-104034819D01*
X98009173Y-104028388D01*
X97993999Y-104006001D01*
X97976490Y-103980566D01*
X97966693Y-103976215D01*
X97969622Y-103994554D01*
X97985001Y-104035295D01*
X98009093Y-104090652D01*
X98038163Y-104152839D01*
X98068475Y-104214068D01*
X98096291Y-104266553D01*
X98117878Y-104302507D01*
X98128902Y-104314295D01*
X98139656Y-104298788D01*
X98152713Y-104258005D01*
X98165352Y-104200557D01*
X98166051Y-104196696D01*
X98178630Y-104089435D01*
X98180282Y-103978681D01*
X98171668Y-103874374D01*
X98153452Y-103786455D01*
X98135623Y-103740526D01*
X98107271Y-103693226D01*
X98065313Y-103632121D01*
X98018271Y-103569551D01*
X98012894Y-103562787D01*
X97972353Y-103510476D01*
X97941802Y-103467920D01*
X97926391Y-103442399D01*
X97925489Y-103439215D01*
X97912052Y-103421304D01*
X97886952Y-103404651D01*
X97848416Y-103384429D01*
X97882670Y-103424032D01*
X97916925Y-103463634D01*
X97862813Y-103432312D01*
X97825178Y-103412959D01*
X97802497Y-103411909D01*
X97781458Y-103428233D01*
X97760428Y-103465936D01*
X97754215Y-103501017D01*
X96981993Y-103501017D01*
X96949167Y-103438242D01*
X96890411Y-103329910D01*
X96830821Y-103224092D01*
X96807482Y-103183884D01*
X96750820Y-103093461D01*
X96678997Y-102987997D01*
X96599643Y-102878025D01*
X96520386Y-102774080D01*
X96448857Y-102686692D01*
X96439767Y-102676234D01*
X96396452Y-102634539D01*
X96336390Y-102587219D01*
X96264444Y-102537003D01*
X96185479Y-102486620D01*
X96104359Y-102438798D01*
X96025946Y-102396265D01*
X95955105Y-102361751D01*
X95896700Y-102337985D01*
X95855594Y-102327694D01*
X95836651Y-102333608D01*
X95835941Y-102337475D01*
X95845789Y-102355344D01*
X95871081Y-102390535D01*
X95893124Y-102418830D01*
X95933363Y-102473671D01*
X95979140Y-102543327D01*
X96026684Y-102621128D01*
X96072222Y-102700405D01*
X96111984Y-102774487D01*
X96142197Y-102836707D01*
X96159090Y-102880392D01*
X96161362Y-102893159D01*
X96155978Y-102906385D01*
X96139121Y-102893275D01*
X96109731Y-102852498D01*
X96066750Y-102782726D01*
X96048414Y-102751409D01*
X95961547Y-102605926D01*
X95884766Y-102487854D01*
X95814523Y-102393181D01*
X95747271Y-102317894D01*
X95679463Y-102257980D01*
X95607550Y-102209426D01*
X95536211Y-102172040D01*
X95463474Y-102139516D01*
X95386692Y-102107883D01*
X95312721Y-102079633D01*
X95248418Y-102057257D01*
X95200641Y-102043247D01*
X95176246Y-102040094D01*
X95174945Y-102040790D01*
X94972864Y-102040790D01*
X94971698Y-102039705D01*
X94936894Y-102009288D01*
X95386148Y-102009288D01*
X95395956Y-102023466D01*
X95432176Y-102043314D01*
X95497331Y-102071774D01*
X95515689Y-102079437D01*
X95632188Y-102127876D01*
X95875366Y-102090343D01*
X96102653Y-102063784D01*
X96325225Y-102054200D01*
X96536961Y-102061339D01*
X96731738Y-102084948D01*
X96903435Y-102124775D01*
X96932097Y-102133873D01*
X97004501Y-102160598D01*
X97093359Y-102197233D01*
X97184725Y-102237898D01*
X97231828Y-102260258D01*
X97300699Y-102294671D01*
X97342535Y-102318070D01*
X97356262Y-102330867D01*
X97340808Y-102333472D01*
X97295099Y-102326297D01*
X97218063Y-102309755D01*
X97146190Y-102293119D01*
X97075578Y-102279696D01*
X96992530Y-102268808D01*
X96903796Y-102260738D01*
X96816125Y-102255763D01*
X96736266Y-102254165D01*
X96670966Y-102256224D01*
X96626975Y-102262219D01*
X96611268Y-102270915D01*
X96616131Y-102290073D01*
X96645267Y-102311715D01*
X96701942Y-102337755D01*
X96767360Y-102362347D01*
X96855024Y-102393564D01*
X96777950Y-102392692D01*
X96726405Y-102387970D01*
X96654310Y-102376093D01*
X96574076Y-102359237D01*
X96540573Y-102351102D01*
X96466982Y-102333452D01*
X96402615Y-102319899D01*
X96356922Y-102312346D01*
X96343607Y-102311423D01*
X96340953Y-102315765D01*
X96366315Y-102326385D01*
X96414480Y-102341239D01*
X96431826Y-102346008D01*
X96574634Y-102390910D01*
X96728024Y-102450445D01*
X96882420Y-102520105D01*
X97028247Y-102595385D01*
X97155929Y-102671777D01*
X97222093Y-102717957D01*
X97256409Y-102748599D01*
X97262733Y-102765295D01*
X97244781Y-102767067D01*
X97206267Y-102752935D01*
X97167762Y-102732285D01*
X97067395Y-102675516D01*
X96953522Y-102615653D01*
X96834814Y-102556873D01*
X96719944Y-102503350D01*
X96617582Y-102459261D01*
X96539920Y-102429950D01*
X96471814Y-102409807D01*
X96397445Y-102392109D01*
X96323055Y-102377735D01*
X96254886Y-102367565D01*
X96199179Y-102362478D01*
X96162178Y-102363354D01*
X96150125Y-102371073D01*
X96152799Y-102375391D01*
X96173361Y-102392472D01*
X96215130Y-102424159D01*
X96271292Y-102465351D01*
X96313969Y-102496007D01*
X96381861Y-102543277D01*
X96432341Y-102574104D01*
X96475285Y-102592756D01*
X96520566Y-102603501D01*
X96578059Y-102610607D01*
X96579444Y-102610745D01*
X96679131Y-102628029D01*
X96794957Y-102659743D01*
X96914212Y-102701851D01*
X97024187Y-102750313D01*
X97033595Y-102755052D01*
X97089056Y-102777184D01*
X97142719Y-102789221D01*
X97154922Y-102789953D01*
X97210531Y-102798285D01*
X97255745Y-102814727D01*
X97300433Y-102829848D01*
X97337139Y-102830744D01*
X97370618Y-102836969D01*
X97422802Y-102865163D01*
X97489569Y-102911756D01*
X97566797Y-102973174D01*
X97650363Y-103045848D01*
X97736146Y-103126205D01*
X97820023Y-103210675D01*
X97897873Y-103295685D01*
X97959744Y-103370172D01*
X98003028Y-103423750D01*
X98039046Y-103465252D01*
X98062298Y-103488470D01*
X98067117Y-103491299D01*
X98072997Y-103477768D01*
X98068607Y-103445078D01*
X98037672Y-103329497D01*
X98007344Y-103239485D01*
X97973752Y-103166647D01*
X97933023Y-103102592D01*
X97881287Y-103038926D01*
X97881198Y-103038825D01*
X97738672Y-102895076D01*
X97571547Y-102756698D01*
X97389386Y-102631581D01*
X97381824Y-102626903D01*
X97291970Y-102571044D01*
X97230251Y-102531324D01*
X97195221Y-102506609D01*
X97185433Y-102495768D01*
X97199438Y-102497669D01*
X97231828Y-102509593D01*
X97401388Y-102590183D01*
X97562182Y-102694419D01*
X97719961Y-102826309D01*
X97803568Y-102908014D01*
X97863753Y-102969260D01*
X97903734Y-103008228D01*
X97927082Y-103027301D01*
X97937370Y-103028859D01*
X97938169Y-103015285D01*
X97934404Y-102995260D01*
X97913615Y-102924054D01*
X97878376Y-102831341D01*
X97832365Y-102724679D01*
X97779261Y-102611624D01*
X97722744Y-102499735D01*
X97666492Y-102396568D01*
X97614185Y-102309681D01*
X97570619Y-102248008D01*
X97511099Y-102187684D01*
X97444928Y-102151940D01*
X97359198Y-102133774D01*
X97305278Y-102122718D01*
X97259560Y-102105940D01*
X97258574Y-102105420D01*
X97136687Y-102053290D01*
X96992939Y-102013632D01*
X96838340Y-101989290D01*
X96795078Y-101985639D01*
X96689574Y-101975736D01*
X96613002Y-101961917D01*
X96560166Y-101943208D01*
X96555293Y-101940654D01*
X96529586Y-101928785D01*
X96498354Y-101919881D01*
X96456141Y-101913392D01*
X96397491Y-101908766D01*
X96316948Y-101905454D01*
X96209056Y-101902904D01*
X96175093Y-101902285D01*
X96004438Y-101902016D01*
X95857565Y-101908475D01*
X95724456Y-101922796D01*
X95595097Y-101946116D01*
X95459473Y-101979573D01*
X95435674Y-101986181D01*
X95400229Y-101997840D01*
X95386148Y-102009288D01*
X94936894Y-102009288D01*
X94925662Y-101999472D01*
X94879804Y-101964080D01*
X94829873Y-101931505D01*
X94771617Y-101899721D01*
X94700787Y-101866703D01*
X94613131Y-101830426D01*
X94525932Y-101797096D01*
X94775253Y-101797096D01*
X94776308Y-101804020D01*
X94799650Y-101820190D01*
X94836305Y-101840842D01*
X94877300Y-101861216D01*
X94913660Y-101876549D01*
X94935462Y-101882111D01*
X94967309Y-101876750D01*
X95020361Y-101862547D01*
X95077351Y-101844468D01*
X97214200Y-101844468D01*
X97214700Y-101845016D01*
X97247801Y-101873674D01*
X97290137Y-101902981D01*
X97331151Y-101926507D01*
X97360286Y-101937821D01*
X97366394Y-101937411D01*
X97367815Y-101923059D01*
X97357830Y-101913650D01*
X97323293Y-101892639D01*
X97282803Y-101870967D01*
X97245218Y-101852882D01*
X97219397Y-101842633D01*
X97214200Y-101844468D01*
X95077351Y-101844468D01*
X95083665Y-101842465D01*
X95089609Y-101840429D01*
X95203414Y-101804103D01*
X95333788Y-101767210D01*
X95453379Y-101736615D01*
X96949225Y-101736615D01*
X96957788Y-101745179D01*
X96966352Y-101736615D01*
X96957788Y-101728051D01*
X96949225Y-101736615D01*
X95453379Y-101736615D01*
X95471106Y-101732080D01*
X95596437Y-101703192D01*
X96887836Y-101703192D01*
X96889400Y-101711120D01*
X96907719Y-101725318D01*
X96927350Y-101727701D01*
X96932097Y-101721320D01*
X96918662Y-101710320D01*
X96905517Y-101704389D01*
X96887836Y-101703192D01*
X95596437Y-101703192D01*
X95605743Y-101701047D01*
X95698561Y-101682378D01*
X96766532Y-101682378D01*
X96768883Y-101692560D01*
X96777950Y-101693796D01*
X96792048Y-101687530D01*
X96789369Y-101682378D01*
X96769042Y-101680328D01*
X96766532Y-101682378D01*
X95698561Y-101682378D01*
X95728074Y-101676442D01*
X95828474Y-101660595D01*
X95835430Y-101659757D01*
X95906693Y-101649763D01*
X95964551Y-101638532D01*
X96000903Y-101627795D01*
X96008827Y-101622679D01*
X96016462Y-101615576D01*
X96032069Y-101611756D01*
X96060773Y-101611447D01*
X96107703Y-101614873D01*
X96177985Y-101622258D01*
X96276746Y-101633830D01*
X96284918Y-101634810D01*
X96358151Y-101640092D01*
X96407308Y-101636198D01*
X96429200Y-101623831D01*
X96421609Y-101604644D01*
X96398350Y-101596402D01*
X96347483Y-101586857D01*
X96275581Y-101576983D01*
X96189215Y-101567756D01*
X96148988Y-101564207D01*
X95906213Y-101553705D01*
X95674000Y-101564453D01*
X95443891Y-101597630D01*
X95207428Y-101654416D01*
X94980783Y-101727184D01*
X94904460Y-101754005D01*
X94840372Y-101776096D01*
X94795135Y-101791207D01*
X94775366Y-101797086D01*
X94775253Y-101797096D01*
X94525932Y-101797096D01*
X94504398Y-101788865D01*
X94370338Y-101739993D01*
X94260216Y-101700727D01*
X94162570Y-101667045D01*
X94095579Y-101647402D01*
X94058025Y-101643295D01*
X94048685Y-101656221D01*
X93905849Y-101656221D01*
X93883484Y-101640253D01*
X93814252Y-101603063D01*
X93738708Y-101574798D01*
X93649477Y-101551386D01*
X93559574Y-101532690D01*
X93482014Y-101518155D01*
X93945626Y-101518155D01*
X93950184Y-101534359D01*
X93978086Y-101539649D01*
X93994330Y-101528245D01*
X93991299Y-101509676D01*
X93985492Y-101489813D01*
X93994872Y-101492948D01*
X94014636Y-101509714D01*
X94047849Y-101529138D01*
X94066991Y-101517373D01*
X94071814Y-101485413D01*
X94078848Y-101459159D01*
X94087338Y-101454012D01*
X94096115Y-101467664D01*
X94093838Y-101488522D01*
X94092522Y-101513292D01*
X94111273Y-101512877D01*
X94111487Y-101512795D01*
X94129785Y-101492105D01*
X94128772Y-101478092D01*
X94129208Y-101461480D01*
X94149318Y-101465111D01*
X94171141Y-101467636D01*
X94170746Y-101452460D01*
X94152682Y-101434814D01*
X94114858Y-101435205D01*
X94053774Y-101454028D01*
X94013995Y-101470228D01*
X93967652Y-101495316D01*
X93945626Y-101518155D01*
X93482014Y-101518155D01*
X93475349Y-101516906D01*
X93403869Y-101504691D01*
X93351478Y-101497042D01*
X93324521Y-101494951D01*
X93322388Y-101495504D01*
X93187449Y-101495504D01*
X93186536Y-101494605D01*
X93126317Y-101444120D01*
X93079485Y-101415832D01*
X93069859Y-101412653D01*
X93020164Y-101393010D01*
X92984221Y-101369287D01*
X92950044Y-101344799D01*
X92894054Y-101311642D01*
X92821738Y-101272432D01*
X92738582Y-101229784D01*
X92650071Y-101186312D01*
X92561693Y-101144631D01*
X92478932Y-101107357D01*
X92407275Y-101077104D01*
X92352208Y-101056487D01*
X92319217Y-101048122D01*
X92312808Y-101049252D01*
X92109443Y-101049252D01*
X92063252Y-101018999D01*
X91975968Y-100966159D01*
X91897833Y-100923006D01*
X91882920Y-100915812D01*
X92298003Y-100915812D01*
X92301290Y-100934400D01*
X92309042Y-100941388D01*
X92342518Y-100955350D01*
X92354216Y-100957054D01*
X92373737Y-100946184D01*
X92412463Y-100916754D01*
X94140798Y-100916754D01*
X94160790Y-100918370D01*
X94171317Y-100915533D01*
X94204620Y-100908597D01*
X94266052Y-100899210D01*
X94349634Y-100888084D01*
X94449388Y-100875932D01*
X94559334Y-100863465D01*
X94673492Y-100851396D01*
X94785884Y-100840438D01*
X94850280Y-100834666D01*
X95039434Y-100825901D01*
X95245532Y-100829552D01*
X95459388Y-100844631D01*
X95671816Y-100870150D01*
X95873632Y-100905122D01*
X96055650Y-100948557D01*
X96135671Y-100972911D01*
X96238436Y-101006986D01*
X96161362Y-100999187D01*
X96095212Y-100992903D01*
X96020667Y-100986388D01*
X95995308Y-100984317D01*
X95948165Y-100983134D01*
X95877190Y-100984566D01*
X95788587Y-100988182D01*
X95688558Y-100993549D01*
X95583306Y-101000235D01*
X95479034Y-101007808D01*
X95381945Y-101015835D01*
X95298240Y-101023884D01*
X95234123Y-101031523D01*
X95195797Y-101038319D01*
X95189510Y-101040475D01*
X95155086Y-101054614D01*
X95103973Y-101072382D01*
X95082333Y-101079238D01*
X95033746Y-101097377D01*
X95010363Y-101117352D01*
X95003582Y-101146330D01*
X95001904Y-101189759D01*
X95423204Y-101192103D01*
X95560626Y-101193183D01*
X95670443Y-101195036D01*
X95759304Y-101198144D01*
X95833858Y-101202986D01*
X95900753Y-101210044D01*
X95966639Y-101219798D01*
X96038164Y-101232729D01*
X96069505Y-101238832D01*
X96211159Y-101270605D01*
X96321274Y-101303997D01*
X96394927Y-101335721D01*
X96495347Y-101388225D01*
X96426838Y-101379161D01*
X96147993Y-101350602D01*
X95865543Y-101337455D01*
X95586355Y-101339469D01*
X95317293Y-101356394D01*
X95065226Y-101387980D01*
X94837019Y-101433976D01*
X94822360Y-101437666D01*
X94732389Y-101462578D01*
X94640147Y-101491465D01*
X94551138Y-101522201D01*
X94470865Y-101552654D01*
X94404832Y-101580698D01*
X94358541Y-101604202D01*
X94337497Y-101621038D01*
X94337300Y-101625304D01*
X94356201Y-101637100D01*
X94397951Y-101655725D01*
X94446165Y-101674400D01*
X94502232Y-101694082D01*
X94539202Y-101702282D01*
X94570153Y-101699273D01*
X94608163Y-101685327D01*
X94625047Y-101678131D01*
X94698573Y-101650669D01*
X94796616Y-101619819D01*
X94909943Y-101588051D01*
X95029319Y-101557836D01*
X95145512Y-101531645D01*
X95240494Y-101513426D01*
X95311188Y-101504287D01*
X95399495Y-101497309D01*
X95499825Y-101492462D01*
X95606589Y-101489711D01*
X95714198Y-101489026D01*
X95817060Y-101490374D01*
X95909588Y-101493721D01*
X95986192Y-101499037D01*
X96041282Y-101506288D01*
X96069268Y-101515443D01*
X96071454Y-101518240D01*
X96092774Y-101532331D01*
X96140362Y-101539374D01*
X96158508Y-101539831D01*
X96256788Y-101545377D01*
X96379233Y-101560514D01*
X96517659Y-101583553D01*
X96663885Y-101612807D01*
X96809730Y-101646591D01*
X96947010Y-101683217D01*
X97067546Y-101720997D01*
X97108045Y-101735604D01*
X97186993Y-101763286D01*
X97240825Y-101777461D01*
X97267698Y-101777847D01*
X97265772Y-101764165D01*
X97260944Y-101758881D01*
X97243271Y-101724959D01*
X97240391Y-101705238D01*
X97231659Y-101669617D01*
X97210071Y-101623529D01*
X97204183Y-101613562D01*
X97179338Y-101568900D01*
X97174593Y-101549332D01*
X97187914Y-101553809D01*
X97217268Y-101581283D01*
X97260619Y-101630703D01*
X97277379Y-101651311D01*
X97318224Y-101698938D01*
X97363908Y-101744376D01*
X97418709Y-101790829D01*
X97486907Y-101841500D01*
X97572781Y-101899592D01*
X97680610Y-101968308D01*
X97795579Y-102039207D01*
X97871682Y-102084851D01*
X97920169Y-102111900D01*
X97941924Y-102120767D01*
X97937830Y-102111863D01*
X97924877Y-102099538D01*
X97900888Y-102079332D01*
X97857521Y-102043904D01*
X97802231Y-101999321D01*
X97772283Y-101975364D01*
X97720221Y-101931583D01*
X97649930Y-101869243D01*
X97567497Y-101793916D01*
X97479005Y-101711171D01*
X97390541Y-101626580D01*
X97378352Y-101614758D01*
X97219314Y-101461118D01*
X97079615Y-101328031D01*
X96959961Y-101216138D01*
X96861059Y-101126077D01*
X96783615Y-101058488D01*
X96728336Y-101014010D01*
X96695927Y-100993284D01*
X96690128Y-100991759D01*
X96656582Y-100979322D01*
X96639892Y-100964628D01*
X96588260Y-100922097D01*
X96507053Y-100880131D01*
X96400953Y-100839625D01*
X96274637Y-100801473D01*
X96132786Y-100766566D01*
X95980079Y-100735801D01*
X95821195Y-100710069D01*
X95660814Y-100690265D01*
X95503616Y-100677283D01*
X95354279Y-100672016D01*
X95217483Y-100675357D01*
X95153348Y-100680740D01*
X95002229Y-100699026D01*
X94848041Y-100721106D01*
X94696506Y-100745893D01*
X94553345Y-100772299D01*
X94424280Y-100799237D01*
X94315032Y-100825620D01*
X94231323Y-100850361D01*
X94201040Y-100861690D01*
X94164497Y-100881940D01*
X94143225Y-100902453D01*
X94140798Y-100916754D01*
X92412463Y-100916754D01*
X92413297Y-100916120D01*
X92467832Y-100870971D01*
X92532278Y-100814849D01*
X92559745Y-100790206D01*
X92662344Y-100698782D01*
X92748486Y-100625984D01*
X92825912Y-100566186D01*
X92902360Y-100513767D01*
X92961587Y-100477704D01*
X93918138Y-100477704D01*
X93937133Y-100475340D01*
X93983586Y-100468887D01*
X94051066Y-100459256D01*
X94133142Y-100447359D01*
X94157451Y-100443806D01*
X94269528Y-100428250D01*
X94358017Y-100417696D01*
X94421262Y-100412142D01*
X94457610Y-100411588D01*
X94465405Y-100416035D01*
X94442992Y-100425481D01*
X94388716Y-100439927D01*
X94372063Y-100443839D01*
X94304307Y-100461418D01*
X94231779Y-100483387D01*
X94160767Y-100507393D01*
X94097556Y-100531083D01*
X94048433Y-100552101D01*
X94019683Y-100568095D01*
X94017400Y-100576647D01*
X94040120Y-100576387D01*
X94090112Y-100571517D01*
X94160816Y-100562807D01*
X94245674Y-100551023D01*
X94280711Y-100545831D01*
X94441300Y-100525774D01*
X94615543Y-100511292D01*
X94796834Y-100502388D01*
X94978569Y-100499060D01*
X95154144Y-100501312D01*
X95316954Y-100509142D01*
X95460394Y-100522554D01*
X95577859Y-100541546D01*
X95596157Y-100545657D01*
X95626641Y-100553592D01*
X95631367Y-100558100D01*
X95607415Y-100560408D01*
X95558157Y-100561632D01*
X95501424Y-100564604D01*
X95473391Y-100571933D01*
X95468624Y-100585149D01*
X95469160Y-100586702D01*
X95492264Y-100602266D01*
X95546935Y-100614880D01*
X95601338Y-100621473D01*
X95684355Y-100630942D01*
X95782904Y-100644958D01*
X95890762Y-100662338D01*
X96001707Y-100681897D01*
X96109518Y-100702452D01*
X96207974Y-100722819D01*
X96290851Y-100741814D01*
X96351928Y-100758253D01*
X96384019Y-100770384D01*
X96423047Y-100782961D01*
X96443965Y-100784976D01*
X96467055Y-100782153D01*
X96458761Y-100769322D01*
X96452487Y-100764088D01*
X96394195Y-100718221D01*
X96323389Y-100664611D01*
X96246611Y-100607970D01*
X96170402Y-100553012D01*
X96101302Y-100504449D01*
X96045852Y-100466996D01*
X96010593Y-100445365D01*
X96009099Y-100444589D01*
X95978490Y-100430347D01*
X95941745Y-100416345D01*
X95893750Y-100401101D01*
X95829389Y-100383133D01*
X95743546Y-100360959D01*
X95631108Y-100333097D01*
X95587593Y-100322475D01*
X95493047Y-100304992D01*
X95371892Y-100291067D01*
X95231616Y-100280967D01*
X95079706Y-100274956D01*
X94923651Y-100273301D01*
X94770938Y-100276268D01*
X94629054Y-100284121D01*
X94592841Y-100287181D01*
X94497369Y-100299327D01*
X94390648Y-100318445D01*
X94280081Y-100342627D01*
X94173072Y-100369968D01*
X94077024Y-100398561D01*
X93999341Y-100426501D01*
X93947426Y-100451881D01*
X93943829Y-100454279D01*
X93921147Y-100471960D01*
X93918138Y-100477704D01*
X92961587Y-100477704D01*
X92985570Y-100463101D01*
X93078138Y-100411438D01*
X93499404Y-100411438D01*
X93509309Y-100421227D01*
X93527056Y-100424589D01*
X93558241Y-100420614D01*
X93608461Y-100408391D01*
X93683310Y-100387009D01*
X93724244Y-100374837D01*
X93910297Y-100323657D01*
X94090943Y-100283927D01*
X94273232Y-100254840D01*
X94464211Y-100235591D01*
X94670927Y-100225375D01*
X94900428Y-100223387D01*
X95032400Y-100225365D01*
X95205187Y-100230531D01*
X95346458Y-100237930D01*
X95458892Y-100247750D01*
X95545167Y-100260184D01*
X95558045Y-100262698D01*
X95646310Y-100278915D01*
X95704602Y-100285508D01*
X95732212Y-100282619D01*
X95728431Y-100270389D01*
X95692548Y-100248959D01*
X95673230Y-100239750D01*
X95530910Y-100185971D01*
X95362949Y-100141688D01*
X95176808Y-100107584D01*
X94979949Y-100084346D01*
X94779833Y-100072656D01*
X94583921Y-100073200D01*
X94399675Y-100086662D01*
X94253937Y-100109566D01*
X94167832Y-100130225D01*
X94071234Y-100158159D01*
X93968966Y-100191439D01*
X93865855Y-100228134D01*
X93766727Y-100266312D01*
X93676406Y-100304044D01*
X93599718Y-100339399D01*
X93541490Y-100370446D01*
X93506547Y-100395254D01*
X93499404Y-100411438D01*
X93078138Y-100411438D01*
X93083282Y-100408567D01*
X93089934Y-100404962D01*
X93301984Y-100297430D01*
X93497181Y-100213843D01*
X93680781Y-100151979D01*
X93704138Y-100145399D01*
X93857721Y-100103115D01*
X93626500Y-100110641D01*
X93533143Y-100114251D01*
X93445011Y-100118680D01*
X93371441Y-100123392D01*
X93321766Y-100127854D01*
X93318206Y-100128301D01*
X93253669Y-100146446D01*
X93169286Y-100184674D01*
X93070119Y-100239551D01*
X92961230Y-100307644D01*
X92847682Y-100385519D01*
X92734535Y-100469742D01*
X92626851Y-100556879D01*
X92529694Y-100643498D01*
X92467280Y-100705526D01*
X92393157Y-100785106D01*
X92341716Y-100844474D01*
X92310738Y-100886939D01*
X92298003Y-100915812D01*
X91882920Y-100915812D01*
X91833628Y-100892033D01*
X91788132Y-100875736D01*
X91766435Y-100876271D01*
X91454473Y-100876271D01*
X91472290Y-100851875D01*
X91512436Y-100801263D01*
X91535084Y-100773920D01*
X91537445Y-100771038D01*
X91858306Y-100771038D01*
X91869221Y-100788460D01*
X91899193Y-100803837D01*
X91933245Y-100811227D01*
X91952000Y-100808205D01*
X91966634Y-100791564D01*
X91994245Y-100753394D01*
X92029517Y-100701126D01*
X92038908Y-100686729D01*
X92087109Y-100617485D01*
X92147201Y-100538386D01*
X92207621Y-100464545D01*
X92218447Y-100452057D01*
X92266602Y-100394106D01*
X92295796Y-100352209D01*
X92296251Y-100350932D01*
X92471657Y-100350932D01*
X92474715Y-100388633D01*
X92482614Y-100400072D01*
X92502603Y-100419378D01*
X92521881Y-100422328D01*
X92525817Y-100420277D01*
X92709240Y-100420277D01*
X92719144Y-100423162D01*
X92750329Y-100402635D01*
X92801502Y-100359272D01*
X92804383Y-100356676D01*
X92881457Y-100287079D01*
X92811978Y-100323759D01*
X92764730Y-100353435D01*
X92729223Y-100384049D01*
X92721914Y-100393402D01*
X92709240Y-100420277D01*
X92525817Y-100420277D01*
X92550704Y-100407309D01*
X92583475Y-100384209D01*
X92628740Y-100353324D01*
X92689806Y-100314062D01*
X92748719Y-100277796D01*
X92764377Y-100267705D01*
X92894281Y-100267705D01*
X92903478Y-100272219D01*
X92922942Y-100261859D01*
X92924275Y-100256245D01*
X92938227Y-100238107D01*
X92954248Y-100230271D01*
X92988592Y-100212356D01*
X93027040Y-100184607D01*
X93050162Y-100164666D01*
X93050429Y-100161101D01*
X93025136Y-100174219D01*
X93001349Y-100187531D01*
X92943759Y-100222528D01*
X92906904Y-100250261D01*
X92894281Y-100267705D01*
X92764377Y-100267705D01*
X92806514Y-100240549D01*
X92843325Y-100211577D01*
X92856778Y-100193490D01*
X92844499Y-100188896D01*
X92825792Y-100193102D01*
X92793841Y-100200542D01*
X92740367Y-100211154D01*
X92684491Y-100221303D01*
X92606868Y-100242259D01*
X92542406Y-100273608D01*
X92495778Y-100311212D01*
X92471657Y-100350932D01*
X92296251Y-100350932D01*
X92303781Y-100329774D01*
X92300850Y-100327073D01*
X92273872Y-100330899D01*
X92227229Y-100346025D01*
X92183066Y-100363997D01*
X92114276Y-100401636D01*
X92055188Y-100452639D01*
X92009414Y-100506108D01*
X91956053Y-100580138D01*
X91909209Y-100656330D01*
X91874441Y-100724941D01*
X91858306Y-100771038D01*
X91537445Y-100771038D01*
X91582435Y-100716114D01*
X91622755Y-100664323D01*
X91649697Y-100626804D01*
X91655448Y-100617377D01*
X91666525Y-100592693D01*
X91656714Y-100588923D01*
X91629039Y-100598444D01*
X91548472Y-100636818D01*
X91493649Y-100683670D01*
X91456075Y-100746403D01*
X91454204Y-100750786D01*
X91424458Y-100828664D01*
X91409070Y-100885230D01*
X91408767Y-100917133D01*
X91134994Y-100917133D01*
X91160519Y-100852152D01*
X91089681Y-100891888D01*
X91033777Y-100929074D01*
X91010154Y-100960835D01*
X90547286Y-100960835D01*
X90535187Y-100954082D01*
X90467258Y-100930934D01*
X90428712Y-100921163D01*
X90343479Y-100903621D01*
X90249790Y-100888501D01*
X90177756Y-100880057D01*
X90113074Y-100875800D01*
X90080935Y-100878302D01*
X90079956Y-100889587D01*
X90108753Y-100911677D01*
X90142022Y-100932330D01*
X90152621Y-100940849D01*
X90159027Y-100954605D01*
X90160980Y-100978673D01*
X90158218Y-101018130D01*
X90150483Y-101078051D01*
X90137512Y-101163512D01*
X90126646Y-101232060D01*
X90109611Y-101342524D01*
X90093067Y-101456420D01*
X90078528Y-101562880D01*
X90067506Y-101651039D01*
X90064260Y-101680276D01*
X90056435Y-101781090D01*
X90051024Y-101905464D01*
X90047968Y-102045929D01*
X90047208Y-102195013D01*
X89354691Y-102195013D01*
X89387328Y-102137167D01*
X89430920Y-102052217D01*
X89442169Y-102028028D01*
X89491177Y-101921422D01*
X89545002Y-101808883D01*
X89600525Y-101696521D01*
X89654624Y-101590446D01*
X89704180Y-101496770D01*
X89746071Y-101421603D01*
X89777178Y-101371056D01*
X89779026Y-101368375D01*
X89806736Y-101321018D01*
X89832835Y-101258704D01*
X89859521Y-101175303D01*
X89888989Y-101064684D01*
X89891657Y-101053969D01*
X89916097Y-100958071D01*
X89935360Y-100890320D01*
X89951510Y-100845382D01*
X89966607Y-100817924D01*
X89982717Y-100802613D01*
X89990489Y-100798426D01*
X90033145Y-100790828D01*
X90103393Y-100792268D01*
X90195982Y-100802040D01*
X90305665Y-100819437D01*
X90427193Y-100843753D01*
X90555316Y-100874282D01*
X90556596Y-100874612D01*
X90642159Y-100896589D01*
X90722120Y-100916958D01*
X90786959Y-100933303D01*
X90824352Y-100942538D01*
X90851045Y-100949025D01*
X90872244Y-100951596D01*
X90893689Y-100947568D01*
X90921118Y-100934256D01*
X90960269Y-100908979D01*
X91016881Y-100869051D01*
X91083075Y-100821548D01*
X91141399Y-100783828D01*
X91223988Y-100736010D01*
X91323761Y-100681820D01*
X91433641Y-100624982D01*
X91546550Y-100569221D01*
X91655407Y-100518262D01*
X91682536Y-100506098D01*
X91776236Y-100464532D01*
X91883955Y-100416755D01*
X91988395Y-100370439D01*
X92033314Y-100350522D01*
X92315662Y-100241724D01*
X92617663Y-100156072D01*
X92932206Y-100095335D01*
X93172623Y-100067149D01*
X93281817Y-100057787D01*
X93405943Y-100046960D01*
X93525823Y-100036349D01*
X93583682Y-100031151D01*
X93654088Y-100026085D01*
X93752306Y-100020885D01*
X93871892Y-100015796D01*
X94006405Y-100011060D01*
X94149404Y-100006922D01*
X94294445Y-100003625D01*
X94328726Y-100002988D01*
X94575154Y-100000703D01*
X94790200Y-100003288D01*
X94976413Y-100010918D01*
X95136342Y-100023766D01*
X95272536Y-100042008D01*
X95387544Y-100065816D01*
X95433446Y-100078507D01*
X95572719Y-100129848D01*
X95730421Y-100205573D01*
X95907386Y-100306162D01*
X96104447Y-100432092D01*
X96322436Y-100583840D01*
X96353494Y-100606316D01*
X96436438Y-100670133D01*
X96538515Y-100754392D01*
X96655060Y-100854896D01*
X96781407Y-100967446D01*
X96912891Y-101087845D01*
X97044848Y-101211897D01*
X97172613Y-101335402D01*
X97257519Y-101419750D01*
X97391000Y-101552848D01*
X97506543Y-101665161D01*
X97609179Y-101761318D01*
X97703941Y-101845944D01*
X97795861Y-101923666D01*
X97874107Y-101986645D01*
X97959509Y-102051783D01*
X98060183Y-102125027D01*
X98169362Y-102201782D01*
X98280281Y-102277450D01*
X98386171Y-102347434D01*
X98480268Y-102407139D01*
X98555804Y-102451968D01*
X98572850Y-102461304D01*
X98643329Y-102501679D01*
X98682449Y-102530006D01*
X98690603Y-102545154D01*
X98668182Y-102545992D01*
X98615580Y-102531389D01*
X98556123Y-102509452D01*
X98494995Y-102485858D01*
X98413253Y-102455070D01*
X98322535Y-102421442D01*
X98250910Y-102395272D01*
X98156386Y-102358733D01*
X98045456Y-102312342D01*
X97932079Y-102262108D01*
X97832101Y-102214971D01*
X97752972Y-102176752D01*
X97685406Y-102145296D01*
X97634998Y-102123115D01*
X97607347Y-102112724D01*
X97603891Y-102112450D01*
X97609167Y-102128993D01*
X97628184Y-102169508D01*
X97658002Y-102228048D01*
X97695680Y-102298665D01*
X97698870Y-102304519D01*
X97765508Y-102429008D01*
X97817898Y-102532880D01*
X97860017Y-102624519D01*
X97895846Y-102712309D01*
X97908906Y-102747134D01*
X97930563Y-102805389D01*
X97958955Y-102880746D01*
X97988481Y-102958347D01*
X97992864Y-102969791D01*
X98015041Y-103032379D01*
X98043367Y-103119397D01*
X98075147Y-103222179D01*
X98107688Y-103332060D01*
X98131303Y-103415105D01*
X98160480Y-103519596D01*
X98188346Y-103618989D01*
X98212866Y-103706058D01*
X98232004Y-103773574D01*
X98242623Y-103810541D01*
X98265345Y-103940127D01*
X98260464Y-104081729D01*
X98241262Y-104187843D01*
X98222465Y-104265067D01*
X98197754Y-104361020D01*
X98168948Y-104469181D01*
X98137867Y-104583027D01*
X98106329Y-104696034D01*
X98076156Y-104801682D01*
X98049164Y-104893447D01*
X98027176Y-104964806D01*
X98012500Y-105007957D01*
X97991215Y-105074117D01*
X97966826Y-105166815D01*
X97940877Y-105278652D01*
X97914916Y-105402227D01*
X97890489Y-105530142D01*
X97869142Y-105654996D01*
X97852421Y-105769391D01*
X97850914Y-105781151D01*
X97833616Y-105894464D01*
X97812452Y-105995340D01*
X97789534Y-106074104D01*
X97783680Y-106089445D01*
X97755789Y-106159041D01*
X97728177Y-106230127D01*
X97713875Y-106268210D01*
X97690348Y-106322432D01*
X97664723Y-106367328D01*
X97655335Y-106379538D01*
X97640591Y-106407680D01*
X97620714Y-106462154D01*
X97598008Y-106535857D01*
X97574776Y-106621682D01*
X97568004Y-106648913D01*
X97538991Y-106759680D01*
X97502464Y-106886825D01*
X97463082Y-107014707D01*
X97425501Y-107127682D01*
X97425221Y-107128481D01*
X97388998Y-107232538D01*
X97351034Y-107342804D01*
X97315527Y-107447021D01*
X97286672Y-107532928D01*
X97283395Y-107542819D01*
X97253900Y-107629837D01*
X97217256Y-107734727D01*
X97178456Y-107843331D01*
X97147440Y-107928186D01*
X97101884Y-108056585D01*
X97055099Y-108198132D01*
X97009466Y-108344794D01*
X96967364Y-108488544D01*
X96931173Y-108621349D01*
X96903274Y-108735179D01*
X96891105Y-108793122D01*
X96880497Y-108850345D01*
X96866448Y-108928219D01*
X96849920Y-109021199D01*
X96831874Y-109123741D01*
X96813271Y-109230300D01*
X96795073Y-109335329D01*
X96778241Y-109433285D01*
X96763737Y-109518622D01*
X96752523Y-109585794D01*
X96745559Y-109629258D01*
X96743695Y-109643261D01*
X96757367Y-109656501D01*
X96793634Y-109681874D01*
X96845372Y-109714477D01*
X96859568Y-109722993D01*
X96931156Y-109771288D01*
X97003071Y-109829637D01*
X97068816Y-109891677D01*
X97121895Y-109951041D01*
X97155812Y-110001367D01*
X97163446Y-110020711D01*
X97165633Y-110062511D01*
X97158797Y-110118212D01*
X97154375Y-110138186D01*
X97139088Y-110200976D01*
X97134703Y-110242576D01*
X97145882Y-110270371D01*
X97177288Y-110291748D01*
X97233582Y-110314090D01*
X97274646Y-110328686D01*
X97365138Y-110359268D01*
X97467083Y-110391398D01*
X97559641Y-110418524D01*
X97566552Y-110420429D01*
X97642682Y-110442072D01*
X97714858Y-110463955D01*
X97770229Y-110482148D01*
X97780645Y-110485923D01*
X97827192Y-110501687D01*
X97895481Y-110522746D01*
X97974135Y-110545648D01*
X98014352Y-110556863D01*
X98101623Y-110581982D01*
X98206156Y-110613851D01*
X98312913Y-110647811D01*
X98382592Y-110670903D01*
X98471628Y-110701003D01*
X98559338Y-110730547D01*
X98634908Y-110755901D01*
X98682662Y-110771818D01*
X98744499Y-110793784D01*
X98823604Y-110823936D01*
X98905819Y-110856831D01*
X98931010Y-110867273D01*
X99081592Y-110930345D01*
X99535469Y-110932199D01*
X99679707Y-110932251D01*
X99833500Y-110931375D01*
X99987108Y-110929689D01*
X100130791Y-110927314D01*
X100254811Y-110924370D01*
X100306204Y-110922729D01*
X100417819Y-110919679D01*
X100527705Y-110918355D01*
X100627245Y-110918739D01*
X100707822Y-110920816D01*
X100751517Y-110923558D01*
X100879973Y-110935712D01*
X100751517Y-110947316D01*
X100620486Y-110957507D01*
X100474031Y-110966047D01*
X100316366Y-110972927D01*
X100151706Y-110978138D01*
X99984265Y-110981672D01*
X99818258Y-110983519D01*
X99657898Y-110983671D01*
X99507401Y-110982118D01*
X99370979Y-110978852D01*
X99252848Y-110973864D01*
X99157222Y-110967145D01*
X99088315Y-110958686D01*
X99055900Y-110950901D01*
X98961005Y-110916458D01*
X98845070Y-110875601D01*
X98714316Y-110830410D01*
X98574960Y-110782966D01*
X98433221Y-110735351D01*
X98295319Y-110689646D01*
X98167471Y-110647932D01*
X98055898Y-110612291D01*
X97966817Y-110584803D01*
X97928166Y-110573490D01*
X97843023Y-110548231D01*
X97768779Y-110524056D01*
X97712224Y-110503335D01*
X97680150Y-110488436D01*
X97676575Y-110485726D01*
X97646548Y-110469877D01*
X97597030Y-110456245D01*
X97571133Y-110451933D01*
X97518721Y-110442721D01*
X97479907Y-110431636D01*
X97470036Y-110426576D01*
X97448415Y-110417848D01*
X97443545Y-110419750D01*
X97431411Y-110421723D01*
X97403987Y-110416384D01*
X97358741Y-110402842D01*
X97293143Y-110380206D01*
X97204661Y-110347584D01*
X97090766Y-110304087D01*
X96948926Y-110248824D01*
X96872151Y-110218636D01*
X96722504Y-110159546D01*
X96601338Y-110111697D01*
X96505147Y-110074082D01*
X96430420Y-110045695D01*
X96373650Y-110025529D01*
X96331328Y-110012579D01*
X96299945Y-110005838D01*
X96275994Y-110004299D01*
X96255965Y-110006957D01*
X96236350Y-110012804D01*
X96213640Y-110020834D01*
X96199213Y-110025611D01*
X96138404Y-110049730D01*
X96081487Y-110084910D01*
X96018225Y-110137964D01*
X95989381Y-110165203D01*
X95917406Y-110229089D01*
X95857969Y-110270348D01*
X95821925Y-110285157D01*
X95784736Y-110295514D01*
X95767752Y-110306013D01*
X95767643Y-110306760D01*
X95780785Y-110321924D01*
X95813308Y-110346649D01*
X95825786Y-110354977D01*
X95871522Y-110387188D01*
X95927429Y-110430396D01*
X95988249Y-110480027D01*
X96048726Y-110531510D01*
X96103603Y-110580271D01*
X96147624Y-110621737D01*
X96175531Y-110651336D01*
X96182069Y-110664495D01*
X96181754Y-110664635D01*
X96161787Y-110656935D01*
X96121403Y-110631322D01*
X96066496Y-110591820D01*
X96003709Y-110543057D01*
X95926147Y-110482484D01*
X95831955Y-110411517D01*
X95732910Y-110338905D01*
X95640789Y-110273394D01*
X95638975Y-110272131D01*
X95433446Y-110129063D01*
X95257664Y-110132484D01*
X95172403Y-110135257D01*
X95111537Y-110140857D01*
X95065224Y-110151081D01*
X95023619Y-110167728D01*
X95000752Y-110179425D01*
X94939123Y-110210561D01*
X94877033Y-110239001D01*
X94854162Y-110248437D01*
X94816110Y-110267902D01*
X94798882Y-110286266D01*
X94799509Y-110291415D01*
X94798287Y-110305719D01*
X94777280Y-110308496D01*
X94748473Y-110301026D01*
X94723852Y-110284589D01*
X94722657Y-110283210D01*
X94689306Y-110262564D01*
X94661457Y-110257519D01*
X94576574Y-110250721D01*
X94500663Y-110227672D01*
X94425071Y-110184388D01*
X94341143Y-110116884D01*
X94325674Y-110102942D01*
X94238788Y-110023666D01*
X94345853Y-110023666D01*
X94359607Y-110053492D01*
X94395057Y-110091925D01*
X94443486Y-110131815D01*
X94496174Y-110166008D01*
X94544404Y-110187352D01*
X94545888Y-110187774D01*
X94645535Y-110203519D01*
X94751587Y-110200406D01*
X94852244Y-110179979D01*
X94935708Y-110143784D01*
X94949001Y-110135001D01*
X95009542Y-110108045D01*
X95101977Y-110090243D01*
X95225150Y-110081758D01*
X95326431Y-110081405D01*
X95393531Y-110084606D01*
X95439640Y-110093931D01*
X95477949Y-110113241D01*
X95506269Y-110134043D01*
X95583105Y-110190411D01*
X95650336Y-110231598D01*
X95702020Y-110254189D01*
X95721013Y-110257455D01*
X95754769Y-110249978D01*
X95802413Y-110231175D01*
X95819496Y-110222916D01*
X95860519Y-110198752D01*
X95884637Y-110178293D01*
X95887323Y-110172534D01*
X95899994Y-110155227D01*
X95933501Y-110123861D01*
X95981083Y-110084674D01*
X95990355Y-110077475D01*
X96049231Y-110026349D01*
X96099061Y-109972602D01*
X96127723Y-109930890D01*
X96157044Y-109882101D01*
X96178579Y-109866476D01*
X96192784Y-109883934D01*
X96198814Y-109917797D01*
X96204154Y-109950045D01*
X96218118Y-109966707D01*
X96250111Y-109973854D01*
X96289818Y-109976527D01*
X96350340Y-109984675D01*
X96426167Y-110001652D01*
X96499663Y-110023393D01*
X96573052Y-110045589D01*
X96619006Y-110052972D01*
X96634854Y-110047965D01*
X96641160Y-110022953D01*
X96647329Y-109974048D01*
X96652074Y-109911591D01*
X96652248Y-109908353D01*
X96652768Y-109901578D01*
X96723529Y-109901578D01*
X96723873Y-109953776D01*
X96728791Y-109989362D01*
X96731143Y-109994717D01*
X96755647Y-110006619D01*
X96782249Y-110005025D01*
X96820769Y-109995532D01*
X96782232Y-110037710D01*
X96755704Y-110071780D01*
X96743750Y-110097082D01*
X96743695Y-110098112D01*
X96758290Y-110112068D01*
X96796395Y-110134306D01*
X96849491Y-110160962D01*
X96909061Y-110188169D01*
X96966586Y-110212063D01*
X97013547Y-110228778D01*
X97041427Y-110234449D01*
X97043418Y-110234114D01*
X97055683Y-110215638D01*
X97067975Y-110174212D01*
X97073532Y-110144766D01*
X97080794Y-110051428D01*
X97068522Y-109980697D01*
X97035085Y-109925974D01*
X97014600Y-109906397D01*
X96969095Y-109873134D01*
X96912823Y-109838987D01*
X96853895Y-109807960D01*
X96800420Y-109784057D01*
X96760508Y-109771281D01*
X96743108Y-109772355D01*
X96733830Y-109798163D01*
X96727076Y-109845473D01*
X96723529Y-109901578D01*
X96652768Y-109901578D01*
X96656893Y-109847835D01*
X96665387Y-109762875D01*
X96676688Y-109662935D01*
X96689758Y-109557479D01*
X96695985Y-109510408D01*
X96733313Y-109234303D01*
X96685035Y-108945203D01*
X96664009Y-108804316D01*
X96646382Y-108657135D01*
X96633688Y-108517789D01*
X96628085Y-108420600D01*
X96624159Y-108335260D01*
X96619375Y-108263710D01*
X96614261Y-108212131D01*
X96609347Y-108186704D01*
X96607950Y-108185098D01*
X96600273Y-108201011D01*
X96589662Y-108244364D01*
X96577201Y-108308581D01*
X96563975Y-108387083D01*
X96551069Y-108473292D01*
X96539568Y-108560632D01*
X96530555Y-108642524D01*
X96528166Y-108668948D01*
X96519351Y-108746446D01*
X96508680Y-108790089D01*
X96495987Y-108800236D01*
X96481108Y-108777244D01*
X96479698Y-108773671D01*
X96472943Y-108745729D01*
X96463151Y-108692276D01*
X96451787Y-108621761D01*
X96443272Y-108563860D01*
X96429303Y-108412958D01*
X96425766Y-108242743D01*
X96429760Y-108133716D01*
X96606676Y-108133716D01*
X96619709Y-108150345D01*
X96623803Y-108150843D01*
X96640433Y-108137809D01*
X96640931Y-108133716D01*
X96627897Y-108117086D01*
X96623803Y-108116588D01*
X96607173Y-108129622D01*
X96606676Y-108133716D01*
X96429760Y-108133716D01*
X96432227Y-108066387D01*
X96448249Y-107897065D01*
X96469606Y-107765837D01*
X96485425Y-107675207D01*
X96489731Y-107616226D01*
X96483114Y-107589192D01*
X96466163Y-107594398D01*
X96439466Y-107632141D01*
X96403613Y-107702716D01*
X96392551Y-107727187D01*
X96338948Y-107846599D01*
X96289927Y-107952715D01*
X96247319Y-108041776D01*
X96212956Y-108110023D01*
X96188671Y-108153698D01*
X96177374Y-108168660D01*
X96163810Y-108187104D01*
X96136686Y-108232428D01*
X96097972Y-108300979D01*
X96049637Y-108389104D01*
X95993650Y-108493150D01*
X95931981Y-108609464D01*
X95866599Y-108734394D01*
X95799474Y-108864287D01*
X95748343Y-108964397D01*
X95706299Y-109046804D01*
X95669674Y-109117913D01*
X95641265Y-109172348D01*
X95623868Y-109204736D01*
X95619909Y-109211317D01*
X95608185Y-109214181D01*
X95602839Y-109189289D01*
X95603780Y-109134711D01*
X95610918Y-109048519D01*
X95611806Y-109039689D01*
X95626842Y-108882767D01*
X95636770Y-108758244D01*
X95641575Y-108666455D01*
X95641242Y-108607736D01*
X95635756Y-108582424D01*
X95632561Y-108581538D01*
X95614218Y-108594566D01*
X95575469Y-108626223D01*
X95521383Y-108672238D01*
X95457032Y-108728341D01*
X95432196Y-108750304D01*
X95349261Y-108828137D01*
X95255514Y-108924321D01*
X95148665Y-109041350D01*
X95026430Y-109181721D01*
X94904414Y-109326424D01*
X94779372Y-109476529D01*
X94674508Y-109602546D01*
X94588050Y-109706689D01*
X94518227Y-109791168D01*
X94463266Y-109858196D01*
X94421396Y-109909984D01*
X94390844Y-109948744D01*
X94369840Y-109976687D01*
X94356612Y-109996025D01*
X94349387Y-110008970D01*
X94346394Y-110017734D01*
X94345853Y-110023666D01*
X94238788Y-110023666D01*
X94195125Y-109983827D01*
X94031826Y-109963202D01*
G37*
G36*
X91573940Y-105880847D02*
G01*
X91561301Y-105901369D01*
X91527729Y-105929447D01*
X91496911Y-105949244D01*
X91444367Y-105978652D01*
X91414601Y-105990797D01*
X91401841Y-105987349D01*
X91399933Y-105977285D01*
X91413228Y-105962085D01*
X91446105Y-105937319D01*
X91488053Y-105909783D01*
X91528559Y-105886272D01*
X91557110Y-105873582D01*
X91561411Y-105872893D01*
X91573940Y-105880847D01*
G37*
G36*
X94243088Y-105761565D02*
G01*
X94234525Y-105770128D01*
X94225961Y-105761565D01*
X94234525Y-105753001D01*
X94243088Y-105761565D01*
G37*
G36*
X91873871Y-107476266D02*
G01*
X91887892Y-107480247D01*
X91886842Y-107491009D01*
X91862201Y-107501843D01*
X91807161Y-107513031D01*
X91764499Y-107514204D01*
X91743345Y-107505360D01*
X91742482Y-107501874D01*
X91757380Y-107490517D01*
X91793160Y-107481137D01*
X91836448Y-107475724D01*
X91873871Y-107476266D01*
G37*
G36*
X100719551Y-112065879D02*
G01*
X100730234Y-112091117D01*
X100732483Y-112148740D01*
X100729668Y-112200841D01*
X100719076Y-112283806D01*
X100698030Y-112357534D01*
X100661442Y-112439373D01*
X100657273Y-112447610D01*
X100623950Y-112517281D01*
X100605632Y-112569696D01*
X100599096Y-112616601D01*
X100600056Y-112656218D01*
X100603266Y-112704760D01*
X100604996Y-112735441D01*
X100605078Y-112741009D01*
X100594263Y-112730921D01*
X100583668Y-112720445D01*
X100566216Y-112681913D01*
X100562936Y-112622754D01*
X100572912Y-112553096D01*
X100595227Y-112483065D01*
X100607509Y-112457016D01*
X100643381Y-112373474D01*
X100673423Y-112275265D01*
X100693473Y-112178059D01*
X100699533Y-112110554D01*
X100704650Y-112071489D01*
X100718812Y-112065443D01*
X100719551Y-112065879D01*
G37*
G36*
X100829444Y-113313471D02*
G01*
X100879812Y-113332195D01*
X100943104Y-113362459D01*
X101011598Y-113400435D01*
X101077571Y-113442294D01*
X101103623Y-113460816D01*
X101177578Y-113532637D01*
X101219621Y-113615679D01*
X101231086Y-113698779D01*
X101221967Y-113746394D01*
X101196582Y-113816036D01*
X101157888Y-113901377D01*
X101108841Y-113996093D01*
X101052397Y-114093857D01*
X101028487Y-114132279D01*
X100983387Y-114205176D01*
X100942714Y-114274565D01*
X100911750Y-114331236D01*
X100898363Y-114359163D01*
X100882340Y-114402369D01*
X100882490Y-114431437D01*
X100901017Y-114463365D01*
X100914142Y-114480843D01*
X100940452Y-114523623D01*
X100941672Y-114544702D01*
X100921518Y-114540895D01*
X100883709Y-114509019D01*
X100882594Y-114507861D01*
X100853771Y-114470586D01*
X100839529Y-114430388D01*
X100840949Y-114382745D01*
X100859108Y-114323134D01*
X100895084Y-114247034D01*
X100949956Y-114149923D01*
X100979794Y-114100309D01*
X101049977Y-113982846D01*
X101102563Y-113889049D01*
X101139486Y-113814443D01*
X101162682Y-113754553D01*
X101174087Y-113704905D01*
X101175635Y-113661024D01*
X101174642Y-113649827D01*
X101164828Y-113599257D01*
X101143873Y-113559036D01*
X101104223Y-113516117D01*
X101089199Y-113502253D01*
X101032935Y-113458248D01*
X100961327Y-113411557D01*
X100895275Y-113375093D01*
X100842879Y-113347195D01*
X100808484Y-113324679D01*
X100797911Y-113311505D01*
X100799722Y-113310118D01*
X100829444Y-113313471D01*
G37*
G36*
X99165162Y-113894400D02*
G01*
X99175792Y-113905664D01*
X99161135Y-113918539D01*
X99132974Y-113922792D01*
X99100786Y-113916929D01*
X99090155Y-113905664D01*
X99104813Y-113892789D01*
X99132974Y-113888537D01*
X99165162Y-113894400D01*
G37*
G36*
X94465745Y-103603507D02*
G01*
X94457182Y-103612070D01*
X94448618Y-103603507D01*
X94457182Y-103594943D01*
X94465745Y-103603507D01*
G37*
G36*
X91836504Y-105097429D02*
G01*
X91828119Y-105119285D01*
X91806878Y-105145456D01*
X91786221Y-105153864D01*
X91776740Y-105140275D01*
X91776736Y-105139838D01*
X91789176Y-105114936D01*
X91815099Y-105091503D01*
X91832147Y-105085030D01*
X91836504Y-105097429D01*
G37*
G36*
X100940576Y-110935959D02*
G01*
X100952765Y-110937554D01*
X101003993Y-110946981D01*
X101021428Y-110954033D01*
X101004965Y-110958390D01*
X100959901Y-110959744D01*
X100915954Y-110956317D01*
X100890822Y-110947717D01*
X100888537Y-110943693D01*
X100903415Y-110935694D01*
X100940576Y-110935959D01*
G37*
G36*
X99053309Y-113913542D02*
G01*
X99055900Y-113922792D01*
X99041763Y-113937322D01*
X99025927Y-113939933D01*
X98981345Y-113949719D01*
X98920708Y-113975161D01*
X98854641Y-114010431D01*
X98793767Y-114049701D01*
X98748711Y-114087144D01*
X98740282Y-114096625D01*
X98707435Y-114140859D01*
X98665822Y-114201044D01*
X98625618Y-114262341D01*
X98590978Y-114317534D01*
X98573104Y-114350512D01*
X98570360Y-114367949D01*
X98581106Y-114376520D01*
X98596511Y-114381010D01*
X98669332Y-114409538D01*
X98760853Y-114460873D01*
X98867113Y-114532131D01*
X98984154Y-114620427D01*
X99108017Y-114722877D01*
X99234743Y-114836598D01*
X99277838Y-114877375D01*
X99334705Y-114932453D01*
X99369279Y-114968250D01*
X99384256Y-114988912D01*
X99382335Y-114998584D01*
X99366214Y-115001413D01*
X99358651Y-115001549D01*
X99325194Y-114994690D01*
X99287834Y-114970555D01*
X99239780Y-114924372D01*
X99222920Y-114906226D01*
X99161043Y-114845217D01*
X99088388Y-114783123D01*
X99031498Y-114740949D01*
X98966741Y-114696186D01*
X98901919Y-114649140D01*
X98856999Y-114614663D01*
X98816165Y-114585551D01*
X98761553Y-114551451D01*
X98700657Y-114516416D01*
X98640972Y-114484499D01*
X98589992Y-114459750D01*
X98555212Y-114446222D01*
X98544441Y-114445670D01*
X98552979Y-114459923D01*
X98581037Y-114494557D01*
X98624572Y-114545084D01*
X98679545Y-114607021D01*
X98741912Y-114675881D01*
X98807632Y-114747178D01*
X98872666Y-114816428D01*
X98932969Y-114879144D01*
X98956788Y-114903336D01*
X99004331Y-114951790D01*
X99030021Y-114981011D01*
X99036359Y-114995853D01*
X99025849Y-115001167D01*
X99007585Y-115001821D01*
X98986592Y-114998791D01*
X98962663Y-114987812D01*
X98932772Y-114966053D01*
X98893891Y-114930682D01*
X98842994Y-114878867D01*
X98777054Y-114807776D01*
X98693044Y-114714577D01*
X98655166Y-114672117D01*
X98601510Y-114613299D01*
X98555297Y-114565326D01*
X98521603Y-114533289D01*
X98505788Y-114522252D01*
X98493454Y-114529036D01*
X98479347Y-114551967D01*
X98461986Y-114594912D01*
X98439891Y-114661739D01*
X98411580Y-114756317D01*
X98397592Y-114804855D01*
X98373845Y-114886209D01*
X98356011Y-114940304D01*
X98341051Y-114972943D01*
X98325924Y-114989933D01*
X98307592Y-114997078D01*
X98296034Y-114998800D01*
X98263645Y-114999818D01*
X98258173Y-114988106D01*
X98264883Y-114973109D01*
X98276112Y-114943860D01*
X98293104Y-114890115D01*
X98313200Y-114820577D01*
X98326780Y-114770600D01*
X98404251Y-114543623D01*
X98512060Y-114331572D01*
X98602383Y-114196831D01*
X98677607Y-114103050D01*
X98747337Y-114034133D01*
X98819591Y-113983469D01*
X98902390Y-113944446D01*
X98913771Y-113940098D01*
X98986421Y-113915512D01*
X99031926Y-113906782D01*
X99053309Y-113913542D01*
G37*
G36*
X96178490Y-102935536D02*
G01*
X96169926Y-102944100D01*
X96161362Y-102935536D01*
X96169926Y-102926972D01*
X96178490Y-102935536D01*
G37*
G36*
X92050896Y-107451951D02*
G01*
X92057565Y-107457462D01*
X92042212Y-107465745D01*
X92002134Y-107477749D01*
X91964864Y-107481207D01*
X91941211Y-107476118D01*
X91939447Y-107465745D01*
X91962032Y-107454797D01*
X92004081Y-107449826D01*
X92013250Y-107449822D01*
X92050896Y-107451951D01*
G37*
G36*
X93665391Y-104962978D02*
G01*
X93670302Y-104966729D01*
X93658480Y-104975721D01*
X93620224Y-104988869D01*
X93562740Y-105003856D01*
X93536690Y-105009693D01*
X93456978Y-105029270D01*
X93402475Y-105049601D01*
X93364266Y-105074434D01*
X93349872Y-105088227D01*
X93310797Y-105119912D01*
X93273000Y-105135934D01*
X93267326Y-105136413D01*
X93234520Y-105142719D01*
X93180580Y-105159457D01*
X93115764Y-105183352D01*
X93098641Y-105190233D01*
X93013514Y-105229728D01*
X92946921Y-105273634D01*
X92883636Y-105332171D01*
X92877304Y-105338800D01*
X92828539Y-105386552D01*
X92793675Y-105413771D01*
X92775428Y-105419920D01*
X92776511Y-105404459D01*
X92799638Y-105366851D01*
X92810627Y-105352025D01*
X92834835Y-105313769D01*
X92842211Y-105287521D01*
X92839350Y-105282436D01*
X92815072Y-105279978D01*
X92767678Y-105283507D01*
X92710223Y-105291810D01*
X92648953Y-105303762D01*
X92611478Y-105316932D01*
X92587671Y-105337281D01*
X92567401Y-105370768D01*
X92563648Y-105378060D01*
X92539318Y-105418702D01*
X92518231Y-105442302D01*
X92512429Y-105444707D01*
X92507762Y-105431720D01*
X92518586Y-105399787D01*
X92521939Y-105393017D01*
X92538334Y-105357207D01*
X92537222Y-105339815D01*
X92522379Y-105331238D01*
X92483977Y-105327691D01*
X92470881Y-105330823D01*
X92436702Y-105333230D01*
X92398089Y-105326028D01*
X92350368Y-105312078D01*
X92291657Y-105295617D01*
X92277714Y-105291808D01*
X92232531Y-105275187D01*
X92208191Y-105258326D01*
X92207245Y-105246162D01*
X92232242Y-105243627D01*
X92254760Y-105247402D01*
X92290233Y-105248674D01*
X92352522Y-105244422D01*
X92434804Y-105235587D01*
X92530256Y-105223109D01*
X92632054Y-105207927D01*
X92733375Y-105190982D01*
X92827396Y-105173214D01*
X92887770Y-105160200D01*
X92951835Y-105142590D01*
X93034391Y-105115964D01*
X93122386Y-105084658D01*
X93169670Y-105066504D01*
X93245090Y-105039812D01*
X93330024Y-105014885D01*
X93417844Y-104993046D01*
X93501920Y-104975614D01*
X93575622Y-104963911D01*
X93632322Y-104959259D01*
X93665391Y-104962978D01*
G37*
G36*
X92264951Y-111888425D02*
G01*
X92288813Y-111897914D01*
X92290560Y-111901753D01*
X92275365Y-111912479D01*
X92237407Y-111918444D01*
X92222050Y-111918881D01*
X92179149Y-111915082D01*
X92155287Y-111905593D01*
X92153540Y-111901753D01*
X92168735Y-111891028D01*
X92206693Y-111885063D01*
X92222050Y-111884626D01*
X92264951Y-111888425D01*
G37*
G36*
X91771933Y-105214176D02*
G01*
X91801870Y-105247378D01*
X91826326Y-105281996D01*
X91854268Y-105324022D01*
X91871584Y-105351290D01*
X91874640Y-105357362D01*
X91857388Y-105352027D01*
X91829663Y-105344109D01*
X91792572Y-105324094D01*
X91758369Y-105290912D01*
X91735311Y-105254834D01*
X91731661Y-105226129D01*
X91732861Y-105223760D01*
X91750377Y-105207206D01*
X91771933Y-105214176D01*
G37*
G36*
X92419098Y-111391729D02*
G01*
X92442960Y-111401218D01*
X92444707Y-111405057D01*
X92429512Y-111415783D01*
X92391554Y-111421748D01*
X92376197Y-111422185D01*
X92333296Y-111418386D01*
X92309434Y-111408897D01*
X92307687Y-111405057D01*
X92322882Y-111394332D01*
X92360840Y-111388367D01*
X92376197Y-111387930D01*
X92419098Y-111391729D01*
G37*
G36*
X98324229Y-112468293D02*
G01*
X98442586Y-112413622D01*
X98553442Y-112387785D01*
X98634819Y-112386901D01*
X98721836Y-112398183D01*
X98803105Y-112419093D01*
X98867236Y-112447089D01*
X98888908Y-112462585D01*
X98911434Y-112480171D01*
X98918451Y-112473461D01*
X98918881Y-112462196D01*
X98903924Y-112432225D01*
X98861312Y-112389784D01*
X98794432Y-112336889D01*
X98706672Y-112275552D01*
X98601418Y-112207790D01*
X98482057Y-112135615D01*
X98351977Y-112061042D01*
X98214565Y-111986086D01*
X98073208Y-111912761D01*
X97931294Y-111843080D01*
X97792209Y-111779058D01*
X97711396Y-111744145D01*
X97631404Y-111710639D01*
X97540452Y-111672698D01*
X97464470Y-111641124D01*
X97382077Y-111604417D01*
X97292275Y-111560515D01*
X97220929Y-111522460D01*
X97163647Y-111491141D01*
X97117230Y-111467861D01*
X97090141Y-111456813D01*
X97087703Y-111456440D01*
X97069442Y-111446025D01*
X97029741Y-111417328D01*
X96973331Y-111374168D01*
X96904941Y-111320368D01*
X96829301Y-111259747D01*
X96751141Y-111196126D01*
X96675190Y-111133325D01*
X96606180Y-111075166D01*
X96548840Y-111025469D01*
X96508193Y-110988337D01*
X96469093Y-110948266D01*
X96442670Y-110916440D01*
X96435401Y-110902614D01*
X96446607Y-110904497D01*
X96475688Y-110925388D01*
X96508193Y-110953452D01*
X96707315Y-111123282D01*
X96918301Y-111280590D01*
X97133978Y-111420655D01*
X97347172Y-111538757D01*
X97514430Y-111615621D01*
X97814152Y-111743659D01*
X98081714Y-111867412D01*
X98318822Y-111987738D01*
X98527184Y-112105495D01*
X98676937Y-112200173D01*
X98798360Y-112284929D01*
X98892568Y-112361424D01*
X98963267Y-112436144D01*
X99014160Y-112515572D01*
X99048953Y-112606193D01*
X99071351Y-112714490D01*
X99085056Y-112846950D01*
X99089725Y-112922690D01*
X99102506Y-113164327D01*
X99175639Y-113261191D01*
X99223306Y-113318995D01*
X99266667Y-113354154D01*
X99315917Y-113370757D01*
X99381254Y-113372889D01*
X99442015Y-113367961D01*
X99578799Y-113338022D01*
X99716831Y-113277622D01*
X99849714Y-113189691D01*
X99874023Y-113169970D01*
X99961580Y-113087962D01*
X100022034Y-113007992D01*
X100060621Y-112920791D01*
X100082575Y-112817091D01*
X100085141Y-112796164D01*
X100096492Y-112725074D01*
X100115842Y-112634154D01*
X100140299Y-112536051D01*
X100162340Y-112458450D01*
X100214805Y-112299168D01*
X100266096Y-112172019D01*
X100317306Y-112074961D01*
X100369527Y-112005946D01*
X100423849Y-111962930D01*
X100427949Y-111960741D01*
X100472506Y-111943710D01*
X100494550Y-111946285D01*
X100490410Y-111964282D01*
X100456608Y-111993385D01*
X100408276Y-112040988D01*
X100357109Y-112120321D01*
X100336905Y-112159034D01*
X100308835Y-112222520D01*
X100279936Y-112299427D01*
X100252273Y-112382618D01*
X100227908Y-112464960D01*
X100208905Y-112539314D01*
X100197328Y-112598547D01*
X100195241Y-112635523D01*
X100197220Y-112642027D01*
X100216073Y-112655603D01*
X100259807Y-112680116D01*
X100322159Y-112712239D01*
X100396866Y-112748647D01*
X100406987Y-112753441D01*
X100512360Y-112800525D01*
X100596695Y-112830610D01*
X100668012Y-112844843D01*
X100734327Y-112844365D01*
X100803661Y-112830322D01*
X100848386Y-112816423D01*
X100931481Y-112785737D01*
X100995745Y-112753689D01*
X101049894Y-112713589D01*
X101102641Y-112658748D01*
X101162701Y-112582475D01*
X101175347Y-112565430D01*
X101228362Y-112493831D01*
X101270260Y-112435772D01*
X101302689Y-112385912D01*
X101327298Y-112338909D01*
X101345736Y-112289421D01*
X101359649Y-112232107D01*
X101370688Y-112161626D01*
X101380500Y-112072635D01*
X101390733Y-111959793D01*
X101401838Y-111831452D01*
X101413222Y-111733122D01*
X101430959Y-111617003D01*
X101452513Y-111498390D01*
X101472818Y-111403266D01*
X101498782Y-111292314D01*
X101517545Y-111210148D01*
X101529399Y-111152126D01*
X101534632Y-111113608D01*
X101533535Y-111089955D01*
X101526397Y-111076525D01*
X101513509Y-111068677D01*
X101495161Y-111061772D01*
X101494179Y-111061397D01*
X101458031Y-111050973D01*
X101396938Y-111036916D01*
X101319757Y-111021146D01*
X101243736Y-111007056D01*
X101166632Y-110992768D01*
X101104466Y-110979909D01*
X101063463Y-110969863D01*
X101049847Y-110964016D01*
X101049923Y-110963923D01*
X101069945Y-110962717D01*
X101115933Y-110967289D01*
X101180331Y-110976361D01*
X101255584Y-110988655D01*
X101334138Y-111002893D01*
X101408436Y-111017797D01*
X101470925Y-111032088D01*
X101500843Y-111040207D01*
X101555172Y-111060794D01*
X101586144Y-111081698D01*
X101590762Y-111091616D01*
X101585886Y-111119939D01*
X101573179Y-111169437D01*
X101557649Y-111222009D01*
X101531387Y-111312613D01*
X101509028Y-111405664D01*
X101489859Y-111506198D01*
X101473168Y-111619250D01*
X101458239Y-111749853D01*
X101444361Y-111903042D01*
X101430819Y-112083852D01*
X101426485Y-112147701D01*
X101419582Y-112235257D01*
X101411573Y-112296049D01*
X101400861Y-112337564D01*
X101385850Y-112367290D01*
X101377180Y-112378922D01*
X101338543Y-112430770D01*
X101301362Y-112488259D01*
X101269894Y-112543693D01*
X101248395Y-112589379D01*
X101241123Y-112617620D01*
X101242725Y-112621957D01*
X101263848Y-112630042D01*
X101311113Y-112642591D01*
X101376945Y-112658025D01*
X101453766Y-112674763D01*
X101534003Y-112691225D01*
X101610078Y-112705832D01*
X101674417Y-112717003D01*
X101719444Y-112723158D01*
X101731367Y-112723871D01*
X101772340Y-112729437D01*
X101827205Y-112743868D01*
X101886744Y-112763763D01*
X101941739Y-112785722D01*
X101982974Y-112806345D01*
X102001230Y-112822229D01*
X102001439Y-112823508D01*
X101988874Y-112835204D01*
X101960208Y-112833900D01*
X101929946Y-112821979D01*
X101916184Y-112809508D01*
X101888885Y-112791704D01*
X101842500Y-112778052D01*
X101792194Y-112772535D01*
X101777731Y-112773139D01*
X101746144Y-112771251D01*
X101687942Y-112763360D01*
X101610020Y-112750565D01*
X101519273Y-112733964D01*
X101464550Y-112723239D01*
X101195621Y-112669240D01*
X101121560Y-112737508D01*
X101013613Y-112817331D01*
X100892937Y-112867714D01*
X100755700Y-112890813D01*
X100677463Y-112891960D01*
X100601237Y-112882375D01*
X100519586Y-112859976D01*
X100425069Y-112822678D01*
X100310250Y-112768401D01*
X100299787Y-112763174D01*
X100242380Y-112736878D01*
X100196777Y-112720580D01*
X100171275Y-112717131D01*
X100169257Y-112718298D01*
X100160250Y-112742242D01*
X100151093Y-112788182D01*
X100146495Y-112822465D01*
X100136517Y-112912495D01*
X100259897Y-112999616D01*
X100332268Y-113047296D01*
X100420795Y-113100659D01*
X100510602Y-113150880D01*
X100545988Y-113169351D01*
X100617163Y-113206502D01*
X100679737Y-113241006D01*
X100725483Y-113268227D01*
X100742954Y-113280354D01*
X100762315Y-113298251D01*
X100760081Y-113300602D01*
X100737709Y-113291194D01*
X100691103Y-113272346D01*
X100627913Y-113247136D01*
X100580243Y-113228272D01*
X100493285Y-113191229D01*
X100401921Y-113147883D01*
X100321618Y-113105703D01*
X100297640Y-113091788D01*
X100220700Y-113046313D01*
X100166627Y-113018396D01*
X100129346Y-113007272D01*
X100102783Y-113012172D01*
X100080865Y-113032329D01*
X100060734Y-113061860D01*
X100019367Y-113113633D01*
X99958204Y-113173877D01*
X99886304Y-113235185D01*
X99812727Y-113290146D01*
X99746532Y-113331354D01*
X99711759Y-113347253D01*
X99661863Y-113362279D01*
X99591813Y-113380169D01*
X99515133Y-113397510D01*
X99499859Y-113400681D01*
X99361680Y-113420266D01*
X99243615Y-113416488D01*
X99139180Y-113387571D01*
X99041895Y-113331740D01*
X98947433Y-113249393D01*
X98873488Y-113177915D01*
X98788432Y-113100349D01*
X98696381Y-113019984D01*
X98601453Y-112940114D01*
X98507767Y-112864030D01*
X98419441Y-112795024D01*
X98340591Y-112736388D01*
X98275336Y-112691413D01*
X98227793Y-112663391D01*
X98204346Y-112655361D01*
X98182705Y-112667030D01*
X98152420Y-112694029D01*
X98125485Y-112724349D01*
X98113891Y-112745944D01*
X98127458Y-112760785D01*
X98160310Y-112781240D01*
X98162322Y-112782291D01*
X98214608Y-112815570D01*
X98286930Y-112870875D01*
X98375907Y-112945230D01*
X98478160Y-113035660D01*
X98590307Y-113139191D01*
X98708968Y-113252846D01*
X98806182Y-113348928D01*
X98900450Y-113442731D01*
X98975644Y-113515571D01*
X99036326Y-113571282D01*
X99087056Y-113613698D01*
X99132394Y-113646650D01*
X99176903Y-113673973D01*
X99220595Y-113697209D01*
X99327000Y-113758128D01*
X99406434Y-113821715D01*
X99465945Y-113894630D01*
X99504618Y-113965610D01*
X99521707Y-114006330D01*
X99532728Y-114045296D01*
X99538712Y-114091131D01*
X99540690Y-114152457D01*
X99539693Y-114237894D01*
X99539298Y-114255567D01*
X99536298Y-114336866D01*
X99531655Y-114406078D01*
X99526010Y-114455748D01*
X99520167Y-114478224D01*
X99498900Y-114517183D01*
X99475674Y-114577309D01*
X99454391Y-114646018D01*
X99438955Y-114710726D01*
X99433263Y-114758397D01*
X99439425Y-114812279D01*
X99454481Y-114878207D01*
X99464886Y-114911902D01*
X99481444Y-114964177D01*
X99485244Y-114991726D01*
X99476827Y-115001388D01*
X99472017Y-115001821D01*
X99450538Y-114987439D01*
X99427552Y-114951837D01*
X99422891Y-114941526D01*
X99391567Y-114829663D01*
X99386549Y-114714368D01*
X99397340Y-114646671D01*
X99423523Y-114542024D01*
X99442504Y-114463050D01*
X99455812Y-114402301D01*
X99464981Y-114352325D01*
X99471541Y-114305676D01*
X99476215Y-114263019D01*
X99479547Y-114165903D01*
X99466449Y-114078499D01*
X99459195Y-114051465D01*
X99427991Y-113960576D01*
X99390671Y-113893106D01*
X99339544Y-113839939D01*
X99266918Y-113791958D01*
X99218611Y-113766289D01*
X99116680Y-113711827D01*
X99035820Y-113660866D01*
X98964815Y-113605463D01*
X98892449Y-113537675D01*
X98884452Y-113529653D01*
X98835842Y-113481890D01*
X98767333Y-113416257D01*
X98684423Y-113337868D01*
X98592611Y-113251840D01*
X98497394Y-113163288D01*
X98404270Y-113077327D01*
X98318739Y-112999074D01*
X98246298Y-112933644D01*
X98197780Y-112890767D01*
X98143131Y-112844121D01*
X98107729Y-112817339D01*
X98085320Y-112807412D01*
X98069651Y-112811333D01*
X98057132Y-112823113D01*
X98037714Y-112848788D01*
X98018369Y-112884562D01*
X97997458Y-112934869D01*
X97973342Y-113004143D01*
X97944381Y-113096815D01*
X97908934Y-113217320D01*
X97900551Y-113246444D01*
X97871941Y-113342081D01*
X97843432Y-113430259D01*
X97817501Y-113503808D01*
X97796623Y-113555555D01*
X97787922Y-113572565D01*
X97740133Y-113629827D01*
X97669839Y-113689411D01*
X97587323Y-113743726D01*
X97502869Y-113785181D01*
X97496592Y-113787618D01*
X97398643Y-113813667D01*
X97295099Y-113817217D01*
X97176603Y-113798399D01*
X97151855Y-113792364D01*
X97068322Y-113768563D01*
X96999560Y-113741454D01*
X96940613Y-113706620D01*
X96886522Y-113659647D01*
X96832331Y-113596118D01*
X96773082Y-113511619D01*
X96703818Y-113401734D01*
X96692555Y-113383277D01*
X96638723Y-113295958D01*
X96589649Y-113219505D01*
X96540563Y-113147207D01*
X96486692Y-113072351D01*
X96423264Y-112988225D01*
X96345509Y-112888117D01*
X96293993Y-112822656D01*
X96175938Y-112673094D01*
X96112986Y-112706106D01*
X96057030Y-112739423D01*
X96004074Y-112776895D01*
X95999233Y-112780790D01*
X95974945Y-112803336D01*
X95962760Y-112825516D01*
X95964554Y-112852266D01*
X95982199Y-112888524D01*
X96017569Y-112939227D01*
X96072538Y-113009312D01*
X96097882Y-113040728D01*
X96222148Y-113183698D01*
X96370119Y-113334471D01*
X96543541Y-113494647D01*
X96744160Y-113665824D01*
X96973723Y-113849602D01*
X97021955Y-113887002D01*
X97090625Y-113943840D01*
X97137777Y-113993863D01*
X97171904Y-114046775D01*
X97184775Y-114073020D01*
X97208972Y-114140525D01*
X97227304Y-114219435D01*
X97238245Y-114298793D01*
X97240271Y-114367645D01*
X97232245Y-114414101D01*
X97221308Y-114435041D01*
X97211708Y-114425351D01*
X97205502Y-114410924D01*
X97194648Y-114368232D01*
X97190213Y-114324603D01*
X97181402Y-114248553D01*
X97160820Y-114166487D01*
X97132458Y-114090499D01*
X97100304Y-114032680D01*
X97089629Y-114019739D01*
X97052564Y-113984732D01*
X96999241Y-113939128D01*
X96941005Y-113892620D01*
X96939263Y-113891283D01*
X96868239Y-113835575D01*
X96783203Y-113766829D01*
X96688796Y-113689000D01*
X96589658Y-113606040D01*
X96490429Y-113521904D01*
X96395749Y-113440546D01*
X96310259Y-113365919D01*
X96238599Y-113301978D01*
X96185408Y-113252675D01*
X96160338Y-113227586D01*
X96111884Y-113172047D01*
X96054954Y-113101964D01*
X96000560Y-113030966D01*
X95991971Y-113019253D01*
X95950352Y-112964171D01*
X95915252Y-112921637D01*
X95892021Y-112897963D01*
X95886821Y-112895145D01*
X95864974Y-112909481D01*
X95832744Y-112948197D01*
X95794699Y-113004850D01*
X95755407Y-113073000D01*
X95741047Y-113100674D01*
X95714962Y-113160167D01*
X95683712Y-113242806D01*
X95650605Y-113338545D01*
X95618947Y-113437340D01*
X95592046Y-113529145D01*
X95573208Y-113603915D01*
X95569699Y-113621121D01*
X95552795Y-113670749D01*
X95527229Y-113709039D01*
X95525951Y-113710234D01*
X95501043Y-113740183D01*
X95493392Y-113760406D01*
X95478150Y-113787168D01*
X95437390Y-113818973D01*
X95378557Y-113851551D01*
X95309100Y-113880637D01*
X95253608Y-113897827D01*
X95192199Y-113911284D01*
X95131688Y-113918138D01*
X95060984Y-113918958D01*
X94968999Y-113914317D01*
X94953877Y-113913271D01*
X94763139Y-113903633D01*
X94599704Y-113904027D01*
X94458081Y-113914602D01*
X94362981Y-113929283D01*
X94300063Y-113939651D01*
X94250567Y-113944534D01*
X94223673Y-113943099D01*
X94221915Y-113942081D01*
X94213253Y-113922462D01*
X94197021Y-113875435D01*
X94175000Y-113806545D01*
X94148969Y-113721337D01*
X94124828Y-113639568D01*
X94095967Y-113541234D01*
X94068987Y-113451012D01*
X94045888Y-113375460D01*
X94028667Y-113321135D01*
X94020574Y-113297640D01*
X94001750Y-113240467D01*
X93980258Y-113162304D01*
X93958039Y-113071892D01*
X93937032Y-112977975D01*
X93919176Y-112889293D01*
X93906411Y-112814590D01*
X93900676Y-112762606D01*
X93900540Y-112756586D01*
X93897371Y-112712566D01*
X93888624Y-112642738D01*
X93875433Y-112554882D01*
X93858936Y-112456780D01*
X93847967Y-112396480D01*
X93829941Y-112299520D01*
X93813867Y-112211683D01*
X93800951Y-112139666D01*
X93792399Y-112090165D01*
X93789724Y-112073028D01*
X93783434Y-112029057D01*
X93774630Y-111971369D01*
X93771749Y-111953136D01*
X93764393Y-111898886D01*
X93760643Y-111854906D01*
X93760524Y-111844683D01*
X93755334Y-111804139D01*
X93745858Y-111771891D01*
X93738498Y-111740205D01*
X93751220Y-111730504D01*
X93752578Y-111730479D01*
X93761416Y-111741627D01*
X93772651Y-111776386D01*
X93786690Y-111836732D01*
X93803943Y-111924637D01*
X93824819Y-112042076D01*
X93849727Y-112191023D01*
X93856314Y-112231457D01*
X93885284Y-112409766D01*
X93909740Y-112558760D01*
X93930647Y-112682935D01*
X93948967Y-112786791D01*
X93965664Y-112874825D01*
X93981701Y-112951535D01*
X93998041Y-113021419D01*
X94015647Y-113088976D01*
X94035484Y-113158703D01*
X94058513Y-113235100D01*
X94085699Y-113322663D01*
X94099308Y-113366150D01*
X94133664Y-113475883D01*
X94165816Y-113578608D01*
X94193911Y-113668398D01*
X94216094Y-113739329D01*
X94230511Y-113785474D01*
X94233275Y-113794336D01*
X94254616Y-113862846D01*
X94407281Y-113859570D01*
X94493780Y-113858346D01*
X94597674Y-113857811D01*
X94702110Y-113858022D01*
X94748348Y-113858414D01*
X94881274Y-113859509D01*
X94985551Y-113859174D01*
X95066767Y-113857012D01*
X95130513Y-113852628D01*
X95182378Y-113845625D01*
X95227952Y-113835606D01*
X95272825Y-113822175D01*
X95276490Y-113820962D01*
X95366313Y-113783265D01*
X95428317Y-113736107D01*
X95468834Y-113672722D01*
X95493699Y-113588807D01*
X95513852Y-113508347D01*
X95544407Y-113408925D01*
X95581153Y-113302562D01*
X95619880Y-113201279D01*
X95656380Y-113117097D01*
X95665218Y-113099035D01*
X95760758Y-112942527D01*
X95875476Y-112810863D01*
X95951822Y-112745716D01*
X96045049Y-112681321D01*
X96147191Y-112621083D01*
X96252184Y-112567613D01*
X96353966Y-112523523D01*
X96446476Y-112491425D01*
X96523652Y-112473930D01*
X96579430Y-112473651D01*
X96581962Y-112474238D01*
X96627000Y-112474759D01*
X96655091Y-112464837D01*
X96696313Y-112454530D01*
X96717621Y-112462293D01*
X96728608Y-112472721D01*
X96715411Y-112480918D01*
X96673862Y-112488672D01*
X96648201Y-112492071D01*
X96547428Y-112510073D01*
X96444341Y-112537672D01*
X96351341Y-112571041D01*
X96283892Y-112604442D01*
X96226584Y-112639730D01*
X96301541Y-112720337D01*
X96416456Y-112852407D01*
X96531664Y-113000263D01*
X96640499Y-113154463D01*
X96736294Y-113305565D01*
X96811934Y-113443223D01*
X96868814Y-113544424D01*
X96928346Y-113618294D01*
X96998212Y-113671387D01*
X97086098Y-113710257D01*
X97146190Y-113728291D01*
X97281903Y-113747605D01*
X97414745Y-113733143D01*
X97542610Y-113685377D01*
X97649899Y-113615726D01*
X97724256Y-113547316D01*
X97771870Y-113477441D01*
X97799060Y-113395677D01*
X97805341Y-113359394D01*
X97823247Y-113265762D01*
X97851229Y-113158369D01*
X97886196Y-113046264D01*
X97925054Y-112938497D01*
X97964712Y-112844119D01*
X98002076Y-112772179D01*
X98010506Y-112759039D01*
X98101741Y-112645411D01*
X98155975Y-112595415D01*
X98268338Y-112595415D01*
X98281542Y-112611543D01*
X98317473Y-112641751D01*
X98370223Y-112681322D01*
X98417904Y-112714745D01*
X98544985Y-112808103D01*
X98690559Y-112927242D01*
X98852641Y-113070479D01*
X98998411Y-113206583D01*
X99063998Y-113266054D01*
X99113878Y-113305059D01*
X99146191Y-113322947D01*
X99159075Y-113319068D01*
X99150669Y-113292772D01*
X99124161Y-113250540D01*
X99077003Y-113156805D01*
X99049097Y-113037291D01*
X99040135Y-112890590D01*
X99040332Y-112870208D01*
X99035305Y-112785674D01*
X99019521Y-112696338D01*
X98995844Y-112613368D01*
X98967139Y-112547938D01*
X98951930Y-112525452D01*
X98926979Y-112508951D01*
X98879606Y-112487374D01*
X98821873Y-112466025D01*
X98695900Y-112436173D01*
X98580702Y-112436156D01*
X98468979Y-112466713D01*
X98382634Y-112510400D01*
X98328524Y-112544665D01*
X98288233Y-112574066D01*
X98269017Y-112593206D01*
X98268338Y-112595415D01*
X98155975Y-112595415D01*
X98208465Y-112547026D01*
X98324229Y-112468293D01*
G37*
%TD*%
%LPC*%
D11*
%TO.C,H5*%
X75000000Y-99250000D03*
%TD*%
%TO.C,H7*%
X53500000Y-70000000D03*
%TD*%
%TO.C,H3*%
X90750000Y-39000000D03*
%TD*%
%TO.C,H2*%
X116000000Y-99250000D03*
%TD*%
%TO.C,H6*%
X71000000Y-32000000D03*
%TD*%
%TO.C,H4*%
X33250000Y-46000000D03*
%TD*%
%TO.C,H1*%
X30500000Y-92750000D03*
%TD*%
%TO.C,H8*%
X90750000Y-77000000D03*
%TD*%
M02*
