%TF.GenerationSoftware,KiCad,Pcbnew,(5.99.0-12766-g4a3658027e)*%
%TF.CreationDate,2021-10-23T13:20:50+09:00*%
%TF.ProjectId,top,746f702e-6b69-4636-9164-5f7063625858,rev?*%
%TF.SameCoordinates,Original*%
%TF.FileFunction,Legend,Bot*%
%TF.FilePolarity,Positive*%
%FSLAX46Y46*%
G04 Gerber Fmt 4.6, Leading zero omitted, Abs format (unit mm)*
G04 Created by KiCad (PCBNEW (5.99.0-12766-g4a3658027e)) date 2021-10-23 13:20:50*
%MOMM*%
%LPD*%
G01*
G04 APERTURE LIST*
%ADD10C,5.700000*%
G04 APERTURE END LIST*
%TO.C,G\u002A\u002A\u002A*%
G36*
X94185997Y-105262014D02*
G01*
X94188676Y-105267166D01*
X94174578Y-105273432D01*
X94165511Y-105272196D01*
X94163160Y-105262014D01*
X94165670Y-105259964D01*
X94185997Y-105262014D01*
G37*
G36*
X94203645Y-112318953D02*
G01*
X94200166Y-112366309D01*
X94196660Y-112386061D01*
X94186626Y-112431684D01*
X94178031Y-112457552D01*
X94169219Y-112465307D01*
X94161513Y-112451819D01*
X94159679Y-112418202D01*
X94164944Y-112372440D01*
X94169249Y-112352523D01*
X94183479Y-112312880D01*
X94196514Y-112301417D01*
X94203645Y-112318953D01*
G37*
G36*
X91485051Y-102284693D02*
G01*
X91465844Y-102308530D01*
X91442751Y-102331532D01*
X91436788Y-102335746D01*
X91421342Y-102344377D01*
X91416925Y-102342684D01*
X91427266Y-102326568D01*
X91463642Y-102291961D01*
X91484171Y-102274286D01*
X91495517Y-102267798D01*
X91485051Y-102284693D01*
G37*
G36*
X92089124Y-113495103D02*
G01*
X92102158Y-113511733D01*
X92101660Y-113515827D01*
X92085030Y-113528861D01*
X92080936Y-113528363D01*
X92067903Y-113511733D01*
X92068400Y-113507639D01*
X92085030Y-113494606D01*
X92089124Y-113495103D01*
G37*
G36*
X87041699Y-113025716D02*
G01*
X87095362Y-113063621D01*
X87096681Y-113064668D01*
X87157452Y-113123053D01*
X87213401Y-113198772D01*
X87265708Y-113294634D01*
X87315553Y-113413445D01*
X87364118Y-113558014D01*
X87412584Y-113731147D01*
X87462132Y-113935653D01*
X87467035Y-113956829D01*
X87489390Y-114046988D01*
X87511742Y-114128214D01*
X87531736Y-114192312D01*
X87547017Y-114231086D01*
X87555185Y-114245358D01*
X87607264Y-114310132D01*
X87682029Y-114378502D01*
X87771455Y-114444919D01*
X87867518Y-114503838D01*
X87962194Y-114549713D01*
X88047458Y-114576996D01*
X88078337Y-114583155D01*
X88116530Y-114587300D01*
X88148513Y-114581261D01*
X88185803Y-114562021D01*
X88239919Y-114526562D01*
X88300440Y-114487612D01*
X88382293Y-114438055D01*
X88458294Y-114394858D01*
X88470036Y-114388409D01*
X88522798Y-114357160D01*
X88559892Y-114331436D01*
X88573904Y-114316276D01*
X88569930Y-114296910D01*
X88554858Y-114250846D01*
X88531774Y-114189161D01*
X88504127Y-114120638D01*
X88475366Y-114054055D01*
X88448941Y-113998194D01*
X88431855Y-113966654D01*
X88374126Y-113878219D01*
X88305700Y-113792247D01*
X88234706Y-113718383D01*
X88169272Y-113666274D01*
X88147860Y-113651990D01*
X88114022Y-113623676D01*
X88108228Y-113608692D01*
X88129737Y-113610096D01*
X88177812Y-113630946D01*
X88242678Y-113673483D01*
X88329030Y-113755637D01*
X88413836Y-113863587D01*
X88493576Y-113992718D01*
X88564734Y-114138416D01*
X88590852Y-114203572D01*
X88629257Y-114313219D01*
X88666335Y-114433125D01*
X88699094Y-114552834D01*
X88724540Y-114661888D01*
X88739682Y-114749831D01*
X88740667Y-114757407D01*
X88753512Y-114811187D01*
X88779724Y-114859961D01*
X88826080Y-114916823D01*
X88853118Y-114947587D01*
X88878528Y-114980756D01*
X88883258Y-114997314D01*
X88869643Y-115001821D01*
X88869069Y-115001818D01*
X88825886Y-114985197D01*
X88781291Y-114939479D01*
X88738248Y-114869468D01*
X88699717Y-114779971D01*
X88668662Y-114675791D01*
X88665934Y-114664566D01*
X88649483Y-114602879D01*
X88634547Y-114555757D01*
X88624066Y-114532640D01*
X88606797Y-114534483D01*
X88571675Y-114555764D01*
X88526383Y-114592586D01*
X88511339Y-114605592D01*
X88450071Y-114653302D01*
X88375958Y-114705657D01*
X88301819Y-114753473D01*
X88295761Y-114757156D01*
X88206459Y-114811642D01*
X88142021Y-114851887D01*
X88098258Y-114881199D01*
X88070976Y-114902885D01*
X88055983Y-114920254D01*
X88049088Y-114936614D01*
X88046098Y-114955274D01*
X88035030Y-114989711D01*
X88007234Y-115001821D01*
X87994759Y-115000950D01*
X87980882Y-114988814D01*
X87984807Y-114954720D01*
X87992818Y-114927859D01*
X88014912Y-114889774D01*
X88054041Y-114854441D01*
X88117567Y-114814064D01*
X88197915Y-114765423D01*
X88294388Y-114702105D01*
X88383431Y-114638579D01*
X88461982Y-114577510D01*
X88526980Y-114521566D01*
X88575364Y-114473413D01*
X88604074Y-114435717D01*
X88610048Y-114411144D01*
X88590225Y-114402360D01*
X88579125Y-114405276D01*
X88541037Y-114422102D01*
X88484947Y-114450525D01*
X88417978Y-114486661D01*
X88347253Y-114526629D01*
X88279893Y-114566546D01*
X88223020Y-114602530D01*
X88209811Y-114611081D01*
X88136687Y-114647774D01*
X88071517Y-114659272D01*
X88035493Y-114662063D01*
X87997602Y-114673314D01*
X87955752Y-114696307D01*
X87905030Y-114734312D01*
X87840524Y-114790599D01*
X87757323Y-114868437D01*
X87617277Y-115001821D01*
X86998179Y-115001821D01*
X86998601Y-113451787D01*
X87118282Y-113403339D01*
X87128786Y-113399010D01*
X87184172Y-113373324D01*
X87223170Y-113350426D01*
X87237899Y-113334829D01*
X87237841Y-113332867D01*
X87223985Y-113291696D01*
X87189557Y-113236740D01*
X87140009Y-113175599D01*
X87080794Y-113115871D01*
X87054019Y-113090472D01*
X87015432Y-113047067D01*
X87001004Y-113020059D01*
X87010003Y-113012069D01*
X87041699Y-113025716D01*
G37*
G36*
X95291250Y-104951484D02*
G01*
X95296888Y-104964390D01*
X95289183Y-104970939D01*
X95261623Y-104971122D01*
X95242820Y-104962037D01*
X95240885Y-104951814D01*
X95271746Y-104948011D01*
X95291250Y-104951484D01*
G37*
G36*
X96144235Y-101342684D02*
G01*
X96135671Y-101351248D01*
X96127107Y-101342684D01*
X96135671Y-101334120D01*
X96144235Y-101342684D01*
G37*
G36*
X88475891Y-111803294D02*
G01*
X88459596Y-111822885D01*
X88415597Y-111859985D01*
X88383558Y-111887740D01*
X88345814Y-111929348D01*
X88326823Y-111962749D01*
X88315883Y-111990010D01*
X88299539Y-112004518D01*
X88298201Y-112004511D01*
X88285362Y-112001042D01*
X88285719Y-111984766D01*
X88299224Y-111946259D01*
X88308349Y-111929547D01*
X88342173Y-111889749D01*
X88387431Y-111850943D01*
X88433915Y-111819381D01*
X88466619Y-111801898D01*
X88475891Y-111803294D01*
G37*
G36*
X88522522Y-111773298D02*
G01*
X88513958Y-111781861D01*
X88505394Y-111773298D01*
X88513958Y-111764734D01*
X88522522Y-111773298D01*
G37*
G36*
X91791894Y-114599332D02*
G01*
X91795666Y-114652263D01*
X91805630Y-114729080D01*
X91819257Y-114804862D01*
X91832088Y-114870520D01*
X91841318Y-114927441D01*
X91844949Y-114963284D01*
X91839384Y-114989603D01*
X91813037Y-115001821D01*
X91799279Y-114999084D01*
X91788724Y-114986184D01*
X91781384Y-114957090D01*
X91775802Y-114905788D01*
X91770522Y-114826264D01*
X91768411Y-114779954D01*
X91767382Y-114698816D01*
X91769672Y-114629115D01*
X91775071Y-114582198D01*
X91789924Y-114513689D01*
X91791894Y-114599332D01*
G37*
G36*
X92290315Y-113997873D02*
G01*
X92367686Y-114015439D01*
X92455127Y-114045583D01*
X92545180Y-114085940D01*
X92630386Y-114134141D01*
X92709949Y-114187944D01*
X92855673Y-114306238D01*
X92981767Y-114439648D01*
X93091829Y-114592859D01*
X93189457Y-114770553D01*
X93278251Y-114977415D01*
X93277925Y-114993948D01*
X93251162Y-115001821D01*
X93226641Y-114995201D01*
X93199616Y-114963284D01*
X93156760Y-114857033D01*
X93113054Y-114758019D01*
X93072545Y-114678224D01*
X93031746Y-114610320D01*
X93015036Y-114586241D01*
X92970281Y-114529078D01*
X92915723Y-114465840D01*
X92856624Y-114401946D01*
X92798249Y-114342818D01*
X92745861Y-114293873D01*
X92704721Y-114260531D01*
X92680095Y-114248213D01*
X92679758Y-114248218D01*
X92652674Y-114262730D01*
X92609059Y-114303609D01*
X92550927Y-114368492D01*
X92480290Y-114455013D01*
X92399162Y-114560807D01*
X92309555Y-114683510D01*
X92291565Y-114708678D01*
X92222890Y-114804503D01*
X92170438Y-114876604D01*
X92131200Y-114928372D01*
X92102168Y-114963197D01*
X92080335Y-114984470D01*
X92062691Y-114995580D01*
X92046228Y-114999918D01*
X92027937Y-115000873D01*
X91979408Y-115001821D01*
X92015191Y-114954720D01*
X92026321Y-114939837D01*
X92058411Y-114896266D01*
X92103632Y-114834429D01*
X92157647Y-114760262D01*
X92216118Y-114679704D01*
X92240233Y-114646781D01*
X92309728Y-114555047D01*
X92381109Y-114464656D01*
X92447232Y-114384538D01*
X92500955Y-114323623D01*
X92517170Y-114306231D01*
X92564955Y-114253872D01*
X92592904Y-114219452D01*
X92604077Y-114197594D01*
X92601536Y-114182916D01*
X92588342Y-114170040D01*
X92564314Y-114152662D01*
X92480136Y-114105122D01*
X92382207Y-114063958D01*
X92285533Y-114035820D01*
X92283896Y-114035471D01*
X92227271Y-114021377D01*
X92202903Y-114009984D01*
X92209017Y-114000471D01*
X92230476Y-113995251D01*
X92290315Y-113997873D01*
G37*
G36*
X96415616Y-111405843D02*
G01*
X96454348Y-111411970D01*
X96469656Y-111422185D01*
X96466119Y-111427303D01*
X96438547Y-111435910D01*
X96392582Y-111439312D01*
X96369549Y-111438526D01*
X96330817Y-111432399D01*
X96315509Y-111422185D01*
X96319046Y-111417066D01*
X96346618Y-111408459D01*
X96392582Y-111405057D01*
X96415616Y-111405843D01*
G37*
G36*
X97891234Y-101685233D02*
G01*
X97882670Y-101693796D01*
X97874106Y-101685233D01*
X97882670Y-101676669D01*
X97891234Y-101685233D01*
G37*
G36*
X96244933Y-105854241D02*
G01*
X96238049Y-105870979D01*
X96199899Y-105897351D01*
X96158293Y-105916468D01*
X96122699Y-105922315D01*
X96109980Y-105907148D01*
X96110147Y-105903286D01*
X96116452Y-105890020D01*
X96118944Y-105889512D01*
X96143977Y-105880601D01*
X96184961Y-105864099D01*
X96222732Y-105851988D01*
X96244933Y-105854241D01*
G37*
G36*
X92770128Y-103260958D02*
G01*
X92761564Y-103269521D01*
X92753001Y-103260958D01*
X92761564Y-103252394D01*
X92770128Y-103260958D01*
G37*
G36*
X97235481Y-108365666D02*
G01*
X97299673Y-108382605D01*
X97340890Y-108396876D01*
X97379594Y-108413796D01*
X97394538Y-108425518D01*
X97391107Y-108431668D01*
X97364127Y-108445248D01*
X97319979Y-108457306D01*
X97270335Y-108465625D01*
X97226869Y-108467993D01*
X97201254Y-108462192D01*
X97177480Y-108454843D01*
X97125258Y-108456091D01*
X97043188Y-108467409D01*
X97016496Y-108471368D01*
X96938018Y-108480199D01*
X96839788Y-108488659D01*
X96731739Y-108495947D01*
X96623803Y-108501261D01*
X96546234Y-108505225D01*
X96436887Y-108512851D01*
X96314473Y-108523041D01*
X96184894Y-108535159D01*
X96054056Y-108548570D01*
X95927861Y-108562638D01*
X95812214Y-108576730D01*
X95713017Y-108590208D01*
X95636176Y-108602437D01*
X95587593Y-108612783D01*
X95563804Y-108618457D01*
X95511549Y-108626027D01*
X95461005Y-108628591D01*
X95422851Y-108625865D01*
X95407768Y-108617566D01*
X95411575Y-108614551D01*
X95442201Y-108604734D01*
X95499494Y-108590906D01*
X95578616Y-108573987D01*
X95674724Y-108554898D01*
X95782980Y-108534559D01*
X95898541Y-108513891D01*
X96016568Y-108493816D01*
X96132221Y-108475254D01*
X96240659Y-108459125D01*
X96322203Y-108448871D01*
X96453172Y-108436361D01*
X96583090Y-108427956D01*
X96695672Y-108424882D01*
X96798457Y-108423276D01*
X96946867Y-108413852D01*
X97067839Y-108396296D01*
X97158372Y-108370958D01*
X97190177Y-108362995D01*
X97235481Y-108365666D01*
G37*
G36*
X96859481Y-107524264D02*
G01*
X96906737Y-107542074D01*
X96928605Y-107571592D01*
X96929321Y-107577658D01*
X96924062Y-107588715D01*
X96903575Y-107593940D01*
X96861568Y-107594196D01*
X96791752Y-107590345D01*
X96768860Y-107588761D01*
X96706429Y-107583474D01*
X96661101Y-107578188D01*
X96641426Y-107573841D01*
X96639680Y-107565864D01*
X96659916Y-107550830D01*
X96702207Y-107535789D01*
X96759255Y-107523839D01*
X96794335Y-107520276D01*
X96859481Y-107524264D01*
G37*
G36*
X93934333Y-110953704D02*
G01*
X93927700Y-110971763D01*
X93901958Y-111011405D01*
X93862118Y-111063328D01*
X93813865Y-111120813D01*
X93762887Y-111177144D01*
X93714869Y-111225604D01*
X93675497Y-111259474D01*
X93660518Y-111270713D01*
X93619566Y-111301933D01*
X93561680Y-111346342D01*
X93492917Y-111399274D01*
X93419338Y-111456063D01*
X93347001Y-111512043D01*
X93281966Y-111562547D01*
X93246685Y-111588198D01*
X93172983Y-111636176D01*
X93088151Y-111686614D01*
X93004366Y-111732075D01*
X92951442Y-111759746D01*
X92710411Y-111902669D01*
X92493481Y-112060323D01*
X92305228Y-112229452D01*
X92295906Y-112238871D01*
X92230649Y-112305978D01*
X92170978Y-112369201D01*
X92123155Y-112421809D01*
X92093441Y-112457073D01*
X92082767Y-112472575D01*
X92047565Y-112549802D01*
X92020595Y-112653177D01*
X92003103Y-112776818D01*
X91996337Y-112914847D01*
X91996303Y-112957949D01*
X91999059Y-113021612D01*
X92008101Y-113071874D01*
X92026493Y-113122412D01*
X92057300Y-113186905D01*
X92092481Y-113264380D01*
X92113150Y-113332257D01*
X92119285Y-113395153D01*
X92118540Y-113422982D01*
X92112425Y-113460883D01*
X92102176Y-113466451D01*
X92090261Y-113440406D01*
X92079148Y-113383465D01*
X92078015Y-113376514D01*
X92061950Y-113320106D01*
X92034079Y-113250199D01*
X91999682Y-113180289D01*
X91984444Y-113152214D01*
X91955529Y-113093637D01*
X91939445Y-113045692D01*
X91932546Y-112994940D01*
X91931181Y-112927939D01*
X91931692Y-112895736D01*
X91947168Y-112737504D01*
X91982782Y-112592952D01*
X92036642Y-112470289D01*
X92074925Y-112412287D01*
X92141347Y-112328769D01*
X92222261Y-112238962D01*
X92310366Y-112150492D01*
X92398366Y-112070986D01*
X92478961Y-112008070D01*
X92545051Y-111961378D01*
X92620395Y-111907348D01*
X92684491Y-111860623D01*
X92722409Y-111834848D01*
X92793513Y-111791745D01*
X92876498Y-111745539D01*
X92960190Y-111702630D01*
X92982078Y-111691700D01*
X93095563Y-111628469D01*
X93215596Y-111552521D01*
X93327373Y-111473109D01*
X93332045Y-111469562D01*
X93410316Y-111411016D01*
X93487518Y-111354710D01*
X93554981Y-111306889D01*
X93604033Y-111273800D01*
X93646259Y-111243576D01*
X93681481Y-111210931D01*
X93695010Y-111187661D01*
X93695364Y-111183172D01*
X93706316Y-111149469D01*
X93728083Y-111104826D01*
X93754545Y-111059829D01*
X93779581Y-111025066D01*
X93797069Y-111011126D01*
X93803367Y-111012715D01*
X93820817Y-111032536D01*
X93824571Y-111036943D01*
X93845878Y-111029347D01*
X93881730Y-110993999D01*
X93899488Y-110974791D01*
X93924368Y-110953474D01*
X93934333Y-110953704D01*
G37*
G36*
X88189175Y-114941799D02*
G01*
X88232693Y-114956540D01*
X88270977Y-114977872D01*
X88308429Y-115005728D01*
X88265610Y-114993609D01*
X88229037Y-114984209D01*
X88175691Y-114972584D01*
X88143335Y-114961703D01*
X88128591Y-114946354D01*
X88130099Y-114941757D01*
X88151339Y-114936067D01*
X88189175Y-114941799D01*
G37*
G36*
X96645024Y-110600565D02*
G01*
X96658058Y-110617195D01*
X96657560Y-110621289D01*
X96640930Y-110634322D01*
X96636837Y-110633825D01*
X96623803Y-110617195D01*
X96624301Y-110613101D01*
X96640930Y-110600068D01*
X96645024Y-110600565D01*
G37*
G36*
X96676867Y-108759315D02*
G01*
X96704707Y-108765123D01*
X96708192Y-108767266D01*
X96711252Y-108776864D01*
X96686829Y-108784939D01*
X96631545Y-108792768D01*
X96585510Y-108798375D01*
X96537722Y-108805220D01*
X96512475Y-108810203D01*
X96505184Y-108811789D01*
X96472537Y-108808893D01*
X96450440Y-108804559D01*
X96408309Y-108801686D01*
X96381520Y-108798182D01*
X96366891Y-108787016D01*
X96368305Y-108784460D01*
X96392255Y-108776000D01*
X96439016Y-108768481D01*
X96499723Y-108762479D01*
X96565510Y-108758567D01*
X96627513Y-108757321D01*
X96676867Y-108759315D01*
G37*
G36*
X98192792Y-105675927D02*
G01*
X98177827Y-105717020D01*
X98131294Y-105772571D01*
X98060292Y-105804371D01*
X98029903Y-105809628D01*
X97967130Y-105815559D01*
X97899798Y-105817771D01*
X97853995Y-105816700D01*
X97828318Y-105813924D01*
X97831288Y-105810077D01*
X97854038Y-105804117D01*
X97899798Y-105788259D01*
X97908801Y-105784735D01*
X97953357Y-105769817D01*
X98007128Y-105754114D01*
X98025031Y-105748306D01*
X98087345Y-105718221D01*
X98142773Y-105679437D01*
X98205343Y-105624545D01*
X98192792Y-105675927D01*
G37*
G36*
X92078203Y-113992090D02*
G01*
X92093594Y-114008429D01*
X92096270Y-114015064D01*
X92086041Y-114025556D01*
X92081070Y-114024898D01*
X92067903Y-114008429D01*
X92068099Y-114004553D01*
X92075456Y-113991302D01*
X92078203Y-113992090D01*
G37*
G36*
X100113813Y-105004968D02*
G01*
X100108150Y-105205996D01*
X100093028Y-105400738D01*
X100067450Y-105598644D01*
X100030423Y-105809162D01*
X99980951Y-106041740D01*
X99976229Y-106062150D01*
X99951271Y-106162127D01*
X99919909Y-106278260D01*
X99883691Y-106405629D01*
X99844162Y-106539316D01*
X99802868Y-106674400D01*
X99761356Y-106805964D01*
X99721172Y-106929089D01*
X99683863Y-107038854D01*
X99650975Y-107130342D01*
X99624054Y-107198632D01*
X99604647Y-107238807D01*
X99595016Y-107253197D01*
X99569859Y-107281918D01*
X99549782Y-107295375D01*
X99541148Y-107290563D01*
X99550316Y-107264476D01*
X99553665Y-107257581D01*
X99570893Y-107210276D01*
X99592487Y-107137405D01*
X99616889Y-107045487D01*
X99642538Y-106941041D01*
X99667876Y-106830587D01*
X99691342Y-106720645D01*
X99711376Y-106617733D01*
X99726419Y-106528372D01*
X99728534Y-106514072D01*
X99740244Y-106425956D01*
X99748968Y-106339286D01*
X99755085Y-106246924D01*
X99758971Y-106141736D01*
X99761004Y-106016583D01*
X99761563Y-105864329D01*
X99761216Y-105757484D01*
X99759445Y-105616132D01*
X99756219Y-105506797D01*
X99751590Y-105429797D01*
X99745609Y-105385448D01*
X99738328Y-105374068D01*
X99729799Y-105395973D01*
X99720071Y-105451482D01*
X99709198Y-105540911D01*
X99694154Y-105658998D01*
X99662274Y-105850952D01*
X99620142Y-106061065D01*
X99569694Y-106281472D01*
X99512866Y-106504305D01*
X99451592Y-106721697D01*
X99387808Y-106925783D01*
X99323451Y-107108696D01*
X99288755Y-107200297D01*
X99207304Y-107411436D01*
X99133814Y-107595325D01*
X99066528Y-107755828D01*
X99003688Y-107896807D01*
X98943536Y-108022122D01*
X98884312Y-108135637D01*
X98824259Y-108241213D01*
X98761619Y-108342712D01*
X98696527Y-108444197D01*
X98619605Y-108563453D01*
X98557906Y-108657985D01*
X98509679Y-108730292D01*
X98473175Y-108782875D01*
X98446644Y-108818234D01*
X98428334Y-108838871D01*
X98416497Y-108847285D01*
X98409383Y-108845976D01*
X98409021Y-108841477D01*
X98418392Y-108812715D01*
X98439526Y-108764364D01*
X98469305Y-108703825D01*
X98498581Y-108643939D01*
X98540312Y-108552015D01*
X98586209Y-108445619D01*
X98633188Y-108332346D01*
X98678165Y-108219795D01*
X98718056Y-108115562D01*
X98749778Y-108027245D01*
X98770246Y-107962441D01*
X98779211Y-107927647D01*
X98795605Y-107854415D01*
X98806884Y-107791568D01*
X98817762Y-107714896D01*
X98718456Y-107872460D01*
X98624759Y-108016228D01*
X98514588Y-108175785D01*
X98396732Y-108338294D01*
X98274420Y-108499753D01*
X98150884Y-108656165D01*
X98029355Y-108803530D01*
X97913062Y-108937847D01*
X97805237Y-109055118D01*
X97709111Y-109151343D01*
X97627914Y-109222522D01*
X97585052Y-109255852D01*
X97532280Y-109295372D01*
X97493682Y-109322419D01*
X97475508Y-109332482D01*
X97475499Y-109327383D01*
X97489577Y-109300280D01*
X97517884Y-109255068D01*
X97556828Y-109197702D01*
X97562188Y-109189987D01*
X97629944Y-109082163D01*
X97699345Y-108954621D01*
X97768291Y-108812840D01*
X97834680Y-108662296D01*
X97896409Y-108508469D01*
X97951379Y-108356836D01*
X97997487Y-108212876D01*
X98032631Y-108082065D01*
X98054712Y-107969883D01*
X98061626Y-107881808D01*
X98061223Y-107867461D01*
X98058320Y-107851307D01*
X98049885Y-107862168D01*
X98032466Y-107902495D01*
X98020104Y-107930778D01*
X97988376Y-107998131D01*
X97945695Y-108084960D01*
X97895454Y-108184629D01*
X97841042Y-108290506D01*
X97785851Y-108395954D01*
X97733272Y-108494340D01*
X97686695Y-108579029D01*
X97663555Y-108620259D01*
X97614726Y-108707259D01*
X97567402Y-108791577D01*
X97529212Y-108859617D01*
X97521480Y-108873485D01*
X97491761Y-108928750D01*
X97470912Y-108970690D01*
X97463048Y-108991127D01*
X97455201Y-109011316D01*
X97434181Y-109052122D01*
X97404604Y-109104471D01*
X97390897Y-109128172D01*
X97369767Y-109168962D01*
X97356159Y-109207211D01*
X97348062Y-109252117D01*
X97343471Y-109312878D01*
X97340376Y-109398692D01*
X97334592Y-109593202D01*
X97391003Y-109614152D01*
X97450901Y-109636397D01*
X97482864Y-109648716D01*
X97538011Y-109674949D01*
X97576830Y-109705640D01*
X97602288Y-109746743D01*
X97617352Y-109804209D01*
X97624990Y-109883991D01*
X97628168Y-109992043D01*
X97629974Y-110069361D01*
X97635237Y-110159417D01*
X97645210Y-110227741D01*
X97661696Y-110281767D01*
X97686497Y-110328928D01*
X97721415Y-110376659D01*
X97755504Y-110414856D01*
X97791471Y-110439304D01*
X97831599Y-110445921D01*
X97834120Y-110445930D01*
X97885092Y-110450659D01*
X97938882Y-110465895D01*
X98001490Y-110494341D01*
X98078913Y-110538700D01*
X98144979Y-110581053D01*
X98177149Y-110601676D01*
X98193732Y-110612504D01*
X98280738Y-110666488D01*
X98384262Y-110727307D01*
X98492734Y-110788282D01*
X98594587Y-110842733D01*
X98693495Y-110895408D01*
X98780345Y-110946065D01*
X98837764Y-110985921D01*
X98867099Y-111015833D01*
X98868546Y-111018042D01*
X98906432Y-111054033D01*
X98974696Y-111097640D01*
X99070742Y-111147934D01*
X99191973Y-111203991D01*
X99335793Y-111264882D01*
X99499605Y-111329683D01*
X99680814Y-111397465D01*
X99876822Y-111467303D01*
X100085034Y-111538270D01*
X100302853Y-111609439D01*
X100527682Y-111679884D01*
X100756926Y-111748678D01*
X100987987Y-111814895D01*
X101218270Y-111877608D01*
X101445179Y-111935890D01*
X101489113Y-111947054D01*
X101600384Y-111976779D01*
X101716239Y-112009298D01*
X101817700Y-112039339D01*
X102001820Y-112095966D01*
X102001820Y-115001821D01*
X98574234Y-115001821D01*
X98169674Y-115001786D01*
X97785499Y-115001672D01*
X97433230Y-115001472D01*
X97111673Y-115001178D01*
X96819637Y-115000782D01*
X96555929Y-115000278D01*
X96319358Y-114999657D01*
X96108731Y-114998913D01*
X95922856Y-114998037D01*
X95760540Y-114997023D01*
X95620592Y-114995862D01*
X95501819Y-114994547D01*
X95403029Y-114993071D01*
X95323029Y-114991427D01*
X95260628Y-114989606D01*
X95214632Y-114987602D01*
X95183851Y-114985406D01*
X95167092Y-114983012D01*
X95163161Y-114980411D01*
X95219557Y-114908127D01*
X95293022Y-114815573D01*
X95373818Y-114715072D01*
X95457862Y-114611599D01*
X95541073Y-114510129D01*
X95619369Y-114415636D01*
X95688670Y-114333094D01*
X95744894Y-114267478D01*
X95783959Y-114223762D01*
X95838292Y-114165076D01*
X95880332Y-114116270D01*
X95912967Y-114071384D01*
X95940301Y-114023155D01*
X95966442Y-113964319D01*
X95995496Y-113887613D01*
X96031569Y-113785772D01*
X96072519Y-113671036D01*
X96164312Y-113426285D01*
X96262254Y-113179929D01*
X96362734Y-112940680D01*
X96462143Y-112717248D01*
X96556870Y-112518341D01*
X96576722Y-112478181D01*
X96623158Y-112382927D01*
X96662917Y-112299518D01*
X96693816Y-112232639D01*
X96713674Y-112186980D01*
X96720309Y-112167229D01*
X96719061Y-112164058D01*
X96695941Y-112155986D01*
X96643135Y-112156673D01*
X96559518Y-112166191D01*
X96443965Y-112184608D01*
X96425482Y-112187591D01*
X96346777Y-112197738D01*
X96243626Y-112208415D01*
X96123478Y-112219036D01*
X95993779Y-112229018D01*
X95861976Y-112237772D01*
X95735516Y-112244715D01*
X95621847Y-112249261D01*
X95501955Y-112252866D01*
X95491027Y-112509778D01*
X95489595Y-112538687D01*
X95481129Y-112654917D01*
X95467993Y-112791420D01*
X95451323Y-112939120D01*
X95432256Y-113088940D01*
X95411927Y-113231803D01*
X95391474Y-113358632D01*
X95372032Y-113460351D01*
X95320035Y-113687821D01*
X95195236Y-114152348D01*
X95049774Y-114600182D01*
X95048139Y-114604787D01*
X95004458Y-114727772D01*
X94970598Y-114822365D01*
X94944847Y-114892283D01*
X94925490Y-114941244D01*
X94910813Y-114972966D01*
X94899102Y-114991167D01*
X94888645Y-114999564D01*
X94877726Y-115001876D01*
X94864632Y-115001821D01*
X94825716Y-115001821D01*
X94869927Y-114886211D01*
X94877303Y-114866709D01*
X94902525Y-114798460D01*
X94934388Y-114710724D01*
X94969556Y-114612726D01*
X95004691Y-114513689D01*
X95021392Y-114466004D01*
X95046832Y-114391834D01*
X95071802Y-114316647D01*
X95097713Y-114235884D01*
X95125976Y-114144984D01*
X95158001Y-114039387D01*
X95195198Y-113914531D01*
X95238978Y-113765858D01*
X95290752Y-113588807D01*
X95294428Y-113575311D01*
X95309290Y-113506186D01*
X95324565Y-113415797D01*
X95338650Y-113314338D01*
X95349945Y-113212003D01*
X95352202Y-113188226D01*
X95362546Y-113082716D01*
X95373209Y-112978674D01*
X95383057Y-112886981D01*
X95390956Y-112818521D01*
X95394163Y-112787086D01*
X95399549Y-112707457D01*
X95403868Y-112608375D01*
X95406743Y-112499461D01*
X95407796Y-112390335D01*
X95413120Y-112107918D01*
X95413774Y-112096934D01*
X95480851Y-112096934D01*
X95483975Y-112135672D01*
X95488369Y-112150172D01*
X95497594Y-112162393D01*
X95516798Y-112169734D01*
X95552050Y-112173277D01*
X95609416Y-112174106D01*
X95694965Y-112173301D01*
X95747768Y-112172434D01*
X95862747Y-112168949D01*
X95983716Y-112162909D01*
X96117671Y-112153866D01*
X96271609Y-112141376D01*
X96452529Y-112124991D01*
X96539002Y-112116855D01*
X96628832Y-112107872D01*
X96693600Y-112099772D01*
X96738473Y-112091120D01*
X96768620Y-112080481D01*
X96789208Y-112066419D01*
X96805404Y-112047500D01*
X96822376Y-112022288D01*
X96834508Y-112003172D01*
X96858662Y-111959392D01*
X96870052Y-111929743D01*
X96877830Y-111907746D01*
X96901055Y-111872602D01*
X96914102Y-111855186D01*
X96942001Y-111810168D01*
X96971173Y-111756170D01*
X96982200Y-111734714D01*
X97016052Y-111671595D01*
X97057708Y-111596384D01*
X97100577Y-111521057D01*
X97125601Y-111476559D01*
X97154584Y-111420890D01*
X97172142Y-111381526D01*
X97175158Y-111364990D01*
X97162114Y-111364075D01*
X97120631Y-111366452D01*
X97058551Y-111372335D01*
X96983479Y-111381084D01*
X96936761Y-111386902D01*
X96848984Y-111397076D01*
X96788616Y-111402470D01*
X96751118Y-111403274D01*
X96731948Y-111399678D01*
X96726568Y-111391874D01*
X96728829Y-111389763D01*
X96755832Y-111381639D01*
X96808549Y-111370912D01*
X96880927Y-111358733D01*
X96966914Y-111346250D01*
X96995946Y-111342221D01*
X97081714Y-111328979D01*
X97154166Y-111315842D01*
X97206405Y-111304141D01*
X97231533Y-111295206D01*
X97232702Y-111294214D01*
X97252141Y-111270215D01*
X97284391Y-111223703D01*
X97325245Y-111160943D01*
X97370500Y-111088200D01*
X97422738Y-111005812D01*
X97486718Y-110911683D01*
X97552189Y-110821216D01*
X97614345Y-110740823D01*
X97668380Y-110676915D01*
X97709490Y-110635904D01*
X97723617Y-110621150D01*
X97735277Y-110581053D01*
X97718165Y-110529602D01*
X97671698Y-110464150D01*
X97643628Y-110428945D01*
X97611102Y-110383339D01*
X97593130Y-110351720D01*
X97591202Y-110344324D01*
X97586090Y-110304244D01*
X97581230Y-110239765D01*
X97577094Y-110158006D01*
X97574157Y-110066090D01*
X97573243Y-110033009D01*
X97569163Y-109942679D01*
X97563416Y-109865596D01*
X97556607Y-109808761D01*
X97549342Y-109779178D01*
X97528668Y-109752551D01*
X97475430Y-109719308D01*
X97409867Y-109704161D01*
X97344493Y-109711259D01*
X97317766Y-109720397D01*
X97227577Y-109756314D01*
X97117083Y-109805983D01*
X96992808Y-109866391D01*
X96861275Y-109934523D01*
X96857641Y-109936393D01*
X96807185Y-109956243D01*
X96738132Y-109976671D01*
X96664310Y-109993535D01*
X96661146Y-109994142D01*
X96582392Y-110010243D01*
X96504525Y-110027703D01*
X96443965Y-110042846D01*
X96433871Y-110045433D01*
X96369900Y-110057632D01*
X96289778Y-110068337D01*
X96208427Y-110075481D01*
X96181184Y-110077336D01*
X96113692Y-110083721D01*
X96061324Y-110091200D01*
X96033631Y-110098514D01*
X96017875Y-110111041D01*
X95982218Y-110150200D01*
X95938755Y-110205721D01*
X95893240Y-110269424D01*
X95851428Y-110333131D01*
X95819074Y-110388661D01*
X95801932Y-110427835D01*
X95796165Y-110448787D01*
X95778503Y-110510480D01*
X95759534Y-110574376D01*
X95751025Y-110604624D01*
X95738407Y-110660587D01*
X95733361Y-110700563D01*
X95733957Y-110717256D01*
X95740448Y-110730327D01*
X95759904Y-110735696D01*
X95799376Y-110734899D01*
X95865914Y-110729474D01*
X95888809Y-110727405D01*
X96000606Y-110715344D01*
X96116282Y-110699228D01*
X96245605Y-110677579D01*
X96398345Y-110648921D01*
X96454791Y-110638540D01*
X96519439Y-110628413D01*
X96565426Y-110623370D01*
X96585320Y-110624385D01*
X96586307Y-110625439D01*
X96588121Y-110639729D01*
X96585383Y-110641168D01*
X96555721Y-110650229D01*
X96500691Y-110663816D01*
X96426891Y-110680537D01*
X96340917Y-110698999D01*
X96249365Y-110717808D01*
X96158833Y-110735572D01*
X96075917Y-110750897D01*
X96007215Y-110762391D01*
X95953970Y-110770564D01*
X95876069Y-110782531D01*
X95811659Y-110792437D01*
X95770924Y-110798715D01*
X95756553Y-110801152D01*
X95735046Y-110807629D01*
X95717529Y-110820596D01*
X95702027Y-110844530D01*
X95686568Y-110883904D01*
X95669179Y-110943196D01*
X95647886Y-111026881D01*
X95620718Y-111139433D01*
X95609074Y-111187242D01*
X95587300Y-111272386D01*
X95567897Y-111342990D01*
X95552628Y-111392772D01*
X95543257Y-111415450D01*
X95537961Y-111427171D01*
X95528743Y-111468073D01*
X95519837Y-111527926D01*
X95512043Y-111597926D01*
X95506162Y-111669268D01*
X95502994Y-111733150D01*
X95503339Y-111780768D01*
X95507998Y-111803319D01*
X95518596Y-111808645D01*
X95558475Y-111820127D01*
X95619381Y-111833810D01*
X95693296Y-111848248D01*
X95772205Y-111861994D01*
X95848091Y-111873603D01*
X95912940Y-111881629D01*
X95958734Y-111884626D01*
X95968962Y-111884832D01*
X96008913Y-111891197D01*
X96024342Y-111904359D01*
X96023272Y-111907458D01*
X96005955Y-111914252D01*
X95964818Y-111917231D01*
X95896441Y-111916516D01*
X95797404Y-111912224D01*
X95782905Y-111911462D01*
X95696629Y-111906776D01*
X95621778Y-111902466D01*
X95565948Y-111898982D01*
X95536734Y-111896773D01*
X95524772Y-111896820D01*
X95509176Y-111907311D01*
X95498271Y-111937401D01*
X95488454Y-111994371D01*
X95483392Y-112039259D01*
X95480851Y-112096934D01*
X95413774Y-112096934D01*
X95431516Y-111798841D01*
X95462484Y-111504814D01*
X95505436Y-111230248D01*
X95559787Y-110979554D01*
X95624951Y-110757143D01*
X95629617Y-110743222D01*
X95647468Y-110684996D01*
X95657968Y-110642076D01*
X95658972Y-110622919D01*
X95657171Y-110621640D01*
X95640714Y-110632010D01*
X95616241Y-110672551D01*
X95584705Y-110740799D01*
X95547056Y-110834292D01*
X95504245Y-110950570D01*
X95457223Y-111087169D01*
X95406941Y-111241628D01*
X95354351Y-111411484D01*
X95334285Y-111477232D01*
X95308239Y-111560570D01*
X95286431Y-111628021D01*
X95270699Y-111673934D01*
X95262881Y-111692659D01*
X95258471Y-111696517D01*
X95245992Y-111694230D01*
X95244052Y-111662878D01*
X95252094Y-111605146D01*
X95269559Y-111523715D01*
X95295887Y-111421269D01*
X95330522Y-111300491D01*
X95372904Y-111164064D01*
X95399526Y-111081933D01*
X95451597Y-110927432D01*
X95499179Y-110797812D01*
X95545147Y-110687448D01*
X95592376Y-110590713D01*
X95643738Y-110501981D01*
X95702110Y-110415627D01*
X95770364Y-110326023D01*
X95851376Y-110227546D01*
X95878362Y-110195333D01*
X95917387Y-110147854D01*
X95943348Y-110115044D01*
X95951668Y-110102605D01*
X95950155Y-110102487D01*
X95924748Y-110101279D01*
X95873141Y-110099082D01*
X95801739Y-110096163D01*
X95716948Y-110092791D01*
X95711790Y-110092588D01*
X95613521Y-110087991D01*
X95538134Y-110081590D01*
X95474770Y-110071016D01*
X95412567Y-110053901D01*
X95340665Y-110027875D01*
X95248205Y-109990572D01*
X95229456Y-109982888D01*
X95179405Y-109963697D01*
X95139207Y-109953204D01*
X95097906Y-109950337D01*
X95044547Y-109954027D01*
X94968174Y-109963202D01*
X94804875Y-109983827D01*
X94761212Y-110023666D01*
X94674326Y-110102942D01*
X94658857Y-110116884D01*
X94574929Y-110184388D01*
X94499337Y-110227672D01*
X94423426Y-110250721D01*
X94338543Y-110257519D01*
X94310694Y-110262564D01*
X94277343Y-110283210D01*
X94276148Y-110284589D01*
X94251527Y-110301026D01*
X94222720Y-110308496D01*
X94201713Y-110305719D01*
X94200491Y-110291415D01*
X94201118Y-110286266D01*
X94183890Y-110267902D01*
X94145838Y-110248437D01*
X94122967Y-110239001D01*
X94060877Y-110210561D01*
X93999248Y-110179425D01*
X93976381Y-110167728D01*
X93934776Y-110151081D01*
X93888463Y-110140857D01*
X93827597Y-110135257D01*
X93742336Y-110132484D01*
X93566554Y-110129063D01*
X93361025Y-110272131D01*
X93359211Y-110273394D01*
X93267090Y-110338905D01*
X93168045Y-110411517D01*
X93073853Y-110482484D01*
X92996291Y-110543057D01*
X92933504Y-110591820D01*
X92878597Y-110631322D01*
X92838213Y-110656935D01*
X92818246Y-110664635D01*
X92817931Y-110664495D01*
X92824469Y-110651336D01*
X92852376Y-110621737D01*
X92896397Y-110580271D01*
X92951274Y-110531510D01*
X93011751Y-110480027D01*
X93072571Y-110430396D01*
X93128478Y-110387188D01*
X93174214Y-110354977D01*
X93186692Y-110346649D01*
X93219215Y-110321924D01*
X93232357Y-110306760D01*
X93232248Y-110306013D01*
X93215264Y-110295514D01*
X93178075Y-110285157D01*
X93142031Y-110270348D01*
X93082594Y-110229089D01*
X93010619Y-110165203D01*
X92981775Y-110137964D01*
X92918513Y-110084910D01*
X92861596Y-110049730D01*
X92800787Y-110025611D01*
X92786360Y-110020834D01*
X92763650Y-110012804D01*
X92744035Y-110006957D01*
X92724006Y-110004299D01*
X92700055Y-110005838D01*
X92668672Y-110012579D01*
X92626350Y-110025529D01*
X92569580Y-110045695D01*
X92494853Y-110074082D01*
X92398662Y-110111697D01*
X92277496Y-110159546D01*
X92127849Y-110218636D01*
X92051074Y-110248824D01*
X91909234Y-110304087D01*
X91795339Y-110347584D01*
X91706857Y-110380206D01*
X91641259Y-110402842D01*
X91596013Y-110416384D01*
X91568589Y-110421723D01*
X91556455Y-110419750D01*
X91551585Y-110417848D01*
X91529964Y-110426576D01*
X91520093Y-110431636D01*
X91481279Y-110442721D01*
X91428867Y-110451933D01*
X91402970Y-110456245D01*
X91353452Y-110469877D01*
X91323425Y-110485726D01*
X91319850Y-110488436D01*
X91287776Y-110503335D01*
X91231221Y-110524056D01*
X91156977Y-110548231D01*
X91071834Y-110573490D01*
X91033183Y-110584803D01*
X90944102Y-110612291D01*
X90832529Y-110647932D01*
X90704681Y-110689646D01*
X90566779Y-110735351D01*
X90425040Y-110782966D01*
X90285684Y-110830410D01*
X90154930Y-110875601D01*
X90038995Y-110916458D01*
X89944100Y-110950901D01*
X89911685Y-110958686D01*
X89842778Y-110967145D01*
X89747152Y-110973864D01*
X89629021Y-110978852D01*
X89492599Y-110982118D01*
X89342102Y-110983671D01*
X89181742Y-110983519D01*
X89015735Y-110981672D01*
X88848294Y-110978138D01*
X88683634Y-110972927D01*
X88525969Y-110966047D01*
X88379514Y-110957507D01*
X88248483Y-110947316D01*
X88120027Y-110935712D01*
X88248483Y-110923558D01*
X88292178Y-110920816D01*
X88372755Y-110918739D01*
X88472295Y-110918355D01*
X88582181Y-110919679D01*
X88693796Y-110922729D01*
X88745189Y-110924370D01*
X88869209Y-110927314D01*
X89012892Y-110929689D01*
X89166500Y-110931375D01*
X89320293Y-110932251D01*
X89464531Y-110932199D01*
X89918408Y-110930345D01*
X90068990Y-110867273D01*
X90094181Y-110856831D01*
X90176396Y-110823936D01*
X90255501Y-110793784D01*
X90317338Y-110771818D01*
X90365092Y-110755901D01*
X90440662Y-110730547D01*
X90528372Y-110701003D01*
X90617408Y-110670903D01*
X90687087Y-110647811D01*
X90793844Y-110613851D01*
X90898377Y-110581982D01*
X90985648Y-110556863D01*
X91025865Y-110545648D01*
X91104519Y-110522746D01*
X91172808Y-110501687D01*
X91219355Y-110485923D01*
X91229771Y-110482148D01*
X91285142Y-110463955D01*
X91357318Y-110442072D01*
X91433448Y-110420429D01*
X91440359Y-110418524D01*
X91532917Y-110391398D01*
X91634862Y-110359268D01*
X91725354Y-110328686D01*
X91766418Y-110314090D01*
X91822712Y-110291748D01*
X91854118Y-110270371D01*
X91865297Y-110242576D01*
X91860912Y-110200976D01*
X91845625Y-110138186D01*
X91841203Y-110118212D01*
X91834367Y-110062511D01*
X91834947Y-110051428D01*
X91919206Y-110051428D01*
X91926468Y-110144766D01*
X91932025Y-110174212D01*
X91944317Y-110215638D01*
X91956582Y-110234114D01*
X91958573Y-110234449D01*
X91986453Y-110228778D01*
X92033414Y-110212063D01*
X92090939Y-110188169D01*
X92150509Y-110160962D01*
X92203605Y-110134306D01*
X92241710Y-110112068D01*
X92256305Y-110098112D01*
X92256250Y-110097082D01*
X92244296Y-110071780D01*
X92217768Y-110037710D01*
X92179231Y-109995532D01*
X92217751Y-110005025D01*
X92244353Y-110006619D01*
X92268857Y-109994717D01*
X92271209Y-109989362D01*
X92276127Y-109953776D01*
X92276471Y-109901578D01*
X92272924Y-109845473D01*
X92266170Y-109798163D01*
X92256892Y-109772355D01*
X92239492Y-109771281D01*
X92199580Y-109784057D01*
X92146105Y-109807960D01*
X92087177Y-109838987D01*
X92030905Y-109873134D01*
X91985400Y-109906397D01*
X91964915Y-109925974D01*
X91931478Y-109980697D01*
X91919206Y-110051428D01*
X91834947Y-110051428D01*
X91836554Y-110020711D01*
X91844188Y-110001367D01*
X91878105Y-109951041D01*
X91931184Y-109891677D01*
X91996929Y-109829637D01*
X92068844Y-109771288D01*
X92140432Y-109722993D01*
X92154628Y-109714477D01*
X92206366Y-109681874D01*
X92242633Y-109656501D01*
X92256305Y-109643261D01*
X92254441Y-109629258D01*
X92247477Y-109585794D01*
X92236263Y-109518622D01*
X92221759Y-109433285D01*
X92204927Y-109335329D01*
X92187423Y-109234303D01*
X92266687Y-109234303D01*
X92304015Y-109510408D01*
X92310242Y-109557479D01*
X92323312Y-109662935D01*
X92334613Y-109762875D01*
X92343107Y-109847835D01*
X92347232Y-109901578D01*
X92347752Y-109908353D01*
X92347926Y-109911591D01*
X92352671Y-109974048D01*
X92358840Y-110022953D01*
X92365146Y-110047965D01*
X92380994Y-110052972D01*
X92426948Y-110045589D01*
X92500337Y-110023393D01*
X92573833Y-110001652D01*
X92649660Y-109984675D01*
X92710182Y-109976527D01*
X92749889Y-109973854D01*
X92781882Y-109966707D01*
X92795846Y-109950045D01*
X92801186Y-109917797D01*
X92807216Y-109883934D01*
X92821421Y-109866476D01*
X92842956Y-109882101D01*
X92872277Y-109930890D01*
X92900939Y-109972602D01*
X92950769Y-110026349D01*
X93009645Y-110077475D01*
X93018917Y-110084674D01*
X93066499Y-110123861D01*
X93100006Y-110155227D01*
X93112677Y-110172534D01*
X93115363Y-110178293D01*
X93139481Y-110198752D01*
X93180504Y-110222916D01*
X93197587Y-110231175D01*
X93245231Y-110249978D01*
X93278987Y-110257455D01*
X93297980Y-110254189D01*
X93349664Y-110231598D01*
X93416895Y-110190411D01*
X93493731Y-110134043D01*
X93522051Y-110113241D01*
X93560360Y-110093931D01*
X93606469Y-110084606D01*
X93673569Y-110081405D01*
X93774850Y-110081758D01*
X93898023Y-110090243D01*
X93990458Y-110108045D01*
X94050999Y-110135001D01*
X94064292Y-110143784D01*
X94147756Y-110179979D01*
X94248413Y-110200406D01*
X94354465Y-110203519D01*
X94454112Y-110187774D01*
X94455596Y-110187352D01*
X94503826Y-110166008D01*
X94556514Y-110131815D01*
X94604943Y-110091925D01*
X94640393Y-110053492D01*
X94654147Y-110023666D01*
X94653606Y-110017734D01*
X94650613Y-110008970D01*
X94643388Y-109996025D01*
X94630160Y-109976687D01*
X94609156Y-109948744D01*
X94578604Y-109909984D01*
X94536734Y-109858196D01*
X94481773Y-109791168D01*
X94411950Y-109706689D01*
X94325492Y-109602546D01*
X94220628Y-109476529D01*
X94095586Y-109326424D01*
X93973570Y-109181721D01*
X93851335Y-109041350D01*
X93744486Y-108924321D01*
X93650739Y-108828137D01*
X93567804Y-108750304D01*
X93542968Y-108728341D01*
X93478617Y-108672238D01*
X93424531Y-108626223D01*
X93385782Y-108594566D01*
X93367439Y-108581538D01*
X93364244Y-108582424D01*
X93358758Y-108607736D01*
X93358425Y-108666455D01*
X93363230Y-108758244D01*
X93373158Y-108882767D01*
X93388194Y-109039689D01*
X93389082Y-109048519D01*
X93396220Y-109134711D01*
X93397161Y-109189289D01*
X93391815Y-109214181D01*
X93380091Y-109211317D01*
X93376132Y-109204736D01*
X93358735Y-109172348D01*
X93330326Y-109117913D01*
X93293701Y-109046804D01*
X93251657Y-108964397D01*
X93200526Y-108864287D01*
X93133401Y-108734394D01*
X93068019Y-108609464D01*
X93006350Y-108493150D01*
X92984491Y-108452528D01*
X93349239Y-108452528D01*
X93586352Y-108650254D01*
X93640621Y-108695220D01*
X93731915Y-108769787D01*
X93820967Y-108841357D01*
X93899813Y-108903549D01*
X93960485Y-108949982D01*
X93981882Y-108965839D01*
X94122326Y-109067104D01*
X94278531Y-109175625D01*
X94444346Y-109287410D01*
X94613617Y-109398467D01*
X94780193Y-109504806D01*
X94937921Y-109602434D01*
X95080649Y-109687360D01*
X95202225Y-109755593D01*
X95205388Y-109757293D01*
X95284739Y-109800087D01*
X95369557Y-109846036D01*
X95442009Y-109885480D01*
X95503560Y-109916155D01*
X95590907Y-109953567D01*
X95670752Y-109982030D01*
X95712950Y-109993182D01*
X95846496Y-110012817D01*
X96003033Y-110017097D01*
X96177215Y-110006479D01*
X96363693Y-109981419D01*
X96557123Y-109942373D01*
X96752157Y-109889796D01*
X96849370Y-109855446D01*
X96937992Y-109808429D01*
X97004296Y-109748698D01*
X97032158Y-109705328D01*
X97160751Y-109705328D01*
X97178008Y-109705760D01*
X97208447Y-109682662D01*
X97222736Y-109659943D01*
X97227248Y-109614152D01*
X97226661Y-109611207D01*
X97213618Y-109578133D01*
X97198059Y-109577934D01*
X97184644Y-109610958D01*
X97177846Y-109637514D01*
X97163688Y-109679467D01*
X97162741Y-109681801D01*
X97160751Y-109705328D01*
X97032158Y-109705328D01*
X97054727Y-109670196D01*
X97095733Y-109566862D01*
X97137022Y-109457721D01*
X97203716Y-109313048D01*
X97291583Y-109145276D01*
X97399913Y-108955833D01*
X97400658Y-108954574D01*
X97443162Y-108881084D01*
X97494937Y-108789105D01*
X97549508Y-108690257D01*
X97600398Y-108596157D01*
X97651111Y-108501196D01*
X97706358Y-108397835D01*
X97758839Y-108299724D01*
X97801879Y-108219353D01*
X97822646Y-108179707D01*
X97867002Y-108090110D01*
X97908029Y-108001463D01*
X97938939Y-107928186D01*
X97954115Y-107889103D01*
X97987088Y-107804264D01*
X98023826Y-107709814D01*
X98058829Y-107619892D01*
X98092126Y-107530944D01*
X98155209Y-107345028D01*
X98215205Y-107147146D01*
X98267935Y-106951448D01*
X98309220Y-106772084D01*
X98311392Y-106761436D01*
X98330514Y-106660717D01*
X98346781Y-106559377D01*
X98360778Y-106451812D01*
X98373092Y-106332416D01*
X98384306Y-106195586D01*
X98395006Y-106035716D01*
X98405777Y-105847202D01*
X98408265Y-105801866D01*
X98415900Y-105679005D01*
X98424136Y-105578976D01*
X98434102Y-105493126D01*
X98446925Y-105412799D01*
X98463731Y-105329342D01*
X98485650Y-105234099D01*
X98496712Y-105187019D01*
X98515177Y-105104272D01*
X98528929Y-105036888D01*
X98536787Y-104990827D01*
X98537570Y-104972050D01*
X98528190Y-104969698D01*
X98492446Y-104970003D01*
X98441127Y-104975078D01*
X98416796Y-104978455D01*
X98378437Y-104987110D01*
X98351986Y-105003744D01*
X98328197Y-105035825D01*
X98297826Y-105090818D01*
X98297072Y-105092233D01*
X98278849Y-105127214D01*
X98269415Y-105145323D01*
X98249618Y-105185511D01*
X98241922Y-105204197D01*
X98236743Y-105214811D01*
X98217095Y-105245039D01*
X98215979Y-105246756D01*
X98184830Y-105290560D01*
X98128164Y-105367633D01*
X98219510Y-105382036D01*
X98283363Y-105392474D01*
X98326542Y-105401688D01*
X98345652Y-105411018D01*
X98345854Y-105423153D01*
X98332311Y-105440782D01*
X98324114Y-105451223D01*
X98297464Y-105492572D01*
X98269685Y-105543190D01*
X98265927Y-105550539D01*
X98236696Y-105597594D01*
X98215206Y-105613631D01*
X98203213Y-105598425D01*
X98202470Y-105551753D01*
X98208092Y-105487525D01*
X98116580Y-105487525D01*
X98063913Y-105488579D01*
X98033888Y-105495940D01*
X98016813Y-105515904D01*
X98001952Y-105554768D01*
X97994153Y-105573705D01*
X97960488Y-105630960D01*
X97923640Y-105676031D01*
X97918372Y-105682474D01*
X97893625Y-105706211D01*
X97859445Y-105730257D01*
X97821036Y-105739889D01*
X97763459Y-105740726D01*
X97754184Y-105740437D01*
X97675830Y-105729459D01*
X97617528Y-105701856D01*
X97613178Y-105698815D01*
X97568365Y-105676802D01*
X97540892Y-105683657D01*
X97531558Y-105719219D01*
X97527554Y-105738255D01*
X97507599Y-105742732D01*
X97495729Y-105740564D01*
X97472333Y-105751833D01*
X97457628Y-105767263D01*
X97437627Y-105764709D01*
X97428793Y-105734677D01*
X97432057Y-105717524D01*
X97450617Y-105673992D01*
X97478493Y-105627348D01*
X97652576Y-105627348D01*
X97656099Y-105654728D01*
X97675000Y-105667364D01*
X97675098Y-105667364D01*
X97707906Y-105670612D01*
X97753585Y-105678371D01*
X97788089Y-105683480D01*
X97803400Y-105676031D01*
X97802826Y-105649550D01*
X97797014Y-105633455D01*
X97766000Y-105604672D01*
X97721003Y-105589240D01*
X97675692Y-105593216D01*
X97664284Y-105601014D01*
X97652576Y-105627348D01*
X97478493Y-105627348D01*
X97480125Y-105624618D01*
X97496477Y-105598782D01*
X97517844Y-105553032D01*
X97521111Y-105523050D01*
X97519751Y-105519578D01*
X97507308Y-105499476D01*
X97490312Y-105503989D01*
X97460917Y-105534626D01*
X97432971Y-105571515D01*
X97407409Y-105626131D01*
X97394945Y-105693697D01*
X97392790Y-105784450D01*
X97392887Y-105788889D01*
X97399064Y-105891171D01*
X97412561Y-106019197D01*
X97432163Y-106165918D01*
X97456655Y-106324283D01*
X97484821Y-106487242D01*
X97515447Y-106647745D01*
X97547316Y-106798742D01*
X97579214Y-106933182D01*
X97609924Y-107044014D01*
X97631009Y-107114670D01*
X97650452Y-107184383D01*
X97663649Y-107237127D01*
X97668525Y-107265067D01*
X97665929Y-107285571D01*
X97644876Y-107342165D01*
X97607436Y-107408407D01*
X97559373Y-107474811D01*
X97506450Y-107531889D01*
X97458024Y-107571198D01*
X97393732Y-107614236D01*
X97327411Y-107651642D01*
X97268593Y-107678085D01*
X97226812Y-107688235D01*
X97204893Y-107698607D01*
X97166504Y-107726980D01*
X97120623Y-107767017D01*
X97100839Y-107784855D01*
X97054022Y-107820468D01*
X97024150Y-107833847D01*
X97014190Y-107825920D01*
X97027112Y-107797618D01*
X97065885Y-107749870D01*
X97094262Y-107718241D01*
X97124886Y-107681645D01*
X97139473Y-107660750D01*
X97146069Y-107653026D01*
X97177117Y-107631202D01*
X97223532Y-107604587D01*
X97274707Y-107578721D01*
X97320038Y-107559140D01*
X97348920Y-107551382D01*
X97352234Y-107550964D01*
X97380989Y-107534134D01*
X97421290Y-107498300D01*
X97466199Y-107451146D01*
X97508775Y-107400355D01*
X97542080Y-107353610D01*
X97559172Y-107318596D01*
X97559634Y-107316659D01*
X97562029Y-107259764D01*
X97550623Y-107175140D01*
X97526004Y-107065984D01*
X97488759Y-106935490D01*
X97488662Y-106935177D01*
X97467013Y-106857287D01*
X97448628Y-106777175D01*
X97437477Y-106712138D01*
X97437386Y-106711374D01*
X97422950Y-106596269D01*
X97406869Y-106476589D01*
X97389991Y-106357843D01*
X97373165Y-106245539D01*
X97357238Y-106145186D01*
X97343059Y-106062292D01*
X97331476Y-106002366D01*
X97323337Y-105970916D01*
X97312865Y-105919683D01*
X97311176Y-105846369D01*
X97317812Y-105764791D01*
X97331741Y-105687367D01*
X97351932Y-105626516D01*
X97360956Y-105609248D01*
X97398308Y-105551948D01*
X97441324Y-105499270D01*
X97460742Y-105478304D01*
X97477181Y-105459597D01*
X97532480Y-105459597D01*
X97602508Y-105440419D01*
X97686320Y-105421906D01*
X97779087Y-105406909D01*
X97893450Y-105393099D01*
X98092632Y-105371555D01*
X98120389Y-105313349D01*
X98124817Y-105303933D01*
X98141424Y-105265708D01*
X98148146Y-105245039D01*
X98142957Y-105241187D01*
X98112411Y-105239900D01*
X98061795Y-105244556D01*
X97999567Y-105253997D01*
X97934185Y-105267063D01*
X97874106Y-105282595D01*
X97838183Y-105293094D01*
X97768015Y-105312451D01*
X97709654Y-105327241D01*
X97646857Y-105352894D01*
X97582121Y-105402733D01*
X97562681Y-105423145D01*
X97538600Y-105450031D01*
X97532480Y-105459597D01*
X97477181Y-105459597D01*
X97493338Y-105441212D01*
X97511352Y-105417983D01*
X97520148Y-105405604D01*
X97547428Y-105371424D01*
X97583771Y-105328403D01*
X97609382Y-105300705D01*
X97641132Y-105274524D01*
X97680844Y-105253232D01*
X97736957Y-105232490D01*
X97817908Y-105207955D01*
X97893500Y-105184979D01*
X98117684Y-105184979D01*
X98118769Y-105199829D01*
X98136315Y-105204786D01*
X98160056Y-105195762D01*
X98177015Y-105174950D01*
X98183424Y-105158155D01*
X98197157Y-105127849D01*
X98197489Y-105127214D01*
X98191354Y-105123862D01*
X98165482Y-105137879D01*
X98135879Y-105161541D01*
X98117684Y-105184979D01*
X97893500Y-105184979D01*
X97894392Y-105184708D01*
X97957443Y-105161112D01*
X98011002Y-105133241D01*
X98066764Y-105094930D01*
X98136422Y-105040014D01*
X98184265Y-105000204D01*
X98236698Y-104953830D01*
X98274075Y-104917454D01*
X98276980Y-104913756D01*
X98391022Y-104913756D01*
X98457986Y-104913756D01*
X98477122Y-104913720D01*
X98508550Y-104910809D01*
X98520914Y-104897787D01*
X98517415Y-104867049D01*
X98501256Y-104810991D01*
X98478082Y-104733918D01*
X98391022Y-104913756D01*
X98276980Y-104913756D01*
X98290432Y-104896629D01*
X98294121Y-104886014D01*
X98308196Y-104845694D01*
X98330184Y-104782805D01*
X98357925Y-104703524D01*
X98389259Y-104614026D01*
X98479230Y-104357114D01*
X98485624Y-104084449D01*
X98486249Y-104053637D01*
X98486814Y-103950330D01*
X98484903Y-103863196D01*
X98480724Y-103798244D01*
X98474484Y-103761485D01*
X98472262Y-103754451D01*
X98461366Y-103707444D01*
X98449590Y-103641209D01*
X98439123Y-103567731D01*
X98432163Y-103525238D01*
X98414494Y-103449340D01*
X98390734Y-103367099D01*
X98363621Y-103286465D01*
X98335894Y-103215386D01*
X98310292Y-103161810D01*
X98289554Y-103133686D01*
X98276517Y-103115549D01*
X98253587Y-103074939D01*
X98226192Y-103021173D01*
X98200739Y-102969217D01*
X98181245Y-102929983D01*
X98172443Y-102913014D01*
X98169319Y-102910392D01*
X98138886Y-102899614D01*
X98083007Y-102886907D01*
X98008367Y-102873405D01*
X97921651Y-102860242D01*
X97829545Y-102848551D01*
X97738733Y-102839466D01*
X97643602Y-102834044D01*
X97505583Y-102831592D01*
X97343928Y-102833081D01*
X97164202Y-102838257D01*
X96971973Y-102846865D01*
X96772809Y-102858648D01*
X96572276Y-102873353D01*
X96375943Y-102890723D01*
X96189377Y-102910503D01*
X96153872Y-102914668D01*
X96076276Y-102925359D01*
X96017218Y-102939182D01*
X95970846Y-102960612D01*
X95931307Y-102994123D01*
X95892749Y-103044188D01*
X95849321Y-103115282D01*
X95795168Y-103211880D01*
X95729299Y-103332314D01*
X95608463Y-103563223D01*
X95493356Y-103797714D01*
X95380507Y-104043208D01*
X95266446Y-104307129D01*
X95147705Y-104596898D01*
X95113433Y-104683813D01*
X95069047Y-104800096D01*
X95026313Y-104915852D01*
X94986765Y-105026596D01*
X94951940Y-105127841D01*
X94923373Y-105215100D01*
X94902600Y-105283886D01*
X94891156Y-105329714D01*
X94890578Y-105348097D01*
X94903493Y-105349488D01*
X94946140Y-105349904D01*
X95012623Y-105348848D01*
X95097083Y-105346425D01*
X95193661Y-105342739D01*
X95242305Y-105340791D01*
X95360964Y-105336856D01*
X95480031Y-105333883D01*
X95587966Y-105332132D01*
X95673230Y-105331865D01*
X95723624Y-105332511D01*
X95803047Y-105336197D01*
X95865708Y-105345723D01*
X95923012Y-105364245D01*
X95986362Y-105394919D01*
X96067161Y-105440902D01*
X96135671Y-105481050D01*
X96062879Y-105469937D01*
X96042872Y-105467473D01*
X96005084Y-105467131D01*
X95990088Y-105474103D01*
X95994879Y-105488019D01*
X96013941Y-105524506D01*
X96042568Y-105572136D01*
X96058774Y-105598807D01*
X96079165Y-105645139D01*
X96073410Y-105673564D01*
X96038884Y-105688728D01*
X95972960Y-105695277D01*
X95922724Y-105695269D01*
X95892439Y-105688217D01*
X95894716Y-105674054D01*
X95930141Y-105653353D01*
X95959423Y-105635273D01*
X95969933Y-105609620D01*
X95953305Y-105574911D01*
X95908732Y-105526363D01*
X95828891Y-105470159D01*
X95731295Y-105436343D01*
X95629483Y-105430559D01*
X95594004Y-105437041D01*
X95569898Y-105456477D01*
X95553787Y-105499012D01*
X95522924Y-105566259D01*
X95483152Y-105607771D01*
X95462681Y-105629137D01*
X95382432Y-105669951D01*
X95288207Y-105684491D01*
X95257472Y-105681130D01*
X95189170Y-105651469D01*
X95126409Y-105595540D01*
X95099728Y-105554855D01*
X95136457Y-105554855D01*
X95143316Y-105575808D01*
X95176534Y-105581726D01*
X95181215Y-105581675D01*
X95199008Y-105577445D01*
X95256780Y-105577445D01*
X95270096Y-105598008D01*
X95308078Y-105612708D01*
X95326203Y-105614162D01*
X95346024Y-105607771D01*
X95344471Y-105582735D01*
X95340824Y-105573467D01*
X95318118Y-105552430D01*
X95288277Y-105545582D01*
X95269527Y-105551753D01*
X95263699Y-105553671D01*
X95256780Y-105577445D01*
X95199008Y-105577445D01*
X95211517Y-105574471D01*
X95216092Y-105551753D01*
X95206836Y-105534772D01*
X95176534Y-105521780D01*
X95156370Y-105527090D01*
X95136976Y-105551753D01*
X95136457Y-105554855D01*
X95099728Y-105554855D01*
X95075995Y-105518665D01*
X95029822Y-105424520D01*
X94940467Y-105436550D01*
X94906233Y-105441585D01*
X94863575Y-105449407D01*
X94843898Y-105455285D01*
X94842497Y-105465331D01*
X94859303Y-105493387D01*
X94893713Y-105531080D01*
X94939328Y-105572308D01*
X94989751Y-105610966D01*
X95038581Y-105640954D01*
X95054217Y-105648851D01*
X95105556Y-105671261D01*
X95156282Y-105685301D01*
X95218015Y-105693500D01*
X95302373Y-105698390D01*
X95346109Y-105700629D01*
X95417490Y-105706846D01*
X95463933Y-105714383D01*
X95483626Y-105722143D01*
X95474756Y-105729027D01*
X95435512Y-105733936D01*
X95364079Y-105735774D01*
X95237410Y-105730463D01*
X95108564Y-105714904D01*
X94998299Y-105690933D01*
X94990370Y-105688766D01*
X94967826Y-105686942D01*
X94970973Y-105701567D01*
X94975615Y-105711038D01*
X94968073Y-105713653D01*
X94937983Y-105696035D01*
X94883523Y-105657261D01*
X94870307Y-105648214D01*
X94827911Y-105632294D01*
X94800745Y-105645789D01*
X94791166Y-105687917D01*
X94788436Y-105704564D01*
X94774039Y-105718746D01*
X94767118Y-105710779D01*
X94759765Y-105677050D01*
X94756912Y-105625880D01*
X94755986Y-105582077D01*
X94748376Y-105541953D01*
X94727256Y-105510213D01*
X94685840Y-105472178D01*
X94660147Y-105449739D01*
X94636136Y-105423295D01*
X94638206Y-105406340D01*
X94668894Y-105393661D01*
X94730741Y-105380047D01*
X94798772Y-105366299D01*
X94836335Y-105144309D01*
X94867621Y-104960526D01*
X94895822Y-104797676D01*
X94920049Y-104661488D01*
X94940997Y-104548293D01*
X94959365Y-104454419D01*
X94975851Y-104376199D01*
X94991151Y-104309961D01*
X95005964Y-104252037D01*
X95015540Y-104215565D01*
X95032126Y-104147368D01*
X95034883Y-104134309D01*
X95138093Y-104134309D01*
X95138944Y-104153959D01*
X95146580Y-104152130D01*
X95158602Y-104128428D01*
X95160115Y-104124500D01*
X95184922Y-104092222D01*
X95224606Y-104061606D01*
X95234876Y-104055077D01*
X95261489Y-104031306D01*
X95286224Y-103995247D01*
X95313162Y-103940112D01*
X95346385Y-103859115D01*
X95378356Y-103780118D01*
X95437580Y-103641608D01*
X95507656Y-103484660D01*
X95585299Y-103316265D01*
X95667226Y-103143412D01*
X95750155Y-102973091D01*
X95830802Y-102812293D01*
X95905884Y-102668006D01*
X95921709Y-102638182D01*
X95970726Y-102544348D01*
X96012951Y-102461335D01*
X96046000Y-102393966D01*
X96067492Y-102347065D01*
X96075045Y-102325457D01*
X96073524Y-102321038D01*
X96057355Y-102326842D01*
X96026357Y-102355152D01*
X95984053Y-102401930D01*
X95933963Y-102463141D01*
X95879607Y-102534747D01*
X95824506Y-102612711D01*
X95804825Y-102641893D01*
X95694654Y-102814592D01*
X95587842Y-102997079D01*
X95486909Y-103184092D01*
X95447712Y-103262999D01*
X95394377Y-103370367D01*
X95312767Y-103550639D01*
X95244601Y-103719645D01*
X95192399Y-103872121D01*
X95158683Y-104002803D01*
X95153823Y-104027886D01*
X95143416Y-104089509D01*
X95138093Y-104134309D01*
X95034883Y-104134309D01*
X95043470Y-104093643D01*
X95047533Y-104063635D01*
X95046636Y-104046857D01*
X95039896Y-104042954D01*
X95020138Y-104065948D01*
X95007505Y-104084792D01*
X94978164Y-104136716D01*
X94939886Y-104210426D01*
X94895475Y-104299972D01*
X94847732Y-104399406D01*
X94799459Y-104502779D01*
X94753458Y-104604143D01*
X94712531Y-104697547D01*
X94679481Y-104777043D01*
X94657110Y-104836683D01*
X94603460Y-104998263D01*
X94556062Y-105147819D01*
X94514988Y-105287027D01*
X94482464Y-105408508D01*
X94479002Y-105421437D01*
X94446869Y-105556604D01*
X94417354Y-105698078D01*
X94389220Y-105851412D01*
X94361232Y-106022159D01*
X94332156Y-106215870D01*
X94300754Y-106438099D01*
X94289857Y-106548963D01*
X94283609Y-106684889D01*
X94282084Y-106835114D01*
X94285227Y-106989787D01*
X94292985Y-107139054D01*
X94305304Y-107273061D01*
X94309695Y-107319056D01*
X94309429Y-107356307D01*
X94302548Y-107363449D01*
X94290019Y-107342309D01*
X94272809Y-107294716D01*
X94251886Y-107222496D01*
X94228218Y-107127478D01*
X94222193Y-107101594D01*
X94189948Y-106958150D01*
X94164587Y-106833397D01*
X94144429Y-106716752D01*
X94127794Y-106597633D01*
X94113002Y-106465457D01*
X94098374Y-106309643D01*
X94091535Y-106233616D01*
X94081055Y-106121736D01*
X94070767Y-106016678D01*
X94061570Y-105927544D01*
X94054361Y-105863440D01*
X94050723Y-105829224D01*
X94043973Y-105738707D01*
X94039303Y-105637678D01*
X94038410Y-105588826D01*
X94107545Y-105588826D01*
X94111843Y-105748235D01*
X94121945Y-105928639D01*
X94123049Y-105944682D01*
X94133068Y-106084002D01*
X94141604Y-106189260D01*
X94148777Y-106260597D01*
X94154710Y-106298154D01*
X94159525Y-106302070D01*
X94163343Y-106272486D01*
X94166286Y-106209543D01*
X94168475Y-106113382D01*
X94170034Y-105984142D01*
X94170761Y-105910087D01*
X94171714Y-105843771D01*
X94263859Y-105843771D01*
X94264211Y-105847962D01*
X94268849Y-105882251D01*
X94277195Y-105884500D01*
X94293951Y-105856736D01*
X94295922Y-105851582D01*
X94302351Y-105817812D01*
X94308882Y-105762634D01*
X94315105Y-105692987D01*
X94320613Y-105615812D01*
X94324999Y-105538047D01*
X94327854Y-105466632D01*
X94328770Y-105408508D01*
X94327339Y-105370613D01*
X94323154Y-105359886D01*
X94321039Y-105364071D01*
X94313767Y-105395412D01*
X94304654Y-105450249D01*
X94294638Y-105520922D01*
X94284657Y-105599772D01*
X94275651Y-105679140D01*
X94268556Y-105751369D01*
X94264313Y-105808799D01*
X94263859Y-105843771D01*
X94171714Y-105843771D01*
X94173281Y-105734746D01*
X94176728Y-105590095D01*
X94181220Y-105473543D01*
X94186872Y-105382503D01*
X94191436Y-105337626D01*
X94350404Y-105337626D01*
X94350732Y-105341718D01*
X94357172Y-105378262D01*
X94366461Y-105393290D01*
X94366945Y-105393251D01*
X94381417Y-105377032D01*
X94402490Y-105337373D01*
X94426340Y-105282960D01*
X94449146Y-105222485D01*
X94467081Y-105164636D01*
X94480099Y-105118557D01*
X94510643Y-105020471D01*
X94551086Y-104898526D01*
X94599625Y-104757634D01*
X94654462Y-104602709D01*
X94713794Y-104438664D01*
X94775820Y-104270411D01*
X94838740Y-104102865D01*
X94900754Y-103940938D01*
X94960059Y-103789543D01*
X95014855Y-103653593D01*
X95063341Y-103538001D01*
X95105281Y-103438386D01*
X95138050Y-103353956D01*
X95156449Y-103296173D01*
X95161118Y-103262999D01*
X95152694Y-103252394D01*
X95141922Y-103255964D01*
X95111026Y-103285333D01*
X95070494Y-103341521D01*
X95022324Y-103421115D01*
X94968512Y-103520703D01*
X94911054Y-103636875D01*
X94851949Y-103766217D01*
X94842157Y-103788603D01*
X94774758Y-103948702D01*
X94708111Y-104116809D01*
X94643478Y-104288968D01*
X94582123Y-104461226D01*
X94576799Y-104477006D01*
X94565242Y-104511261D01*
X94525306Y-104629629D01*
X94474291Y-104790221D01*
X94432361Y-104932202D01*
X94430339Y-104939048D01*
X94394712Y-105072157D01*
X94368673Y-105185592D01*
X94353483Y-105275400D01*
X94350404Y-105337626D01*
X94191436Y-105337626D01*
X94193800Y-105314387D01*
X94202119Y-105266605D01*
X94206142Y-105247386D01*
X94205265Y-105227414D01*
X94189907Y-105231356D01*
X94189003Y-105231899D01*
X94174803Y-105237668D01*
X94185192Y-105221056D01*
X94195237Y-105197825D01*
X94207041Y-105148915D01*
X94216147Y-105088156D01*
X94222476Y-105036065D01*
X94230467Y-104982838D01*
X94237121Y-104951136D01*
X94238542Y-104946620D01*
X94241072Y-104932202D01*
X94228292Y-104947863D01*
X94220575Y-104964735D01*
X94208452Y-105010347D01*
X94198993Y-105067756D01*
X94196764Y-105083889D01*
X94179195Y-105153177D01*
X94153233Y-105199831D01*
X94146321Y-105209447D01*
X94128439Y-105260724D01*
X94115947Y-105342656D01*
X94108947Y-105452829D01*
X94107545Y-105588826D01*
X94038410Y-105588826D01*
X94037559Y-105542301D01*
X94036831Y-105481652D01*
X94034144Y-105418235D01*
X94029941Y-105375055D01*
X94024713Y-105359118D01*
X94024578Y-105359129D01*
X94013547Y-105374887D01*
X93993453Y-105416389D01*
X93967112Y-105477429D01*
X93937336Y-105551802D01*
X93878953Y-105703188D01*
X93809642Y-105885222D01*
X93750852Y-106043861D01*
X93701236Y-106183923D01*
X93659449Y-106310225D01*
X93639444Y-106376725D01*
X93624144Y-106427585D01*
X93623624Y-106429535D01*
X93618767Y-106447767D01*
X93593976Y-106540821D01*
X93567599Y-106654752D01*
X93543667Y-106774194D01*
X93520835Y-106903967D01*
X93497756Y-107048887D01*
X93477577Y-107183749D01*
X93473085Y-107213773D01*
X93465487Y-107266295D01*
X93403463Y-107771905D01*
X93360449Y-108280276D01*
X93349239Y-108452528D01*
X92984491Y-108452528D01*
X92950363Y-108389104D01*
X92902028Y-108300979D01*
X92863314Y-108232428D01*
X92836190Y-108187104D01*
X92822626Y-108168660D01*
X92811329Y-108153698D01*
X92787044Y-108110023D01*
X92752681Y-108041776D01*
X92710073Y-107952715D01*
X92661052Y-107846599D01*
X92607449Y-107727187D01*
X92596387Y-107702716D01*
X92560534Y-107632141D01*
X92533837Y-107594398D01*
X92516886Y-107589192D01*
X92510269Y-107616226D01*
X92514575Y-107675207D01*
X92530394Y-107765837D01*
X92551751Y-107897065D01*
X92567773Y-108066387D01*
X92570240Y-108133716D01*
X92574234Y-108242743D01*
X92570697Y-108412958D01*
X92556728Y-108563860D01*
X92548213Y-108621761D01*
X92536849Y-108692276D01*
X92527057Y-108745729D01*
X92520302Y-108773671D01*
X92518892Y-108777244D01*
X92504013Y-108800236D01*
X92491320Y-108790089D01*
X92480649Y-108746446D01*
X92471834Y-108668948D01*
X92469445Y-108642524D01*
X92460432Y-108560632D01*
X92448931Y-108473292D01*
X92436025Y-108387083D01*
X92422799Y-108308581D01*
X92410338Y-108244364D01*
X92399727Y-108201011D01*
X92392050Y-108185098D01*
X92390653Y-108186704D01*
X92385739Y-108212131D01*
X92380625Y-108263710D01*
X92375841Y-108335260D01*
X92371915Y-108420600D01*
X92366312Y-108517789D01*
X92353618Y-108657135D01*
X92335991Y-108804316D01*
X92314965Y-108945203D01*
X92266687Y-109234303D01*
X92187423Y-109234303D01*
X92186729Y-109230300D01*
X92168126Y-109123741D01*
X92150080Y-109021199D01*
X92133552Y-108928219D01*
X92119503Y-108850345D01*
X92108895Y-108793122D01*
X92096726Y-108735179D01*
X92068827Y-108621349D01*
X92032636Y-108488544D01*
X91990534Y-108344794D01*
X91944901Y-108198132D01*
X91923610Y-108133716D01*
X92359069Y-108133716D01*
X92359567Y-108137809D01*
X92376197Y-108150843D01*
X92380291Y-108150345D01*
X92393324Y-108133716D01*
X92392827Y-108129622D01*
X92376197Y-108116588D01*
X92372103Y-108117086D01*
X92359069Y-108133716D01*
X91923610Y-108133716D01*
X91898116Y-108056585D01*
X91852560Y-107928186D01*
X91821544Y-107843331D01*
X91782744Y-107734727D01*
X91746100Y-107629837D01*
X91716605Y-107542819D01*
X91713328Y-107532928D01*
X91684473Y-107447021D01*
X91648966Y-107342804D01*
X91611002Y-107232538D01*
X91574779Y-107128481D01*
X91574499Y-107127682D01*
X91536918Y-107014707D01*
X91497536Y-106886825D01*
X91461009Y-106759680D01*
X91431996Y-106648913D01*
X91425224Y-106621682D01*
X91401992Y-106535857D01*
X91379286Y-106462154D01*
X91359409Y-106407680D01*
X91344665Y-106379538D01*
X91335277Y-106367328D01*
X91309652Y-106322432D01*
X91286125Y-106268210D01*
X91271823Y-106230127D01*
X91244211Y-106159041D01*
X91216320Y-106089445D01*
X91210466Y-106074104D01*
X91187548Y-105995340D01*
X91166384Y-105894464D01*
X91149086Y-105781151D01*
X91147579Y-105769391D01*
X91130858Y-105654996D01*
X91109511Y-105530142D01*
X91085084Y-105402227D01*
X91084835Y-105401041D01*
X91192361Y-105401041D01*
X91192976Y-105527438D01*
X91199344Y-105654141D01*
X91211576Y-105772214D01*
X91211996Y-105775236D01*
X91228291Y-105866887D01*
X91252153Y-105970192D01*
X91280937Y-106076065D01*
X91312000Y-106175418D01*
X91342699Y-106259161D01*
X91370389Y-106318206D01*
X91402025Y-106364258D01*
X91456299Y-106429236D01*
X91519651Y-106495922D01*
X91582543Y-106554368D01*
X91635435Y-106594625D01*
X91644305Y-106600515D01*
X91677624Y-106630879D01*
X91691120Y-106657870D01*
X91698854Y-106678476D01*
X91726506Y-106722904D01*
X91771116Y-106784818D01*
X91829419Y-106859895D01*
X91898148Y-106943814D01*
X91974039Y-107032255D01*
X91978271Y-107037049D01*
X92031523Y-107090726D01*
X92081544Y-107124302D01*
X92141358Y-107146683D01*
X92206197Y-107164190D01*
X92282820Y-107181214D01*
X92335981Y-107187978D01*
X92361317Y-107183749D01*
X92361108Y-107174674D01*
X92353291Y-107138212D01*
X92338217Y-107080164D01*
X92317824Y-107007127D01*
X92294049Y-106925694D01*
X92268831Y-106842461D01*
X92244106Y-106764023D01*
X92221812Y-106696974D01*
X92203888Y-106647910D01*
X92188513Y-106624815D01*
X92149625Y-106608707D01*
X92142968Y-106608168D01*
X92101963Y-106599633D01*
X92042174Y-106582942D01*
X91974066Y-106560942D01*
X91960766Y-106556324D01*
X91893808Y-106530825D01*
X91848379Y-106506787D01*
X91814515Y-106477795D01*
X91782250Y-106437433D01*
X91761032Y-106408683D01*
X91723598Y-106360515D01*
X91694998Y-106326770D01*
X91693131Y-106324684D01*
X91685517Y-106313596D01*
X91823741Y-106313596D01*
X91824507Y-106342516D01*
X91852723Y-106352461D01*
X91868220Y-106356540D01*
X91896861Y-106378433D01*
X91911027Y-106390204D01*
X91944644Y-106397574D01*
X92001328Y-106393407D01*
X92034265Y-106389427D01*
X92069718Y-106389314D01*
X92088488Y-106400746D01*
X92101339Y-106427381D01*
X92115299Y-106458313D01*
X92126414Y-106472353D01*
X92134301Y-106469291D01*
X92147544Y-106447767D01*
X92147045Y-106429535D01*
X92444707Y-106429535D01*
X92453270Y-106438099D01*
X92461834Y-106429535D01*
X92453270Y-106420971D01*
X92444707Y-106429535D01*
X92147045Y-106429535D01*
X92146895Y-106424076D01*
X92146214Y-106422595D01*
X92139489Y-106396053D01*
X92128894Y-106343671D01*
X92115744Y-106272246D01*
X92101353Y-106188574D01*
X92098815Y-106173423D01*
X92084524Y-106091335D01*
X92071681Y-106022634D01*
X92061607Y-105974131D01*
X92055622Y-105952641D01*
X92052911Y-105952099D01*
X92036703Y-105969251D01*
X92010687Y-106008562D01*
X91979032Y-106063970D01*
X91974028Y-106073182D01*
X91934090Y-106142523D01*
X91893463Y-106207144D01*
X91860222Y-106254122D01*
X91850320Y-106267079D01*
X91823741Y-106313596D01*
X91685517Y-106313596D01*
X91669234Y-106289885D01*
X91638544Y-106235594D01*
X91607220Y-106172623D01*
X91605299Y-106168479D01*
X91581769Y-106113451D01*
X91702853Y-106113451D01*
X91707304Y-106158856D01*
X91717737Y-106194033D01*
X91720541Y-106200543D01*
X91740400Y-106235462D01*
X91757347Y-106249697D01*
X91761187Y-106248802D01*
X91786069Y-106229098D01*
X91822268Y-106188774D01*
X91864577Y-106134737D01*
X91907791Y-106073894D01*
X91946703Y-106013155D01*
X91976109Y-105959425D01*
X91991641Y-105922882D01*
X92014973Y-105833606D01*
X92017704Y-105750609D01*
X91999010Y-105683775D01*
X91987297Y-105667190D01*
X91966228Y-105656079D01*
X91928884Y-105652274D01*
X91866355Y-105653758D01*
X91752462Y-105658800D01*
X91740089Y-105718746D01*
X91736045Y-105742206D01*
X91728101Y-105800850D01*
X91719406Y-105876471D01*
X91711228Y-105958530D01*
X91711030Y-105960691D01*
X91704167Y-106050002D01*
X91702853Y-106113451D01*
X91581769Y-106113451D01*
X91577074Y-106102472D01*
X91560663Y-106046808D01*
X91552902Y-105986646D01*
X91550628Y-105907148D01*
X91553199Y-105824799D01*
X91561459Y-105748225D01*
X91574041Y-105693055D01*
X91576339Y-105685410D01*
X91584282Y-105639887D01*
X91591240Y-105571954D01*
X91597052Y-105487898D01*
X91600216Y-105421987D01*
X91785130Y-105421987D01*
X91786789Y-105442452D01*
X91792255Y-105446106D01*
X91825474Y-105460584D01*
X91872924Y-105476074D01*
X91889994Y-105480958D01*
X91930545Y-105491393D01*
X91956825Y-105491666D01*
X91971458Y-105476962D01*
X91977067Y-105442466D01*
X91976279Y-105383364D01*
X91971717Y-105294842D01*
X91968448Y-105238853D01*
X91962231Y-105164377D01*
X91954367Y-105114035D01*
X91943684Y-105081390D01*
X91929013Y-105060005D01*
X91904131Y-105040824D01*
X91882177Y-105042878D01*
X91871017Y-105064666D01*
X91854994Y-105111502D01*
X91837067Y-105174262D01*
X91819177Y-105244818D01*
X91803264Y-105315042D01*
X91791269Y-105376808D01*
X91785130Y-105421987D01*
X91600216Y-105421987D01*
X91601559Y-105394005D01*
X91604601Y-105296561D01*
X91606019Y-105201855D01*
X91605652Y-105116171D01*
X91603341Y-105045796D01*
X91598927Y-104997018D01*
X91592249Y-104976122D01*
X91569755Y-104978298D01*
X91534017Y-105002865D01*
X91492122Y-105043993D01*
X91450045Y-105095071D01*
X91413763Y-105149490D01*
X91389251Y-105200641D01*
X91388357Y-105203162D01*
X91369491Y-105248149D01*
X91351491Y-105279691D01*
X91338232Y-105293626D01*
X91333587Y-105285790D01*
X91341430Y-105252023D01*
X91345696Y-105238127D01*
X91359668Y-105189485D01*
X91375134Y-105132718D01*
X91381762Y-105110661D01*
X91405849Y-105051471D01*
X91432482Y-105006235D01*
X91439151Y-104997518D01*
X91464550Y-104952027D01*
X91461898Y-104931335D01*
X91907372Y-104931335D01*
X91916635Y-104960044D01*
X91928335Y-104972493D01*
X91949276Y-104980049D01*
X91961296Y-104956022D01*
X91965138Y-104899483D01*
X91964908Y-104879630D01*
X91960375Y-104827127D01*
X91950723Y-104806777D01*
X91936844Y-104819253D01*
X91919629Y-104865225D01*
X91914835Y-104882455D01*
X91907372Y-104931335D01*
X91461898Y-104931335D01*
X91460663Y-104921702D01*
X91427366Y-104904099D01*
X91405660Y-104899443D01*
X91354963Y-104898331D01*
X91314312Y-104917046D01*
X91280392Y-104959158D01*
X91249887Y-105028236D01*
X91219481Y-105127849D01*
X91207955Y-105184911D01*
X91197391Y-105283886D01*
X91192361Y-105401041D01*
X91084835Y-105401041D01*
X91059123Y-105278652D01*
X91033174Y-105166815D01*
X91008785Y-105074117D01*
X90987500Y-105007957D01*
X90972824Y-104964806D01*
X90950836Y-104893447D01*
X90925957Y-104808866D01*
X91003035Y-104808866D01*
X91051296Y-104964076D01*
X91063961Y-105003644D01*
X91084619Y-105063120D01*
X91101031Y-105104052D01*
X91110468Y-105119285D01*
X91115886Y-105114261D01*
X91129306Y-105083079D01*
X91145778Y-105029747D01*
X91163305Y-104961680D01*
X91177774Y-104895904D01*
X91676216Y-104895904D01*
X91680284Y-104908599D01*
X91688425Y-104888362D01*
X91700542Y-104834823D01*
X91716539Y-104747610D01*
X91731509Y-104665012D01*
X91764368Y-104506693D01*
X91801020Y-104355038D01*
X91839887Y-104215515D01*
X91879392Y-104093595D01*
X91917957Y-103994746D01*
X91954004Y-103924437D01*
X92016342Y-103826404D01*
X92076507Y-103733787D01*
X92120679Y-103668878D01*
X92149703Y-103630734D01*
X92164423Y-103618413D01*
X92165684Y-103630974D01*
X92154333Y-103667476D01*
X92131213Y-103726976D01*
X92126523Y-103738700D01*
X92100109Y-103811717D01*
X92077973Y-103883969D01*
X92062103Y-103947646D01*
X92054487Y-103994942D01*
X92057112Y-104018047D01*
X92058527Y-104018459D01*
X92072169Y-104003257D01*
X92094368Y-103964852D01*
X92121072Y-103910076D01*
X92121841Y-103908387D01*
X92170345Y-103802722D01*
X92217911Y-103700748D01*
X92262329Y-103607046D01*
X92301387Y-103526194D01*
X92332872Y-103462773D01*
X92354573Y-103421362D01*
X92364278Y-103406541D01*
X92363033Y-103415199D01*
X92353189Y-103452092D01*
X92335175Y-103513907D01*
X92310310Y-103596227D01*
X92279914Y-103694631D01*
X92245309Y-103804702D01*
X92228995Y-103856623D01*
X92190239Y-103983321D01*
X92153164Y-104108837D01*
X92120019Y-104225330D01*
X92093055Y-104324958D01*
X92074522Y-104399880D01*
X92067757Y-104429958D01*
X92055634Y-104486737D01*
X92046596Y-104537291D01*
X92040320Y-104587402D01*
X92036482Y-104642850D01*
X92034758Y-104709417D01*
X92034825Y-104792885D01*
X92036359Y-104899035D01*
X92036368Y-104899483D01*
X92039037Y-105033648D01*
X92044030Y-105213182D01*
X92053607Y-105412593D01*
X92055938Y-105442466D01*
X92067686Y-105593004D01*
X92085706Y-105750609D01*
X92087100Y-105762802D01*
X92112680Y-105930376D01*
X92145260Y-106104113D01*
X92147702Y-106116179D01*
X92167268Y-106212250D01*
X92183567Y-106289139D01*
X92196894Y-106345478D01*
X92207542Y-106379895D01*
X92215806Y-106391021D01*
X92221980Y-106377484D01*
X92222113Y-106376282D01*
X92447398Y-106376282D01*
X92451486Y-106399205D01*
X92457333Y-106398940D01*
X92460482Y-106376725D01*
X92457739Y-106359890D01*
X92450134Y-106366377D01*
X92447398Y-106376282D01*
X92222113Y-106376282D01*
X92226357Y-106337915D01*
X92229232Y-106270943D01*
X92230897Y-106175198D01*
X92231648Y-106049309D01*
X92231778Y-105891906D01*
X92231581Y-105701618D01*
X92231516Y-105652276D01*
X92231359Y-105472744D01*
X92231672Y-105321294D01*
X92232870Y-105192978D01*
X92235362Y-105082848D01*
X92239561Y-104985956D01*
X92245880Y-104897355D01*
X92254729Y-104812096D01*
X92266522Y-104725231D01*
X92281668Y-104631813D01*
X92300582Y-104526893D01*
X92323674Y-104405523D01*
X92351356Y-104262756D01*
X92352378Y-104257532D01*
X92373327Y-104162079D01*
X92399954Y-104057490D01*
X92430979Y-103947265D01*
X92465124Y-103834905D01*
X92501108Y-103723907D01*
X92537651Y-103617773D01*
X92573474Y-103520001D01*
X92607297Y-103434091D01*
X92637840Y-103363542D01*
X92663823Y-103311854D01*
X92683967Y-103282527D01*
X92696992Y-103279060D01*
X92701618Y-103304953D01*
X92702092Y-103326549D01*
X92708018Y-103333707D01*
X92726765Y-103311332D01*
X92727786Y-103309985D01*
X92740319Y-103295058D01*
X92747812Y-103291841D01*
X92749824Y-103303945D01*
X92745914Y-103334982D01*
X92735643Y-103388565D01*
X92718568Y-103468305D01*
X92694249Y-103577815D01*
X92670437Y-103684356D01*
X92629390Y-103868403D01*
X92594802Y-104024221D01*
X92565948Y-104155234D01*
X92542100Y-104264866D01*
X92522532Y-104356541D01*
X92506517Y-104433684D01*
X92493328Y-104499717D01*
X92482240Y-104558067D01*
X92472524Y-104612156D01*
X92463456Y-104665408D01*
X92420718Y-104970578D01*
X92392775Y-105287423D01*
X92381775Y-105597218D01*
X92387976Y-105892539D01*
X92411633Y-106165963D01*
X92415424Y-106195409D01*
X92426216Y-106266957D01*
X92435435Y-106306992D01*
X92443145Y-106315125D01*
X92449410Y-106290968D01*
X92454293Y-106234130D01*
X92457859Y-106144223D01*
X92460171Y-106020858D01*
X92461294Y-105863645D01*
X92462134Y-105745779D01*
X92467106Y-105524705D01*
X92678089Y-105524705D01*
X92679651Y-105737548D01*
X92687451Y-105936911D01*
X92701682Y-106113270D01*
X92709596Y-106180486D01*
X92721558Y-106257917D01*
X92733336Y-106303364D01*
X92745222Y-106318206D01*
X92750247Y-106315526D01*
X92758801Y-106293470D01*
X92765950Y-106246545D01*
X92768417Y-106216462D01*
X93034421Y-106216462D01*
X93037329Y-106232569D01*
X93040341Y-106228578D01*
X93050452Y-106200782D01*
X93063155Y-106155205D01*
X93071806Y-106123859D01*
X93088576Y-106081616D01*
X93102205Y-106071504D01*
X93111587Y-106092099D01*
X93115620Y-106141980D01*
X93113201Y-106219724D01*
X93115305Y-106252130D01*
X93125460Y-106266824D01*
X93125634Y-106266814D01*
X93134119Y-106248975D01*
X93145024Y-106197337D01*
X93158299Y-106112258D01*
X93170189Y-106022196D01*
X93400678Y-106022196D01*
X93403858Y-106081675D01*
X93411399Y-106118912D01*
X93424059Y-106140233D01*
X93438407Y-106152818D01*
X93448359Y-106149216D01*
X93451371Y-106116274D01*
X93453158Y-106087291D01*
X93457985Y-106046535D01*
X93466411Y-105993930D01*
X93479065Y-105926411D01*
X93496577Y-105840912D01*
X93519577Y-105734369D01*
X93548695Y-105603715D01*
X93584560Y-105445886D01*
X93627804Y-105257817D01*
X93629685Y-105249680D01*
X93734354Y-104826545D01*
X93823696Y-104511261D01*
X94277343Y-104511261D01*
X94285907Y-104519825D01*
X94294471Y-104511261D01*
X94285907Y-104502697D01*
X94277343Y-104511261D01*
X93823696Y-104511261D01*
X93833403Y-104477006D01*
X94294471Y-104477006D01*
X94303034Y-104485570D01*
X94311598Y-104477006D01*
X94303034Y-104468442D01*
X94294471Y-104477006D01*
X93833403Y-104477006D01*
X93845723Y-104433528D01*
X93861177Y-104385996D01*
X94287025Y-104385996D01*
X94293059Y-104392241D01*
X94299330Y-104390061D01*
X94315179Y-104402111D01*
X94319720Y-104396353D01*
X94333164Y-104362852D01*
X94353932Y-104304011D01*
X94380617Y-104223970D01*
X94411812Y-104126870D01*
X94446109Y-104016852D01*
X94472118Y-103931057D01*
X94502805Y-103826338D01*
X94518875Y-103768899D01*
X94637019Y-103768899D01*
X94638303Y-103787464D01*
X94646024Y-103798055D01*
X94661904Y-103784687D01*
X94687297Y-103745487D01*
X94723557Y-103678581D01*
X94772038Y-103582097D01*
X94782107Y-103561664D01*
X94823793Y-103477835D01*
X94862154Y-103401799D01*
X94893299Y-103341224D01*
X94913334Y-103303776D01*
X94934085Y-103264984D01*
X94965426Y-103202642D01*
X94996759Y-103137162D01*
X94997774Y-103134981D01*
X95068109Y-102996871D01*
X95158701Y-102839354D01*
X95266099Y-102667601D01*
X95386851Y-102486785D01*
X95517505Y-102302074D01*
X95654610Y-102118642D01*
X95746876Y-102002090D01*
X96011921Y-102002090D01*
X96015360Y-101999183D01*
X96036685Y-101976895D01*
X96072797Y-101937414D01*
X96118411Y-101886480D01*
X96148645Y-101853167D01*
X97753302Y-101853167D01*
X97761151Y-101865071D01*
X97767149Y-101859313D01*
X97786636Y-101831355D01*
X97813255Y-101787997D01*
X97831881Y-101757714D01*
X97854736Y-101725115D01*
X97868887Y-101709960D01*
X97870682Y-101715786D01*
X97856471Y-101746128D01*
X97846352Y-101771472D01*
X97844021Y-101800506D01*
X97850767Y-101799144D01*
X97876836Y-101777791D01*
X97918736Y-101736983D01*
X97972600Y-101680540D01*
X98034562Y-101612283D01*
X98078649Y-101563237D01*
X98231211Y-101403989D01*
X98373424Y-101273033D01*
X98507891Y-101167926D01*
X98529209Y-101151330D01*
X98562629Y-101117017D01*
X98575966Y-101090054D01*
X98577543Y-101073592D01*
X98588844Y-101061295D01*
X98608838Y-101078699D01*
X98634946Y-101124309D01*
X98641107Y-101138311D01*
X98664456Y-101208629D01*
X98688905Y-101305911D01*
X98713440Y-101424515D01*
X98737049Y-101558803D01*
X98758717Y-101703133D01*
X98777432Y-101851865D01*
X98792180Y-101999361D01*
X98800292Y-102098548D01*
X98807301Y-102201926D01*
X98811427Y-102296304D01*
X98811844Y-102325457D01*
X98812773Y-102390315D01*
X98811439Y-102492595D01*
X98807528Y-102611779D01*
X98801144Y-102756500D01*
X98798594Y-102807020D01*
X98790320Y-102943852D01*
X98780241Y-103081821D01*
X98769093Y-103212082D01*
X98757609Y-103325794D01*
X98746524Y-103414112D01*
X98742650Y-103440951D01*
X98731087Y-103526378D01*
X98722409Y-103598824D01*
X98717404Y-103651334D01*
X98716856Y-103676950D01*
X98721583Y-103687776D01*
X98733025Y-103678703D01*
X98748804Y-103641927D01*
X98768053Y-103581110D01*
X98789903Y-103499916D01*
X98813487Y-103402008D01*
X98837936Y-103291048D01*
X98862383Y-103170700D01*
X98885960Y-103044626D01*
X98907798Y-102916489D01*
X98927030Y-102789953D01*
X98934036Y-102728120D01*
X98941877Y-102619269D01*
X98947655Y-102489154D01*
X98951313Y-102345245D01*
X98952792Y-102195013D01*
X98952032Y-102045929D01*
X98948976Y-101905464D01*
X98943565Y-101781090D01*
X98935740Y-101680276D01*
X98932494Y-101651039D01*
X98921472Y-101562880D01*
X98906933Y-101456420D01*
X98890389Y-101342524D01*
X98873354Y-101232060D01*
X98862488Y-101163512D01*
X98849517Y-101078051D01*
X98841782Y-101018130D01*
X98839020Y-100978673D01*
X98840973Y-100954605D01*
X98847379Y-100940849D01*
X98857978Y-100932330D01*
X98891247Y-100911677D01*
X98920044Y-100889587D01*
X98919065Y-100878302D01*
X98886926Y-100875800D01*
X98822244Y-100880057D01*
X98750210Y-100888501D01*
X98656521Y-100903621D01*
X98571288Y-100921163D01*
X98532742Y-100930934D01*
X98464813Y-100954082D01*
X98452714Y-100960835D01*
X98407978Y-100985805D01*
X98400618Y-100991571D01*
X98346370Y-101034070D01*
X98274865Y-101099494D01*
X98134794Y-101252337D01*
X97993577Y-101438723D01*
X97851563Y-101658211D01*
X97846393Y-101666804D01*
X97795497Y-101755009D01*
X97764609Y-101816805D01*
X97753302Y-101853167D01*
X96148645Y-101853167D01*
X96229538Y-101764034D01*
X96501682Y-101487452D01*
X96769372Y-101247174D01*
X98050200Y-101247174D01*
X98060232Y-101238911D01*
X98087681Y-101211355D01*
X98126138Y-101170632D01*
X98169849Y-101123087D01*
X98213057Y-101075065D01*
X98250007Y-101032909D01*
X98274942Y-101002963D01*
X98282107Y-100991571D01*
X98280700Y-100991593D01*
X98236809Y-101006599D01*
X98185063Y-101044310D01*
X98132913Y-101097209D01*
X98087807Y-101157781D01*
X98057193Y-101218510D01*
X98051850Y-101234985D01*
X98050200Y-101247174D01*
X96769372Y-101247174D01*
X96782441Y-101235443D01*
X97079226Y-101001180D01*
X97139727Y-100955557D01*
X97190085Y-100915985D01*
X97223091Y-100888158D01*
X97233565Y-100876271D01*
X97211868Y-100875736D01*
X97166372Y-100892033D01*
X97117080Y-100915812D01*
X97102167Y-100923006D01*
X97024032Y-100966159D01*
X96936748Y-101018999D01*
X96890557Y-101049252D01*
X96845093Y-101079029D01*
X96746501Y-101149365D01*
X96587871Y-101277892D01*
X96427196Y-101428321D01*
X96373939Y-101482300D01*
X96295523Y-101565288D01*
X96221363Y-101647592D01*
X96154741Y-101725244D01*
X96098937Y-101794272D01*
X96057230Y-101850708D01*
X96032901Y-101890581D01*
X96029230Y-101909923D01*
X96031973Y-101926640D01*
X96023673Y-101961033D01*
X96014256Y-101988401D01*
X96011921Y-102002090D01*
X95746876Y-102002090D01*
X95794715Y-101941659D01*
X95833913Y-101895926D01*
X95903947Y-101819399D01*
X95991218Y-101727900D01*
X96091141Y-101625995D01*
X96199127Y-101518250D01*
X96310590Y-101409230D01*
X96420944Y-101303501D01*
X96525600Y-101205629D01*
X96619974Y-101120181D01*
X96650973Y-101091593D01*
X96678830Y-101062782D01*
X96687192Y-101049252D01*
X96680783Y-101048122D01*
X96647792Y-101056487D01*
X96592725Y-101077104D01*
X96521068Y-101107357D01*
X96438307Y-101144631D01*
X96349929Y-101186312D01*
X96261418Y-101229784D01*
X96178262Y-101272432D01*
X96105946Y-101311642D01*
X96049956Y-101344799D01*
X96015779Y-101369287D01*
X95979836Y-101393010D01*
X95930141Y-101412653D01*
X95920515Y-101415832D01*
X95873683Y-101444120D01*
X95813464Y-101494605D01*
X95812551Y-101495504D01*
X95744532Y-101562474D01*
X95671564Y-101642914D01*
X95599236Y-101731111D01*
X95532224Y-101822252D01*
X95503926Y-101863244D01*
X95448638Y-101943246D01*
X95396042Y-102019254D01*
X95354512Y-102079164D01*
X95353352Y-102080837D01*
X95323390Y-102126667D01*
X95312811Y-102148699D01*
X95319017Y-102149278D01*
X95339412Y-102130751D01*
X95371400Y-102095467D01*
X95412385Y-102045771D01*
X95459770Y-101984010D01*
X95465204Y-101976822D01*
X95523806Y-101908525D01*
X95608201Y-101822037D01*
X95716640Y-101719027D01*
X95847373Y-101601162D01*
X95998651Y-101470112D01*
X96009179Y-101461898D01*
X96009033Y-101466324D01*
X95988622Y-101491179D01*
X95950167Y-101533838D01*
X95895887Y-101591675D01*
X95816743Y-101678988D01*
X95716293Y-101799203D01*
X95610696Y-101934077D01*
X95503426Y-102078565D01*
X95397956Y-102227622D01*
X95297760Y-102376203D01*
X95206314Y-102519262D01*
X95127089Y-102651753D01*
X95063562Y-102768633D01*
X95019205Y-102864856D01*
X95010091Y-102887129D01*
X94978878Y-102959426D01*
X94941136Y-103043006D01*
X94903107Y-103123938D01*
X94841731Y-103251792D01*
X94792664Y-103355018D01*
X94754601Y-103436620D01*
X94725474Y-103501181D01*
X94703216Y-103553285D01*
X94686884Y-103594664D01*
X94685759Y-103597514D01*
X94671037Y-103638452D01*
X94656372Y-103684180D01*
X94642412Y-103736216D01*
X94637019Y-103768899D01*
X94518875Y-103768899D01*
X94528165Y-103735692D01*
X94546947Y-103663767D01*
X94557900Y-103615209D01*
X94559774Y-103594664D01*
X94559343Y-103593982D01*
X94539707Y-103584979D01*
X94514263Y-103607652D01*
X94483824Y-103660121D01*
X94449200Y-103740509D01*
X94411204Y-103846935D01*
X94370648Y-103977521D01*
X94328342Y-104130387D01*
X94311884Y-104196505D01*
X94299235Y-104255398D01*
X94293479Y-104293590D01*
X94295764Y-104304932D01*
X94309059Y-104300528D01*
X94308722Y-104315963D01*
X94294522Y-104356978D01*
X94294375Y-104357366D01*
X94287025Y-104385996D01*
X93861177Y-104385996D01*
X93964888Y-104067017D01*
X94092943Y-103723399D01*
X94114900Y-103668144D01*
X94140925Y-103602186D01*
X94160377Y-103552333D01*
X94170178Y-103526433D01*
X94171729Y-103520114D01*
X94166379Y-103518250D01*
X94147095Y-103532565D01*
X94110492Y-103565784D01*
X94053187Y-103620634D01*
X94036382Y-103639514D01*
X93994968Y-103701061D01*
X93946938Y-103788343D01*
X93894378Y-103896539D01*
X93839377Y-104020826D01*
X93784021Y-104156386D01*
X93730399Y-104298395D01*
X93680598Y-104442034D01*
X93636705Y-104582482D01*
X93622074Y-104634473D01*
X93588763Y-104766651D01*
X93555777Y-104913961D01*
X93555031Y-104917293D01*
X93521994Y-105079944D01*
X93490770Y-105248148D01*
X93462473Y-105415450D01*
X93438220Y-105575393D01*
X93419127Y-105721522D01*
X93406311Y-105847381D01*
X93400886Y-105946515D01*
X93400678Y-106022196D01*
X93170189Y-106022196D01*
X93173899Y-105994097D01*
X93191774Y-105843213D01*
X93211879Y-105659963D01*
X93234166Y-105444707D01*
X93246896Y-105318017D01*
X93259892Y-105185750D01*
X93269570Y-105082198D01*
X93276116Y-105004374D01*
X93279716Y-104949291D01*
X93280556Y-104913961D01*
X93278824Y-104895399D01*
X93274705Y-104890617D01*
X93268387Y-104896629D01*
X93259235Y-104912805D01*
X93237850Y-104964120D01*
X93212686Y-105036491D01*
X93186176Y-105121900D01*
X93160751Y-105212332D01*
X93138845Y-105299770D01*
X93122888Y-105376197D01*
X93116279Y-105415585D01*
X93103926Y-105499373D01*
X93091153Y-105596808D01*
X93078490Y-105702598D01*
X93066466Y-105811452D01*
X93055608Y-105918078D01*
X93046446Y-106017183D01*
X93039508Y-106103477D01*
X93035324Y-106171667D01*
X93034421Y-106216462D01*
X92768417Y-106216462D01*
X92772094Y-106171624D01*
X92777635Y-106065577D01*
X92782382Y-105972671D01*
X92792614Y-105815791D01*
X92805909Y-105644948D01*
X92821504Y-105468174D01*
X92838639Y-105293499D01*
X92856553Y-105128953D01*
X92874484Y-104982568D01*
X92891671Y-104862374D01*
X92911787Y-104740114D01*
X92949996Y-104534878D01*
X92991702Y-104349303D01*
X93039606Y-104173916D01*
X93096410Y-103999242D01*
X93164814Y-103815807D01*
X93247518Y-103614137D01*
X93293038Y-103508674D01*
X93348834Y-103386785D01*
X93400990Y-103283775D01*
X93453792Y-103191819D01*
X93511526Y-103103090D01*
X93578476Y-103009763D01*
X93602992Y-102976646D01*
X93658087Y-102901531D01*
X93709866Y-102830121D01*
X93749714Y-102774268D01*
X93750165Y-102773627D01*
X93782792Y-102728553D01*
X93806040Y-102698959D01*
X93814902Y-102691225D01*
X93811155Y-102701136D01*
X93794536Y-102737607D01*
X93766933Y-102795647D01*
X93730874Y-102869962D01*
X93688885Y-102955258D01*
X93644858Y-103046633D01*
X93567608Y-103216848D01*
X93488342Y-103402149D01*
X93411636Y-103591429D01*
X93342067Y-103773579D01*
X93284212Y-103937492D01*
X93270101Y-103980508D01*
X93230350Y-104110245D01*
X93193645Y-104242189D01*
X93160727Y-104372444D01*
X93132340Y-104497117D01*
X93109227Y-104612313D01*
X93092130Y-104714138D01*
X93081792Y-104798696D01*
X93078956Y-104862094D01*
X93084365Y-104900437D01*
X93098761Y-104909831D01*
X93106526Y-104906713D01*
X93113628Y-104900237D01*
X93121220Y-104886225D01*
X93130698Y-104860419D01*
X93143457Y-104818560D01*
X93160895Y-104756390D01*
X93184407Y-104669649D01*
X93201943Y-104604238D01*
X93477708Y-104604238D01*
X93478808Y-104617743D01*
X93487964Y-104603157D01*
X93505390Y-104557931D01*
X93510930Y-104542692D01*
X93534546Y-104481652D01*
X93569033Y-104395946D01*
X93612367Y-104290516D01*
X93662523Y-104170306D01*
X93717476Y-104040256D01*
X93752247Y-103962981D01*
X93796515Y-103871803D01*
X93838316Y-103791908D01*
X93856342Y-103759225D01*
X93895508Y-103688051D01*
X93943823Y-103600119D01*
X93996815Y-103503569D01*
X94050012Y-103406541D01*
X94114415Y-103289138D01*
X94167846Y-103192654D01*
X94212268Y-103114448D01*
X94251460Y-103048568D01*
X94289199Y-102989063D01*
X94329262Y-102929981D01*
X94375429Y-102865369D01*
X94431476Y-102789277D01*
X94501182Y-102695752D01*
X94563924Y-102612515D01*
X94668918Y-102477143D01*
X94765218Y-102357993D01*
X94851039Y-102257067D01*
X94924598Y-102176367D01*
X94984110Y-102117895D01*
X95012107Y-102095947D01*
X95034610Y-102095947D01*
X95036660Y-102116273D01*
X95041811Y-102118953D01*
X95048078Y-102104855D01*
X95046842Y-102095788D01*
X95036660Y-102093437D01*
X95034610Y-102095947D01*
X95012107Y-102095947D01*
X95027792Y-102083651D01*
X95053859Y-102075639D01*
X95075810Y-102068437D01*
X95101781Y-102040602D01*
X95112161Y-102026620D01*
X95145129Y-101987307D01*
X95192270Y-101934324D01*
X95248942Y-101872557D01*
X95310502Y-101806890D01*
X95372305Y-101742208D01*
X95429709Y-101683396D01*
X95478071Y-101635339D01*
X95512748Y-101602923D01*
X95529095Y-101591032D01*
X95531833Y-101591236D01*
X95544774Y-101604288D01*
X95543238Y-101607582D01*
X95525026Y-101632599D01*
X95488852Y-101678065D01*
X95437961Y-101740012D01*
X95375599Y-101814472D01*
X95305010Y-101897477D01*
X95137568Y-102104855D01*
X95088465Y-102165669D01*
X94876231Y-102464724D01*
X94693529Y-102764262D01*
X94684653Y-102780213D01*
X94626619Y-102887993D01*
X94566081Y-103005737D01*
X94504671Y-103129760D01*
X94444019Y-103256375D01*
X94385758Y-103381898D01*
X94331518Y-103502642D01*
X94323957Y-103520114D01*
X94282930Y-103614923D01*
X94241625Y-103715053D01*
X94209236Y-103799348D01*
X94187392Y-103864122D01*
X94177725Y-103905689D01*
X94181867Y-103920364D01*
X94187058Y-103913450D01*
X94205308Y-103880708D01*
X94233841Y-103825680D01*
X94270010Y-103753505D01*
X94311169Y-103669321D01*
X94334037Y-103622690D01*
X94380394Y-103531764D01*
X94424685Y-103449150D01*
X94462787Y-103382433D01*
X94490579Y-103339198D01*
X94492398Y-103336696D01*
X94518727Y-103297501D01*
X94554121Y-103241282D01*
X94594703Y-103174629D01*
X94636597Y-103104132D01*
X94675928Y-103036380D01*
X94708820Y-102977962D01*
X94731397Y-102935469D01*
X94739784Y-102915490D01*
X94741634Y-102910029D01*
X94756771Y-102887713D01*
X94758561Y-102885526D01*
X94819717Y-102805817D01*
X94890235Y-102706160D01*
X94963493Y-102596460D01*
X95032872Y-102486623D01*
X95091751Y-102386552D01*
X95138838Y-102304398D01*
X95213910Y-102179219D01*
X95295166Y-102049176D01*
X95378063Y-101921243D01*
X95458058Y-101802392D01*
X95530609Y-101699598D01*
X95591174Y-101619834D01*
X95610124Y-101595935D01*
X95647048Y-101546854D01*
X95671038Y-101511229D01*
X95677612Y-101495504D01*
X95675479Y-101494951D01*
X95648522Y-101497042D01*
X95596131Y-101504691D01*
X95524651Y-101516906D01*
X95517986Y-101518155D01*
X95440426Y-101532690D01*
X95350523Y-101551386D01*
X95261292Y-101574798D01*
X95185748Y-101603063D01*
X95116516Y-101640253D01*
X95094151Y-101656221D01*
X95046221Y-101690441D01*
X94967491Y-101757700D01*
X94872950Y-101846103D01*
X94856758Y-101861640D01*
X94788981Y-101928401D01*
X94745840Y-101974735D01*
X94726174Y-102002189D01*
X94728824Y-102012310D01*
X94752630Y-102006646D01*
X94755111Y-102005976D01*
X94755897Y-102016036D01*
X94737641Y-102045332D01*
X94703535Y-102088539D01*
X94645033Y-102159652D01*
X94578505Y-102246543D01*
X94513560Y-102339041D01*
X94448018Y-102440831D01*
X94379699Y-102555597D01*
X94306421Y-102687026D01*
X94226002Y-102838802D01*
X94194111Y-102901281D01*
X94136263Y-103014612D01*
X94035022Y-103218139D01*
X93967380Y-103355720D01*
X93882624Y-103529470D01*
X93810811Y-103678936D01*
X93750383Y-103807781D01*
X93699783Y-103919667D01*
X93657453Y-104018256D01*
X93621834Y-104107212D01*
X93591368Y-104190196D01*
X93564499Y-104270872D01*
X93539667Y-104352902D01*
X93515315Y-104439949D01*
X93498819Y-104503149D01*
X93484450Y-104565191D01*
X93477708Y-104604238D01*
X93201943Y-104604238D01*
X93215390Y-104554080D01*
X93265452Y-104371047D01*
X93328815Y-104153552D01*
X93391339Y-103958281D01*
X93455730Y-103778640D01*
X93524692Y-103608038D01*
X93600928Y-103439881D01*
X93687143Y-103267577D01*
X93786041Y-103084532D01*
X93890558Y-102901281D01*
X94003304Y-102901281D01*
X94011868Y-102909845D01*
X94020431Y-102901281D01*
X94011868Y-102892718D01*
X94003304Y-102901281D01*
X93890558Y-102901281D01*
X93900326Y-102884154D01*
X93940376Y-102816896D01*
X93995087Y-102729018D01*
X94050932Y-102643015D01*
X94104743Y-102563445D01*
X94153354Y-102494866D01*
X94193597Y-102441837D01*
X94222304Y-102408915D01*
X94236308Y-102400659D01*
X94236156Y-102404181D01*
X94225778Y-102430988D01*
X94203827Y-102477741D01*
X94173638Y-102537173D01*
X94133077Y-102615915D01*
X94082988Y-102719329D01*
X94050661Y-102796109D01*
X94035569Y-102847559D01*
X94037184Y-102874984D01*
X94040504Y-102878951D01*
X94062324Y-102877268D01*
X94094836Y-102846676D01*
X94136083Y-102789403D01*
X94184111Y-102707675D01*
X94263288Y-102567935D01*
X94439400Y-102291166D01*
X94628752Y-102035517D01*
X94826742Y-101807437D01*
X94890230Y-101739168D01*
X94933659Y-101687680D01*
X94951315Y-101656221D01*
X94941975Y-101643295D01*
X94904421Y-101647402D01*
X94837430Y-101667045D01*
X94739784Y-101700727D01*
X94629662Y-101739993D01*
X94495602Y-101788865D01*
X94474068Y-101797096D01*
X94386869Y-101830426D01*
X94299213Y-101866703D01*
X94228383Y-101899721D01*
X94170127Y-101931505D01*
X94120196Y-101964080D01*
X94074338Y-101999472D01*
X94063106Y-102009288D01*
X94028302Y-102039705D01*
X94027136Y-102040790D01*
X93956195Y-102106830D01*
X93872279Y-102190029D01*
X93795793Y-102273343D01*
X93724075Y-102360674D01*
X93654460Y-102455922D01*
X93584287Y-102562988D01*
X93510892Y-102685771D01*
X93431613Y-102828173D01*
X93343786Y-102994094D01*
X93244749Y-103187435D01*
X93220820Y-103234828D01*
X93151812Y-103373985D01*
X93095272Y-103493101D01*
X93047937Y-103599737D01*
X93006548Y-103701453D01*
X92967842Y-103805809D01*
X92928558Y-103920364D01*
X92919481Y-103947761D01*
X92865527Y-104117796D01*
X92822390Y-104269868D01*
X92787242Y-104415539D01*
X92757258Y-104566368D01*
X92729610Y-104733918D01*
X92708900Y-104900542D01*
X92692906Y-105096677D01*
X92682571Y-105307906D01*
X92678089Y-105524705D01*
X92467106Y-105524705D01*
X92467136Y-105523376D01*
X92477382Y-105322372D01*
X92493885Y-105134243D01*
X92517662Y-104950465D01*
X92549728Y-104762512D01*
X92591099Y-104561861D01*
X92642790Y-104339987D01*
X92651270Y-104306167D01*
X92690566Y-104165895D01*
X92740190Y-104007518D01*
X92797071Y-103839601D01*
X92858140Y-103670709D01*
X92920324Y-103509406D01*
X92980555Y-103364258D01*
X93035761Y-103243830D01*
X93101087Y-103112800D01*
X93197198Y-102929110D01*
X93288560Y-102767539D01*
X93379141Y-102621826D01*
X93472905Y-102485707D01*
X93573819Y-102352919D01*
X93685847Y-102217201D01*
X93697110Y-102203970D01*
X93748978Y-102141897D01*
X93790224Y-102090673D01*
X93816899Y-102055304D01*
X93825055Y-102040790D01*
X93823754Y-102040094D01*
X93799359Y-102043247D01*
X93751582Y-102057257D01*
X93687279Y-102079633D01*
X93613308Y-102107883D01*
X93536526Y-102139516D01*
X93463789Y-102172040D01*
X93392450Y-102209426D01*
X93320537Y-102257980D01*
X93252729Y-102317894D01*
X93185477Y-102393181D01*
X93115234Y-102487854D01*
X93038453Y-102605926D01*
X92951586Y-102751409D01*
X92933250Y-102782726D01*
X92890269Y-102852498D01*
X92860879Y-102893275D01*
X92844022Y-102906385D01*
X92838638Y-102893159D01*
X92840910Y-102880392D01*
X92857803Y-102836707D01*
X92888016Y-102774487D01*
X92927778Y-102700405D01*
X92973316Y-102621128D01*
X93020860Y-102543327D01*
X93066637Y-102473671D01*
X93106876Y-102418830D01*
X93128919Y-102390535D01*
X93154211Y-102355344D01*
X93164059Y-102337475D01*
X93163349Y-102333608D01*
X93144406Y-102327694D01*
X93103300Y-102337985D01*
X93044895Y-102361751D01*
X92974054Y-102396265D01*
X92895641Y-102438798D01*
X92814521Y-102486620D01*
X92735556Y-102537003D01*
X92663610Y-102587219D01*
X92603548Y-102634539D01*
X92560233Y-102676234D01*
X92551143Y-102686692D01*
X92479614Y-102774080D01*
X92400357Y-102878025D01*
X92321003Y-102987997D01*
X92249180Y-103093461D01*
X92192518Y-103183884D01*
X92169179Y-103224092D01*
X92109589Y-103329910D01*
X92050833Y-103438242D01*
X92018007Y-103501017D01*
X91996220Y-103542682D01*
X91949061Y-103636825D01*
X91924466Y-103689158D01*
X91912667Y-103714264D01*
X91890348Y-103768594D01*
X91887106Y-103777699D01*
X91865474Y-103834547D01*
X91836598Y-103906528D01*
X91805802Y-103980310D01*
X91790692Y-104017233D01*
X91771848Y-104070475D01*
X91755977Y-104127605D01*
X91742210Y-104193671D01*
X91729677Y-104273723D01*
X91717509Y-104372809D01*
X91704837Y-104495979D01*
X91702433Y-104522053D01*
X91690792Y-104648281D01*
X91689408Y-104663949D01*
X91680681Y-104773208D01*
X91679999Y-104785300D01*
X91676316Y-104850650D01*
X91676216Y-104895904D01*
X91177774Y-104895904D01*
X91179889Y-104886290D01*
X91187463Y-104844489D01*
X91335475Y-104844489D01*
X91339145Y-104842991D01*
X91364895Y-104830255D01*
X91405955Y-104808932D01*
X91452916Y-104789489D01*
X91542975Y-104779716D01*
X91614025Y-104785300D01*
X91614025Y-104631153D01*
X91534453Y-104626006D01*
X91518563Y-104625098D01*
X91473685Y-104626641D01*
X91444979Y-104640451D01*
X91418384Y-104672113D01*
X91417364Y-104673555D01*
X91384562Y-104727239D01*
X91356425Y-104784307D01*
X91351325Y-104796725D01*
X91338422Y-104831069D01*
X91335475Y-104844489D01*
X91187463Y-104844489D01*
X91193532Y-104810991D01*
X91202961Y-104756373D01*
X91216407Y-104689386D01*
X91228460Y-104639830D01*
X91231215Y-104629759D01*
X91241732Y-104574125D01*
X91245250Y-104522053D01*
X91241635Y-104483505D01*
X91230755Y-104468442D01*
X91219246Y-104472519D01*
X91194560Y-104493945D01*
X91180344Y-104506863D01*
X91160148Y-104511261D01*
X91149006Y-104511103D01*
X91125737Y-104528577D01*
X91111150Y-104542048D01*
X91082146Y-104554080D01*
X91067665Y-104567820D01*
X91049787Y-104611644D01*
X91031378Y-104681473D01*
X91003035Y-104808866D01*
X90925957Y-104808866D01*
X90923844Y-104801682D01*
X90893671Y-104696034D01*
X90862133Y-104583027D01*
X90831858Y-104472133D01*
X90911004Y-104472133D01*
X90919809Y-104517511D01*
X90925962Y-104541487D01*
X90941242Y-104591092D01*
X90954414Y-104622259D01*
X90961788Y-104633085D01*
X90969956Y-104636500D01*
X90978433Y-104622215D01*
X90989877Y-104585050D01*
X91006944Y-104519825D01*
X91014807Y-104492954D01*
X91040905Y-104419536D01*
X91079505Y-104322606D01*
X91128650Y-104206839D01*
X91186381Y-104076909D01*
X91250743Y-103937492D01*
X91262862Y-103911437D01*
X91306011Y-103812371D01*
X91333353Y-103737944D01*
X91344976Y-103689158D01*
X91340968Y-103667017D01*
X91321418Y-103672524D01*
X91286413Y-103706684D01*
X91236042Y-103770499D01*
X91184759Y-103847217D01*
X91122517Y-103953753D01*
X91058844Y-104074488D01*
X90998748Y-104199881D01*
X90947241Y-104320396D01*
X90944632Y-104326994D01*
X90921708Y-104389149D01*
X90911068Y-104433437D01*
X90911004Y-104472133D01*
X90831858Y-104472133D01*
X90831052Y-104469181D01*
X90802246Y-104361020D01*
X90777535Y-104265067D01*
X90758738Y-104187843D01*
X90739536Y-104081729D01*
X90735984Y-103978681D01*
X90819718Y-103978681D01*
X90821370Y-104089435D01*
X90833949Y-104196696D01*
X90834648Y-104200557D01*
X90847287Y-104258005D01*
X90860344Y-104298788D01*
X90871098Y-104314295D01*
X90882122Y-104302507D01*
X90903709Y-104266553D01*
X90931525Y-104214068D01*
X90961837Y-104152839D01*
X90990907Y-104090652D01*
X91014999Y-104035295D01*
X91030378Y-103994554D01*
X91033307Y-103976215D01*
X91023510Y-103980566D01*
X91006001Y-104006001D01*
X90990827Y-104028388D01*
X90977728Y-104034819D01*
X90979569Y-104016052D01*
X90995239Y-103976876D01*
X91020451Y-103926266D01*
X91050788Y-103873077D01*
X91081831Y-103826163D01*
X91096367Y-103805623D01*
X91138724Y-103738848D01*
X91179132Y-103666497D01*
X91213303Y-103597072D01*
X91236950Y-103539078D01*
X91245785Y-103501017D01*
X91239572Y-103465936D01*
X91218542Y-103428233D01*
X91197503Y-103411909D01*
X91174822Y-103412959D01*
X91137187Y-103432312D01*
X91083075Y-103463634D01*
X91117330Y-103424032D01*
X91151584Y-103384429D01*
X91113048Y-103404651D01*
X91087948Y-103421304D01*
X91074511Y-103439215D01*
X91073609Y-103442399D01*
X91058198Y-103467920D01*
X91027647Y-103510476D01*
X90987106Y-103562787D01*
X90981729Y-103569551D01*
X90934687Y-103632121D01*
X90892729Y-103693226D01*
X90864377Y-103740526D01*
X90846548Y-103786455D01*
X90828332Y-103874374D01*
X90819718Y-103978681D01*
X90735984Y-103978681D01*
X90734655Y-103940127D01*
X90757377Y-103810541D01*
X90767996Y-103773574D01*
X90787134Y-103706058D01*
X90811654Y-103618989D01*
X90839520Y-103519596D01*
X90851200Y-103477768D01*
X90927003Y-103477768D01*
X90932883Y-103491299D01*
X90937702Y-103488470D01*
X90960954Y-103465252D01*
X90996972Y-103423750D01*
X91040256Y-103370172D01*
X91102127Y-103295685D01*
X91179977Y-103210675D01*
X91263854Y-103126205D01*
X91349637Y-103045848D01*
X91433203Y-102973174D01*
X91510431Y-102911756D01*
X91577198Y-102865163D01*
X91629382Y-102836969D01*
X91662861Y-102830744D01*
X91699567Y-102829848D01*
X91744255Y-102814727D01*
X91789469Y-102798285D01*
X91845078Y-102789953D01*
X91857281Y-102789221D01*
X91910944Y-102777184D01*
X91966405Y-102755052D01*
X91975813Y-102750313D01*
X92085788Y-102701851D01*
X92205043Y-102659743D01*
X92320869Y-102628029D01*
X92420556Y-102610745D01*
X92421941Y-102610607D01*
X92479434Y-102603501D01*
X92524715Y-102592756D01*
X92567659Y-102574104D01*
X92618139Y-102543277D01*
X92686031Y-102496007D01*
X92728708Y-102465351D01*
X92784870Y-102424159D01*
X92826639Y-102392472D01*
X92847201Y-102375391D01*
X92849875Y-102371073D01*
X92837822Y-102363354D01*
X92800821Y-102362478D01*
X92745114Y-102367565D01*
X92676945Y-102377735D01*
X92602555Y-102392109D01*
X92528186Y-102409807D01*
X92460080Y-102429950D01*
X92382418Y-102459261D01*
X92280056Y-102503350D01*
X92165186Y-102556873D01*
X92046478Y-102615653D01*
X91932605Y-102675516D01*
X91832238Y-102732285D01*
X91793733Y-102752935D01*
X91755219Y-102767067D01*
X91737267Y-102765295D01*
X91743591Y-102748599D01*
X91777907Y-102717957D01*
X91844071Y-102671777D01*
X91971753Y-102595385D01*
X92117580Y-102520105D01*
X92271976Y-102450445D01*
X92425366Y-102390910D01*
X92568174Y-102346008D01*
X92585520Y-102341239D01*
X92633685Y-102326385D01*
X92659047Y-102315765D01*
X92656393Y-102311423D01*
X92643078Y-102312346D01*
X92597385Y-102319899D01*
X92533018Y-102333452D01*
X92459427Y-102351102D01*
X92425924Y-102359237D01*
X92345690Y-102376093D01*
X92273595Y-102387970D01*
X92222050Y-102392692D01*
X92144976Y-102393564D01*
X92232640Y-102362347D01*
X92298058Y-102337755D01*
X92354733Y-102311715D01*
X92383869Y-102290073D01*
X92388732Y-102270915D01*
X92373025Y-102262219D01*
X92329034Y-102256224D01*
X92263734Y-102254165D01*
X92183875Y-102255763D01*
X92096204Y-102260738D01*
X92007470Y-102268808D01*
X91924422Y-102279696D01*
X91853810Y-102293119D01*
X91781937Y-102309755D01*
X91704901Y-102326297D01*
X91659192Y-102333472D01*
X91643738Y-102330867D01*
X91657465Y-102318070D01*
X91699301Y-102294671D01*
X91768172Y-102260258D01*
X91815275Y-102237898D01*
X91906641Y-102197233D01*
X91995499Y-102160598D01*
X92067903Y-102133873D01*
X92096565Y-102124775D01*
X92268262Y-102084948D01*
X92463039Y-102061339D01*
X92674775Y-102054200D01*
X92897347Y-102063784D01*
X93124634Y-102090343D01*
X93367812Y-102127876D01*
X93484311Y-102079437D01*
X93502669Y-102071774D01*
X93567824Y-102043314D01*
X93604044Y-102023466D01*
X93613852Y-102009288D01*
X93599771Y-101997840D01*
X93564326Y-101986181D01*
X93540527Y-101979573D01*
X93404903Y-101946116D01*
X93275544Y-101922796D01*
X93142435Y-101908475D01*
X92995562Y-101902016D01*
X92824907Y-101902285D01*
X92790944Y-101902904D01*
X92683052Y-101905454D01*
X92602509Y-101908766D01*
X92543859Y-101913392D01*
X92501646Y-101919881D01*
X92470414Y-101928785D01*
X92444707Y-101940654D01*
X92439834Y-101943208D01*
X92386998Y-101961917D01*
X92310426Y-101975736D01*
X92204922Y-101985639D01*
X92161660Y-101989290D01*
X92007061Y-102013632D01*
X91863313Y-102053290D01*
X91741426Y-102105420D01*
X91740440Y-102105940D01*
X91694722Y-102122718D01*
X91640802Y-102133774D01*
X91555072Y-102151940D01*
X91488901Y-102187684D01*
X91429381Y-102248008D01*
X91385815Y-102309681D01*
X91333508Y-102396568D01*
X91277256Y-102499735D01*
X91220739Y-102611624D01*
X91167635Y-102724679D01*
X91121624Y-102831341D01*
X91086385Y-102924054D01*
X91065596Y-102995260D01*
X91061831Y-103015285D01*
X91062630Y-103028859D01*
X91072918Y-103027301D01*
X91096266Y-103008228D01*
X91136247Y-102969260D01*
X91196432Y-102908014D01*
X91280039Y-102826309D01*
X91437818Y-102694419D01*
X91598612Y-102590183D01*
X91768172Y-102509593D01*
X91800562Y-102497669D01*
X91814567Y-102495768D01*
X91804779Y-102506609D01*
X91769749Y-102531324D01*
X91708030Y-102571044D01*
X91618176Y-102626903D01*
X91610614Y-102631581D01*
X91428453Y-102756698D01*
X91261328Y-102895076D01*
X91118802Y-103038825D01*
X91118713Y-103038926D01*
X91066977Y-103102592D01*
X91026248Y-103166647D01*
X90992656Y-103239485D01*
X90962328Y-103329497D01*
X90931393Y-103445078D01*
X90927003Y-103477768D01*
X90851200Y-103477768D01*
X90868697Y-103415105D01*
X90892312Y-103332060D01*
X90924853Y-103222179D01*
X90956633Y-103119397D01*
X90984959Y-103032379D01*
X91007136Y-102969791D01*
X91011519Y-102958347D01*
X91041045Y-102880746D01*
X91069437Y-102805389D01*
X91091094Y-102747134D01*
X91104154Y-102712309D01*
X91139983Y-102624519D01*
X91182102Y-102532880D01*
X91234492Y-102429008D01*
X91301130Y-102304519D01*
X91304320Y-102298665D01*
X91341998Y-102228048D01*
X91371816Y-102169508D01*
X91390833Y-102128993D01*
X91396109Y-102112450D01*
X91392653Y-102112724D01*
X91365002Y-102123115D01*
X91314594Y-102145296D01*
X91247028Y-102176752D01*
X91167899Y-102214971D01*
X91067921Y-102262108D01*
X90954544Y-102312342D01*
X90843614Y-102358733D01*
X90749090Y-102395272D01*
X90677465Y-102421442D01*
X90586747Y-102455070D01*
X90505005Y-102485858D01*
X90443877Y-102509452D01*
X90384420Y-102531389D01*
X90331818Y-102545992D01*
X90309397Y-102545154D01*
X90317551Y-102530006D01*
X90356671Y-102501679D01*
X90427150Y-102461304D01*
X90444196Y-102451968D01*
X90519732Y-102407139D01*
X90613829Y-102347434D01*
X90719719Y-102277450D01*
X90830638Y-102201782D01*
X90939817Y-102125027D01*
X90945672Y-102120767D01*
X91058076Y-102120767D01*
X91079831Y-102111900D01*
X91128318Y-102084851D01*
X91204421Y-102039207D01*
X91319390Y-101968308D01*
X91390395Y-101923059D01*
X91632185Y-101923059D01*
X91633606Y-101937411D01*
X91639714Y-101937821D01*
X91668849Y-101926507D01*
X91709863Y-101902981D01*
X91752199Y-101873674D01*
X91785300Y-101845016D01*
X91785800Y-101844468D01*
X91780603Y-101842633D01*
X91754782Y-101852882D01*
X91717197Y-101870967D01*
X91676707Y-101892639D01*
X91642170Y-101913650D01*
X91632185Y-101923059D01*
X91390395Y-101923059D01*
X91427219Y-101899592D01*
X91513093Y-101841500D01*
X91581291Y-101790829D01*
X91636092Y-101744376D01*
X91681776Y-101698938D01*
X91722621Y-101651311D01*
X91739381Y-101630703D01*
X91782732Y-101581283D01*
X91812086Y-101553809D01*
X91825407Y-101549332D01*
X91820662Y-101568900D01*
X91795817Y-101613562D01*
X91789929Y-101623529D01*
X91768341Y-101669617D01*
X91759609Y-101705238D01*
X91756729Y-101724959D01*
X91739056Y-101758881D01*
X91734228Y-101764165D01*
X91732302Y-101777847D01*
X91759175Y-101777461D01*
X91813007Y-101763286D01*
X91889072Y-101736615D01*
X92033648Y-101736615D01*
X92042212Y-101745179D01*
X92050775Y-101736615D01*
X92042212Y-101728051D01*
X92033648Y-101736615D01*
X91889072Y-101736615D01*
X91891955Y-101735604D01*
X91931558Y-101721320D01*
X92067903Y-101721320D01*
X92072650Y-101727701D01*
X92092281Y-101725318D01*
X92110600Y-101711120D01*
X92112164Y-101703192D01*
X92094483Y-101704389D01*
X92081338Y-101710320D01*
X92067903Y-101721320D01*
X91931558Y-101721320D01*
X91932454Y-101720997D01*
X92039229Y-101687530D01*
X92207952Y-101687530D01*
X92222050Y-101693796D01*
X92231117Y-101692560D01*
X92233468Y-101682378D01*
X92230958Y-101680328D01*
X92210631Y-101682378D01*
X92207952Y-101687530D01*
X92039229Y-101687530D01*
X92052990Y-101683217D01*
X92190270Y-101646591D01*
X92288525Y-101623831D01*
X92570800Y-101623831D01*
X92592692Y-101636198D01*
X92641849Y-101640092D01*
X92715082Y-101634810D01*
X92723254Y-101633830D01*
X92822015Y-101622258D01*
X92892297Y-101614873D01*
X92939227Y-101611447D01*
X92967931Y-101611756D01*
X92983538Y-101615576D01*
X92991173Y-101622679D01*
X92999097Y-101627795D01*
X93035449Y-101638532D01*
X93093307Y-101649763D01*
X93164570Y-101659757D01*
X93171526Y-101660595D01*
X93271926Y-101676442D01*
X93301439Y-101682378D01*
X93394257Y-101701047D01*
X93403563Y-101703192D01*
X93528894Y-101732080D01*
X93546621Y-101736615D01*
X93666212Y-101767210D01*
X93796586Y-101804103D01*
X93910391Y-101840429D01*
X93916335Y-101842465D01*
X93922649Y-101844468D01*
X93979639Y-101862547D01*
X94032691Y-101876750D01*
X94064538Y-101882111D01*
X94086340Y-101876549D01*
X94122700Y-101861216D01*
X94163695Y-101840842D01*
X94200350Y-101820190D01*
X94223692Y-101804020D01*
X94224747Y-101797096D01*
X94224634Y-101797086D01*
X94204865Y-101791207D01*
X94159628Y-101776096D01*
X94095540Y-101754005D01*
X94019217Y-101727184D01*
X93792572Y-101654416D01*
X93556109Y-101597630D01*
X93326000Y-101564453D01*
X93093787Y-101553705D01*
X92851012Y-101564207D01*
X92810785Y-101567756D01*
X92724419Y-101576983D01*
X92652517Y-101586857D01*
X92601650Y-101596402D01*
X92578391Y-101604644D01*
X92570800Y-101623831D01*
X92288525Y-101623831D01*
X92336115Y-101612807D01*
X92482341Y-101583553D01*
X92620767Y-101560514D01*
X92743212Y-101545377D01*
X92841492Y-101539831D01*
X92859638Y-101539374D01*
X92907226Y-101532331D01*
X92928546Y-101518240D01*
X92930732Y-101515443D01*
X92958718Y-101506288D01*
X93013808Y-101499037D01*
X93090412Y-101493721D01*
X93182940Y-101490374D01*
X93285802Y-101489026D01*
X93393411Y-101489711D01*
X93500175Y-101492462D01*
X93600505Y-101497309D01*
X93688812Y-101504287D01*
X93759506Y-101513426D01*
X93854488Y-101531645D01*
X93970681Y-101557836D01*
X94090057Y-101588051D01*
X94203384Y-101619819D01*
X94301427Y-101650669D01*
X94374953Y-101678131D01*
X94391837Y-101685327D01*
X94429847Y-101699273D01*
X94460798Y-101702282D01*
X94497768Y-101694082D01*
X94553835Y-101674400D01*
X94602049Y-101655725D01*
X94643799Y-101637100D01*
X94662700Y-101625304D01*
X94662503Y-101621038D01*
X94641459Y-101604202D01*
X94595168Y-101580698D01*
X94529135Y-101552654D01*
X94448862Y-101522201D01*
X94359853Y-101491465D01*
X94283762Y-101467636D01*
X94828859Y-101467636D01*
X94850682Y-101465111D01*
X94870792Y-101461480D01*
X94871228Y-101478092D01*
X94870215Y-101492105D01*
X94888513Y-101512795D01*
X94888727Y-101512877D01*
X94907478Y-101513292D01*
X94906162Y-101488522D01*
X94903885Y-101467664D01*
X94912662Y-101454012D01*
X94921152Y-101459159D01*
X94928186Y-101485413D01*
X94933009Y-101517373D01*
X94952151Y-101529138D01*
X94985364Y-101509714D01*
X95005128Y-101492948D01*
X95014508Y-101489813D01*
X95008701Y-101509676D01*
X95005670Y-101528245D01*
X95021914Y-101539649D01*
X95049816Y-101534359D01*
X95054374Y-101518155D01*
X95032348Y-101495316D01*
X94986005Y-101470228D01*
X94946226Y-101454028D01*
X94885142Y-101435205D01*
X94847318Y-101434814D01*
X94829254Y-101452460D01*
X94828859Y-101467636D01*
X94283762Y-101467636D01*
X94267611Y-101462578D01*
X94177640Y-101437666D01*
X94162981Y-101433976D01*
X93934774Y-101387980D01*
X93682707Y-101356394D01*
X93413645Y-101339469D01*
X93134457Y-101337455D01*
X92852007Y-101350602D01*
X92573162Y-101379161D01*
X92504653Y-101388225D01*
X92605073Y-101335721D01*
X92678726Y-101303997D01*
X92788841Y-101270605D01*
X92930495Y-101238832D01*
X92961836Y-101232729D01*
X93033361Y-101219798D01*
X93099247Y-101210044D01*
X93166142Y-101202986D01*
X93240696Y-101198144D01*
X93329557Y-101195036D01*
X93439374Y-101193183D01*
X93576796Y-101192103D01*
X93998096Y-101189759D01*
X93996418Y-101146330D01*
X93989637Y-101117352D01*
X93966254Y-101097377D01*
X93917667Y-101079238D01*
X93896027Y-101072382D01*
X93844914Y-101054614D01*
X93810490Y-101040475D01*
X93804203Y-101038319D01*
X93765877Y-101031523D01*
X93701760Y-101023884D01*
X93618055Y-101015835D01*
X93520966Y-101007808D01*
X93416694Y-101000235D01*
X93311442Y-100993549D01*
X93211413Y-100988182D01*
X93122810Y-100984566D01*
X93051835Y-100983134D01*
X93004692Y-100984317D01*
X92979333Y-100986388D01*
X92904788Y-100992903D01*
X92838638Y-100999187D01*
X92761564Y-101006986D01*
X92864329Y-100972911D01*
X92944350Y-100948557D01*
X93126368Y-100905122D01*
X93328184Y-100870150D01*
X93540612Y-100844631D01*
X93754468Y-100829552D01*
X93960566Y-100825901D01*
X94149720Y-100834666D01*
X94214116Y-100840438D01*
X94326508Y-100851396D01*
X94440666Y-100863465D01*
X94550612Y-100875932D01*
X94650366Y-100888084D01*
X94733948Y-100899210D01*
X94795380Y-100908597D01*
X94828683Y-100915533D01*
X94839210Y-100918370D01*
X94859202Y-100916754D01*
X94856775Y-100902453D01*
X94835503Y-100881940D01*
X94798960Y-100861690D01*
X94768677Y-100850361D01*
X94684968Y-100825620D01*
X94575720Y-100799237D01*
X94446655Y-100772299D01*
X94303494Y-100745893D01*
X94151959Y-100721106D01*
X93997771Y-100699026D01*
X93846652Y-100680740D01*
X93782517Y-100675357D01*
X93645721Y-100672016D01*
X93496384Y-100677283D01*
X93339186Y-100690265D01*
X93178805Y-100710069D01*
X93019921Y-100735801D01*
X92867214Y-100766566D01*
X92725363Y-100801473D01*
X92599047Y-100839625D01*
X92492947Y-100880131D01*
X92411740Y-100922097D01*
X92360108Y-100964628D01*
X92343418Y-100979322D01*
X92309872Y-100991759D01*
X92304073Y-100993284D01*
X92271664Y-101014010D01*
X92216385Y-101058488D01*
X92138941Y-101126077D01*
X92040039Y-101216138D01*
X91920385Y-101328031D01*
X91780686Y-101461118D01*
X91621648Y-101614758D01*
X91609459Y-101626580D01*
X91520995Y-101711171D01*
X91432503Y-101793916D01*
X91350070Y-101869243D01*
X91279779Y-101931583D01*
X91227717Y-101975364D01*
X91197769Y-101999321D01*
X91142479Y-102043904D01*
X91099112Y-102079332D01*
X91075123Y-102099538D01*
X91062170Y-102111863D01*
X91058076Y-102120767D01*
X90945672Y-102120767D01*
X91040491Y-102051783D01*
X91125893Y-101986645D01*
X91204139Y-101923666D01*
X91296059Y-101845944D01*
X91390821Y-101761318D01*
X91493457Y-101665161D01*
X91609000Y-101552848D01*
X91742481Y-101419750D01*
X91827387Y-101335402D01*
X91955152Y-101211897D01*
X92087109Y-101087845D01*
X92218593Y-100967446D01*
X92344940Y-100854896D01*
X92429293Y-100782153D01*
X92532945Y-100782153D01*
X92556035Y-100784976D01*
X92576953Y-100782961D01*
X92615981Y-100770384D01*
X92648072Y-100758253D01*
X92709149Y-100741814D01*
X92792026Y-100722819D01*
X92890482Y-100702452D01*
X92998293Y-100681897D01*
X93109238Y-100662338D01*
X93217096Y-100644958D01*
X93315645Y-100630942D01*
X93398662Y-100621473D01*
X93453065Y-100614880D01*
X93507736Y-100602266D01*
X93530840Y-100586702D01*
X93531376Y-100585149D01*
X93526609Y-100571933D01*
X93498576Y-100564604D01*
X93441843Y-100561632D01*
X93392585Y-100560408D01*
X93368633Y-100558100D01*
X93373359Y-100553592D01*
X93403843Y-100545657D01*
X93422141Y-100541546D01*
X93539606Y-100522554D01*
X93683046Y-100509142D01*
X93845856Y-100501312D01*
X94021431Y-100499060D01*
X94203166Y-100502388D01*
X94384457Y-100511292D01*
X94558700Y-100525774D01*
X94719289Y-100545831D01*
X94754326Y-100551023D01*
X94839184Y-100562807D01*
X94909888Y-100571517D01*
X94959880Y-100576387D01*
X94982600Y-100576647D01*
X94980317Y-100568095D01*
X94951567Y-100552101D01*
X94902444Y-100531083D01*
X94839233Y-100507393D01*
X94768221Y-100483387D01*
X94695693Y-100461418D01*
X94627937Y-100443839D01*
X94611284Y-100439927D01*
X94557008Y-100425481D01*
X94534595Y-100416035D01*
X94542390Y-100411588D01*
X94578738Y-100412142D01*
X94641983Y-100417696D01*
X94730472Y-100428250D01*
X94842549Y-100443806D01*
X94866858Y-100447359D01*
X94948934Y-100459256D01*
X95016414Y-100468887D01*
X95062867Y-100475340D01*
X95081862Y-100477704D01*
X95078853Y-100471960D01*
X95056171Y-100454279D01*
X95052574Y-100451881D01*
X95000659Y-100426501D01*
X94922976Y-100398561D01*
X94826928Y-100369968D01*
X94719919Y-100342627D01*
X94609352Y-100318445D01*
X94502631Y-100299327D01*
X94407159Y-100287181D01*
X94370946Y-100284121D01*
X94229062Y-100276268D01*
X94076349Y-100273301D01*
X93920294Y-100274956D01*
X93768384Y-100280967D01*
X93628108Y-100291067D01*
X93506953Y-100304992D01*
X93412407Y-100322475D01*
X93368892Y-100333097D01*
X93256454Y-100360959D01*
X93170611Y-100383133D01*
X93106250Y-100401101D01*
X93058255Y-100416345D01*
X93021510Y-100430347D01*
X92990901Y-100444589D01*
X92989407Y-100445365D01*
X92954148Y-100466996D01*
X92898698Y-100504449D01*
X92829598Y-100553012D01*
X92753389Y-100607970D01*
X92676611Y-100664611D01*
X92605805Y-100718221D01*
X92547513Y-100764088D01*
X92541239Y-100769322D01*
X92532945Y-100782153D01*
X92429293Y-100782153D01*
X92461485Y-100754392D01*
X92563562Y-100670133D01*
X92646506Y-100606316D01*
X92677564Y-100583840D01*
X92895553Y-100432092D01*
X93092614Y-100306162D01*
X93134033Y-100282619D01*
X93267788Y-100282619D01*
X93295398Y-100285508D01*
X93353690Y-100278915D01*
X93441955Y-100262698D01*
X93454833Y-100260184D01*
X93541108Y-100247750D01*
X93653542Y-100237930D01*
X93794813Y-100230531D01*
X93967600Y-100225365D01*
X94099572Y-100223387D01*
X94329073Y-100225375D01*
X94535789Y-100235591D01*
X94726768Y-100254840D01*
X94909057Y-100283927D01*
X95089703Y-100323657D01*
X95275756Y-100374837D01*
X95316690Y-100387009D01*
X95391539Y-100408391D01*
X95441759Y-100420614D01*
X95472944Y-100424589D01*
X95490691Y-100421227D01*
X95500596Y-100411438D01*
X95493453Y-100395254D01*
X95458510Y-100370446D01*
X95400282Y-100339399D01*
X95323594Y-100304044D01*
X95233273Y-100266312D01*
X95134145Y-100228134D01*
X95031034Y-100191439D01*
X94928766Y-100158159D01*
X94832168Y-100130225D01*
X94746063Y-100109566D01*
X94705015Y-100103115D01*
X95142279Y-100103115D01*
X95295862Y-100145399D01*
X95319219Y-100151979D01*
X95502819Y-100213843D01*
X95698016Y-100297430D01*
X95910066Y-100404962D01*
X95916718Y-100408567D01*
X95921862Y-100411438D01*
X96014430Y-100463101D01*
X96038413Y-100477704D01*
X96097640Y-100513767D01*
X96174088Y-100566186D01*
X96251514Y-100625984D01*
X96337656Y-100698782D01*
X96440255Y-100790206D01*
X96467722Y-100814849D01*
X96532168Y-100870971D01*
X96586703Y-100916120D01*
X96587537Y-100916754D01*
X96626263Y-100946184D01*
X96645784Y-100957054D01*
X96657482Y-100955350D01*
X96690958Y-100941388D01*
X96698710Y-100934400D01*
X96701997Y-100915812D01*
X96689262Y-100886939D01*
X96658284Y-100844474D01*
X96606843Y-100785106D01*
X96532720Y-100705526D01*
X96470306Y-100643498D01*
X96373149Y-100556879D01*
X96265465Y-100469742D01*
X96152318Y-100385519D01*
X96038770Y-100307644D01*
X96005884Y-100287079D01*
X96118543Y-100287079D01*
X96195617Y-100356676D01*
X96198498Y-100359272D01*
X96249671Y-100402635D01*
X96280856Y-100423162D01*
X96290760Y-100420277D01*
X96278086Y-100393402D01*
X96270777Y-100384049D01*
X96235270Y-100353435D01*
X96188022Y-100323759D01*
X96118543Y-100287079D01*
X96005884Y-100287079D01*
X95929881Y-100239551D01*
X95830714Y-100184674D01*
X95778680Y-100161101D01*
X95949571Y-100161101D01*
X95949838Y-100164666D01*
X95972960Y-100184607D01*
X96011408Y-100212356D01*
X96045752Y-100230271D01*
X96061773Y-100238107D01*
X96075725Y-100256245D01*
X96077058Y-100261859D01*
X96096522Y-100272219D01*
X96105719Y-100267705D01*
X96093096Y-100250261D01*
X96056241Y-100222528D01*
X96008457Y-100193490D01*
X96143222Y-100193490D01*
X96156675Y-100211577D01*
X96193486Y-100240549D01*
X96235623Y-100267705D01*
X96251281Y-100277796D01*
X96310194Y-100314062D01*
X96371260Y-100353324D01*
X96416525Y-100384209D01*
X96449296Y-100407309D01*
X96474183Y-100420277D01*
X96478119Y-100422328D01*
X96497397Y-100419378D01*
X96517386Y-100400072D01*
X96525285Y-100388633D01*
X96528343Y-100350932D01*
X96515494Y-100329774D01*
X96696219Y-100329774D01*
X96703749Y-100350932D01*
X96704204Y-100352209D01*
X96733398Y-100394106D01*
X96781553Y-100452057D01*
X96792379Y-100464545D01*
X96852799Y-100538386D01*
X96912891Y-100617485D01*
X96961092Y-100686729D01*
X96970483Y-100701126D01*
X97005755Y-100753394D01*
X97033366Y-100791564D01*
X97048000Y-100808205D01*
X97066755Y-100811227D01*
X97100807Y-100803837D01*
X97130779Y-100788460D01*
X97141694Y-100771038D01*
X97125559Y-100724941D01*
X97090791Y-100656330D01*
X97051666Y-100592693D01*
X97333475Y-100592693D01*
X97344552Y-100617377D01*
X97350303Y-100626804D01*
X97377245Y-100664323D01*
X97417565Y-100716114D01*
X97462555Y-100771038D01*
X97464916Y-100773920D01*
X97487564Y-100801263D01*
X97527710Y-100851875D01*
X97545527Y-100876271D01*
X97555455Y-100889864D01*
X97565812Y-100908574D01*
X97566352Y-100912145D01*
X97583266Y-100923061D01*
X97591233Y-100917133D01*
X97590930Y-100885230D01*
X97581932Y-100852152D01*
X97839481Y-100852152D01*
X97865006Y-100917133D01*
X97871606Y-100933935D01*
X97893155Y-100983875D01*
X97914553Y-101014397D01*
X97937462Y-101019374D01*
X97967501Y-101002843D01*
X97982309Y-100989344D01*
X97989846Y-100960835D01*
X97966223Y-100929074D01*
X97910319Y-100891888D01*
X97839481Y-100852152D01*
X97581932Y-100852152D01*
X97575542Y-100828664D01*
X97545796Y-100750786D01*
X97543925Y-100746403D01*
X97506351Y-100683670D01*
X97451528Y-100636818D01*
X97370961Y-100598444D01*
X97343286Y-100588923D01*
X97333475Y-100592693D01*
X97051666Y-100592693D01*
X97043947Y-100580138D01*
X96990586Y-100506108D01*
X96944812Y-100452639D01*
X96885724Y-100401636D01*
X96816934Y-100363997D01*
X96772771Y-100346025D01*
X96726128Y-100330899D01*
X96699150Y-100327073D01*
X96696219Y-100329774D01*
X96515494Y-100329774D01*
X96504222Y-100311212D01*
X96457594Y-100273608D01*
X96393132Y-100242259D01*
X96315509Y-100221303D01*
X96259633Y-100211154D01*
X96206159Y-100200542D01*
X96174208Y-100193102D01*
X96155501Y-100188896D01*
X96143222Y-100193490D01*
X96008457Y-100193490D01*
X95998651Y-100187531D01*
X95974864Y-100174219D01*
X95949571Y-100161101D01*
X95778680Y-100161101D01*
X95746331Y-100146446D01*
X95681794Y-100128301D01*
X95678234Y-100127854D01*
X95628559Y-100123392D01*
X95554989Y-100118680D01*
X95466857Y-100114251D01*
X95373500Y-100110641D01*
X95142279Y-100103115D01*
X94705015Y-100103115D01*
X94600325Y-100086662D01*
X94416079Y-100073200D01*
X94220167Y-100072656D01*
X94020051Y-100084346D01*
X93823192Y-100107584D01*
X93637051Y-100141688D01*
X93469090Y-100185971D01*
X93326770Y-100239750D01*
X93307452Y-100248959D01*
X93271569Y-100270389D01*
X93267788Y-100282619D01*
X93134033Y-100282619D01*
X93269579Y-100205573D01*
X93427281Y-100129848D01*
X93566554Y-100078507D01*
X93612456Y-100065816D01*
X93727464Y-100042008D01*
X93863658Y-100023766D01*
X94023587Y-100010918D01*
X94209800Y-100003288D01*
X94424846Y-100000703D01*
X94671274Y-100002988D01*
X94705555Y-100003625D01*
X94850596Y-100006922D01*
X94993595Y-100011060D01*
X95128108Y-100015796D01*
X95247694Y-100020885D01*
X95345912Y-100026085D01*
X95416318Y-100031151D01*
X95474177Y-100036349D01*
X95594057Y-100046960D01*
X95718183Y-100057787D01*
X95827377Y-100067149D01*
X96067794Y-100095335D01*
X96382337Y-100156072D01*
X96684338Y-100241724D01*
X96966686Y-100350522D01*
X97011605Y-100370439D01*
X97116045Y-100416755D01*
X97223764Y-100464532D01*
X97317464Y-100506098D01*
X97344593Y-100518262D01*
X97453450Y-100569221D01*
X97566359Y-100624982D01*
X97676239Y-100681820D01*
X97776012Y-100736010D01*
X97858601Y-100783828D01*
X97916925Y-100821548D01*
X97983119Y-100869051D01*
X98039731Y-100908979D01*
X98078882Y-100934256D01*
X98106311Y-100947568D01*
X98127756Y-100951596D01*
X98148955Y-100949025D01*
X98175648Y-100942538D01*
X98213041Y-100933303D01*
X98277880Y-100916958D01*
X98357841Y-100896589D01*
X98443404Y-100874612D01*
X98444684Y-100874282D01*
X98572807Y-100843753D01*
X98694335Y-100819437D01*
X98804018Y-100802040D01*
X98896607Y-100792268D01*
X98966855Y-100790828D01*
X99009511Y-100798426D01*
X99017283Y-100802613D01*
X99033393Y-100817924D01*
X99048490Y-100845382D01*
X99064640Y-100890320D01*
X99083903Y-100958071D01*
X99108343Y-101053969D01*
X99111011Y-101064684D01*
X99140479Y-101175303D01*
X99167165Y-101258704D01*
X99193264Y-101321018D01*
X99220974Y-101368375D01*
X99222822Y-101371056D01*
X99253929Y-101421603D01*
X99295820Y-101496770D01*
X99345376Y-101590446D01*
X99399475Y-101696521D01*
X99454998Y-101808883D01*
X99508823Y-101921422D01*
X99557831Y-102028028D01*
X99569080Y-102052217D01*
X99612672Y-102137167D01*
X99645309Y-102195013D01*
X99664282Y-102228641D01*
X99715008Y-102310631D01*
X99728952Y-102332245D01*
X99793966Y-102441686D01*
X99866221Y-102574984D01*
X99942480Y-102725265D01*
X100019508Y-102885652D01*
X100094065Y-103049270D01*
X100162917Y-103209242D01*
X100222826Y-103358693D01*
X100270555Y-103490747D01*
X100317967Y-103639238D01*
X100417815Y-104020938D01*
X100484848Y-104400961D01*
X100519615Y-104782980D01*
X100522668Y-105170668D01*
X100517148Y-105323244D01*
X100507103Y-105528815D01*
X100494476Y-105708321D01*
X100478655Y-105866672D01*
X100459030Y-106008778D01*
X100434989Y-106139547D01*
X100405920Y-106263890D01*
X100371211Y-106386716D01*
X100355265Y-106434098D01*
X100337113Y-106479315D01*
X100321068Y-106512321D01*
X100309880Y-106528257D01*
X100306297Y-106522264D01*
X100313070Y-106489481D01*
X100314807Y-106481760D01*
X100321749Y-106439543D01*
X100330851Y-106373278D01*
X100341131Y-106290393D01*
X100351606Y-106198314D01*
X100353568Y-106179270D01*
X100363055Y-106041215D01*
X100367579Y-105879744D01*
X100367424Y-105703077D01*
X100362870Y-105519433D01*
X100354201Y-105337034D01*
X100341698Y-105164099D01*
X100325644Y-105008848D01*
X100306322Y-104879501D01*
X100302780Y-104860355D01*
X100267520Y-104683316D01*
X100228864Y-104510704D01*
X100188168Y-104347434D01*
X100146790Y-104198423D01*
X100106086Y-104068588D01*
X100067414Y-103962844D01*
X100032129Y-103886109D01*
X100014889Y-103856382D01*
X100003097Y-103843127D01*
X100000934Y-103856518D01*
X100008219Y-103898682D01*
X100024767Y-103971747D01*
X100048269Y-104082630D01*
X100071971Y-104231433D01*
X100090001Y-104397209D01*
X100102951Y-104585645D01*
X100111414Y-104802428D01*
X100112543Y-104897787D01*
X100113423Y-104972050D01*
X100113813Y-105004968D01*
G37*
G36*
X97442890Y-105873582D02*
G01*
X97471441Y-105886272D01*
X97511947Y-105909783D01*
X97553895Y-105937319D01*
X97586772Y-105962085D01*
X97600067Y-105977285D01*
X97598159Y-105987349D01*
X97585399Y-105990797D01*
X97555633Y-105978652D01*
X97503089Y-105949244D01*
X97472271Y-105929447D01*
X97438699Y-105901369D01*
X97426060Y-105880847D01*
X97438589Y-105872893D01*
X97442890Y-105873582D01*
G37*
G36*
X94774039Y-105761565D02*
G01*
X94765475Y-105770128D01*
X94756912Y-105761565D01*
X94765475Y-105753001D01*
X94774039Y-105761565D01*
G37*
G36*
X97206840Y-107481137D02*
G01*
X97242620Y-107490517D01*
X97257518Y-107501874D01*
X97256655Y-107505360D01*
X97235501Y-107514204D01*
X97192839Y-107513031D01*
X97137799Y-107501843D01*
X97113158Y-107491009D01*
X97112108Y-107480247D01*
X97126129Y-107476266D01*
X97163552Y-107475724D01*
X97206840Y-107481137D01*
G37*
G36*
X88295350Y-112071489D02*
G01*
X88300467Y-112110554D01*
X88306527Y-112178059D01*
X88326577Y-112275265D01*
X88356619Y-112373474D01*
X88392491Y-112457016D01*
X88404773Y-112483065D01*
X88427088Y-112553096D01*
X88437064Y-112622754D01*
X88433784Y-112681913D01*
X88416332Y-112720445D01*
X88405737Y-112730921D01*
X88394922Y-112741009D01*
X88395004Y-112735441D01*
X88396734Y-112704760D01*
X88399944Y-112656218D01*
X88400904Y-112616601D01*
X88394368Y-112569696D01*
X88376050Y-112517281D01*
X88342727Y-112447610D01*
X88338558Y-112439373D01*
X88301970Y-112357534D01*
X88280924Y-112283806D01*
X88270332Y-112200841D01*
X88267517Y-112148740D01*
X88269766Y-112091117D01*
X88280449Y-112065879D01*
X88281188Y-112065443D01*
X88295350Y-112071489D01*
G37*
G36*
X88202089Y-113311505D02*
G01*
X88191516Y-113324679D01*
X88157121Y-113347195D01*
X88104725Y-113375093D01*
X88038673Y-113411557D01*
X87967065Y-113458248D01*
X87910801Y-113502253D01*
X87895777Y-113516117D01*
X87856127Y-113559036D01*
X87835172Y-113599257D01*
X87825358Y-113649827D01*
X87824365Y-113661024D01*
X87825913Y-113704905D01*
X87837318Y-113754553D01*
X87860514Y-113814443D01*
X87897437Y-113889049D01*
X87950023Y-113982846D01*
X88020206Y-114100309D01*
X88050044Y-114149923D01*
X88104916Y-114247034D01*
X88140892Y-114323134D01*
X88159051Y-114382745D01*
X88160471Y-114430388D01*
X88146229Y-114470586D01*
X88117406Y-114507861D01*
X88116291Y-114509019D01*
X88078482Y-114540895D01*
X88058328Y-114544702D01*
X88059548Y-114523623D01*
X88085858Y-114480843D01*
X88098983Y-114463365D01*
X88117510Y-114431437D01*
X88117660Y-114402369D01*
X88101637Y-114359163D01*
X88088250Y-114331236D01*
X88057286Y-114274565D01*
X88016613Y-114205176D01*
X87971513Y-114132279D01*
X87947603Y-114093857D01*
X87891159Y-113996093D01*
X87842112Y-113901377D01*
X87803418Y-113816036D01*
X87778033Y-113746394D01*
X87768914Y-113698779D01*
X87780379Y-113615679D01*
X87822422Y-113532637D01*
X87896377Y-113460816D01*
X87922429Y-113442294D01*
X87988402Y-113400435D01*
X88056896Y-113362459D01*
X88120188Y-113332195D01*
X88170556Y-113313471D01*
X88200278Y-113310118D01*
X88202089Y-113311505D01*
G37*
G36*
X89895187Y-113892789D02*
G01*
X89909845Y-113905664D01*
X89899214Y-113916929D01*
X89867026Y-113922792D01*
X89838865Y-113918539D01*
X89824208Y-113905664D01*
X89834838Y-113894400D01*
X89867026Y-113888537D01*
X89895187Y-113892789D01*
G37*
G36*
X94551382Y-103603507D02*
G01*
X94542818Y-103612070D01*
X94534255Y-103603507D01*
X94542818Y-103594943D01*
X94551382Y-103603507D01*
G37*
G36*
X97184901Y-105091503D02*
G01*
X97210824Y-105114936D01*
X97223264Y-105139838D01*
X97223260Y-105140275D01*
X97213779Y-105153864D01*
X97193122Y-105145456D01*
X97171881Y-105119285D01*
X97163496Y-105097429D01*
X97167853Y-105085030D01*
X97184901Y-105091503D01*
G37*
G36*
X88111463Y-110943693D02*
G01*
X88109178Y-110947717D01*
X88084046Y-110956317D01*
X88040099Y-110959744D01*
X87995035Y-110958390D01*
X87978572Y-110954033D01*
X87996007Y-110946981D01*
X88047235Y-110937554D01*
X88059424Y-110935959D01*
X88096585Y-110935694D01*
X88111463Y-110943693D01*
G37*
G36*
X90013579Y-113915512D02*
G01*
X90086229Y-113940098D01*
X90097610Y-113944446D01*
X90180409Y-113983469D01*
X90252663Y-114034133D01*
X90322393Y-114103050D01*
X90397617Y-114196831D01*
X90487940Y-114331572D01*
X90595749Y-114543623D01*
X90673220Y-114770600D01*
X90686800Y-114820577D01*
X90706896Y-114890115D01*
X90723888Y-114943860D01*
X90735117Y-114973109D01*
X90741827Y-114988106D01*
X90736355Y-114999818D01*
X90703966Y-114998800D01*
X90692408Y-114997078D01*
X90674076Y-114989933D01*
X90658949Y-114972943D01*
X90643989Y-114940304D01*
X90626155Y-114886209D01*
X90602408Y-114804855D01*
X90588420Y-114756317D01*
X90560109Y-114661739D01*
X90538014Y-114594912D01*
X90520653Y-114551967D01*
X90506546Y-114529036D01*
X90494212Y-114522252D01*
X90478397Y-114533289D01*
X90444703Y-114565326D01*
X90398490Y-114613299D01*
X90344834Y-114672117D01*
X90306956Y-114714577D01*
X90222946Y-114807776D01*
X90157006Y-114878867D01*
X90106109Y-114930682D01*
X90067228Y-114966053D01*
X90037337Y-114987812D01*
X90013408Y-114998791D01*
X89992415Y-115001821D01*
X89974151Y-115001167D01*
X89963641Y-114995853D01*
X89969979Y-114981011D01*
X89995669Y-114951790D01*
X90043212Y-114903336D01*
X90067031Y-114879144D01*
X90127334Y-114816428D01*
X90192368Y-114747178D01*
X90258088Y-114675881D01*
X90320455Y-114607021D01*
X90375428Y-114545084D01*
X90418963Y-114494557D01*
X90447021Y-114459923D01*
X90455559Y-114445670D01*
X90444788Y-114446222D01*
X90410008Y-114459750D01*
X90359028Y-114484499D01*
X90299343Y-114516416D01*
X90238447Y-114551451D01*
X90183835Y-114585551D01*
X90143001Y-114614663D01*
X90098081Y-114649140D01*
X90033259Y-114696186D01*
X89968502Y-114740949D01*
X89911612Y-114783123D01*
X89838957Y-114845217D01*
X89777080Y-114906226D01*
X89760220Y-114924372D01*
X89712166Y-114970555D01*
X89674806Y-114994690D01*
X89641349Y-115001549D01*
X89633786Y-115001413D01*
X89617665Y-114998584D01*
X89615744Y-114988912D01*
X89630721Y-114968250D01*
X89665295Y-114932453D01*
X89722162Y-114877375D01*
X89765257Y-114836598D01*
X89891983Y-114722877D01*
X90015846Y-114620427D01*
X90132887Y-114532131D01*
X90239147Y-114460873D01*
X90330668Y-114409538D01*
X90403489Y-114381010D01*
X90418894Y-114376520D01*
X90429640Y-114367949D01*
X90426896Y-114350512D01*
X90409022Y-114317534D01*
X90374382Y-114262341D01*
X90334178Y-114201044D01*
X90292565Y-114140859D01*
X90259718Y-114096625D01*
X90251289Y-114087144D01*
X90206233Y-114049701D01*
X90145359Y-114010431D01*
X90079292Y-113975161D01*
X90018655Y-113949719D01*
X89974073Y-113939933D01*
X89958237Y-113937322D01*
X89944100Y-113922792D01*
X89946691Y-113913542D01*
X89968074Y-113906782D01*
X90013579Y-113915512D01*
G37*
G36*
X92838638Y-102935536D02*
G01*
X92830074Y-102944100D01*
X92821510Y-102935536D01*
X92830074Y-102926972D01*
X92838638Y-102935536D01*
G37*
G36*
X96995919Y-107449826D02*
G01*
X97037968Y-107454797D01*
X97060553Y-107465745D01*
X97058789Y-107476118D01*
X97035136Y-107481207D01*
X96997866Y-107477749D01*
X96957788Y-107465745D01*
X96942435Y-107457462D01*
X96949104Y-107451951D01*
X96986750Y-107449822D01*
X96995919Y-107449826D01*
G37*
G36*
X95424378Y-104963911D02*
G01*
X95498080Y-104975614D01*
X95582156Y-104993046D01*
X95669976Y-105014885D01*
X95754910Y-105039812D01*
X95830330Y-105066504D01*
X95877614Y-105084658D01*
X95965609Y-105115964D01*
X96048165Y-105142590D01*
X96112230Y-105160200D01*
X96172604Y-105173214D01*
X96266625Y-105190982D01*
X96367946Y-105207927D01*
X96469744Y-105223109D01*
X96565196Y-105235587D01*
X96647478Y-105244422D01*
X96709767Y-105248674D01*
X96745240Y-105247402D01*
X96767758Y-105243627D01*
X96792755Y-105246162D01*
X96791809Y-105258326D01*
X96767469Y-105275187D01*
X96722286Y-105291808D01*
X96708343Y-105295617D01*
X96649632Y-105312078D01*
X96601911Y-105326028D01*
X96563298Y-105333230D01*
X96529119Y-105330823D01*
X96516023Y-105327691D01*
X96477621Y-105331238D01*
X96462778Y-105339815D01*
X96461666Y-105357207D01*
X96478061Y-105393017D01*
X96481414Y-105399787D01*
X96492238Y-105431720D01*
X96487571Y-105444707D01*
X96481769Y-105442302D01*
X96460682Y-105418702D01*
X96436352Y-105378060D01*
X96432599Y-105370768D01*
X96412329Y-105337281D01*
X96388522Y-105316932D01*
X96351047Y-105303762D01*
X96289777Y-105291810D01*
X96232322Y-105283507D01*
X96184928Y-105279978D01*
X96160650Y-105282436D01*
X96157789Y-105287521D01*
X96165165Y-105313769D01*
X96189373Y-105352025D01*
X96200362Y-105366851D01*
X96223489Y-105404459D01*
X96224572Y-105419920D01*
X96206325Y-105413771D01*
X96171461Y-105386552D01*
X96122696Y-105338800D01*
X96116364Y-105332171D01*
X96053079Y-105273634D01*
X95986486Y-105229728D01*
X95901359Y-105190233D01*
X95884236Y-105183352D01*
X95819420Y-105159457D01*
X95765480Y-105142719D01*
X95732674Y-105136413D01*
X95727000Y-105135934D01*
X95689203Y-105119912D01*
X95650128Y-105088227D01*
X95635734Y-105074434D01*
X95597525Y-105049601D01*
X95543022Y-105029270D01*
X95463310Y-105009693D01*
X95437260Y-105003856D01*
X95379776Y-104988869D01*
X95341520Y-104975721D01*
X95329698Y-104966729D01*
X95334609Y-104962978D01*
X95367678Y-104959259D01*
X95424378Y-104963911D01*
G37*
G36*
X96793307Y-111885063D02*
G01*
X96831265Y-111891028D01*
X96846460Y-111901753D01*
X96844713Y-111905593D01*
X96820851Y-111915082D01*
X96777950Y-111918881D01*
X96762593Y-111918444D01*
X96724635Y-111912479D01*
X96709440Y-111901753D01*
X96711187Y-111897914D01*
X96735049Y-111888425D01*
X96777950Y-111884626D01*
X96793307Y-111885063D01*
G37*
G36*
X97267139Y-105223760D02*
G01*
X97268339Y-105226129D01*
X97264689Y-105254834D01*
X97241631Y-105290912D01*
X97207428Y-105324094D01*
X97170337Y-105344109D01*
X97142612Y-105352027D01*
X97125360Y-105357362D01*
X97128416Y-105351290D01*
X97145732Y-105324022D01*
X97173674Y-105281996D01*
X97198130Y-105247378D01*
X97228067Y-105214176D01*
X97249623Y-105207206D01*
X97267139Y-105223760D01*
G37*
G36*
X96639160Y-111388367D02*
G01*
X96677118Y-111394332D01*
X96692313Y-111405057D01*
X96690566Y-111408897D01*
X96666704Y-111418386D01*
X96623803Y-111422185D01*
X96608446Y-111421748D01*
X96570488Y-111415783D01*
X96555293Y-111405057D01*
X96557040Y-111401218D01*
X96580902Y-111391729D01*
X96623803Y-111387930D01*
X96639160Y-111388367D01*
G37*
G36*
X90989494Y-112759039D02*
G01*
X90997924Y-112772179D01*
X91035288Y-112844119D01*
X91074946Y-112938497D01*
X91113804Y-113046264D01*
X91148771Y-113158369D01*
X91176753Y-113265762D01*
X91194659Y-113359394D01*
X91200940Y-113395677D01*
X91228130Y-113477441D01*
X91275744Y-113547316D01*
X91350101Y-113615726D01*
X91457390Y-113685377D01*
X91585255Y-113733143D01*
X91718097Y-113747605D01*
X91853810Y-113728291D01*
X91913902Y-113710257D01*
X92001788Y-113671387D01*
X92071654Y-113618294D01*
X92131186Y-113544424D01*
X92188066Y-113443223D01*
X92263706Y-113305565D01*
X92359501Y-113154463D01*
X92468336Y-113000263D01*
X92583544Y-112852407D01*
X92698459Y-112720337D01*
X92773416Y-112639730D01*
X92716108Y-112604442D01*
X92648659Y-112571041D01*
X92555659Y-112537672D01*
X92452572Y-112510073D01*
X92351799Y-112492071D01*
X92326138Y-112488672D01*
X92284589Y-112480918D01*
X92271392Y-112472721D01*
X92282379Y-112462293D01*
X92303687Y-112454530D01*
X92344909Y-112464837D01*
X92373000Y-112474759D01*
X92418038Y-112474238D01*
X92420570Y-112473651D01*
X92476348Y-112473930D01*
X92553524Y-112491425D01*
X92646034Y-112523523D01*
X92747816Y-112567613D01*
X92852809Y-112621083D01*
X92954951Y-112681321D01*
X93048178Y-112745716D01*
X93124524Y-112810863D01*
X93239242Y-112942527D01*
X93334782Y-113099035D01*
X93343620Y-113117097D01*
X93380120Y-113201279D01*
X93418847Y-113302562D01*
X93455593Y-113408925D01*
X93486148Y-113508347D01*
X93506301Y-113588807D01*
X93531166Y-113672722D01*
X93571683Y-113736107D01*
X93633687Y-113783265D01*
X93723510Y-113820962D01*
X93727175Y-113822175D01*
X93772048Y-113835606D01*
X93817622Y-113845625D01*
X93869487Y-113852628D01*
X93933233Y-113857012D01*
X94014449Y-113859174D01*
X94118726Y-113859509D01*
X94251652Y-113858414D01*
X94297890Y-113858022D01*
X94402326Y-113857811D01*
X94506220Y-113858346D01*
X94592719Y-113859570D01*
X94745384Y-113862846D01*
X94766725Y-113794336D01*
X94769489Y-113785474D01*
X94783906Y-113739329D01*
X94806089Y-113668398D01*
X94834184Y-113578608D01*
X94866336Y-113475883D01*
X94900692Y-113366150D01*
X94914301Y-113322663D01*
X94941487Y-113235100D01*
X94964516Y-113158703D01*
X94984353Y-113088976D01*
X95001959Y-113021419D01*
X95018299Y-112951535D01*
X95034336Y-112874825D01*
X95051033Y-112786791D01*
X95069353Y-112682935D01*
X95090260Y-112558760D01*
X95114716Y-112409766D01*
X95143686Y-112231457D01*
X95150273Y-112191023D01*
X95175181Y-112042076D01*
X95196057Y-111924637D01*
X95213310Y-111836732D01*
X95227349Y-111776386D01*
X95238584Y-111741627D01*
X95247422Y-111730479D01*
X95248780Y-111730504D01*
X95261502Y-111740205D01*
X95254142Y-111771891D01*
X95244666Y-111804139D01*
X95239476Y-111844683D01*
X95239357Y-111854906D01*
X95235607Y-111898886D01*
X95228251Y-111953136D01*
X95225370Y-111971369D01*
X95216566Y-112029057D01*
X95210276Y-112073028D01*
X95207601Y-112090165D01*
X95199049Y-112139666D01*
X95186133Y-112211683D01*
X95170059Y-112299520D01*
X95152033Y-112396480D01*
X95141064Y-112456780D01*
X95124567Y-112554882D01*
X95111376Y-112642738D01*
X95102629Y-112712566D01*
X95099460Y-112756586D01*
X95099324Y-112762606D01*
X95093589Y-112814590D01*
X95080824Y-112889293D01*
X95062968Y-112977975D01*
X95041961Y-113071892D01*
X95019742Y-113162304D01*
X94998250Y-113240467D01*
X94979426Y-113297640D01*
X94971333Y-113321135D01*
X94954112Y-113375460D01*
X94931013Y-113451012D01*
X94904033Y-113541234D01*
X94875172Y-113639568D01*
X94851031Y-113721337D01*
X94825000Y-113806545D01*
X94802979Y-113875435D01*
X94786747Y-113922462D01*
X94778085Y-113942081D01*
X94776327Y-113943099D01*
X94749433Y-113944534D01*
X94699937Y-113939651D01*
X94637019Y-113929283D01*
X94541919Y-113914602D01*
X94400296Y-113904027D01*
X94236861Y-113903633D01*
X94046123Y-113913271D01*
X94031001Y-113914317D01*
X93939016Y-113918958D01*
X93868312Y-113918138D01*
X93807801Y-113911284D01*
X93746392Y-113897827D01*
X93690900Y-113880637D01*
X93621443Y-113851551D01*
X93562610Y-113818973D01*
X93521850Y-113787168D01*
X93506608Y-113760406D01*
X93498957Y-113740183D01*
X93474049Y-113710234D01*
X93472771Y-113709039D01*
X93447205Y-113670749D01*
X93430301Y-113621121D01*
X93426792Y-113603915D01*
X93407954Y-113529145D01*
X93381053Y-113437340D01*
X93349395Y-113338545D01*
X93316288Y-113242806D01*
X93285038Y-113160167D01*
X93258953Y-113100674D01*
X93244593Y-113073000D01*
X93205301Y-113004850D01*
X93167256Y-112948197D01*
X93135026Y-112909481D01*
X93113179Y-112895145D01*
X93107979Y-112897963D01*
X93084748Y-112921637D01*
X93049648Y-112964171D01*
X93008029Y-113019253D01*
X92999440Y-113030966D01*
X92945046Y-113101964D01*
X92888116Y-113172047D01*
X92839662Y-113227586D01*
X92814592Y-113252675D01*
X92761401Y-113301978D01*
X92689741Y-113365919D01*
X92604251Y-113440546D01*
X92509571Y-113521904D01*
X92410342Y-113606040D01*
X92311204Y-113689000D01*
X92216797Y-113766829D01*
X92131761Y-113835575D01*
X92060737Y-113891283D01*
X92058995Y-113892620D01*
X92000759Y-113939128D01*
X91947436Y-113984732D01*
X91910371Y-114019739D01*
X91899696Y-114032680D01*
X91867542Y-114090499D01*
X91839180Y-114166487D01*
X91818598Y-114248553D01*
X91809787Y-114324603D01*
X91805352Y-114368232D01*
X91794498Y-114410924D01*
X91788292Y-114425351D01*
X91778692Y-114435041D01*
X91767755Y-114414101D01*
X91759729Y-114367645D01*
X91761755Y-114298793D01*
X91772696Y-114219435D01*
X91791028Y-114140525D01*
X91815225Y-114073020D01*
X91828096Y-114046775D01*
X91862223Y-113993863D01*
X91909375Y-113943840D01*
X91978045Y-113887002D01*
X92026277Y-113849602D01*
X92255840Y-113665824D01*
X92456459Y-113494647D01*
X92629881Y-113334471D01*
X92777852Y-113183698D01*
X92902118Y-113040728D01*
X92927462Y-113009312D01*
X92982431Y-112939227D01*
X93017801Y-112888524D01*
X93035446Y-112852266D01*
X93037240Y-112825516D01*
X93025055Y-112803336D01*
X93000767Y-112780790D01*
X92995926Y-112776895D01*
X92942970Y-112739423D01*
X92887014Y-112706106D01*
X92824062Y-112673094D01*
X92706007Y-112822656D01*
X92654491Y-112888117D01*
X92576736Y-112988225D01*
X92513308Y-113072351D01*
X92459437Y-113147207D01*
X92410351Y-113219505D01*
X92361277Y-113295958D01*
X92307445Y-113383277D01*
X92296182Y-113401734D01*
X92226918Y-113511619D01*
X92167669Y-113596118D01*
X92113478Y-113659647D01*
X92059387Y-113706620D01*
X92000440Y-113741454D01*
X91931678Y-113768563D01*
X91848145Y-113792364D01*
X91823397Y-113798399D01*
X91704901Y-113817217D01*
X91601357Y-113813667D01*
X91503408Y-113787618D01*
X91497131Y-113785181D01*
X91412677Y-113743726D01*
X91330161Y-113689411D01*
X91259867Y-113629827D01*
X91212078Y-113572565D01*
X91203377Y-113555555D01*
X91182499Y-113503808D01*
X91156568Y-113430259D01*
X91128059Y-113342081D01*
X91099449Y-113246444D01*
X91091066Y-113217320D01*
X91055619Y-113096815D01*
X91026658Y-113004143D01*
X91002542Y-112934869D01*
X90981631Y-112884562D01*
X90962286Y-112848788D01*
X90942868Y-112823113D01*
X90930349Y-112811333D01*
X90914680Y-112807412D01*
X90892271Y-112817339D01*
X90856869Y-112844121D01*
X90802220Y-112890767D01*
X90753702Y-112933644D01*
X90681261Y-112999074D01*
X90595730Y-113077327D01*
X90502606Y-113163288D01*
X90407389Y-113251840D01*
X90315577Y-113337868D01*
X90232667Y-113416257D01*
X90164158Y-113481890D01*
X90115548Y-113529653D01*
X90107551Y-113537675D01*
X90035185Y-113605463D01*
X89964180Y-113660866D01*
X89883320Y-113711827D01*
X89781389Y-113766289D01*
X89733082Y-113791958D01*
X89660456Y-113839939D01*
X89609329Y-113893106D01*
X89572009Y-113960576D01*
X89540805Y-114051465D01*
X89533551Y-114078499D01*
X89520453Y-114165903D01*
X89523785Y-114263019D01*
X89528459Y-114305676D01*
X89535019Y-114352325D01*
X89544188Y-114402301D01*
X89557496Y-114463050D01*
X89576477Y-114542024D01*
X89602660Y-114646671D01*
X89613451Y-114714368D01*
X89608433Y-114829663D01*
X89577109Y-114941526D01*
X89572448Y-114951837D01*
X89549462Y-114987439D01*
X89527983Y-115001821D01*
X89523173Y-115001388D01*
X89514756Y-114991726D01*
X89518556Y-114964177D01*
X89535114Y-114911902D01*
X89545519Y-114878207D01*
X89560575Y-114812279D01*
X89566737Y-114758397D01*
X89561045Y-114710726D01*
X89545609Y-114646018D01*
X89524326Y-114577309D01*
X89501100Y-114517183D01*
X89479833Y-114478224D01*
X89473990Y-114455748D01*
X89468345Y-114406078D01*
X89463702Y-114336866D01*
X89460702Y-114255567D01*
X89460307Y-114237894D01*
X89459310Y-114152457D01*
X89461288Y-114091131D01*
X89467272Y-114045296D01*
X89478293Y-114006330D01*
X89495382Y-113965610D01*
X89534055Y-113894630D01*
X89593566Y-113821715D01*
X89673000Y-113758128D01*
X89779405Y-113697209D01*
X89823097Y-113673973D01*
X89867606Y-113646650D01*
X89912944Y-113613698D01*
X89963674Y-113571282D01*
X90024356Y-113515571D01*
X90099550Y-113442731D01*
X90193818Y-113348928D01*
X90291032Y-113252846D01*
X90409693Y-113139191D01*
X90521840Y-113035660D01*
X90624093Y-112945230D01*
X90713070Y-112870875D01*
X90785392Y-112815570D01*
X90837678Y-112782291D01*
X90839690Y-112781240D01*
X90872542Y-112760785D01*
X90886109Y-112745944D01*
X90874515Y-112724349D01*
X90847580Y-112694029D01*
X90817295Y-112667030D01*
X90795654Y-112655361D01*
X90772207Y-112663391D01*
X90724664Y-112691413D01*
X90659409Y-112736388D01*
X90580559Y-112795024D01*
X90492233Y-112864030D01*
X90398547Y-112940114D01*
X90303619Y-113019984D01*
X90211568Y-113100349D01*
X90126512Y-113177915D01*
X90052567Y-113249393D01*
X89958105Y-113331740D01*
X89860820Y-113387571D01*
X89756385Y-113416488D01*
X89638320Y-113420266D01*
X89500141Y-113400681D01*
X89484867Y-113397510D01*
X89408187Y-113380169D01*
X89338137Y-113362279D01*
X89288241Y-113347253D01*
X89253468Y-113331354D01*
X89187273Y-113290146D01*
X89113696Y-113235185D01*
X89041796Y-113173877D01*
X88980633Y-113113633D01*
X88939266Y-113061860D01*
X88919135Y-113032329D01*
X88897217Y-113012172D01*
X88870654Y-113007272D01*
X88833373Y-113018396D01*
X88779300Y-113046313D01*
X88702360Y-113091788D01*
X88678382Y-113105703D01*
X88598079Y-113147883D01*
X88506715Y-113191229D01*
X88419757Y-113228272D01*
X88372087Y-113247136D01*
X88308897Y-113272346D01*
X88262291Y-113291194D01*
X88239919Y-113300602D01*
X88237685Y-113298251D01*
X88257046Y-113280354D01*
X88274517Y-113268227D01*
X88320263Y-113241006D01*
X88382837Y-113206502D01*
X88454012Y-113169351D01*
X88489398Y-113150880D01*
X88579205Y-113100659D01*
X88667732Y-113047296D01*
X88740103Y-112999616D01*
X88863483Y-112912495D01*
X88853505Y-112822465D01*
X88848907Y-112788182D01*
X88839750Y-112742242D01*
X88830743Y-112718298D01*
X88828725Y-112717131D01*
X88803223Y-112720580D01*
X88757620Y-112736878D01*
X88700213Y-112763174D01*
X88689750Y-112768401D01*
X88574931Y-112822678D01*
X88480414Y-112859976D01*
X88398763Y-112882375D01*
X88322537Y-112891960D01*
X88244300Y-112890813D01*
X88107063Y-112867714D01*
X87986387Y-112817331D01*
X87878440Y-112737508D01*
X87804379Y-112669240D01*
X87535450Y-112723239D01*
X87480727Y-112733964D01*
X87389980Y-112750565D01*
X87312058Y-112763360D01*
X87253856Y-112771251D01*
X87222269Y-112773139D01*
X87207806Y-112772535D01*
X87157500Y-112778052D01*
X87111115Y-112791704D01*
X87083816Y-112809508D01*
X87070054Y-112821979D01*
X87039792Y-112833900D01*
X87011126Y-112835204D01*
X86998561Y-112823508D01*
X86998770Y-112822229D01*
X87017026Y-112806345D01*
X87058261Y-112785722D01*
X87113256Y-112763763D01*
X87172795Y-112743868D01*
X87227660Y-112729437D01*
X87268633Y-112723871D01*
X87280556Y-112723158D01*
X87325583Y-112717003D01*
X87389922Y-112705832D01*
X87465997Y-112691225D01*
X87546234Y-112674763D01*
X87623055Y-112658025D01*
X87688887Y-112642591D01*
X87736152Y-112630042D01*
X87757275Y-112621957D01*
X87758877Y-112617620D01*
X87751605Y-112589379D01*
X87730106Y-112543693D01*
X87698638Y-112488259D01*
X87661457Y-112430770D01*
X87622820Y-112378922D01*
X87614150Y-112367290D01*
X87599139Y-112337564D01*
X87588427Y-112296049D01*
X87580418Y-112235257D01*
X87573515Y-112147701D01*
X87569181Y-112083852D01*
X87555639Y-111903042D01*
X87541761Y-111749853D01*
X87526832Y-111619250D01*
X87510141Y-111506198D01*
X87490972Y-111405664D01*
X87468613Y-111312613D01*
X87442351Y-111222009D01*
X87426821Y-111169437D01*
X87414114Y-111119939D01*
X87409238Y-111091616D01*
X87413856Y-111081698D01*
X87444828Y-111060794D01*
X87499157Y-111040207D01*
X87529075Y-111032088D01*
X87591564Y-111017797D01*
X87665862Y-111002893D01*
X87744416Y-110988655D01*
X87819669Y-110976361D01*
X87884067Y-110967289D01*
X87930055Y-110962717D01*
X87950077Y-110963923D01*
X87950153Y-110964016D01*
X87936537Y-110969863D01*
X87895534Y-110979909D01*
X87833368Y-110992768D01*
X87756264Y-111007056D01*
X87680243Y-111021146D01*
X87603062Y-111036916D01*
X87541969Y-111050973D01*
X87505821Y-111061397D01*
X87504839Y-111061772D01*
X87486491Y-111068677D01*
X87473603Y-111076525D01*
X87466465Y-111089955D01*
X87465368Y-111113608D01*
X87470601Y-111152126D01*
X87482455Y-111210148D01*
X87501218Y-111292314D01*
X87527182Y-111403266D01*
X87547487Y-111498390D01*
X87569041Y-111617003D01*
X87586778Y-111733122D01*
X87598162Y-111831452D01*
X87609267Y-111959793D01*
X87619500Y-112072635D01*
X87629312Y-112161626D01*
X87640351Y-112232107D01*
X87654264Y-112289421D01*
X87672702Y-112338909D01*
X87697311Y-112385912D01*
X87729740Y-112435772D01*
X87771638Y-112493831D01*
X87824653Y-112565430D01*
X87837299Y-112582475D01*
X87897359Y-112658748D01*
X87950106Y-112713589D01*
X88004255Y-112753689D01*
X88068519Y-112785737D01*
X88151614Y-112816423D01*
X88196339Y-112830322D01*
X88265673Y-112844365D01*
X88331988Y-112844843D01*
X88403305Y-112830610D01*
X88487640Y-112800525D01*
X88593013Y-112753441D01*
X88603134Y-112748647D01*
X88677841Y-112712239D01*
X88740193Y-112680116D01*
X88783927Y-112655603D01*
X88802780Y-112642027D01*
X88804759Y-112635523D01*
X88802672Y-112598547D01*
X88791095Y-112539314D01*
X88772092Y-112464960D01*
X88747727Y-112382618D01*
X88720064Y-112299427D01*
X88691165Y-112222520D01*
X88663095Y-112159034D01*
X88642891Y-112120321D01*
X88591724Y-112040988D01*
X88543392Y-111993385D01*
X88509590Y-111964282D01*
X88505450Y-111946285D01*
X88527494Y-111943710D01*
X88572051Y-111960741D01*
X88576151Y-111962930D01*
X88630473Y-112005946D01*
X88682694Y-112074961D01*
X88733904Y-112172019D01*
X88785195Y-112299168D01*
X88837660Y-112458450D01*
X88859701Y-112536051D01*
X88884158Y-112634154D01*
X88903508Y-112725074D01*
X88914859Y-112796164D01*
X88917425Y-112817091D01*
X88939379Y-112920791D01*
X88977966Y-113007992D01*
X89038420Y-113087962D01*
X89125977Y-113169970D01*
X89150286Y-113189691D01*
X89283169Y-113277622D01*
X89421201Y-113338022D01*
X89557985Y-113367961D01*
X89618746Y-113372889D01*
X89684083Y-113370757D01*
X89733333Y-113354154D01*
X89776604Y-113319068D01*
X89840925Y-113319068D01*
X89853809Y-113322947D01*
X89886122Y-113305059D01*
X89936002Y-113266054D01*
X90001589Y-113206583D01*
X90147359Y-113070479D01*
X90309441Y-112927242D01*
X90455015Y-112808103D01*
X90582096Y-112714745D01*
X90629777Y-112681322D01*
X90682527Y-112641751D01*
X90718458Y-112611543D01*
X90731662Y-112595415D01*
X90730983Y-112593206D01*
X90711767Y-112574066D01*
X90671476Y-112544665D01*
X90617366Y-112510400D01*
X90531021Y-112466713D01*
X90419298Y-112436156D01*
X90304100Y-112436173D01*
X90178127Y-112466025D01*
X90120394Y-112487374D01*
X90073021Y-112508951D01*
X90048070Y-112525452D01*
X90032861Y-112547938D01*
X90004156Y-112613368D01*
X89980479Y-112696338D01*
X89964695Y-112785674D01*
X89959668Y-112870208D01*
X89959865Y-112890590D01*
X89950903Y-113037291D01*
X89922997Y-113156805D01*
X89875839Y-113250540D01*
X89849331Y-113292772D01*
X89840925Y-113319068D01*
X89776604Y-113319068D01*
X89776694Y-113318995D01*
X89824361Y-113261191D01*
X89897494Y-113164327D01*
X89910275Y-112922690D01*
X89914944Y-112846950D01*
X89928649Y-112714490D01*
X89951047Y-112606193D01*
X89985840Y-112515572D01*
X90036733Y-112436144D01*
X90107432Y-112361424D01*
X90201640Y-112284929D01*
X90323063Y-112200173D01*
X90472816Y-112105495D01*
X90681178Y-111987738D01*
X90918286Y-111867412D01*
X91185848Y-111743659D01*
X91485570Y-111615621D01*
X91652828Y-111538757D01*
X91866022Y-111420655D01*
X92081699Y-111280590D01*
X92292685Y-111123282D01*
X92491807Y-110953452D01*
X92524312Y-110925388D01*
X92553393Y-110904497D01*
X92564599Y-110902614D01*
X92557330Y-110916440D01*
X92530907Y-110948266D01*
X92491807Y-110988337D01*
X92451160Y-111025469D01*
X92393820Y-111075166D01*
X92324810Y-111133325D01*
X92248859Y-111196126D01*
X92170699Y-111259747D01*
X92095059Y-111320368D01*
X92026669Y-111374168D01*
X91970259Y-111417328D01*
X91930558Y-111446025D01*
X91912297Y-111456440D01*
X91909859Y-111456813D01*
X91882770Y-111467861D01*
X91836353Y-111491141D01*
X91779071Y-111522460D01*
X91707725Y-111560515D01*
X91617923Y-111604417D01*
X91535530Y-111641124D01*
X91459548Y-111672698D01*
X91368596Y-111710639D01*
X91288604Y-111744145D01*
X91207791Y-111779058D01*
X91068706Y-111843080D01*
X90926792Y-111912761D01*
X90785435Y-111986086D01*
X90648023Y-112061042D01*
X90517943Y-112135615D01*
X90398582Y-112207790D01*
X90293328Y-112275552D01*
X90205568Y-112336889D01*
X90138688Y-112389784D01*
X90096076Y-112432225D01*
X90081119Y-112462196D01*
X90081549Y-112473461D01*
X90088566Y-112480171D01*
X90111092Y-112462585D01*
X90132764Y-112447089D01*
X90196895Y-112419093D01*
X90278164Y-112398183D01*
X90365181Y-112386901D01*
X90446558Y-112387785D01*
X90557414Y-112413622D01*
X90675771Y-112468293D01*
X90791535Y-112547026D01*
X90844025Y-112595415D01*
X90898259Y-112645411D01*
X90989494Y-112759039D01*
G37*
%TD*%
%LPC*%
D10*
%TO.C,H5*%
X75000000Y-99250000D03*
%TD*%
%TO.C,H7*%
X53500000Y-70000000D03*
%TD*%
%TO.C,H3*%
X90750000Y-39000000D03*
%TD*%
%TO.C,H2*%
X116000000Y-99250000D03*
%TD*%
%TO.C,H6*%
X71000000Y-32000000D03*
%TD*%
%TO.C,H4*%
X33250000Y-46000000D03*
%TD*%
%TO.C,H1*%
X30500000Y-92750000D03*
%TD*%
%TO.C,H8*%
X90750000Y-77000000D03*
%TD*%
M02*
