%FSLAX45Y45*%
G04 Gerber Fmt 4.5, Leading zero omitted, Abs format (unit mm)*
G04 Created by KiCad (PCBNEW (5.99.0-12766-g4a3658027e)) date 2021-10-23 13:29:27*
%MOMM*%
%LPD*%
G01*
G04 APERTURE LIST*
%TA.AperFunction,Profile*%
%ADD10C,0.050000*%
%TD*%
%ADD11C,0.200000*%
%ADD12C,0.320000*%
G04 APERTURE END LIST*
D10*
X3375000Y-1500000D02*
X1475000Y-2700000D01*
X13825000Y-11500000D02*
X13825000Y-9600000D01*
X10975000Y-7700000D02*
X12875000Y-7700000D01*
X10975000Y-2000000D02*
X7175000Y-2000000D01*
X10975000Y-7700000D02*
X10975000Y-2000000D01*
X7175000Y-1300000D02*
X5275000Y-1300000D01*
X5275000Y-1300000D02*
X3375000Y-1500000D01*
X7175000Y-2000000D02*
X7175000Y-1300000D01*
X1475000Y-2700000D02*
X1475000Y-11500000D01*
X1475000Y-11500000D02*
X13825000Y-11500000D01*
X13825000Y-9600000D02*
X12875000Y-7700000D01*
D11*
D12*
X2890000Y-9115000D02*
X3210000Y-9435000D01*
X3210000Y-9115000D02*
X2890000Y-9435000D01*
X3165000Y-4440000D02*
X3485000Y-4760000D01*
X3485000Y-4440000D02*
X3165000Y-4760000D01*
X5190000Y-6840000D02*
X5510000Y-7160000D01*
X5510000Y-6840000D02*
X5190000Y-7160000D01*
X6940000Y-3040000D02*
X7260000Y-3360000D01*
X7260000Y-3040000D02*
X6940000Y-3360000D01*
X7340000Y-9765000D02*
X7660000Y-10085000D01*
X7660000Y-9765000D02*
X7340000Y-10085000D01*
X8915000Y-3740000D02*
X9235000Y-4060000D01*
X9235000Y-3740000D02*
X8915000Y-4060000D01*
X8915000Y-7540000D02*
X9235000Y-7860000D01*
X9235000Y-7540000D02*
X8915000Y-7860000D01*
X11440000Y-9765000D02*
X11760000Y-10085000D01*
X11760000Y-9765000D02*
X11440000Y-10085000D01*
D11*
X1730119Y-11812976D02*
X1730119Y-11612976D01*
X1777738Y-11612976D01*
X1806309Y-11622500D01*
X1825357Y-11641548D01*
X1834881Y-11660595D01*
X1844405Y-11698690D01*
X1844405Y-11727262D01*
X1834881Y-11765357D01*
X1825357Y-11784405D01*
X1806309Y-11803452D01*
X1777738Y-11812976D01*
X1730119Y-11812976D01*
X1930119Y-11812976D02*
X1930119Y-11679643D01*
X1930119Y-11717738D02*
X1939643Y-11698690D01*
X1949167Y-11689167D01*
X1968214Y-11679643D01*
X1987262Y-11679643D01*
X2053928Y-11812976D02*
X2053928Y-11679643D01*
X2053928Y-11612976D02*
X2044405Y-11622500D01*
X2053928Y-11632024D01*
X2063452Y-11622500D01*
X2053928Y-11612976D01*
X2053928Y-11632024D01*
X2177738Y-11812976D02*
X2158690Y-11803452D01*
X2149167Y-11784405D01*
X2149167Y-11612976D01*
X2282500Y-11812976D02*
X2263452Y-11803452D01*
X2253929Y-11784405D01*
X2253929Y-11612976D01*
X2511071Y-11812976D02*
X2511071Y-11612976D01*
X2577738Y-11755833D01*
X2644405Y-11612976D01*
X2644405Y-11812976D01*
X2825357Y-11812976D02*
X2825357Y-11708214D01*
X2815833Y-11689167D01*
X2796786Y-11679643D01*
X2758690Y-11679643D01*
X2739643Y-11689167D01*
X2825357Y-11803452D02*
X2806309Y-11812976D01*
X2758690Y-11812976D01*
X2739643Y-11803452D01*
X2730119Y-11784405D01*
X2730119Y-11765357D01*
X2739643Y-11746309D01*
X2758690Y-11736786D01*
X2806309Y-11736786D01*
X2825357Y-11727262D01*
X2920595Y-11679643D02*
X2920595Y-11879643D01*
X2920595Y-11689167D02*
X2939643Y-11679643D01*
X2977738Y-11679643D01*
X2996786Y-11689167D01*
X3006309Y-11698690D01*
X3015833Y-11717738D01*
X3015833Y-11774881D01*
X3006309Y-11793928D01*
X2996786Y-11803452D01*
X2977738Y-11812976D01*
X2939643Y-11812976D01*
X2920595Y-11803452D01*
X3101548Y-11793928D02*
X3111071Y-11803452D01*
X3101548Y-11812976D01*
X3092024Y-11803452D01*
X3101548Y-11793928D01*
X3101548Y-11812976D01*
X3101548Y-11689167D02*
X3111071Y-11698690D01*
X3101548Y-11708214D01*
X3092024Y-11698690D01*
X3101548Y-11689167D01*
X3101548Y-11708214D01*
X1272500Y-12042500D02*
X1472500Y-12242500D01*
X1472500Y-12042500D02*
X1272500Y-12242500D01*
X1711071Y-12032976D02*
X1834881Y-12032976D01*
X1768214Y-12109167D01*
X1796786Y-12109167D01*
X1815833Y-12118690D01*
X1825357Y-12128214D01*
X1834881Y-12147262D01*
X1834881Y-12194881D01*
X1825357Y-12213928D01*
X1815833Y-12223452D01*
X1796786Y-12232976D01*
X1739643Y-12232976D01*
X1720595Y-12223452D01*
X1711071Y-12213928D01*
X1920595Y-12213928D02*
X1930119Y-12223452D01*
X1920595Y-12232976D01*
X1911071Y-12223452D01*
X1920595Y-12213928D01*
X1920595Y-12232976D01*
X2006309Y-12052024D02*
X2015833Y-12042500D01*
X2034881Y-12032976D01*
X2082500Y-12032976D01*
X2101548Y-12042500D01*
X2111071Y-12052024D01*
X2120595Y-12071071D01*
X2120595Y-12090119D01*
X2111071Y-12118690D01*
X1996786Y-12232976D01*
X2120595Y-12232976D01*
X2244405Y-12032976D02*
X2263452Y-12032976D01*
X2282500Y-12042500D01*
X2292024Y-12052024D01*
X2301548Y-12071071D01*
X2311071Y-12109167D01*
X2311071Y-12156786D01*
X2301548Y-12194881D01*
X2292024Y-12213928D01*
X2282500Y-12223452D01*
X2263452Y-12232976D01*
X2244405Y-12232976D01*
X2225357Y-12223452D01*
X2215833Y-12213928D01*
X2206310Y-12194881D01*
X2196786Y-12156786D01*
X2196786Y-12109167D01*
X2206310Y-12071071D01*
X2215833Y-12052024D01*
X2225357Y-12042500D01*
X2244405Y-12032976D01*
X2434881Y-12032976D02*
X2453929Y-12032976D01*
X2472976Y-12042500D01*
X2482500Y-12052024D01*
X2492024Y-12071071D01*
X2501548Y-12109167D01*
X2501548Y-12156786D01*
X2492024Y-12194881D01*
X2482500Y-12213928D01*
X2472976Y-12223452D01*
X2453929Y-12232976D01*
X2434881Y-12232976D01*
X2415833Y-12223452D01*
X2406310Y-12213928D01*
X2396786Y-12194881D01*
X2387262Y-12156786D01*
X2387262Y-12109167D01*
X2396786Y-12071071D01*
X2406310Y-12052024D01*
X2415833Y-12042500D01*
X2434881Y-12032976D01*
X2587262Y-12232976D02*
X2587262Y-12099643D01*
X2587262Y-12118690D02*
X2596786Y-12109167D01*
X2615833Y-12099643D01*
X2644405Y-12099643D01*
X2663452Y-12109167D01*
X2672976Y-12128214D01*
X2672976Y-12232976D01*
X2672976Y-12128214D02*
X2682500Y-12109167D01*
X2701548Y-12099643D01*
X2730119Y-12099643D01*
X2749167Y-12109167D01*
X2758690Y-12128214D01*
X2758690Y-12232976D01*
X2853928Y-12232976D02*
X2853928Y-12099643D01*
X2853928Y-12118690D02*
X2863452Y-12109167D01*
X2882500Y-12099643D01*
X2911071Y-12099643D01*
X2930119Y-12109167D01*
X2939643Y-12128214D01*
X2939643Y-12232976D01*
X2939643Y-12128214D02*
X2949167Y-12109167D01*
X2968214Y-12099643D01*
X2996786Y-12099643D01*
X3015833Y-12109167D01*
X3025357Y-12128214D01*
X3025357Y-12232976D01*
X3415833Y-12023452D02*
X3244405Y-12280595D01*
X3672976Y-12032976D02*
X3692024Y-12032976D01*
X3711071Y-12042500D01*
X3720595Y-12052024D01*
X3730119Y-12071071D01*
X3739643Y-12109167D01*
X3739643Y-12156786D01*
X3730119Y-12194881D01*
X3720595Y-12213928D01*
X3711071Y-12223452D01*
X3692024Y-12232976D01*
X3672976Y-12232976D01*
X3653928Y-12223452D01*
X3644405Y-12213928D01*
X3634881Y-12194881D01*
X3625357Y-12156786D01*
X3625357Y-12109167D01*
X3634881Y-12071071D01*
X3644405Y-12052024D01*
X3653928Y-12042500D01*
X3672976Y-12032976D01*
X3825357Y-12213928D02*
X3834881Y-12223452D01*
X3825357Y-12232976D01*
X3815833Y-12223452D01*
X3825357Y-12213928D01*
X3825357Y-12232976D01*
X4025357Y-12232976D02*
X3911071Y-12232976D01*
X3968214Y-12232976D02*
X3968214Y-12032976D01*
X3949167Y-12061548D01*
X3930119Y-12080595D01*
X3911071Y-12090119D01*
X4101548Y-12052024D02*
X4111071Y-12042500D01*
X4130119Y-12032976D01*
X4177738Y-12032976D01*
X4196786Y-12042500D01*
X4206310Y-12052024D01*
X4215833Y-12071071D01*
X4215833Y-12090119D01*
X4206310Y-12118690D01*
X4092024Y-12232976D01*
X4215833Y-12232976D01*
X4387262Y-12032976D02*
X4349167Y-12032976D01*
X4330119Y-12042500D01*
X4320595Y-12052024D01*
X4301548Y-12080595D01*
X4292024Y-12118690D01*
X4292024Y-12194881D01*
X4301548Y-12213928D01*
X4311071Y-12223452D01*
X4330119Y-12232976D01*
X4368214Y-12232976D01*
X4387262Y-12223452D01*
X4396786Y-12213928D01*
X4406310Y-12194881D01*
X4406310Y-12147262D01*
X4396786Y-12128214D01*
X4387262Y-12118690D01*
X4368214Y-12109167D01*
X4330119Y-12109167D01*
X4311071Y-12118690D01*
X4301548Y-12128214D01*
X4292024Y-12147262D01*
X4530119Y-12032976D02*
X4549167Y-12032976D01*
X4568214Y-12042500D01*
X4577738Y-12052024D01*
X4587262Y-12071071D01*
X4596786Y-12109167D01*
X4596786Y-12156786D01*
X4587262Y-12194881D01*
X4577738Y-12213928D01*
X4568214Y-12223452D01*
X4549167Y-12232976D01*
X4530119Y-12232976D01*
X4511071Y-12223452D01*
X4501548Y-12213928D01*
X4492024Y-12194881D01*
X4482500Y-12156786D01*
X4482500Y-12109167D01*
X4492024Y-12071071D01*
X4501548Y-12052024D01*
X4511071Y-12042500D01*
X4530119Y-12032976D01*
X4672976Y-12032976D02*
X4672976Y-12071071D01*
X4749167Y-12032976D02*
X4749167Y-12071071D01*
X5044405Y-12309167D02*
X5034881Y-12299643D01*
X5015833Y-12271071D01*
X5006310Y-12252024D01*
X4996786Y-12223452D01*
X4987262Y-12175833D01*
X4987262Y-12137738D01*
X4996786Y-12090119D01*
X5006310Y-12061548D01*
X5015833Y-12042500D01*
X5034881Y-12013928D01*
X5044405Y-12004405D01*
X5149167Y-12118690D02*
X5130119Y-12109167D01*
X5120595Y-12099643D01*
X5111071Y-12080595D01*
X5111071Y-12071071D01*
X5120595Y-12052024D01*
X5130119Y-12042500D01*
X5149167Y-12032976D01*
X5187262Y-12032976D01*
X5206310Y-12042500D01*
X5215833Y-12052024D01*
X5225357Y-12071071D01*
X5225357Y-12080595D01*
X5215833Y-12099643D01*
X5206310Y-12109167D01*
X5187262Y-12118690D01*
X5149167Y-12118690D01*
X5130119Y-12128214D01*
X5120595Y-12137738D01*
X5111071Y-12156786D01*
X5111071Y-12194881D01*
X5120595Y-12213928D01*
X5130119Y-12223452D01*
X5149167Y-12232976D01*
X5187262Y-12232976D01*
X5206310Y-12223452D01*
X5215833Y-12213928D01*
X5225357Y-12194881D01*
X5225357Y-12156786D01*
X5215833Y-12137738D01*
X5206310Y-12128214D01*
X5187262Y-12118690D01*
X5463452Y-12232976D02*
X5463452Y-12032976D01*
X5549167Y-12232976D02*
X5549167Y-12128214D01*
X5539643Y-12109167D01*
X5520595Y-12099643D01*
X5492024Y-12099643D01*
X5472976Y-12109167D01*
X5463452Y-12118690D01*
X5672976Y-12232976D02*
X5653928Y-12223452D01*
X5644405Y-12213928D01*
X5634881Y-12194881D01*
X5634881Y-12137738D01*
X5644405Y-12118690D01*
X5653928Y-12109167D01*
X5672976Y-12099643D01*
X5701548Y-12099643D01*
X5720595Y-12109167D01*
X5730119Y-12118690D01*
X5739643Y-12137738D01*
X5739643Y-12194881D01*
X5730119Y-12213928D01*
X5720595Y-12223452D01*
X5701548Y-12232976D01*
X5672976Y-12232976D01*
X5853928Y-12232976D02*
X5834881Y-12223452D01*
X5825357Y-12204405D01*
X5825357Y-12032976D01*
X6006309Y-12223452D02*
X5987262Y-12232976D01*
X5949167Y-12232976D01*
X5930119Y-12223452D01*
X5920595Y-12204405D01*
X5920595Y-12128214D01*
X5930119Y-12109167D01*
X5949167Y-12099643D01*
X5987262Y-12099643D01*
X6006309Y-12109167D01*
X6015833Y-12128214D01*
X6015833Y-12147262D01*
X5920595Y-12166309D01*
X6092024Y-12223452D02*
X6111071Y-12232976D01*
X6149167Y-12232976D01*
X6168214Y-12223452D01*
X6177738Y-12204405D01*
X6177738Y-12194881D01*
X6168214Y-12175833D01*
X6149167Y-12166309D01*
X6120595Y-12166309D01*
X6101548Y-12156786D01*
X6092024Y-12137738D01*
X6092024Y-12128214D01*
X6101548Y-12109167D01*
X6120595Y-12099643D01*
X6149167Y-12099643D01*
X6168214Y-12109167D01*
X6244405Y-12309167D02*
X6253928Y-12299643D01*
X6272976Y-12271071D01*
X6282500Y-12252024D01*
X6292024Y-12223452D01*
X6301548Y-12175833D01*
X6301548Y-12137738D01*
X6292024Y-12090119D01*
X6282500Y-12061548D01*
X6272976Y-12042500D01*
X6253928Y-12013928D01*
X6244405Y-12004405D01*
M02*
