%TF.GenerationSoftware,KiCad,Pcbnew,(5.99.0-12766-g4a3658027e)*%
%TF.CreationDate,2021-10-23T13:20:50+09:00*%
%TF.ProjectId,top,746f702e-6b69-4636-9164-5f7063625858,rev?*%
%TF.SameCoordinates,Original*%
%TF.FileFunction,Profile,NP*%
%FSLAX46Y46*%
G04 Gerber Fmt 4.6, Leading zero omitted, Abs format (unit mm)*
G04 Created by KiCad (PCBNEW (5.99.0-12766-g4a3658027e)) date 2021-10-23 13:20:50*
%MOMM*%
%LPD*%
G01*
G04 APERTURE LIST*
%TA.AperFunction,Profile*%
%ADD10C,0.050000*%
%TD*%
%TA.AperFunction,Profile*%
%ADD11C,0.120000*%
%TD*%
G04 APERTURE END LIST*
D10*
X33750000Y-15000000D02*
X14750000Y-27000000D01*
X138250000Y-115000000D02*
X138250000Y-96000000D01*
X109750000Y-77000000D02*
X128750000Y-77000000D01*
X109750000Y-20000000D02*
X71750000Y-20000000D01*
X109750000Y-77000000D02*
X109750000Y-20000000D01*
X71750000Y-13000000D02*
X52750000Y-13000000D01*
X52750000Y-13000000D02*
X33750000Y-15000000D01*
X71750000Y-20000000D02*
X71750000Y-13000000D01*
X14750000Y-27000000D02*
X14750000Y-115000000D01*
X14750000Y-115000000D02*
X138250000Y-115000000D01*
X138250000Y-96000000D02*
X128750000Y-77000000D01*
D11*
%TO.C,SW2*%
X17250000Y-62500000D02*
X31250000Y-62500000D01*
X31250000Y-62500000D02*
X31250000Y-48500000D01*
X17250000Y-48500000D02*
X17250000Y-62500000D01*
X31250000Y-48500000D02*
X17250000Y-48500000D01*
X17250000Y-67500000D02*
X17250000Y-81500000D01*
X31250000Y-67500000D02*
X17250000Y-67500000D01*
X17250000Y-81500000D02*
X31250000Y-81500000D01*
X31250000Y-81500000D02*
X31250000Y-67500000D01*
X88250000Y-60500000D02*
X74250000Y-60500000D01*
X74250000Y-74500000D02*
X88250000Y-74500000D01*
X88250000Y-74500000D02*
X88250000Y-60500000D01*
X74250000Y-60500000D02*
X74250000Y-74500000D01*
X36250000Y-31500000D02*
X50250000Y-31500000D01*
X50250000Y-17500000D02*
X36250000Y-17500000D01*
X50250000Y-31500000D02*
X50250000Y-17500000D01*
X36250000Y-17500000D02*
X36250000Y-31500000D01*
X55250000Y-112500000D02*
X69250000Y-112500000D01*
X55250000Y-98500000D02*
X55250000Y-112500000D01*
X69250000Y-98500000D02*
X55250000Y-98500000D01*
X69250000Y-112500000D02*
X69250000Y-98500000D01*
X107250000Y-74500000D02*
X107250000Y-60500000D01*
X93250000Y-60500000D02*
X93250000Y-74500000D01*
X93250000Y-74500000D02*
X107250000Y-74500000D01*
X107250000Y-60500000D02*
X93250000Y-60500000D01*
X93250000Y-41500000D02*
X93250000Y-55500000D01*
X107250000Y-55500000D02*
X107250000Y-41500000D01*
X107250000Y-41500000D02*
X93250000Y-41500000D01*
X93250000Y-55500000D02*
X107250000Y-55500000D01*
X107250000Y-22500000D02*
X93250000Y-22500000D01*
X93250000Y-22500000D02*
X93250000Y-36500000D01*
X107250000Y-36500000D02*
X107250000Y-22500000D01*
X93250000Y-36500000D02*
X107250000Y-36500000D01*
X74250000Y-36500000D02*
X88250000Y-36500000D01*
X74250000Y-22500000D02*
X74250000Y-36500000D01*
X88250000Y-22500000D02*
X74250000Y-22500000D01*
X88250000Y-36500000D02*
X88250000Y-22500000D01*
X69250000Y-29500000D02*
X69250000Y-15500000D01*
X55250000Y-15500000D02*
X55250000Y-29500000D01*
X69250000Y-15500000D02*
X55250000Y-15500000D01*
X55250000Y-29500000D02*
X69250000Y-29500000D01*
X31250000Y-43500000D02*
X31250000Y-29500000D01*
X31250000Y-29500000D02*
X17250000Y-29500000D01*
X17250000Y-29500000D02*
X17250000Y-43500000D01*
X17250000Y-43500000D02*
X31250000Y-43500000D01*
X55250000Y-86500000D02*
X69250000Y-86500000D01*
X69250000Y-86500000D02*
X69250000Y-72500000D01*
X55250000Y-72500000D02*
X55250000Y-86500000D01*
X69250000Y-72500000D02*
X55250000Y-72500000D01*
X69250000Y-34500000D02*
X55250000Y-34500000D01*
X69250000Y-48500000D02*
X69250000Y-34500000D01*
X55250000Y-48500000D02*
X69250000Y-48500000D01*
X55250000Y-34500000D02*
X55250000Y-48500000D01*
X36250000Y-112500000D02*
X50250000Y-112500000D01*
X50250000Y-112500000D02*
X50250000Y-98500000D01*
X50250000Y-98500000D02*
X36250000Y-98500000D01*
X36250000Y-98500000D02*
X36250000Y-112500000D01*
X36250000Y-93500000D02*
X50250000Y-93500000D01*
X36250000Y-79500000D02*
X36250000Y-93500000D01*
X50250000Y-93500000D02*
X50250000Y-79500000D01*
X50250000Y-79500000D02*
X36250000Y-79500000D01*
X135750000Y-112500000D02*
X135750000Y-98500000D01*
X121750000Y-98500000D02*
X121750000Y-112500000D01*
X121750000Y-112500000D02*
X135750000Y-112500000D01*
X135750000Y-98500000D02*
X121750000Y-98500000D01*
X36250000Y-50500000D02*
X50250000Y-50500000D01*
X50250000Y-36500000D02*
X36250000Y-36500000D01*
X36250000Y-36500000D02*
X36250000Y-50500000D01*
X50250000Y-50500000D02*
X50250000Y-36500000D01*
X36250000Y-55500000D02*
X36250000Y-69500000D01*
X50250000Y-55500000D02*
X36250000Y-55500000D01*
X36250000Y-69500000D02*
X50250000Y-69500000D01*
X50250000Y-69500000D02*
X50250000Y-55500000D01*
X31250000Y-98500000D02*
X17250000Y-98500000D01*
X17250000Y-112500000D02*
X31250000Y-112500000D01*
X17250000Y-98500000D02*
X17250000Y-112500000D01*
X31250000Y-112500000D02*
X31250000Y-98500000D01*
X69250000Y-67500000D02*
X69250000Y-53500000D01*
X69250000Y-53500000D02*
X55250000Y-53500000D01*
X55250000Y-67500000D02*
X69250000Y-67500000D01*
X55250000Y-53500000D02*
X55250000Y-67500000D01*
X107250000Y-79500000D02*
X93250000Y-79500000D01*
X93250000Y-93500000D02*
X107250000Y-93500000D01*
X107250000Y-93500000D02*
X107250000Y-79500000D01*
X93250000Y-79500000D02*
X93250000Y-93500000D01*
X88250000Y-55500000D02*
X88250000Y-41500000D01*
X88250000Y-41500000D02*
X74250000Y-41500000D01*
X74250000Y-41500000D02*
X74250000Y-55500000D01*
X74250000Y-55500000D02*
X88250000Y-55500000D01*
X88250000Y-93500000D02*
X88250000Y-79500000D01*
X88250000Y-79500000D02*
X74250000Y-79500000D01*
X74250000Y-79500000D02*
X74250000Y-93500000D01*
X74250000Y-93500000D02*
X88250000Y-93500000D01*
X126250000Y-93500000D02*
X126250000Y-79500000D01*
X126250000Y-79500000D02*
X112250000Y-79500000D01*
X112250000Y-93500000D02*
X126250000Y-93500000D01*
X112250000Y-79500000D02*
X112250000Y-93500000D01*
%TD*%
M02*
