M48
; DRILL file {KiCad (5.99.0-12766-g4a3658027e)} date Sat 04 Dec 2021 14:11:49
; FORMAT={-:-/ absolute / metric / decimal}
; #@! TF.CreationDate,2021-12-04T14:11:49+09:00
; #@! TF.GenerationSoftware,Kicad,Pcbnew,(5.99.0-12766-g4a3658027e)
; #@! TF.FileFunction,Plated,1,2,PTH
FMAT,2
METRIC
; #@! TA.AperFunction,Plated,PTH,ViaDrill
T1C0.400
; #@! TA.AperFunction,Plated,PTH,ComponentDrill
T2C0.550
; #@! TA.AperFunction,Plated,PTH,ComponentDrill
T3C0.800
; #@! TA.AperFunction,Plated,PTH,ComponentDrill
T4C0.813
; #@! TA.AperFunction,Plated,PTH,ComponentDrill
T5C0.850
; #@! TA.AperFunction,Plated,PTH,ComponentDrill
T6C0.900
; #@! TA.AperFunction,Plated,PTH,ComponentDrill
T7C1.100
; #@! TA.AperFunction,Plated,PTH,ComponentDrill
T8C3.200
%
G90
G05
T1
X187.158Y-96.206
X200.081Y-96.17
X206.909Y-56.234
X208.7Y-57.735
X209.789Y-93.169
X213.859Y-89.359
X224.777Y-71.637
X226.675Y-52.347
X227.303Y-107.35
X241.67Y-77.195
X244.075Y-62.664
X252.619Y-87.331
X254.893Y-75.561
T3
X168.25Y-70.5
X168.25Y-73.5
X173.25Y-70.5
X173.25Y-73.5
X178.0Y-100.5
X178.0Y-108.12
X181.0Y-100.5
X181.0Y-108.12
X185.0Y-96.25
X185.0Y-98.75
X185.0Y-101.25
X185.0Y-103.75
X185.0Y-106.25
X192.62Y-96.25
X192.62Y-98.75
X192.62Y-101.25
X192.62Y-103.75
X192.62Y-106.25
X194.75Y-96.25
X194.75Y-98.75
X194.75Y-101.25
X194.75Y-103.75
X194.75Y-106.25
X202.37Y-96.25
X202.37Y-98.75
X202.37Y-101.25
X202.37Y-103.75
X202.37Y-106.25
X204.5Y-96.25
X204.5Y-98.75
X204.5Y-101.25
X204.5Y-103.75
X204.5Y-106.25
X212.12Y-96.25
X212.12Y-98.75
X212.12Y-101.25
X212.12Y-103.75
X212.12Y-106.25
X258.13Y-20.5
X258.13Y-23.0
X258.13Y-25.5
X258.13Y-28.0
X258.13Y-30.5
X258.13Y-84.0
X258.13Y-86.5
X258.13Y-89.0
X258.13Y-91.5
X265.75Y-20.5
X265.75Y-23.0
X265.75Y-25.5
X265.75Y-28.0
X265.75Y-30.5
X265.75Y-84.0
X265.75Y-86.5
X265.75Y-89.0
X265.75Y-91.5
T4
X168.141Y-28.772
X168.141Y-31.312
X168.141Y-33.852
X168.141Y-36.392
X168.141Y-38.932
X168.141Y-41.472
X168.141Y-44.012
X168.141Y-46.552
X168.141Y-49.092
X168.141Y-51.632
X168.141Y-54.172
X168.141Y-56.712
X183.361Y-28.772
X183.361Y-31.312
X183.361Y-33.852
X183.361Y-36.392
X183.361Y-38.932
X183.361Y-41.472
X183.361Y-44.012
X183.361Y-46.552
X183.361Y-49.092
X183.361Y-51.632
X183.361Y-54.172
X183.361Y-56.712
T6
X177.5Y-63.0
X181.5Y-63.0
T7
X176.0Y-69.5
X176.0Y-74.0
X182.5Y-69.5
X182.5Y-74.0
T8
X179.25Y-96.0
X194.5Y-21.5
X217.75Y-21.5
X217.75Y-96.0
X235.75Y-89.25
X270.25Y-22.5
X271.75Y-87.75
T2
X169.125Y-59.625G85X168.475Y-59.625
G05
X169.125Y-67.375G85X168.475Y-67.375
G05
T5
X172.875Y-59.775G85X172.325Y-59.775
G05
X172.875Y-67.225G85X172.325Y-67.225
G05
T0
M30
