M48
; DRILL file {KiCad (5.99.0-12766-g4a3658027e)} date Sat 04 Dec 2021 14:11:49
; FORMAT={-:-/ absolute / metric / decimal}
; #@! TF.CreationDate,2021-12-04T14:11:49+09:00
; #@! TF.GenerationSoftware,Kicad,Pcbnew,(5.99.0-12766-g4a3658027e)
; #@! TF.FileFunction,NonPlated,1,2,NPTH
FMAT,2
METRIC
; #@! TA.AperFunction,NonPlated,NPTH,ComponentDrill
T1C0.800
; #@! TA.AperFunction,NonPlated,NPTH,ComponentDrill
T2C0.991
; #@! TA.AperFunction,NonPlated,NPTH,ComponentDrill
T3C1.900
; #@! TA.AperFunction,NonPlated,NPTH,ComponentDrill
T4C3.000
; #@! TA.AperFunction,NonPlated,NPTH,ComponentDrill
T5C3.400
%
G90
G05
T1
X171.55Y-61.0
X171.55Y-66.0
T2
X161.78Y-105.45
X170.78Y-88.45
X188.78Y-37.45
X188.78Y-54.45
X188.78Y-71.45
X188.78Y-88.45
X206.78Y-37.45
X206.78Y-54.45
X206.78Y-71.45
X206.78Y-88.45
X224.78Y-30.45
X224.78Y-47.45
X224.78Y-64.45
X224.78Y-81.45
X224.78Y-105.45
X242.78Y-32.45
X242.78Y-49.45
X242.78Y-66.45
X242.78Y-88.45
X242.78Y-105.45
X260.78Y-44.45
X260.78Y-61.45
X260.78Y-78.45
X260.78Y-105.45
T3
X161.5Y-101.25
X170.5Y-84.25
X172.5Y-101.25
X181.5Y-84.25
X188.5Y-33.25
X188.5Y-50.25
X188.5Y-67.25
X188.5Y-84.25
X199.5Y-33.25
X199.5Y-50.25
X199.5Y-67.25
X199.5Y-84.25
X206.5Y-33.25
X206.5Y-50.25
X206.5Y-67.25
X206.5Y-84.25
X217.5Y-33.25
X217.5Y-50.25
X217.5Y-67.25
X217.5Y-84.25
X224.5Y-26.25
X224.5Y-43.25
X224.5Y-60.25
X224.5Y-77.25
X224.5Y-101.25
X235.5Y-26.25
X235.5Y-43.25
X235.5Y-60.25
X235.5Y-77.25
X235.5Y-101.25
X242.5Y-28.25
X242.5Y-45.25
X242.5Y-62.25
X242.5Y-84.25
X242.5Y-101.25
X253.5Y-28.25
X253.5Y-45.25
X253.5Y-62.25
X253.5Y-84.25
X253.5Y-101.25
X260.5Y-40.25
X260.5Y-57.25
X260.5Y-74.25
X260.5Y-101.25
X271.5Y-40.25
X271.5Y-57.25
X271.5Y-74.25
X271.5Y-101.25
T4
X167.0Y-95.3
X172.0Y-97.5
X176.0Y-78.3
X181.0Y-80.5
X194.0Y-27.3
X194.0Y-44.3
X194.0Y-61.3
X194.0Y-78.3
X199.0Y-29.5
X199.0Y-46.5
X199.0Y-63.5
X199.0Y-80.5
X212.0Y-27.3
X212.0Y-44.3
X212.0Y-61.3
X212.0Y-78.3
X217.0Y-29.5
X217.0Y-46.5
X217.0Y-63.5
X217.0Y-80.5
X230.0Y-20.3
X230.0Y-37.3
X230.0Y-54.3
X230.0Y-71.3
X230.0Y-95.3
X235.0Y-22.5
X235.0Y-39.5
X235.0Y-56.5
X235.0Y-73.5
X235.0Y-97.5
X248.0Y-22.3
X248.0Y-39.3
X248.0Y-56.3
X248.0Y-78.3
X248.0Y-95.3
X253.0Y-24.5
X253.0Y-41.5
X253.0Y-58.5
X253.0Y-80.5
X253.0Y-97.5
X266.0Y-34.3
X266.0Y-51.3
X266.0Y-68.3
X266.0Y-95.3
X271.0Y-36.5
X271.0Y-53.5
X271.0Y-70.5
X271.0Y-97.5
T5
X167.0Y-101.25
X176.0Y-84.25
X194.0Y-33.25
X194.0Y-50.25
X194.0Y-67.25
X194.0Y-84.25
X212.0Y-33.25
X212.0Y-50.25
X212.0Y-67.25
X212.0Y-84.25
X230.0Y-26.25
X230.0Y-43.25
X230.0Y-60.25
X230.0Y-77.25
X230.0Y-101.25
X248.0Y-28.25
X248.0Y-45.25
X248.0Y-62.25
X248.0Y-84.25
X248.0Y-101.25
X266.0Y-40.25
X266.0Y-57.25
X266.0Y-74.25
X266.0Y-101.25
T0
M30
