%TF.GenerationSoftware,KiCad,Pcbnew,(5.99.0-12766-g4a3658027e)*%
%TF.CreationDate,2021-12-04T14:11:47+09:00*%
%TF.ProjectId,right,72696768-742e-46b6-9963-61645f706362,rev?*%
%TF.SameCoordinates,Original*%
%TF.FileFunction,Copper,L2,Bot*%
%TF.FilePolarity,Positive*%
%FSLAX46Y46*%
G04 Gerber Fmt 4.6, Leading zero omitted, Abs format (unit mm)*
G04 Created by KiCad (PCBNEW (5.99.0-12766-g4a3658027e)) date 2021-12-04 14:11:47*
%MOMM*%
%LPD*%
G01*
G04 APERTURE LIST*
%TA.AperFunction,ComponentPad*%
%ADD10R,1.600000X1.600000*%
%TD*%
%TA.AperFunction,ComponentPad*%
%ADD11O,1.600000X1.600000*%
%TD*%
%TA.AperFunction,ComponentPad*%
%ADD12C,1.600000*%
%TD*%
%TA.AperFunction,SMDPad,CuDef*%
%ADD13R,2.600000X2.600000*%
%TD*%
%TA.AperFunction,SMDPad,CuDef*%
%ADD14R,1.950000X2.600000*%
%TD*%
%TA.AperFunction,ComponentPad*%
%ADD15C,2.000000*%
%TD*%
%TA.AperFunction,ComponentPad*%
%ADD16C,1.524000*%
%TD*%
%TA.AperFunction,ComponentPad*%
%ADD17C,5.700000*%
%TD*%
%TA.AperFunction,ComponentPad*%
%ADD18O,1.800000X1.150000*%
%TD*%
%TA.AperFunction,ComponentPad*%
%ADD19O,2.000000X1.450000*%
%TD*%
%TA.AperFunction,ViaPad*%
%ADD20C,0.800000*%
%TD*%
%TA.AperFunction,Conductor*%
%ADD21C,0.200000*%
%TD*%
G04 APERTURE END LIST*
D10*
%TO.P,D24,1,K*%
%TO.N,/rrow0*%
X265750000Y-20500000D03*
D11*
%TO.P,D24,2,A*%
%TO.N,Net-(D24-Pad2)*%
X258130000Y-20500000D03*
%TD*%
D10*
%TO.P,D27,1,K*%
%TO.N,/rrow3*%
X185000000Y-96250000D03*
D11*
%TO.P,D27,2,A*%
%TO.N,Net-(D27-Pad2)*%
X192620000Y-96250000D03*
%TD*%
D10*
%TO.P,D28,1,K*%
%TO.N,/rrow4*%
X265750000Y-84000000D03*
D11*
%TO.P,D28,2,A*%
%TO.N,Net-(D28-Pad2)*%
X258130000Y-84000000D03*
%TD*%
D10*
%TO.P,D29,1,K*%
%TO.N,/rrow0*%
X265750000Y-23000000D03*
D11*
%TO.P,D29,2,A*%
%TO.N,Net-(D29-Pad2)*%
X258130000Y-23000000D03*
%TD*%
D10*
%TO.P,D30,1,K*%
%TO.N,/rrow1*%
X204500000Y-98750000D03*
D11*
%TO.P,D30,2,A*%
%TO.N,Net-(D30-Pad2)*%
X212120000Y-98750000D03*
%TD*%
D10*
%TO.P,D32,1,K*%
%TO.N,/rrow3*%
X185000000Y-98750000D03*
D11*
%TO.P,D32,2,A*%
%TO.N,Net-(D32-Pad2)*%
X192620000Y-98750000D03*
%TD*%
D10*
%TO.P,D34,1,K*%
%TO.N,/rrow0*%
X265750000Y-25500000D03*
D11*
%TO.P,D34,2,A*%
%TO.N,Net-(D34-Pad2)*%
X258130000Y-25500000D03*
%TD*%
D10*
%TO.P,D35,1,K*%
%TO.N,/rrow1*%
X204500000Y-101250000D03*
D11*
%TO.P,D35,2,A*%
%TO.N,Net-(D35-Pad2)*%
X212120000Y-101250000D03*
%TD*%
D10*
%TO.P,D38,1,K*%
%TO.N,/rrow4*%
X265750000Y-86500000D03*
D11*
%TO.P,D38,2,A*%
%TO.N,Net-(D38-Pad2)*%
X258130000Y-86500000D03*
%TD*%
D10*
%TO.P,D40,1,K*%
%TO.N,/rrow1*%
X204500000Y-103750000D03*
D11*
%TO.P,D40,2,A*%
%TO.N,Net-(D40-Pad2)*%
X212120000Y-103750000D03*
%TD*%
D10*
%TO.P,D41,1,K*%
%TO.N,/rrow2*%
X194750000Y-103750000D03*
D11*
%TO.P,D41,2,A*%
%TO.N,Net-(D41-Pad2)*%
X202370000Y-103750000D03*
%TD*%
D10*
%TO.P,D42,1,K*%
%TO.N,/rrow3*%
X185000000Y-103750000D03*
D11*
%TO.P,D42,2,A*%
%TO.N,Net-(D42-Pad2)*%
X192620000Y-103750000D03*
%TD*%
D10*
%TO.P,D43,1,K*%
%TO.N,/rrow0*%
X265750000Y-30500000D03*
D11*
%TO.P,D43,2,A*%
%TO.N,Net-(D43-Pad2)*%
X258130000Y-30500000D03*
%TD*%
D10*
%TO.P,D44,1,K*%
%TO.N,/rrow1*%
X204500000Y-106250000D03*
D11*
%TO.P,D44,2,A*%
%TO.N,Net-(D44-Pad2)*%
X212120000Y-106250000D03*
%TD*%
D10*
%TO.P,D45,1,K*%
%TO.N,/rrow2*%
X194750000Y-106250000D03*
D11*
%TO.P,D45,2,A*%
%TO.N,Net-(D45-Pad2)*%
X202370000Y-106250000D03*
%TD*%
D12*
%TO.P,R3,1*%
%TO.N,/rSCL*%
X178000000Y-100500000D03*
D11*
%TO.P,R3,2*%
%TO.N,+5V*%
X178000000Y-108120000D03*
%TD*%
D13*
%TO.P,SW24,1,1*%
%TO.N,/rcol0*%
X190700000Y-27250000D03*
D14*
%TO.P,SW24,2,2*%
%TO.N,Net-(D24-Pad2)*%
X202000000Y-29450000D03*
%TD*%
D13*
%TO.P,SW25,1,1*%
%TO.N,/rcol0*%
X190700000Y-44250000D03*
D14*
%TO.P,SW25,2,2*%
%TO.N,Net-(D25-Pad2)*%
X202000000Y-46450000D03*
%TD*%
D13*
%TO.P,SW26,1,1*%
%TO.N,/rcol0*%
X190700000Y-61250000D03*
D14*
%TO.P,SW26,2,2*%
%TO.N,Net-(D26-Pad2)*%
X202000000Y-63450000D03*
%TD*%
D13*
%TO.P,SW28,1,1*%
%TO.N,/rcol0*%
X226700000Y-95250000D03*
D14*
%TO.P,SW28,2,2*%
%TO.N,Net-(D28-Pad2)*%
X238000000Y-97450000D03*
%TD*%
D13*
%TO.P,SW29,1,1*%
%TO.N,/rcol1*%
X208700000Y-27250000D03*
D14*
%TO.P,SW29,2,2*%
%TO.N,Net-(D29-Pad2)*%
X220000000Y-29450000D03*
%TD*%
D13*
%TO.P,SW30,1,1*%
%TO.N,/rcol1*%
X208700000Y-44250000D03*
D14*
%TO.P,SW30,2,2*%
%TO.N,Net-(D30-Pad2)*%
X220000000Y-46450000D03*
%TD*%
D13*
%TO.P,SW31,1,1*%
%TO.N,/rcol1*%
X208700000Y-61250000D03*
D14*
%TO.P,SW31,2,2*%
%TO.N,Net-(D31-Pad2)*%
X220000000Y-63450000D03*
%TD*%
D13*
%TO.P,SW33,1,1*%
%TO.N,/rcol1*%
X244700000Y-78250000D03*
D14*
%TO.P,SW33,2,2*%
%TO.N,Net-(D33-Pad2)*%
X256000000Y-80450000D03*
%TD*%
D13*
%TO.P,SW34,1,1*%
%TO.N,/rcol2*%
X226700000Y-20250000D03*
D14*
%TO.P,SW34,2,2*%
%TO.N,Net-(D34-Pad2)*%
X238000000Y-22450000D03*
%TD*%
D13*
%TO.P,SW35,1,1*%
%TO.N,/rcol2*%
X226700000Y-37250000D03*
D14*
%TO.P,SW35,2,2*%
%TO.N,Net-(D35-Pad2)*%
X238000000Y-39450000D03*
%TD*%
D13*
%TO.P,SW36,1,1*%
%TO.N,/rcol2*%
X226700000Y-54250000D03*
D14*
%TO.P,SW36,2,2*%
%TO.N,Net-(D36-Pad2)*%
X238000000Y-56450000D03*
%TD*%
D13*
%TO.P,SW38,1,1*%
%TO.N,/rcol2*%
X244700000Y-95250000D03*
D14*
%TO.P,SW38,2,2*%
%TO.N,Net-(D38-Pad2)*%
X256000000Y-97450000D03*
%TD*%
D13*
%TO.P,SW39,1,1*%
%TO.N,/rcol3*%
X244700000Y-22250000D03*
D14*
%TO.P,SW39,2,2*%
%TO.N,Net-(D39-Pad2)*%
X256000000Y-24450000D03*
%TD*%
D13*
%TO.P,SW40,1,1*%
%TO.N,/rcol3*%
X244700000Y-39250000D03*
D14*
%TO.P,SW40,2,2*%
%TO.N,Net-(D40-Pad2)*%
X256000000Y-41450000D03*
%TD*%
D13*
%TO.P,SW41,1,1*%
%TO.N,/rcol3*%
X244700000Y-56250000D03*
D14*
%TO.P,SW41,2,2*%
%TO.N,Net-(D41-Pad2)*%
X256000000Y-58450000D03*
%TD*%
D13*
%TO.P,SW43,1,1*%
%TO.N,/rcol4*%
X262700000Y-34250000D03*
D14*
%TO.P,SW43,2,2*%
%TO.N,Net-(D43-Pad2)*%
X274000000Y-36450000D03*
%TD*%
D13*
%TO.P,SW44,1,1*%
%TO.N,/rcol4*%
X262700000Y-51250000D03*
D14*
%TO.P,SW44,2,2*%
%TO.N,Net-(D44-Pad2)*%
X274000000Y-53450000D03*
%TD*%
D13*
%TO.P,SW45,1,1*%
%TO.N,/rcol4*%
X262700000Y-68250000D03*
D14*
%TO.P,SW45,2,2*%
%TO.N,Net-(D45-Pad2)*%
X274000000Y-70450000D03*
%TD*%
D15*
%TO.P,SW48,1,1*%
%TO.N,/rRST*%
X176000000Y-74000000D03*
X182500000Y-74000000D03*
%TO.P,SW48,2,2*%
%TO.N,GND*%
X176000000Y-69500000D03*
X182500000Y-69500000D03*
%TD*%
D16*
%TO.P,U2,1,TX0/D3*%
%TO.N,/rLED*%
X183361400Y-28772000D03*
%TO.P,U2,2,RX1/D2*%
%TO.N,unconnected-(U2-Pad2)*%
X183361400Y-31312000D03*
%TO.P,U2,3,GND*%
%TO.N,GND*%
X183361400Y-33852000D03*
%TO.P,U2,4,GND*%
X183361400Y-36392000D03*
%TO.P,U2,5,2/D1/SDA*%
%TO.N,/rSDA*%
X183361400Y-38932000D03*
%TO.P,U2,6,3/D0/SCL*%
%TO.N,/rSCL*%
X183361400Y-41472000D03*
%TO.P,U2,7,4/D4*%
%TO.N,/rcol0*%
X183361400Y-44012000D03*
%TO.P,U2,8,5/C6*%
%TO.N,/rcol1*%
X183361400Y-46552000D03*
%TO.P,U2,9,6/D7*%
%TO.N,/rcol2*%
X183361400Y-49092000D03*
%TO.P,U2,10,7/E6*%
%TO.N,/rcol3*%
X183361400Y-51632000D03*
%TO.P,U2,11,8/B4*%
%TO.N,/rcol4*%
X183361400Y-54172000D03*
%TO.P,U2,12,9/B5*%
%TO.N,/rbuzzer*%
X183361400Y-56712000D03*
%TO.P,U2,13,B6/10*%
%TO.N,unconnected-(U2-Pad13)*%
X168141400Y-56712000D03*
%TO.P,U2,14,B2/16*%
%TO.N,unconnected-(U2-Pad14)*%
X168141400Y-54172000D03*
%TO.P,U2,15,B3/14*%
%TO.N,unconnected-(U2-Pad15)*%
X168141400Y-51632000D03*
%TO.P,U2,16,B1/15*%
%TO.N,/rrow4*%
X168141400Y-49092000D03*
%TO.P,U2,17,F7/A0*%
%TO.N,/rrow3*%
X168141400Y-46552000D03*
%TO.P,U2,18,F6/A1*%
%TO.N,/rrow2*%
X168141400Y-44012000D03*
%TO.P,U2,19,F5/A2*%
%TO.N,/rrow1*%
X168141400Y-41472000D03*
%TO.P,U2,20,F4/A3*%
%TO.N,/rrow0*%
X168141400Y-38932000D03*
%TO.P,U2,21,VCC*%
%TO.N,+5V*%
X168141400Y-36392000D03*
%TO.P,U2,22,RST*%
%TO.N,/rRST*%
X168141400Y-33852000D03*
%TO.P,U2,23,GND*%
%TO.N,GND*%
X168141400Y-31312000D03*
%TO.P,U2,24,RAW*%
%TO.N,unconnected-(U2-Pad24)*%
X168141400Y-28772000D03*
%TD*%
D10*
%TO.P,D25,1,K*%
%TO.N,/rrow1*%
X204500000Y-96250000D03*
D11*
%TO.P,D25,2,A*%
%TO.N,Net-(D25-Pad2)*%
X212120000Y-96250000D03*
%TD*%
D10*
%TO.P,D26,1,K*%
%TO.N,/rrow2*%
X194750000Y-96250000D03*
D11*
%TO.P,D26,2,A*%
%TO.N,Net-(D26-Pad2)*%
X202370000Y-96250000D03*
%TD*%
D10*
%TO.P,D31,1,K*%
%TO.N,/rrow2*%
X194750000Y-98750000D03*
D11*
%TO.P,D31,2,A*%
%TO.N,Net-(D31-Pad2)*%
X202370000Y-98750000D03*
%TD*%
D10*
%TO.P,D33,1,K*%
%TO.N,/rrow4*%
X265750000Y-89000000D03*
D11*
%TO.P,D33,2,A*%
%TO.N,Net-(D33-Pad2)*%
X258130000Y-89000000D03*
%TD*%
D10*
%TO.P,D36,1,K*%
%TO.N,/rrow2*%
X194750000Y-101250000D03*
D11*
%TO.P,D36,2,A*%
%TO.N,Net-(D36-Pad2)*%
X202370000Y-101250000D03*
%TD*%
D10*
%TO.P,D37,1,K*%
%TO.N,/rrow3*%
X185000000Y-101250000D03*
D11*
%TO.P,D37,2,A*%
%TO.N,Net-(D37-Pad2)*%
X192620000Y-101250000D03*
%TD*%
D10*
%TO.P,D39,1,K*%
%TO.N,/rrow0*%
X265750000Y-28000000D03*
D11*
%TO.P,D39,2,A*%
%TO.N,Net-(D39-Pad2)*%
X258130000Y-28000000D03*
%TD*%
D13*
%TO.P,SW37,1,1*%
%TO.N,/rcol2*%
X190700000Y-78250000D03*
D14*
%TO.P,SW37,2,2*%
%TO.N,Net-(D37-Pad2)*%
X202000000Y-80450000D03*
%TD*%
D13*
%TO.P,SW42,1,1*%
%TO.N,/rcol3*%
X208700000Y-78250000D03*
D14*
%TO.P,SW42,2,2*%
%TO.N,Net-(D42-Pad2)*%
X220000000Y-80450000D03*
%TD*%
D13*
%TO.P,SW32,1,1*%
%TO.N,/rcol1*%
X172700000Y-78250000D03*
D14*
%TO.P,SW32,2,2*%
%TO.N,Net-(D32-Pad2)*%
X184000000Y-80450000D03*
%TD*%
D13*
%TO.P,SW27,1,1*%
%TO.N,/rcol0*%
X163700000Y-95250000D03*
D14*
%TO.P,SW27,2,2*%
%TO.N,Net-(D27-Pad2)*%
X175000000Y-97450000D03*
%TD*%
D10*
%TO.P,D46,1,K*%
%TO.N,/rrow3*%
X185000000Y-106250000D03*
D11*
%TO.P,D46,2,A*%
%TO.N,Net-(D46-Pad2)*%
X192620000Y-106250000D03*
%TD*%
D13*
%TO.P,SW46,1,1*%
%TO.N,/rcol4*%
X226700000Y-71250000D03*
D14*
%TO.P,SW46,2,2*%
%TO.N,Net-(D46-Pad2)*%
X238000000Y-73450000D03*
%TD*%
D12*
%TO.P,R4,1*%
%TO.N,/rSDA*%
X181000000Y-100500000D03*
D11*
%TO.P,R4,2*%
%TO.N,+5V*%
X181000000Y-108120000D03*
%TD*%
D17*
%TO.P,H15,1,1*%
%TO.N,GND*%
X270250000Y-22500000D03*
%TD*%
D10*
%TO.P,D48,1,K*%
%TO.N,/rrow4*%
X265750000Y-91500000D03*
D11*
%TO.P,D48,2,A*%
%TO.N,Net-(D48-Pad2)*%
X258130000Y-91500000D03*
%TD*%
D17*
%TO.P,H10,1,1*%
%TO.N,GND*%
X271750000Y-87750000D03*
%TD*%
%TO.P,H11,1,1*%
%TO.N,GND*%
X179250000Y-96000000D03*
%TD*%
%TO.P,H14,1,1*%
%TO.N,GND*%
X217750000Y-96000000D03*
%TD*%
D18*
%TO.P,J2,6,Shield*%
%TO.N,GND*%
X168800000Y-59625000D03*
D19*
X172600000Y-59775000D03*
D18*
X168800000Y-67375000D03*
D19*
X172600000Y-67225000D03*
%TD*%
D17*
%TO.P,H13,1,1*%
%TO.N,GND*%
X235750000Y-89250000D03*
%TD*%
D10*
%TO.P,BZ2,1,-*%
%TO.N,/rbuzzer*%
X181500000Y-63000000D03*
D12*
%TO.P,BZ2,2,+*%
%TO.N,GND*%
X177500000Y-63000000D03*
%TD*%
D17*
%TO.P,H9,1,1*%
%TO.N,GND*%
X217750000Y-21500000D03*
%TD*%
D13*
%TO.P,SW50,1,1*%
%TO.N,/rcol3*%
X262700000Y-95250000D03*
D14*
%TO.P,SW50,2,2*%
%TO.N,Net-(D48-Pad2)*%
X274000000Y-97450000D03*
%TD*%
D17*
%TO.P,H12,1,1*%
%TO.N,GND*%
X194500000Y-21500000D03*
%TD*%
D12*
%TO.P,C4,1*%
%TO.N,+5V*%
X173250000Y-70500000D03*
%TO.P,C4,2*%
%TO.N,GND*%
X168250000Y-70500000D03*
%TD*%
%TO.P,C3,1*%
%TO.N,+5V*%
X173250000Y-73500000D03*
%TO.P,C3,2*%
%TO.N,GND*%
X168250000Y-73500000D03*
%TD*%
D20*
%TO.N,Net-(D25-Pad2)*%
X209788900Y-93169000D03*
%TO.N,Net-(D27-Pad2)*%
X187158300Y-96206300D03*
%TO.N,Net-(D42-Pad2)*%
X213859300Y-89359500D03*
X200081300Y-96170300D03*
%TO.N,Net-(D45-Pad2)*%
X227302700Y-107350400D03*
%TO.N,/rcol1*%
X241670400Y-77195500D03*
X208700000Y-57735100D03*
%TO.N,/rcol2*%
X252618800Y-87331200D03*
X226675100Y-52347400D03*
%TO.N,/rcol3*%
X206908500Y-56234000D03*
X244075400Y-62664500D03*
X254893200Y-75560900D03*
%TO.N,/rcol4*%
X224776600Y-71636800D03*
%TD*%
D21*
%TO.N,GND*%
X173900300Y-67225000D02*
X173900300Y-67400300D01*
X172600000Y-47153400D02*
X178291400Y-41462000D01*
X176149900Y-64350100D02*
X173900300Y-66599700D01*
X224500000Y-89250000D02*
X235750000Y-89250000D01*
X217750000Y-96000000D02*
X224500000Y-89250000D01*
X173900300Y-66599700D02*
X173900300Y-67225000D01*
X178291400Y-41462000D02*
X183361400Y-36392000D01*
X178291400Y-41462000D02*
X168141400Y-31312000D01*
X168250000Y-80144800D02*
X168250000Y-73500000D01*
X172600000Y-59775000D02*
X172600000Y-60800300D01*
X173900300Y-67400300D02*
X176000000Y-69500000D01*
X172600000Y-67225000D02*
X173900300Y-67225000D01*
X183361400Y-36392000D02*
X183361400Y-33852000D01*
X179250000Y-96000000D02*
X179250000Y-91144800D01*
X172600000Y-59775000D02*
X172600000Y-47153400D01*
X168250000Y-73500000D02*
X168250000Y-70500000D01*
X172600000Y-60800300D02*
X176149900Y-64350100D01*
X177500000Y-63000000D02*
X176149900Y-64350100D01*
X179250000Y-91144800D02*
X168250000Y-80144800D01*
%TO.N,+5V*%
X173250000Y-70500000D02*
X170288700Y-67538700D01*
X173250000Y-70500000D02*
X173250000Y-73500000D01*
X170288700Y-67538700D02*
X170288700Y-38539300D01*
X170288700Y-38539300D02*
X168141400Y-36392000D01*
%TO.N,Net-(D24-Pad2)*%
X203275300Y-29450000D02*
X214664900Y-18060400D01*
X214664900Y-18060400D02*
X254590100Y-18060400D01*
X202000000Y-29450000D02*
X203275300Y-29450000D01*
X254590100Y-18060400D02*
X257029700Y-20500000D01*
X258130000Y-20500000D02*
X257029700Y-20500000D01*
%TO.N,/rrow1*%
X204500000Y-96250000D02*
X204500000Y-98750000D01*
%TO.N,Net-(D25-Pad2)*%
X209788900Y-83605300D02*
X203275300Y-77091700D01*
X209788900Y-93169000D02*
X209788900Y-83605300D01*
X202000000Y-46450000D02*
X203275300Y-46450000D01*
X203275300Y-77091700D02*
X203275300Y-46450000D01*
%TO.N,/rrow2*%
X192120600Y-99856700D02*
X184815000Y-92551100D01*
X181464700Y-92551100D02*
X169599800Y-80686200D01*
X169249600Y-57543100D02*
X169249600Y-45120200D01*
X167550200Y-68208200D02*
X167550200Y-59242500D01*
X194750000Y-98750000D02*
X194750000Y-96250000D01*
X193214800Y-99856700D02*
X192120600Y-99856700D01*
X169599800Y-80686200D02*
X169599800Y-70257800D01*
X194321500Y-98750000D02*
X193214800Y-99856700D01*
X194750000Y-98750000D02*
X194321500Y-98750000D01*
X167550200Y-59242500D02*
X169249600Y-57543100D01*
X169249600Y-45120200D02*
X168141400Y-44012000D01*
X169599800Y-70257800D02*
X167550200Y-68208200D01*
X184815000Y-92551100D02*
X181464700Y-92551100D01*
%TO.N,Net-(D26-Pad2)*%
X203675600Y-78321400D02*
X202000000Y-76645800D01*
X202000000Y-76645800D02*
X202000000Y-63450000D01*
X202370000Y-95149700D02*
X203675600Y-93844100D01*
X202370000Y-96250000D02*
X202370000Y-95149700D01*
X203675600Y-93844100D02*
X203675600Y-78321400D01*
%TO.N,/rrow3*%
X185000000Y-103750000D02*
X185000000Y-101637400D01*
X169249600Y-97999600D02*
X171000000Y-99750000D01*
X175200100Y-101637400D02*
X185000000Y-101637400D01*
X185000000Y-101250000D02*
X185000000Y-98750000D01*
X173312700Y-99750000D02*
X175200100Y-101637400D01*
X185000000Y-106250000D02*
X185000000Y-103750000D01*
X167060400Y-82070900D02*
X169249600Y-84260100D01*
X167060400Y-47633000D02*
X167060400Y-82070900D01*
X185000000Y-98750000D02*
X185000000Y-96250000D01*
X168141400Y-46552000D02*
X167060400Y-47633000D01*
X185000000Y-101637400D02*
X185000000Y-101250000D01*
X171000000Y-99750000D02*
X173312700Y-99750000D01*
X169249600Y-84260100D02*
X169249600Y-97999600D01*
%TO.N,Net-(D27-Pad2)*%
X186101600Y-95149600D02*
X187158300Y-96206300D01*
X176730800Y-99180800D02*
X180531500Y-99180800D01*
X175000000Y-97450000D02*
X176730800Y-99180800D01*
X184024200Y-95149600D02*
X186101600Y-95149600D01*
X182400400Y-96773400D02*
X184024200Y-95149600D01*
X180531500Y-99180800D02*
X182400400Y-97311900D01*
X182400400Y-97311900D02*
X182400400Y-96773400D01*
%TO.N,/rrow4*%
X265750000Y-89000000D02*
X265750000Y-86500000D01*
X265750000Y-86500000D02*
X265750000Y-84000000D01*
X265750000Y-91500000D02*
X265750000Y-89000000D01*
%TO.N,Net-(D28-Pad2)*%
X258130000Y-84000000D02*
X257029700Y-84000000D01*
X239275300Y-97450000D02*
X250094500Y-86630800D01*
X250094500Y-86630800D02*
X254398900Y-86630800D01*
X238000000Y-97450000D02*
X239275300Y-97450000D01*
X254398900Y-86630800D02*
X257029700Y-84000000D01*
%TO.N,/rrow0*%
X265750000Y-25500000D02*
X265750000Y-23000000D01*
X265750000Y-23000000D02*
X265750000Y-20500000D01*
X265750000Y-28000000D02*
X265750000Y-25500000D01*
X265750000Y-30500000D02*
X265750000Y-28000000D01*
%TO.N,Net-(D29-Pad2)*%
X220000000Y-23911600D02*
X225450800Y-18460800D01*
X220000000Y-29450000D02*
X220000000Y-23911600D01*
X225450800Y-18460800D02*
X230707200Y-18460800D01*
X232739600Y-22820500D02*
X234256100Y-24337000D01*
X255604900Y-20474900D02*
X258130000Y-23000000D01*
X234256100Y-24337000D02*
X239078400Y-24337000D01*
X242940500Y-20474900D02*
X255604900Y-20474900D01*
X232739600Y-20493200D02*
X232739600Y-22820500D01*
X230707200Y-18460800D02*
X232739600Y-20493200D01*
X239078400Y-24337000D02*
X242940500Y-20474900D01*
%TO.N,Net-(D30-Pad2)*%
X212120000Y-98750000D02*
X212120000Y-97649700D01*
X211892000Y-97649700D02*
X212120000Y-97649700D01*
X220000000Y-46450000D02*
X221275300Y-46450000D01*
X211019600Y-96777300D02*
X211892000Y-97649700D01*
X221275300Y-46450000D02*
X221275300Y-82963400D01*
X221275300Y-82963400D02*
X211019600Y-93219100D01*
X211019600Y-93219100D02*
X211019600Y-96777300D01*
%TO.N,Net-(D31-Pad2)*%
X210554200Y-94784000D02*
X210554200Y-89265900D01*
X214945900Y-75501500D02*
X220000000Y-70447400D01*
X214945900Y-84874200D02*
X214945900Y-75501500D01*
X210554200Y-89265900D02*
X214945900Y-84874200D01*
X205487800Y-99850400D02*
X210554200Y-94784000D01*
X220000000Y-70447400D02*
X220000000Y-63450000D01*
X202370000Y-98750000D02*
X203470400Y-99850400D01*
X203470400Y-99850400D02*
X205487800Y-99850400D01*
%TO.N,Net-(D32-Pad2)*%
X184000000Y-89257700D02*
X192392000Y-97649700D01*
X184000000Y-80450000D02*
X184000000Y-89257700D01*
X192392000Y-97649700D02*
X192620000Y-97649700D01*
X192620000Y-98750000D02*
X192620000Y-97649700D01*
%TO.N,Net-(D33-Pad2)*%
X258130000Y-89000000D02*
X258130000Y-87899700D01*
X259248700Y-87056100D02*
X259248700Y-82423400D01*
X258130000Y-87899700D02*
X258405100Y-87899700D01*
X259248700Y-82423400D02*
X257275300Y-80450000D01*
X258405100Y-87899700D02*
X259248700Y-87056100D01*
X256000000Y-80450000D02*
X257275300Y-80450000D01*
%TO.N,Net-(D34-Pad2)*%
X238000000Y-22450000D02*
X239275300Y-22450000D01*
X241664300Y-20061000D02*
X255757100Y-20061000D01*
X257446100Y-21750000D02*
X259000000Y-21750000D01*
X259229511Y-21979511D02*
X259229511Y-24400489D01*
X259000000Y-21750000D02*
X259229511Y-21979511D01*
X255757100Y-20061000D02*
X257446100Y-21750000D01*
X259229511Y-24400489D02*
X258130000Y-25500000D01*
X239275300Y-22450000D02*
X241664300Y-20061000D01*
%TO.N,Net-(D35-Pad2)*%
X221717100Y-65159300D02*
X221717100Y-85530600D01*
X212120000Y-101250000D02*
X212120000Y-100149700D01*
X213391200Y-99106500D02*
X212348000Y-100149700D01*
X238000000Y-39450000D02*
X238000000Y-48876400D01*
X213391200Y-93856500D02*
X213391200Y-99106500D01*
X221717100Y-85530600D02*
X213391200Y-93856500D01*
X212348000Y-100149700D02*
X212120000Y-100149700D01*
X238000000Y-48876400D02*
X221717100Y-65159300D01*
%TO.N,Net-(D36-Pad2)*%
X213791600Y-101208400D02*
X212601300Y-102398700D01*
X238000000Y-56450000D02*
X235936100Y-58513900D01*
X235188100Y-58513900D02*
X222117500Y-71584500D01*
X212601300Y-102398700D02*
X203518700Y-102398700D01*
X222117500Y-71584500D02*
X222117500Y-85696300D01*
X222117500Y-85696300D02*
X213791600Y-94022200D01*
X203518700Y-102398700D02*
X202370000Y-101250000D01*
X235936100Y-58513900D02*
X235188100Y-58513900D01*
X213791600Y-94022200D02*
X213791600Y-101208400D01*
%TO.N,Net-(D37-Pad2)*%
X199129900Y-96399600D02*
X195472000Y-100057500D01*
X199129900Y-96131400D02*
X199129900Y-96399600D01*
X202000000Y-93261300D02*
X199129900Y-96131400D01*
X202000000Y-80450000D02*
X202000000Y-93261300D01*
X193812500Y-100057500D02*
X192620000Y-101250000D01*
X195472000Y-100057500D02*
X193812500Y-100057500D01*
%TO.N,Net-(D38-Pad2)*%
X256000000Y-88630000D02*
X256000000Y-97450000D01*
X258130000Y-86500000D02*
X256000000Y-88630000D01*
%TO.N,Net-(D39-Pad2)*%
X256849400Y-26899700D02*
X256000000Y-26050300D01*
X258130000Y-28000000D02*
X258130000Y-26899700D01*
X256000000Y-24450000D02*
X256000000Y-26050300D01*
X258130000Y-26899700D02*
X256849400Y-26899700D01*
%TO.N,Net-(D40-Pad2)*%
X214192200Y-101677800D02*
X212120000Y-103750000D01*
X256000000Y-51421000D02*
X244937000Y-62484000D01*
X256000000Y-41450000D02*
X256000000Y-51421000D01*
X222517800Y-85862200D02*
X214192200Y-94187800D01*
X244937000Y-62484000D02*
X244937000Y-62793300D01*
X222517800Y-71750300D02*
X222517800Y-85862200D01*
X244937000Y-62793300D02*
X240499500Y-67230800D01*
X214192200Y-94187800D02*
X214192200Y-101677800D01*
X227037300Y-67230800D02*
X222517800Y-71750300D01*
X240499500Y-67230800D02*
X227037300Y-67230800D01*
%TO.N,Net-(D41-Pad2)*%
X252808600Y-60300400D02*
X245477800Y-67631200D01*
X203470400Y-104850400D02*
X202370000Y-103750000D01*
X227276800Y-67631200D02*
X223249700Y-71658300D01*
X214592700Y-94353600D02*
X214592700Y-102894800D01*
X223249700Y-85696600D02*
X214592700Y-94353600D01*
X254149600Y-60300400D02*
X252808600Y-60300400D01*
X245477800Y-67631200D02*
X227276800Y-67631200D01*
X223249700Y-71658300D02*
X223249700Y-85696600D01*
X214592700Y-102894800D02*
X212637100Y-104850400D01*
X256000000Y-58450000D02*
X254149600Y-60300400D01*
X212637100Y-104850400D02*
X203470400Y-104850400D01*
%TO.N,Net-(D42-Pad2)*%
X214234900Y-89359500D02*
X213859300Y-89359500D01*
X195451000Y-102649600D02*
X200081300Y-98019300D01*
X220000000Y-83594400D02*
X214234900Y-89359500D01*
X200081300Y-98019300D02*
X200081300Y-96170300D01*
X192620000Y-103750000D02*
X193720400Y-102649600D01*
X193720400Y-102649600D02*
X195451000Y-102649600D01*
X220000000Y-80450000D02*
X220000000Y-83594400D01*
%TO.N,Net-(D43-Pad2)*%
X269150300Y-31600300D02*
X274000000Y-36450000D01*
X259230300Y-30500000D02*
X260330600Y-31600300D01*
X260330600Y-31600300D02*
X269150300Y-31600300D01*
X258130000Y-30500000D02*
X259230300Y-30500000D01*
%TO.N,Net-(D44-Pad2)*%
X236986400Y-92537400D02*
X226315800Y-92537400D01*
X233185200Y-72748000D02*
X233185200Y-81915400D01*
X274000000Y-62860800D02*
X265815000Y-71045800D01*
X226315800Y-92537400D02*
X213220300Y-105632900D01*
X212120000Y-106250000D02*
X213220300Y-106250000D01*
X233185200Y-81915400D02*
X238909500Y-87639700D01*
X234887400Y-71045800D02*
X233185200Y-72748000D01*
X274000000Y-53450000D02*
X274000000Y-62860800D01*
X238909500Y-90614300D02*
X236986400Y-92537400D01*
X238909500Y-87639700D02*
X238909500Y-90614300D01*
X213220300Y-105632900D02*
X213220300Y-106250000D01*
X265815000Y-71045800D02*
X234887400Y-71045800D01*
%TO.N,Net-(D45-Pad2)*%
X239710100Y-89711000D02*
X257171500Y-72249600D01*
X237102300Y-93553700D02*
X239710100Y-90945900D01*
X267000800Y-72308600D02*
X272141400Y-72308600D01*
X234867500Y-93553700D02*
X237102300Y-93553700D01*
X272141400Y-72308600D02*
X274000000Y-70450000D01*
X227302700Y-107350400D02*
X227302700Y-101118500D01*
X239710100Y-90945900D02*
X239710100Y-89711000D01*
X266941800Y-72249600D02*
X267000800Y-72308600D01*
X257171500Y-72249600D02*
X266941800Y-72249600D01*
X227302700Y-101118500D02*
X234867500Y-93553700D01*
%TO.N,Net-(D46-Pad2)*%
X234701500Y-93153400D02*
X236936500Y-93153400D01*
X239309800Y-90780100D02*
X239309800Y-73484500D01*
X239309800Y-73484500D02*
X239275300Y-73450000D01*
X236936500Y-93153400D02*
X239309800Y-90780100D01*
X238000000Y-73450000D02*
X239275300Y-73450000D01*
X220080000Y-107774900D02*
X234701500Y-93153400D01*
X192620000Y-106250000D02*
X194144900Y-107774900D01*
X194144900Y-107774900D02*
X220080000Y-107774900D01*
%TO.N,/rcol0*%
X212989400Y-107360300D02*
X201924200Y-107360300D01*
X198548500Y-68898500D02*
X190900000Y-61250000D01*
X225099700Y-95250000D02*
X212989400Y-107360300D01*
X180496500Y-105746500D02*
X182100400Y-107350400D01*
X200801200Y-105149600D02*
X200801200Y-95523100D01*
X174408400Y-105746500D02*
X180496500Y-105746500D01*
X190700000Y-44250000D02*
X190700000Y-27250000D01*
X190125100Y-59074800D02*
X190700000Y-59649700D01*
X200801200Y-106237300D02*
X200801200Y-105149600D01*
X163700000Y-95250000D02*
X163911900Y-95250000D01*
X188861700Y-44012000D02*
X189099700Y-44250000D01*
X163911900Y-95250000D02*
X174408400Y-105746500D01*
X188359400Y-107350400D02*
X190560200Y-105149600D01*
X190125100Y-44250000D02*
X189099700Y-44250000D01*
X190700000Y-44250000D02*
X190125100Y-44250000D01*
X190560200Y-105149600D02*
X200801200Y-105149600D01*
X190700000Y-60449800D02*
X190700000Y-61250000D01*
X226700000Y-95250000D02*
X225099700Y-95250000D01*
X190900000Y-61250000D02*
X190700000Y-61250000D01*
X190700000Y-60449800D02*
X190700000Y-59649700D01*
X201924200Y-107360300D02*
X200801200Y-106237300D01*
X190125100Y-44250000D02*
X190125100Y-59074800D01*
X183361400Y-44012000D02*
X188861700Y-44012000D01*
X203275300Y-78740700D02*
X198548500Y-74013900D01*
X203275300Y-93049000D02*
X203275300Y-78740700D01*
X182100400Y-107350400D02*
X188359400Y-107350400D01*
X200801200Y-95523100D02*
X203275300Y-93049000D01*
X198548500Y-74013900D02*
X198548500Y-68898500D01*
%TO.N,/rcol1*%
X244700000Y-78250000D02*
X243099700Y-78250000D01*
X242045200Y-77195500D02*
X243099700Y-78250000D01*
X208700000Y-27250000D02*
X208700000Y-28850300D01*
X180399600Y-71489600D02*
X180399600Y-49513800D01*
X175153600Y-75796400D02*
X176092800Y-75796400D01*
X176092800Y-75796400D02*
X180399600Y-71489600D01*
X241670400Y-77195500D02*
X242045200Y-77195500D01*
X208700000Y-44250000D02*
X208700000Y-28850300D01*
X208700000Y-44250000D02*
X208700000Y-57735100D01*
X180399600Y-49513800D02*
X183361400Y-46552000D01*
X208700000Y-57735100D02*
X208700000Y-61250000D01*
X172700000Y-78250000D02*
X175153600Y-75796400D01*
%TO.N,/rcol2*%
X226700000Y-52372300D02*
X226675100Y-52347400D01*
X226700000Y-54250000D02*
X226700000Y-52372300D01*
X184839000Y-70788700D02*
X184839000Y-50569600D01*
X226700000Y-20250000D02*
X226700000Y-21850300D01*
X226675100Y-52347400D02*
X226700000Y-52322500D01*
X226700000Y-37250000D02*
X226700000Y-21850300D01*
X252618800Y-87331200D02*
X244700000Y-95250000D01*
X226700000Y-52322500D02*
X226700000Y-37250000D01*
X190700000Y-76649700D02*
X184839000Y-70788700D01*
X190700000Y-78250000D02*
X190700000Y-76649700D01*
X184839000Y-50569600D02*
X183361400Y-49092000D01*
%TO.N,/rcol3*%
X262700000Y-83367700D02*
X254893200Y-75560900D01*
X244700000Y-22250000D02*
X244700000Y-23850300D01*
X244700000Y-39250000D02*
X244700000Y-23850300D01*
X244700000Y-56250000D02*
X244700000Y-57850300D01*
X206908500Y-64987500D02*
X206908500Y-56234000D01*
X244700000Y-56250000D02*
X244700000Y-39250000D01*
X208700000Y-78250000D02*
X208700000Y-66779000D01*
X244075400Y-58474900D02*
X244075400Y-62664500D01*
X244700000Y-57850300D02*
X244075400Y-58474900D01*
X262700000Y-95250000D02*
X262700000Y-83367700D01*
X208700000Y-66779000D02*
X206908500Y-64987500D01*
%TO.N,/rcol4*%
X226700000Y-71250000D02*
X229700000Y-68250000D01*
X224776600Y-71636800D02*
X225099700Y-71313700D01*
X262700000Y-51250000D02*
X262700000Y-35850300D01*
X262700000Y-68250000D02*
X262700000Y-51250000D01*
X262700000Y-34250000D02*
X262700000Y-35850300D01*
X262700000Y-68250000D02*
X261099700Y-68250000D01*
X225099700Y-71313700D02*
X225099700Y-71250000D01*
X229700000Y-68250000D02*
X261099700Y-68250000D01*
X226700000Y-71250000D02*
X225099700Y-71250000D01*
%TO.N,/rRST*%
X170694000Y-36404600D02*
X170694000Y-67194000D01*
X176000000Y-71680600D02*
X176000000Y-74000000D01*
X173002700Y-68683300D02*
X176000000Y-71680600D01*
X168141400Y-33852000D02*
X170694000Y-36404600D01*
X172183300Y-68683300D02*
X173002700Y-68683300D01*
X170694000Y-67194000D02*
X172183300Y-68683300D01*
%TO.N,/rbuzzer*%
X181500000Y-63000000D02*
X181500000Y-61899700D01*
X183361400Y-60038300D02*
X183361400Y-56712000D01*
X181500000Y-61899700D02*
X183361400Y-60038300D01*
%TO.N,Net-(D48-Pad2)*%
X262839400Y-98470600D02*
X258130000Y-93761200D01*
X266624400Y-98470600D02*
X262839400Y-98470600D01*
X258130000Y-93761200D02*
X258130000Y-91500000D01*
X274000000Y-97450000D02*
X272141400Y-99308600D01*
X272141400Y-99308600D02*
X267462400Y-99308600D01*
X267462400Y-99308600D02*
X266624400Y-98470600D01*
%TD*%
M02*
