%FSLAX45Y45*%
G04 Gerber Fmt 4.5, Leading zero omitted, Abs format (unit mm)*
G04 Created by KiCad (PCBNEW (5.99.0-12766-g4a3658027e)) date 2021-12-04 14:11:50*
%MOMM*%
%LPD*%
G01*
G04 APERTURE LIST*
%TA.AperFunction,Profile*%
%ADD10C,0.050000*%
%TD*%
%ADD11C,0.200000*%
%ADD12C,0.040000*%
%ADD13C,0.055000*%
%ADD14C,0.080000*%
%ADD15C,0.081280*%
%ADD16C,0.085000*%
%ADD17C,0.090000*%
%ADD18C,0.110000*%
%ADD19C,0.320000*%
G04 APERTURE END LIST*
D10*
X15800000Y-9275000D02*
G75*
G03*
X16675000Y-8375000I-12500J887500D01*
G01*
X19200000Y-1775000D02*
G75*
G02*
X18500000Y-2475000I-700000J0D01*
G01*
X15800000Y-10975000D02*
X15800000Y-9275000D01*
X27500000Y-10975000D02*
X27500000Y-2575000D01*
X16675000Y-2475000D02*
X16675000Y-8375000D01*
X22100000Y-1775000D02*
X19200000Y-1775000D01*
X26700000Y-1775000D02*
X22100000Y-1775000D01*
X27500000Y-10975000D02*
X15800000Y-10975000D01*
X26700000Y-1775000D02*
G75*
G02*
X27500000Y-2575000I0J-800000D01*
G01*
X18500000Y-2475000D02*
X16675000Y-2475000D01*
D11*
D12*
X18695830Y-9600630D02*
X18735830Y-9640630D01*
X18735830Y-9600630D02*
X18695830Y-9640630D01*
X19988130Y-9597030D02*
X20028130Y-9637030D01*
X20028130Y-9597030D02*
X19988130Y-9637030D01*
X20670850Y-5603400D02*
X20710850Y-5643400D01*
X20710850Y-5603400D02*
X20670850Y-5643400D01*
X20850000Y-5753510D02*
X20890000Y-5793510D01*
X20890000Y-5753510D02*
X20850000Y-5793510D01*
X20958890Y-9296900D02*
X20998890Y-9336900D01*
X20998890Y-9296900D02*
X20958890Y-9336900D01*
X21365930Y-8915950D02*
X21405930Y-8955950D01*
X21405930Y-8915950D02*
X21365930Y-8955950D01*
X22457660Y-7143680D02*
X22497660Y-7183680D01*
X22497660Y-7143680D02*
X22457660Y-7183680D01*
X22647510Y-5214740D02*
X22687510Y-5254740D01*
X22687510Y-5214740D02*
X22647510Y-5254740D01*
X22710270Y-10715040D02*
X22750270Y-10755040D01*
X22750270Y-10715040D02*
X22710270Y-10755040D01*
X24147040Y-7699550D02*
X24187040Y-7739550D01*
X24187040Y-7699550D02*
X24147040Y-7739550D01*
X24387540Y-6246450D02*
X24427540Y-6286450D01*
X24427540Y-6246450D02*
X24387540Y-6286450D01*
X25241880Y-8713120D02*
X25281880Y-8753120D01*
X25281880Y-8713120D02*
X25241880Y-8753120D01*
X25469320Y-7536090D02*
X25509320Y-7576090D01*
X25509320Y-7536090D02*
X25469320Y-7576090D01*
D13*
X16907500Y-5962500D02*
G75*
G03*
X16907500Y-5962500I-27500J0D01*
G01*
D11*
X16912500Y-5945000D02*
X16847500Y-5945000D01*
X16912500Y-5980000D02*
X16847500Y-5980000D01*
X16847500Y-5945000D02*
G75*
G03*
X16847500Y-5980000I0J-17500D01*
G01*
X16912500Y-5980000D02*
G75*
G03*
X16912500Y-5945000I0J17500D01*
G01*
D13*
X16907500Y-6737500D02*
G75*
G03*
X16907500Y-6737500I-27500J0D01*
G01*
D11*
X16912500Y-6720000D02*
X16847500Y-6720000D01*
X16912500Y-6755000D02*
X16847500Y-6755000D01*
X16847500Y-6720000D02*
G75*
G03*
X16847500Y-6755000I0J-17500D01*
G01*
X16912500Y-6755000D02*
G75*
G03*
X16912500Y-6720000I0J17500D01*
G01*
D14*
X16825000Y-7010000D02*
X16825000Y-7090000D01*
X16785000Y-7050000D02*
X16865000Y-7050000D01*
X16825000Y-7310000D02*
X16825000Y-7390000D01*
X16785000Y-7350000D02*
X16865000Y-7350000D01*
X17325000Y-7010000D02*
X17325000Y-7090000D01*
X17285000Y-7050000D02*
X17365000Y-7050000D01*
X17325000Y-7310000D02*
X17325000Y-7390000D01*
X17285000Y-7350000D02*
X17365000Y-7350000D01*
X17800000Y-10010000D02*
X17800000Y-10090000D01*
X17760000Y-10050000D02*
X17840000Y-10050000D01*
X17800000Y-10772000D02*
X17800000Y-10852000D01*
X17760000Y-10812000D02*
X17840000Y-10812000D01*
X18100000Y-10010000D02*
X18100000Y-10090000D01*
X18060000Y-10050000D02*
X18140000Y-10050000D01*
X18100000Y-10772000D02*
X18100000Y-10852000D01*
X18060000Y-10812000D02*
X18140000Y-10812000D01*
X18500000Y-9585000D02*
X18500000Y-9665000D01*
X18460000Y-9625000D02*
X18540000Y-9625000D01*
X18500000Y-9835000D02*
X18500000Y-9915000D01*
X18460000Y-9875000D02*
X18540000Y-9875000D01*
X18500000Y-10085000D02*
X18500000Y-10165000D01*
X18460000Y-10125000D02*
X18540000Y-10125000D01*
X18500000Y-10335000D02*
X18500000Y-10415000D01*
X18460000Y-10375000D02*
X18540000Y-10375000D01*
X18500000Y-10585000D02*
X18500000Y-10665000D01*
X18460000Y-10625000D02*
X18540000Y-10625000D01*
X19262000Y-9585000D02*
X19262000Y-9665000D01*
X19222000Y-9625000D02*
X19302000Y-9625000D01*
X19262000Y-9835000D02*
X19262000Y-9915000D01*
X19222000Y-9875000D02*
X19302000Y-9875000D01*
X19262000Y-10085000D02*
X19262000Y-10165000D01*
X19222000Y-10125000D02*
X19302000Y-10125000D01*
X19262000Y-10335000D02*
X19262000Y-10415000D01*
X19222000Y-10375000D02*
X19302000Y-10375000D01*
X19262000Y-10585000D02*
X19262000Y-10665000D01*
X19222000Y-10625000D02*
X19302000Y-10625000D01*
X19475000Y-9585000D02*
X19475000Y-9665000D01*
X19435000Y-9625000D02*
X19515000Y-9625000D01*
X19475000Y-9835000D02*
X19475000Y-9915000D01*
X19435000Y-9875000D02*
X19515000Y-9875000D01*
X19475000Y-10085000D02*
X19475000Y-10165000D01*
X19435000Y-10125000D02*
X19515000Y-10125000D01*
X19475000Y-10335000D02*
X19475000Y-10415000D01*
X19435000Y-10375000D02*
X19515000Y-10375000D01*
X19475000Y-10585000D02*
X19475000Y-10665000D01*
X19435000Y-10625000D02*
X19515000Y-10625000D01*
X20237000Y-9585000D02*
X20237000Y-9665000D01*
X20197000Y-9625000D02*
X20277000Y-9625000D01*
X20237000Y-9835000D02*
X20237000Y-9915000D01*
X20197000Y-9875000D02*
X20277000Y-9875000D01*
X20237000Y-10085000D02*
X20237000Y-10165000D01*
X20197000Y-10125000D02*
X20277000Y-10125000D01*
X20237000Y-10335000D02*
X20237000Y-10415000D01*
X20197000Y-10375000D02*
X20277000Y-10375000D01*
X20237000Y-10585000D02*
X20237000Y-10665000D01*
X20197000Y-10625000D02*
X20277000Y-10625000D01*
X20450000Y-9585000D02*
X20450000Y-9665000D01*
X20410000Y-9625000D02*
X20490000Y-9625000D01*
X20450000Y-9835000D02*
X20450000Y-9915000D01*
X20410000Y-9875000D02*
X20490000Y-9875000D01*
X20450000Y-10085000D02*
X20450000Y-10165000D01*
X20410000Y-10125000D02*
X20490000Y-10125000D01*
X20450000Y-10335000D02*
X20450000Y-10415000D01*
X20410000Y-10375000D02*
X20490000Y-10375000D01*
X20450000Y-10585000D02*
X20450000Y-10665000D01*
X20410000Y-10625000D02*
X20490000Y-10625000D01*
X21212000Y-9585000D02*
X21212000Y-9665000D01*
X21172000Y-9625000D02*
X21252000Y-9625000D01*
X21212000Y-9835000D02*
X21212000Y-9915000D01*
X21172000Y-9875000D02*
X21252000Y-9875000D01*
X21212000Y-10085000D02*
X21212000Y-10165000D01*
X21172000Y-10125000D02*
X21252000Y-10125000D01*
X21212000Y-10335000D02*
X21212000Y-10415000D01*
X21172000Y-10375000D02*
X21252000Y-10375000D01*
X21212000Y-10585000D02*
X21212000Y-10665000D01*
X21172000Y-10625000D02*
X21252000Y-10625000D01*
X25813000Y-2010000D02*
X25813000Y-2090000D01*
X25773000Y-2050000D02*
X25853000Y-2050000D01*
X25813000Y-2260000D02*
X25813000Y-2340000D01*
X25773000Y-2300000D02*
X25853000Y-2300000D01*
X25813000Y-2510000D02*
X25813000Y-2590000D01*
X25773000Y-2550000D02*
X25853000Y-2550000D01*
X25813000Y-2760000D02*
X25813000Y-2840000D01*
X25773000Y-2800000D02*
X25853000Y-2800000D01*
X25813000Y-3010000D02*
X25813000Y-3090000D01*
X25773000Y-3050000D02*
X25853000Y-3050000D01*
X25813000Y-8360000D02*
X25813000Y-8440000D01*
X25773000Y-8400000D02*
X25853000Y-8400000D01*
X25813000Y-8610000D02*
X25813000Y-8690000D01*
X25773000Y-8650000D02*
X25853000Y-8650000D01*
X25813000Y-8860000D02*
X25813000Y-8940000D01*
X25773000Y-8900000D02*
X25853000Y-8900000D01*
X25813000Y-9110000D02*
X25813000Y-9190000D01*
X25773000Y-9150000D02*
X25853000Y-9150000D01*
X26575000Y-2010000D02*
X26575000Y-2090000D01*
X26535000Y-2050000D02*
X26615000Y-2050000D01*
X26575000Y-2260000D02*
X26575000Y-2340000D01*
X26535000Y-2300000D02*
X26615000Y-2300000D01*
X26575000Y-2510000D02*
X26575000Y-2590000D01*
X26535000Y-2550000D02*
X26615000Y-2550000D01*
X26575000Y-2760000D02*
X26575000Y-2840000D01*
X26535000Y-2800000D02*
X26615000Y-2800000D01*
X26575000Y-3010000D02*
X26575000Y-3090000D01*
X26535000Y-3050000D02*
X26615000Y-3050000D01*
X26575000Y-8360000D02*
X26575000Y-8440000D01*
X26535000Y-8400000D02*
X26615000Y-8400000D01*
X26575000Y-8610000D02*
X26575000Y-8690000D01*
X26535000Y-8650000D02*
X26615000Y-8650000D01*
X26575000Y-8860000D02*
X26575000Y-8940000D01*
X26535000Y-8900000D02*
X26615000Y-8900000D01*
X26575000Y-9110000D02*
X26575000Y-9190000D01*
X26535000Y-9150000D02*
X26615000Y-9150000D01*
D15*
X16842877Y-2905937D02*
X16842877Y-2848463D01*
X16785403Y-2848463D01*
X16785403Y-2905937D01*
X16842877Y-2905937D01*
X16842877Y-3159937D02*
X16842877Y-3102463D01*
X16785403Y-3102463D01*
X16785403Y-3159937D01*
X16842877Y-3159937D01*
X16842877Y-3413937D02*
X16842877Y-3356463D01*
X16785403Y-3356463D01*
X16785403Y-3413937D01*
X16842877Y-3413937D01*
X16842877Y-3667937D02*
X16842877Y-3610463D01*
X16785403Y-3610463D01*
X16785403Y-3667937D01*
X16842877Y-3667937D01*
X16842877Y-3921937D02*
X16842877Y-3864463D01*
X16785403Y-3864463D01*
X16785403Y-3921937D01*
X16842877Y-3921937D01*
X16842877Y-4175937D02*
X16842877Y-4118463D01*
X16785403Y-4118463D01*
X16785403Y-4175937D01*
X16842877Y-4175937D01*
X16842877Y-4429937D02*
X16842877Y-4372463D01*
X16785403Y-4372463D01*
X16785403Y-4429937D01*
X16842877Y-4429937D01*
X16842877Y-4683937D02*
X16842877Y-4626463D01*
X16785403Y-4626463D01*
X16785403Y-4683937D01*
X16842877Y-4683937D01*
X16842877Y-4937937D02*
X16842877Y-4880463D01*
X16785403Y-4880463D01*
X16785403Y-4937937D01*
X16842877Y-4937937D01*
X16842877Y-5191937D02*
X16842877Y-5134463D01*
X16785403Y-5134463D01*
X16785403Y-5191937D01*
X16842877Y-5191937D01*
X16842877Y-5445937D02*
X16842877Y-5388463D01*
X16785403Y-5388463D01*
X16785403Y-5445937D01*
X16842877Y-5445937D01*
X16842877Y-5699937D02*
X16842877Y-5642463D01*
X16785403Y-5642463D01*
X16785403Y-5699937D01*
X16842877Y-5699937D01*
X18364877Y-2905937D02*
X18364877Y-2848463D01*
X18307403Y-2848463D01*
X18307403Y-2905937D01*
X18364877Y-2905937D01*
X18364877Y-3159937D02*
X18364877Y-3102463D01*
X18307403Y-3102463D01*
X18307403Y-3159937D01*
X18364877Y-3159937D01*
X18364877Y-3413937D02*
X18364877Y-3356463D01*
X18307403Y-3356463D01*
X18307403Y-3413937D01*
X18364877Y-3413937D01*
X18364877Y-3667937D02*
X18364877Y-3610463D01*
X18307403Y-3610463D01*
X18307403Y-3667937D01*
X18364877Y-3667937D01*
X18364877Y-3921937D02*
X18364877Y-3864463D01*
X18307403Y-3864463D01*
X18307403Y-3921937D01*
X18364877Y-3921937D01*
X18364877Y-4175937D02*
X18364877Y-4118463D01*
X18307403Y-4118463D01*
X18307403Y-4175937D01*
X18364877Y-4175937D01*
X18364877Y-4429937D02*
X18364877Y-4372463D01*
X18307403Y-4372463D01*
X18307403Y-4429937D01*
X18364877Y-4429937D01*
X18364877Y-4683937D02*
X18364877Y-4626463D01*
X18307403Y-4626463D01*
X18307403Y-4683937D01*
X18364877Y-4683937D01*
X18364877Y-4937937D02*
X18364877Y-4880463D01*
X18307403Y-4880463D01*
X18307403Y-4937937D01*
X18364877Y-4937937D01*
X18364877Y-5191937D02*
X18364877Y-5134463D01*
X18307403Y-5134463D01*
X18307403Y-5191937D01*
X18364877Y-5191937D01*
X18364877Y-5445937D02*
X18364877Y-5388463D01*
X18307403Y-5388463D01*
X18307403Y-5445937D01*
X18364877Y-5445937D01*
X18364877Y-5699937D02*
X18364877Y-5642463D01*
X18307403Y-5642463D01*
X18307403Y-5699937D01*
X18364877Y-5699937D01*
D16*
X17260000Y-6020000D02*
X17302500Y-5977500D01*
X17260000Y-5935000D01*
X17217500Y-5977500D01*
X17260000Y-6020000D01*
D11*
X17287500Y-5945000D02*
X17232500Y-5945000D01*
X17287500Y-6010000D02*
X17232500Y-6010000D01*
X17232500Y-5945000D02*
G75*
G03*
X17232500Y-6010000I0J-32500D01*
G01*
X17287500Y-6010000D02*
G75*
G03*
X17287500Y-5945000I0J32500D01*
G01*
D16*
X17260000Y-6765000D02*
X17302500Y-6722500D01*
X17260000Y-6680000D01*
X17217500Y-6722500D01*
X17260000Y-6765000D01*
D11*
X17287500Y-6690000D02*
X17232500Y-6690000D01*
X17287500Y-6755000D02*
X17232500Y-6755000D01*
X17232500Y-6690000D02*
G75*
G03*
X17232500Y-6755000I0J-32500D01*
G01*
X17287500Y-6755000D02*
G75*
G03*
X17287500Y-6690000I0J32500D01*
G01*
D17*
X17705000Y-6255000D02*
X17795000Y-6345000D01*
X17795000Y-6255000D02*
X17705000Y-6345000D01*
X17795000Y-6300000D02*
G75*
G03*
X17795000Y-6300000I-45000J0D01*
G01*
X18105000Y-6255000D02*
X18195000Y-6345000D01*
X18195000Y-6255000D02*
X18105000Y-6345000D01*
X18195000Y-6300000D02*
G75*
G03*
X18195000Y-6300000I-45000J0D01*
G01*
D18*
X17545000Y-6895000D02*
X17655000Y-7005000D01*
X17655000Y-6895000D02*
X17545000Y-7005000D01*
X17600000Y-6895000D02*
X17600000Y-7005000D01*
X17545000Y-6950000D02*
X17655000Y-6950000D01*
X17545000Y-7345000D02*
X17655000Y-7455000D01*
X17655000Y-7345000D02*
X17545000Y-7455000D01*
X17600000Y-7345000D02*
X17600000Y-7455000D01*
X17545000Y-7400000D02*
X17655000Y-7400000D01*
X18195000Y-6895000D02*
X18305000Y-7005000D01*
X18305000Y-6895000D02*
X18195000Y-7005000D01*
X18250000Y-6895000D02*
X18250000Y-7005000D01*
X18195000Y-6950000D02*
X18305000Y-6950000D01*
X18195000Y-7345000D02*
X18305000Y-7455000D01*
X18305000Y-7345000D02*
X18195000Y-7455000D01*
X18250000Y-7345000D02*
X18250000Y-7455000D01*
X18195000Y-7400000D02*
X18305000Y-7400000D01*
D19*
X17765000Y-9440000D02*
X18085000Y-9760000D01*
X18085000Y-9440000D02*
X17765000Y-9760000D01*
X18038138Y-9713138D02*
X18038138Y-9486862D01*
X17811862Y-9486862D01*
X17811862Y-9713138D01*
X18038138Y-9713138D01*
X19290000Y-1990000D02*
X19610000Y-2310000D01*
X19610000Y-1990000D02*
X19290000Y-2310000D01*
X19563138Y-2263138D02*
X19563138Y-2036862D01*
X19336862Y-2036862D01*
X19336862Y-2263138D01*
X19563138Y-2263138D01*
X21615000Y-1990000D02*
X21935000Y-2310000D01*
X21935000Y-1990000D02*
X21615000Y-2310000D01*
X21888138Y-2263138D02*
X21888138Y-2036862D01*
X21661862Y-2036862D01*
X21661862Y-2263138D01*
X21888138Y-2263138D01*
X21615000Y-9440000D02*
X21935000Y-9760000D01*
X21935000Y-9440000D02*
X21615000Y-9760000D01*
X21888138Y-9713138D02*
X21888138Y-9486862D01*
X21661862Y-9486862D01*
X21661862Y-9713138D01*
X21888138Y-9713138D01*
X23415000Y-8765000D02*
X23735000Y-9085000D01*
X23735000Y-8765000D02*
X23415000Y-9085000D01*
X23688138Y-9038138D02*
X23688138Y-8811862D01*
X23461862Y-8811862D01*
X23461862Y-9038138D01*
X23688138Y-9038138D01*
X26865000Y-2090000D02*
X27185000Y-2410000D01*
X27185000Y-2090000D02*
X26865000Y-2410000D01*
X27138138Y-2363138D02*
X27138138Y-2136862D01*
X26911862Y-2136862D01*
X26911862Y-2363138D01*
X27138138Y-2363138D01*
X27015000Y-8615000D02*
X27335000Y-8935000D01*
X27335000Y-8615000D02*
X27015000Y-8935000D01*
X27288138Y-8888138D02*
X27288138Y-8661862D01*
X27061862Y-8661862D01*
X27061862Y-8888138D01*
X27288138Y-8888138D01*
D11*
X16050119Y-11287976D02*
X16050119Y-11087976D01*
X16097738Y-11087976D01*
X16126309Y-11097500D01*
X16145357Y-11116548D01*
X16154881Y-11135595D01*
X16164405Y-11173690D01*
X16164405Y-11202262D01*
X16154881Y-11240357D01*
X16145357Y-11259405D01*
X16126309Y-11278452D01*
X16097738Y-11287976D01*
X16050119Y-11287976D01*
X16250119Y-11287976D02*
X16250119Y-11154643D01*
X16250119Y-11192738D02*
X16259643Y-11173690D01*
X16269167Y-11164167D01*
X16288214Y-11154643D01*
X16307262Y-11154643D01*
X16373928Y-11287976D02*
X16373928Y-11154643D01*
X16373928Y-11087976D02*
X16364405Y-11097500D01*
X16373928Y-11107024D01*
X16383452Y-11097500D01*
X16373928Y-11087976D01*
X16373928Y-11107024D01*
X16497738Y-11287976D02*
X16478690Y-11278452D01*
X16469167Y-11259405D01*
X16469167Y-11087976D01*
X16602500Y-11287976D02*
X16583452Y-11278452D01*
X16573928Y-11259405D01*
X16573928Y-11087976D01*
X16831071Y-11287976D02*
X16831071Y-11087976D01*
X16897738Y-11230833D01*
X16964405Y-11087976D01*
X16964405Y-11287976D01*
X17145357Y-11287976D02*
X17145357Y-11183214D01*
X17135833Y-11164167D01*
X17116786Y-11154643D01*
X17078690Y-11154643D01*
X17059643Y-11164167D01*
X17145357Y-11278452D02*
X17126310Y-11287976D01*
X17078690Y-11287976D01*
X17059643Y-11278452D01*
X17050119Y-11259405D01*
X17050119Y-11240357D01*
X17059643Y-11221309D01*
X17078690Y-11211786D01*
X17126310Y-11211786D01*
X17145357Y-11202262D01*
X17240595Y-11154643D02*
X17240595Y-11354643D01*
X17240595Y-11164167D02*
X17259643Y-11154643D01*
X17297738Y-11154643D01*
X17316786Y-11164167D01*
X17326310Y-11173690D01*
X17335833Y-11192738D01*
X17335833Y-11249881D01*
X17326310Y-11268928D01*
X17316786Y-11278452D01*
X17297738Y-11287976D01*
X17259643Y-11287976D01*
X17240595Y-11278452D01*
X17421548Y-11268928D02*
X17431071Y-11278452D01*
X17421548Y-11287976D01*
X17412024Y-11278452D01*
X17421548Y-11268928D01*
X17421548Y-11287976D01*
X17421548Y-11164167D02*
X17431071Y-11173690D01*
X17421548Y-11183214D01*
X17412024Y-11173690D01*
X17421548Y-11164167D01*
X17421548Y-11183214D01*
D12*
X15752500Y-11597500D02*
X15792500Y-11637500D01*
X15792500Y-11597500D02*
X15752500Y-11637500D01*
D11*
X16088214Y-11507976D02*
X16107262Y-11507976D01*
X16126309Y-11517500D01*
X16135833Y-11527024D01*
X16145357Y-11546071D01*
X16154881Y-11584167D01*
X16154881Y-11631786D01*
X16145357Y-11669881D01*
X16135833Y-11688928D01*
X16126309Y-11698452D01*
X16107262Y-11707976D01*
X16088214Y-11707976D01*
X16069167Y-11698452D01*
X16059643Y-11688928D01*
X16050119Y-11669881D01*
X16040595Y-11631786D01*
X16040595Y-11584167D01*
X16050119Y-11546071D01*
X16059643Y-11527024D01*
X16069167Y-11517500D01*
X16088214Y-11507976D01*
X16240595Y-11688928D02*
X16250119Y-11698452D01*
X16240595Y-11707976D01*
X16231071Y-11698452D01*
X16240595Y-11688928D01*
X16240595Y-11707976D01*
X16421548Y-11574643D02*
X16421548Y-11707976D01*
X16373928Y-11498452D02*
X16326309Y-11641309D01*
X16450119Y-11641309D01*
X16564405Y-11507976D02*
X16583452Y-11507976D01*
X16602500Y-11517500D01*
X16612024Y-11527024D01*
X16621548Y-11546071D01*
X16631071Y-11584167D01*
X16631071Y-11631786D01*
X16621548Y-11669881D01*
X16612024Y-11688928D01*
X16602500Y-11698452D01*
X16583452Y-11707976D01*
X16564405Y-11707976D01*
X16545357Y-11698452D01*
X16535833Y-11688928D01*
X16526309Y-11669881D01*
X16516786Y-11631786D01*
X16516786Y-11584167D01*
X16526309Y-11546071D01*
X16535833Y-11527024D01*
X16545357Y-11517500D01*
X16564405Y-11507976D01*
X16754881Y-11507976D02*
X16773928Y-11507976D01*
X16792976Y-11517500D01*
X16802500Y-11527024D01*
X16812024Y-11546071D01*
X16821548Y-11584167D01*
X16821548Y-11631786D01*
X16812024Y-11669881D01*
X16802500Y-11688928D01*
X16792976Y-11698452D01*
X16773928Y-11707976D01*
X16754881Y-11707976D01*
X16735833Y-11698452D01*
X16726309Y-11688928D01*
X16716786Y-11669881D01*
X16707262Y-11631786D01*
X16707262Y-11584167D01*
X16716786Y-11546071D01*
X16726309Y-11527024D01*
X16735833Y-11517500D01*
X16754881Y-11507976D01*
X16907262Y-11707976D02*
X16907262Y-11574643D01*
X16907262Y-11593690D02*
X16916786Y-11584167D01*
X16935833Y-11574643D01*
X16964405Y-11574643D01*
X16983452Y-11584167D01*
X16992976Y-11603214D01*
X16992976Y-11707976D01*
X16992976Y-11603214D02*
X17002500Y-11584167D01*
X17021548Y-11574643D01*
X17050119Y-11574643D01*
X17069167Y-11584167D01*
X17078690Y-11603214D01*
X17078690Y-11707976D01*
X17173929Y-11707976D02*
X17173929Y-11574643D01*
X17173929Y-11593690D02*
X17183452Y-11584167D01*
X17202500Y-11574643D01*
X17231071Y-11574643D01*
X17250119Y-11584167D01*
X17259643Y-11603214D01*
X17259643Y-11707976D01*
X17259643Y-11603214D02*
X17269167Y-11584167D01*
X17288214Y-11574643D01*
X17316786Y-11574643D01*
X17335833Y-11584167D01*
X17345357Y-11603214D01*
X17345357Y-11707976D01*
X17735833Y-11498452D02*
X17564405Y-11755595D01*
X17992976Y-11507976D02*
X18012024Y-11507976D01*
X18031071Y-11517500D01*
X18040595Y-11527024D01*
X18050119Y-11546071D01*
X18059643Y-11584167D01*
X18059643Y-11631786D01*
X18050119Y-11669881D01*
X18040595Y-11688928D01*
X18031071Y-11698452D01*
X18012024Y-11707976D01*
X17992976Y-11707976D01*
X17973929Y-11698452D01*
X17964405Y-11688928D01*
X17954881Y-11669881D01*
X17945357Y-11631786D01*
X17945357Y-11584167D01*
X17954881Y-11546071D01*
X17964405Y-11527024D01*
X17973929Y-11517500D01*
X17992976Y-11507976D01*
X18145357Y-11688928D02*
X18154881Y-11698452D01*
X18145357Y-11707976D01*
X18135833Y-11698452D01*
X18145357Y-11688928D01*
X18145357Y-11707976D01*
X18278690Y-11507976D02*
X18297738Y-11507976D01*
X18316786Y-11517500D01*
X18326310Y-11527024D01*
X18335833Y-11546071D01*
X18345357Y-11584167D01*
X18345357Y-11631786D01*
X18335833Y-11669881D01*
X18326310Y-11688928D01*
X18316786Y-11698452D01*
X18297738Y-11707976D01*
X18278690Y-11707976D01*
X18259643Y-11698452D01*
X18250119Y-11688928D01*
X18240595Y-11669881D01*
X18231071Y-11631786D01*
X18231071Y-11584167D01*
X18240595Y-11546071D01*
X18250119Y-11527024D01*
X18259643Y-11517500D01*
X18278690Y-11507976D01*
X18535833Y-11707976D02*
X18421548Y-11707976D01*
X18478690Y-11707976D02*
X18478690Y-11507976D01*
X18459643Y-11536548D01*
X18440595Y-11555595D01*
X18421548Y-11565119D01*
X18716786Y-11507976D02*
X18621548Y-11507976D01*
X18612024Y-11603214D01*
X18621548Y-11593690D01*
X18640595Y-11584167D01*
X18688214Y-11584167D01*
X18707262Y-11593690D01*
X18716786Y-11603214D01*
X18726310Y-11622262D01*
X18726310Y-11669881D01*
X18716786Y-11688928D01*
X18707262Y-11698452D01*
X18688214Y-11707976D01*
X18640595Y-11707976D01*
X18621548Y-11698452D01*
X18612024Y-11688928D01*
X18792976Y-11507976D02*
X18926310Y-11507976D01*
X18840595Y-11707976D01*
X18992976Y-11507976D02*
X18992976Y-11546071D01*
X19069167Y-11507976D02*
X19069167Y-11546071D01*
X19364405Y-11784167D02*
X19354881Y-11774643D01*
X19335833Y-11746071D01*
X19326310Y-11727024D01*
X19316786Y-11698452D01*
X19307262Y-11650833D01*
X19307262Y-11612738D01*
X19316786Y-11565119D01*
X19326310Y-11536548D01*
X19335833Y-11517500D01*
X19354881Y-11488928D01*
X19364405Y-11479405D01*
X19545357Y-11707976D02*
X19431071Y-11707976D01*
X19488214Y-11707976D02*
X19488214Y-11507976D01*
X19469167Y-11536548D01*
X19450119Y-11555595D01*
X19431071Y-11565119D01*
X19612024Y-11507976D02*
X19735833Y-11507976D01*
X19669167Y-11584167D01*
X19697738Y-11584167D01*
X19716786Y-11593690D01*
X19726310Y-11603214D01*
X19735833Y-11622262D01*
X19735833Y-11669881D01*
X19726310Y-11688928D01*
X19716786Y-11698452D01*
X19697738Y-11707976D01*
X19640595Y-11707976D01*
X19621548Y-11698452D01*
X19612024Y-11688928D01*
X19973929Y-11707976D02*
X19973929Y-11507976D01*
X20059643Y-11707976D02*
X20059643Y-11603214D01*
X20050119Y-11584167D01*
X20031071Y-11574643D01*
X20002500Y-11574643D01*
X19983452Y-11584167D01*
X19973929Y-11593690D01*
X20183452Y-11707976D02*
X20164405Y-11698452D01*
X20154881Y-11688928D01*
X20145357Y-11669881D01*
X20145357Y-11612738D01*
X20154881Y-11593690D01*
X20164405Y-11584167D01*
X20183452Y-11574643D01*
X20212024Y-11574643D01*
X20231071Y-11584167D01*
X20240595Y-11593690D01*
X20250119Y-11612738D01*
X20250119Y-11669881D01*
X20240595Y-11688928D01*
X20231071Y-11698452D01*
X20212024Y-11707976D01*
X20183452Y-11707976D01*
X20364405Y-11707976D02*
X20345357Y-11698452D01*
X20335833Y-11679405D01*
X20335833Y-11507976D01*
X20516786Y-11698452D02*
X20497738Y-11707976D01*
X20459643Y-11707976D01*
X20440595Y-11698452D01*
X20431071Y-11679405D01*
X20431071Y-11603214D01*
X20440595Y-11584167D01*
X20459643Y-11574643D01*
X20497738Y-11574643D01*
X20516786Y-11584167D01*
X20526310Y-11603214D01*
X20526310Y-11622262D01*
X20431071Y-11641309D01*
X20602500Y-11698452D02*
X20621548Y-11707976D01*
X20659643Y-11707976D01*
X20678690Y-11698452D01*
X20688214Y-11679405D01*
X20688214Y-11669881D01*
X20678690Y-11650833D01*
X20659643Y-11641309D01*
X20631071Y-11641309D01*
X20612024Y-11631786D01*
X20602500Y-11612738D01*
X20602500Y-11603214D01*
X20612024Y-11584167D01*
X20631071Y-11574643D01*
X20659643Y-11574643D01*
X20678690Y-11584167D01*
X20754881Y-11784167D02*
X20764405Y-11774643D01*
X20783452Y-11746071D01*
X20792976Y-11727024D01*
X20802500Y-11698452D01*
X20812024Y-11650833D01*
X20812024Y-11612738D01*
X20802500Y-11565119D01*
X20792976Y-11536548D01*
X20783452Y-11517500D01*
X20764405Y-11488928D01*
X20754881Y-11479405D01*
D13*
X15792500Y-11881500D02*
G75*
G03*
X15792500Y-11881500I-27500J0D01*
G01*
D11*
X16088214Y-11771976D02*
X16107262Y-11771976D01*
X16126309Y-11781500D01*
X16135833Y-11791024D01*
X16145357Y-11810071D01*
X16154881Y-11848167D01*
X16154881Y-11895786D01*
X16145357Y-11933881D01*
X16135833Y-11952928D01*
X16126309Y-11962452D01*
X16107262Y-11971976D01*
X16088214Y-11971976D01*
X16069167Y-11962452D01*
X16059643Y-11952928D01*
X16050119Y-11933881D01*
X16040595Y-11895786D01*
X16040595Y-11848167D01*
X16050119Y-11810071D01*
X16059643Y-11791024D01*
X16069167Y-11781500D01*
X16088214Y-11771976D01*
X16240595Y-11952928D02*
X16250119Y-11962452D01*
X16240595Y-11971976D01*
X16231071Y-11962452D01*
X16240595Y-11952928D01*
X16240595Y-11971976D01*
X16431071Y-11771976D02*
X16335833Y-11771976D01*
X16326309Y-11867214D01*
X16335833Y-11857690D01*
X16354881Y-11848167D01*
X16402500Y-11848167D01*
X16421548Y-11857690D01*
X16431071Y-11867214D01*
X16440595Y-11886262D01*
X16440595Y-11933881D01*
X16431071Y-11952928D01*
X16421548Y-11962452D01*
X16402500Y-11971976D01*
X16354881Y-11971976D01*
X16335833Y-11962452D01*
X16326309Y-11952928D01*
X16621548Y-11771976D02*
X16526309Y-11771976D01*
X16516786Y-11867214D01*
X16526309Y-11857690D01*
X16545357Y-11848167D01*
X16592976Y-11848167D01*
X16612024Y-11857690D01*
X16621548Y-11867214D01*
X16631071Y-11886262D01*
X16631071Y-11933881D01*
X16621548Y-11952928D01*
X16612024Y-11962452D01*
X16592976Y-11971976D01*
X16545357Y-11971976D01*
X16526309Y-11962452D01*
X16516786Y-11952928D01*
X16754881Y-11771976D02*
X16773928Y-11771976D01*
X16792976Y-11781500D01*
X16802500Y-11791024D01*
X16812024Y-11810071D01*
X16821548Y-11848167D01*
X16821548Y-11895786D01*
X16812024Y-11933881D01*
X16802500Y-11952928D01*
X16792976Y-11962452D01*
X16773928Y-11971976D01*
X16754881Y-11971976D01*
X16735833Y-11962452D01*
X16726309Y-11952928D01*
X16716786Y-11933881D01*
X16707262Y-11895786D01*
X16707262Y-11848167D01*
X16716786Y-11810071D01*
X16726309Y-11791024D01*
X16735833Y-11781500D01*
X16754881Y-11771976D01*
X16907262Y-11971976D02*
X16907262Y-11838643D01*
X16907262Y-11857690D02*
X16916786Y-11848167D01*
X16935833Y-11838643D01*
X16964405Y-11838643D01*
X16983452Y-11848167D01*
X16992976Y-11867214D01*
X16992976Y-11971976D01*
X16992976Y-11867214D02*
X17002500Y-11848167D01*
X17021548Y-11838643D01*
X17050119Y-11838643D01*
X17069167Y-11848167D01*
X17078690Y-11867214D01*
X17078690Y-11971976D01*
X17173929Y-11971976D02*
X17173929Y-11838643D01*
X17173929Y-11857690D02*
X17183452Y-11848167D01*
X17202500Y-11838643D01*
X17231071Y-11838643D01*
X17250119Y-11848167D01*
X17259643Y-11867214D01*
X17259643Y-11971976D01*
X17259643Y-11867214D02*
X17269167Y-11848167D01*
X17288214Y-11838643D01*
X17316786Y-11838643D01*
X17335833Y-11848167D01*
X17345357Y-11867214D01*
X17345357Y-11971976D01*
X17735833Y-11762452D02*
X17564405Y-12019595D01*
X17992976Y-11771976D02*
X18012024Y-11771976D01*
X18031071Y-11781500D01*
X18040595Y-11791024D01*
X18050119Y-11810071D01*
X18059643Y-11848167D01*
X18059643Y-11895786D01*
X18050119Y-11933881D01*
X18040595Y-11952928D01*
X18031071Y-11962452D01*
X18012024Y-11971976D01*
X17992976Y-11971976D01*
X17973929Y-11962452D01*
X17964405Y-11952928D01*
X17954881Y-11933881D01*
X17945357Y-11895786D01*
X17945357Y-11848167D01*
X17954881Y-11810071D01*
X17964405Y-11791024D01*
X17973929Y-11781500D01*
X17992976Y-11771976D01*
X18145357Y-11952928D02*
X18154881Y-11962452D01*
X18145357Y-11971976D01*
X18135833Y-11962452D01*
X18145357Y-11952928D01*
X18145357Y-11971976D01*
X18278690Y-11771976D02*
X18297738Y-11771976D01*
X18316786Y-11781500D01*
X18326310Y-11791024D01*
X18335833Y-11810071D01*
X18345357Y-11848167D01*
X18345357Y-11895786D01*
X18335833Y-11933881D01*
X18326310Y-11952928D01*
X18316786Y-11962452D01*
X18297738Y-11971976D01*
X18278690Y-11971976D01*
X18259643Y-11962452D01*
X18250119Y-11952928D01*
X18240595Y-11933881D01*
X18231071Y-11895786D01*
X18231071Y-11848167D01*
X18240595Y-11810071D01*
X18250119Y-11791024D01*
X18259643Y-11781500D01*
X18278690Y-11771976D01*
X18421548Y-11791024D02*
X18431071Y-11781500D01*
X18450119Y-11771976D01*
X18497738Y-11771976D01*
X18516786Y-11781500D01*
X18526310Y-11791024D01*
X18535833Y-11810071D01*
X18535833Y-11829119D01*
X18526310Y-11857690D01*
X18412024Y-11971976D01*
X18535833Y-11971976D01*
X18726310Y-11971976D02*
X18612024Y-11971976D01*
X18669167Y-11971976D02*
X18669167Y-11771976D01*
X18650119Y-11800548D01*
X18631071Y-11819595D01*
X18612024Y-11829119D01*
X18792976Y-11771976D02*
X18926310Y-11771976D01*
X18840595Y-11971976D01*
X18992976Y-11771976D02*
X18992976Y-11810071D01*
X19069167Y-11771976D02*
X19069167Y-11810071D01*
X19364405Y-12048167D02*
X19354881Y-12038643D01*
X19335833Y-12010071D01*
X19326310Y-11991024D01*
X19316786Y-11962452D01*
X19307262Y-11914833D01*
X19307262Y-11876738D01*
X19316786Y-11829119D01*
X19326310Y-11800548D01*
X19335833Y-11781500D01*
X19354881Y-11752928D01*
X19364405Y-11743405D01*
X19478690Y-11771976D02*
X19497738Y-11771976D01*
X19516786Y-11781500D01*
X19526310Y-11791024D01*
X19535833Y-11810071D01*
X19545357Y-11848167D01*
X19545357Y-11895786D01*
X19535833Y-11933881D01*
X19526310Y-11952928D01*
X19516786Y-11962452D01*
X19497738Y-11971976D01*
X19478690Y-11971976D01*
X19459643Y-11962452D01*
X19450119Y-11952928D01*
X19440595Y-11933881D01*
X19431071Y-11895786D01*
X19431071Y-11848167D01*
X19440595Y-11810071D01*
X19450119Y-11791024D01*
X19459643Y-11781500D01*
X19478690Y-11771976D01*
X19783452Y-11971976D02*
X19783452Y-11771976D01*
X19869167Y-11971976D02*
X19869167Y-11867214D01*
X19859643Y-11848167D01*
X19840595Y-11838643D01*
X19812024Y-11838643D01*
X19792976Y-11848167D01*
X19783452Y-11857690D01*
X19992976Y-11971976D02*
X19973929Y-11962452D01*
X19964405Y-11952928D01*
X19954881Y-11933881D01*
X19954881Y-11876738D01*
X19964405Y-11857690D01*
X19973929Y-11848167D01*
X19992976Y-11838643D01*
X20021548Y-11838643D01*
X20040595Y-11848167D01*
X20050119Y-11857690D01*
X20059643Y-11876738D01*
X20059643Y-11933881D01*
X20050119Y-11952928D01*
X20040595Y-11962452D01*
X20021548Y-11971976D01*
X19992976Y-11971976D01*
X20173929Y-11971976D02*
X20154881Y-11962452D01*
X20145357Y-11943405D01*
X20145357Y-11771976D01*
X20326310Y-11962452D02*
X20307262Y-11971976D01*
X20269167Y-11971976D01*
X20250119Y-11962452D01*
X20240595Y-11943405D01*
X20240595Y-11867214D01*
X20250119Y-11848167D01*
X20269167Y-11838643D01*
X20307262Y-11838643D01*
X20326310Y-11848167D01*
X20335833Y-11867214D01*
X20335833Y-11886262D01*
X20240595Y-11905309D01*
X20412024Y-11962452D02*
X20431071Y-11971976D01*
X20469167Y-11971976D01*
X20488214Y-11962452D01*
X20497738Y-11943405D01*
X20497738Y-11933881D01*
X20488214Y-11914833D01*
X20469167Y-11905309D01*
X20440595Y-11905309D01*
X20421548Y-11895786D01*
X20412024Y-11876738D01*
X20412024Y-11867214D01*
X20421548Y-11848167D01*
X20440595Y-11838643D01*
X20469167Y-11838643D01*
X20488214Y-11848167D01*
X20735833Y-11895786D02*
X20888214Y-11895786D01*
X20812024Y-11971976D02*
X20812024Y-11819595D01*
X21126310Y-11791024D02*
X21135833Y-11781500D01*
X21154881Y-11771976D01*
X21202500Y-11771976D01*
X21221548Y-11781500D01*
X21231071Y-11791024D01*
X21240595Y-11810071D01*
X21240595Y-11829119D01*
X21231071Y-11857690D01*
X21116786Y-11971976D01*
X21240595Y-11971976D01*
X21469167Y-11962452D02*
X21488214Y-11971976D01*
X21526310Y-11971976D01*
X21545357Y-11962452D01*
X21554881Y-11943405D01*
X21554881Y-11933881D01*
X21545357Y-11914833D01*
X21526310Y-11905309D01*
X21497738Y-11905309D01*
X21478690Y-11895786D01*
X21469167Y-11876738D01*
X21469167Y-11867214D01*
X21478690Y-11848167D01*
X21497738Y-11838643D01*
X21526310Y-11838643D01*
X21545357Y-11848167D01*
X21669167Y-11971976D02*
X21650119Y-11962452D01*
X21640595Y-11943405D01*
X21640595Y-11771976D01*
X21773929Y-11971976D02*
X21754881Y-11962452D01*
X21745357Y-11952928D01*
X21735833Y-11933881D01*
X21735833Y-11876738D01*
X21745357Y-11857690D01*
X21754881Y-11848167D01*
X21773929Y-11838643D01*
X21802500Y-11838643D01*
X21821548Y-11848167D01*
X21831071Y-11857690D01*
X21840595Y-11876738D01*
X21840595Y-11933881D01*
X21831071Y-11952928D01*
X21821548Y-11962452D01*
X21802500Y-11971976D01*
X21773929Y-11971976D01*
X21897738Y-11838643D02*
X21973929Y-11838643D01*
X21926310Y-11771976D02*
X21926310Y-11943405D01*
X21935833Y-11962452D01*
X21954881Y-11971976D01*
X21973929Y-11971976D01*
X22031071Y-11962452D02*
X22050119Y-11971976D01*
X22088214Y-11971976D01*
X22107262Y-11962452D01*
X22116786Y-11943405D01*
X22116786Y-11933881D01*
X22107262Y-11914833D01*
X22088214Y-11905309D01*
X22059643Y-11905309D01*
X22040595Y-11895786D01*
X22031071Y-11876738D01*
X22031071Y-11867214D01*
X22040595Y-11848167D01*
X22059643Y-11838643D01*
X22088214Y-11838643D01*
X22107262Y-11848167D01*
X22183452Y-12048167D02*
X22192976Y-12038643D01*
X22212024Y-12010071D01*
X22221548Y-11991024D01*
X22231071Y-11962452D01*
X22240595Y-11914833D01*
X22240595Y-11876738D01*
X22231071Y-11829119D01*
X22221548Y-11800548D01*
X22212024Y-11781500D01*
X22192976Y-11752928D01*
X22183452Y-11743405D01*
D14*
X15752500Y-12105500D02*
X15752500Y-12185500D01*
X15712500Y-12145500D02*
X15792500Y-12145500D01*
D11*
X16088214Y-12035976D02*
X16107262Y-12035976D01*
X16126309Y-12045500D01*
X16135833Y-12055024D01*
X16145357Y-12074071D01*
X16154881Y-12112167D01*
X16154881Y-12159786D01*
X16145357Y-12197881D01*
X16135833Y-12216928D01*
X16126309Y-12226452D01*
X16107262Y-12235976D01*
X16088214Y-12235976D01*
X16069167Y-12226452D01*
X16059643Y-12216928D01*
X16050119Y-12197881D01*
X16040595Y-12159786D01*
X16040595Y-12112167D01*
X16050119Y-12074071D01*
X16059643Y-12055024D01*
X16069167Y-12045500D01*
X16088214Y-12035976D01*
X16240595Y-12216928D02*
X16250119Y-12226452D01*
X16240595Y-12235976D01*
X16231071Y-12226452D01*
X16240595Y-12216928D01*
X16240595Y-12235976D01*
X16364405Y-12121690D02*
X16345357Y-12112167D01*
X16335833Y-12102643D01*
X16326309Y-12083595D01*
X16326309Y-12074071D01*
X16335833Y-12055024D01*
X16345357Y-12045500D01*
X16364405Y-12035976D01*
X16402500Y-12035976D01*
X16421548Y-12045500D01*
X16431071Y-12055024D01*
X16440595Y-12074071D01*
X16440595Y-12083595D01*
X16431071Y-12102643D01*
X16421548Y-12112167D01*
X16402500Y-12121690D01*
X16364405Y-12121690D01*
X16345357Y-12131214D01*
X16335833Y-12140738D01*
X16326309Y-12159786D01*
X16326309Y-12197881D01*
X16335833Y-12216928D01*
X16345357Y-12226452D01*
X16364405Y-12235976D01*
X16402500Y-12235976D01*
X16421548Y-12226452D01*
X16431071Y-12216928D01*
X16440595Y-12197881D01*
X16440595Y-12159786D01*
X16431071Y-12140738D01*
X16421548Y-12131214D01*
X16402500Y-12121690D01*
X16564405Y-12035976D02*
X16583452Y-12035976D01*
X16602500Y-12045500D01*
X16612024Y-12055024D01*
X16621548Y-12074071D01*
X16631071Y-12112167D01*
X16631071Y-12159786D01*
X16621548Y-12197881D01*
X16612024Y-12216928D01*
X16602500Y-12226452D01*
X16583452Y-12235976D01*
X16564405Y-12235976D01*
X16545357Y-12226452D01*
X16535833Y-12216928D01*
X16526309Y-12197881D01*
X16516786Y-12159786D01*
X16516786Y-12112167D01*
X16526309Y-12074071D01*
X16535833Y-12055024D01*
X16545357Y-12045500D01*
X16564405Y-12035976D01*
X16754881Y-12035976D02*
X16773928Y-12035976D01*
X16792976Y-12045500D01*
X16802500Y-12055024D01*
X16812024Y-12074071D01*
X16821548Y-12112167D01*
X16821548Y-12159786D01*
X16812024Y-12197881D01*
X16802500Y-12216928D01*
X16792976Y-12226452D01*
X16773928Y-12235976D01*
X16754881Y-12235976D01*
X16735833Y-12226452D01*
X16726309Y-12216928D01*
X16716786Y-12197881D01*
X16707262Y-12159786D01*
X16707262Y-12112167D01*
X16716786Y-12074071D01*
X16726309Y-12055024D01*
X16735833Y-12045500D01*
X16754881Y-12035976D01*
X16907262Y-12235976D02*
X16907262Y-12102643D01*
X16907262Y-12121690D02*
X16916786Y-12112167D01*
X16935833Y-12102643D01*
X16964405Y-12102643D01*
X16983452Y-12112167D01*
X16992976Y-12131214D01*
X16992976Y-12235976D01*
X16992976Y-12131214D02*
X17002500Y-12112167D01*
X17021548Y-12102643D01*
X17050119Y-12102643D01*
X17069167Y-12112167D01*
X17078690Y-12131214D01*
X17078690Y-12235976D01*
X17173929Y-12235976D02*
X17173929Y-12102643D01*
X17173929Y-12121690D02*
X17183452Y-12112167D01*
X17202500Y-12102643D01*
X17231071Y-12102643D01*
X17250119Y-12112167D01*
X17259643Y-12131214D01*
X17259643Y-12235976D01*
X17259643Y-12131214D02*
X17269167Y-12112167D01*
X17288214Y-12102643D01*
X17316786Y-12102643D01*
X17335833Y-12112167D01*
X17345357Y-12131214D01*
X17345357Y-12235976D01*
X17735833Y-12026452D02*
X17564405Y-12283595D01*
X17992976Y-12035976D02*
X18012024Y-12035976D01*
X18031071Y-12045500D01*
X18040595Y-12055024D01*
X18050119Y-12074071D01*
X18059643Y-12112167D01*
X18059643Y-12159786D01*
X18050119Y-12197881D01*
X18040595Y-12216928D01*
X18031071Y-12226452D01*
X18012024Y-12235976D01*
X17992976Y-12235976D01*
X17973929Y-12226452D01*
X17964405Y-12216928D01*
X17954881Y-12197881D01*
X17945357Y-12159786D01*
X17945357Y-12112167D01*
X17954881Y-12074071D01*
X17964405Y-12055024D01*
X17973929Y-12045500D01*
X17992976Y-12035976D01*
X18145357Y-12216928D02*
X18154881Y-12226452D01*
X18145357Y-12235976D01*
X18135833Y-12226452D01*
X18145357Y-12216928D01*
X18145357Y-12235976D01*
X18278690Y-12035976D02*
X18297738Y-12035976D01*
X18316786Y-12045500D01*
X18326310Y-12055024D01*
X18335833Y-12074071D01*
X18345357Y-12112167D01*
X18345357Y-12159786D01*
X18335833Y-12197881D01*
X18326310Y-12216928D01*
X18316786Y-12226452D01*
X18297738Y-12235976D01*
X18278690Y-12235976D01*
X18259643Y-12226452D01*
X18250119Y-12216928D01*
X18240595Y-12197881D01*
X18231071Y-12159786D01*
X18231071Y-12112167D01*
X18240595Y-12074071D01*
X18250119Y-12055024D01*
X18259643Y-12045500D01*
X18278690Y-12035976D01*
X18412024Y-12035976D02*
X18535833Y-12035976D01*
X18469167Y-12112167D01*
X18497738Y-12112167D01*
X18516786Y-12121690D01*
X18526310Y-12131214D01*
X18535833Y-12150262D01*
X18535833Y-12197881D01*
X18526310Y-12216928D01*
X18516786Y-12226452D01*
X18497738Y-12235976D01*
X18440595Y-12235976D01*
X18421548Y-12226452D01*
X18412024Y-12216928D01*
X18726310Y-12235976D02*
X18612024Y-12235976D01*
X18669167Y-12235976D02*
X18669167Y-12035976D01*
X18650119Y-12064548D01*
X18631071Y-12083595D01*
X18612024Y-12093119D01*
X18907262Y-12035976D02*
X18812024Y-12035976D01*
X18802500Y-12131214D01*
X18812024Y-12121690D01*
X18831071Y-12112167D01*
X18878690Y-12112167D01*
X18897738Y-12121690D01*
X18907262Y-12131214D01*
X18916786Y-12150262D01*
X18916786Y-12197881D01*
X18907262Y-12216928D01*
X18897738Y-12226452D01*
X18878690Y-12235976D01*
X18831071Y-12235976D01*
X18812024Y-12226452D01*
X18802500Y-12216928D01*
X18992976Y-12035976D02*
X18992976Y-12074071D01*
X19069167Y-12035976D02*
X19069167Y-12074071D01*
X19364405Y-12312167D02*
X19354881Y-12302643D01*
X19335833Y-12274071D01*
X19326310Y-12255024D01*
X19316786Y-12226452D01*
X19307262Y-12178833D01*
X19307262Y-12140738D01*
X19316786Y-12093119D01*
X19326310Y-12064548D01*
X19335833Y-12045500D01*
X19354881Y-12016928D01*
X19364405Y-12007405D01*
X19535833Y-12035976D02*
X19440595Y-12035976D01*
X19431071Y-12131214D01*
X19440595Y-12121690D01*
X19459643Y-12112167D01*
X19507262Y-12112167D01*
X19526310Y-12121690D01*
X19535833Y-12131214D01*
X19545357Y-12150262D01*
X19545357Y-12197881D01*
X19535833Y-12216928D01*
X19526310Y-12226452D01*
X19507262Y-12235976D01*
X19459643Y-12235976D01*
X19440595Y-12226452D01*
X19431071Y-12216928D01*
X19716786Y-12035976D02*
X19678690Y-12035976D01*
X19659643Y-12045500D01*
X19650119Y-12055024D01*
X19631071Y-12083595D01*
X19621548Y-12121690D01*
X19621548Y-12197881D01*
X19631071Y-12216928D01*
X19640595Y-12226452D01*
X19659643Y-12235976D01*
X19697738Y-12235976D01*
X19716786Y-12226452D01*
X19726310Y-12216928D01*
X19735833Y-12197881D01*
X19735833Y-12150262D01*
X19726310Y-12131214D01*
X19716786Y-12121690D01*
X19697738Y-12112167D01*
X19659643Y-12112167D01*
X19640595Y-12121690D01*
X19631071Y-12131214D01*
X19621548Y-12150262D01*
X19973929Y-12235976D02*
X19973929Y-12035976D01*
X20059643Y-12235976D02*
X20059643Y-12131214D01*
X20050119Y-12112167D01*
X20031071Y-12102643D01*
X20002500Y-12102643D01*
X19983452Y-12112167D01*
X19973929Y-12121690D01*
X20183452Y-12235976D02*
X20164405Y-12226452D01*
X20154881Y-12216928D01*
X20145357Y-12197881D01*
X20145357Y-12140738D01*
X20154881Y-12121690D01*
X20164405Y-12112167D01*
X20183452Y-12102643D01*
X20212024Y-12102643D01*
X20231071Y-12112167D01*
X20240595Y-12121690D01*
X20250119Y-12140738D01*
X20250119Y-12197881D01*
X20240595Y-12216928D01*
X20231071Y-12226452D01*
X20212024Y-12235976D01*
X20183452Y-12235976D01*
X20364405Y-12235976D02*
X20345357Y-12226452D01*
X20335833Y-12207405D01*
X20335833Y-12035976D01*
X20516786Y-12226452D02*
X20497738Y-12235976D01*
X20459643Y-12235976D01*
X20440595Y-12226452D01*
X20431071Y-12207405D01*
X20431071Y-12131214D01*
X20440595Y-12112167D01*
X20459643Y-12102643D01*
X20497738Y-12102643D01*
X20516786Y-12112167D01*
X20526310Y-12131214D01*
X20526310Y-12150262D01*
X20431071Y-12169309D01*
X20602500Y-12226452D02*
X20621548Y-12235976D01*
X20659643Y-12235976D01*
X20678690Y-12226452D01*
X20688214Y-12207405D01*
X20688214Y-12197881D01*
X20678690Y-12178833D01*
X20659643Y-12169309D01*
X20631071Y-12169309D01*
X20612024Y-12159786D01*
X20602500Y-12140738D01*
X20602500Y-12131214D01*
X20612024Y-12112167D01*
X20631071Y-12102643D01*
X20659643Y-12102643D01*
X20678690Y-12112167D01*
X20754881Y-12312167D02*
X20764405Y-12302643D01*
X20783452Y-12274071D01*
X20792976Y-12255024D01*
X20802500Y-12226452D01*
X20812024Y-12178833D01*
X20812024Y-12140738D01*
X20802500Y-12093119D01*
X20792976Y-12064548D01*
X20783452Y-12045500D01*
X20764405Y-12016928D01*
X20754881Y-12007405D01*
D15*
X15780597Y-12438237D02*
X15780597Y-12380763D01*
X15723123Y-12380763D01*
X15723123Y-12438237D01*
X15780597Y-12438237D01*
D11*
X16088214Y-12299976D02*
X16107262Y-12299976D01*
X16126309Y-12309500D01*
X16135833Y-12319024D01*
X16145357Y-12338071D01*
X16154881Y-12376167D01*
X16154881Y-12423786D01*
X16145357Y-12461881D01*
X16135833Y-12480928D01*
X16126309Y-12490452D01*
X16107262Y-12499976D01*
X16088214Y-12499976D01*
X16069167Y-12490452D01*
X16059643Y-12480928D01*
X16050119Y-12461881D01*
X16040595Y-12423786D01*
X16040595Y-12376167D01*
X16050119Y-12338071D01*
X16059643Y-12319024D01*
X16069167Y-12309500D01*
X16088214Y-12299976D01*
X16240595Y-12480928D02*
X16250119Y-12490452D01*
X16240595Y-12499976D01*
X16231071Y-12490452D01*
X16240595Y-12480928D01*
X16240595Y-12499976D01*
X16364405Y-12385690D02*
X16345357Y-12376167D01*
X16335833Y-12366643D01*
X16326309Y-12347595D01*
X16326309Y-12338071D01*
X16335833Y-12319024D01*
X16345357Y-12309500D01*
X16364405Y-12299976D01*
X16402500Y-12299976D01*
X16421548Y-12309500D01*
X16431071Y-12319024D01*
X16440595Y-12338071D01*
X16440595Y-12347595D01*
X16431071Y-12366643D01*
X16421548Y-12376167D01*
X16402500Y-12385690D01*
X16364405Y-12385690D01*
X16345357Y-12395214D01*
X16335833Y-12404738D01*
X16326309Y-12423786D01*
X16326309Y-12461881D01*
X16335833Y-12480928D01*
X16345357Y-12490452D01*
X16364405Y-12499976D01*
X16402500Y-12499976D01*
X16421548Y-12490452D01*
X16431071Y-12480928D01*
X16440595Y-12461881D01*
X16440595Y-12423786D01*
X16431071Y-12404738D01*
X16421548Y-12395214D01*
X16402500Y-12385690D01*
X16631071Y-12499976D02*
X16516786Y-12499976D01*
X16573928Y-12499976D02*
X16573928Y-12299976D01*
X16554881Y-12328548D01*
X16535833Y-12347595D01*
X16516786Y-12357119D01*
X16697738Y-12299976D02*
X16821548Y-12299976D01*
X16754881Y-12376167D01*
X16783452Y-12376167D01*
X16802500Y-12385690D01*
X16812024Y-12395214D01*
X16821548Y-12414262D01*
X16821548Y-12461881D01*
X16812024Y-12480928D01*
X16802500Y-12490452D01*
X16783452Y-12499976D01*
X16726309Y-12499976D01*
X16707262Y-12490452D01*
X16697738Y-12480928D01*
X16907262Y-12499976D02*
X16907262Y-12366643D01*
X16907262Y-12385690D02*
X16916786Y-12376167D01*
X16935833Y-12366643D01*
X16964405Y-12366643D01*
X16983452Y-12376167D01*
X16992976Y-12395214D01*
X16992976Y-12499976D01*
X16992976Y-12395214D02*
X17002500Y-12376167D01*
X17021548Y-12366643D01*
X17050119Y-12366643D01*
X17069167Y-12376167D01*
X17078690Y-12395214D01*
X17078690Y-12499976D01*
X17173929Y-12499976D02*
X17173929Y-12366643D01*
X17173929Y-12385690D02*
X17183452Y-12376167D01*
X17202500Y-12366643D01*
X17231071Y-12366643D01*
X17250119Y-12376167D01*
X17259643Y-12395214D01*
X17259643Y-12499976D01*
X17259643Y-12395214D02*
X17269167Y-12376167D01*
X17288214Y-12366643D01*
X17316786Y-12366643D01*
X17335833Y-12376167D01*
X17345357Y-12395214D01*
X17345357Y-12499976D01*
X17735833Y-12290452D02*
X17564405Y-12547595D01*
X17992976Y-12299976D02*
X18012024Y-12299976D01*
X18031071Y-12309500D01*
X18040595Y-12319024D01*
X18050119Y-12338071D01*
X18059643Y-12376167D01*
X18059643Y-12423786D01*
X18050119Y-12461881D01*
X18040595Y-12480928D01*
X18031071Y-12490452D01*
X18012024Y-12499976D01*
X17992976Y-12499976D01*
X17973929Y-12490452D01*
X17964405Y-12480928D01*
X17954881Y-12461881D01*
X17945357Y-12423786D01*
X17945357Y-12376167D01*
X17954881Y-12338071D01*
X17964405Y-12319024D01*
X17973929Y-12309500D01*
X17992976Y-12299976D01*
X18145357Y-12480928D02*
X18154881Y-12490452D01*
X18145357Y-12499976D01*
X18135833Y-12490452D01*
X18145357Y-12480928D01*
X18145357Y-12499976D01*
X18278690Y-12299976D02*
X18297738Y-12299976D01*
X18316786Y-12309500D01*
X18326310Y-12319024D01*
X18335833Y-12338071D01*
X18345357Y-12376167D01*
X18345357Y-12423786D01*
X18335833Y-12461881D01*
X18326310Y-12480928D01*
X18316786Y-12490452D01*
X18297738Y-12499976D01*
X18278690Y-12499976D01*
X18259643Y-12490452D01*
X18250119Y-12480928D01*
X18240595Y-12461881D01*
X18231071Y-12423786D01*
X18231071Y-12376167D01*
X18240595Y-12338071D01*
X18250119Y-12319024D01*
X18259643Y-12309500D01*
X18278690Y-12299976D01*
X18412024Y-12299976D02*
X18535833Y-12299976D01*
X18469167Y-12376167D01*
X18497738Y-12376167D01*
X18516786Y-12385690D01*
X18526310Y-12395214D01*
X18535833Y-12414262D01*
X18535833Y-12461881D01*
X18526310Y-12480928D01*
X18516786Y-12490452D01*
X18497738Y-12499976D01*
X18440595Y-12499976D01*
X18421548Y-12490452D01*
X18412024Y-12480928D01*
X18612024Y-12319024D02*
X18621548Y-12309500D01*
X18640595Y-12299976D01*
X18688214Y-12299976D01*
X18707262Y-12309500D01*
X18716786Y-12319024D01*
X18726310Y-12338071D01*
X18726310Y-12357119D01*
X18716786Y-12385690D01*
X18602500Y-12499976D01*
X18726310Y-12499976D01*
X18850119Y-12299976D02*
X18869167Y-12299976D01*
X18888214Y-12309500D01*
X18897738Y-12319024D01*
X18907262Y-12338071D01*
X18916786Y-12376167D01*
X18916786Y-12423786D01*
X18907262Y-12461881D01*
X18897738Y-12480928D01*
X18888214Y-12490452D01*
X18869167Y-12499976D01*
X18850119Y-12499976D01*
X18831071Y-12490452D01*
X18821548Y-12480928D01*
X18812024Y-12461881D01*
X18802500Y-12423786D01*
X18802500Y-12376167D01*
X18812024Y-12338071D01*
X18821548Y-12319024D01*
X18831071Y-12309500D01*
X18850119Y-12299976D01*
X18992976Y-12299976D02*
X18992976Y-12338071D01*
X19069167Y-12299976D02*
X19069167Y-12338071D01*
X19364405Y-12576167D02*
X19354881Y-12566643D01*
X19335833Y-12538071D01*
X19326310Y-12519024D01*
X19316786Y-12490452D01*
X19307262Y-12442833D01*
X19307262Y-12404738D01*
X19316786Y-12357119D01*
X19326310Y-12328548D01*
X19335833Y-12309500D01*
X19354881Y-12280928D01*
X19364405Y-12271405D01*
X19431071Y-12319024D02*
X19440595Y-12309500D01*
X19459643Y-12299976D01*
X19507262Y-12299976D01*
X19526310Y-12309500D01*
X19535833Y-12319024D01*
X19545357Y-12338071D01*
X19545357Y-12357119D01*
X19535833Y-12385690D01*
X19421548Y-12499976D01*
X19545357Y-12499976D01*
X19716786Y-12366643D02*
X19716786Y-12499976D01*
X19669167Y-12290452D02*
X19621548Y-12433309D01*
X19745357Y-12433309D01*
X19973929Y-12499976D02*
X19973929Y-12299976D01*
X20059643Y-12499976D02*
X20059643Y-12395214D01*
X20050119Y-12376167D01*
X20031071Y-12366643D01*
X20002500Y-12366643D01*
X19983452Y-12376167D01*
X19973929Y-12385690D01*
X20183452Y-12499976D02*
X20164405Y-12490452D01*
X20154881Y-12480928D01*
X20145357Y-12461881D01*
X20145357Y-12404738D01*
X20154881Y-12385690D01*
X20164405Y-12376167D01*
X20183452Y-12366643D01*
X20212024Y-12366643D01*
X20231071Y-12376167D01*
X20240595Y-12385690D01*
X20250119Y-12404738D01*
X20250119Y-12461881D01*
X20240595Y-12480928D01*
X20231071Y-12490452D01*
X20212024Y-12499976D01*
X20183452Y-12499976D01*
X20364405Y-12499976D02*
X20345357Y-12490452D01*
X20335833Y-12471405D01*
X20335833Y-12299976D01*
X20516786Y-12490452D02*
X20497738Y-12499976D01*
X20459643Y-12499976D01*
X20440595Y-12490452D01*
X20431071Y-12471405D01*
X20431071Y-12395214D01*
X20440595Y-12376167D01*
X20459643Y-12366643D01*
X20497738Y-12366643D01*
X20516786Y-12376167D01*
X20526310Y-12395214D01*
X20526310Y-12414262D01*
X20431071Y-12433309D01*
X20602500Y-12490452D02*
X20621548Y-12499976D01*
X20659643Y-12499976D01*
X20678690Y-12490452D01*
X20688214Y-12471405D01*
X20688214Y-12461881D01*
X20678690Y-12442833D01*
X20659643Y-12433309D01*
X20631071Y-12433309D01*
X20612024Y-12423786D01*
X20602500Y-12404738D01*
X20602500Y-12395214D01*
X20612024Y-12376167D01*
X20631071Y-12366643D01*
X20659643Y-12366643D01*
X20678690Y-12376167D01*
X20754881Y-12576167D02*
X20764405Y-12566643D01*
X20783452Y-12538071D01*
X20792976Y-12519024D01*
X20802500Y-12490452D01*
X20812024Y-12442833D01*
X20812024Y-12404738D01*
X20802500Y-12357119D01*
X20792976Y-12328548D01*
X20783452Y-12309500D01*
X20764405Y-12280928D01*
X20754881Y-12271405D01*
D16*
X15750000Y-12716000D02*
X15792500Y-12673500D01*
X15750000Y-12631000D01*
X15707500Y-12673500D01*
X15750000Y-12716000D01*
D11*
X16088214Y-12563976D02*
X16107262Y-12563976D01*
X16126309Y-12573500D01*
X16135833Y-12583024D01*
X16145357Y-12602071D01*
X16154881Y-12640167D01*
X16154881Y-12687786D01*
X16145357Y-12725881D01*
X16135833Y-12744928D01*
X16126309Y-12754452D01*
X16107262Y-12763976D01*
X16088214Y-12763976D01*
X16069167Y-12754452D01*
X16059643Y-12744928D01*
X16050119Y-12725881D01*
X16040595Y-12687786D01*
X16040595Y-12640167D01*
X16050119Y-12602071D01*
X16059643Y-12583024D01*
X16069167Y-12573500D01*
X16088214Y-12563976D01*
X16240595Y-12744928D02*
X16250119Y-12754452D01*
X16240595Y-12763976D01*
X16231071Y-12754452D01*
X16240595Y-12744928D01*
X16240595Y-12763976D01*
X16364405Y-12649690D02*
X16345357Y-12640167D01*
X16335833Y-12630643D01*
X16326309Y-12611595D01*
X16326309Y-12602071D01*
X16335833Y-12583024D01*
X16345357Y-12573500D01*
X16364405Y-12563976D01*
X16402500Y-12563976D01*
X16421548Y-12573500D01*
X16431071Y-12583024D01*
X16440595Y-12602071D01*
X16440595Y-12611595D01*
X16431071Y-12630643D01*
X16421548Y-12640167D01*
X16402500Y-12649690D01*
X16364405Y-12649690D01*
X16345357Y-12659214D01*
X16335833Y-12668738D01*
X16326309Y-12687786D01*
X16326309Y-12725881D01*
X16335833Y-12744928D01*
X16345357Y-12754452D01*
X16364405Y-12763976D01*
X16402500Y-12763976D01*
X16421548Y-12754452D01*
X16431071Y-12744928D01*
X16440595Y-12725881D01*
X16440595Y-12687786D01*
X16431071Y-12668738D01*
X16421548Y-12659214D01*
X16402500Y-12649690D01*
X16621548Y-12563976D02*
X16526309Y-12563976D01*
X16516786Y-12659214D01*
X16526309Y-12649690D01*
X16545357Y-12640167D01*
X16592976Y-12640167D01*
X16612024Y-12649690D01*
X16621548Y-12659214D01*
X16631071Y-12678262D01*
X16631071Y-12725881D01*
X16621548Y-12744928D01*
X16612024Y-12754452D01*
X16592976Y-12763976D01*
X16545357Y-12763976D01*
X16526309Y-12754452D01*
X16516786Y-12744928D01*
X16754881Y-12563976D02*
X16773928Y-12563976D01*
X16792976Y-12573500D01*
X16802500Y-12583024D01*
X16812024Y-12602071D01*
X16821548Y-12640167D01*
X16821548Y-12687786D01*
X16812024Y-12725881D01*
X16802500Y-12744928D01*
X16792976Y-12754452D01*
X16773928Y-12763976D01*
X16754881Y-12763976D01*
X16735833Y-12754452D01*
X16726309Y-12744928D01*
X16716786Y-12725881D01*
X16707262Y-12687786D01*
X16707262Y-12640167D01*
X16716786Y-12602071D01*
X16726309Y-12583024D01*
X16735833Y-12573500D01*
X16754881Y-12563976D01*
X16907262Y-12763976D02*
X16907262Y-12630643D01*
X16907262Y-12649690D02*
X16916786Y-12640167D01*
X16935833Y-12630643D01*
X16964405Y-12630643D01*
X16983452Y-12640167D01*
X16992976Y-12659214D01*
X16992976Y-12763976D01*
X16992976Y-12659214D02*
X17002500Y-12640167D01*
X17021548Y-12630643D01*
X17050119Y-12630643D01*
X17069167Y-12640167D01*
X17078690Y-12659214D01*
X17078690Y-12763976D01*
X17173929Y-12763976D02*
X17173929Y-12630643D01*
X17173929Y-12649690D02*
X17183452Y-12640167D01*
X17202500Y-12630643D01*
X17231071Y-12630643D01*
X17250119Y-12640167D01*
X17259643Y-12659214D01*
X17259643Y-12763976D01*
X17259643Y-12659214D02*
X17269167Y-12640167D01*
X17288214Y-12630643D01*
X17316786Y-12630643D01*
X17335833Y-12640167D01*
X17345357Y-12659214D01*
X17345357Y-12763976D01*
X17735833Y-12554452D02*
X17564405Y-12811595D01*
X17992976Y-12563976D02*
X18012024Y-12563976D01*
X18031071Y-12573500D01*
X18040595Y-12583024D01*
X18050119Y-12602071D01*
X18059643Y-12640167D01*
X18059643Y-12687786D01*
X18050119Y-12725881D01*
X18040595Y-12744928D01*
X18031071Y-12754452D01*
X18012024Y-12763976D01*
X17992976Y-12763976D01*
X17973929Y-12754452D01*
X17964405Y-12744928D01*
X17954881Y-12725881D01*
X17945357Y-12687786D01*
X17945357Y-12640167D01*
X17954881Y-12602071D01*
X17964405Y-12583024D01*
X17973929Y-12573500D01*
X17992976Y-12563976D01*
X18145357Y-12744928D02*
X18154881Y-12754452D01*
X18145357Y-12763976D01*
X18135833Y-12754452D01*
X18145357Y-12744928D01*
X18145357Y-12763976D01*
X18278690Y-12563976D02*
X18297738Y-12563976D01*
X18316786Y-12573500D01*
X18326310Y-12583024D01*
X18335833Y-12602071D01*
X18345357Y-12640167D01*
X18345357Y-12687786D01*
X18335833Y-12725881D01*
X18326310Y-12744928D01*
X18316786Y-12754452D01*
X18297738Y-12763976D01*
X18278690Y-12763976D01*
X18259643Y-12754452D01*
X18250119Y-12744928D01*
X18240595Y-12725881D01*
X18231071Y-12687786D01*
X18231071Y-12640167D01*
X18240595Y-12602071D01*
X18250119Y-12583024D01*
X18259643Y-12573500D01*
X18278690Y-12563976D01*
X18412024Y-12563976D02*
X18535833Y-12563976D01*
X18469167Y-12640167D01*
X18497738Y-12640167D01*
X18516786Y-12649690D01*
X18526310Y-12659214D01*
X18535833Y-12678262D01*
X18535833Y-12725881D01*
X18526310Y-12744928D01*
X18516786Y-12754452D01*
X18497738Y-12763976D01*
X18440595Y-12763976D01*
X18421548Y-12754452D01*
X18412024Y-12744928D01*
X18602500Y-12563976D02*
X18726310Y-12563976D01*
X18659643Y-12640167D01*
X18688214Y-12640167D01*
X18707262Y-12649690D01*
X18716786Y-12659214D01*
X18726310Y-12678262D01*
X18726310Y-12725881D01*
X18716786Y-12744928D01*
X18707262Y-12754452D01*
X18688214Y-12763976D01*
X18631071Y-12763976D01*
X18612024Y-12754452D01*
X18602500Y-12744928D01*
X18907262Y-12563976D02*
X18812024Y-12563976D01*
X18802500Y-12659214D01*
X18812024Y-12649690D01*
X18831071Y-12640167D01*
X18878690Y-12640167D01*
X18897738Y-12649690D01*
X18907262Y-12659214D01*
X18916786Y-12678262D01*
X18916786Y-12725881D01*
X18907262Y-12744928D01*
X18897738Y-12754452D01*
X18878690Y-12763976D01*
X18831071Y-12763976D01*
X18812024Y-12754452D01*
X18802500Y-12744928D01*
X18992976Y-12563976D02*
X18992976Y-12602071D01*
X19069167Y-12563976D02*
X19069167Y-12602071D01*
X19364405Y-12840167D02*
X19354881Y-12830643D01*
X19335833Y-12802071D01*
X19326310Y-12783024D01*
X19316786Y-12754452D01*
X19307262Y-12706833D01*
X19307262Y-12668738D01*
X19316786Y-12621119D01*
X19326310Y-12592548D01*
X19335833Y-12573500D01*
X19354881Y-12544928D01*
X19364405Y-12535405D01*
X19478690Y-12563976D02*
X19497738Y-12563976D01*
X19516786Y-12573500D01*
X19526310Y-12583024D01*
X19535833Y-12602071D01*
X19545357Y-12640167D01*
X19545357Y-12687786D01*
X19535833Y-12725881D01*
X19526310Y-12744928D01*
X19516786Y-12754452D01*
X19497738Y-12763976D01*
X19478690Y-12763976D01*
X19459643Y-12754452D01*
X19450119Y-12744928D01*
X19440595Y-12725881D01*
X19431071Y-12687786D01*
X19431071Y-12640167D01*
X19440595Y-12602071D01*
X19450119Y-12583024D01*
X19459643Y-12573500D01*
X19478690Y-12563976D01*
X19783452Y-12763976D02*
X19783452Y-12563976D01*
X19869167Y-12763976D02*
X19869167Y-12659214D01*
X19859643Y-12640167D01*
X19840595Y-12630643D01*
X19812024Y-12630643D01*
X19792976Y-12640167D01*
X19783452Y-12649690D01*
X19992976Y-12763976D02*
X19973929Y-12754452D01*
X19964405Y-12744928D01*
X19954881Y-12725881D01*
X19954881Y-12668738D01*
X19964405Y-12649690D01*
X19973929Y-12640167D01*
X19992976Y-12630643D01*
X20021548Y-12630643D01*
X20040595Y-12640167D01*
X20050119Y-12649690D01*
X20059643Y-12668738D01*
X20059643Y-12725881D01*
X20050119Y-12744928D01*
X20040595Y-12754452D01*
X20021548Y-12763976D01*
X19992976Y-12763976D01*
X20173929Y-12763976D02*
X20154881Y-12754452D01*
X20145357Y-12735405D01*
X20145357Y-12563976D01*
X20326310Y-12754452D02*
X20307262Y-12763976D01*
X20269167Y-12763976D01*
X20250119Y-12754452D01*
X20240595Y-12735405D01*
X20240595Y-12659214D01*
X20250119Y-12640167D01*
X20269167Y-12630643D01*
X20307262Y-12630643D01*
X20326310Y-12640167D01*
X20335833Y-12659214D01*
X20335833Y-12678262D01*
X20240595Y-12697309D01*
X20412024Y-12754452D02*
X20431071Y-12763976D01*
X20469167Y-12763976D01*
X20488214Y-12754452D01*
X20497738Y-12735405D01*
X20497738Y-12725881D01*
X20488214Y-12706833D01*
X20469167Y-12697309D01*
X20440595Y-12697309D01*
X20421548Y-12687786D01*
X20412024Y-12668738D01*
X20412024Y-12659214D01*
X20421548Y-12640167D01*
X20440595Y-12630643D01*
X20469167Y-12630643D01*
X20488214Y-12640167D01*
X20735833Y-12687786D02*
X20888214Y-12687786D01*
X20812024Y-12763976D02*
X20812024Y-12611595D01*
X21126310Y-12583024D02*
X21135833Y-12573500D01*
X21154881Y-12563976D01*
X21202500Y-12563976D01*
X21221548Y-12573500D01*
X21231071Y-12583024D01*
X21240595Y-12602071D01*
X21240595Y-12621119D01*
X21231071Y-12649690D01*
X21116786Y-12763976D01*
X21240595Y-12763976D01*
X21469167Y-12754452D02*
X21488214Y-12763976D01*
X21526310Y-12763976D01*
X21545357Y-12754452D01*
X21554881Y-12735405D01*
X21554881Y-12725881D01*
X21545357Y-12706833D01*
X21526310Y-12697309D01*
X21497738Y-12697309D01*
X21478690Y-12687786D01*
X21469167Y-12668738D01*
X21469167Y-12659214D01*
X21478690Y-12640167D01*
X21497738Y-12630643D01*
X21526310Y-12630643D01*
X21545357Y-12640167D01*
X21669167Y-12763976D02*
X21650119Y-12754452D01*
X21640595Y-12735405D01*
X21640595Y-12563976D01*
X21773929Y-12763976D02*
X21754881Y-12754452D01*
X21745357Y-12744928D01*
X21735833Y-12725881D01*
X21735833Y-12668738D01*
X21745357Y-12649690D01*
X21754881Y-12640167D01*
X21773929Y-12630643D01*
X21802500Y-12630643D01*
X21821548Y-12640167D01*
X21831071Y-12649690D01*
X21840595Y-12668738D01*
X21840595Y-12725881D01*
X21831071Y-12744928D01*
X21821548Y-12754452D01*
X21802500Y-12763976D01*
X21773929Y-12763976D01*
X21897738Y-12630643D02*
X21973929Y-12630643D01*
X21926310Y-12563976D02*
X21926310Y-12735405D01*
X21935833Y-12754452D01*
X21954881Y-12763976D01*
X21973929Y-12763976D01*
X22031071Y-12754452D02*
X22050119Y-12763976D01*
X22088214Y-12763976D01*
X22107262Y-12754452D01*
X22116786Y-12735405D01*
X22116786Y-12725881D01*
X22107262Y-12706833D01*
X22088214Y-12697309D01*
X22059643Y-12697309D01*
X22040595Y-12687786D01*
X22031071Y-12668738D01*
X22031071Y-12659214D01*
X22040595Y-12640167D01*
X22059643Y-12630643D01*
X22088214Y-12630643D01*
X22107262Y-12640167D01*
X22183452Y-12840167D02*
X22192976Y-12830643D01*
X22212024Y-12802071D01*
X22221548Y-12783024D01*
X22231071Y-12754452D01*
X22240595Y-12706833D01*
X22240595Y-12668738D01*
X22231071Y-12621119D01*
X22221548Y-12592548D01*
X22212024Y-12573500D01*
X22192976Y-12544928D01*
X22183452Y-12535405D01*
D17*
X15702500Y-12892500D02*
X15792500Y-12982500D01*
X15792500Y-12892500D02*
X15702500Y-12982500D01*
X15792500Y-12937500D02*
G75*
G03*
X15792500Y-12937500I-45000J0D01*
G01*
D11*
X16088214Y-12827976D02*
X16107262Y-12827976D01*
X16126309Y-12837500D01*
X16135833Y-12847024D01*
X16145357Y-12866071D01*
X16154881Y-12904167D01*
X16154881Y-12951786D01*
X16145357Y-12989881D01*
X16135833Y-13008928D01*
X16126309Y-13018452D01*
X16107262Y-13027976D01*
X16088214Y-13027976D01*
X16069167Y-13018452D01*
X16059643Y-13008928D01*
X16050119Y-12989881D01*
X16040595Y-12951786D01*
X16040595Y-12904167D01*
X16050119Y-12866071D01*
X16059643Y-12847024D01*
X16069167Y-12837500D01*
X16088214Y-12827976D01*
X16240595Y-13008928D02*
X16250119Y-13018452D01*
X16240595Y-13027976D01*
X16231071Y-13018452D01*
X16240595Y-13008928D01*
X16240595Y-13027976D01*
X16345357Y-13027976D02*
X16383452Y-13027976D01*
X16402500Y-13018452D01*
X16412024Y-13008928D01*
X16431071Y-12980357D01*
X16440595Y-12942262D01*
X16440595Y-12866071D01*
X16431071Y-12847024D01*
X16421548Y-12837500D01*
X16402500Y-12827976D01*
X16364405Y-12827976D01*
X16345357Y-12837500D01*
X16335833Y-12847024D01*
X16326309Y-12866071D01*
X16326309Y-12913690D01*
X16335833Y-12932738D01*
X16345357Y-12942262D01*
X16364405Y-12951786D01*
X16402500Y-12951786D01*
X16421548Y-12942262D01*
X16431071Y-12932738D01*
X16440595Y-12913690D01*
X16564405Y-12827976D02*
X16583452Y-12827976D01*
X16602500Y-12837500D01*
X16612024Y-12847024D01*
X16621548Y-12866071D01*
X16631071Y-12904167D01*
X16631071Y-12951786D01*
X16621548Y-12989881D01*
X16612024Y-13008928D01*
X16602500Y-13018452D01*
X16583452Y-13027976D01*
X16564405Y-13027976D01*
X16545357Y-13018452D01*
X16535833Y-13008928D01*
X16526309Y-12989881D01*
X16516786Y-12951786D01*
X16516786Y-12904167D01*
X16526309Y-12866071D01*
X16535833Y-12847024D01*
X16545357Y-12837500D01*
X16564405Y-12827976D01*
X16754881Y-12827976D02*
X16773928Y-12827976D01*
X16792976Y-12837500D01*
X16802500Y-12847024D01*
X16812024Y-12866071D01*
X16821548Y-12904167D01*
X16821548Y-12951786D01*
X16812024Y-12989881D01*
X16802500Y-13008928D01*
X16792976Y-13018452D01*
X16773928Y-13027976D01*
X16754881Y-13027976D01*
X16735833Y-13018452D01*
X16726309Y-13008928D01*
X16716786Y-12989881D01*
X16707262Y-12951786D01*
X16707262Y-12904167D01*
X16716786Y-12866071D01*
X16726309Y-12847024D01*
X16735833Y-12837500D01*
X16754881Y-12827976D01*
X16907262Y-13027976D02*
X16907262Y-12894643D01*
X16907262Y-12913690D02*
X16916786Y-12904167D01*
X16935833Y-12894643D01*
X16964405Y-12894643D01*
X16983452Y-12904167D01*
X16992976Y-12923214D01*
X16992976Y-13027976D01*
X16992976Y-12923214D02*
X17002500Y-12904167D01*
X17021548Y-12894643D01*
X17050119Y-12894643D01*
X17069167Y-12904167D01*
X17078690Y-12923214D01*
X17078690Y-13027976D01*
X17173929Y-13027976D02*
X17173929Y-12894643D01*
X17173929Y-12913690D02*
X17183452Y-12904167D01*
X17202500Y-12894643D01*
X17231071Y-12894643D01*
X17250119Y-12904167D01*
X17259643Y-12923214D01*
X17259643Y-13027976D01*
X17259643Y-12923214D02*
X17269167Y-12904167D01*
X17288214Y-12894643D01*
X17316786Y-12894643D01*
X17335833Y-12904167D01*
X17345357Y-12923214D01*
X17345357Y-13027976D01*
X17735833Y-12818452D02*
X17564405Y-13075595D01*
X17992976Y-12827976D02*
X18012024Y-12827976D01*
X18031071Y-12837500D01*
X18040595Y-12847024D01*
X18050119Y-12866071D01*
X18059643Y-12904167D01*
X18059643Y-12951786D01*
X18050119Y-12989881D01*
X18040595Y-13008928D01*
X18031071Y-13018452D01*
X18012024Y-13027976D01*
X17992976Y-13027976D01*
X17973929Y-13018452D01*
X17964405Y-13008928D01*
X17954881Y-12989881D01*
X17945357Y-12951786D01*
X17945357Y-12904167D01*
X17954881Y-12866071D01*
X17964405Y-12847024D01*
X17973929Y-12837500D01*
X17992976Y-12827976D01*
X18145357Y-13008928D02*
X18154881Y-13018452D01*
X18145357Y-13027976D01*
X18135833Y-13018452D01*
X18145357Y-13008928D01*
X18145357Y-13027976D01*
X18278690Y-12827976D02*
X18297738Y-12827976D01*
X18316786Y-12837500D01*
X18326310Y-12847024D01*
X18335833Y-12866071D01*
X18345357Y-12904167D01*
X18345357Y-12951786D01*
X18335833Y-12989881D01*
X18326310Y-13008928D01*
X18316786Y-13018452D01*
X18297738Y-13027976D01*
X18278690Y-13027976D01*
X18259643Y-13018452D01*
X18250119Y-13008928D01*
X18240595Y-12989881D01*
X18231071Y-12951786D01*
X18231071Y-12904167D01*
X18240595Y-12866071D01*
X18250119Y-12847024D01*
X18259643Y-12837500D01*
X18278690Y-12827976D01*
X18412024Y-12827976D02*
X18535833Y-12827976D01*
X18469167Y-12904167D01*
X18497738Y-12904167D01*
X18516786Y-12913690D01*
X18526310Y-12923214D01*
X18535833Y-12942262D01*
X18535833Y-12989881D01*
X18526310Y-13008928D01*
X18516786Y-13018452D01*
X18497738Y-13027976D01*
X18440595Y-13027976D01*
X18421548Y-13018452D01*
X18412024Y-13008928D01*
X18716786Y-12827976D02*
X18621548Y-12827976D01*
X18612024Y-12923214D01*
X18621548Y-12913690D01*
X18640595Y-12904167D01*
X18688214Y-12904167D01*
X18707262Y-12913690D01*
X18716786Y-12923214D01*
X18726310Y-12942262D01*
X18726310Y-12989881D01*
X18716786Y-13008928D01*
X18707262Y-13018452D01*
X18688214Y-13027976D01*
X18640595Y-13027976D01*
X18621548Y-13018452D01*
X18612024Y-13008928D01*
X18897738Y-12894643D02*
X18897738Y-13027976D01*
X18850119Y-12818452D02*
X18802500Y-12961309D01*
X18926310Y-12961309D01*
X18992976Y-12827976D02*
X18992976Y-12866071D01*
X19069167Y-12827976D02*
X19069167Y-12866071D01*
X19364405Y-13104167D02*
X19354881Y-13094643D01*
X19335833Y-13066071D01*
X19326310Y-13047024D01*
X19316786Y-13018452D01*
X19307262Y-12970833D01*
X19307262Y-12932738D01*
X19316786Y-12885119D01*
X19326310Y-12856548D01*
X19335833Y-12837500D01*
X19354881Y-12808928D01*
X19364405Y-12799405D01*
X19431071Y-12847024D02*
X19440595Y-12837500D01*
X19459643Y-12827976D01*
X19507262Y-12827976D01*
X19526310Y-12837500D01*
X19535833Y-12847024D01*
X19545357Y-12866071D01*
X19545357Y-12885119D01*
X19535833Y-12913690D01*
X19421548Y-13027976D01*
X19545357Y-13027976D01*
X19783452Y-13027976D02*
X19783452Y-12827976D01*
X19869167Y-13027976D02*
X19869167Y-12923214D01*
X19859643Y-12904167D01*
X19840595Y-12894643D01*
X19812024Y-12894643D01*
X19792976Y-12904167D01*
X19783452Y-12913690D01*
X19992976Y-13027976D02*
X19973929Y-13018452D01*
X19964405Y-13008928D01*
X19954881Y-12989881D01*
X19954881Y-12932738D01*
X19964405Y-12913690D01*
X19973929Y-12904167D01*
X19992976Y-12894643D01*
X20021548Y-12894643D01*
X20040595Y-12904167D01*
X20050119Y-12913690D01*
X20059643Y-12932738D01*
X20059643Y-12989881D01*
X20050119Y-13008928D01*
X20040595Y-13018452D01*
X20021548Y-13027976D01*
X19992976Y-13027976D01*
X20173929Y-13027976D02*
X20154881Y-13018452D01*
X20145357Y-12999405D01*
X20145357Y-12827976D01*
X20326310Y-13018452D02*
X20307262Y-13027976D01*
X20269167Y-13027976D01*
X20250119Y-13018452D01*
X20240595Y-12999405D01*
X20240595Y-12923214D01*
X20250119Y-12904167D01*
X20269167Y-12894643D01*
X20307262Y-12894643D01*
X20326310Y-12904167D01*
X20335833Y-12923214D01*
X20335833Y-12942262D01*
X20240595Y-12961309D01*
X20412024Y-13018452D02*
X20431071Y-13027976D01*
X20469167Y-13027976D01*
X20488214Y-13018452D01*
X20497738Y-12999405D01*
X20497738Y-12989881D01*
X20488214Y-12970833D01*
X20469167Y-12961309D01*
X20440595Y-12961309D01*
X20421548Y-12951786D01*
X20412024Y-12932738D01*
X20412024Y-12923214D01*
X20421548Y-12904167D01*
X20440595Y-12894643D01*
X20469167Y-12894643D01*
X20488214Y-12904167D01*
X20564405Y-13104167D02*
X20573929Y-13094643D01*
X20592976Y-13066071D01*
X20602500Y-13047024D01*
X20612024Y-13018452D01*
X20621548Y-12970833D01*
X20621548Y-12932738D01*
X20612024Y-12885119D01*
X20602500Y-12856548D01*
X20592976Y-12837500D01*
X20573929Y-12808928D01*
X20564405Y-12799405D01*
D18*
X15682500Y-13146500D02*
X15792500Y-13256500D01*
X15792500Y-13146500D02*
X15682500Y-13256500D01*
X15737500Y-13146500D02*
X15737500Y-13256500D01*
X15682500Y-13201500D02*
X15792500Y-13201500D01*
D11*
X16154881Y-13291976D02*
X16040595Y-13291976D01*
X16097738Y-13291976D02*
X16097738Y-13091976D01*
X16078690Y-13120548D01*
X16059643Y-13139595D01*
X16040595Y-13149119D01*
X16240595Y-13272928D02*
X16250119Y-13282452D01*
X16240595Y-13291976D01*
X16231071Y-13282452D01*
X16240595Y-13272928D01*
X16240595Y-13291976D01*
X16440595Y-13291976D02*
X16326309Y-13291976D01*
X16383452Y-13291976D02*
X16383452Y-13091976D01*
X16364405Y-13120548D01*
X16345357Y-13139595D01*
X16326309Y-13149119D01*
X16564405Y-13091976D02*
X16583452Y-13091976D01*
X16602500Y-13101500D01*
X16612024Y-13111024D01*
X16621548Y-13130071D01*
X16631071Y-13168167D01*
X16631071Y-13215786D01*
X16621548Y-13253881D01*
X16612024Y-13272928D01*
X16602500Y-13282452D01*
X16583452Y-13291976D01*
X16564405Y-13291976D01*
X16545357Y-13282452D01*
X16535833Y-13272928D01*
X16526309Y-13253881D01*
X16516786Y-13215786D01*
X16516786Y-13168167D01*
X16526309Y-13130071D01*
X16535833Y-13111024D01*
X16545357Y-13101500D01*
X16564405Y-13091976D01*
X16754881Y-13091976D02*
X16773928Y-13091976D01*
X16792976Y-13101500D01*
X16802500Y-13111024D01*
X16812024Y-13130071D01*
X16821548Y-13168167D01*
X16821548Y-13215786D01*
X16812024Y-13253881D01*
X16802500Y-13272928D01*
X16792976Y-13282452D01*
X16773928Y-13291976D01*
X16754881Y-13291976D01*
X16735833Y-13282452D01*
X16726309Y-13272928D01*
X16716786Y-13253881D01*
X16707262Y-13215786D01*
X16707262Y-13168167D01*
X16716786Y-13130071D01*
X16726309Y-13111024D01*
X16735833Y-13101500D01*
X16754881Y-13091976D01*
X16907262Y-13291976D02*
X16907262Y-13158643D01*
X16907262Y-13177690D02*
X16916786Y-13168167D01*
X16935833Y-13158643D01*
X16964405Y-13158643D01*
X16983452Y-13168167D01*
X16992976Y-13187214D01*
X16992976Y-13291976D01*
X16992976Y-13187214D02*
X17002500Y-13168167D01*
X17021548Y-13158643D01*
X17050119Y-13158643D01*
X17069167Y-13168167D01*
X17078690Y-13187214D01*
X17078690Y-13291976D01*
X17173929Y-13291976D02*
X17173929Y-13158643D01*
X17173929Y-13177690D02*
X17183452Y-13168167D01*
X17202500Y-13158643D01*
X17231071Y-13158643D01*
X17250119Y-13168167D01*
X17259643Y-13187214D01*
X17259643Y-13291976D01*
X17259643Y-13187214D02*
X17269167Y-13168167D01*
X17288214Y-13158643D01*
X17316786Y-13158643D01*
X17335833Y-13168167D01*
X17345357Y-13187214D01*
X17345357Y-13291976D01*
X17735833Y-13082452D02*
X17564405Y-13339595D01*
X17992976Y-13091976D02*
X18012024Y-13091976D01*
X18031071Y-13101500D01*
X18040595Y-13111024D01*
X18050119Y-13130071D01*
X18059643Y-13168167D01*
X18059643Y-13215786D01*
X18050119Y-13253881D01*
X18040595Y-13272928D01*
X18031071Y-13282452D01*
X18012024Y-13291976D01*
X17992976Y-13291976D01*
X17973929Y-13282452D01*
X17964405Y-13272928D01*
X17954881Y-13253881D01*
X17945357Y-13215786D01*
X17945357Y-13168167D01*
X17954881Y-13130071D01*
X17964405Y-13111024D01*
X17973929Y-13101500D01*
X17992976Y-13091976D01*
X18145357Y-13272928D02*
X18154881Y-13282452D01*
X18145357Y-13291976D01*
X18135833Y-13282452D01*
X18145357Y-13272928D01*
X18145357Y-13291976D01*
X18278690Y-13091976D02*
X18297738Y-13091976D01*
X18316786Y-13101500D01*
X18326310Y-13111024D01*
X18335833Y-13130071D01*
X18345357Y-13168167D01*
X18345357Y-13215786D01*
X18335833Y-13253881D01*
X18326310Y-13272928D01*
X18316786Y-13282452D01*
X18297738Y-13291976D01*
X18278690Y-13291976D01*
X18259643Y-13282452D01*
X18250119Y-13272928D01*
X18240595Y-13253881D01*
X18231071Y-13215786D01*
X18231071Y-13168167D01*
X18240595Y-13130071D01*
X18250119Y-13111024D01*
X18259643Y-13101500D01*
X18278690Y-13091976D01*
X18516786Y-13158643D02*
X18516786Y-13291976D01*
X18469167Y-13082452D02*
X18421548Y-13225309D01*
X18545357Y-13225309D01*
X18602500Y-13091976D02*
X18726310Y-13091976D01*
X18659643Y-13168167D01*
X18688214Y-13168167D01*
X18707262Y-13177690D01*
X18716786Y-13187214D01*
X18726310Y-13206262D01*
X18726310Y-13253881D01*
X18716786Y-13272928D01*
X18707262Y-13282452D01*
X18688214Y-13291976D01*
X18631071Y-13291976D01*
X18612024Y-13282452D01*
X18602500Y-13272928D01*
X18792976Y-13091976D02*
X18916786Y-13091976D01*
X18850119Y-13168167D01*
X18878690Y-13168167D01*
X18897738Y-13177690D01*
X18907262Y-13187214D01*
X18916786Y-13206262D01*
X18916786Y-13253881D01*
X18907262Y-13272928D01*
X18897738Y-13282452D01*
X18878690Y-13291976D01*
X18821548Y-13291976D01*
X18802500Y-13282452D01*
X18792976Y-13272928D01*
X18992976Y-13091976D02*
X18992976Y-13130071D01*
X19069167Y-13091976D02*
X19069167Y-13130071D01*
X19364405Y-13368167D02*
X19354881Y-13358643D01*
X19335833Y-13330071D01*
X19326310Y-13311024D01*
X19316786Y-13282452D01*
X19307262Y-13234833D01*
X19307262Y-13196738D01*
X19316786Y-13149119D01*
X19326310Y-13120548D01*
X19335833Y-13101500D01*
X19354881Y-13072928D01*
X19364405Y-13063405D01*
X19526310Y-13158643D02*
X19526310Y-13291976D01*
X19478690Y-13082452D02*
X19431071Y-13225309D01*
X19554881Y-13225309D01*
X19783452Y-13291976D02*
X19783452Y-13091976D01*
X19869167Y-13291976D02*
X19869167Y-13187214D01*
X19859643Y-13168167D01*
X19840595Y-13158643D01*
X19812024Y-13158643D01*
X19792976Y-13168167D01*
X19783452Y-13177690D01*
X19992976Y-13291976D02*
X19973929Y-13282452D01*
X19964405Y-13272928D01*
X19954881Y-13253881D01*
X19954881Y-13196738D01*
X19964405Y-13177690D01*
X19973929Y-13168167D01*
X19992976Y-13158643D01*
X20021548Y-13158643D01*
X20040595Y-13168167D01*
X20050119Y-13177690D01*
X20059643Y-13196738D01*
X20059643Y-13253881D01*
X20050119Y-13272928D01*
X20040595Y-13282452D01*
X20021548Y-13291976D01*
X19992976Y-13291976D01*
X20173929Y-13291976D02*
X20154881Y-13282452D01*
X20145357Y-13263405D01*
X20145357Y-13091976D01*
X20326310Y-13282452D02*
X20307262Y-13291976D01*
X20269167Y-13291976D01*
X20250119Y-13282452D01*
X20240595Y-13263405D01*
X20240595Y-13187214D01*
X20250119Y-13168167D01*
X20269167Y-13158643D01*
X20307262Y-13158643D01*
X20326310Y-13168167D01*
X20335833Y-13187214D01*
X20335833Y-13206262D01*
X20240595Y-13225309D01*
X20412024Y-13282452D02*
X20431071Y-13291976D01*
X20469167Y-13291976D01*
X20488214Y-13282452D01*
X20497738Y-13263405D01*
X20497738Y-13253881D01*
X20488214Y-13234833D01*
X20469167Y-13225309D01*
X20440595Y-13225309D01*
X20421548Y-13215786D01*
X20412024Y-13196738D01*
X20412024Y-13187214D01*
X20421548Y-13168167D01*
X20440595Y-13158643D01*
X20469167Y-13158643D01*
X20488214Y-13168167D01*
X20564405Y-13368167D02*
X20573929Y-13358643D01*
X20592976Y-13330071D01*
X20602500Y-13311024D01*
X20612024Y-13282452D01*
X20621548Y-13234833D01*
X20621548Y-13196738D01*
X20612024Y-13149119D01*
X20602500Y-13120548D01*
X20592976Y-13101500D01*
X20573929Y-13072928D01*
X20564405Y-13063405D01*
X15592500Y-13365500D02*
X15792500Y-13565500D01*
X15792500Y-13365500D02*
X15592500Y-13565500D01*
X15763211Y-13536211D02*
X15763211Y-13394789D01*
X15621789Y-13394789D01*
X15621789Y-13536211D01*
X15763211Y-13536211D01*
X16031071Y-13355976D02*
X16154881Y-13355976D01*
X16088214Y-13432167D01*
X16116786Y-13432167D01*
X16135833Y-13441690D01*
X16145357Y-13451214D01*
X16154881Y-13470262D01*
X16154881Y-13517881D01*
X16145357Y-13536928D01*
X16135833Y-13546452D01*
X16116786Y-13555976D01*
X16059643Y-13555976D01*
X16040595Y-13546452D01*
X16031071Y-13536928D01*
X16240595Y-13536928D02*
X16250119Y-13546452D01*
X16240595Y-13555976D01*
X16231071Y-13546452D01*
X16240595Y-13536928D01*
X16240595Y-13555976D01*
X16326309Y-13375024D02*
X16335833Y-13365500D01*
X16354881Y-13355976D01*
X16402500Y-13355976D01*
X16421548Y-13365500D01*
X16431071Y-13375024D01*
X16440595Y-13394071D01*
X16440595Y-13413119D01*
X16431071Y-13441690D01*
X16316786Y-13555976D01*
X16440595Y-13555976D01*
X16564405Y-13355976D02*
X16583452Y-13355976D01*
X16602500Y-13365500D01*
X16612024Y-13375024D01*
X16621548Y-13394071D01*
X16631071Y-13432167D01*
X16631071Y-13479786D01*
X16621548Y-13517881D01*
X16612024Y-13536928D01*
X16602500Y-13546452D01*
X16583452Y-13555976D01*
X16564405Y-13555976D01*
X16545357Y-13546452D01*
X16535833Y-13536928D01*
X16526309Y-13517881D01*
X16516786Y-13479786D01*
X16516786Y-13432167D01*
X16526309Y-13394071D01*
X16535833Y-13375024D01*
X16545357Y-13365500D01*
X16564405Y-13355976D01*
X16754881Y-13355976D02*
X16773928Y-13355976D01*
X16792976Y-13365500D01*
X16802500Y-13375024D01*
X16812024Y-13394071D01*
X16821548Y-13432167D01*
X16821548Y-13479786D01*
X16812024Y-13517881D01*
X16802500Y-13536928D01*
X16792976Y-13546452D01*
X16773928Y-13555976D01*
X16754881Y-13555976D01*
X16735833Y-13546452D01*
X16726309Y-13536928D01*
X16716786Y-13517881D01*
X16707262Y-13479786D01*
X16707262Y-13432167D01*
X16716786Y-13394071D01*
X16726309Y-13375024D01*
X16735833Y-13365500D01*
X16754881Y-13355976D01*
X16907262Y-13555976D02*
X16907262Y-13422643D01*
X16907262Y-13441690D02*
X16916786Y-13432167D01*
X16935833Y-13422643D01*
X16964405Y-13422643D01*
X16983452Y-13432167D01*
X16992976Y-13451214D01*
X16992976Y-13555976D01*
X16992976Y-13451214D02*
X17002500Y-13432167D01*
X17021548Y-13422643D01*
X17050119Y-13422643D01*
X17069167Y-13432167D01*
X17078690Y-13451214D01*
X17078690Y-13555976D01*
X17173929Y-13555976D02*
X17173929Y-13422643D01*
X17173929Y-13441690D02*
X17183452Y-13432167D01*
X17202500Y-13422643D01*
X17231071Y-13422643D01*
X17250119Y-13432167D01*
X17259643Y-13451214D01*
X17259643Y-13555976D01*
X17259643Y-13451214D02*
X17269167Y-13432167D01*
X17288214Y-13422643D01*
X17316786Y-13422643D01*
X17335833Y-13432167D01*
X17345357Y-13451214D01*
X17345357Y-13555976D01*
X17735833Y-13346452D02*
X17564405Y-13603595D01*
X17992976Y-13355976D02*
X18012024Y-13355976D01*
X18031071Y-13365500D01*
X18040595Y-13375024D01*
X18050119Y-13394071D01*
X18059643Y-13432167D01*
X18059643Y-13479786D01*
X18050119Y-13517881D01*
X18040595Y-13536928D01*
X18031071Y-13546452D01*
X18012024Y-13555976D01*
X17992976Y-13555976D01*
X17973929Y-13546452D01*
X17964405Y-13536928D01*
X17954881Y-13517881D01*
X17945357Y-13479786D01*
X17945357Y-13432167D01*
X17954881Y-13394071D01*
X17964405Y-13375024D01*
X17973929Y-13365500D01*
X17992976Y-13355976D01*
X18145357Y-13536928D02*
X18154881Y-13546452D01*
X18145357Y-13555976D01*
X18135833Y-13546452D01*
X18145357Y-13536928D01*
X18145357Y-13555976D01*
X18345357Y-13555976D02*
X18231071Y-13555976D01*
X18288214Y-13555976D02*
X18288214Y-13355976D01*
X18269167Y-13384548D01*
X18250119Y-13403595D01*
X18231071Y-13413119D01*
X18421548Y-13375024D02*
X18431071Y-13365500D01*
X18450119Y-13355976D01*
X18497738Y-13355976D01*
X18516786Y-13365500D01*
X18526310Y-13375024D01*
X18535833Y-13394071D01*
X18535833Y-13413119D01*
X18526310Y-13441690D01*
X18412024Y-13555976D01*
X18535833Y-13555976D01*
X18707262Y-13355976D02*
X18669167Y-13355976D01*
X18650119Y-13365500D01*
X18640595Y-13375024D01*
X18621548Y-13403595D01*
X18612024Y-13441690D01*
X18612024Y-13517881D01*
X18621548Y-13536928D01*
X18631071Y-13546452D01*
X18650119Y-13555976D01*
X18688214Y-13555976D01*
X18707262Y-13546452D01*
X18716786Y-13536928D01*
X18726310Y-13517881D01*
X18726310Y-13470262D01*
X18716786Y-13451214D01*
X18707262Y-13441690D01*
X18688214Y-13432167D01*
X18650119Y-13432167D01*
X18631071Y-13441690D01*
X18621548Y-13451214D01*
X18612024Y-13470262D01*
X18850119Y-13355976D02*
X18869167Y-13355976D01*
X18888214Y-13365500D01*
X18897738Y-13375024D01*
X18907262Y-13394071D01*
X18916786Y-13432167D01*
X18916786Y-13479786D01*
X18907262Y-13517881D01*
X18897738Y-13536928D01*
X18888214Y-13546452D01*
X18869167Y-13555976D01*
X18850119Y-13555976D01*
X18831071Y-13546452D01*
X18821548Y-13536928D01*
X18812024Y-13517881D01*
X18802500Y-13479786D01*
X18802500Y-13432167D01*
X18812024Y-13394071D01*
X18821548Y-13375024D01*
X18831071Y-13365500D01*
X18850119Y-13355976D01*
X18992976Y-13355976D02*
X18992976Y-13394071D01*
X19069167Y-13355976D02*
X19069167Y-13394071D01*
X19364405Y-13632167D02*
X19354881Y-13622643D01*
X19335833Y-13594071D01*
X19326310Y-13575024D01*
X19316786Y-13546452D01*
X19307262Y-13498833D01*
X19307262Y-13460738D01*
X19316786Y-13413119D01*
X19326310Y-13384548D01*
X19335833Y-13365500D01*
X19354881Y-13336928D01*
X19364405Y-13327405D01*
X19421548Y-13355976D02*
X19554881Y-13355976D01*
X19469167Y-13555976D01*
X19783452Y-13555976D02*
X19783452Y-13355976D01*
X19869167Y-13555976D02*
X19869167Y-13451214D01*
X19859643Y-13432167D01*
X19840595Y-13422643D01*
X19812024Y-13422643D01*
X19792976Y-13432167D01*
X19783452Y-13441690D01*
X19992976Y-13555976D02*
X19973929Y-13546452D01*
X19964405Y-13536928D01*
X19954881Y-13517881D01*
X19954881Y-13460738D01*
X19964405Y-13441690D01*
X19973929Y-13432167D01*
X19992976Y-13422643D01*
X20021548Y-13422643D01*
X20040595Y-13432167D01*
X20050119Y-13441690D01*
X20059643Y-13460738D01*
X20059643Y-13517881D01*
X20050119Y-13536928D01*
X20040595Y-13546452D01*
X20021548Y-13555976D01*
X19992976Y-13555976D01*
X20173929Y-13555976D02*
X20154881Y-13546452D01*
X20145357Y-13527405D01*
X20145357Y-13355976D01*
X20326310Y-13546452D02*
X20307262Y-13555976D01*
X20269167Y-13555976D01*
X20250119Y-13546452D01*
X20240595Y-13527405D01*
X20240595Y-13451214D01*
X20250119Y-13432167D01*
X20269167Y-13422643D01*
X20307262Y-13422643D01*
X20326310Y-13432167D01*
X20335833Y-13451214D01*
X20335833Y-13470262D01*
X20240595Y-13489309D01*
X20412024Y-13546452D02*
X20431071Y-13555976D01*
X20469167Y-13555976D01*
X20488214Y-13546452D01*
X20497738Y-13527405D01*
X20497738Y-13517881D01*
X20488214Y-13498833D01*
X20469167Y-13489309D01*
X20440595Y-13489309D01*
X20421548Y-13479786D01*
X20412024Y-13460738D01*
X20412024Y-13451214D01*
X20421548Y-13432167D01*
X20440595Y-13422643D01*
X20469167Y-13422643D01*
X20488214Y-13432167D01*
X20564405Y-13632167D02*
X20573929Y-13622643D01*
X20592976Y-13594071D01*
X20602500Y-13575024D01*
X20612024Y-13546452D01*
X20621548Y-13498833D01*
X20621548Y-13460738D01*
X20612024Y-13413119D01*
X20602500Y-13384548D01*
X20592976Y-13365500D01*
X20573929Y-13336928D01*
X20564405Y-13327405D01*
M02*
