%FSLAX45Y45*%
G04 Gerber Fmt 4.5, Leading zero omitted, Abs format (unit mm)*
G04 Created by KiCad (PCBNEW (5.99.0-12766-g4a3658027e)) date 2021-12-04 14:11:50*
%MOMM*%
%LPD*%
G01*
G04 APERTURE LIST*
%TA.AperFunction,Profile*%
%ADD10C,0.050000*%
%TD*%
%ADD11C,0.200000*%
%ADD12C,0.080000*%
%ADD13C,0.099060*%
%ADD14C,0.190000*%
%ADD15C,0.300000*%
%ADD16C,0.340000*%
G04 APERTURE END LIST*
D10*
X15800000Y-9275000D02*
G75*
G03*
X16675000Y-8375000I-12500J887500D01*
G01*
X19200000Y-1775000D02*
G75*
G02*
X18500000Y-2475000I-700000J0D01*
G01*
X15800000Y-10975000D02*
X15800000Y-9275000D01*
X27500000Y-10975000D02*
X27500000Y-2575000D01*
X16675000Y-2475000D02*
X16675000Y-8375000D01*
X22100000Y-1775000D02*
X19200000Y-1775000D01*
X26700000Y-1775000D02*
X22100000Y-1775000D01*
X27500000Y-10975000D02*
X15800000Y-10975000D01*
X26700000Y-1775000D02*
G75*
G02*
X27500000Y-2575000I0J-800000D01*
G01*
X18500000Y-2475000D02*
X16675000Y-2475000D01*
D11*
D12*
X17115000Y-6060000D02*
X17195000Y-6140000D01*
X17195000Y-6060000D02*
X17115000Y-6140000D01*
X17115000Y-6560000D02*
X17195000Y-6640000D01*
X17195000Y-6560000D02*
X17115000Y-6640000D01*
D13*
X16227530Y-10545000D02*
G75*
G03*
X16227530Y-10545000I-49530J0D01*
G01*
X17127530Y-8845000D02*
G75*
G03*
X17127530Y-8845000I-49530J0D01*
G01*
X18927530Y-3745000D02*
G75*
G03*
X18927530Y-3745000I-49530J0D01*
G01*
X18927530Y-5445000D02*
G75*
G03*
X18927530Y-5445000I-49530J0D01*
G01*
X18927530Y-7145000D02*
G75*
G03*
X18927530Y-7145000I-49530J0D01*
G01*
X18927530Y-8845000D02*
G75*
G03*
X18927530Y-8845000I-49530J0D01*
G01*
X20727530Y-3745000D02*
G75*
G03*
X20727530Y-3745000I-49530J0D01*
G01*
X20727530Y-5445000D02*
G75*
G03*
X20727530Y-5445000I-49530J0D01*
G01*
X20727530Y-7145000D02*
G75*
G03*
X20727530Y-7145000I-49530J0D01*
G01*
X20727530Y-8845000D02*
G75*
G03*
X20727530Y-8845000I-49530J0D01*
G01*
X22527530Y-3045000D02*
G75*
G03*
X22527530Y-3045000I-49530J0D01*
G01*
X22527530Y-4745000D02*
G75*
G03*
X22527530Y-4745000I-49530J0D01*
G01*
X22527530Y-6445000D02*
G75*
G03*
X22527530Y-6445000I-49530J0D01*
G01*
X22527530Y-8145000D02*
G75*
G03*
X22527530Y-8145000I-49530J0D01*
G01*
X22527530Y-10545000D02*
G75*
G03*
X22527530Y-10545000I-49530J0D01*
G01*
X24327530Y-3245000D02*
G75*
G03*
X24327530Y-3245000I-49530J0D01*
G01*
X24327530Y-4945000D02*
G75*
G03*
X24327530Y-4945000I-49530J0D01*
G01*
X24327530Y-6645000D02*
G75*
G03*
X24327530Y-6645000I-49530J0D01*
G01*
X24327530Y-8845000D02*
G75*
G03*
X24327530Y-8845000I-49530J0D01*
G01*
X24327530Y-10545000D02*
G75*
G03*
X24327530Y-10545000I-49530J0D01*
G01*
X26127530Y-4445000D02*
G75*
G03*
X26127530Y-4445000I-49530J0D01*
G01*
X26127530Y-6145000D02*
G75*
G03*
X26127530Y-6145000I-49530J0D01*
G01*
X26127530Y-7845000D02*
G75*
G03*
X26127530Y-7845000I-49530J0D01*
G01*
X26127530Y-10545000D02*
G75*
G03*
X26127530Y-10545000I-49530J0D01*
G01*
D14*
X16150000Y-10030000D02*
X16150000Y-10220000D01*
X16055000Y-10125000D02*
X16245000Y-10125000D01*
X17050000Y-8330000D02*
X17050000Y-8520000D01*
X16955000Y-8425000D02*
X17145000Y-8425000D01*
X17250000Y-10030000D02*
X17250000Y-10220000D01*
X17155000Y-10125000D02*
X17345000Y-10125000D01*
X18150000Y-8330000D02*
X18150000Y-8520000D01*
X18055000Y-8425000D02*
X18245000Y-8425000D01*
X18850000Y-3230000D02*
X18850000Y-3420000D01*
X18755000Y-3325000D02*
X18945000Y-3325000D01*
X18850000Y-4930000D02*
X18850000Y-5120000D01*
X18755000Y-5025000D02*
X18945000Y-5025000D01*
X18850000Y-6630000D02*
X18850000Y-6820000D01*
X18755000Y-6725000D02*
X18945000Y-6725000D01*
X18850000Y-8330000D02*
X18850000Y-8520000D01*
X18755000Y-8425000D02*
X18945000Y-8425000D01*
X19950000Y-3230000D02*
X19950000Y-3420000D01*
X19855000Y-3325000D02*
X20045000Y-3325000D01*
X19950000Y-4930000D02*
X19950000Y-5120000D01*
X19855000Y-5025000D02*
X20045000Y-5025000D01*
X19950000Y-6630000D02*
X19950000Y-6820000D01*
X19855000Y-6725000D02*
X20045000Y-6725000D01*
X19950000Y-8330000D02*
X19950000Y-8520000D01*
X19855000Y-8425000D02*
X20045000Y-8425000D01*
X20650000Y-3230000D02*
X20650000Y-3420000D01*
X20555000Y-3325000D02*
X20745000Y-3325000D01*
X20650000Y-4930000D02*
X20650000Y-5120000D01*
X20555000Y-5025000D02*
X20745000Y-5025000D01*
X20650000Y-6630000D02*
X20650000Y-6820000D01*
X20555000Y-6725000D02*
X20745000Y-6725000D01*
X20650000Y-8330000D02*
X20650000Y-8520000D01*
X20555000Y-8425000D02*
X20745000Y-8425000D01*
X21750000Y-3230000D02*
X21750000Y-3420000D01*
X21655000Y-3325000D02*
X21845000Y-3325000D01*
X21750000Y-4930000D02*
X21750000Y-5120000D01*
X21655000Y-5025000D02*
X21845000Y-5025000D01*
X21750000Y-6630000D02*
X21750000Y-6820000D01*
X21655000Y-6725000D02*
X21845000Y-6725000D01*
X21750000Y-8330000D02*
X21750000Y-8520000D01*
X21655000Y-8425000D02*
X21845000Y-8425000D01*
X22450000Y-2530000D02*
X22450000Y-2720000D01*
X22355000Y-2625000D02*
X22545000Y-2625000D01*
X22450000Y-4230000D02*
X22450000Y-4420000D01*
X22355000Y-4325000D02*
X22545000Y-4325000D01*
X22450000Y-5930000D02*
X22450000Y-6120000D01*
X22355000Y-6025000D02*
X22545000Y-6025000D01*
X22450000Y-7630000D02*
X22450000Y-7820000D01*
X22355000Y-7725000D02*
X22545000Y-7725000D01*
X22450000Y-10030000D02*
X22450000Y-10220000D01*
X22355000Y-10125000D02*
X22545000Y-10125000D01*
X23550000Y-2530000D02*
X23550000Y-2720000D01*
X23455000Y-2625000D02*
X23645000Y-2625000D01*
X23550000Y-4230000D02*
X23550000Y-4420000D01*
X23455000Y-4325000D02*
X23645000Y-4325000D01*
X23550000Y-5930000D02*
X23550000Y-6120000D01*
X23455000Y-6025000D02*
X23645000Y-6025000D01*
X23550000Y-7630000D02*
X23550000Y-7820000D01*
X23455000Y-7725000D02*
X23645000Y-7725000D01*
X23550000Y-10030000D02*
X23550000Y-10220000D01*
X23455000Y-10125000D02*
X23645000Y-10125000D01*
X24250000Y-2730000D02*
X24250000Y-2920000D01*
X24155000Y-2825000D02*
X24345000Y-2825000D01*
X24250000Y-4430000D02*
X24250000Y-4620000D01*
X24155000Y-4525000D02*
X24345000Y-4525000D01*
X24250000Y-6130000D02*
X24250000Y-6320000D01*
X24155000Y-6225000D02*
X24345000Y-6225000D01*
X24250000Y-8330000D02*
X24250000Y-8520000D01*
X24155000Y-8425000D02*
X24345000Y-8425000D01*
X24250000Y-10030000D02*
X24250000Y-10220000D01*
X24155000Y-10125000D02*
X24345000Y-10125000D01*
X25350000Y-2730000D02*
X25350000Y-2920000D01*
X25255000Y-2825000D02*
X25445000Y-2825000D01*
X25350000Y-4430000D02*
X25350000Y-4620000D01*
X25255000Y-4525000D02*
X25445000Y-4525000D01*
X25350000Y-6130000D02*
X25350000Y-6320000D01*
X25255000Y-6225000D02*
X25445000Y-6225000D01*
X25350000Y-8330000D02*
X25350000Y-8520000D01*
X25255000Y-8425000D02*
X25445000Y-8425000D01*
X25350000Y-10030000D02*
X25350000Y-10220000D01*
X25255000Y-10125000D02*
X25445000Y-10125000D01*
X26050000Y-3930000D02*
X26050000Y-4120000D01*
X25955000Y-4025000D02*
X26145000Y-4025000D01*
X26050000Y-5630000D02*
X26050000Y-5820000D01*
X25955000Y-5725000D02*
X26145000Y-5725000D01*
X26050000Y-7330000D02*
X26050000Y-7520000D01*
X25955000Y-7425000D02*
X26145000Y-7425000D01*
X26050000Y-10030000D02*
X26050000Y-10220000D01*
X25955000Y-10125000D02*
X26145000Y-10125000D01*
X27150000Y-3930000D02*
X27150000Y-4120000D01*
X27055000Y-4025000D02*
X27245000Y-4025000D01*
X27150000Y-5630000D02*
X27150000Y-5820000D01*
X27055000Y-5725000D02*
X27245000Y-5725000D01*
X27150000Y-7330000D02*
X27150000Y-7520000D01*
X27055000Y-7425000D02*
X27245000Y-7425000D01*
X27150000Y-10030000D02*
X27150000Y-10220000D01*
X27055000Y-10125000D02*
X27245000Y-10125000D01*
D15*
X16806067Y-9636067D02*
X16806067Y-9423933D01*
X16593933Y-9423933D01*
X16593933Y-9636067D01*
X16806067Y-9636067D01*
X17306067Y-9856067D02*
X17306067Y-9643933D01*
X17093933Y-9643933D01*
X17093933Y-9856067D01*
X17306067Y-9856067D01*
X17706067Y-7936067D02*
X17706067Y-7723933D01*
X17493933Y-7723933D01*
X17493933Y-7936067D01*
X17706067Y-7936067D01*
X18206067Y-8156067D02*
X18206067Y-7943933D01*
X17993933Y-7943933D01*
X17993933Y-8156067D01*
X18206067Y-8156067D01*
X19506067Y-2836067D02*
X19506067Y-2623933D01*
X19293933Y-2623933D01*
X19293933Y-2836067D01*
X19506067Y-2836067D01*
X19506067Y-4536067D02*
X19506067Y-4323933D01*
X19293933Y-4323933D01*
X19293933Y-4536067D01*
X19506067Y-4536067D01*
X19506067Y-6236067D02*
X19506067Y-6023933D01*
X19293933Y-6023933D01*
X19293933Y-6236067D01*
X19506067Y-6236067D01*
X19506067Y-7936067D02*
X19506067Y-7723933D01*
X19293933Y-7723933D01*
X19293933Y-7936067D01*
X19506067Y-7936067D01*
X20006067Y-3056067D02*
X20006067Y-2843933D01*
X19793933Y-2843933D01*
X19793933Y-3056067D01*
X20006067Y-3056067D01*
X20006067Y-4756067D02*
X20006067Y-4543933D01*
X19793933Y-4543933D01*
X19793933Y-4756067D01*
X20006067Y-4756067D01*
X20006067Y-6456067D02*
X20006067Y-6243933D01*
X19793933Y-6243933D01*
X19793933Y-6456067D01*
X20006067Y-6456067D01*
X20006067Y-8156067D02*
X20006067Y-7943933D01*
X19793933Y-7943933D01*
X19793933Y-8156067D01*
X20006067Y-8156067D01*
X21306067Y-2836067D02*
X21306067Y-2623933D01*
X21093933Y-2623933D01*
X21093933Y-2836067D01*
X21306067Y-2836067D01*
X21306067Y-4536067D02*
X21306067Y-4323933D01*
X21093933Y-4323933D01*
X21093933Y-4536067D01*
X21306067Y-4536067D01*
X21306067Y-6236067D02*
X21306067Y-6023933D01*
X21093933Y-6023933D01*
X21093933Y-6236067D01*
X21306067Y-6236067D01*
X21306067Y-7936067D02*
X21306067Y-7723933D01*
X21093933Y-7723933D01*
X21093933Y-7936067D01*
X21306067Y-7936067D01*
X21806067Y-3056067D02*
X21806067Y-2843933D01*
X21593933Y-2843933D01*
X21593933Y-3056067D01*
X21806067Y-3056067D01*
X21806067Y-4756067D02*
X21806067Y-4543933D01*
X21593933Y-4543933D01*
X21593933Y-4756067D01*
X21806067Y-4756067D01*
X21806067Y-6456067D02*
X21806067Y-6243933D01*
X21593933Y-6243933D01*
X21593933Y-6456067D01*
X21806067Y-6456067D01*
X21806067Y-8156067D02*
X21806067Y-7943933D01*
X21593933Y-7943933D01*
X21593933Y-8156067D01*
X21806067Y-8156067D01*
X23106067Y-2136067D02*
X23106067Y-1923933D01*
X22893933Y-1923933D01*
X22893933Y-2136067D01*
X23106067Y-2136067D01*
X23106067Y-3836067D02*
X23106067Y-3623933D01*
X22893933Y-3623933D01*
X22893933Y-3836067D01*
X23106067Y-3836067D01*
X23106067Y-5536067D02*
X23106067Y-5323933D01*
X22893933Y-5323933D01*
X22893933Y-5536067D01*
X23106067Y-5536067D01*
X23106067Y-7236067D02*
X23106067Y-7023933D01*
X22893933Y-7023933D01*
X22893933Y-7236067D01*
X23106067Y-7236067D01*
X23106067Y-9636067D02*
X23106067Y-9423933D01*
X22893933Y-9423933D01*
X22893933Y-9636067D01*
X23106067Y-9636067D01*
X23606067Y-2356067D02*
X23606067Y-2143933D01*
X23393933Y-2143933D01*
X23393933Y-2356067D01*
X23606067Y-2356067D01*
X23606067Y-4056067D02*
X23606067Y-3843933D01*
X23393933Y-3843933D01*
X23393933Y-4056067D01*
X23606067Y-4056067D01*
X23606067Y-5756067D02*
X23606067Y-5543933D01*
X23393933Y-5543933D01*
X23393933Y-5756067D01*
X23606067Y-5756067D01*
X23606067Y-7456067D02*
X23606067Y-7243933D01*
X23393933Y-7243933D01*
X23393933Y-7456067D01*
X23606067Y-7456067D01*
X23606067Y-9856067D02*
X23606067Y-9643933D01*
X23393933Y-9643933D01*
X23393933Y-9856067D01*
X23606067Y-9856067D01*
X24906067Y-2336067D02*
X24906067Y-2123933D01*
X24693933Y-2123933D01*
X24693933Y-2336067D01*
X24906067Y-2336067D01*
X24906067Y-4036067D02*
X24906067Y-3823933D01*
X24693933Y-3823933D01*
X24693933Y-4036067D01*
X24906067Y-4036067D01*
X24906067Y-5736067D02*
X24906067Y-5523933D01*
X24693933Y-5523933D01*
X24693933Y-5736067D01*
X24906067Y-5736067D01*
X24906067Y-7936067D02*
X24906067Y-7723933D01*
X24693933Y-7723933D01*
X24693933Y-7936067D01*
X24906067Y-7936067D01*
X24906067Y-9636067D02*
X24906067Y-9423933D01*
X24693933Y-9423933D01*
X24693933Y-9636067D01*
X24906067Y-9636067D01*
X25406067Y-2556067D02*
X25406067Y-2343933D01*
X25193933Y-2343933D01*
X25193933Y-2556067D01*
X25406067Y-2556067D01*
X25406067Y-4256067D02*
X25406067Y-4043933D01*
X25193933Y-4043933D01*
X25193933Y-4256067D01*
X25406067Y-4256067D01*
X25406067Y-5956067D02*
X25406067Y-5743933D01*
X25193933Y-5743933D01*
X25193933Y-5956067D01*
X25406067Y-5956067D01*
X25406067Y-8156067D02*
X25406067Y-7943933D01*
X25193933Y-7943933D01*
X25193933Y-8156067D01*
X25406067Y-8156067D01*
X25406067Y-9856067D02*
X25406067Y-9643933D01*
X25193933Y-9643933D01*
X25193933Y-9856067D01*
X25406067Y-9856067D01*
X26706067Y-3536067D02*
X26706067Y-3323933D01*
X26493933Y-3323933D01*
X26493933Y-3536067D01*
X26706067Y-3536067D01*
X26706067Y-5236067D02*
X26706067Y-5023933D01*
X26493933Y-5023933D01*
X26493933Y-5236067D01*
X26706067Y-5236067D01*
X26706067Y-6936067D02*
X26706067Y-6723933D01*
X26493933Y-6723933D01*
X26493933Y-6936067D01*
X26706067Y-6936067D01*
X26706067Y-9636067D02*
X26706067Y-9423933D01*
X26493933Y-9423933D01*
X26493933Y-9636067D01*
X26706067Y-9636067D01*
X27206067Y-3756067D02*
X27206067Y-3543933D01*
X26993933Y-3543933D01*
X26993933Y-3756067D01*
X27206067Y-3756067D01*
X27206067Y-5456067D02*
X27206067Y-5243933D01*
X26993933Y-5243933D01*
X26993933Y-5456067D01*
X27206067Y-5456067D01*
X27206067Y-7156067D02*
X27206067Y-6943933D01*
X26993933Y-6943933D01*
X26993933Y-7156067D01*
X27206067Y-7156067D01*
X27206067Y-9856067D02*
X27206067Y-9643933D01*
X26993933Y-9643933D01*
X26993933Y-9856067D01*
X27206067Y-9856067D01*
D16*
X16700000Y-10295000D02*
X16870000Y-10125000D01*
X16700000Y-9955000D01*
X16530000Y-10125000D01*
X16700000Y-10295000D01*
X17600000Y-8595000D02*
X17770000Y-8425000D01*
X17600000Y-8255000D01*
X17430000Y-8425000D01*
X17600000Y-8595000D01*
X19400000Y-3495000D02*
X19570000Y-3325000D01*
X19400000Y-3155000D01*
X19230000Y-3325000D01*
X19400000Y-3495000D01*
X19400000Y-5195000D02*
X19570000Y-5025000D01*
X19400000Y-4855000D01*
X19230000Y-5025000D01*
X19400000Y-5195000D01*
X19400000Y-6895000D02*
X19570000Y-6725000D01*
X19400000Y-6555000D01*
X19230000Y-6725000D01*
X19400000Y-6895000D01*
X19400000Y-8595000D02*
X19570000Y-8425000D01*
X19400000Y-8255000D01*
X19230000Y-8425000D01*
X19400000Y-8595000D01*
X21200000Y-3495000D02*
X21370000Y-3325000D01*
X21200000Y-3155000D01*
X21030000Y-3325000D01*
X21200000Y-3495000D01*
X21200000Y-5195000D02*
X21370000Y-5025000D01*
X21200000Y-4855000D01*
X21030000Y-5025000D01*
X21200000Y-5195000D01*
X21200000Y-6895000D02*
X21370000Y-6725000D01*
X21200000Y-6555000D01*
X21030000Y-6725000D01*
X21200000Y-6895000D01*
X21200000Y-8595000D02*
X21370000Y-8425000D01*
X21200000Y-8255000D01*
X21030000Y-8425000D01*
X21200000Y-8595000D01*
X23000000Y-2795000D02*
X23170000Y-2625000D01*
X23000000Y-2455000D01*
X22830000Y-2625000D01*
X23000000Y-2795000D01*
X23000000Y-4495000D02*
X23170000Y-4325000D01*
X23000000Y-4155000D01*
X22830000Y-4325000D01*
X23000000Y-4495000D01*
X23000000Y-6195000D02*
X23170000Y-6025000D01*
X23000000Y-5855000D01*
X22830000Y-6025000D01*
X23000000Y-6195000D01*
X23000000Y-7895000D02*
X23170000Y-7725000D01*
X23000000Y-7555000D01*
X22830000Y-7725000D01*
X23000000Y-7895000D01*
X23000000Y-10295000D02*
X23170000Y-10125000D01*
X23000000Y-9955000D01*
X22830000Y-10125000D01*
X23000000Y-10295000D01*
X24800000Y-2995000D02*
X24970000Y-2825000D01*
X24800000Y-2655000D01*
X24630000Y-2825000D01*
X24800000Y-2995000D01*
X24800000Y-4695000D02*
X24970000Y-4525000D01*
X24800000Y-4355000D01*
X24630000Y-4525000D01*
X24800000Y-4695000D01*
X24800000Y-6395000D02*
X24970000Y-6225000D01*
X24800000Y-6055000D01*
X24630000Y-6225000D01*
X24800000Y-6395000D01*
X24800000Y-8595000D02*
X24970000Y-8425000D01*
X24800000Y-8255000D01*
X24630000Y-8425000D01*
X24800000Y-8595000D01*
X24800000Y-10295000D02*
X24970000Y-10125000D01*
X24800000Y-9955000D01*
X24630000Y-10125000D01*
X24800000Y-10295000D01*
X26600000Y-4195000D02*
X26770000Y-4025000D01*
X26600000Y-3855000D01*
X26430000Y-4025000D01*
X26600000Y-4195000D01*
X26600000Y-5895000D02*
X26770000Y-5725000D01*
X26600000Y-5555000D01*
X26430000Y-5725000D01*
X26600000Y-5895000D01*
X26600000Y-7595000D02*
X26770000Y-7425000D01*
X26600000Y-7255000D01*
X26430000Y-7425000D01*
X26600000Y-7595000D01*
X26600000Y-10295000D02*
X26770000Y-10125000D01*
X26600000Y-9955000D01*
X26430000Y-10125000D01*
X26600000Y-10295000D01*
D11*
X16050119Y-11287976D02*
X16050119Y-11087976D01*
X16097738Y-11087976D01*
X16126309Y-11097500D01*
X16145357Y-11116548D01*
X16154881Y-11135595D01*
X16164405Y-11173690D01*
X16164405Y-11202262D01*
X16154881Y-11240357D01*
X16145357Y-11259405D01*
X16126309Y-11278452D01*
X16097738Y-11287976D01*
X16050119Y-11287976D01*
X16250119Y-11287976D02*
X16250119Y-11154643D01*
X16250119Y-11192738D02*
X16259643Y-11173690D01*
X16269167Y-11164167D01*
X16288214Y-11154643D01*
X16307262Y-11154643D01*
X16373928Y-11287976D02*
X16373928Y-11154643D01*
X16373928Y-11087976D02*
X16364405Y-11097500D01*
X16373928Y-11107024D01*
X16383452Y-11097500D01*
X16373928Y-11087976D01*
X16373928Y-11107024D01*
X16497738Y-11287976D02*
X16478690Y-11278452D01*
X16469167Y-11259405D01*
X16469167Y-11087976D01*
X16602500Y-11287976D02*
X16583452Y-11278452D01*
X16573928Y-11259405D01*
X16573928Y-11087976D01*
X16831071Y-11287976D02*
X16831071Y-11087976D01*
X16897738Y-11230833D01*
X16964405Y-11087976D01*
X16964405Y-11287976D01*
X17145357Y-11287976D02*
X17145357Y-11183214D01*
X17135833Y-11164167D01*
X17116786Y-11154643D01*
X17078690Y-11154643D01*
X17059643Y-11164167D01*
X17145357Y-11278452D02*
X17126310Y-11287976D01*
X17078690Y-11287976D01*
X17059643Y-11278452D01*
X17050119Y-11259405D01*
X17050119Y-11240357D01*
X17059643Y-11221309D01*
X17078690Y-11211786D01*
X17126310Y-11211786D01*
X17145357Y-11202262D01*
X17240595Y-11154643D02*
X17240595Y-11354643D01*
X17240595Y-11164167D02*
X17259643Y-11154643D01*
X17297738Y-11154643D01*
X17316786Y-11164167D01*
X17326310Y-11173690D01*
X17335833Y-11192738D01*
X17335833Y-11249881D01*
X17326310Y-11268928D01*
X17316786Y-11278452D01*
X17297738Y-11287976D01*
X17259643Y-11287976D01*
X17240595Y-11278452D01*
X17421548Y-11268928D02*
X17431071Y-11278452D01*
X17421548Y-11287976D01*
X17412024Y-11278452D01*
X17421548Y-11268928D01*
X17421548Y-11287976D01*
X17421548Y-11164167D02*
X17431071Y-11173690D01*
X17421548Y-11183214D01*
X17412024Y-11173690D01*
X17421548Y-11164167D01*
X17421548Y-11183214D01*
D12*
X15712500Y-11577500D02*
X15792500Y-11657500D01*
X15792500Y-11577500D02*
X15712500Y-11657500D01*
D11*
X16088214Y-11507976D02*
X16107262Y-11507976D01*
X16126309Y-11517500D01*
X16135833Y-11527024D01*
X16145357Y-11546071D01*
X16154881Y-11584167D01*
X16154881Y-11631786D01*
X16145357Y-11669881D01*
X16135833Y-11688928D01*
X16126309Y-11698452D01*
X16107262Y-11707976D01*
X16088214Y-11707976D01*
X16069167Y-11698452D01*
X16059643Y-11688928D01*
X16050119Y-11669881D01*
X16040595Y-11631786D01*
X16040595Y-11584167D01*
X16050119Y-11546071D01*
X16059643Y-11527024D01*
X16069167Y-11517500D01*
X16088214Y-11507976D01*
X16240595Y-11688928D02*
X16250119Y-11698452D01*
X16240595Y-11707976D01*
X16231071Y-11698452D01*
X16240595Y-11688928D01*
X16240595Y-11707976D01*
X16364405Y-11593690D02*
X16345357Y-11584167D01*
X16335833Y-11574643D01*
X16326309Y-11555595D01*
X16326309Y-11546071D01*
X16335833Y-11527024D01*
X16345357Y-11517500D01*
X16364405Y-11507976D01*
X16402500Y-11507976D01*
X16421548Y-11517500D01*
X16431071Y-11527024D01*
X16440595Y-11546071D01*
X16440595Y-11555595D01*
X16431071Y-11574643D01*
X16421548Y-11584167D01*
X16402500Y-11593690D01*
X16364405Y-11593690D01*
X16345357Y-11603214D01*
X16335833Y-11612738D01*
X16326309Y-11631786D01*
X16326309Y-11669881D01*
X16335833Y-11688928D01*
X16345357Y-11698452D01*
X16364405Y-11707976D01*
X16402500Y-11707976D01*
X16421548Y-11698452D01*
X16431071Y-11688928D01*
X16440595Y-11669881D01*
X16440595Y-11631786D01*
X16431071Y-11612738D01*
X16421548Y-11603214D01*
X16402500Y-11593690D01*
X16564405Y-11507976D02*
X16583452Y-11507976D01*
X16602500Y-11517500D01*
X16612024Y-11527024D01*
X16621548Y-11546071D01*
X16631071Y-11584167D01*
X16631071Y-11631786D01*
X16621548Y-11669881D01*
X16612024Y-11688928D01*
X16602500Y-11698452D01*
X16583452Y-11707976D01*
X16564405Y-11707976D01*
X16545357Y-11698452D01*
X16535833Y-11688928D01*
X16526309Y-11669881D01*
X16516786Y-11631786D01*
X16516786Y-11584167D01*
X16526309Y-11546071D01*
X16535833Y-11527024D01*
X16545357Y-11517500D01*
X16564405Y-11507976D01*
X16754881Y-11507976D02*
X16773928Y-11507976D01*
X16792976Y-11517500D01*
X16802500Y-11527024D01*
X16812024Y-11546071D01*
X16821548Y-11584167D01*
X16821548Y-11631786D01*
X16812024Y-11669881D01*
X16802500Y-11688928D01*
X16792976Y-11698452D01*
X16773928Y-11707976D01*
X16754881Y-11707976D01*
X16735833Y-11698452D01*
X16726309Y-11688928D01*
X16716786Y-11669881D01*
X16707262Y-11631786D01*
X16707262Y-11584167D01*
X16716786Y-11546071D01*
X16726309Y-11527024D01*
X16735833Y-11517500D01*
X16754881Y-11507976D01*
X16907262Y-11707976D02*
X16907262Y-11574643D01*
X16907262Y-11593690D02*
X16916786Y-11584167D01*
X16935833Y-11574643D01*
X16964405Y-11574643D01*
X16983452Y-11584167D01*
X16992976Y-11603214D01*
X16992976Y-11707976D01*
X16992976Y-11603214D02*
X17002500Y-11584167D01*
X17021548Y-11574643D01*
X17050119Y-11574643D01*
X17069167Y-11584167D01*
X17078690Y-11603214D01*
X17078690Y-11707976D01*
X17173929Y-11707976D02*
X17173929Y-11574643D01*
X17173929Y-11593690D02*
X17183452Y-11584167D01*
X17202500Y-11574643D01*
X17231071Y-11574643D01*
X17250119Y-11584167D01*
X17259643Y-11603214D01*
X17259643Y-11707976D01*
X17259643Y-11603214D02*
X17269167Y-11584167D01*
X17288214Y-11574643D01*
X17316786Y-11574643D01*
X17335833Y-11584167D01*
X17345357Y-11603214D01*
X17345357Y-11707976D01*
X17735833Y-11498452D02*
X17564405Y-11755595D01*
X17992976Y-11507976D02*
X18012024Y-11507976D01*
X18031071Y-11517500D01*
X18040595Y-11527024D01*
X18050119Y-11546071D01*
X18059643Y-11584167D01*
X18059643Y-11631786D01*
X18050119Y-11669881D01*
X18040595Y-11688928D01*
X18031071Y-11698452D01*
X18012024Y-11707976D01*
X17992976Y-11707976D01*
X17973929Y-11698452D01*
X17964405Y-11688928D01*
X17954881Y-11669881D01*
X17945357Y-11631786D01*
X17945357Y-11584167D01*
X17954881Y-11546071D01*
X17964405Y-11527024D01*
X17973929Y-11517500D01*
X17992976Y-11507976D01*
X18145357Y-11688928D02*
X18154881Y-11698452D01*
X18145357Y-11707976D01*
X18135833Y-11698452D01*
X18145357Y-11688928D01*
X18145357Y-11707976D01*
X18278690Y-11507976D02*
X18297738Y-11507976D01*
X18316786Y-11517500D01*
X18326310Y-11527024D01*
X18335833Y-11546071D01*
X18345357Y-11584167D01*
X18345357Y-11631786D01*
X18335833Y-11669881D01*
X18326310Y-11688928D01*
X18316786Y-11698452D01*
X18297738Y-11707976D01*
X18278690Y-11707976D01*
X18259643Y-11698452D01*
X18250119Y-11688928D01*
X18240595Y-11669881D01*
X18231071Y-11631786D01*
X18231071Y-11584167D01*
X18240595Y-11546071D01*
X18250119Y-11527024D01*
X18259643Y-11517500D01*
X18278690Y-11507976D01*
X18412024Y-11507976D02*
X18535833Y-11507976D01*
X18469167Y-11584167D01*
X18497738Y-11584167D01*
X18516786Y-11593690D01*
X18526310Y-11603214D01*
X18535833Y-11622262D01*
X18535833Y-11669881D01*
X18526310Y-11688928D01*
X18516786Y-11698452D01*
X18497738Y-11707976D01*
X18440595Y-11707976D01*
X18421548Y-11698452D01*
X18412024Y-11688928D01*
X18726310Y-11707976D02*
X18612024Y-11707976D01*
X18669167Y-11707976D02*
X18669167Y-11507976D01*
X18650119Y-11536548D01*
X18631071Y-11555595D01*
X18612024Y-11565119D01*
X18907262Y-11507976D02*
X18812024Y-11507976D01*
X18802500Y-11603214D01*
X18812024Y-11593690D01*
X18831071Y-11584167D01*
X18878690Y-11584167D01*
X18897738Y-11593690D01*
X18907262Y-11603214D01*
X18916786Y-11622262D01*
X18916786Y-11669881D01*
X18907262Y-11688928D01*
X18897738Y-11698452D01*
X18878690Y-11707976D01*
X18831071Y-11707976D01*
X18812024Y-11698452D01*
X18802500Y-11688928D01*
X18992976Y-11507976D02*
X18992976Y-11546071D01*
X19069167Y-11507976D02*
X19069167Y-11546071D01*
X19364405Y-11784167D02*
X19354881Y-11774643D01*
X19335833Y-11746071D01*
X19326310Y-11727024D01*
X19316786Y-11698452D01*
X19307262Y-11650833D01*
X19307262Y-11612738D01*
X19316786Y-11565119D01*
X19326310Y-11536548D01*
X19335833Y-11517500D01*
X19354881Y-11488928D01*
X19364405Y-11479405D01*
X19431071Y-11527024D02*
X19440595Y-11517500D01*
X19459643Y-11507976D01*
X19507262Y-11507976D01*
X19526310Y-11517500D01*
X19535833Y-11527024D01*
X19545357Y-11546071D01*
X19545357Y-11565119D01*
X19535833Y-11593690D01*
X19421548Y-11707976D01*
X19545357Y-11707976D01*
X19783452Y-11707976D02*
X19783452Y-11507976D01*
X19869167Y-11707976D02*
X19869167Y-11603214D01*
X19859643Y-11584167D01*
X19840595Y-11574643D01*
X19812024Y-11574643D01*
X19792976Y-11584167D01*
X19783452Y-11593690D01*
X19992976Y-11707976D02*
X19973929Y-11698452D01*
X19964405Y-11688928D01*
X19954881Y-11669881D01*
X19954881Y-11612738D01*
X19964405Y-11593690D01*
X19973929Y-11584167D01*
X19992976Y-11574643D01*
X20021548Y-11574643D01*
X20040595Y-11584167D01*
X20050119Y-11593690D01*
X20059643Y-11612738D01*
X20059643Y-11669881D01*
X20050119Y-11688928D01*
X20040595Y-11698452D01*
X20021548Y-11707976D01*
X19992976Y-11707976D01*
X20173929Y-11707976D02*
X20154881Y-11698452D01*
X20145357Y-11679405D01*
X20145357Y-11507976D01*
X20326310Y-11698452D02*
X20307262Y-11707976D01*
X20269167Y-11707976D01*
X20250119Y-11698452D01*
X20240595Y-11679405D01*
X20240595Y-11603214D01*
X20250119Y-11584167D01*
X20269167Y-11574643D01*
X20307262Y-11574643D01*
X20326310Y-11584167D01*
X20335833Y-11603214D01*
X20335833Y-11622262D01*
X20240595Y-11641309D01*
X20412024Y-11698452D02*
X20431071Y-11707976D01*
X20469167Y-11707976D01*
X20488214Y-11698452D01*
X20497738Y-11679405D01*
X20497738Y-11669881D01*
X20488214Y-11650833D01*
X20469167Y-11641309D01*
X20440595Y-11641309D01*
X20421548Y-11631786D01*
X20412024Y-11612738D01*
X20412024Y-11603214D01*
X20421548Y-11584167D01*
X20440595Y-11574643D01*
X20469167Y-11574643D01*
X20488214Y-11584167D01*
X20564405Y-11784167D02*
X20573929Y-11774643D01*
X20592976Y-11746071D01*
X20602500Y-11727024D01*
X20612024Y-11698452D01*
X20621548Y-11650833D01*
X20621548Y-11612738D01*
X20612024Y-11565119D01*
X20602500Y-11536548D01*
X20592976Y-11517500D01*
X20573929Y-11488928D01*
X20564405Y-11479405D01*
X20926310Y-11784167D02*
X20916786Y-11774643D01*
X20897738Y-11746071D01*
X20888214Y-11727024D01*
X20878690Y-11698452D01*
X20869167Y-11650833D01*
X20869167Y-11612738D01*
X20878690Y-11565119D01*
X20888214Y-11536548D01*
X20897738Y-11517500D01*
X20916786Y-11488928D01*
X20926310Y-11479405D01*
X21002500Y-11574643D02*
X21002500Y-11707976D01*
X21002500Y-11593690D02*
X21012024Y-11584167D01*
X21031071Y-11574643D01*
X21059643Y-11574643D01*
X21078690Y-11584167D01*
X21088214Y-11603214D01*
X21088214Y-11707976D01*
X21212024Y-11707976D02*
X21192976Y-11698452D01*
X21183452Y-11688928D01*
X21173929Y-11669881D01*
X21173929Y-11612738D01*
X21183452Y-11593690D01*
X21192976Y-11584167D01*
X21212024Y-11574643D01*
X21240595Y-11574643D01*
X21259643Y-11584167D01*
X21269167Y-11593690D01*
X21278690Y-11612738D01*
X21278690Y-11669881D01*
X21269167Y-11688928D01*
X21259643Y-11698452D01*
X21240595Y-11707976D01*
X21212024Y-11707976D01*
X21335833Y-11574643D02*
X21412024Y-11574643D01*
X21364405Y-11507976D02*
X21364405Y-11679405D01*
X21373929Y-11698452D01*
X21392976Y-11707976D01*
X21412024Y-11707976D01*
X21631071Y-11574643D02*
X21631071Y-11774643D01*
X21631071Y-11584167D02*
X21650119Y-11574643D01*
X21688214Y-11574643D01*
X21707262Y-11584167D01*
X21716786Y-11593690D01*
X21726310Y-11612738D01*
X21726310Y-11669881D01*
X21716786Y-11688928D01*
X21707262Y-11698452D01*
X21688214Y-11707976D01*
X21650119Y-11707976D01*
X21631071Y-11698452D01*
X21840595Y-11707976D02*
X21821548Y-11698452D01*
X21812024Y-11679405D01*
X21812024Y-11507976D01*
X22002500Y-11707976D02*
X22002500Y-11603214D01*
X21992976Y-11584167D01*
X21973929Y-11574643D01*
X21935833Y-11574643D01*
X21916786Y-11584167D01*
X22002500Y-11698452D02*
X21983452Y-11707976D01*
X21935833Y-11707976D01*
X21916786Y-11698452D01*
X21907262Y-11679405D01*
X21907262Y-11660357D01*
X21916786Y-11641309D01*
X21935833Y-11631786D01*
X21983452Y-11631786D01*
X22002500Y-11622262D01*
X22069167Y-11574643D02*
X22145357Y-11574643D01*
X22097738Y-11507976D02*
X22097738Y-11679405D01*
X22107262Y-11698452D01*
X22126310Y-11707976D01*
X22145357Y-11707976D01*
X22288214Y-11698452D02*
X22269167Y-11707976D01*
X22231071Y-11707976D01*
X22212024Y-11698452D01*
X22202500Y-11679405D01*
X22202500Y-11603214D01*
X22212024Y-11584167D01*
X22231071Y-11574643D01*
X22269167Y-11574643D01*
X22288214Y-11584167D01*
X22297738Y-11603214D01*
X22297738Y-11622262D01*
X22202500Y-11641309D01*
X22469167Y-11707976D02*
X22469167Y-11507976D01*
X22469167Y-11698452D02*
X22450119Y-11707976D01*
X22412024Y-11707976D01*
X22392976Y-11698452D01*
X22383452Y-11688928D01*
X22373928Y-11669881D01*
X22373928Y-11612738D01*
X22383452Y-11593690D01*
X22392976Y-11584167D01*
X22412024Y-11574643D01*
X22450119Y-11574643D01*
X22469167Y-11584167D01*
X22545357Y-11784167D02*
X22554881Y-11774643D01*
X22573928Y-11746071D01*
X22583452Y-11727024D01*
X22592976Y-11698452D01*
X22602500Y-11650833D01*
X22602500Y-11612738D01*
X22592976Y-11565119D01*
X22583452Y-11536548D01*
X22573928Y-11517500D01*
X22554881Y-11488928D01*
X22545357Y-11479405D01*
D13*
X15792500Y-11881500D02*
G75*
G03*
X15792500Y-11881500I-49530J0D01*
G01*
D11*
X16088214Y-11771976D02*
X16107262Y-11771976D01*
X16126309Y-11781500D01*
X16135833Y-11791024D01*
X16145357Y-11810071D01*
X16154881Y-11848167D01*
X16154881Y-11895786D01*
X16145357Y-11933881D01*
X16135833Y-11952928D01*
X16126309Y-11962452D01*
X16107262Y-11971976D01*
X16088214Y-11971976D01*
X16069167Y-11962452D01*
X16059643Y-11952928D01*
X16050119Y-11933881D01*
X16040595Y-11895786D01*
X16040595Y-11848167D01*
X16050119Y-11810071D01*
X16059643Y-11791024D01*
X16069167Y-11781500D01*
X16088214Y-11771976D01*
X16240595Y-11952928D02*
X16250119Y-11962452D01*
X16240595Y-11971976D01*
X16231071Y-11962452D01*
X16240595Y-11952928D01*
X16240595Y-11971976D01*
X16345357Y-11971976D02*
X16383452Y-11971976D01*
X16402500Y-11962452D01*
X16412024Y-11952928D01*
X16431071Y-11924357D01*
X16440595Y-11886262D01*
X16440595Y-11810071D01*
X16431071Y-11791024D01*
X16421548Y-11781500D01*
X16402500Y-11771976D01*
X16364405Y-11771976D01*
X16345357Y-11781500D01*
X16335833Y-11791024D01*
X16326309Y-11810071D01*
X16326309Y-11857690D01*
X16335833Y-11876738D01*
X16345357Y-11886262D01*
X16364405Y-11895786D01*
X16402500Y-11895786D01*
X16421548Y-11886262D01*
X16431071Y-11876738D01*
X16440595Y-11857690D01*
X16535833Y-11971976D02*
X16573928Y-11971976D01*
X16592976Y-11962452D01*
X16602500Y-11952928D01*
X16621548Y-11924357D01*
X16631071Y-11886262D01*
X16631071Y-11810071D01*
X16621548Y-11791024D01*
X16612024Y-11781500D01*
X16592976Y-11771976D01*
X16554881Y-11771976D01*
X16535833Y-11781500D01*
X16526309Y-11791024D01*
X16516786Y-11810071D01*
X16516786Y-11857690D01*
X16526309Y-11876738D01*
X16535833Y-11886262D01*
X16554881Y-11895786D01*
X16592976Y-11895786D01*
X16612024Y-11886262D01*
X16621548Y-11876738D01*
X16631071Y-11857690D01*
X16821548Y-11971976D02*
X16707262Y-11971976D01*
X16764405Y-11971976D02*
X16764405Y-11771976D01*
X16745357Y-11800548D01*
X16726309Y-11819595D01*
X16707262Y-11829119D01*
X16907262Y-11971976D02*
X16907262Y-11838643D01*
X16907262Y-11857690D02*
X16916786Y-11848167D01*
X16935833Y-11838643D01*
X16964405Y-11838643D01*
X16983452Y-11848167D01*
X16992976Y-11867214D01*
X16992976Y-11971976D01*
X16992976Y-11867214D02*
X17002500Y-11848167D01*
X17021548Y-11838643D01*
X17050119Y-11838643D01*
X17069167Y-11848167D01*
X17078690Y-11867214D01*
X17078690Y-11971976D01*
X17173929Y-11971976D02*
X17173929Y-11838643D01*
X17173929Y-11857690D02*
X17183452Y-11848167D01*
X17202500Y-11838643D01*
X17231071Y-11838643D01*
X17250119Y-11848167D01*
X17259643Y-11867214D01*
X17259643Y-11971976D01*
X17259643Y-11867214D02*
X17269167Y-11848167D01*
X17288214Y-11838643D01*
X17316786Y-11838643D01*
X17335833Y-11848167D01*
X17345357Y-11867214D01*
X17345357Y-11971976D01*
X17735833Y-11762452D02*
X17564405Y-12019595D01*
X17992976Y-11771976D02*
X18012024Y-11771976D01*
X18031071Y-11781500D01*
X18040595Y-11791024D01*
X18050119Y-11810071D01*
X18059643Y-11848167D01*
X18059643Y-11895786D01*
X18050119Y-11933881D01*
X18040595Y-11952928D01*
X18031071Y-11962452D01*
X18012024Y-11971976D01*
X17992976Y-11971976D01*
X17973929Y-11962452D01*
X17964405Y-11952928D01*
X17954881Y-11933881D01*
X17945357Y-11895786D01*
X17945357Y-11848167D01*
X17954881Y-11810071D01*
X17964405Y-11791024D01*
X17973929Y-11781500D01*
X17992976Y-11771976D01*
X18145357Y-11952928D02*
X18154881Y-11962452D01*
X18145357Y-11971976D01*
X18135833Y-11962452D01*
X18145357Y-11952928D01*
X18145357Y-11971976D01*
X18278690Y-11771976D02*
X18297738Y-11771976D01*
X18316786Y-11781500D01*
X18326310Y-11791024D01*
X18335833Y-11810071D01*
X18345357Y-11848167D01*
X18345357Y-11895786D01*
X18335833Y-11933881D01*
X18326310Y-11952928D01*
X18316786Y-11962452D01*
X18297738Y-11971976D01*
X18278690Y-11971976D01*
X18259643Y-11962452D01*
X18250119Y-11952928D01*
X18240595Y-11933881D01*
X18231071Y-11895786D01*
X18231071Y-11848167D01*
X18240595Y-11810071D01*
X18250119Y-11791024D01*
X18259643Y-11781500D01*
X18278690Y-11771976D01*
X18412024Y-11771976D02*
X18535833Y-11771976D01*
X18469167Y-11848167D01*
X18497738Y-11848167D01*
X18516786Y-11857690D01*
X18526310Y-11867214D01*
X18535833Y-11886262D01*
X18535833Y-11933881D01*
X18526310Y-11952928D01*
X18516786Y-11962452D01*
X18497738Y-11971976D01*
X18440595Y-11971976D01*
X18421548Y-11962452D01*
X18412024Y-11952928D01*
X18631071Y-11971976D02*
X18669167Y-11971976D01*
X18688214Y-11962452D01*
X18697738Y-11952928D01*
X18716786Y-11924357D01*
X18726310Y-11886262D01*
X18726310Y-11810071D01*
X18716786Y-11791024D01*
X18707262Y-11781500D01*
X18688214Y-11771976D01*
X18650119Y-11771976D01*
X18631071Y-11781500D01*
X18621548Y-11791024D01*
X18612024Y-11810071D01*
X18612024Y-11857690D01*
X18621548Y-11876738D01*
X18631071Y-11886262D01*
X18650119Y-11895786D01*
X18688214Y-11895786D01*
X18707262Y-11886262D01*
X18716786Y-11876738D01*
X18726310Y-11857690D01*
X18850119Y-11771976D02*
X18869167Y-11771976D01*
X18888214Y-11781500D01*
X18897738Y-11791024D01*
X18907262Y-11810071D01*
X18916786Y-11848167D01*
X18916786Y-11895786D01*
X18907262Y-11933881D01*
X18897738Y-11952928D01*
X18888214Y-11962452D01*
X18869167Y-11971976D01*
X18850119Y-11971976D01*
X18831071Y-11962452D01*
X18821548Y-11952928D01*
X18812024Y-11933881D01*
X18802500Y-11895786D01*
X18802500Y-11848167D01*
X18812024Y-11810071D01*
X18821548Y-11791024D01*
X18831071Y-11781500D01*
X18850119Y-11771976D01*
X18992976Y-11771976D02*
X18992976Y-11810071D01*
X19069167Y-11771976D02*
X19069167Y-11810071D01*
X19364405Y-12048167D02*
X19354881Y-12038643D01*
X19335833Y-12010071D01*
X19326310Y-11991024D01*
X19316786Y-11962452D01*
X19307262Y-11914833D01*
X19307262Y-11876738D01*
X19316786Y-11829119D01*
X19326310Y-11800548D01*
X19335833Y-11781500D01*
X19354881Y-11752928D01*
X19364405Y-11743405D01*
X19431071Y-11791024D02*
X19440595Y-11781500D01*
X19459643Y-11771976D01*
X19507262Y-11771976D01*
X19526310Y-11781500D01*
X19535833Y-11791024D01*
X19545357Y-11810071D01*
X19545357Y-11829119D01*
X19535833Y-11857690D01*
X19421548Y-11971976D01*
X19545357Y-11971976D01*
X19716786Y-11838643D02*
X19716786Y-11971976D01*
X19669167Y-11762452D02*
X19621548Y-11905309D01*
X19745357Y-11905309D01*
X19973929Y-11971976D02*
X19973929Y-11771976D01*
X20059643Y-11971976D02*
X20059643Y-11867214D01*
X20050119Y-11848167D01*
X20031071Y-11838643D01*
X20002500Y-11838643D01*
X19983452Y-11848167D01*
X19973929Y-11857690D01*
X20183452Y-11971976D02*
X20164405Y-11962452D01*
X20154881Y-11952928D01*
X20145357Y-11933881D01*
X20145357Y-11876738D01*
X20154881Y-11857690D01*
X20164405Y-11848167D01*
X20183452Y-11838643D01*
X20212024Y-11838643D01*
X20231071Y-11848167D01*
X20240595Y-11857690D01*
X20250119Y-11876738D01*
X20250119Y-11933881D01*
X20240595Y-11952928D01*
X20231071Y-11962452D01*
X20212024Y-11971976D01*
X20183452Y-11971976D01*
X20364405Y-11971976D02*
X20345357Y-11962452D01*
X20335833Y-11943405D01*
X20335833Y-11771976D01*
X20516786Y-11962452D02*
X20497738Y-11971976D01*
X20459643Y-11971976D01*
X20440595Y-11962452D01*
X20431071Y-11943405D01*
X20431071Y-11867214D01*
X20440595Y-11848167D01*
X20459643Y-11838643D01*
X20497738Y-11838643D01*
X20516786Y-11848167D01*
X20526310Y-11867214D01*
X20526310Y-11886262D01*
X20431071Y-11905309D01*
X20602500Y-11962452D02*
X20621548Y-11971976D01*
X20659643Y-11971976D01*
X20678690Y-11962452D01*
X20688214Y-11943405D01*
X20688214Y-11933881D01*
X20678690Y-11914833D01*
X20659643Y-11905309D01*
X20631071Y-11905309D01*
X20612024Y-11895786D01*
X20602500Y-11876738D01*
X20602500Y-11867214D01*
X20612024Y-11848167D01*
X20631071Y-11838643D01*
X20659643Y-11838643D01*
X20678690Y-11848167D01*
X20754881Y-12048167D02*
X20764405Y-12038643D01*
X20783452Y-12010071D01*
X20792976Y-11991024D01*
X20802500Y-11962452D01*
X20812024Y-11914833D01*
X20812024Y-11876738D01*
X20802500Y-11829119D01*
X20792976Y-11800548D01*
X20783452Y-11781500D01*
X20764405Y-11752928D01*
X20754881Y-11743405D01*
X21116786Y-12048167D02*
X21107262Y-12038643D01*
X21088214Y-12010071D01*
X21078690Y-11991024D01*
X21069167Y-11962452D01*
X21059643Y-11914833D01*
X21059643Y-11876738D01*
X21069167Y-11829119D01*
X21078690Y-11800548D01*
X21088214Y-11781500D01*
X21107262Y-11752928D01*
X21116786Y-11743405D01*
X21192976Y-11838643D02*
X21192976Y-11971976D01*
X21192976Y-11857690D02*
X21202500Y-11848167D01*
X21221548Y-11838643D01*
X21250119Y-11838643D01*
X21269167Y-11848167D01*
X21278690Y-11867214D01*
X21278690Y-11971976D01*
X21402500Y-11971976D02*
X21383452Y-11962452D01*
X21373929Y-11952928D01*
X21364405Y-11933881D01*
X21364405Y-11876738D01*
X21373929Y-11857690D01*
X21383452Y-11848167D01*
X21402500Y-11838643D01*
X21431071Y-11838643D01*
X21450119Y-11848167D01*
X21459643Y-11857690D01*
X21469167Y-11876738D01*
X21469167Y-11933881D01*
X21459643Y-11952928D01*
X21450119Y-11962452D01*
X21431071Y-11971976D01*
X21402500Y-11971976D01*
X21526310Y-11838643D02*
X21602500Y-11838643D01*
X21554881Y-11771976D02*
X21554881Y-11943405D01*
X21564405Y-11962452D01*
X21583452Y-11971976D01*
X21602500Y-11971976D01*
X21821548Y-11838643D02*
X21821548Y-12038643D01*
X21821548Y-11848167D02*
X21840595Y-11838643D01*
X21878690Y-11838643D01*
X21897738Y-11848167D01*
X21907262Y-11857690D01*
X21916786Y-11876738D01*
X21916786Y-11933881D01*
X21907262Y-11952928D01*
X21897738Y-11962452D01*
X21878690Y-11971976D01*
X21840595Y-11971976D01*
X21821548Y-11962452D01*
X22031071Y-11971976D02*
X22012024Y-11962452D01*
X22002500Y-11943405D01*
X22002500Y-11771976D01*
X22192976Y-11971976D02*
X22192976Y-11867214D01*
X22183452Y-11848167D01*
X22164405Y-11838643D01*
X22126310Y-11838643D01*
X22107262Y-11848167D01*
X22192976Y-11962452D02*
X22173929Y-11971976D01*
X22126310Y-11971976D01*
X22107262Y-11962452D01*
X22097738Y-11943405D01*
X22097738Y-11924357D01*
X22107262Y-11905309D01*
X22126310Y-11895786D01*
X22173929Y-11895786D01*
X22192976Y-11886262D01*
X22259643Y-11838643D02*
X22335833Y-11838643D01*
X22288214Y-11771976D02*
X22288214Y-11943405D01*
X22297738Y-11962452D01*
X22316786Y-11971976D01*
X22335833Y-11971976D01*
X22478690Y-11962452D02*
X22459643Y-11971976D01*
X22421548Y-11971976D01*
X22402500Y-11962452D01*
X22392976Y-11943405D01*
X22392976Y-11867214D01*
X22402500Y-11848167D01*
X22421548Y-11838643D01*
X22459643Y-11838643D01*
X22478690Y-11848167D01*
X22488214Y-11867214D01*
X22488214Y-11886262D01*
X22392976Y-11905309D01*
X22659643Y-11971976D02*
X22659643Y-11771976D01*
X22659643Y-11962452D02*
X22640595Y-11971976D01*
X22602500Y-11971976D01*
X22583452Y-11962452D01*
X22573928Y-11952928D01*
X22564405Y-11933881D01*
X22564405Y-11876738D01*
X22573928Y-11857690D01*
X22583452Y-11848167D01*
X22602500Y-11838643D01*
X22640595Y-11838643D01*
X22659643Y-11848167D01*
X22735833Y-12048167D02*
X22745357Y-12038643D01*
X22764405Y-12010071D01*
X22773928Y-11991024D01*
X22783452Y-11962452D01*
X22792976Y-11914833D01*
X22792976Y-11876738D01*
X22783452Y-11829119D01*
X22773928Y-11800548D01*
X22764405Y-11781500D01*
X22745357Y-11752928D01*
X22735833Y-11743405D01*
D14*
X15697500Y-12050500D02*
X15697500Y-12240500D01*
X15602500Y-12145500D02*
X15792500Y-12145500D01*
D11*
X16154881Y-12235976D02*
X16040595Y-12235976D01*
X16097738Y-12235976D02*
X16097738Y-12035976D01*
X16078690Y-12064548D01*
X16059643Y-12083595D01*
X16040595Y-12093119D01*
X16240595Y-12216928D02*
X16250119Y-12226452D01*
X16240595Y-12235976D01*
X16231071Y-12226452D01*
X16240595Y-12216928D01*
X16240595Y-12235976D01*
X16345357Y-12235976D02*
X16383452Y-12235976D01*
X16402500Y-12226452D01*
X16412024Y-12216928D01*
X16431071Y-12188357D01*
X16440595Y-12150262D01*
X16440595Y-12074071D01*
X16431071Y-12055024D01*
X16421548Y-12045500D01*
X16402500Y-12035976D01*
X16364405Y-12035976D01*
X16345357Y-12045500D01*
X16335833Y-12055024D01*
X16326309Y-12074071D01*
X16326309Y-12121690D01*
X16335833Y-12140738D01*
X16345357Y-12150262D01*
X16364405Y-12159786D01*
X16402500Y-12159786D01*
X16421548Y-12150262D01*
X16431071Y-12140738D01*
X16440595Y-12121690D01*
X16564405Y-12035976D02*
X16583452Y-12035976D01*
X16602500Y-12045500D01*
X16612024Y-12055024D01*
X16621548Y-12074071D01*
X16631071Y-12112167D01*
X16631071Y-12159786D01*
X16621548Y-12197881D01*
X16612024Y-12216928D01*
X16602500Y-12226452D01*
X16583452Y-12235976D01*
X16564405Y-12235976D01*
X16545357Y-12226452D01*
X16535833Y-12216928D01*
X16526309Y-12197881D01*
X16516786Y-12159786D01*
X16516786Y-12112167D01*
X16526309Y-12074071D01*
X16535833Y-12055024D01*
X16545357Y-12045500D01*
X16564405Y-12035976D01*
X16754881Y-12035976D02*
X16773928Y-12035976D01*
X16792976Y-12045500D01*
X16802500Y-12055024D01*
X16812024Y-12074071D01*
X16821548Y-12112167D01*
X16821548Y-12159786D01*
X16812024Y-12197881D01*
X16802500Y-12216928D01*
X16792976Y-12226452D01*
X16773928Y-12235976D01*
X16754881Y-12235976D01*
X16735833Y-12226452D01*
X16726309Y-12216928D01*
X16716786Y-12197881D01*
X16707262Y-12159786D01*
X16707262Y-12112167D01*
X16716786Y-12074071D01*
X16726309Y-12055024D01*
X16735833Y-12045500D01*
X16754881Y-12035976D01*
X16907262Y-12235976D02*
X16907262Y-12102643D01*
X16907262Y-12121690D02*
X16916786Y-12112167D01*
X16935833Y-12102643D01*
X16964405Y-12102643D01*
X16983452Y-12112167D01*
X16992976Y-12131214D01*
X16992976Y-12235976D01*
X16992976Y-12131214D02*
X17002500Y-12112167D01*
X17021548Y-12102643D01*
X17050119Y-12102643D01*
X17069167Y-12112167D01*
X17078690Y-12131214D01*
X17078690Y-12235976D01*
X17173929Y-12235976D02*
X17173929Y-12102643D01*
X17173929Y-12121690D02*
X17183452Y-12112167D01*
X17202500Y-12102643D01*
X17231071Y-12102643D01*
X17250119Y-12112167D01*
X17259643Y-12131214D01*
X17259643Y-12235976D01*
X17259643Y-12131214D02*
X17269167Y-12112167D01*
X17288214Y-12102643D01*
X17316786Y-12102643D01*
X17335833Y-12112167D01*
X17345357Y-12131214D01*
X17345357Y-12235976D01*
X17735833Y-12026452D02*
X17564405Y-12283595D01*
X17992976Y-12035976D02*
X18012024Y-12035976D01*
X18031071Y-12045500D01*
X18040595Y-12055024D01*
X18050119Y-12074071D01*
X18059643Y-12112167D01*
X18059643Y-12159786D01*
X18050119Y-12197881D01*
X18040595Y-12216928D01*
X18031071Y-12226452D01*
X18012024Y-12235976D01*
X17992976Y-12235976D01*
X17973929Y-12226452D01*
X17964405Y-12216928D01*
X17954881Y-12197881D01*
X17945357Y-12159786D01*
X17945357Y-12112167D01*
X17954881Y-12074071D01*
X17964405Y-12055024D01*
X17973929Y-12045500D01*
X17992976Y-12035976D01*
X18145357Y-12216928D02*
X18154881Y-12226452D01*
X18145357Y-12235976D01*
X18135833Y-12226452D01*
X18145357Y-12216928D01*
X18145357Y-12235976D01*
X18278690Y-12035976D02*
X18297738Y-12035976D01*
X18316786Y-12045500D01*
X18326310Y-12055024D01*
X18335833Y-12074071D01*
X18345357Y-12112167D01*
X18345357Y-12159786D01*
X18335833Y-12197881D01*
X18326310Y-12216928D01*
X18316786Y-12226452D01*
X18297738Y-12235976D01*
X18278690Y-12235976D01*
X18259643Y-12226452D01*
X18250119Y-12216928D01*
X18240595Y-12197881D01*
X18231071Y-12159786D01*
X18231071Y-12112167D01*
X18240595Y-12074071D01*
X18250119Y-12055024D01*
X18259643Y-12045500D01*
X18278690Y-12035976D01*
X18412024Y-12035976D02*
X18545357Y-12035976D01*
X18459643Y-12235976D01*
X18707262Y-12102643D02*
X18707262Y-12235976D01*
X18659643Y-12026452D02*
X18612024Y-12169309D01*
X18735833Y-12169309D01*
X18840595Y-12121690D02*
X18821548Y-12112167D01*
X18812024Y-12102643D01*
X18802500Y-12083595D01*
X18802500Y-12074071D01*
X18812024Y-12055024D01*
X18821548Y-12045500D01*
X18840595Y-12035976D01*
X18878690Y-12035976D01*
X18897738Y-12045500D01*
X18907262Y-12055024D01*
X18916786Y-12074071D01*
X18916786Y-12083595D01*
X18907262Y-12102643D01*
X18897738Y-12112167D01*
X18878690Y-12121690D01*
X18840595Y-12121690D01*
X18821548Y-12131214D01*
X18812024Y-12140738D01*
X18802500Y-12159786D01*
X18802500Y-12197881D01*
X18812024Y-12216928D01*
X18821548Y-12226452D01*
X18840595Y-12235976D01*
X18878690Y-12235976D01*
X18897738Y-12226452D01*
X18907262Y-12216928D01*
X18916786Y-12197881D01*
X18916786Y-12159786D01*
X18907262Y-12140738D01*
X18897738Y-12131214D01*
X18878690Y-12121690D01*
X18992976Y-12035976D02*
X18992976Y-12074071D01*
X19069167Y-12035976D02*
X19069167Y-12074071D01*
X19364405Y-12312167D02*
X19354881Y-12302643D01*
X19335833Y-12274071D01*
X19326310Y-12255024D01*
X19316786Y-12226452D01*
X19307262Y-12178833D01*
X19307262Y-12140738D01*
X19316786Y-12093119D01*
X19326310Y-12064548D01*
X19335833Y-12045500D01*
X19354881Y-12016928D01*
X19364405Y-12007405D01*
X19526310Y-12102643D02*
X19526310Y-12235976D01*
X19478690Y-12026452D02*
X19431071Y-12169309D01*
X19554881Y-12169309D01*
X19659643Y-12121690D02*
X19640595Y-12112167D01*
X19631071Y-12102643D01*
X19621548Y-12083595D01*
X19621548Y-12074071D01*
X19631071Y-12055024D01*
X19640595Y-12045500D01*
X19659643Y-12035976D01*
X19697738Y-12035976D01*
X19716786Y-12045500D01*
X19726310Y-12055024D01*
X19735833Y-12074071D01*
X19735833Y-12083595D01*
X19726310Y-12102643D01*
X19716786Y-12112167D01*
X19697738Y-12121690D01*
X19659643Y-12121690D01*
X19640595Y-12131214D01*
X19631071Y-12140738D01*
X19621548Y-12159786D01*
X19621548Y-12197881D01*
X19631071Y-12216928D01*
X19640595Y-12226452D01*
X19659643Y-12235976D01*
X19697738Y-12235976D01*
X19716786Y-12226452D01*
X19726310Y-12216928D01*
X19735833Y-12197881D01*
X19735833Y-12159786D01*
X19726310Y-12140738D01*
X19716786Y-12131214D01*
X19697738Y-12121690D01*
X19973929Y-12235976D02*
X19973929Y-12035976D01*
X20059643Y-12235976D02*
X20059643Y-12131214D01*
X20050119Y-12112167D01*
X20031071Y-12102643D01*
X20002500Y-12102643D01*
X19983452Y-12112167D01*
X19973929Y-12121690D01*
X20183452Y-12235976D02*
X20164405Y-12226452D01*
X20154881Y-12216928D01*
X20145357Y-12197881D01*
X20145357Y-12140738D01*
X20154881Y-12121690D01*
X20164405Y-12112167D01*
X20183452Y-12102643D01*
X20212024Y-12102643D01*
X20231071Y-12112167D01*
X20240595Y-12121690D01*
X20250119Y-12140738D01*
X20250119Y-12197881D01*
X20240595Y-12216928D01*
X20231071Y-12226452D01*
X20212024Y-12235976D01*
X20183452Y-12235976D01*
X20364405Y-12235976D02*
X20345357Y-12226452D01*
X20335833Y-12207405D01*
X20335833Y-12035976D01*
X20516786Y-12226452D02*
X20497738Y-12235976D01*
X20459643Y-12235976D01*
X20440595Y-12226452D01*
X20431071Y-12207405D01*
X20431071Y-12131214D01*
X20440595Y-12112167D01*
X20459643Y-12102643D01*
X20497738Y-12102643D01*
X20516786Y-12112167D01*
X20526310Y-12131214D01*
X20526310Y-12150262D01*
X20431071Y-12169309D01*
X20602500Y-12226452D02*
X20621548Y-12235976D01*
X20659643Y-12235976D01*
X20678690Y-12226452D01*
X20688214Y-12207405D01*
X20688214Y-12197881D01*
X20678690Y-12178833D01*
X20659643Y-12169309D01*
X20631071Y-12169309D01*
X20612024Y-12159786D01*
X20602500Y-12140738D01*
X20602500Y-12131214D01*
X20612024Y-12112167D01*
X20631071Y-12102643D01*
X20659643Y-12102643D01*
X20678690Y-12112167D01*
X20754881Y-12312167D02*
X20764405Y-12302643D01*
X20783452Y-12274071D01*
X20792976Y-12255024D01*
X20802500Y-12226452D01*
X20812024Y-12178833D01*
X20812024Y-12140738D01*
X20802500Y-12093119D01*
X20792976Y-12064548D01*
X20783452Y-12045500D01*
X20764405Y-12016928D01*
X20754881Y-12007405D01*
X21116786Y-12312167D02*
X21107262Y-12302643D01*
X21088214Y-12274071D01*
X21078690Y-12255024D01*
X21069167Y-12226452D01*
X21059643Y-12178833D01*
X21059643Y-12140738D01*
X21069167Y-12093119D01*
X21078690Y-12064548D01*
X21088214Y-12045500D01*
X21107262Y-12016928D01*
X21116786Y-12007405D01*
X21192976Y-12102643D02*
X21192976Y-12235976D01*
X21192976Y-12121690D02*
X21202500Y-12112167D01*
X21221548Y-12102643D01*
X21250119Y-12102643D01*
X21269167Y-12112167D01*
X21278690Y-12131214D01*
X21278690Y-12235976D01*
X21402500Y-12235976D02*
X21383452Y-12226452D01*
X21373929Y-12216928D01*
X21364405Y-12197881D01*
X21364405Y-12140738D01*
X21373929Y-12121690D01*
X21383452Y-12112167D01*
X21402500Y-12102643D01*
X21431071Y-12102643D01*
X21450119Y-12112167D01*
X21459643Y-12121690D01*
X21469167Y-12140738D01*
X21469167Y-12197881D01*
X21459643Y-12216928D01*
X21450119Y-12226452D01*
X21431071Y-12235976D01*
X21402500Y-12235976D01*
X21526310Y-12102643D02*
X21602500Y-12102643D01*
X21554881Y-12035976D02*
X21554881Y-12207405D01*
X21564405Y-12226452D01*
X21583452Y-12235976D01*
X21602500Y-12235976D01*
X21821548Y-12102643D02*
X21821548Y-12302643D01*
X21821548Y-12112167D02*
X21840595Y-12102643D01*
X21878690Y-12102643D01*
X21897738Y-12112167D01*
X21907262Y-12121690D01*
X21916786Y-12140738D01*
X21916786Y-12197881D01*
X21907262Y-12216928D01*
X21897738Y-12226452D01*
X21878690Y-12235976D01*
X21840595Y-12235976D01*
X21821548Y-12226452D01*
X22031071Y-12235976D02*
X22012024Y-12226452D01*
X22002500Y-12207405D01*
X22002500Y-12035976D01*
X22192976Y-12235976D02*
X22192976Y-12131214D01*
X22183452Y-12112167D01*
X22164405Y-12102643D01*
X22126310Y-12102643D01*
X22107262Y-12112167D01*
X22192976Y-12226452D02*
X22173929Y-12235976D01*
X22126310Y-12235976D01*
X22107262Y-12226452D01*
X22097738Y-12207405D01*
X22097738Y-12188357D01*
X22107262Y-12169309D01*
X22126310Y-12159786D01*
X22173929Y-12159786D01*
X22192976Y-12150262D01*
X22259643Y-12102643D02*
X22335833Y-12102643D01*
X22288214Y-12035976D02*
X22288214Y-12207405D01*
X22297738Y-12226452D01*
X22316786Y-12235976D01*
X22335833Y-12235976D01*
X22478690Y-12226452D02*
X22459643Y-12235976D01*
X22421548Y-12235976D01*
X22402500Y-12226452D01*
X22392976Y-12207405D01*
X22392976Y-12131214D01*
X22402500Y-12112167D01*
X22421548Y-12102643D01*
X22459643Y-12102643D01*
X22478690Y-12112167D01*
X22488214Y-12131214D01*
X22488214Y-12150262D01*
X22392976Y-12169309D01*
X22659643Y-12235976D02*
X22659643Y-12035976D01*
X22659643Y-12226452D02*
X22640595Y-12235976D01*
X22602500Y-12235976D01*
X22583452Y-12226452D01*
X22573928Y-12216928D01*
X22564405Y-12197881D01*
X22564405Y-12140738D01*
X22573928Y-12121690D01*
X22583452Y-12112167D01*
X22602500Y-12102643D01*
X22640595Y-12102643D01*
X22659643Y-12112167D01*
X22735833Y-12312167D02*
X22745357Y-12302643D01*
X22764405Y-12274071D01*
X22773928Y-12255024D01*
X22783452Y-12226452D01*
X22792976Y-12178833D01*
X22792976Y-12140738D01*
X22783452Y-12093119D01*
X22773928Y-12064548D01*
X22764405Y-12045500D01*
X22745357Y-12016928D01*
X22735833Y-12007405D01*
X15763211Y-12526211D02*
X15763211Y-12384789D01*
X15621789Y-12384789D01*
X15621789Y-12526211D01*
X15763211Y-12526211D01*
X16031071Y-12345976D02*
X16154881Y-12345976D01*
X16088214Y-12422167D01*
X16116786Y-12422167D01*
X16135833Y-12431690D01*
X16145357Y-12441214D01*
X16154881Y-12460262D01*
X16154881Y-12507881D01*
X16145357Y-12526928D01*
X16135833Y-12536452D01*
X16116786Y-12545976D01*
X16059643Y-12545976D01*
X16040595Y-12536452D01*
X16031071Y-12526928D01*
X16240595Y-12526928D02*
X16250119Y-12536452D01*
X16240595Y-12545976D01*
X16231071Y-12536452D01*
X16240595Y-12526928D01*
X16240595Y-12545976D01*
X16373928Y-12345976D02*
X16392976Y-12345976D01*
X16412024Y-12355500D01*
X16421548Y-12365024D01*
X16431071Y-12384071D01*
X16440595Y-12422167D01*
X16440595Y-12469786D01*
X16431071Y-12507881D01*
X16421548Y-12526928D01*
X16412024Y-12536452D01*
X16392976Y-12545976D01*
X16373928Y-12545976D01*
X16354881Y-12536452D01*
X16345357Y-12526928D01*
X16335833Y-12507881D01*
X16326309Y-12469786D01*
X16326309Y-12422167D01*
X16335833Y-12384071D01*
X16345357Y-12365024D01*
X16354881Y-12355500D01*
X16373928Y-12345976D01*
X16564405Y-12345976D02*
X16583452Y-12345976D01*
X16602500Y-12355500D01*
X16612024Y-12365024D01*
X16621548Y-12384071D01*
X16631071Y-12422167D01*
X16631071Y-12469786D01*
X16621548Y-12507881D01*
X16612024Y-12526928D01*
X16602500Y-12536452D01*
X16583452Y-12545976D01*
X16564405Y-12545976D01*
X16545357Y-12536452D01*
X16535833Y-12526928D01*
X16526309Y-12507881D01*
X16516786Y-12469786D01*
X16516786Y-12422167D01*
X16526309Y-12384071D01*
X16535833Y-12365024D01*
X16545357Y-12355500D01*
X16564405Y-12345976D01*
X16754881Y-12345976D02*
X16773928Y-12345976D01*
X16792976Y-12355500D01*
X16802500Y-12365024D01*
X16812024Y-12384071D01*
X16821548Y-12422167D01*
X16821548Y-12469786D01*
X16812024Y-12507881D01*
X16802500Y-12526928D01*
X16792976Y-12536452D01*
X16773928Y-12545976D01*
X16754881Y-12545976D01*
X16735833Y-12536452D01*
X16726309Y-12526928D01*
X16716786Y-12507881D01*
X16707262Y-12469786D01*
X16707262Y-12422167D01*
X16716786Y-12384071D01*
X16726309Y-12365024D01*
X16735833Y-12355500D01*
X16754881Y-12345976D01*
X16907262Y-12545976D02*
X16907262Y-12412643D01*
X16907262Y-12431690D02*
X16916786Y-12422167D01*
X16935833Y-12412643D01*
X16964405Y-12412643D01*
X16983452Y-12422167D01*
X16992976Y-12441214D01*
X16992976Y-12545976D01*
X16992976Y-12441214D02*
X17002500Y-12422167D01*
X17021548Y-12412643D01*
X17050119Y-12412643D01*
X17069167Y-12422167D01*
X17078690Y-12441214D01*
X17078690Y-12545976D01*
X17173929Y-12545976D02*
X17173929Y-12412643D01*
X17173929Y-12431690D02*
X17183452Y-12422167D01*
X17202500Y-12412643D01*
X17231071Y-12412643D01*
X17250119Y-12422167D01*
X17259643Y-12441214D01*
X17259643Y-12545976D01*
X17259643Y-12441214D02*
X17269167Y-12422167D01*
X17288214Y-12412643D01*
X17316786Y-12412643D01*
X17335833Y-12422167D01*
X17345357Y-12441214D01*
X17345357Y-12545976D01*
X17735833Y-12336452D02*
X17564405Y-12593595D01*
X17992976Y-12345976D02*
X18012024Y-12345976D01*
X18031071Y-12355500D01*
X18040595Y-12365024D01*
X18050119Y-12384071D01*
X18059643Y-12422167D01*
X18059643Y-12469786D01*
X18050119Y-12507881D01*
X18040595Y-12526928D01*
X18031071Y-12536452D01*
X18012024Y-12545976D01*
X17992976Y-12545976D01*
X17973929Y-12536452D01*
X17964405Y-12526928D01*
X17954881Y-12507881D01*
X17945357Y-12469786D01*
X17945357Y-12422167D01*
X17954881Y-12384071D01*
X17964405Y-12365024D01*
X17973929Y-12355500D01*
X17992976Y-12345976D01*
X18145357Y-12526928D02*
X18154881Y-12536452D01*
X18145357Y-12545976D01*
X18135833Y-12536452D01*
X18145357Y-12526928D01*
X18145357Y-12545976D01*
X18345357Y-12545976D02*
X18231071Y-12545976D01*
X18288214Y-12545976D02*
X18288214Y-12345976D01*
X18269167Y-12374548D01*
X18250119Y-12393595D01*
X18231071Y-12403119D01*
X18535833Y-12545976D02*
X18421548Y-12545976D01*
X18478690Y-12545976D02*
X18478690Y-12345976D01*
X18459643Y-12374548D01*
X18440595Y-12393595D01*
X18421548Y-12403119D01*
X18650119Y-12431690D02*
X18631071Y-12422167D01*
X18621548Y-12412643D01*
X18612024Y-12393595D01*
X18612024Y-12384071D01*
X18621548Y-12365024D01*
X18631071Y-12355500D01*
X18650119Y-12345976D01*
X18688214Y-12345976D01*
X18707262Y-12355500D01*
X18716786Y-12365024D01*
X18726310Y-12384071D01*
X18726310Y-12393595D01*
X18716786Y-12412643D01*
X18707262Y-12422167D01*
X18688214Y-12431690D01*
X18650119Y-12431690D01*
X18631071Y-12441214D01*
X18621548Y-12450738D01*
X18612024Y-12469786D01*
X18612024Y-12507881D01*
X18621548Y-12526928D01*
X18631071Y-12536452D01*
X18650119Y-12545976D01*
X18688214Y-12545976D01*
X18707262Y-12536452D01*
X18716786Y-12526928D01*
X18726310Y-12507881D01*
X18726310Y-12469786D01*
X18716786Y-12450738D01*
X18707262Y-12441214D01*
X18688214Y-12431690D01*
X18916786Y-12545976D02*
X18802500Y-12545976D01*
X18859643Y-12545976D02*
X18859643Y-12345976D01*
X18840595Y-12374548D01*
X18821548Y-12393595D01*
X18802500Y-12403119D01*
X18992976Y-12345976D02*
X18992976Y-12384071D01*
X19069167Y-12345976D02*
X19069167Y-12384071D01*
X19364405Y-12622167D02*
X19354881Y-12612643D01*
X19335833Y-12584071D01*
X19326310Y-12565024D01*
X19316786Y-12536452D01*
X19307262Y-12488833D01*
X19307262Y-12450738D01*
X19316786Y-12403119D01*
X19326310Y-12374548D01*
X19335833Y-12355500D01*
X19354881Y-12326928D01*
X19364405Y-12317405D01*
X19526310Y-12412643D02*
X19526310Y-12545976D01*
X19478690Y-12336452D02*
X19431071Y-12479309D01*
X19554881Y-12479309D01*
X19659643Y-12431690D02*
X19640595Y-12422167D01*
X19631071Y-12412643D01*
X19621548Y-12393595D01*
X19621548Y-12384071D01*
X19631071Y-12365024D01*
X19640595Y-12355500D01*
X19659643Y-12345976D01*
X19697738Y-12345976D01*
X19716786Y-12355500D01*
X19726310Y-12365024D01*
X19735833Y-12384071D01*
X19735833Y-12393595D01*
X19726310Y-12412643D01*
X19716786Y-12422167D01*
X19697738Y-12431690D01*
X19659643Y-12431690D01*
X19640595Y-12441214D01*
X19631071Y-12450738D01*
X19621548Y-12469786D01*
X19621548Y-12507881D01*
X19631071Y-12526928D01*
X19640595Y-12536452D01*
X19659643Y-12545976D01*
X19697738Y-12545976D01*
X19716786Y-12536452D01*
X19726310Y-12526928D01*
X19735833Y-12507881D01*
X19735833Y-12469786D01*
X19726310Y-12450738D01*
X19716786Y-12441214D01*
X19697738Y-12431690D01*
X19973929Y-12545976D02*
X19973929Y-12345976D01*
X20059643Y-12545976D02*
X20059643Y-12441214D01*
X20050119Y-12422167D01*
X20031071Y-12412643D01*
X20002500Y-12412643D01*
X19983452Y-12422167D01*
X19973929Y-12431690D01*
X20183452Y-12545976D02*
X20164405Y-12536452D01*
X20154881Y-12526928D01*
X20145357Y-12507881D01*
X20145357Y-12450738D01*
X20154881Y-12431690D01*
X20164405Y-12422167D01*
X20183452Y-12412643D01*
X20212024Y-12412643D01*
X20231071Y-12422167D01*
X20240595Y-12431690D01*
X20250119Y-12450738D01*
X20250119Y-12507881D01*
X20240595Y-12526928D01*
X20231071Y-12536452D01*
X20212024Y-12545976D01*
X20183452Y-12545976D01*
X20364405Y-12545976D02*
X20345357Y-12536452D01*
X20335833Y-12517405D01*
X20335833Y-12345976D01*
X20516786Y-12536452D02*
X20497738Y-12545976D01*
X20459643Y-12545976D01*
X20440595Y-12536452D01*
X20431071Y-12517405D01*
X20431071Y-12441214D01*
X20440595Y-12422167D01*
X20459643Y-12412643D01*
X20497738Y-12412643D01*
X20516786Y-12422167D01*
X20526310Y-12441214D01*
X20526310Y-12460262D01*
X20431071Y-12479309D01*
X20602500Y-12536452D02*
X20621548Y-12545976D01*
X20659643Y-12545976D01*
X20678690Y-12536452D01*
X20688214Y-12517405D01*
X20688214Y-12507881D01*
X20678690Y-12488833D01*
X20659643Y-12479309D01*
X20631071Y-12479309D01*
X20612024Y-12469786D01*
X20602500Y-12450738D01*
X20602500Y-12441214D01*
X20612024Y-12422167D01*
X20631071Y-12412643D01*
X20659643Y-12412643D01*
X20678690Y-12422167D01*
X20754881Y-12622167D02*
X20764405Y-12612643D01*
X20783452Y-12584071D01*
X20792976Y-12565024D01*
X20802500Y-12536452D01*
X20812024Y-12488833D01*
X20812024Y-12450738D01*
X20802500Y-12403119D01*
X20792976Y-12374548D01*
X20783452Y-12355500D01*
X20764405Y-12326928D01*
X20754881Y-12317405D01*
X21116786Y-12622167D02*
X21107262Y-12612643D01*
X21088214Y-12584071D01*
X21078690Y-12565024D01*
X21069167Y-12536452D01*
X21059643Y-12488833D01*
X21059643Y-12450738D01*
X21069167Y-12403119D01*
X21078690Y-12374548D01*
X21088214Y-12355500D01*
X21107262Y-12326928D01*
X21116786Y-12317405D01*
X21192976Y-12412643D02*
X21192976Y-12545976D01*
X21192976Y-12431690D02*
X21202500Y-12422167D01*
X21221548Y-12412643D01*
X21250119Y-12412643D01*
X21269167Y-12422167D01*
X21278690Y-12441214D01*
X21278690Y-12545976D01*
X21402500Y-12545976D02*
X21383452Y-12536452D01*
X21373929Y-12526928D01*
X21364405Y-12507881D01*
X21364405Y-12450738D01*
X21373929Y-12431690D01*
X21383452Y-12422167D01*
X21402500Y-12412643D01*
X21431071Y-12412643D01*
X21450119Y-12422167D01*
X21459643Y-12431690D01*
X21469167Y-12450738D01*
X21469167Y-12507881D01*
X21459643Y-12526928D01*
X21450119Y-12536452D01*
X21431071Y-12545976D01*
X21402500Y-12545976D01*
X21526310Y-12412643D02*
X21602500Y-12412643D01*
X21554881Y-12345976D02*
X21554881Y-12517405D01*
X21564405Y-12536452D01*
X21583452Y-12545976D01*
X21602500Y-12545976D01*
X21821548Y-12412643D02*
X21821548Y-12612643D01*
X21821548Y-12422167D02*
X21840595Y-12412643D01*
X21878690Y-12412643D01*
X21897738Y-12422167D01*
X21907262Y-12431690D01*
X21916786Y-12450738D01*
X21916786Y-12507881D01*
X21907262Y-12526928D01*
X21897738Y-12536452D01*
X21878690Y-12545976D01*
X21840595Y-12545976D01*
X21821548Y-12536452D01*
X22031071Y-12545976D02*
X22012024Y-12536452D01*
X22002500Y-12517405D01*
X22002500Y-12345976D01*
X22192976Y-12545976D02*
X22192976Y-12441214D01*
X22183452Y-12422167D01*
X22164405Y-12412643D01*
X22126310Y-12412643D01*
X22107262Y-12422167D01*
X22192976Y-12536452D02*
X22173929Y-12545976D01*
X22126310Y-12545976D01*
X22107262Y-12536452D01*
X22097738Y-12517405D01*
X22097738Y-12498357D01*
X22107262Y-12479309D01*
X22126310Y-12469786D01*
X22173929Y-12469786D01*
X22192976Y-12460262D01*
X22259643Y-12412643D02*
X22335833Y-12412643D01*
X22288214Y-12345976D02*
X22288214Y-12517405D01*
X22297738Y-12536452D01*
X22316786Y-12545976D01*
X22335833Y-12545976D01*
X22478690Y-12536452D02*
X22459643Y-12545976D01*
X22421548Y-12545976D01*
X22402500Y-12536452D01*
X22392976Y-12517405D01*
X22392976Y-12441214D01*
X22402500Y-12422167D01*
X22421548Y-12412643D01*
X22459643Y-12412643D01*
X22478690Y-12422167D01*
X22488214Y-12441214D01*
X22488214Y-12460262D01*
X22392976Y-12479309D01*
X22659643Y-12545976D02*
X22659643Y-12345976D01*
X22659643Y-12536452D02*
X22640595Y-12545976D01*
X22602500Y-12545976D01*
X22583452Y-12536452D01*
X22573928Y-12526928D01*
X22564405Y-12507881D01*
X22564405Y-12450738D01*
X22573928Y-12431690D01*
X22583452Y-12422167D01*
X22602500Y-12412643D01*
X22640595Y-12412643D01*
X22659643Y-12422167D01*
X22735833Y-12622167D02*
X22745357Y-12612643D01*
X22764405Y-12584071D01*
X22773928Y-12565024D01*
X22783452Y-12536452D01*
X22792976Y-12488833D01*
X22792976Y-12450738D01*
X22783452Y-12403119D01*
X22773928Y-12374548D01*
X22764405Y-12355500D01*
X22745357Y-12326928D01*
X22735833Y-12317405D01*
X15692500Y-12875500D02*
X15792500Y-12775500D01*
X15692500Y-12675500D01*
X15592500Y-12775500D01*
X15692500Y-12875500D01*
X16031071Y-12665976D02*
X16154881Y-12665976D01*
X16088214Y-12742167D01*
X16116786Y-12742167D01*
X16135833Y-12751690D01*
X16145357Y-12761214D01*
X16154881Y-12780262D01*
X16154881Y-12827881D01*
X16145357Y-12846928D01*
X16135833Y-12856452D01*
X16116786Y-12865976D01*
X16059643Y-12865976D01*
X16040595Y-12856452D01*
X16031071Y-12846928D01*
X16240595Y-12846928D02*
X16250119Y-12856452D01*
X16240595Y-12865976D01*
X16231071Y-12856452D01*
X16240595Y-12846928D01*
X16240595Y-12865976D01*
X16421548Y-12732643D02*
X16421548Y-12865976D01*
X16373928Y-12656452D02*
X16326309Y-12799309D01*
X16450119Y-12799309D01*
X16564405Y-12665976D02*
X16583452Y-12665976D01*
X16602500Y-12675500D01*
X16612024Y-12685024D01*
X16621548Y-12704071D01*
X16631071Y-12742167D01*
X16631071Y-12789786D01*
X16621548Y-12827881D01*
X16612024Y-12846928D01*
X16602500Y-12856452D01*
X16583452Y-12865976D01*
X16564405Y-12865976D01*
X16545357Y-12856452D01*
X16535833Y-12846928D01*
X16526309Y-12827881D01*
X16516786Y-12789786D01*
X16516786Y-12742167D01*
X16526309Y-12704071D01*
X16535833Y-12685024D01*
X16545357Y-12675500D01*
X16564405Y-12665976D01*
X16754881Y-12665976D02*
X16773928Y-12665976D01*
X16792976Y-12675500D01*
X16802500Y-12685024D01*
X16812024Y-12704071D01*
X16821548Y-12742167D01*
X16821548Y-12789786D01*
X16812024Y-12827881D01*
X16802500Y-12846928D01*
X16792976Y-12856452D01*
X16773928Y-12865976D01*
X16754881Y-12865976D01*
X16735833Y-12856452D01*
X16726309Y-12846928D01*
X16716786Y-12827881D01*
X16707262Y-12789786D01*
X16707262Y-12742167D01*
X16716786Y-12704071D01*
X16726309Y-12685024D01*
X16735833Y-12675500D01*
X16754881Y-12665976D01*
X16907262Y-12865976D02*
X16907262Y-12732643D01*
X16907262Y-12751690D02*
X16916786Y-12742167D01*
X16935833Y-12732643D01*
X16964405Y-12732643D01*
X16983452Y-12742167D01*
X16992976Y-12761214D01*
X16992976Y-12865976D01*
X16992976Y-12761214D02*
X17002500Y-12742167D01*
X17021548Y-12732643D01*
X17050119Y-12732643D01*
X17069167Y-12742167D01*
X17078690Y-12761214D01*
X17078690Y-12865976D01*
X17173929Y-12865976D02*
X17173929Y-12732643D01*
X17173929Y-12751690D02*
X17183452Y-12742167D01*
X17202500Y-12732643D01*
X17231071Y-12732643D01*
X17250119Y-12742167D01*
X17259643Y-12761214D01*
X17259643Y-12865976D01*
X17259643Y-12761214D02*
X17269167Y-12742167D01*
X17288214Y-12732643D01*
X17316786Y-12732643D01*
X17335833Y-12742167D01*
X17345357Y-12761214D01*
X17345357Y-12865976D01*
X17735833Y-12656452D02*
X17564405Y-12913595D01*
X17992976Y-12665976D02*
X18012024Y-12665976D01*
X18031071Y-12675500D01*
X18040595Y-12685024D01*
X18050119Y-12704071D01*
X18059643Y-12742167D01*
X18059643Y-12789786D01*
X18050119Y-12827881D01*
X18040595Y-12846928D01*
X18031071Y-12856452D01*
X18012024Y-12865976D01*
X17992976Y-12865976D01*
X17973929Y-12856452D01*
X17964405Y-12846928D01*
X17954881Y-12827881D01*
X17945357Y-12789786D01*
X17945357Y-12742167D01*
X17954881Y-12704071D01*
X17964405Y-12685024D01*
X17973929Y-12675500D01*
X17992976Y-12665976D01*
X18145357Y-12846928D02*
X18154881Y-12856452D01*
X18145357Y-12865976D01*
X18135833Y-12856452D01*
X18145357Y-12846928D01*
X18145357Y-12865976D01*
X18345357Y-12865976D02*
X18231071Y-12865976D01*
X18288214Y-12865976D02*
X18288214Y-12665976D01*
X18269167Y-12694548D01*
X18250119Y-12713595D01*
X18231071Y-12723119D01*
X18412024Y-12665976D02*
X18535833Y-12665976D01*
X18469167Y-12742167D01*
X18497738Y-12742167D01*
X18516786Y-12751690D01*
X18526310Y-12761214D01*
X18535833Y-12780262D01*
X18535833Y-12827881D01*
X18526310Y-12846928D01*
X18516786Y-12856452D01*
X18497738Y-12865976D01*
X18440595Y-12865976D01*
X18421548Y-12856452D01*
X18412024Y-12846928D01*
X18602500Y-12665976D02*
X18726310Y-12665976D01*
X18659643Y-12742167D01*
X18688214Y-12742167D01*
X18707262Y-12751690D01*
X18716786Y-12761214D01*
X18726310Y-12780262D01*
X18726310Y-12827881D01*
X18716786Y-12846928D01*
X18707262Y-12856452D01*
X18688214Y-12865976D01*
X18631071Y-12865976D01*
X18612024Y-12856452D01*
X18602500Y-12846928D01*
X18821548Y-12865976D02*
X18859643Y-12865976D01*
X18878690Y-12856452D01*
X18888214Y-12846928D01*
X18907262Y-12818357D01*
X18916786Y-12780262D01*
X18916786Y-12704071D01*
X18907262Y-12685024D01*
X18897738Y-12675500D01*
X18878690Y-12665976D01*
X18840595Y-12665976D01*
X18821548Y-12675500D01*
X18812024Y-12685024D01*
X18802500Y-12704071D01*
X18802500Y-12751690D01*
X18812024Y-12770738D01*
X18821548Y-12780262D01*
X18840595Y-12789786D01*
X18878690Y-12789786D01*
X18897738Y-12780262D01*
X18907262Y-12770738D01*
X18916786Y-12751690D01*
X18992976Y-12665976D02*
X18992976Y-12704071D01*
X19069167Y-12665976D02*
X19069167Y-12704071D01*
X19364405Y-12942167D02*
X19354881Y-12932643D01*
X19335833Y-12904071D01*
X19326310Y-12885024D01*
X19316786Y-12856452D01*
X19307262Y-12808833D01*
X19307262Y-12770738D01*
X19316786Y-12723119D01*
X19326310Y-12694548D01*
X19335833Y-12675500D01*
X19354881Y-12646928D01*
X19364405Y-12637405D01*
X19431071Y-12685024D02*
X19440595Y-12675500D01*
X19459643Y-12665976D01*
X19507262Y-12665976D01*
X19526310Y-12675500D01*
X19535833Y-12685024D01*
X19545357Y-12704071D01*
X19545357Y-12723119D01*
X19535833Y-12751690D01*
X19421548Y-12865976D01*
X19545357Y-12865976D01*
X19716786Y-12732643D02*
X19716786Y-12865976D01*
X19669167Y-12656452D02*
X19621548Y-12799309D01*
X19745357Y-12799309D01*
X19973929Y-12865976D02*
X19973929Y-12665976D01*
X20059643Y-12865976D02*
X20059643Y-12761214D01*
X20050119Y-12742167D01*
X20031071Y-12732643D01*
X20002500Y-12732643D01*
X19983452Y-12742167D01*
X19973929Y-12751690D01*
X20183452Y-12865976D02*
X20164405Y-12856452D01*
X20154881Y-12846928D01*
X20145357Y-12827881D01*
X20145357Y-12770738D01*
X20154881Y-12751690D01*
X20164405Y-12742167D01*
X20183452Y-12732643D01*
X20212024Y-12732643D01*
X20231071Y-12742167D01*
X20240595Y-12751690D01*
X20250119Y-12770738D01*
X20250119Y-12827881D01*
X20240595Y-12846928D01*
X20231071Y-12856452D01*
X20212024Y-12865976D01*
X20183452Y-12865976D01*
X20364405Y-12865976D02*
X20345357Y-12856452D01*
X20335833Y-12837405D01*
X20335833Y-12665976D01*
X20516786Y-12856452D02*
X20497738Y-12865976D01*
X20459643Y-12865976D01*
X20440595Y-12856452D01*
X20431071Y-12837405D01*
X20431071Y-12761214D01*
X20440595Y-12742167D01*
X20459643Y-12732643D01*
X20497738Y-12732643D01*
X20516786Y-12742167D01*
X20526310Y-12761214D01*
X20526310Y-12780262D01*
X20431071Y-12799309D01*
X20602500Y-12856452D02*
X20621548Y-12865976D01*
X20659643Y-12865976D01*
X20678690Y-12856452D01*
X20688214Y-12837405D01*
X20688214Y-12827881D01*
X20678690Y-12808833D01*
X20659643Y-12799309D01*
X20631071Y-12799309D01*
X20612024Y-12789786D01*
X20602500Y-12770738D01*
X20602500Y-12761214D01*
X20612024Y-12742167D01*
X20631071Y-12732643D01*
X20659643Y-12732643D01*
X20678690Y-12742167D01*
X20754881Y-12942167D02*
X20764405Y-12932643D01*
X20783452Y-12904071D01*
X20792976Y-12885024D01*
X20802500Y-12856452D01*
X20812024Y-12808833D01*
X20812024Y-12770738D01*
X20802500Y-12723119D01*
X20792976Y-12694548D01*
X20783452Y-12675500D01*
X20764405Y-12646928D01*
X20754881Y-12637405D01*
X21116786Y-12942167D02*
X21107262Y-12932643D01*
X21088214Y-12904071D01*
X21078690Y-12885024D01*
X21069167Y-12856452D01*
X21059643Y-12808833D01*
X21059643Y-12770738D01*
X21069167Y-12723119D01*
X21078690Y-12694548D01*
X21088214Y-12675500D01*
X21107262Y-12646928D01*
X21116786Y-12637405D01*
X21192976Y-12732643D02*
X21192976Y-12865976D01*
X21192976Y-12751690D02*
X21202500Y-12742167D01*
X21221548Y-12732643D01*
X21250119Y-12732643D01*
X21269167Y-12742167D01*
X21278690Y-12761214D01*
X21278690Y-12865976D01*
X21402500Y-12865976D02*
X21383452Y-12856452D01*
X21373929Y-12846928D01*
X21364405Y-12827881D01*
X21364405Y-12770738D01*
X21373929Y-12751690D01*
X21383452Y-12742167D01*
X21402500Y-12732643D01*
X21431071Y-12732643D01*
X21450119Y-12742167D01*
X21459643Y-12751690D01*
X21469167Y-12770738D01*
X21469167Y-12827881D01*
X21459643Y-12846928D01*
X21450119Y-12856452D01*
X21431071Y-12865976D01*
X21402500Y-12865976D01*
X21526310Y-12732643D02*
X21602500Y-12732643D01*
X21554881Y-12665976D02*
X21554881Y-12837405D01*
X21564405Y-12856452D01*
X21583452Y-12865976D01*
X21602500Y-12865976D01*
X21821548Y-12732643D02*
X21821548Y-12932643D01*
X21821548Y-12742167D02*
X21840595Y-12732643D01*
X21878690Y-12732643D01*
X21897738Y-12742167D01*
X21907262Y-12751690D01*
X21916786Y-12770738D01*
X21916786Y-12827881D01*
X21907262Y-12846928D01*
X21897738Y-12856452D01*
X21878690Y-12865976D01*
X21840595Y-12865976D01*
X21821548Y-12856452D01*
X22031071Y-12865976D02*
X22012024Y-12856452D01*
X22002500Y-12837405D01*
X22002500Y-12665976D01*
X22192976Y-12865976D02*
X22192976Y-12761214D01*
X22183452Y-12742167D01*
X22164405Y-12732643D01*
X22126310Y-12732643D01*
X22107262Y-12742167D01*
X22192976Y-12856452D02*
X22173929Y-12865976D01*
X22126310Y-12865976D01*
X22107262Y-12856452D01*
X22097738Y-12837405D01*
X22097738Y-12818357D01*
X22107262Y-12799309D01*
X22126310Y-12789786D01*
X22173929Y-12789786D01*
X22192976Y-12780262D01*
X22259643Y-12732643D02*
X22335833Y-12732643D01*
X22288214Y-12665976D02*
X22288214Y-12837405D01*
X22297738Y-12856452D01*
X22316786Y-12865976D01*
X22335833Y-12865976D01*
X22478690Y-12856452D02*
X22459643Y-12865976D01*
X22421548Y-12865976D01*
X22402500Y-12856452D01*
X22392976Y-12837405D01*
X22392976Y-12761214D01*
X22402500Y-12742167D01*
X22421548Y-12732643D01*
X22459643Y-12732643D01*
X22478690Y-12742167D01*
X22488214Y-12761214D01*
X22488214Y-12780262D01*
X22392976Y-12799309D01*
X22659643Y-12865976D02*
X22659643Y-12665976D01*
X22659643Y-12856452D02*
X22640595Y-12865976D01*
X22602500Y-12865976D01*
X22583452Y-12856452D01*
X22573928Y-12846928D01*
X22564405Y-12827881D01*
X22564405Y-12770738D01*
X22573928Y-12751690D01*
X22583452Y-12742167D01*
X22602500Y-12732643D01*
X22640595Y-12732643D01*
X22659643Y-12742167D01*
X22735833Y-12942167D02*
X22745357Y-12932643D01*
X22764405Y-12904071D01*
X22773928Y-12885024D01*
X22783452Y-12856452D01*
X22792976Y-12808833D01*
X22792976Y-12770738D01*
X22783452Y-12723119D01*
X22773928Y-12694548D01*
X22764405Y-12675500D01*
X22745357Y-12646928D01*
X22735833Y-12637405D01*
M02*
