%TF.GenerationSoftware,KiCad,Pcbnew,(5.99.0-12766-g4a3658027e)*%
%TF.CreationDate,2021-12-04T14:11:47+09:00*%
%TF.ProjectId,right,72696768-742e-46b6-9963-61645f706362,rev?*%
%TF.SameCoordinates,Original*%
%TF.FileFunction,Paste,Bot*%
%TF.FilePolarity,Positive*%
%FSLAX46Y46*%
G04 Gerber Fmt 4.6, Leading zero omitted, Abs format (unit mm)*
G04 Created by KiCad (PCBNEW (5.99.0-12766-g4a3658027e)) date 2021-12-04 14:11:47*
%MOMM*%
%LPD*%
G01*
G04 APERTURE LIST*
%ADD10R,2.600000X2.600000*%
%ADD11R,1.950000X2.600000*%
G04 APERTURE END LIST*
D10*
%TO.C,SW24*%
X190700000Y-27250000D03*
D11*
X202000000Y-29450000D03*
%TD*%
D10*
%TO.C,SW25*%
X190700000Y-44250000D03*
D11*
X202000000Y-46450000D03*
%TD*%
D10*
%TO.C,SW26*%
X190700000Y-61250000D03*
D11*
X202000000Y-63450000D03*
%TD*%
D10*
%TO.C,SW28*%
X226700000Y-95250000D03*
D11*
X238000000Y-97450000D03*
%TD*%
D10*
%TO.C,SW29*%
X208700000Y-27250000D03*
D11*
X220000000Y-29450000D03*
%TD*%
D10*
%TO.C,SW30*%
X208700000Y-44250000D03*
D11*
X220000000Y-46450000D03*
%TD*%
D10*
%TO.C,SW31*%
X208700000Y-61250000D03*
D11*
X220000000Y-63450000D03*
%TD*%
D10*
%TO.C,SW33*%
X244700000Y-78250000D03*
D11*
X256000000Y-80450000D03*
%TD*%
D10*
%TO.C,SW34*%
X226700000Y-20250000D03*
D11*
X238000000Y-22450000D03*
%TD*%
D10*
%TO.C,SW35*%
X226700000Y-37250000D03*
D11*
X238000000Y-39450000D03*
%TD*%
D10*
%TO.C,SW36*%
X226700000Y-54250000D03*
D11*
X238000000Y-56450000D03*
%TD*%
D10*
%TO.C,SW38*%
X244700000Y-95250000D03*
D11*
X256000000Y-97450000D03*
%TD*%
D10*
%TO.C,SW39*%
X244700000Y-22250000D03*
D11*
X256000000Y-24450000D03*
%TD*%
D10*
%TO.C,SW40*%
X244700000Y-39250000D03*
D11*
X256000000Y-41450000D03*
%TD*%
D10*
%TO.C,SW41*%
X244700000Y-56250000D03*
D11*
X256000000Y-58450000D03*
%TD*%
D10*
%TO.C,SW43*%
X262700000Y-34250000D03*
D11*
X274000000Y-36450000D03*
%TD*%
D10*
%TO.C,SW44*%
X262700000Y-51250000D03*
D11*
X274000000Y-53450000D03*
%TD*%
D10*
%TO.C,SW45*%
X262700000Y-68250000D03*
D11*
X274000000Y-70450000D03*
%TD*%
D10*
%TO.C,SW37*%
X190700000Y-78250000D03*
D11*
X202000000Y-80450000D03*
%TD*%
D10*
%TO.C,SW42*%
X208700000Y-78250000D03*
D11*
X220000000Y-80450000D03*
%TD*%
D10*
%TO.C,SW32*%
X172700000Y-78250000D03*
D11*
X184000000Y-80450000D03*
%TD*%
D10*
%TO.C,SW27*%
X163700000Y-95250000D03*
D11*
X175000000Y-97450000D03*
%TD*%
D10*
%TO.C,SW46*%
X226700000Y-71250000D03*
D11*
X238000000Y-73450000D03*
%TD*%
D10*
%TO.C,SW50*%
X262700000Y-95250000D03*
D11*
X274000000Y-97450000D03*
%TD*%
M02*
