%TF.GenerationSoftware,KiCad,Pcbnew,(5.99.0-12766-g4a3658027e)*%
%TF.CreationDate,2021-12-04T14:11:47+09:00*%
%TF.ProjectId,right,72696768-742e-46b6-9963-61645f706362,rev?*%
%TF.SameCoordinates,Original*%
%TF.FileFunction,Copper,L1,Top*%
%TF.FilePolarity,Positive*%
%FSLAX46Y46*%
G04 Gerber Fmt 4.6, Leading zero omitted, Abs format (unit mm)*
G04 Created by KiCad (PCBNEW (5.99.0-12766-g4a3658027e)) date 2021-12-04 14:11:47*
%MOMM*%
%LPD*%
G01*
G04 APERTURE LIST*
%TA.AperFunction,ComponentPad*%
%ADD10R,1.600000X1.600000*%
%TD*%
%TA.AperFunction,ComponentPad*%
%ADD11O,1.600000X1.600000*%
%TD*%
%TA.AperFunction,ComponentPad*%
%ADD12C,1.600000*%
%TD*%
%TA.AperFunction,ComponentPad*%
%ADD13C,2.000000*%
%TD*%
%TA.AperFunction,ComponentPad*%
%ADD14C,1.524000*%
%TD*%
%TA.AperFunction,ComponentPad*%
%ADD15C,5.700000*%
%TD*%
%TA.AperFunction,SMDPad,CuDef*%
%ADD16R,1.300000X0.450000*%
%TD*%
%TA.AperFunction,ComponentPad*%
%ADD17O,1.800000X1.150000*%
%TD*%
%TA.AperFunction,ComponentPad*%
%ADD18O,2.000000X1.450000*%
%TD*%
%TA.AperFunction,ViaPad*%
%ADD19C,0.800000*%
%TD*%
%TA.AperFunction,Conductor*%
%ADD20C,0.200000*%
%TD*%
G04 APERTURE END LIST*
D10*
%TO.P,D24,1,K*%
%TO.N,/rrow0*%
X265750000Y-20500000D03*
D11*
%TO.P,D24,2,A*%
%TO.N,Net-(D24-Pad2)*%
X258130000Y-20500000D03*
%TD*%
D10*
%TO.P,D27,1,K*%
%TO.N,/rrow3*%
X185000000Y-96250000D03*
D11*
%TO.P,D27,2,A*%
%TO.N,Net-(D27-Pad2)*%
X192620000Y-96250000D03*
%TD*%
D10*
%TO.P,D28,1,K*%
%TO.N,/rrow4*%
X265750000Y-84000000D03*
D11*
%TO.P,D28,2,A*%
%TO.N,Net-(D28-Pad2)*%
X258130000Y-84000000D03*
%TD*%
D10*
%TO.P,D29,1,K*%
%TO.N,/rrow0*%
X265750000Y-23000000D03*
D11*
%TO.P,D29,2,A*%
%TO.N,Net-(D29-Pad2)*%
X258130000Y-23000000D03*
%TD*%
D10*
%TO.P,D30,1,K*%
%TO.N,/rrow1*%
X204500000Y-98750000D03*
D11*
%TO.P,D30,2,A*%
%TO.N,Net-(D30-Pad2)*%
X212120000Y-98750000D03*
%TD*%
D10*
%TO.P,D32,1,K*%
%TO.N,/rrow3*%
X185000000Y-98750000D03*
D11*
%TO.P,D32,2,A*%
%TO.N,Net-(D32-Pad2)*%
X192620000Y-98750000D03*
%TD*%
D10*
%TO.P,D34,1,K*%
%TO.N,/rrow0*%
X265750000Y-25500000D03*
D11*
%TO.P,D34,2,A*%
%TO.N,Net-(D34-Pad2)*%
X258130000Y-25500000D03*
%TD*%
D10*
%TO.P,D35,1,K*%
%TO.N,/rrow1*%
X204500000Y-101250000D03*
D11*
%TO.P,D35,2,A*%
%TO.N,Net-(D35-Pad2)*%
X212120000Y-101250000D03*
%TD*%
D10*
%TO.P,D38,1,K*%
%TO.N,/rrow4*%
X265750000Y-86500000D03*
D11*
%TO.P,D38,2,A*%
%TO.N,Net-(D38-Pad2)*%
X258130000Y-86500000D03*
%TD*%
D10*
%TO.P,D40,1,K*%
%TO.N,/rrow1*%
X204500000Y-103750000D03*
D11*
%TO.P,D40,2,A*%
%TO.N,Net-(D40-Pad2)*%
X212120000Y-103750000D03*
%TD*%
D10*
%TO.P,D41,1,K*%
%TO.N,/rrow2*%
X194750000Y-103750000D03*
D11*
%TO.P,D41,2,A*%
%TO.N,Net-(D41-Pad2)*%
X202370000Y-103750000D03*
%TD*%
D10*
%TO.P,D42,1,K*%
%TO.N,/rrow3*%
X185000000Y-103750000D03*
D11*
%TO.P,D42,2,A*%
%TO.N,Net-(D42-Pad2)*%
X192620000Y-103750000D03*
%TD*%
D10*
%TO.P,D43,1,K*%
%TO.N,/rrow0*%
X265750000Y-30500000D03*
D11*
%TO.P,D43,2,A*%
%TO.N,Net-(D43-Pad2)*%
X258130000Y-30500000D03*
%TD*%
D10*
%TO.P,D44,1,K*%
%TO.N,/rrow1*%
X204500000Y-106250000D03*
D11*
%TO.P,D44,2,A*%
%TO.N,Net-(D44-Pad2)*%
X212120000Y-106250000D03*
%TD*%
D10*
%TO.P,D45,1,K*%
%TO.N,/rrow2*%
X194750000Y-106250000D03*
D11*
%TO.P,D45,2,A*%
%TO.N,Net-(D45-Pad2)*%
X202370000Y-106250000D03*
%TD*%
D12*
%TO.P,R3,1*%
%TO.N,/rSCL*%
X178000000Y-100500000D03*
D11*
%TO.P,R3,2*%
%TO.N,+5V*%
X178000000Y-108120000D03*
%TD*%
D13*
%TO.P,SW48,1,1*%
%TO.N,/rRST*%
X176000000Y-74000000D03*
X182500000Y-74000000D03*
%TO.P,SW48,2,2*%
%TO.N,GND*%
X176000000Y-69500000D03*
X182500000Y-69500000D03*
%TD*%
D14*
%TO.P,U2,1,TX0/D3*%
%TO.N,/rLED*%
X183361400Y-28772000D03*
%TO.P,U2,2,RX1/D2*%
%TO.N,unconnected-(U2-Pad2)*%
X183361400Y-31312000D03*
%TO.P,U2,3,GND*%
%TO.N,GND*%
X183361400Y-33852000D03*
%TO.P,U2,4,GND*%
X183361400Y-36392000D03*
%TO.P,U2,5,2/D1/SDA*%
%TO.N,/rSDA*%
X183361400Y-38932000D03*
%TO.P,U2,6,3/D0/SCL*%
%TO.N,/rSCL*%
X183361400Y-41472000D03*
%TO.P,U2,7,4/D4*%
%TO.N,/rcol0*%
X183361400Y-44012000D03*
%TO.P,U2,8,5/C6*%
%TO.N,/rcol1*%
X183361400Y-46552000D03*
%TO.P,U2,9,6/D7*%
%TO.N,/rcol2*%
X183361400Y-49092000D03*
%TO.P,U2,10,7/E6*%
%TO.N,/rcol3*%
X183361400Y-51632000D03*
%TO.P,U2,11,8/B4*%
%TO.N,/rcol4*%
X183361400Y-54172000D03*
%TO.P,U2,12,9/B5*%
%TO.N,/rbuzzer*%
X183361400Y-56712000D03*
%TO.P,U2,13,B6/10*%
%TO.N,unconnected-(U2-Pad13)*%
X168141400Y-56712000D03*
%TO.P,U2,14,B2/16*%
%TO.N,unconnected-(U2-Pad14)*%
X168141400Y-54172000D03*
%TO.P,U2,15,B3/14*%
%TO.N,unconnected-(U2-Pad15)*%
X168141400Y-51632000D03*
%TO.P,U2,16,B1/15*%
%TO.N,/rrow4*%
X168141400Y-49092000D03*
%TO.P,U2,17,F7/A0*%
%TO.N,/rrow3*%
X168141400Y-46552000D03*
%TO.P,U2,18,F6/A1*%
%TO.N,/rrow2*%
X168141400Y-44012000D03*
%TO.P,U2,19,F5/A2*%
%TO.N,/rrow1*%
X168141400Y-41472000D03*
%TO.P,U2,20,F4/A3*%
%TO.N,/rrow0*%
X168141400Y-38932000D03*
%TO.P,U2,21,VCC*%
%TO.N,+5V*%
X168141400Y-36392000D03*
%TO.P,U2,22,RST*%
%TO.N,/rRST*%
X168141400Y-33852000D03*
%TO.P,U2,23,GND*%
%TO.N,GND*%
X168141400Y-31312000D03*
%TO.P,U2,24,RAW*%
%TO.N,unconnected-(U2-Pad24)*%
X168141400Y-28772000D03*
%TD*%
D10*
%TO.P,D25,1,K*%
%TO.N,/rrow1*%
X204500000Y-96250000D03*
D11*
%TO.P,D25,2,A*%
%TO.N,Net-(D25-Pad2)*%
X212120000Y-96250000D03*
%TD*%
D10*
%TO.P,D26,1,K*%
%TO.N,/rrow2*%
X194750000Y-96250000D03*
D11*
%TO.P,D26,2,A*%
%TO.N,Net-(D26-Pad2)*%
X202370000Y-96250000D03*
%TD*%
D10*
%TO.P,D31,1,K*%
%TO.N,/rrow2*%
X194750000Y-98750000D03*
D11*
%TO.P,D31,2,A*%
%TO.N,Net-(D31-Pad2)*%
X202370000Y-98750000D03*
%TD*%
D10*
%TO.P,D33,1,K*%
%TO.N,/rrow4*%
X265750000Y-89000000D03*
D11*
%TO.P,D33,2,A*%
%TO.N,Net-(D33-Pad2)*%
X258130000Y-89000000D03*
%TD*%
D10*
%TO.P,D36,1,K*%
%TO.N,/rrow2*%
X194750000Y-101250000D03*
D11*
%TO.P,D36,2,A*%
%TO.N,Net-(D36-Pad2)*%
X202370000Y-101250000D03*
%TD*%
D10*
%TO.P,D37,1,K*%
%TO.N,/rrow3*%
X185000000Y-101250000D03*
D11*
%TO.P,D37,2,A*%
%TO.N,Net-(D37-Pad2)*%
X192620000Y-101250000D03*
%TD*%
D10*
%TO.P,D39,1,K*%
%TO.N,/rrow0*%
X265750000Y-28000000D03*
D11*
%TO.P,D39,2,A*%
%TO.N,Net-(D39-Pad2)*%
X258130000Y-28000000D03*
%TD*%
D10*
%TO.P,D46,1,K*%
%TO.N,/rrow3*%
X185000000Y-106250000D03*
D11*
%TO.P,D46,2,A*%
%TO.N,Net-(D46-Pad2)*%
X192620000Y-106250000D03*
%TD*%
D12*
%TO.P,R4,1*%
%TO.N,/rSDA*%
X181000000Y-100500000D03*
D11*
%TO.P,R4,2*%
%TO.N,+5V*%
X181000000Y-108120000D03*
%TD*%
D15*
%TO.P,H15,1,1*%
%TO.N,GND*%
X270250000Y-22500000D03*
%TD*%
D10*
%TO.P,D48,1,K*%
%TO.N,/rrow4*%
X265750000Y-91500000D03*
D11*
%TO.P,D48,2,A*%
%TO.N,Net-(D48-Pad2)*%
X258130000Y-91500000D03*
%TD*%
D15*
%TO.P,H10,1,1*%
%TO.N,GND*%
X271750000Y-87750000D03*
%TD*%
%TO.P,H11,1,1*%
%TO.N,GND*%
X179250000Y-96000000D03*
%TD*%
%TO.P,H14,1,1*%
%TO.N,GND*%
X217750000Y-96000000D03*
%TD*%
D16*
%TO.P,J2,1,VBUS*%
%TO.N,+5V*%
X172650000Y-62200000D03*
%TO.P,J2,2,D-*%
%TO.N,/rSDA*%
X172650000Y-62850000D03*
%TO.P,J2,3,D+*%
%TO.N,/rSCL*%
X172650000Y-63500000D03*
%TO.P,J2,4,ID*%
%TO.N,unconnected-(J2-Pad4)*%
X172650000Y-64150000D03*
%TO.P,J2,5,GND*%
%TO.N,GND*%
X172650000Y-64800000D03*
D17*
%TO.P,J2,6,Shield*%
X168800000Y-59625000D03*
D18*
X172600000Y-59775000D03*
D17*
X168800000Y-67375000D03*
D18*
X172600000Y-67225000D03*
%TD*%
D15*
%TO.P,H13,1,1*%
%TO.N,GND*%
X235750000Y-89250000D03*
%TD*%
D10*
%TO.P,BZ2,1,-*%
%TO.N,/rbuzzer*%
X181500000Y-63000000D03*
D12*
%TO.P,BZ2,2,+*%
%TO.N,GND*%
X177500000Y-63000000D03*
%TD*%
D15*
%TO.P,H9,1,1*%
%TO.N,GND*%
X217750000Y-21500000D03*
%TD*%
%TO.P,H12,1,1*%
%TO.N,GND*%
X194500000Y-21500000D03*
%TD*%
D12*
%TO.P,C4,1*%
%TO.N,+5V*%
X173250000Y-70500000D03*
%TO.P,C4,2*%
%TO.N,GND*%
X168250000Y-70500000D03*
%TD*%
%TO.P,C3,1*%
%TO.N,+5V*%
X173250000Y-73500000D03*
%TO.P,C3,2*%
%TO.N,GND*%
X168250000Y-73500000D03*
%TD*%
D19*
%TO.N,Net-(D25-Pad2)*%
X209788900Y-93169000D03*
%TO.N,Net-(D27-Pad2)*%
X187158300Y-96206300D03*
%TO.N,Net-(D42-Pad2)*%
X213859300Y-89359500D03*
X200081300Y-96170300D03*
%TO.N,Net-(D45-Pad2)*%
X227302700Y-107350400D03*
%TO.N,/rcol1*%
X241670400Y-77195500D03*
X208700000Y-57735100D03*
%TO.N,/rcol2*%
X252618800Y-87331200D03*
X226675100Y-52347400D03*
%TO.N,/rcol3*%
X206908500Y-56234000D03*
X244075400Y-62664500D03*
X254893200Y-75560900D03*
%TO.N,/rcol4*%
X224776600Y-71636800D03*
%TD*%
D20*
%TO.N,GND*%
X167599700Y-67737600D02*
X167599700Y-67375000D01*
X231500000Y-23750000D02*
X232250000Y-24500000D01*
X253722200Y-89250000D02*
X255222200Y-87750000D01*
X220750000Y-24500000D02*
X227750000Y-24500000D01*
X170000300Y-59775000D02*
X171299700Y-59775000D01*
X251768700Y-21899600D02*
X269649600Y-21899600D01*
X227750000Y-24500000D02*
X228500000Y-23750000D01*
X172600000Y-67225000D02*
X172600000Y-66199700D01*
X170000300Y-59775000D02*
X170000300Y-67375000D01*
X217750000Y-21500000D02*
X220750000Y-24500000D01*
X194500000Y-22713400D02*
X194500000Y-21500000D01*
X172600000Y-59775000D02*
X171299700Y-59775000D01*
X168800000Y-67375000D02*
X170000300Y-67375000D01*
X168249900Y-68387800D02*
X167599700Y-67737600D01*
X168800000Y-67375000D02*
X167599700Y-67375000D01*
X232250000Y-24500000D02*
X249168300Y-24500000D01*
X168250000Y-68387800D02*
X168249900Y-68387800D01*
X172600000Y-66199700D02*
X172650000Y-66149700D01*
X168800000Y-59625000D02*
X170000300Y-59625000D01*
X168250000Y-70500000D02*
X168250000Y-68387800D01*
X194500000Y-21500000D02*
X217750000Y-21500000D01*
X228500000Y-23750000D02*
X231500000Y-23750000D01*
X180642500Y-97392500D02*
X216357500Y-97392500D01*
X172650000Y-66149700D02*
X172650000Y-64800000D01*
X179250000Y-96000000D02*
X180642500Y-97392500D01*
X183361400Y-33852000D02*
X194500000Y-22713400D01*
X216357500Y-97392500D02*
X217750000Y-96000000D01*
X249168300Y-24500000D02*
X251768700Y-21899600D01*
X170000300Y-59625000D02*
X170000300Y-59775000D01*
X255222200Y-87750000D02*
X271750000Y-87750000D01*
X182500000Y-69500000D02*
X176000000Y-69500000D01*
X235750000Y-89250000D02*
X253722200Y-89250000D01*
X269649600Y-21899600D02*
X270250000Y-22500000D01*
%TO.N,+5V*%
X173250000Y-96032900D02*
X175588600Y-98371500D01*
X170828700Y-63071000D02*
X171699700Y-62200000D01*
X179349500Y-107569800D02*
X179899700Y-108120000D01*
X173250000Y-70500000D02*
X170828700Y-68078700D01*
X173250000Y-73500000D02*
X173250000Y-96032900D01*
X178000000Y-108120000D02*
X178000000Y-107569800D01*
X175588600Y-105158400D02*
X178000000Y-107569800D01*
X172650000Y-62200000D02*
X171699700Y-62200000D01*
X178000000Y-107569800D02*
X179349500Y-107569800D01*
X170828700Y-68078700D02*
X170828700Y-63071000D01*
X175588600Y-98371500D02*
X175588600Y-105158400D01*
X181000000Y-108120000D02*
X179899700Y-108120000D01*
%TO.N,/rrow1*%
X203250000Y-105000000D02*
X204500000Y-106250000D01*
X204500000Y-98750000D02*
X204500000Y-101250000D01*
X204500000Y-103750000D02*
X204500000Y-101250000D01*
X194782400Y-109231500D02*
X177547500Y-109231500D01*
X169249600Y-76601700D02*
X167060400Y-74412500D01*
X203250000Y-105000000D02*
X199013900Y-105000000D01*
X167060400Y-74412500D02*
X167060400Y-42553000D01*
X169249600Y-100933600D02*
X169249600Y-76601700D01*
X167060400Y-42553000D02*
X168141400Y-41472000D01*
X199013900Y-105000000D02*
X194782400Y-109231500D01*
X204500000Y-103750000D02*
X203250000Y-105000000D01*
X177547500Y-109231500D02*
X169249600Y-100933600D01*
%TO.N,Net-(D25-Pad2)*%
X212120000Y-96250000D02*
X212120000Y-95149700D01*
X212120000Y-95149700D02*
X210139300Y-93169000D01*
X210139300Y-93169000D02*
X209788900Y-93169000D01*
%TO.N,/rrow2*%
X194750000Y-103750000D02*
X194750000Y-106250000D01*
X194750000Y-103750000D02*
X194750000Y-101250000D01*
X194750000Y-101250000D02*
X194750000Y-98750000D01*
%TO.N,Net-(D27-Pad2)*%
X191476000Y-96206300D02*
X191519700Y-96250000D01*
X192620000Y-96250000D02*
X191519700Y-96250000D01*
X187158300Y-96206300D02*
X191476000Y-96206300D01*
%TO.N,/rrow4*%
X245771300Y-62735500D02*
X223587400Y-40551600D01*
X188680300Y-40551600D02*
X185951000Y-37822300D01*
X265750000Y-82294800D02*
X254684400Y-71229200D01*
X254684400Y-71229200D02*
X254079700Y-71229200D01*
X265750000Y-84000000D02*
X265750000Y-82294800D01*
X185951000Y-37822300D02*
X179411100Y-37822300D01*
X254079700Y-71229200D02*
X245771300Y-62920800D01*
X223587400Y-40551600D02*
X188680300Y-40551600D01*
X245771300Y-62920800D02*
X245771300Y-62735500D01*
X179411100Y-37822300D02*
X168141400Y-49092000D01*
%TO.N,/rrow0*%
X264649700Y-30500000D02*
X259872100Y-35277600D01*
X171795800Y-35277600D02*
X168141400Y-38932000D01*
X265750000Y-30500000D02*
X264649700Y-30500000D01*
X259872100Y-35277600D02*
X171795800Y-35277600D01*
%TO.N,Net-(D42-Pad2)*%
X206892100Y-89359500D02*
X213859300Y-89359500D01*
X200081300Y-96170300D02*
X206892100Y-89359500D01*
%TO.N,Net-(D45-Pad2)*%
X203470400Y-107350400D02*
X202370000Y-106250000D01*
X227302700Y-107350400D02*
X203470400Y-107350400D01*
%TO.N,/rSDA*%
X173949600Y-62500700D02*
X173949600Y-49347000D01*
X184750000Y-40750000D02*
X184750000Y-42250000D01*
X183840100Y-59014100D02*
X183840100Y-86753100D01*
X183325989Y-42533511D02*
X181876300Y-43983200D01*
X177898000Y-99150400D02*
X179650400Y-99150400D01*
X183346700Y-38946700D02*
X183361400Y-38932000D01*
X176090500Y-97342900D02*
X177898000Y-99150400D01*
X184466489Y-42533511D02*
X183325989Y-42533511D01*
X172650000Y-62850000D02*
X173600300Y-62850000D01*
X183346700Y-39949900D02*
X183949900Y-39949900D01*
X181876300Y-43983200D02*
X181876300Y-57050300D01*
X179650400Y-99150400D02*
X181000000Y-100500000D01*
X181876300Y-57050300D02*
X183840100Y-59014100D01*
X184750000Y-42250000D02*
X184466489Y-42533511D01*
X176090500Y-94502700D02*
X176090500Y-97342900D01*
X173949600Y-49347000D02*
X183346700Y-39949900D01*
X173600300Y-62850000D02*
X173949600Y-62500700D01*
X183840100Y-86753100D02*
X176090500Y-94502700D01*
X183949900Y-39949900D02*
X184750000Y-40750000D01*
X183346700Y-39949900D02*
X183346700Y-38946700D01*
%TO.N,/rSCL*%
X181215400Y-55884900D02*
X181215400Y-43618000D01*
X176351500Y-76247500D02*
X176532600Y-76247500D01*
X173600300Y-63500000D02*
X174408300Y-64308000D01*
X174408300Y-74304300D02*
X176351500Y-76247500D01*
X175690200Y-97825800D02*
X178000000Y-100135600D01*
X181215400Y-43618000D02*
X183361400Y-41472000D01*
X172650000Y-63500000D02*
X173600300Y-63500000D01*
X178005800Y-77720700D02*
X178005800Y-91838600D01*
X174408300Y-64308000D02*
X174408300Y-74304300D01*
X178000000Y-100135600D02*
X178000000Y-100500000D01*
X173600300Y-63500000D02*
X181215400Y-55884900D01*
X175690200Y-94154200D02*
X175690200Y-97825800D01*
X176532600Y-76247500D02*
X178005800Y-77720700D01*
X178005800Y-91838600D02*
X175690200Y-94154200D01*
%TO.N,/rcol1*%
X182932400Y-52760300D02*
X182295200Y-52123100D01*
X183452300Y-52760300D02*
X182932400Y-52760300D01*
X233070200Y-68595300D02*
X241670400Y-77195500D01*
X208700000Y-57735100D02*
X188427100Y-57735100D01*
X182295200Y-52123100D02*
X182295200Y-47618200D01*
X188427100Y-57735100D02*
X183452300Y-52760300D01*
X208700000Y-57735100D02*
X213864000Y-57735100D01*
X213864000Y-57735100D02*
X224724200Y-68595300D01*
X182295200Y-47618200D02*
X183361400Y-46552000D01*
X224724200Y-68595300D02*
X233070200Y-68595300D01*
%TO.N,/rcol2*%
X234751100Y-52347400D02*
X244859300Y-62455600D01*
X244859300Y-62948600D02*
X255644800Y-73734100D01*
X226675100Y-52347400D02*
X234751100Y-52347400D01*
X255644800Y-84305200D02*
X252618800Y-87331200D01*
X244859300Y-62455600D02*
X244859300Y-62948600D01*
X183361400Y-49092000D02*
X186616800Y-52347400D01*
X255644800Y-73734100D02*
X255644800Y-84305200D01*
X186616800Y-52347400D02*
X226675100Y-52347400D01*
%TO.N,/rcol3*%
X254893200Y-75378300D02*
X254893200Y-75560900D01*
X243127400Y-63612500D02*
X244075400Y-62664500D01*
X206908500Y-56234000D02*
X217160200Y-56234000D01*
X243127400Y-63612500D02*
X254893200Y-75378300D01*
X224538700Y-63612500D02*
X243127400Y-63612500D01*
X217160200Y-56234000D02*
X224538700Y-63612500D01*
X206908500Y-56234000D02*
X187963400Y-56234000D01*
X187963400Y-56234000D02*
X183361400Y-51632000D01*
%TO.N,/rcol4*%
X206255000Y-58675900D02*
X219215900Y-71636800D01*
X219215900Y-71636800D02*
X224776600Y-71636800D01*
X183361400Y-54172000D02*
X187865300Y-58675900D01*
X187865300Y-58675900D02*
X206255000Y-58675900D01*
%TO.N,/rRST*%
X182500000Y-74000000D02*
X176000000Y-74000000D01*
%TD*%
M02*
