M48
; DRILL file {KiCad (5.99.0-12766-g4a3658027e)} date Sat 04 Dec 2021 14:11:22
; FORMAT={-:-/ absolute / metric / decimal}
; #@! TF.CreationDate,2021-12-04T14:11:22+09:00
; #@! TF.GenerationSoftware,Kicad,Pcbnew,(5.99.0-12766-g4a3658027e)
; #@! TF.FileFunction,NonPlated,1,2,NPTH
FMAT,2
METRIC
; #@! TA.AperFunction,NonPlated,NPTH,ComponentDrill
T1C0.800
; #@! TA.AperFunction,NonPlated,NPTH,ComponentDrill
T2C0.991
; #@! TA.AperFunction,NonPlated,NPTH,ComponentDrill
T3C1.900
; #@! TA.AperFunction,NonPlated,NPTH,ComponentDrill
T4C3.000
; #@! TA.AperFunction,NonPlated,NPTH,ComponentDrill
T5C3.400
%
G90
G05
T1
X119.45Y-61.5
X119.45Y-66.5
T2
X19.78Y-44.95
X19.78Y-61.95
X19.78Y-78.95
X19.78Y-105.95
X37.78Y-32.95
X37.78Y-49.95
X37.78Y-66.95
X37.78Y-88.95
X37.78Y-105.95
X55.78Y-30.95
X55.78Y-47.95
X55.78Y-64.95
X55.78Y-81.95
X55.78Y-105.95
X73.78Y-37.95
X73.78Y-54.95
X73.78Y-71.95
X73.78Y-88.95
X91.78Y-37.95
X91.78Y-54.95
X91.78Y-71.95
X91.78Y-88.95
X109.78Y-88.95
X118.78Y-105.95
T3
X19.5Y-40.75
X19.5Y-57.75
X19.5Y-74.75
X19.5Y-101.75
X30.5Y-40.75
X30.5Y-57.75
X30.5Y-74.75
X30.5Y-101.75
X37.5Y-28.75
X37.5Y-45.75
X37.5Y-62.75
X37.5Y-84.75
X37.5Y-101.75
X48.5Y-28.75
X48.5Y-45.75
X48.5Y-62.75
X48.5Y-84.75
X48.5Y-101.75
X55.5Y-26.75
X55.5Y-43.75
X55.5Y-60.75
X55.5Y-77.75
X55.5Y-101.75
X66.5Y-26.75
X66.5Y-43.75
X66.5Y-60.75
X66.5Y-77.75
X66.5Y-101.75
X73.5Y-33.75
X73.5Y-50.75
X73.5Y-67.75
X73.5Y-84.75
X84.5Y-33.75
X84.5Y-50.75
X84.5Y-67.75
X84.5Y-84.75
X91.5Y-33.75
X91.5Y-50.75
X91.5Y-67.75
X91.5Y-84.75
X102.5Y-33.75
X102.5Y-50.75
X102.5Y-67.75
X102.5Y-84.75
X109.5Y-84.75
X118.5Y-101.75
X120.5Y-84.75
X129.5Y-101.75
T4
X25.0Y-34.8
X25.0Y-51.8
X25.0Y-68.8
X25.0Y-95.8
X30.0Y-37.0
X30.0Y-54.0
X30.0Y-71.0
X30.0Y-98.0
X43.0Y-22.8
X43.0Y-39.8
X43.0Y-56.8
X43.0Y-78.8
X43.0Y-95.8
X48.0Y-25.0
X48.0Y-42.0
X48.0Y-59.0
X48.0Y-81.0
X48.0Y-98.0
X61.0Y-20.8
X61.0Y-37.8
X61.0Y-54.8
X61.0Y-71.8
X61.0Y-95.8
X66.0Y-23.0
X66.0Y-40.0
X66.0Y-57.0
X66.0Y-74.0
X66.0Y-98.0
X79.0Y-27.8
X79.0Y-44.8
X79.0Y-61.8
X79.0Y-78.8
X84.0Y-30.0
X84.0Y-47.0
X84.0Y-64.0
X84.0Y-81.0
X97.0Y-27.8
X97.0Y-44.8
X97.0Y-61.8
X97.0Y-78.8
X102.0Y-30.0
X102.0Y-47.0
X102.0Y-64.0
X102.0Y-81.0
X115.0Y-78.8
X120.0Y-81.0
X124.0Y-95.8
X129.0Y-98.0
T5
X25.0Y-40.75
X25.0Y-57.75
X25.0Y-74.75
X25.0Y-101.75
X43.0Y-28.75
X43.0Y-45.75
X43.0Y-62.75
X43.0Y-84.75
X43.0Y-101.75
X61.0Y-26.75
X61.0Y-43.75
X61.0Y-60.75
X61.0Y-77.75
X61.0Y-101.75
X79.0Y-33.75
X79.0Y-50.75
X79.0Y-67.75
X79.0Y-84.75
X97.0Y-33.75
X97.0Y-50.75
X97.0Y-67.75
X97.0Y-84.75
X115.0Y-84.75
X124.0Y-101.75
T0
M30
