%TF.GenerationSoftware,KiCad,Pcbnew,(5.99.0-12766-g4a3658027e)*%
%TF.CreationDate,2021-12-04T14:11:10+09:00*%
%TF.ProjectId,left,6c656674-2e6b-4696-9361-645f70636258,rev?*%
%TF.SameCoordinates,Original*%
%TF.FileFunction,Paste,Bot*%
%TF.FilePolarity,Positive*%
%FSLAX46Y46*%
G04 Gerber Fmt 4.6, Leading zero omitted, Abs format (unit mm)*
G04 Created by KiCad (PCBNEW (5.99.0-12766-g4a3658027e)) date 2021-12-04 14:11:10*
%MOMM*%
%LPD*%
G01*
G04 APERTURE LIST*
%ADD10R,2.600000X2.600000*%
%ADD11R,1.950000X2.600000*%
G04 APERTURE END LIST*
D10*
%TO.C,SW21*%
X93700000Y-44750000D03*
D11*
X105000000Y-46950000D03*
%TD*%
D10*
%TO.C,SW18*%
X75700000Y-61750000D03*
D11*
X87000000Y-63950000D03*
%TD*%
D10*
%TO.C,SW8*%
X39700000Y-56750000D03*
D11*
X51000000Y-58950000D03*
%TD*%
D10*
%TO.C,SW14*%
X93700000Y-78750000D03*
D11*
X105000000Y-80950000D03*
%TD*%
D10*
%TO.C,SW9*%
X75700000Y-78750000D03*
D11*
X87000000Y-80950000D03*
%TD*%
D10*
%TO.C,SW11*%
X57700000Y-20750000D03*
D11*
X69000000Y-22950000D03*
%TD*%
D10*
%TO.C,SW19*%
X111700000Y-78750000D03*
D11*
X123000000Y-80950000D03*
%TD*%
D10*
%TO.C,SW17*%
X75700000Y-44750000D03*
D11*
X87000000Y-46950000D03*
%TD*%
D10*
%TO.C,SW5*%
X21700000Y-95750000D03*
D11*
X33000000Y-97950000D03*
%TD*%
D10*
%TO.C,SW4*%
X57700000Y-71750000D03*
D11*
X69000000Y-73950000D03*
%TD*%
D10*
%TO.C,SW15*%
X39700000Y-95750000D03*
D11*
X51000000Y-97950000D03*
%TD*%
D10*
%TO.C,SW12*%
X57700000Y-37750000D03*
D11*
X69000000Y-39950000D03*
%TD*%
D10*
%TO.C,SW6*%
X39700000Y-22750000D03*
D11*
X51000000Y-24950000D03*
%TD*%
D10*
%TO.C,SW23*%
X120700000Y-95750000D03*
D11*
X132000000Y-97950000D03*
%TD*%
D10*
%TO.C,SW13*%
X57700000Y-54750000D03*
D11*
X69000000Y-56950000D03*
%TD*%
D10*
%TO.C,SW7*%
X39700000Y-39750000D03*
D11*
X51000000Y-41950000D03*
%TD*%
D10*
%TO.C,SW20*%
X93700000Y-27750000D03*
D11*
X105000000Y-29950000D03*
%TD*%
D10*
%TO.C,SW1*%
X21700000Y-34750000D03*
D11*
X33000000Y-36950000D03*
%TD*%
D10*
%TO.C,SW2*%
X21700000Y-51750000D03*
D11*
X33000000Y-53950000D03*
%TD*%
D10*
%TO.C,SW16*%
X75700000Y-27750000D03*
D11*
X87000000Y-29950000D03*
%TD*%
D10*
%TO.C,SW22*%
X93700000Y-61750000D03*
D11*
X105000000Y-63950000D03*
%TD*%
D10*
%TO.C,SW3*%
X21700000Y-68750000D03*
D11*
X33000000Y-70950000D03*
%TD*%
D10*
%TO.C,SW10*%
X39700000Y-78750000D03*
D11*
X51000000Y-80950000D03*
%TD*%
D10*
%TO.C,SW49*%
X57700000Y-95750000D03*
D11*
X69000000Y-97950000D03*
%TD*%
M02*
