%FSLAX45Y45*%
G04 Gerber Fmt 4.5, Leading zero omitted, Abs format (unit mm)*
G04 Created by KiCad (PCBNEW (5.99.0-12766-g4a3658027e)) date 2021-12-04 14:11:23*
%MOMM*%
%LPD*%
G01*
G04 APERTURE LIST*
%TA.AperFunction,Profile*%
%ADD10C,0.050000*%
%TD*%
%ADD11C,0.200000*%
%ADD12C,0.040000*%
%ADD13C,0.055000*%
%ADD14C,0.080000*%
%ADD15C,0.081280*%
%ADD16C,0.085000*%
%ADD17C,0.090000*%
%ADD18C,0.110000*%
%ADD19C,0.320000*%
G04 APERTURE END LIST*
D10*
X2400000Y-1825000D02*
G75*
G03*
X1600000Y-2625000I0J-800000D01*
G01*
X10600000Y-2525000D02*
X12425000Y-2525000D01*
X13300000Y-9325000D02*
G75*
G02*
X12425000Y-8425000I12500J887500D01*
G01*
X1600000Y-11025000D02*
X13300000Y-11025000D01*
X2400000Y-1825000D02*
X7000000Y-1825000D01*
X7000000Y-1825000D02*
X9900000Y-1825000D01*
X12425000Y-2525000D02*
X12425000Y-8425000D01*
X1600000Y-11025000D02*
X1600000Y-2625000D01*
X9900000Y-1825000D02*
G75*
G03*
X10600000Y-2525000I700000J0D01*
G01*
X13300000Y-11025000D02*
X13300000Y-9325000D01*
D11*
D12*
X5511800Y-7083480D02*
X5551800Y-7123480D01*
X5551800Y-7083480D02*
X5511800Y-7123480D01*
X5750000Y-6888840D02*
X5790000Y-6928840D01*
X5790000Y-6888840D02*
X5750000Y-6928840D01*
X6262410Y-7565080D02*
X6302410Y-7605080D01*
X6302410Y-7565080D02*
X6262410Y-7605080D01*
X6325140Y-7697890D02*
X6365140Y-7737890D01*
X6365140Y-7697890D02*
X6325140Y-7737890D01*
X6627740Y-9332500D02*
X6667740Y-9372500D01*
X6667740Y-9332500D02*
X6627740Y-9372500D01*
X6776280Y-7662360D02*
X6816280Y-7702360D01*
X6816280Y-7662360D02*
X6776280Y-7702360D01*
X7346750Y-8131160D02*
X7386750Y-8171160D01*
X7386750Y-8131160D02*
X7346750Y-8171160D01*
X7550000Y-7565080D02*
X7590000Y-7605080D01*
X7590000Y-7565080D02*
X7550000Y-7605080D01*
X8120330Y-2982670D02*
X8160330Y-3022670D01*
X8160330Y-2982670D02*
X8120330Y-3022670D01*
X9350000Y-7662360D02*
X9390000Y-7702360D01*
X9390000Y-7662360D02*
X9350000Y-7702360D01*
X10813450Y-7678480D02*
X10853450Y-7718480D01*
X10853450Y-7678480D02*
X10813450Y-7718480D01*
X11640010Y-7498040D02*
X11680010Y-7538040D01*
X11680010Y-7498040D02*
X11640010Y-7538040D01*
X11961570Y-8902060D02*
X12001570Y-8942060D01*
X12001570Y-8902060D02*
X11961570Y-8942060D01*
X12067340Y-6380000D02*
X12107340Y-6420000D01*
X12107340Y-6380000D02*
X12067340Y-6420000D01*
D13*
X12247500Y-6012500D02*
G75*
G03*
X12247500Y-6012500I-27500J0D01*
G01*
D11*
X12187500Y-6030000D02*
X12252500Y-6030000D01*
X12187500Y-5995000D02*
X12252500Y-5995000D01*
X12252500Y-6030000D02*
G75*
G03*
X12252500Y-5995000I0J17500D01*
G01*
X12187500Y-5995000D02*
G75*
G03*
X12187500Y-6030000I0J-17500D01*
G01*
D13*
X12247500Y-6787500D02*
G75*
G03*
X12247500Y-6787500I-27500J0D01*
G01*
D11*
X12187500Y-6805000D02*
X12252500Y-6805000D01*
X12187500Y-6770000D02*
X12252500Y-6770000D01*
X12252500Y-6805000D02*
G75*
G03*
X12252500Y-6770000I0J17500D01*
G01*
X12187500Y-6770000D02*
G75*
G03*
X12187500Y-6805000I0J-17500D01*
G01*
D14*
X2525000Y-2060000D02*
X2525000Y-2140000D01*
X2485000Y-2100000D02*
X2565000Y-2100000D01*
X2525000Y-2310000D02*
X2525000Y-2390000D01*
X2485000Y-2350000D02*
X2565000Y-2350000D01*
X2525000Y-2560000D02*
X2525000Y-2640000D01*
X2485000Y-2600000D02*
X2565000Y-2600000D01*
X2525000Y-2810000D02*
X2525000Y-2890000D01*
X2485000Y-2850000D02*
X2565000Y-2850000D01*
X2525000Y-3060000D02*
X2525000Y-3140000D01*
X2485000Y-3100000D02*
X2565000Y-3100000D01*
X2525000Y-8410000D02*
X2525000Y-8490000D01*
X2485000Y-8450000D02*
X2565000Y-8450000D01*
X2525000Y-8660000D02*
X2525000Y-8740000D01*
X2485000Y-8700000D02*
X2565000Y-8700000D01*
X2525000Y-8910000D02*
X2525000Y-8990000D01*
X2485000Y-8950000D02*
X2565000Y-8950000D01*
X2525000Y-9160000D02*
X2525000Y-9240000D01*
X2485000Y-9200000D02*
X2565000Y-9200000D01*
X3287000Y-2060000D02*
X3287000Y-2140000D01*
X3247000Y-2100000D02*
X3327000Y-2100000D01*
X3287000Y-2310000D02*
X3287000Y-2390000D01*
X3247000Y-2350000D02*
X3327000Y-2350000D01*
X3287000Y-2560000D02*
X3287000Y-2640000D01*
X3247000Y-2600000D02*
X3327000Y-2600000D01*
X3287000Y-2810000D02*
X3287000Y-2890000D01*
X3247000Y-2850000D02*
X3327000Y-2850000D01*
X3287000Y-3060000D02*
X3287000Y-3140000D01*
X3247000Y-3100000D02*
X3327000Y-3100000D01*
X3287000Y-8410000D02*
X3287000Y-8490000D01*
X3247000Y-8450000D02*
X3327000Y-8450000D01*
X3287000Y-8660000D02*
X3287000Y-8740000D01*
X3247000Y-8700000D02*
X3327000Y-8700000D01*
X3287000Y-8910000D02*
X3287000Y-8990000D01*
X3247000Y-8950000D02*
X3327000Y-8950000D01*
X3287000Y-9160000D02*
X3287000Y-9240000D01*
X3247000Y-9200000D02*
X3327000Y-9200000D01*
X7888000Y-9635000D02*
X7888000Y-9715000D01*
X7848000Y-9675000D02*
X7928000Y-9675000D01*
X7888000Y-9885000D02*
X7888000Y-9965000D01*
X7848000Y-9925000D02*
X7928000Y-9925000D01*
X7888000Y-10135000D02*
X7888000Y-10215000D01*
X7848000Y-10175000D02*
X7928000Y-10175000D01*
X7888000Y-10385000D02*
X7888000Y-10465000D01*
X7848000Y-10425000D02*
X7928000Y-10425000D01*
X7888000Y-10635000D02*
X7888000Y-10715000D01*
X7848000Y-10675000D02*
X7928000Y-10675000D01*
X8650000Y-9635000D02*
X8650000Y-9715000D01*
X8610000Y-9675000D02*
X8690000Y-9675000D01*
X8650000Y-9885000D02*
X8650000Y-9965000D01*
X8610000Y-9925000D02*
X8690000Y-9925000D01*
X8650000Y-10135000D02*
X8650000Y-10215000D01*
X8610000Y-10175000D02*
X8690000Y-10175000D01*
X8650000Y-10385000D02*
X8650000Y-10465000D01*
X8610000Y-10425000D02*
X8690000Y-10425000D01*
X8650000Y-10635000D02*
X8650000Y-10715000D01*
X8610000Y-10675000D02*
X8690000Y-10675000D01*
X8863000Y-9635000D02*
X8863000Y-9715000D01*
X8823000Y-9675000D02*
X8903000Y-9675000D01*
X8863000Y-9885000D02*
X8863000Y-9965000D01*
X8823000Y-9925000D02*
X8903000Y-9925000D01*
X8863000Y-10135000D02*
X8863000Y-10215000D01*
X8823000Y-10175000D02*
X8903000Y-10175000D01*
X8863000Y-10385000D02*
X8863000Y-10465000D01*
X8823000Y-10425000D02*
X8903000Y-10425000D01*
X8863000Y-10635000D02*
X8863000Y-10715000D01*
X8823000Y-10675000D02*
X8903000Y-10675000D01*
X9625000Y-9635000D02*
X9625000Y-9715000D01*
X9585000Y-9675000D02*
X9665000Y-9675000D01*
X9625000Y-9885000D02*
X9625000Y-9965000D01*
X9585000Y-9925000D02*
X9665000Y-9925000D01*
X9625000Y-10135000D02*
X9625000Y-10215000D01*
X9585000Y-10175000D02*
X9665000Y-10175000D01*
X9625000Y-10385000D02*
X9625000Y-10465000D01*
X9585000Y-10425000D02*
X9665000Y-10425000D01*
X9625000Y-10635000D02*
X9625000Y-10715000D01*
X9585000Y-10675000D02*
X9665000Y-10675000D01*
X9838000Y-9635000D02*
X9838000Y-9715000D01*
X9798000Y-9675000D02*
X9878000Y-9675000D01*
X9838000Y-9885000D02*
X9838000Y-9965000D01*
X9798000Y-9925000D02*
X9878000Y-9925000D01*
X9838000Y-10135000D02*
X9838000Y-10215000D01*
X9798000Y-10175000D02*
X9878000Y-10175000D01*
X9838000Y-10385000D02*
X9838000Y-10465000D01*
X9798000Y-10425000D02*
X9878000Y-10425000D01*
X9838000Y-10635000D02*
X9838000Y-10715000D01*
X9798000Y-10675000D02*
X9878000Y-10675000D01*
X10600000Y-9635000D02*
X10600000Y-9715000D01*
X10560000Y-9675000D02*
X10640000Y-9675000D01*
X10600000Y-9885000D02*
X10600000Y-9965000D01*
X10560000Y-9925000D02*
X10640000Y-9925000D01*
X10600000Y-10135000D02*
X10600000Y-10215000D01*
X10560000Y-10175000D02*
X10640000Y-10175000D01*
X10600000Y-10385000D02*
X10600000Y-10465000D01*
X10560000Y-10425000D02*
X10640000Y-10425000D01*
X10600000Y-10635000D02*
X10600000Y-10715000D01*
X10560000Y-10675000D02*
X10640000Y-10675000D01*
X11000000Y-10060000D02*
X11000000Y-10140000D01*
X10960000Y-10100000D02*
X11040000Y-10100000D01*
X11000000Y-10822000D02*
X11000000Y-10902000D01*
X10960000Y-10862000D02*
X11040000Y-10862000D01*
X11300000Y-10060000D02*
X11300000Y-10140000D01*
X11260000Y-10100000D02*
X11340000Y-10100000D01*
X11300000Y-10822000D02*
X11300000Y-10902000D01*
X11260000Y-10862000D02*
X11340000Y-10862000D01*
X11775000Y-7060000D02*
X11775000Y-7140000D01*
X11735000Y-7100000D02*
X11815000Y-7100000D01*
X11775000Y-7360000D02*
X11775000Y-7440000D01*
X11735000Y-7400000D02*
X11815000Y-7400000D01*
X12275000Y-7060000D02*
X12275000Y-7140000D01*
X12235000Y-7100000D02*
X12315000Y-7100000D01*
X12275000Y-7360000D02*
X12275000Y-7440000D01*
X12235000Y-7400000D02*
X12315000Y-7400000D01*
D15*
X10792877Y-2955937D02*
X10792877Y-2898463D01*
X10735403Y-2898463D01*
X10735403Y-2955937D01*
X10792877Y-2955937D01*
X10792877Y-3209937D02*
X10792877Y-3152463D01*
X10735403Y-3152463D01*
X10735403Y-3209937D01*
X10792877Y-3209937D01*
X10792877Y-3463937D02*
X10792877Y-3406463D01*
X10735403Y-3406463D01*
X10735403Y-3463937D01*
X10792877Y-3463937D01*
X10792877Y-3717937D02*
X10792877Y-3660463D01*
X10735403Y-3660463D01*
X10735403Y-3717937D01*
X10792877Y-3717937D01*
X10792877Y-3971937D02*
X10792877Y-3914463D01*
X10735403Y-3914463D01*
X10735403Y-3971937D01*
X10792877Y-3971937D01*
X10792877Y-4225937D02*
X10792877Y-4168463D01*
X10735403Y-4168463D01*
X10735403Y-4225937D01*
X10792877Y-4225937D01*
X10792877Y-4479937D02*
X10792877Y-4422463D01*
X10735403Y-4422463D01*
X10735403Y-4479937D01*
X10792877Y-4479937D01*
X10792877Y-4733937D02*
X10792877Y-4676463D01*
X10735403Y-4676463D01*
X10735403Y-4733937D01*
X10792877Y-4733937D01*
X10792877Y-4987937D02*
X10792877Y-4930463D01*
X10735403Y-4930463D01*
X10735403Y-4987937D01*
X10792877Y-4987937D01*
X10792877Y-5241937D02*
X10792877Y-5184463D01*
X10735403Y-5184463D01*
X10735403Y-5241937D01*
X10792877Y-5241937D01*
X10792877Y-5495937D02*
X10792877Y-5438463D01*
X10735403Y-5438463D01*
X10735403Y-5495937D01*
X10792877Y-5495937D01*
X10792877Y-5749937D02*
X10792877Y-5692463D01*
X10735403Y-5692463D01*
X10735403Y-5749937D01*
X10792877Y-5749937D01*
X12314877Y-2955937D02*
X12314877Y-2898463D01*
X12257403Y-2898463D01*
X12257403Y-2955937D01*
X12314877Y-2955937D01*
X12314877Y-3209937D02*
X12314877Y-3152463D01*
X12257403Y-3152463D01*
X12257403Y-3209937D01*
X12314877Y-3209937D01*
X12314877Y-3463937D02*
X12314877Y-3406463D01*
X12257403Y-3406463D01*
X12257403Y-3463937D01*
X12314877Y-3463937D01*
X12314877Y-3717937D02*
X12314877Y-3660463D01*
X12257403Y-3660463D01*
X12257403Y-3717937D01*
X12314877Y-3717937D01*
X12314877Y-3971937D02*
X12314877Y-3914463D01*
X12257403Y-3914463D01*
X12257403Y-3971937D01*
X12314877Y-3971937D01*
X12314877Y-4225937D02*
X12314877Y-4168463D01*
X12257403Y-4168463D01*
X12257403Y-4225937D01*
X12314877Y-4225937D01*
X12314877Y-4479937D02*
X12314877Y-4422463D01*
X12257403Y-4422463D01*
X12257403Y-4479937D01*
X12314877Y-4479937D01*
X12314877Y-4733937D02*
X12314877Y-4676463D01*
X12257403Y-4676463D01*
X12257403Y-4733937D01*
X12314877Y-4733937D01*
X12314877Y-4987937D02*
X12314877Y-4930463D01*
X12257403Y-4930463D01*
X12257403Y-4987937D01*
X12314877Y-4987937D01*
X12314877Y-5241937D02*
X12314877Y-5184463D01*
X12257403Y-5184463D01*
X12257403Y-5241937D01*
X12314877Y-5241937D01*
X12314877Y-5495937D02*
X12314877Y-5438463D01*
X12257403Y-5438463D01*
X12257403Y-5495937D01*
X12314877Y-5495937D01*
X12314877Y-5749937D02*
X12314877Y-5692463D01*
X12257403Y-5692463D01*
X12257403Y-5749937D01*
X12314877Y-5749937D01*
D16*
X11840000Y-6070000D02*
X11882500Y-6027500D01*
X11840000Y-5985000D01*
X11797500Y-6027500D01*
X11840000Y-6070000D01*
D11*
X11812500Y-6060000D02*
X11867500Y-6060000D01*
X11812500Y-5995000D02*
X11867500Y-5995000D01*
X11867500Y-6060000D02*
G75*
G03*
X11867500Y-5995000I0J32500D01*
G01*
X11812500Y-5995000D02*
G75*
G03*
X11812500Y-6060000I0J-32500D01*
G01*
D16*
X11840000Y-6815000D02*
X11882500Y-6772500D01*
X11840000Y-6730000D01*
X11797500Y-6772500D01*
X11840000Y-6815000D01*
D11*
X11812500Y-6805000D02*
X11867500Y-6805000D01*
X11812500Y-6740000D02*
X11867500Y-6740000D01*
X11867500Y-6805000D02*
G75*
G03*
X11867500Y-6740000I0J32500D01*
G01*
X11812500Y-6740000D02*
G75*
G03*
X11812500Y-6805000I0J-32500D01*
G01*
D17*
X10905000Y-6305000D02*
X10995000Y-6395000D01*
X10995000Y-6305000D02*
X10905000Y-6395000D01*
X10995000Y-6350000D02*
G75*
G03*
X10995000Y-6350000I-45000J0D01*
G01*
X11305000Y-6305000D02*
X11395000Y-6395000D01*
X11395000Y-6305000D02*
X11305000Y-6395000D01*
X11395000Y-6350000D02*
G75*
G03*
X11395000Y-6350000I-45000J0D01*
G01*
D18*
X10795000Y-6945000D02*
X10905000Y-7055000D01*
X10905000Y-6945000D02*
X10795000Y-7055000D01*
X10850000Y-6945000D02*
X10850000Y-7055000D01*
X10795000Y-7000000D02*
X10905000Y-7000000D01*
X10795000Y-7395000D02*
X10905000Y-7505000D01*
X10905000Y-7395000D02*
X10795000Y-7505000D01*
X10850000Y-7395000D02*
X10850000Y-7505000D01*
X10795000Y-7450000D02*
X10905000Y-7450000D01*
X11445000Y-6945000D02*
X11555000Y-7055000D01*
X11555000Y-6945000D02*
X11445000Y-7055000D01*
X11500000Y-6945000D02*
X11500000Y-7055000D01*
X11445000Y-7000000D02*
X11555000Y-7000000D01*
X11445000Y-7395000D02*
X11555000Y-7505000D01*
X11555000Y-7395000D02*
X11445000Y-7505000D01*
X11500000Y-7395000D02*
X11500000Y-7505000D01*
X11445000Y-7450000D02*
X11555000Y-7450000D01*
D19*
X1765000Y-8665000D02*
X2085000Y-8985000D01*
X2085000Y-8665000D02*
X1765000Y-8985000D01*
X2038138Y-8938138D02*
X2038138Y-8711862D01*
X1811862Y-8711862D01*
X1811862Y-8938138D01*
X2038138Y-8938138D01*
X1915000Y-2140000D02*
X2235000Y-2460000D01*
X2235000Y-2140000D02*
X1915000Y-2460000D01*
X2188138Y-2413138D02*
X2188138Y-2186862D01*
X1961862Y-2186862D01*
X1961862Y-2413138D01*
X2188138Y-2413138D01*
X5365000Y-8815000D02*
X5685000Y-9135000D01*
X5685000Y-8815000D02*
X5365000Y-9135000D01*
X5638138Y-9088138D02*
X5638138Y-8861862D01*
X5411862Y-8861862D01*
X5411862Y-9088138D01*
X5638138Y-9088138D01*
X7165000Y-2040000D02*
X7485000Y-2360000D01*
X7485000Y-2040000D02*
X7165000Y-2360000D01*
X7438138Y-2313138D02*
X7438138Y-2086862D01*
X7211862Y-2086862D01*
X7211862Y-2313138D01*
X7438138Y-2313138D01*
X7165000Y-9490000D02*
X7485000Y-9810000D01*
X7485000Y-9490000D02*
X7165000Y-9810000D01*
X7438138Y-9763138D02*
X7438138Y-9536862D01*
X7211862Y-9536862D01*
X7211862Y-9763138D01*
X7438138Y-9763138D01*
X9490000Y-2040000D02*
X9810000Y-2360000D01*
X9810000Y-2040000D02*
X9490000Y-2360000D01*
X9763138Y-2313138D02*
X9763138Y-2086862D01*
X9536862Y-2086862D01*
X9536862Y-2313138D01*
X9763138Y-2313138D01*
X11015000Y-9490000D02*
X11335000Y-9810000D01*
X11335000Y-9490000D02*
X11015000Y-9810000D01*
X11288138Y-9763138D02*
X11288138Y-9536862D01*
X11061862Y-9536862D01*
X11061862Y-9763138D01*
X11288138Y-9763138D01*
D11*
X1850119Y-11337976D02*
X1850119Y-11137976D01*
X1897738Y-11137976D01*
X1926309Y-11147500D01*
X1945357Y-11166548D01*
X1954881Y-11185595D01*
X1964405Y-11223690D01*
X1964405Y-11252262D01*
X1954881Y-11290357D01*
X1945357Y-11309405D01*
X1926309Y-11328452D01*
X1897738Y-11337976D01*
X1850119Y-11337976D01*
X2050119Y-11337976D02*
X2050119Y-11204643D01*
X2050119Y-11242738D02*
X2059643Y-11223690D01*
X2069167Y-11214167D01*
X2088214Y-11204643D01*
X2107262Y-11204643D01*
X2173929Y-11337976D02*
X2173929Y-11204643D01*
X2173929Y-11137976D02*
X2164405Y-11147500D01*
X2173929Y-11157024D01*
X2183452Y-11147500D01*
X2173929Y-11137976D01*
X2173929Y-11157024D01*
X2297738Y-11337976D02*
X2278690Y-11328452D01*
X2269167Y-11309405D01*
X2269167Y-11137976D01*
X2402500Y-11337976D02*
X2383452Y-11328452D01*
X2373929Y-11309405D01*
X2373929Y-11137976D01*
X2631071Y-11337976D02*
X2631071Y-11137976D01*
X2697738Y-11280833D01*
X2764405Y-11137976D01*
X2764405Y-11337976D01*
X2945357Y-11337976D02*
X2945357Y-11233214D01*
X2935833Y-11214167D01*
X2916786Y-11204643D01*
X2878690Y-11204643D01*
X2859643Y-11214167D01*
X2945357Y-11328452D02*
X2926309Y-11337976D01*
X2878690Y-11337976D01*
X2859643Y-11328452D01*
X2850119Y-11309405D01*
X2850119Y-11290357D01*
X2859643Y-11271309D01*
X2878690Y-11261786D01*
X2926309Y-11261786D01*
X2945357Y-11252262D01*
X3040595Y-11204643D02*
X3040595Y-11404643D01*
X3040595Y-11214167D02*
X3059643Y-11204643D01*
X3097738Y-11204643D01*
X3116786Y-11214167D01*
X3126309Y-11223690D01*
X3135833Y-11242738D01*
X3135833Y-11299881D01*
X3126309Y-11318928D01*
X3116786Y-11328452D01*
X3097738Y-11337976D01*
X3059643Y-11337976D01*
X3040595Y-11328452D01*
X3221548Y-11318928D02*
X3231071Y-11328452D01*
X3221548Y-11337976D01*
X3212024Y-11328452D01*
X3221548Y-11318928D01*
X3221548Y-11337976D01*
X3221548Y-11214167D02*
X3231071Y-11223690D01*
X3221548Y-11233214D01*
X3212024Y-11223690D01*
X3221548Y-11214167D01*
X3221548Y-11233214D01*
D12*
X1552500Y-11647500D02*
X1592500Y-11687500D01*
X1592500Y-11647500D02*
X1552500Y-11687500D01*
D11*
X1888214Y-11557976D02*
X1907262Y-11557976D01*
X1926309Y-11567500D01*
X1935833Y-11577024D01*
X1945357Y-11596071D01*
X1954881Y-11634167D01*
X1954881Y-11681786D01*
X1945357Y-11719881D01*
X1935833Y-11738928D01*
X1926309Y-11748452D01*
X1907262Y-11757976D01*
X1888214Y-11757976D01*
X1869167Y-11748452D01*
X1859643Y-11738928D01*
X1850119Y-11719881D01*
X1840595Y-11681786D01*
X1840595Y-11634167D01*
X1850119Y-11596071D01*
X1859643Y-11577024D01*
X1869167Y-11567500D01*
X1888214Y-11557976D01*
X2040595Y-11738928D02*
X2050119Y-11748452D01*
X2040595Y-11757976D01*
X2031071Y-11748452D01*
X2040595Y-11738928D01*
X2040595Y-11757976D01*
X2221548Y-11624643D02*
X2221548Y-11757976D01*
X2173929Y-11548452D02*
X2126310Y-11691309D01*
X2250119Y-11691309D01*
X2364405Y-11557976D02*
X2383452Y-11557976D01*
X2402500Y-11567500D01*
X2412024Y-11577024D01*
X2421548Y-11596071D01*
X2431071Y-11634167D01*
X2431071Y-11681786D01*
X2421548Y-11719881D01*
X2412024Y-11738928D01*
X2402500Y-11748452D01*
X2383452Y-11757976D01*
X2364405Y-11757976D01*
X2345357Y-11748452D01*
X2335833Y-11738928D01*
X2326310Y-11719881D01*
X2316786Y-11681786D01*
X2316786Y-11634167D01*
X2326310Y-11596071D01*
X2335833Y-11577024D01*
X2345357Y-11567500D01*
X2364405Y-11557976D01*
X2554881Y-11557976D02*
X2573929Y-11557976D01*
X2592976Y-11567500D01*
X2602500Y-11577024D01*
X2612024Y-11596071D01*
X2621548Y-11634167D01*
X2621548Y-11681786D01*
X2612024Y-11719881D01*
X2602500Y-11738928D01*
X2592976Y-11748452D01*
X2573929Y-11757976D01*
X2554881Y-11757976D01*
X2535833Y-11748452D01*
X2526310Y-11738928D01*
X2516786Y-11719881D01*
X2507262Y-11681786D01*
X2507262Y-11634167D01*
X2516786Y-11596071D01*
X2526310Y-11577024D01*
X2535833Y-11567500D01*
X2554881Y-11557976D01*
X2707262Y-11757976D02*
X2707262Y-11624643D01*
X2707262Y-11643690D02*
X2716786Y-11634167D01*
X2735833Y-11624643D01*
X2764405Y-11624643D01*
X2783452Y-11634167D01*
X2792976Y-11653214D01*
X2792976Y-11757976D01*
X2792976Y-11653214D02*
X2802500Y-11634167D01*
X2821548Y-11624643D01*
X2850119Y-11624643D01*
X2869167Y-11634167D01*
X2878690Y-11653214D01*
X2878690Y-11757976D01*
X2973928Y-11757976D02*
X2973928Y-11624643D01*
X2973928Y-11643690D02*
X2983452Y-11634167D01*
X3002500Y-11624643D01*
X3031071Y-11624643D01*
X3050119Y-11634167D01*
X3059643Y-11653214D01*
X3059643Y-11757976D01*
X3059643Y-11653214D02*
X3069167Y-11634167D01*
X3088214Y-11624643D01*
X3116786Y-11624643D01*
X3135833Y-11634167D01*
X3145357Y-11653214D01*
X3145357Y-11757976D01*
X3535833Y-11548452D02*
X3364405Y-11805595D01*
X3792976Y-11557976D02*
X3812024Y-11557976D01*
X3831071Y-11567500D01*
X3840595Y-11577024D01*
X3850119Y-11596071D01*
X3859643Y-11634167D01*
X3859643Y-11681786D01*
X3850119Y-11719881D01*
X3840595Y-11738928D01*
X3831071Y-11748452D01*
X3812024Y-11757976D01*
X3792976Y-11757976D01*
X3773928Y-11748452D01*
X3764405Y-11738928D01*
X3754881Y-11719881D01*
X3745357Y-11681786D01*
X3745357Y-11634167D01*
X3754881Y-11596071D01*
X3764405Y-11577024D01*
X3773928Y-11567500D01*
X3792976Y-11557976D01*
X3945357Y-11738928D02*
X3954881Y-11748452D01*
X3945357Y-11757976D01*
X3935833Y-11748452D01*
X3945357Y-11738928D01*
X3945357Y-11757976D01*
X4078690Y-11557976D02*
X4097738Y-11557976D01*
X4116786Y-11567500D01*
X4126309Y-11577024D01*
X4135833Y-11596071D01*
X4145357Y-11634167D01*
X4145357Y-11681786D01*
X4135833Y-11719881D01*
X4126309Y-11738928D01*
X4116786Y-11748452D01*
X4097738Y-11757976D01*
X4078690Y-11757976D01*
X4059643Y-11748452D01*
X4050119Y-11738928D01*
X4040595Y-11719881D01*
X4031071Y-11681786D01*
X4031071Y-11634167D01*
X4040595Y-11596071D01*
X4050119Y-11577024D01*
X4059643Y-11567500D01*
X4078690Y-11557976D01*
X4335833Y-11757976D02*
X4221548Y-11757976D01*
X4278690Y-11757976D02*
X4278690Y-11557976D01*
X4259643Y-11586548D01*
X4240595Y-11605595D01*
X4221548Y-11615119D01*
X4516786Y-11557976D02*
X4421548Y-11557976D01*
X4412024Y-11653214D01*
X4421548Y-11643690D01*
X4440595Y-11634167D01*
X4488214Y-11634167D01*
X4507262Y-11643690D01*
X4516786Y-11653214D01*
X4526310Y-11672262D01*
X4526310Y-11719881D01*
X4516786Y-11738928D01*
X4507262Y-11748452D01*
X4488214Y-11757976D01*
X4440595Y-11757976D01*
X4421548Y-11748452D01*
X4412024Y-11738928D01*
X4592976Y-11557976D02*
X4726310Y-11557976D01*
X4640595Y-11757976D01*
X4792976Y-11557976D02*
X4792976Y-11596071D01*
X4869167Y-11557976D02*
X4869167Y-11596071D01*
X5164405Y-11834167D02*
X5154881Y-11824643D01*
X5135833Y-11796071D01*
X5126310Y-11777024D01*
X5116786Y-11748452D01*
X5107262Y-11700833D01*
X5107262Y-11662738D01*
X5116786Y-11615119D01*
X5126310Y-11586548D01*
X5135833Y-11567500D01*
X5154881Y-11538928D01*
X5164405Y-11529405D01*
X5345357Y-11757976D02*
X5231071Y-11757976D01*
X5288214Y-11757976D02*
X5288214Y-11557976D01*
X5269167Y-11586548D01*
X5250119Y-11605595D01*
X5231071Y-11615119D01*
X5516786Y-11624643D02*
X5516786Y-11757976D01*
X5469167Y-11548452D02*
X5421548Y-11691309D01*
X5545357Y-11691309D01*
X5773928Y-11757976D02*
X5773928Y-11557976D01*
X5859643Y-11757976D02*
X5859643Y-11653214D01*
X5850119Y-11634167D01*
X5831071Y-11624643D01*
X5802500Y-11624643D01*
X5783452Y-11634167D01*
X5773928Y-11643690D01*
X5983452Y-11757976D02*
X5964405Y-11748452D01*
X5954881Y-11738928D01*
X5945357Y-11719881D01*
X5945357Y-11662738D01*
X5954881Y-11643690D01*
X5964405Y-11634167D01*
X5983452Y-11624643D01*
X6012024Y-11624643D01*
X6031071Y-11634167D01*
X6040595Y-11643690D01*
X6050119Y-11662738D01*
X6050119Y-11719881D01*
X6040595Y-11738928D01*
X6031071Y-11748452D01*
X6012024Y-11757976D01*
X5983452Y-11757976D01*
X6164405Y-11757976D02*
X6145357Y-11748452D01*
X6135833Y-11729405D01*
X6135833Y-11557976D01*
X6316786Y-11748452D02*
X6297738Y-11757976D01*
X6259643Y-11757976D01*
X6240595Y-11748452D01*
X6231071Y-11729405D01*
X6231071Y-11653214D01*
X6240595Y-11634167D01*
X6259643Y-11624643D01*
X6297738Y-11624643D01*
X6316786Y-11634167D01*
X6326309Y-11653214D01*
X6326309Y-11672262D01*
X6231071Y-11691309D01*
X6402500Y-11748452D02*
X6421548Y-11757976D01*
X6459643Y-11757976D01*
X6478690Y-11748452D01*
X6488214Y-11729405D01*
X6488214Y-11719881D01*
X6478690Y-11700833D01*
X6459643Y-11691309D01*
X6431071Y-11691309D01*
X6412024Y-11681786D01*
X6402500Y-11662738D01*
X6402500Y-11653214D01*
X6412024Y-11634167D01*
X6431071Y-11624643D01*
X6459643Y-11624643D01*
X6478690Y-11634167D01*
X6554881Y-11834167D02*
X6564405Y-11824643D01*
X6583452Y-11796071D01*
X6592976Y-11777024D01*
X6602500Y-11748452D01*
X6612024Y-11700833D01*
X6612024Y-11662738D01*
X6602500Y-11615119D01*
X6592976Y-11586548D01*
X6583452Y-11567500D01*
X6564405Y-11538928D01*
X6554881Y-11529405D01*
D13*
X1592500Y-11931500D02*
G75*
G03*
X1592500Y-11931500I-27500J0D01*
G01*
D11*
X1888214Y-11821976D02*
X1907262Y-11821976D01*
X1926309Y-11831500D01*
X1935833Y-11841024D01*
X1945357Y-11860071D01*
X1954881Y-11898167D01*
X1954881Y-11945786D01*
X1945357Y-11983881D01*
X1935833Y-12002928D01*
X1926309Y-12012452D01*
X1907262Y-12021976D01*
X1888214Y-12021976D01*
X1869167Y-12012452D01*
X1859643Y-12002928D01*
X1850119Y-11983881D01*
X1840595Y-11945786D01*
X1840595Y-11898167D01*
X1850119Y-11860071D01*
X1859643Y-11841024D01*
X1869167Y-11831500D01*
X1888214Y-11821976D01*
X2040595Y-12002928D02*
X2050119Y-12012452D01*
X2040595Y-12021976D01*
X2031071Y-12012452D01*
X2040595Y-12002928D01*
X2040595Y-12021976D01*
X2231071Y-11821976D02*
X2135833Y-11821976D01*
X2126310Y-11917214D01*
X2135833Y-11907690D01*
X2154881Y-11898167D01*
X2202500Y-11898167D01*
X2221548Y-11907690D01*
X2231071Y-11917214D01*
X2240595Y-11936262D01*
X2240595Y-11983881D01*
X2231071Y-12002928D01*
X2221548Y-12012452D01*
X2202500Y-12021976D01*
X2154881Y-12021976D01*
X2135833Y-12012452D01*
X2126310Y-12002928D01*
X2421548Y-11821976D02*
X2326310Y-11821976D01*
X2316786Y-11917214D01*
X2326310Y-11907690D01*
X2345357Y-11898167D01*
X2392976Y-11898167D01*
X2412024Y-11907690D01*
X2421548Y-11917214D01*
X2431071Y-11936262D01*
X2431071Y-11983881D01*
X2421548Y-12002928D01*
X2412024Y-12012452D01*
X2392976Y-12021976D01*
X2345357Y-12021976D01*
X2326310Y-12012452D01*
X2316786Y-12002928D01*
X2554881Y-11821976D02*
X2573929Y-11821976D01*
X2592976Y-11831500D01*
X2602500Y-11841024D01*
X2612024Y-11860071D01*
X2621548Y-11898167D01*
X2621548Y-11945786D01*
X2612024Y-11983881D01*
X2602500Y-12002928D01*
X2592976Y-12012452D01*
X2573929Y-12021976D01*
X2554881Y-12021976D01*
X2535833Y-12012452D01*
X2526310Y-12002928D01*
X2516786Y-11983881D01*
X2507262Y-11945786D01*
X2507262Y-11898167D01*
X2516786Y-11860071D01*
X2526310Y-11841024D01*
X2535833Y-11831500D01*
X2554881Y-11821976D01*
X2707262Y-12021976D02*
X2707262Y-11888643D01*
X2707262Y-11907690D02*
X2716786Y-11898167D01*
X2735833Y-11888643D01*
X2764405Y-11888643D01*
X2783452Y-11898167D01*
X2792976Y-11917214D01*
X2792976Y-12021976D01*
X2792976Y-11917214D02*
X2802500Y-11898167D01*
X2821548Y-11888643D01*
X2850119Y-11888643D01*
X2869167Y-11898167D01*
X2878690Y-11917214D01*
X2878690Y-12021976D01*
X2973928Y-12021976D02*
X2973928Y-11888643D01*
X2973928Y-11907690D02*
X2983452Y-11898167D01*
X3002500Y-11888643D01*
X3031071Y-11888643D01*
X3050119Y-11898167D01*
X3059643Y-11917214D01*
X3059643Y-12021976D01*
X3059643Y-11917214D02*
X3069167Y-11898167D01*
X3088214Y-11888643D01*
X3116786Y-11888643D01*
X3135833Y-11898167D01*
X3145357Y-11917214D01*
X3145357Y-12021976D01*
X3535833Y-11812452D02*
X3364405Y-12069595D01*
X3792976Y-11821976D02*
X3812024Y-11821976D01*
X3831071Y-11831500D01*
X3840595Y-11841024D01*
X3850119Y-11860071D01*
X3859643Y-11898167D01*
X3859643Y-11945786D01*
X3850119Y-11983881D01*
X3840595Y-12002928D01*
X3831071Y-12012452D01*
X3812024Y-12021976D01*
X3792976Y-12021976D01*
X3773928Y-12012452D01*
X3764405Y-12002928D01*
X3754881Y-11983881D01*
X3745357Y-11945786D01*
X3745357Y-11898167D01*
X3754881Y-11860071D01*
X3764405Y-11841024D01*
X3773928Y-11831500D01*
X3792976Y-11821976D01*
X3945357Y-12002928D02*
X3954881Y-12012452D01*
X3945357Y-12021976D01*
X3935833Y-12012452D01*
X3945357Y-12002928D01*
X3945357Y-12021976D01*
X4078690Y-11821976D02*
X4097738Y-11821976D01*
X4116786Y-11831500D01*
X4126309Y-11841024D01*
X4135833Y-11860071D01*
X4145357Y-11898167D01*
X4145357Y-11945786D01*
X4135833Y-11983881D01*
X4126309Y-12002928D01*
X4116786Y-12012452D01*
X4097738Y-12021976D01*
X4078690Y-12021976D01*
X4059643Y-12012452D01*
X4050119Y-12002928D01*
X4040595Y-11983881D01*
X4031071Y-11945786D01*
X4031071Y-11898167D01*
X4040595Y-11860071D01*
X4050119Y-11841024D01*
X4059643Y-11831500D01*
X4078690Y-11821976D01*
X4221548Y-11841024D02*
X4231071Y-11831500D01*
X4250119Y-11821976D01*
X4297738Y-11821976D01*
X4316786Y-11831500D01*
X4326310Y-11841024D01*
X4335833Y-11860071D01*
X4335833Y-11879119D01*
X4326310Y-11907690D01*
X4212024Y-12021976D01*
X4335833Y-12021976D01*
X4526310Y-12021976D02*
X4412024Y-12021976D01*
X4469167Y-12021976D02*
X4469167Y-11821976D01*
X4450119Y-11850548D01*
X4431071Y-11869595D01*
X4412024Y-11879119D01*
X4592976Y-11821976D02*
X4726310Y-11821976D01*
X4640595Y-12021976D01*
X4792976Y-11821976D02*
X4792976Y-11860071D01*
X4869167Y-11821976D02*
X4869167Y-11860071D01*
X5164405Y-12098167D02*
X5154881Y-12088643D01*
X5135833Y-12060071D01*
X5126310Y-12041024D01*
X5116786Y-12012452D01*
X5107262Y-11964833D01*
X5107262Y-11926738D01*
X5116786Y-11879119D01*
X5126310Y-11850548D01*
X5135833Y-11831500D01*
X5154881Y-11802928D01*
X5164405Y-11793405D01*
X5278690Y-11821976D02*
X5297738Y-11821976D01*
X5316786Y-11831500D01*
X5326310Y-11841024D01*
X5335833Y-11860071D01*
X5345357Y-11898167D01*
X5345357Y-11945786D01*
X5335833Y-11983881D01*
X5326310Y-12002928D01*
X5316786Y-12012452D01*
X5297738Y-12021976D01*
X5278690Y-12021976D01*
X5259643Y-12012452D01*
X5250119Y-12002928D01*
X5240595Y-11983881D01*
X5231071Y-11945786D01*
X5231071Y-11898167D01*
X5240595Y-11860071D01*
X5250119Y-11841024D01*
X5259643Y-11831500D01*
X5278690Y-11821976D01*
X5583452Y-12021976D02*
X5583452Y-11821976D01*
X5669167Y-12021976D02*
X5669167Y-11917214D01*
X5659643Y-11898167D01*
X5640595Y-11888643D01*
X5612024Y-11888643D01*
X5592976Y-11898167D01*
X5583452Y-11907690D01*
X5792976Y-12021976D02*
X5773928Y-12012452D01*
X5764405Y-12002928D01*
X5754881Y-11983881D01*
X5754881Y-11926738D01*
X5764405Y-11907690D01*
X5773928Y-11898167D01*
X5792976Y-11888643D01*
X5821548Y-11888643D01*
X5840595Y-11898167D01*
X5850119Y-11907690D01*
X5859643Y-11926738D01*
X5859643Y-11983881D01*
X5850119Y-12002928D01*
X5840595Y-12012452D01*
X5821548Y-12021976D01*
X5792976Y-12021976D01*
X5973928Y-12021976D02*
X5954881Y-12012452D01*
X5945357Y-11993405D01*
X5945357Y-11821976D01*
X6126309Y-12012452D02*
X6107262Y-12021976D01*
X6069167Y-12021976D01*
X6050119Y-12012452D01*
X6040595Y-11993405D01*
X6040595Y-11917214D01*
X6050119Y-11898167D01*
X6069167Y-11888643D01*
X6107262Y-11888643D01*
X6126309Y-11898167D01*
X6135833Y-11917214D01*
X6135833Y-11936262D01*
X6040595Y-11955309D01*
X6212024Y-12012452D02*
X6231071Y-12021976D01*
X6269167Y-12021976D01*
X6288214Y-12012452D01*
X6297738Y-11993405D01*
X6297738Y-11983881D01*
X6288214Y-11964833D01*
X6269167Y-11955309D01*
X6240595Y-11955309D01*
X6221548Y-11945786D01*
X6212024Y-11926738D01*
X6212024Y-11917214D01*
X6221548Y-11898167D01*
X6240595Y-11888643D01*
X6269167Y-11888643D01*
X6288214Y-11898167D01*
X6535833Y-11945786D02*
X6688214Y-11945786D01*
X6612024Y-12021976D02*
X6612024Y-11869595D01*
X6926309Y-11841024D02*
X6935833Y-11831500D01*
X6954881Y-11821976D01*
X7002500Y-11821976D01*
X7021548Y-11831500D01*
X7031071Y-11841024D01*
X7040595Y-11860071D01*
X7040595Y-11879119D01*
X7031071Y-11907690D01*
X6916786Y-12021976D01*
X7040595Y-12021976D01*
X7269167Y-12012452D02*
X7288214Y-12021976D01*
X7326309Y-12021976D01*
X7345357Y-12012452D01*
X7354881Y-11993405D01*
X7354881Y-11983881D01*
X7345357Y-11964833D01*
X7326309Y-11955309D01*
X7297738Y-11955309D01*
X7278690Y-11945786D01*
X7269167Y-11926738D01*
X7269167Y-11917214D01*
X7278690Y-11898167D01*
X7297738Y-11888643D01*
X7326309Y-11888643D01*
X7345357Y-11898167D01*
X7469167Y-12021976D02*
X7450119Y-12012452D01*
X7440595Y-11993405D01*
X7440595Y-11821976D01*
X7573928Y-12021976D02*
X7554881Y-12012452D01*
X7545357Y-12002928D01*
X7535833Y-11983881D01*
X7535833Y-11926738D01*
X7545357Y-11907690D01*
X7554881Y-11898167D01*
X7573928Y-11888643D01*
X7602500Y-11888643D01*
X7621548Y-11898167D01*
X7631071Y-11907690D01*
X7640595Y-11926738D01*
X7640595Y-11983881D01*
X7631071Y-12002928D01*
X7621548Y-12012452D01*
X7602500Y-12021976D01*
X7573928Y-12021976D01*
X7697738Y-11888643D02*
X7773928Y-11888643D01*
X7726309Y-11821976D02*
X7726309Y-11993405D01*
X7735833Y-12012452D01*
X7754881Y-12021976D01*
X7773928Y-12021976D01*
X7831071Y-12012452D02*
X7850119Y-12021976D01*
X7888214Y-12021976D01*
X7907262Y-12012452D01*
X7916786Y-11993405D01*
X7916786Y-11983881D01*
X7907262Y-11964833D01*
X7888214Y-11955309D01*
X7859643Y-11955309D01*
X7840595Y-11945786D01*
X7831071Y-11926738D01*
X7831071Y-11917214D01*
X7840595Y-11898167D01*
X7859643Y-11888643D01*
X7888214Y-11888643D01*
X7907262Y-11898167D01*
X7983452Y-12098167D02*
X7992976Y-12088643D01*
X8012024Y-12060071D01*
X8021548Y-12041024D01*
X8031071Y-12012452D01*
X8040595Y-11964833D01*
X8040595Y-11926738D01*
X8031071Y-11879119D01*
X8021548Y-11850548D01*
X8012024Y-11831500D01*
X7992976Y-11802928D01*
X7983452Y-11793405D01*
D14*
X1552500Y-12155500D02*
X1552500Y-12235500D01*
X1512500Y-12195500D02*
X1592500Y-12195500D01*
D11*
X1888214Y-12085976D02*
X1907262Y-12085976D01*
X1926309Y-12095500D01*
X1935833Y-12105024D01*
X1945357Y-12124071D01*
X1954881Y-12162167D01*
X1954881Y-12209786D01*
X1945357Y-12247881D01*
X1935833Y-12266928D01*
X1926309Y-12276452D01*
X1907262Y-12285976D01*
X1888214Y-12285976D01*
X1869167Y-12276452D01*
X1859643Y-12266928D01*
X1850119Y-12247881D01*
X1840595Y-12209786D01*
X1840595Y-12162167D01*
X1850119Y-12124071D01*
X1859643Y-12105024D01*
X1869167Y-12095500D01*
X1888214Y-12085976D01*
X2040595Y-12266928D02*
X2050119Y-12276452D01*
X2040595Y-12285976D01*
X2031071Y-12276452D01*
X2040595Y-12266928D01*
X2040595Y-12285976D01*
X2164405Y-12171690D02*
X2145357Y-12162167D01*
X2135833Y-12152643D01*
X2126310Y-12133595D01*
X2126310Y-12124071D01*
X2135833Y-12105024D01*
X2145357Y-12095500D01*
X2164405Y-12085976D01*
X2202500Y-12085976D01*
X2221548Y-12095500D01*
X2231071Y-12105024D01*
X2240595Y-12124071D01*
X2240595Y-12133595D01*
X2231071Y-12152643D01*
X2221548Y-12162167D01*
X2202500Y-12171690D01*
X2164405Y-12171690D01*
X2145357Y-12181214D01*
X2135833Y-12190738D01*
X2126310Y-12209786D01*
X2126310Y-12247881D01*
X2135833Y-12266928D01*
X2145357Y-12276452D01*
X2164405Y-12285976D01*
X2202500Y-12285976D01*
X2221548Y-12276452D01*
X2231071Y-12266928D01*
X2240595Y-12247881D01*
X2240595Y-12209786D01*
X2231071Y-12190738D01*
X2221548Y-12181214D01*
X2202500Y-12171690D01*
X2364405Y-12085976D02*
X2383452Y-12085976D01*
X2402500Y-12095500D01*
X2412024Y-12105024D01*
X2421548Y-12124071D01*
X2431071Y-12162167D01*
X2431071Y-12209786D01*
X2421548Y-12247881D01*
X2412024Y-12266928D01*
X2402500Y-12276452D01*
X2383452Y-12285976D01*
X2364405Y-12285976D01*
X2345357Y-12276452D01*
X2335833Y-12266928D01*
X2326310Y-12247881D01*
X2316786Y-12209786D01*
X2316786Y-12162167D01*
X2326310Y-12124071D01*
X2335833Y-12105024D01*
X2345357Y-12095500D01*
X2364405Y-12085976D01*
X2554881Y-12085976D02*
X2573929Y-12085976D01*
X2592976Y-12095500D01*
X2602500Y-12105024D01*
X2612024Y-12124071D01*
X2621548Y-12162167D01*
X2621548Y-12209786D01*
X2612024Y-12247881D01*
X2602500Y-12266928D01*
X2592976Y-12276452D01*
X2573929Y-12285976D01*
X2554881Y-12285976D01*
X2535833Y-12276452D01*
X2526310Y-12266928D01*
X2516786Y-12247881D01*
X2507262Y-12209786D01*
X2507262Y-12162167D01*
X2516786Y-12124071D01*
X2526310Y-12105024D01*
X2535833Y-12095500D01*
X2554881Y-12085976D01*
X2707262Y-12285976D02*
X2707262Y-12152643D01*
X2707262Y-12171690D02*
X2716786Y-12162167D01*
X2735833Y-12152643D01*
X2764405Y-12152643D01*
X2783452Y-12162167D01*
X2792976Y-12181214D01*
X2792976Y-12285976D01*
X2792976Y-12181214D02*
X2802500Y-12162167D01*
X2821548Y-12152643D01*
X2850119Y-12152643D01*
X2869167Y-12162167D01*
X2878690Y-12181214D01*
X2878690Y-12285976D01*
X2973928Y-12285976D02*
X2973928Y-12152643D01*
X2973928Y-12171690D02*
X2983452Y-12162167D01*
X3002500Y-12152643D01*
X3031071Y-12152643D01*
X3050119Y-12162167D01*
X3059643Y-12181214D01*
X3059643Y-12285976D01*
X3059643Y-12181214D02*
X3069167Y-12162167D01*
X3088214Y-12152643D01*
X3116786Y-12152643D01*
X3135833Y-12162167D01*
X3145357Y-12181214D01*
X3145357Y-12285976D01*
X3535833Y-12076452D02*
X3364405Y-12333595D01*
X3792976Y-12085976D02*
X3812024Y-12085976D01*
X3831071Y-12095500D01*
X3840595Y-12105024D01*
X3850119Y-12124071D01*
X3859643Y-12162167D01*
X3859643Y-12209786D01*
X3850119Y-12247881D01*
X3840595Y-12266928D01*
X3831071Y-12276452D01*
X3812024Y-12285976D01*
X3792976Y-12285976D01*
X3773928Y-12276452D01*
X3764405Y-12266928D01*
X3754881Y-12247881D01*
X3745357Y-12209786D01*
X3745357Y-12162167D01*
X3754881Y-12124071D01*
X3764405Y-12105024D01*
X3773928Y-12095500D01*
X3792976Y-12085976D01*
X3945357Y-12266928D02*
X3954881Y-12276452D01*
X3945357Y-12285976D01*
X3935833Y-12276452D01*
X3945357Y-12266928D01*
X3945357Y-12285976D01*
X4078690Y-12085976D02*
X4097738Y-12085976D01*
X4116786Y-12095500D01*
X4126309Y-12105024D01*
X4135833Y-12124071D01*
X4145357Y-12162167D01*
X4145357Y-12209786D01*
X4135833Y-12247881D01*
X4126309Y-12266928D01*
X4116786Y-12276452D01*
X4097738Y-12285976D01*
X4078690Y-12285976D01*
X4059643Y-12276452D01*
X4050119Y-12266928D01*
X4040595Y-12247881D01*
X4031071Y-12209786D01*
X4031071Y-12162167D01*
X4040595Y-12124071D01*
X4050119Y-12105024D01*
X4059643Y-12095500D01*
X4078690Y-12085976D01*
X4212024Y-12085976D02*
X4335833Y-12085976D01*
X4269167Y-12162167D01*
X4297738Y-12162167D01*
X4316786Y-12171690D01*
X4326310Y-12181214D01*
X4335833Y-12200262D01*
X4335833Y-12247881D01*
X4326310Y-12266928D01*
X4316786Y-12276452D01*
X4297738Y-12285976D01*
X4240595Y-12285976D01*
X4221548Y-12276452D01*
X4212024Y-12266928D01*
X4526310Y-12285976D02*
X4412024Y-12285976D01*
X4469167Y-12285976D02*
X4469167Y-12085976D01*
X4450119Y-12114548D01*
X4431071Y-12133595D01*
X4412024Y-12143119D01*
X4707262Y-12085976D02*
X4612024Y-12085976D01*
X4602500Y-12181214D01*
X4612024Y-12171690D01*
X4631071Y-12162167D01*
X4678690Y-12162167D01*
X4697738Y-12171690D01*
X4707262Y-12181214D01*
X4716786Y-12200262D01*
X4716786Y-12247881D01*
X4707262Y-12266928D01*
X4697738Y-12276452D01*
X4678690Y-12285976D01*
X4631071Y-12285976D01*
X4612024Y-12276452D01*
X4602500Y-12266928D01*
X4792976Y-12085976D02*
X4792976Y-12124071D01*
X4869167Y-12085976D02*
X4869167Y-12124071D01*
X5164405Y-12362167D02*
X5154881Y-12352643D01*
X5135833Y-12324071D01*
X5126310Y-12305024D01*
X5116786Y-12276452D01*
X5107262Y-12228833D01*
X5107262Y-12190738D01*
X5116786Y-12143119D01*
X5126310Y-12114548D01*
X5135833Y-12095500D01*
X5154881Y-12066928D01*
X5164405Y-12057405D01*
X5335833Y-12085976D02*
X5240595Y-12085976D01*
X5231071Y-12181214D01*
X5240595Y-12171690D01*
X5259643Y-12162167D01*
X5307262Y-12162167D01*
X5326310Y-12171690D01*
X5335833Y-12181214D01*
X5345357Y-12200262D01*
X5345357Y-12247881D01*
X5335833Y-12266928D01*
X5326310Y-12276452D01*
X5307262Y-12285976D01*
X5259643Y-12285976D01*
X5240595Y-12276452D01*
X5231071Y-12266928D01*
X5516786Y-12085976D02*
X5478690Y-12085976D01*
X5459643Y-12095500D01*
X5450119Y-12105024D01*
X5431071Y-12133595D01*
X5421548Y-12171690D01*
X5421548Y-12247881D01*
X5431071Y-12266928D01*
X5440595Y-12276452D01*
X5459643Y-12285976D01*
X5497738Y-12285976D01*
X5516786Y-12276452D01*
X5526310Y-12266928D01*
X5535833Y-12247881D01*
X5535833Y-12200262D01*
X5526310Y-12181214D01*
X5516786Y-12171690D01*
X5497738Y-12162167D01*
X5459643Y-12162167D01*
X5440595Y-12171690D01*
X5431071Y-12181214D01*
X5421548Y-12200262D01*
X5773928Y-12285976D02*
X5773928Y-12085976D01*
X5859643Y-12285976D02*
X5859643Y-12181214D01*
X5850119Y-12162167D01*
X5831071Y-12152643D01*
X5802500Y-12152643D01*
X5783452Y-12162167D01*
X5773928Y-12171690D01*
X5983452Y-12285976D02*
X5964405Y-12276452D01*
X5954881Y-12266928D01*
X5945357Y-12247881D01*
X5945357Y-12190738D01*
X5954881Y-12171690D01*
X5964405Y-12162167D01*
X5983452Y-12152643D01*
X6012024Y-12152643D01*
X6031071Y-12162167D01*
X6040595Y-12171690D01*
X6050119Y-12190738D01*
X6050119Y-12247881D01*
X6040595Y-12266928D01*
X6031071Y-12276452D01*
X6012024Y-12285976D01*
X5983452Y-12285976D01*
X6164405Y-12285976D02*
X6145357Y-12276452D01*
X6135833Y-12257405D01*
X6135833Y-12085976D01*
X6316786Y-12276452D02*
X6297738Y-12285976D01*
X6259643Y-12285976D01*
X6240595Y-12276452D01*
X6231071Y-12257405D01*
X6231071Y-12181214D01*
X6240595Y-12162167D01*
X6259643Y-12152643D01*
X6297738Y-12152643D01*
X6316786Y-12162167D01*
X6326309Y-12181214D01*
X6326309Y-12200262D01*
X6231071Y-12219309D01*
X6402500Y-12276452D02*
X6421548Y-12285976D01*
X6459643Y-12285976D01*
X6478690Y-12276452D01*
X6488214Y-12257405D01*
X6488214Y-12247881D01*
X6478690Y-12228833D01*
X6459643Y-12219309D01*
X6431071Y-12219309D01*
X6412024Y-12209786D01*
X6402500Y-12190738D01*
X6402500Y-12181214D01*
X6412024Y-12162167D01*
X6431071Y-12152643D01*
X6459643Y-12152643D01*
X6478690Y-12162167D01*
X6554881Y-12362167D02*
X6564405Y-12352643D01*
X6583452Y-12324071D01*
X6592976Y-12305024D01*
X6602500Y-12276452D01*
X6612024Y-12228833D01*
X6612024Y-12190738D01*
X6602500Y-12143119D01*
X6592976Y-12114548D01*
X6583452Y-12095500D01*
X6564405Y-12066928D01*
X6554881Y-12057405D01*
D15*
X1580597Y-12488237D02*
X1580597Y-12430763D01*
X1523123Y-12430763D01*
X1523123Y-12488237D01*
X1580597Y-12488237D01*
D11*
X1888214Y-12349976D02*
X1907262Y-12349976D01*
X1926309Y-12359500D01*
X1935833Y-12369024D01*
X1945357Y-12388071D01*
X1954881Y-12426167D01*
X1954881Y-12473786D01*
X1945357Y-12511881D01*
X1935833Y-12530928D01*
X1926309Y-12540452D01*
X1907262Y-12549976D01*
X1888214Y-12549976D01*
X1869167Y-12540452D01*
X1859643Y-12530928D01*
X1850119Y-12511881D01*
X1840595Y-12473786D01*
X1840595Y-12426167D01*
X1850119Y-12388071D01*
X1859643Y-12369024D01*
X1869167Y-12359500D01*
X1888214Y-12349976D01*
X2040595Y-12530928D02*
X2050119Y-12540452D01*
X2040595Y-12549976D01*
X2031071Y-12540452D01*
X2040595Y-12530928D01*
X2040595Y-12549976D01*
X2164405Y-12435690D02*
X2145357Y-12426167D01*
X2135833Y-12416643D01*
X2126310Y-12397595D01*
X2126310Y-12388071D01*
X2135833Y-12369024D01*
X2145357Y-12359500D01*
X2164405Y-12349976D01*
X2202500Y-12349976D01*
X2221548Y-12359500D01*
X2231071Y-12369024D01*
X2240595Y-12388071D01*
X2240595Y-12397595D01*
X2231071Y-12416643D01*
X2221548Y-12426167D01*
X2202500Y-12435690D01*
X2164405Y-12435690D01*
X2145357Y-12445214D01*
X2135833Y-12454738D01*
X2126310Y-12473786D01*
X2126310Y-12511881D01*
X2135833Y-12530928D01*
X2145357Y-12540452D01*
X2164405Y-12549976D01*
X2202500Y-12549976D01*
X2221548Y-12540452D01*
X2231071Y-12530928D01*
X2240595Y-12511881D01*
X2240595Y-12473786D01*
X2231071Y-12454738D01*
X2221548Y-12445214D01*
X2202500Y-12435690D01*
X2431071Y-12549976D02*
X2316786Y-12549976D01*
X2373929Y-12549976D02*
X2373929Y-12349976D01*
X2354881Y-12378548D01*
X2335833Y-12397595D01*
X2316786Y-12407119D01*
X2497738Y-12349976D02*
X2621548Y-12349976D01*
X2554881Y-12426167D01*
X2583452Y-12426167D01*
X2602500Y-12435690D01*
X2612024Y-12445214D01*
X2621548Y-12464262D01*
X2621548Y-12511881D01*
X2612024Y-12530928D01*
X2602500Y-12540452D01*
X2583452Y-12549976D01*
X2526310Y-12549976D01*
X2507262Y-12540452D01*
X2497738Y-12530928D01*
X2707262Y-12549976D02*
X2707262Y-12416643D01*
X2707262Y-12435690D02*
X2716786Y-12426167D01*
X2735833Y-12416643D01*
X2764405Y-12416643D01*
X2783452Y-12426167D01*
X2792976Y-12445214D01*
X2792976Y-12549976D01*
X2792976Y-12445214D02*
X2802500Y-12426167D01*
X2821548Y-12416643D01*
X2850119Y-12416643D01*
X2869167Y-12426167D01*
X2878690Y-12445214D01*
X2878690Y-12549976D01*
X2973928Y-12549976D02*
X2973928Y-12416643D01*
X2973928Y-12435690D02*
X2983452Y-12426167D01*
X3002500Y-12416643D01*
X3031071Y-12416643D01*
X3050119Y-12426167D01*
X3059643Y-12445214D01*
X3059643Y-12549976D01*
X3059643Y-12445214D02*
X3069167Y-12426167D01*
X3088214Y-12416643D01*
X3116786Y-12416643D01*
X3135833Y-12426167D01*
X3145357Y-12445214D01*
X3145357Y-12549976D01*
X3535833Y-12340452D02*
X3364405Y-12597595D01*
X3792976Y-12349976D02*
X3812024Y-12349976D01*
X3831071Y-12359500D01*
X3840595Y-12369024D01*
X3850119Y-12388071D01*
X3859643Y-12426167D01*
X3859643Y-12473786D01*
X3850119Y-12511881D01*
X3840595Y-12530928D01*
X3831071Y-12540452D01*
X3812024Y-12549976D01*
X3792976Y-12549976D01*
X3773928Y-12540452D01*
X3764405Y-12530928D01*
X3754881Y-12511881D01*
X3745357Y-12473786D01*
X3745357Y-12426167D01*
X3754881Y-12388071D01*
X3764405Y-12369024D01*
X3773928Y-12359500D01*
X3792976Y-12349976D01*
X3945357Y-12530928D02*
X3954881Y-12540452D01*
X3945357Y-12549976D01*
X3935833Y-12540452D01*
X3945357Y-12530928D01*
X3945357Y-12549976D01*
X4078690Y-12349976D02*
X4097738Y-12349976D01*
X4116786Y-12359500D01*
X4126309Y-12369024D01*
X4135833Y-12388071D01*
X4145357Y-12426167D01*
X4145357Y-12473786D01*
X4135833Y-12511881D01*
X4126309Y-12530928D01*
X4116786Y-12540452D01*
X4097738Y-12549976D01*
X4078690Y-12549976D01*
X4059643Y-12540452D01*
X4050119Y-12530928D01*
X4040595Y-12511881D01*
X4031071Y-12473786D01*
X4031071Y-12426167D01*
X4040595Y-12388071D01*
X4050119Y-12369024D01*
X4059643Y-12359500D01*
X4078690Y-12349976D01*
X4212024Y-12349976D02*
X4335833Y-12349976D01*
X4269167Y-12426167D01*
X4297738Y-12426167D01*
X4316786Y-12435690D01*
X4326310Y-12445214D01*
X4335833Y-12464262D01*
X4335833Y-12511881D01*
X4326310Y-12530928D01*
X4316786Y-12540452D01*
X4297738Y-12549976D01*
X4240595Y-12549976D01*
X4221548Y-12540452D01*
X4212024Y-12530928D01*
X4412024Y-12369024D02*
X4421548Y-12359500D01*
X4440595Y-12349976D01*
X4488214Y-12349976D01*
X4507262Y-12359500D01*
X4516786Y-12369024D01*
X4526310Y-12388071D01*
X4526310Y-12407119D01*
X4516786Y-12435690D01*
X4402500Y-12549976D01*
X4526310Y-12549976D01*
X4650119Y-12349976D02*
X4669167Y-12349976D01*
X4688214Y-12359500D01*
X4697738Y-12369024D01*
X4707262Y-12388071D01*
X4716786Y-12426167D01*
X4716786Y-12473786D01*
X4707262Y-12511881D01*
X4697738Y-12530928D01*
X4688214Y-12540452D01*
X4669167Y-12549976D01*
X4650119Y-12549976D01*
X4631071Y-12540452D01*
X4621548Y-12530928D01*
X4612024Y-12511881D01*
X4602500Y-12473786D01*
X4602500Y-12426167D01*
X4612024Y-12388071D01*
X4621548Y-12369024D01*
X4631071Y-12359500D01*
X4650119Y-12349976D01*
X4792976Y-12349976D02*
X4792976Y-12388071D01*
X4869167Y-12349976D02*
X4869167Y-12388071D01*
X5164405Y-12626167D02*
X5154881Y-12616643D01*
X5135833Y-12588071D01*
X5126310Y-12569024D01*
X5116786Y-12540452D01*
X5107262Y-12492833D01*
X5107262Y-12454738D01*
X5116786Y-12407119D01*
X5126310Y-12378548D01*
X5135833Y-12359500D01*
X5154881Y-12330928D01*
X5164405Y-12321405D01*
X5231071Y-12369024D02*
X5240595Y-12359500D01*
X5259643Y-12349976D01*
X5307262Y-12349976D01*
X5326310Y-12359500D01*
X5335833Y-12369024D01*
X5345357Y-12388071D01*
X5345357Y-12407119D01*
X5335833Y-12435690D01*
X5221548Y-12549976D01*
X5345357Y-12549976D01*
X5516786Y-12416643D02*
X5516786Y-12549976D01*
X5469167Y-12340452D02*
X5421548Y-12483309D01*
X5545357Y-12483309D01*
X5773928Y-12549976D02*
X5773928Y-12349976D01*
X5859643Y-12549976D02*
X5859643Y-12445214D01*
X5850119Y-12426167D01*
X5831071Y-12416643D01*
X5802500Y-12416643D01*
X5783452Y-12426167D01*
X5773928Y-12435690D01*
X5983452Y-12549976D02*
X5964405Y-12540452D01*
X5954881Y-12530928D01*
X5945357Y-12511881D01*
X5945357Y-12454738D01*
X5954881Y-12435690D01*
X5964405Y-12426167D01*
X5983452Y-12416643D01*
X6012024Y-12416643D01*
X6031071Y-12426167D01*
X6040595Y-12435690D01*
X6050119Y-12454738D01*
X6050119Y-12511881D01*
X6040595Y-12530928D01*
X6031071Y-12540452D01*
X6012024Y-12549976D01*
X5983452Y-12549976D01*
X6164405Y-12549976D02*
X6145357Y-12540452D01*
X6135833Y-12521405D01*
X6135833Y-12349976D01*
X6316786Y-12540452D02*
X6297738Y-12549976D01*
X6259643Y-12549976D01*
X6240595Y-12540452D01*
X6231071Y-12521405D01*
X6231071Y-12445214D01*
X6240595Y-12426167D01*
X6259643Y-12416643D01*
X6297738Y-12416643D01*
X6316786Y-12426167D01*
X6326309Y-12445214D01*
X6326309Y-12464262D01*
X6231071Y-12483309D01*
X6402500Y-12540452D02*
X6421548Y-12549976D01*
X6459643Y-12549976D01*
X6478690Y-12540452D01*
X6488214Y-12521405D01*
X6488214Y-12511881D01*
X6478690Y-12492833D01*
X6459643Y-12483309D01*
X6431071Y-12483309D01*
X6412024Y-12473786D01*
X6402500Y-12454738D01*
X6402500Y-12445214D01*
X6412024Y-12426167D01*
X6431071Y-12416643D01*
X6459643Y-12416643D01*
X6478690Y-12426167D01*
X6554881Y-12626167D02*
X6564405Y-12616643D01*
X6583452Y-12588071D01*
X6592976Y-12569024D01*
X6602500Y-12540452D01*
X6612024Y-12492833D01*
X6612024Y-12454738D01*
X6602500Y-12407119D01*
X6592976Y-12378548D01*
X6583452Y-12359500D01*
X6564405Y-12330928D01*
X6554881Y-12321405D01*
D16*
X1550000Y-12766000D02*
X1592500Y-12723500D01*
X1550000Y-12681000D01*
X1507500Y-12723500D01*
X1550000Y-12766000D01*
D11*
X1888214Y-12613976D02*
X1907262Y-12613976D01*
X1926309Y-12623500D01*
X1935833Y-12633024D01*
X1945357Y-12652071D01*
X1954881Y-12690167D01*
X1954881Y-12737786D01*
X1945357Y-12775881D01*
X1935833Y-12794928D01*
X1926309Y-12804452D01*
X1907262Y-12813976D01*
X1888214Y-12813976D01*
X1869167Y-12804452D01*
X1859643Y-12794928D01*
X1850119Y-12775881D01*
X1840595Y-12737786D01*
X1840595Y-12690167D01*
X1850119Y-12652071D01*
X1859643Y-12633024D01*
X1869167Y-12623500D01*
X1888214Y-12613976D01*
X2040595Y-12794928D02*
X2050119Y-12804452D01*
X2040595Y-12813976D01*
X2031071Y-12804452D01*
X2040595Y-12794928D01*
X2040595Y-12813976D01*
X2164405Y-12699690D02*
X2145357Y-12690167D01*
X2135833Y-12680643D01*
X2126310Y-12661595D01*
X2126310Y-12652071D01*
X2135833Y-12633024D01*
X2145357Y-12623500D01*
X2164405Y-12613976D01*
X2202500Y-12613976D01*
X2221548Y-12623500D01*
X2231071Y-12633024D01*
X2240595Y-12652071D01*
X2240595Y-12661595D01*
X2231071Y-12680643D01*
X2221548Y-12690167D01*
X2202500Y-12699690D01*
X2164405Y-12699690D01*
X2145357Y-12709214D01*
X2135833Y-12718738D01*
X2126310Y-12737786D01*
X2126310Y-12775881D01*
X2135833Y-12794928D01*
X2145357Y-12804452D01*
X2164405Y-12813976D01*
X2202500Y-12813976D01*
X2221548Y-12804452D01*
X2231071Y-12794928D01*
X2240595Y-12775881D01*
X2240595Y-12737786D01*
X2231071Y-12718738D01*
X2221548Y-12709214D01*
X2202500Y-12699690D01*
X2421548Y-12613976D02*
X2326310Y-12613976D01*
X2316786Y-12709214D01*
X2326310Y-12699690D01*
X2345357Y-12690167D01*
X2392976Y-12690167D01*
X2412024Y-12699690D01*
X2421548Y-12709214D01*
X2431071Y-12728262D01*
X2431071Y-12775881D01*
X2421548Y-12794928D01*
X2412024Y-12804452D01*
X2392976Y-12813976D01*
X2345357Y-12813976D01*
X2326310Y-12804452D01*
X2316786Y-12794928D01*
X2554881Y-12613976D02*
X2573929Y-12613976D01*
X2592976Y-12623500D01*
X2602500Y-12633024D01*
X2612024Y-12652071D01*
X2621548Y-12690167D01*
X2621548Y-12737786D01*
X2612024Y-12775881D01*
X2602500Y-12794928D01*
X2592976Y-12804452D01*
X2573929Y-12813976D01*
X2554881Y-12813976D01*
X2535833Y-12804452D01*
X2526310Y-12794928D01*
X2516786Y-12775881D01*
X2507262Y-12737786D01*
X2507262Y-12690167D01*
X2516786Y-12652071D01*
X2526310Y-12633024D01*
X2535833Y-12623500D01*
X2554881Y-12613976D01*
X2707262Y-12813976D02*
X2707262Y-12680643D01*
X2707262Y-12699690D02*
X2716786Y-12690167D01*
X2735833Y-12680643D01*
X2764405Y-12680643D01*
X2783452Y-12690167D01*
X2792976Y-12709214D01*
X2792976Y-12813976D01*
X2792976Y-12709214D02*
X2802500Y-12690167D01*
X2821548Y-12680643D01*
X2850119Y-12680643D01*
X2869167Y-12690167D01*
X2878690Y-12709214D01*
X2878690Y-12813976D01*
X2973928Y-12813976D02*
X2973928Y-12680643D01*
X2973928Y-12699690D02*
X2983452Y-12690167D01*
X3002500Y-12680643D01*
X3031071Y-12680643D01*
X3050119Y-12690167D01*
X3059643Y-12709214D01*
X3059643Y-12813976D01*
X3059643Y-12709214D02*
X3069167Y-12690167D01*
X3088214Y-12680643D01*
X3116786Y-12680643D01*
X3135833Y-12690167D01*
X3145357Y-12709214D01*
X3145357Y-12813976D01*
X3535833Y-12604452D02*
X3364405Y-12861595D01*
X3792976Y-12613976D02*
X3812024Y-12613976D01*
X3831071Y-12623500D01*
X3840595Y-12633024D01*
X3850119Y-12652071D01*
X3859643Y-12690167D01*
X3859643Y-12737786D01*
X3850119Y-12775881D01*
X3840595Y-12794928D01*
X3831071Y-12804452D01*
X3812024Y-12813976D01*
X3792976Y-12813976D01*
X3773928Y-12804452D01*
X3764405Y-12794928D01*
X3754881Y-12775881D01*
X3745357Y-12737786D01*
X3745357Y-12690167D01*
X3754881Y-12652071D01*
X3764405Y-12633024D01*
X3773928Y-12623500D01*
X3792976Y-12613976D01*
X3945357Y-12794928D02*
X3954881Y-12804452D01*
X3945357Y-12813976D01*
X3935833Y-12804452D01*
X3945357Y-12794928D01*
X3945357Y-12813976D01*
X4078690Y-12613976D02*
X4097738Y-12613976D01*
X4116786Y-12623500D01*
X4126309Y-12633024D01*
X4135833Y-12652071D01*
X4145357Y-12690167D01*
X4145357Y-12737786D01*
X4135833Y-12775881D01*
X4126309Y-12794928D01*
X4116786Y-12804452D01*
X4097738Y-12813976D01*
X4078690Y-12813976D01*
X4059643Y-12804452D01*
X4050119Y-12794928D01*
X4040595Y-12775881D01*
X4031071Y-12737786D01*
X4031071Y-12690167D01*
X4040595Y-12652071D01*
X4050119Y-12633024D01*
X4059643Y-12623500D01*
X4078690Y-12613976D01*
X4212024Y-12613976D02*
X4335833Y-12613976D01*
X4269167Y-12690167D01*
X4297738Y-12690167D01*
X4316786Y-12699690D01*
X4326310Y-12709214D01*
X4335833Y-12728262D01*
X4335833Y-12775881D01*
X4326310Y-12794928D01*
X4316786Y-12804452D01*
X4297738Y-12813976D01*
X4240595Y-12813976D01*
X4221548Y-12804452D01*
X4212024Y-12794928D01*
X4402500Y-12613976D02*
X4526310Y-12613976D01*
X4459643Y-12690167D01*
X4488214Y-12690167D01*
X4507262Y-12699690D01*
X4516786Y-12709214D01*
X4526310Y-12728262D01*
X4526310Y-12775881D01*
X4516786Y-12794928D01*
X4507262Y-12804452D01*
X4488214Y-12813976D01*
X4431071Y-12813976D01*
X4412024Y-12804452D01*
X4402500Y-12794928D01*
X4707262Y-12613976D02*
X4612024Y-12613976D01*
X4602500Y-12709214D01*
X4612024Y-12699690D01*
X4631071Y-12690167D01*
X4678690Y-12690167D01*
X4697738Y-12699690D01*
X4707262Y-12709214D01*
X4716786Y-12728262D01*
X4716786Y-12775881D01*
X4707262Y-12794928D01*
X4697738Y-12804452D01*
X4678690Y-12813976D01*
X4631071Y-12813976D01*
X4612024Y-12804452D01*
X4602500Y-12794928D01*
X4792976Y-12613976D02*
X4792976Y-12652071D01*
X4869167Y-12613976D02*
X4869167Y-12652071D01*
X5164405Y-12890167D02*
X5154881Y-12880643D01*
X5135833Y-12852071D01*
X5126310Y-12833024D01*
X5116786Y-12804452D01*
X5107262Y-12756833D01*
X5107262Y-12718738D01*
X5116786Y-12671119D01*
X5126310Y-12642548D01*
X5135833Y-12623500D01*
X5154881Y-12594928D01*
X5164405Y-12585405D01*
X5278690Y-12613976D02*
X5297738Y-12613976D01*
X5316786Y-12623500D01*
X5326310Y-12633024D01*
X5335833Y-12652071D01*
X5345357Y-12690167D01*
X5345357Y-12737786D01*
X5335833Y-12775881D01*
X5326310Y-12794928D01*
X5316786Y-12804452D01*
X5297738Y-12813976D01*
X5278690Y-12813976D01*
X5259643Y-12804452D01*
X5250119Y-12794928D01*
X5240595Y-12775881D01*
X5231071Y-12737786D01*
X5231071Y-12690167D01*
X5240595Y-12652071D01*
X5250119Y-12633024D01*
X5259643Y-12623500D01*
X5278690Y-12613976D01*
X5583452Y-12813976D02*
X5583452Y-12613976D01*
X5669167Y-12813976D02*
X5669167Y-12709214D01*
X5659643Y-12690167D01*
X5640595Y-12680643D01*
X5612024Y-12680643D01*
X5592976Y-12690167D01*
X5583452Y-12699690D01*
X5792976Y-12813976D02*
X5773928Y-12804452D01*
X5764405Y-12794928D01*
X5754881Y-12775881D01*
X5754881Y-12718738D01*
X5764405Y-12699690D01*
X5773928Y-12690167D01*
X5792976Y-12680643D01*
X5821548Y-12680643D01*
X5840595Y-12690167D01*
X5850119Y-12699690D01*
X5859643Y-12718738D01*
X5859643Y-12775881D01*
X5850119Y-12794928D01*
X5840595Y-12804452D01*
X5821548Y-12813976D01*
X5792976Y-12813976D01*
X5973928Y-12813976D02*
X5954881Y-12804452D01*
X5945357Y-12785405D01*
X5945357Y-12613976D01*
X6126309Y-12804452D02*
X6107262Y-12813976D01*
X6069167Y-12813976D01*
X6050119Y-12804452D01*
X6040595Y-12785405D01*
X6040595Y-12709214D01*
X6050119Y-12690167D01*
X6069167Y-12680643D01*
X6107262Y-12680643D01*
X6126309Y-12690167D01*
X6135833Y-12709214D01*
X6135833Y-12728262D01*
X6040595Y-12747309D01*
X6212024Y-12804452D02*
X6231071Y-12813976D01*
X6269167Y-12813976D01*
X6288214Y-12804452D01*
X6297738Y-12785405D01*
X6297738Y-12775881D01*
X6288214Y-12756833D01*
X6269167Y-12747309D01*
X6240595Y-12747309D01*
X6221548Y-12737786D01*
X6212024Y-12718738D01*
X6212024Y-12709214D01*
X6221548Y-12690167D01*
X6240595Y-12680643D01*
X6269167Y-12680643D01*
X6288214Y-12690167D01*
X6535833Y-12737786D02*
X6688214Y-12737786D01*
X6612024Y-12813976D02*
X6612024Y-12661595D01*
X6926309Y-12633024D02*
X6935833Y-12623500D01*
X6954881Y-12613976D01*
X7002500Y-12613976D01*
X7021548Y-12623500D01*
X7031071Y-12633024D01*
X7040595Y-12652071D01*
X7040595Y-12671119D01*
X7031071Y-12699690D01*
X6916786Y-12813976D01*
X7040595Y-12813976D01*
X7269167Y-12804452D02*
X7288214Y-12813976D01*
X7326309Y-12813976D01*
X7345357Y-12804452D01*
X7354881Y-12785405D01*
X7354881Y-12775881D01*
X7345357Y-12756833D01*
X7326309Y-12747309D01*
X7297738Y-12747309D01*
X7278690Y-12737786D01*
X7269167Y-12718738D01*
X7269167Y-12709214D01*
X7278690Y-12690167D01*
X7297738Y-12680643D01*
X7326309Y-12680643D01*
X7345357Y-12690167D01*
X7469167Y-12813976D02*
X7450119Y-12804452D01*
X7440595Y-12785405D01*
X7440595Y-12613976D01*
X7573928Y-12813976D02*
X7554881Y-12804452D01*
X7545357Y-12794928D01*
X7535833Y-12775881D01*
X7535833Y-12718738D01*
X7545357Y-12699690D01*
X7554881Y-12690167D01*
X7573928Y-12680643D01*
X7602500Y-12680643D01*
X7621548Y-12690167D01*
X7631071Y-12699690D01*
X7640595Y-12718738D01*
X7640595Y-12775881D01*
X7631071Y-12794928D01*
X7621548Y-12804452D01*
X7602500Y-12813976D01*
X7573928Y-12813976D01*
X7697738Y-12680643D02*
X7773928Y-12680643D01*
X7726309Y-12613976D02*
X7726309Y-12785405D01*
X7735833Y-12804452D01*
X7754881Y-12813976D01*
X7773928Y-12813976D01*
X7831071Y-12804452D02*
X7850119Y-12813976D01*
X7888214Y-12813976D01*
X7907262Y-12804452D01*
X7916786Y-12785405D01*
X7916786Y-12775881D01*
X7907262Y-12756833D01*
X7888214Y-12747309D01*
X7859643Y-12747309D01*
X7840595Y-12737786D01*
X7831071Y-12718738D01*
X7831071Y-12709214D01*
X7840595Y-12690167D01*
X7859643Y-12680643D01*
X7888214Y-12680643D01*
X7907262Y-12690167D01*
X7983452Y-12890167D02*
X7992976Y-12880643D01*
X8012024Y-12852071D01*
X8021548Y-12833024D01*
X8031071Y-12804452D01*
X8040595Y-12756833D01*
X8040595Y-12718738D01*
X8031071Y-12671119D01*
X8021548Y-12642548D01*
X8012024Y-12623500D01*
X7992976Y-12594928D01*
X7983452Y-12585405D01*
D17*
X1502500Y-12942500D02*
X1592500Y-13032500D01*
X1592500Y-12942500D02*
X1502500Y-13032500D01*
X1592500Y-12987500D02*
G75*
G03*
X1592500Y-12987500I-45000J0D01*
G01*
D11*
X1888214Y-12877976D02*
X1907262Y-12877976D01*
X1926309Y-12887500D01*
X1935833Y-12897024D01*
X1945357Y-12916071D01*
X1954881Y-12954167D01*
X1954881Y-13001786D01*
X1945357Y-13039881D01*
X1935833Y-13058928D01*
X1926309Y-13068452D01*
X1907262Y-13077976D01*
X1888214Y-13077976D01*
X1869167Y-13068452D01*
X1859643Y-13058928D01*
X1850119Y-13039881D01*
X1840595Y-13001786D01*
X1840595Y-12954167D01*
X1850119Y-12916071D01*
X1859643Y-12897024D01*
X1869167Y-12887500D01*
X1888214Y-12877976D01*
X2040595Y-13058928D02*
X2050119Y-13068452D01*
X2040595Y-13077976D01*
X2031071Y-13068452D01*
X2040595Y-13058928D01*
X2040595Y-13077976D01*
X2145357Y-13077976D02*
X2183452Y-13077976D01*
X2202500Y-13068452D01*
X2212024Y-13058928D01*
X2231071Y-13030357D01*
X2240595Y-12992262D01*
X2240595Y-12916071D01*
X2231071Y-12897024D01*
X2221548Y-12887500D01*
X2202500Y-12877976D01*
X2164405Y-12877976D01*
X2145357Y-12887500D01*
X2135833Y-12897024D01*
X2126310Y-12916071D01*
X2126310Y-12963690D01*
X2135833Y-12982738D01*
X2145357Y-12992262D01*
X2164405Y-13001786D01*
X2202500Y-13001786D01*
X2221548Y-12992262D01*
X2231071Y-12982738D01*
X2240595Y-12963690D01*
X2364405Y-12877976D02*
X2383452Y-12877976D01*
X2402500Y-12887500D01*
X2412024Y-12897024D01*
X2421548Y-12916071D01*
X2431071Y-12954167D01*
X2431071Y-13001786D01*
X2421548Y-13039881D01*
X2412024Y-13058928D01*
X2402500Y-13068452D01*
X2383452Y-13077976D01*
X2364405Y-13077976D01*
X2345357Y-13068452D01*
X2335833Y-13058928D01*
X2326310Y-13039881D01*
X2316786Y-13001786D01*
X2316786Y-12954167D01*
X2326310Y-12916071D01*
X2335833Y-12897024D01*
X2345357Y-12887500D01*
X2364405Y-12877976D01*
X2554881Y-12877976D02*
X2573929Y-12877976D01*
X2592976Y-12887500D01*
X2602500Y-12897024D01*
X2612024Y-12916071D01*
X2621548Y-12954167D01*
X2621548Y-13001786D01*
X2612024Y-13039881D01*
X2602500Y-13058928D01*
X2592976Y-13068452D01*
X2573929Y-13077976D01*
X2554881Y-13077976D01*
X2535833Y-13068452D01*
X2526310Y-13058928D01*
X2516786Y-13039881D01*
X2507262Y-13001786D01*
X2507262Y-12954167D01*
X2516786Y-12916071D01*
X2526310Y-12897024D01*
X2535833Y-12887500D01*
X2554881Y-12877976D01*
X2707262Y-13077976D02*
X2707262Y-12944643D01*
X2707262Y-12963690D02*
X2716786Y-12954167D01*
X2735833Y-12944643D01*
X2764405Y-12944643D01*
X2783452Y-12954167D01*
X2792976Y-12973214D01*
X2792976Y-13077976D01*
X2792976Y-12973214D02*
X2802500Y-12954167D01*
X2821548Y-12944643D01*
X2850119Y-12944643D01*
X2869167Y-12954167D01*
X2878690Y-12973214D01*
X2878690Y-13077976D01*
X2973928Y-13077976D02*
X2973928Y-12944643D01*
X2973928Y-12963690D02*
X2983452Y-12954167D01*
X3002500Y-12944643D01*
X3031071Y-12944643D01*
X3050119Y-12954167D01*
X3059643Y-12973214D01*
X3059643Y-13077976D01*
X3059643Y-12973214D02*
X3069167Y-12954167D01*
X3088214Y-12944643D01*
X3116786Y-12944643D01*
X3135833Y-12954167D01*
X3145357Y-12973214D01*
X3145357Y-13077976D01*
X3535833Y-12868452D02*
X3364405Y-13125595D01*
X3792976Y-12877976D02*
X3812024Y-12877976D01*
X3831071Y-12887500D01*
X3840595Y-12897024D01*
X3850119Y-12916071D01*
X3859643Y-12954167D01*
X3859643Y-13001786D01*
X3850119Y-13039881D01*
X3840595Y-13058928D01*
X3831071Y-13068452D01*
X3812024Y-13077976D01*
X3792976Y-13077976D01*
X3773928Y-13068452D01*
X3764405Y-13058928D01*
X3754881Y-13039881D01*
X3745357Y-13001786D01*
X3745357Y-12954167D01*
X3754881Y-12916071D01*
X3764405Y-12897024D01*
X3773928Y-12887500D01*
X3792976Y-12877976D01*
X3945357Y-13058928D02*
X3954881Y-13068452D01*
X3945357Y-13077976D01*
X3935833Y-13068452D01*
X3945357Y-13058928D01*
X3945357Y-13077976D01*
X4078690Y-12877976D02*
X4097738Y-12877976D01*
X4116786Y-12887500D01*
X4126309Y-12897024D01*
X4135833Y-12916071D01*
X4145357Y-12954167D01*
X4145357Y-13001786D01*
X4135833Y-13039881D01*
X4126309Y-13058928D01*
X4116786Y-13068452D01*
X4097738Y-13077976D01*
X4078690Y-13077976D01*
X4059643Y-13068452D01*
X4050119Y-13058928D01*
X4040595Y-13039881D01*
X4031071Y-13001786D01*
X4031071Y-12954167D01*
X4040595Y-12916071D01*
X4050119Y-12897024D01*
X4059643Y-12887500D01*
X4078690Y-12877976D01*
X4212024Y-12877976D02*
X4335833Y-12877976D01*
X4269167Y-12954167D01*
X4297738Y-12954167D01*
X4316786Y-12963690D01*
X4326310Y-12973214D01*
X4335833Y-12992262D01*
X4335833Y-13039881D01*
X4326310Y-13058928D01*
X4316786Y-13068452D01*
X4297738Y-13077976D01*
X4240595Y-13077976D01*
X4221548Y-13068452D01*
X4212024Y-13058928D01*
X4516786Y-12877976D02*
X4421548Y-12877976D01*
X4412024Y-12973214D01*
X4421548Y-12963690D01*
X4440595Y-12954167D01*
X4488214Y-12954167D01*
X4507262Y-12963690D01*
X4516786Y-12973214D01*
X4526310Y-12992262D01*
X4526310Y-13039881D01*
X4516786Y-13058928D01*
X4507262Y-13068452D01*
X4488214Y-13077976D01*
X4440595Y-13077976D01*
X4421548Y-13068452D01*
X4412024Y-13058928D01*
X4697738Y-12944643D02*
X4697738Y-13077976D01*
X4650119Y-12868452D02*
X4602500Y-13011309D01*
X4726310Y-13011309D01*
X4792976Y-12877976D02*
X4792976Y-12916071D01*
X4869167Y-12877976D02*
X4869167Y-12916071D01*
X5164405Y-13154167D02*
X5154881Y-13144643D01*
X5135833Y-13116071D01*
X5126310Y-13097024D01*
X5116786Y-13068452D01*
X5107262Y-13020833D01*
X5107262Y-12982738D01*
X5116786Y-12935119D01*
X5126310Y-12906548D01*
X5135833Y-12887500D01*
X5154881Y-12858928D01*
X5164405Y-12849405D01*
X5231071Y-12897024D02*
X5240595Y-12887500D01*
X5259643Y-12877976D01*
X5307262Y-12877976D01*
X5326310Y-12887500D01*
X5335833Y-12897024D01*
X5345357Y-12916071D01*
X5345357Y-12935119D01*
X5335833Y-12963690D01*
X5221548Y-13077976D01*
X5345357Y-13077976D01*
X5583452Y-13077976D02*
X5583452Y-12877976D01*
X5669167Y-13077976D02*
X5669167Y-12973214D01*
X5659643Y-12954167D01*
X5640595Y-12944643D01*
X5612024Y-12944643D01*
X5592976Y-12954167D01*
X5583452Y-12963690D01*
X5792976Y-13077976D02*
X5773928Y-13068452D01*
X5764405Y-13058928D01*
X5754881Y-13039881D01*
X5754881Y-12982738D01*
X5764405Y-12963690D01*
X5773928Y-12954167D01*
X5792976Y-12944643D01*
X5821548Y-12944643D01*
X5840595Y-12954167D01*
X5850119Y-12963690D01*
X5859643Y-12982738D01*
X5859643Y-13039881D01*
X5850119Y-13058928D01*
X5840595Y-13068452D01*
X5821548Y-13077976D01*
X5792976Y-13077976D01*
X5973928Y-13077976D02*
X5954881Y-13068452D01*
X5945357Y-13049405D01*
X5945357Y-12877976D01*
X6126309Y-13068452D02*
X6107262Y-13077976D01*
X6069167Y-13077976D01*
X6050119Y-13068452D01*
X6040595Y-13049405D01*
X6040595Y-12973214D01*
X6050119Y-12954167D01*
X6069167Y-12944643D01*
X6107262Y-12944643D01*
X6126309Y-12954167D01*
X6135833Y-12973214D01*
X6135833Y-12992262D01*
X6040595Y-13011309D01*
X6212024Y-13068452D02*
X6231071Y-13077976D01*
X6269167Y-13077976D01*
X6288214Y-13068452D01*
X6297738Y-13049405D01*
X6297738Y-13039881D01*
X6288214Y-13020833D01*
X6269167Y-13011309D01*
X6240595Y-13011309D01*
X6221548Y-13001786D01*
X6212024Y-12982738D01*
X6212024Y-12973214D01*
X6221548Y-12954167D01*
X6240595Y-12944643D01*
X6269167Y-12944643D01*
X6288214Y-12954167D01*
X6364405Y-13154167D02*
X6373928Y-13144643D01*
X6392976Y-13116071D01*
X6402500Y-13097024D01*
X6412024Y-13068452D01*
X6421548Y-13020833D01*
X6421548Y-12982738D01*
X6412024Y-12935119D01*
X6402500Y-12906548D01*
X6392976Y-12887500D01*
X6373928Y-12858928D01*
X6364405Y-12849405D01*
D18*
X1482500Y-13196500D02*
X1592500Y-13306500D01*
X1592500Y-13196500D02*
X1482500Y-13306500D01*
X1537500Y-13196500D02*
X1537500Y-13306500D01*
X1482500Y-13251500D02*
X1592500Y-13251500D01*
D11*
X1954881Y-13341976D02*
X1840595Y-13341976D01*
X1897738Y-13341976D02*
X1897738Y-13141976D01*
X1878690Y-13170548D01*
X1859643Y-13189595D01*
X1840595Y-13199119D01*
X2040595Y-13322928D02*
X2050119Y-13332452D01*
X2040595Y-13341976D01*
X2031071Y-13332452D01*
X2040595Y-13322928D01*
X2040595Y-13341976D01*
X2240595Y-13341976D02*
X2126310Y-13341976D01*
X2183452Y-13341976D02*
X2183452Y-13141976D01*
X2164405Y-13170548D01*
X2145357Y-13189595D01*
X2126310Y-13199119D01*
X2364405Y-13141976D02*
X2383452Y-13141976D01*
X2402500Y-13151500D01*
X2412024Y-13161024D01*
X2421548Y-13180071D01*
X2431071Y-13218167D01*
X2431071Y-13265786D01*
X2421548Y-13303881D01*
X2412024Y-13322928D01*
X2402500Y-13332452D01*
X2383452Y-13341976D01*
X2364405Y-13341976D01*
X2345357Y-13332452D01*
X2335833Y-13322928D01*
X2326310Y-13303881D01*
X2316786Y-13265786D01*
X2316786Y-13218167D01*
X2326310Y-13180071D01*
X2335833Y-13161024D01*
X2345357Y-13151500D01*
X2364405Y-13141976D01*
X2554881Y-13141976D02*
X2573929Y-13141976D01*
X2592976Y-13151500D01*
X2602500Y-13161024D01*
X2612024Y-13180071D01*
X2621548Y-13218167D01*
X2621548Y-13265786D01*
X2612024Y-13303881D01*
X2602500Y-13322928D01*
X2592976Y-13332452D01*
X2573929Y-13341976D01*
X2554881Y-13341976D01*
X2535833Y-13332452D01*
X2526310Y-13322928D01*
X2516786Y-13303881D01*
X2507262Y-13265786D01*
X2507262Y-13218167D01*
X2516786Y-13180071D01*
X2526310Y-13161024D01*
X2535833Y-13151500D01*
X2554881Y-13141976D01*
X2707262Y-13341976D02*
X2707262Y-13208643D01*
X2707262Y-13227690D02*
X2716786Y-13218167D01*
X2735833Y-13208643D01*
X2764405Y-13208643D01*
X2783452Y-13218167D01*
X2792976Y-13237214D01*
X2792976Y-13341976D01*
X2792976Y-13237214D02*
X2802500Y-13218167D01*
X2821548Y-13208643D01*
X2850119Y-13208643D01*
X2869167Y-13218167D01*
X2878690Y-13237214D01*
X2878690Y-13341976D01*
X2973928Y-13341976D02*
X2973928Y-13208643D01*
X2973928Y-13227690D02*
X2983452Y-13218167D01*
X3002500Y-13208643D01*
X3031071Y-13208643D01*
X3050119Y-13218167D01*
X3059643Y-13237214D01*
X3059643Y-13341976D01*
X3059643Y-13237214D02*
X3069167Y-13218167D01*
X3088214Y-13208643D01*
X3116786Y-13208643D01*
X3135833Y-13218167D01*
X3145357Y-13237214D01*
X3145357Y-13341976D01*
X3535833Y-13132452D02*
X3364405Y-13389595D01*
X3792976Y-13141976D02*
X3812024Y-13141976D01*
X3831071Y-13151500D01*
X3840595Y-13161024D01*
X3850119Y-13180071D01*
X3859643Y-13218167D01*
X3859643Y-13265786D01*
X3850119Y-13303881D01*
X3840595Y-13322928D01*
X3831071Y-13332452D01*
X3812024Y-13341976D01*
X3792976Y-13341976D01*
X3773928Y-13332452D01*
X3764405Y-13322928D01*
X3754881Y-13303881D01*
X3745357Y-13265786D01*
X3745357Y-13218167D01*
X3754881Y-13180071D01*
X3764405Y-13161024D01*
X3773928Y-13151500D01*
X3792976Y-13141976D01*
X3945357Y-13322928D02*
X3954881Y-13332452D01*
X3945357Y-13341976D01*
X3935833Y-13332452D01*
X3945357Y-13322928D01*
X3945357Y-13341976D01*
X4078690Y-13141976D02*
X4097738Y-13141976D01*
X4116786Y-13151500D01*
X4126309Y-13161024D01*
X4135833Y-13180071D01*
X4145357Y-13218167D01*
X4145357Y-13265786D01*
X4135833Y-13303881D01*
X4126309Y-13322928D01*
X4116786Y-13332452D01*
X4097738Y-13341976D01*
X4078690Y-13341976D01*
X4059643Y-13332452D01*
X4050119Y-13322928D01*
X4040595Y-13303881D01*
X4031071Y-13265786D01*
X4031071Y-13218167D01*
X4040595Y-13180071D01*
X4050119Y-13161024D01*
X4059643Y-13151500D01*
X4078690Y-13141976D01*
X4316786Y-13208643D02*
X4316786Y-13341976D01*
X4269167Y-13132452D02*
X4221548Y-13275309D01*
X4345357Y-13275309D01*
X4402500Y-13141976D02*
X4526310Y-13141976D01*
X4459643Y-13218167D01*
X4488214Y-13218167D01*
X4507262Y-13227690D01*
X4516786Y-13237214D01*
X4526310Y-13256262D01*
X4526310Y-13303881D01*
X4516786Y-13322928D01*
X4507262Y-13332452D01*
X4488214Y-13341976D01*
X4431071Y-13341976D01*
X4412024Y-13332452D01*
X4402500Y-13322928D01*
X4592976Y-13141976D02*
X4716786Y-13141976D01*
X4650119Y-13218167D01*
X4678690Y-13218167D01*
X4697738Y-13227690D01*
X4707262Y-13237214D01*
X4716786Y-13256262D01*
X4716786Y-13303881D01*
X4707262Y-13322928D01*
X4697738Y-13332452D01*
X4678690Y-13341976D01*
X4621548Y-13341976D01*
X4602500Y-13332452D01*
X4592976Y-13322928D01*
X4792976Y-13141976D02*
X4792976Y-13180071D01*
X4869167Y-13141976D02*
X4869167Y-13180071D01*
X5164405Y-13418167D02*
X5154881Y-13408643D01*
X5135833Y-13380071D01*
X5126310Y-13361024D01*
X5116786Y-13332452D01*
X5107262Y-13284833D01*
X5107262Y-13246738D01*
X5116786Y-13199119D01*
X5126310Y-13170548D01*
X5135833Y-13151500D01*
X5154881Y-13122928D01*
X5164405Y-13113405D01*
X5326310Y-13208643D02*
X5326310Y-13341976D01*
X5278690Y-13132452D02*
X5231071Y-13275309D01*
X5354881Y-13275309D01*
X5583452Y-13341976D02*
X5583452Y-13141976D01*
X5669167Y-13341976D02*
X5669167Y-13237214D01*
X5659643Y-13218167D01*
X5640595Y-13208643D01*
X5612024Y-13208643D01*
X5592976Y-13218167D01*
X5583452Y-13227690D01*
X5792976Y-13341976D02*
X5773928Y-13332452D01*
X5764405Y-13322928D01*
X5754881Y-13303881D01*
X5754881Y-13246738D01*
X5764405Y-13227690D01*
X5773928Y-13218167D01*
X5792976Y-13208643D01*
X5821548Y-13208643D01*
X5840595Y-13218167D01*
X5850119Y-13227690D01*
X5859643Y-13246738D01*
X5859643Y-13303881D01*
X5850119Y-13322928D01*
X5840595Y-13332452D01*
X5821548Y-13341976D01*
X5792976Y-13341976D01*
X5973928Y-13341976D02*
X5954881Y-13332452D01*
X5945357Y-13313405D01*
X5945357Y-13141976D01*
X6126309Y-13332452D02*
X6107262Y-13341976D01*
X6069167Y-13341976D01*
X6050119Y-13332452D01*
X6040595Y-13313405D01*
X6040595Y-13237214D01*
X6050119Y-13218167D01*
X6069167Y-13208643D01*
X6107262Y-13208643D01*
X6126309Y-13218167D01*
X6135833Y-13237214D01*
X6135833Y-13256262D01*
X6040595Y-13275309D01*
X6212024Y-13332452D02*
X6231071Y-13341976D01*
X6269167Y-13341976D01*
X6288214Y-13332452D01*
X6297738Y-13313405D01*
X6297738Y-13303881D01*
X6288214Y-13284833D01*
X6269167Y-13275309D01*
X6240595Y-13275309D01*
X6221548Y-13265786D01*
X6212024Y-13246738D01*
X6212024Y-13237214D01*
X6221548Y-13218167D01*
X6240595Y-13208643D01*
X6269167Y-13208643D01*
X6288214Y-13218167D01*
X6364405Y-13418167D02*
X6373928Y-13408643D01*
X6392976Y-13380071D01*
X6402500Y-13361024D01*
X6412024Y-13332452D01*
X6421548Y-13284833D01*
X6421548Y-13246738D01*
X6412024Y-13199119D01*
X6402500Y-13170548D01*
X6392976Y-13151500D01*
X6373928Y-13122928D01*
X6364405Y-13113405D01*
X1392500Y-13415500D02*
X1592500Y-13615500D01*
X1592500Y-13415500D02*
X1392500Y-13615500D01*
X1563211Y-13586211D02*
X1563211Y-13444789D01*
X1421789Y-13444789D01*
X1421789Y-13586211D01*
X1563211Y-13586211D01*
X1831071Y-13405976D02*
X1954881Y-13405976D01*
X1888214Y-13482167D01*
X1916786Y-13482167D01*
X1935833Y-13491690D01*
X1945357Y-13501214D01*
X1954881Y-13520262D01*
X1954881Y-13567881D01*
X1945357Y-13586928D01*
X1935833Y-13596452D01*
X1916786Y-13605976D01*
X1859643Y-13605976D01*
X1840595Y-13596452D01*
X1831071Y-13586928D01*
X2040595Y-13586928D02*
X2050119Y-13596452D01*
X2040595Y-13605976D01*
X2031071Y-13596452D01*
X2040595Y-13586928D01*
X2040595Y-13605976D01*
X2126310Y-13425024D02*
X2135833Y-13415500D01*
X2154881Y-13405976D01*
X2202500Y-13405976D01*
X2221548Y-13415500D01*
X2231071Y-13425024D01*
X2240595Y-13444071D01*
X2240595Y-13463119D01*
X2231071Y-13491690D01*
X2116786Y-13605976D01*
X2240595Y-13605976D01*
X2364405Y-13405976D02*
X2383452Y-13405976D01*
X2402500Y-13415500D01*
X2412024Y-13425024D01*
X2421548Y-13444071D01*
X2431071Y-13482167D01*
X2431071Y-13529786D01*
X2421548Y-13567881D01*
X2412024Y-13586928D01*
X2402500Y-13596452D01*
X2383452Y-13605976D01*
X2364405Y-13605976D01*
X2345357Y-13596452D01*
X2335833Y-13586928D01*
X2326310Y-13567881D01*
X2316786Y-13529786D01*
X2316786Y-13482167D01*
X2326310Y-13444071D01*
X2335833Y-13425024D01*
X2345357Y-13415500D01*
X2364405Y-13405976D01*
X2554881Y-13405976D02*
X2573929Y-13405976D01*
X2592976Y-13415500D01*
X2602500Y-13425024D01*
X2612024Y-13444071D01*
X2621548Y-13482167D01*
X2621548Y-13529786D01*
X2612024Y-13567881D01*
X2602500Y-13586928D01*
X2592976Y-13596452D01*
X2573929Y-13605976D01*
X2554881Y-13605976D01*
X2535833Y-13596452D01*
X2526310Y-13586928D01*
X2516786Y-13567881D01*
X2507262Y-13529786D01*
X2507262Y-13482167D01*
X2516786Y-13444071D01*
X2526310Y-13425024D01*
X2535833Y-13415500D01*
X2554881Y-13405976D01*
X2707262Y-13605976D02*
X2707262Y-13472643D01*
X2707262Y-13491690D02*
X2716786Y-13482167D01*
X2735833Y-13472643D01*
X2764405Y-13472643D01*
X2783452Y-13482167D01*
X2792976Y-13501214D01*
X2792976Y-13605976D01*
X2792976Y-13501214D02*
X2802500Y-13482167D01*
X2821548Y-13472643D01*
X2850119Y-13472643D01*
X2869167Y-13482167D01*
X2878690Y-13501214D01*
X2878690Y-13605976D01*
X2973928Y-13605976D02*
X2973928Y-13472643D01*
X2973928Y-13491690D02*
X2983452Y-13482167D01*
X3002500Y-13472643D01*
X3031071Y-13472643D01*
X3050119Y-13482167D01*
X3059643Y-13501214D01*
X3059643Y-13605976D01*
X3059643Y-13501214D02*
X3069167Y-13482167D01*
X3088214Y-13472643D01*
X3116786Y-13472643D01*
X3135833Y-13482167D01*
X3145357Y-13501214D01*
X3145357Y-13605976D01*
X3535833Y-13396452D02*
X3364405Y-13653595D01*
X3792976Y-13405976D02*
X3812024Y-13405976D01*
X3831071Y-13415500D01*
X3840595Y-13425024D01*
X3850119Y-13444071D01*
X3859643Y-13482167D01*
X3859643Y-13529786D01*
X3850119Y-13567881D01*
X3840595Y-13586928D01*
X3831071Y-13596452D01*
X3812024Y-13605976D01*
X3792976Y-13605976D01*
X3773928Y-13596452D01*
X3764405Y-13586928D01*
X3754881Y-13567881D01*
X3745357Y-13529786D01*
X3745357Y-13482167D01*
X3754881Y-13444071D01*
X3764405Y-13425024D01*
X3773928Y-13415500D01*
X3792976Y-13405976D01*
X3945357Y-13586928D02*
X3954881Y-13596452D01*
X3945357Y-13605976D01*
X3935833Y-13596452D01*
X3945357Y-13586928D01*
X3945357Y-13605976D01*
X4145357Y-13605976D02*
X4031071Y-13605976D01*
X4088214Y-13605976D02*
X4088214Y-13405976D01*
X4069167Y-13434548D01*
X4050119Y-13453595D01*
X4031071Y-13463119D01*
X4221548Y-13425024D02*
X4231071Y-13415500D01*
X4250119Y-13405976D01*
X4297738Y-13405976D01*
X4316786Y-13415500D01*
X4326310Y-13425024D01*
X4335833Y-13444071D01*
X4335833Y-13463119D01*
X4326310Y-13491690D01*
X4212024Y-13605976D01*
X4335833Y-13605976D01*
X4507262Y-13405976D02*
X4469167Y-13405976D01*
X4450119Y-13415500D01*
X4440595Y-13425024D01*
X4421548Y-13453595D01*
X4412024Y-13491690D01*
X4412024Y-13567881D01*
X4421548Y-13586928D01*
X4431071Y-13596452D01*
X4450119Y-13605976D01*
X4488214Y-13605976D01*
X4507262Y-13596452D01*
X4516786Y-13586928D01*
X4526310Y-13567881D01*
X4526310Y-13520262D01*
X4516786Y-13501214D01*
X4507262Y-13491690D01*
X4488214Y-13482167D01*
X4450119Y-13482167D01*
X4431071Y-13491690D01*
X4421548Y-13501214D01*
X4412024Y-13520262D01*
X4650119Y-13405976D02*
X4669167Y-13405976D01*
X4688214Y-13415500D01*
X4697738Y-13425024D01*
X4707262Y-13444071D01*
X4716786Y-13482167D01*
X4716786Y-13529786D01*
X4707262Y-13567881D01*
X4697738Y-13586928D01*
X4688214Y-13596452D01*
X4669167Y-13605976D01*
X4650119Y-13605976D01*
X4631071Y-13596452D01*
X4621548Y-13586928D01*
X4612024Y-13567881D01*
X4602500Y-13529786D01*
X4602500Y-13482167D01*
X4612024Y-13444071D01*
X4621548Y-13425024D01*
X4631071Y-13415500D01*
X4650119Y-13405976D01*
X4792976Y-13405976D02*
X4792976Y-13444071D01*
X4869167Y-13405976D02*
X4869167Y-13444071D01*
X5164405Y-13682167D02*
X5154881Y-13672643D01*
X5135833Y-13644071D01*
X5126310Y-13625024D01*
X5116786Y-13596452D01*
X5107262Y-13548833D01*
X5107262Y-13510738D01*
X5116786Y-13463119D01*
X5126310Y-13434548D01*
X5135833Y-13415500D01*
X5154881Y-13386928D01*
X5164405Y-13377405D01*
X5221548Y-13405976D02*
X5354881Y-13405976D01*
X5269167Y-13605976D01*
X5583452Y-13605976D02*
X5583452Y-13405976D01*
X5669167Y-13605976D02*
X5669167Y-13501214D01*
X5659643Y-13482167D01*
X5640595Y-13472643D01*
X5612024Y-13472643D01*
X5592976Y-13482167D01*
X5583452Y-13491690D01*
X5792976Y-13605976D02*
X5773928Y-13596452D01*
X5764405Y-13586928D01*
X5754881Y-13567881D01*
X5754881Y-13510738D01*
X5764405Y-13491690D01*
X5773928Y-13482167D01*
X5792976Y-13472643D01*
X5821548Y-13472643D01*
X5840595Y-13482167D01*
X5850119Y-13491690D01*
X5859643Y-13510738D01*
X5859643Y-13567881D01*
X5850119Y-13586928D01*
X5840595Y-13596452D01*
X5821548Y-13605976D01*
X5792976Y-13605976D01*
X5973928Y-13605976D02*
X5954881Y-13596452D01*
X5945357Y-13577405D01*
X5945357Y-13405976D01*
X6126309Y-13596452D02*
X6107262Y-13605976D01*
X6069167Y-13605976D01*
X6050119Y-13596452D01*
X6040595Y-13577405D01*
X6040595Y-13501214D01*
X6050119Y-13482167D01*
X6069167Y-13472643D01*
X6107262Y-13472643D01*
X6126309Y-13482167D01*
X6135833Y-13501214D01*
X6135833Y-13520262D01*
X6040595Y-13539309D01*
X6212024Y-13596452D02*
X6231071Y-13605976D01*
X6269167Y-13605976D01*
X6288214Y-13596452D01*
X6297738Y-13577405D01*
X6297738Y-13567881D01*
X6288214Y-13548833D01*
X6269167Y-13539309D01*
X6240595Y-13539309D01*
X6221548Y-13529786D01*
X6212024Y-13510738D01*
X6212024Y-13501214D01*
X6221548Y-13482167D01*
X6240595Y-13472643D01*
X6269167Y-13472643D01*
X6288214Y-13482167D01*
X6364405Y-13682167D02*
X6373928Y-13672643D01*
X6392976Y-13644071D01*
X6402500Y-13625024D01*
X6412024Y-13596452D01*
X6421548Y-13548833D01*
X6421548Y-13510738D01*
X6412024Y-13463119D01*
X6402500Y-13434548D01*
X6392976Y-13415500D01*
X6373928Y-13386928D01*
X6364405Y-13377405D01*
M02*
