%TF.GenerationSoftware,KiCad,Pcbnew,(5.99.0-12766-g4a3658027e)*%
%TF.CreationDate,2021-12-04T14:11:10+09:00*%
%TF.ProjectId,left,6c656674-2e6b-4696-9361-645f70636258,rev?*%
%TF.SameCoordinates,Original*%
%TF.FileFunction,Copper,L2,Bot*%
%TF.FilePolarity,Positive*%
%FSLAX46Y46*%
G04 Gerber Fmt 4.6, Leading zero omitted, Abs format (unit mm)*
G04 Created by KiCad (PCBNEW (5.99.0-12766-g4a3658027e)) date 2021-12-04 14:11:10*
%MOMM*%
%LPD*%
G01*
G04 APERTURE LIST*
%TA.AperFunction,ComponentPad*%
%ADD10R,1.600000X1.600000*%
%TD*%
%TA.AperFunction,ComponentPad*%
%ADD11O,1.600000X1.600000*%
%TD*%
%TA.AperFunction,SMDPad,CuDef*%
%ADD12R,2.600000X2.600000*%
%TD*%
%TA.AperFunction,SMDPad,CuDef*%
%ADD13R,1.950000X2.600000*%
%TD*%
%TA.AperFunction,ComponentPad*%
%ADD14C,1.600000*%
%TD*%
%TA.AperFunction,ComponentPad*%
%ADD15C,2.000000*%
%TD*%
%TA.AperFunction,ComponentPad*%
%ADD16C,1.524000*%
%TD*%
%TA.AperFunction,ComponentPad*%
%ADD17C,5.700000*%
%TD*%
%TA.AperFunction,ComponentPad*%
%ADD18O,1.800000X1.150000*%
%TD*%
%TA.AperFunction,ComponentPad*%
%ADD19O,2.000000X1.450000*%
%TD*%
%TA.AperFunction,ViaPad*%
%ADD20C,0.800000*%
%TD*%
%TA.AperFunction,Conductor*%
%ADD21C,0.200000*%
%TD*%
G04 APERTURE END LIST*
D10*
%TO.P,D21,1,K*%
%TO.N,/lrow1*%
X86500000Y-96750000D03*
D11*
%TO.P,D21,2,A*%
%TO.N,Net-(D21-Pad2)*%
X78880000Y-96750000D03*
%TD*%
D10*
%TO.P,D13,1,K*%
%TO.N,/lrow2*%
X96250000Y-101750000D03*
D11*
%TO.P,D13,2,A*%
%TO.N,Net-(D13-Pad2)*%
X88630000Y-101750000D03*
%TD*%
D12*
%TO.P,SW21,1,1*%
%TO.N,/lcol4*%
X93700000Y-44750000D03*
D13*
%TO.P,SW21,2,2*%
%TO.N,Net-(D21-Pad2)*%
X105000000Y-46950000D03*
%TD*%
D14*
%TO.P,R1,1*%
%TO.N,/lSCL*%
X110000000Y-101000000D03*
D11*
%TO.P,R1,2*%
%TO.N,+5V*%
X110000000Y-108620000D03*
%TD*%
D12*
%TO.P,SW18,1,1*%
%TO.N,/lcol3*%
X75700000Y-61750000D03*
D13*
%TO.P,SW18,2,2*%
%TO.N,Net-(D18-Pad2)*%
X87000000Y-63950000D03*
%TD*%
D15*
%TO.P,SW47,1,1*%
%TO.N,/lRST*%
X115000000Y-74500000D03*
X108500000Y-74500000D03*
%TO.P,SW47,2,2*%
%TO.N,GND*%
X108500000Y-70000000D03*
X115000000Y-70000000D03*
%TD*%
D10*
%TO.P,D4,1,K*%
%TO.N,/lrow3*%
X106000000Y-106750000D03*
D11*
%TO.P,D4,2,A*%
%TO.N,Net-(D4-Pad2)*%
X98380000Y-106750000D03*
%TD*%
D12*
%TO.P,SW8,1,1*%
%TO.N,/lcol1*%
X39700000Y-56750000D03*
D13*
%TO.P,SW8,2,2*%
%TO.N,Net-(D8-Pad2)*%
X51000000Y-58950000D03*
%TD*%
D12*
%TO.P,SW14,1,1*%
%TO.N,/lcol2*%
X93700000Y-78750000D03*
D13*
%TO.P,SW14,2,2*%
%TO.N,Net-(D14-Pad2)*%
X105000000Y-80950000D03*
%TD*%
D12*
%TO.P,SW9,1,1*%
%TO.N,/lcol1*%
X75700000Y-78750000D03*
D13*
%TO.P,SW9,2,2*%
%TO.N,Net-(D9-Pad2)*%
X87000000Y-80950000D03*
%TD*%
D12*
%TO.P,SW11,1,1*%
%TO.N,/lcol2*%
X57700000Y-20750000D03*
D13*
%TO.P,SW11,2,2*%
%TO.N,Net-(D11-Pad2)*%
X69000000Y-22950000D03*
%TD*%
D10*
%TO.P,D8,1,K*%
%TO.N,/lrow2*%
X96250000Y-104250000D03*
D11*
%TO.P,D8,2,A*%
%TO.N,Net-(D8-Pad2)*%
X88630000Y-104250000D03*
%TD*%
D12*
%TO.P,SW19,1,1*%
%TO.N,/lcol3*%
X111700000Y-78750000D03*
D13*
%TO.P,SW19,2,2*%
%TO.N,Net-(D19-Pad2)*%
X123000000Y-80950000D03*
%TD*%
D12*
%TO.P,SW17,1,1*%
%TO.N,/lcol3*%
X75700000Y-44750000D03*
D13*
%TO.P,SW17,2,2*%
%TO.N,Net-(D17-Pad2)*%
X87000000Y-46950000D03*
%TD*%
D10*
%TO.P,D6,1,K*%
%TO.N,/lrow0*%
X25250000Y-28500000D03*
D11*
%TO.P,D6,2,A*%
%TO.N,Net-(D6-Pad2)*%
X32870000Y-28500000D03*
%TD*%
D12*
%TO.P,SW5,1,1*%
%TO.N,/lcol0*%
X21700000Y-95750000D03*
D13*
%TO.P,SW5,2,2*%
%TO.N,Net-(D5-Pad2)*%
X33000000Y-97950000D03*
%TD*%
D12*
%TO.P,SW4,1,1*%
%TO.N,/lcol0*%
X57700000Y-71750000D03*
D13*
%TO.P,SW4,2,2*%
%TO.N,Net-(D4-Pad2)*%
X69000000Y-73950000D03*
%TD*%
D12*
%TO.P,SW15,1,1*%
%TO.N,/lcol2*%
X39700000Y-95750000D03*
D13*
%TO.P,SW15,2,2*%
%TO.N,Net-(D15-Pad2)*%
X51000000Y-97950000D03*
%TD*%
D10*
%TO.P,D23,1,K*%
%TO.N,/lrow3*%
X106000000Y-96750000D03*
D11*
%TO.P,D23,2,A*%
%TO.N,Net-(D23-Pad2)*%
X98380000Y-96750000D03*
%TD*%
D10*
%TO.P,D2,1,K*%
%TO.N,/lrow1*%
X86500000Y-106750000D03*
D11*
%TO.P,D2,2,A*%
%TO.N,Net-(D2-Pad2)*%
X78880000Y-106750000D03*
%TD*%
D10*
%TO.P,D3,1,K*%
%TO.N,/lrow2*%
X96250000Y-106750000D03*
D11*
%TO.P,D3,2,A*%
%TO.N,Net-(D3-Pad2)*%
X88630000Y-106750000D03*
%TD*%
D10*
%TO.P,D10,1,K*%
%TO.N,/lrow4*%
X25250000Y-89500000D03*
D11*
%TO.P,D10,2,A*%
%TO.N,Net-(D10-Pad2)*%
X32870000Y-89500000D03*
%TD*%
D12*
%TO.P,SW12,1,1*%
%TO.N,/lcol2*%
X57700000Y-37750000D03*
D13*
%TO.P,SW12,2,2*%
%TO.N,Net-(D12-Pad2)*%
X69000000Y-39950000D03*
%TD*%
D10*
%TO.P,D5,1,K*%
%TO.N,/lrow4*%
X25250000Y-92000000D03*
D11*
%TO.P,D5,2,A*%
%TO.N,Net-(D5-Pad2)*%
X32870000Y-92000000D03*
%TD*%
D12*
%TO.P,SW6,1,1*%
%TO.N,/lcol1*%
X39700000Y-22750000D03*
D13*
%TO.P,SW6,2,2*%
%TO.N,Net-(D6-Pad2)*%
X51000000Y-24950000D03*
%TD*%
D10*
%TO.P,D12,1,K*%
%TO.N,/lrow1*%
X86500000Y-101750000D03*
D11*
%TO.P,D12,2,A*%
%TO.N,Net-(D12-Pad2)*%
X78880000Y-101750000D03*
%TD*%
D10*
%TO.P,D20,1,K*%
%TO.N,/lrow0*%
X25250000Y-21000000D03*
D11*
%TO.P,D20,2,A*%
%TO.N,Net-(D20-Pad2)*%
X32870000Y-21000000D03*
%TD*%
D14*
%TO.P,R2,1*%
%TO.N,/lSDA*%
X113000000Y-101000000D03*
D11*
%TO.P,R2,2*%
%TO.N,+5V*%
X113000000Y-108620000D03*
%TD*%
D10*
%TO.P,D9,1,K*%
%TO.N,/lrow3*%
X106000000Y-104250000D03*
D11*
%TO.P,D9,2,A*%
%TO.N,Net-(D9-Pad2)*%
X98380000Y-104250000D03*
%TD*%
D10*
%TO.P,D18,1,K*%
%TO.N,/lrow2*%
X96250000Y-99250000D03*
D11*
%TO.P,D18,2,A*%
%TO.N,Net-(D18-Pad2)*%
X88630000Y-99250000D03*
%TD*%
D10*
%TO.P,D17,1,K*%
%TO.N,/lrow1*%
X86500000Y-99250000D03*
D11*
%TO.P,D17,2,A*%
%TO.N,Net-(D17-Pad2)*%
X78880000Y-99250000D03*
%TD*%
D10*
%TO.P,D15,1,K*%
%TO.N,/lrow4*%
X25250000Y-87000000D03*
D11*
%TO.P,D15,2,A*%
%TO.N,Net-(D15-Pad2)*%
X32870000Y-87000000D03*
%TD*%
D16*
%TO.P,U1,1,TX0/D3*%
%TO.N,/lLED*%
X122861400Y-29272000D03*
%TO.P,U1,2,RX1/D2*%
%TO.N,unconnected-(U1-Pad2)*%
X122861400Y-31812000D03*
%TO.P,U1,3,GND*%
%TO.N,GND*%
X122861400Y-34352000D03*
%TO.P,U1,4,GND*%
X122861400Y-36892000D03*
%TO.P,U1,5,2/D1/SDA*%
%TO.N,/lSDA*%
X122861400Y-39432000D03*
%TO.P,U1,6,3/D0/SCL*%
%TO.N,/lSCL*%
X122861400Y-41972000D03*
%TO.P,U1,7,4/D4*%
%TO.N,/lcol0*%
X122861400Y-44512000D03*
%TO.P,U1,8,5/C6*%
%TO.N,/lcol1*%
X122861400Y-47052000D03*
%TO.P,U1,9,6/D7*%
%TO.N,/lcol2*%
X122861400Y-49592000D03*
%TO.P,U1,10,7/E6*%
%TO.N,/lcol3*%
X122861400Y-52132000D03*
%TO.P,U1,11,8/B4*%
%TO.N,/lcol4*%
X122861400Y-54672000D03*
%TO.P,U1,12,9/B5*%
%TO.N,/lbuzzer*%
X122861400Y-57212000D03*
%TO.P,U1,13,B6/10*%
%TO.N,unconnected-(U1-Pad13)*%
X107641400Y-57212000D03*
%TO.P,U1,14,B2/16*%
%TO.N,unconnected-(U1-Pad14)*%
X107641400Y-54672000D03*
%TO.P,U1,15,B3/14*%
%TO.N,unconnected-(U1-Pad15)*%
X107641400Y-52132000D03*
%TO.P,U1,16,B1/15*%
%TO.N,/lrow4*%
X107641400Y-49592000D03*
%TO.P,U1,17,F7/A0*%
%TO.N,/lrow3*%
X107641400Y-47052000D03*
%TO.P,U1,18,F6/A1*%
%TO.N,/lrow2*%
X107641400Y-44512000D03*
%TO.P,U1,19,F5/A2*%
%TO.N,/lrow1*%
X107641400Y-41972000D03*
%TO.P,U1,20,F4/A3*%
%TO.N,/lrow0*%
X107641400Y-39432000D03*
%TO.P,U1,21,VCC*%
%TO.N,+5V*%
X107641400Y-36892000D03*
%TO.P,U1,22,RST*%
%TO.N,/lRST*%
X107641400Y-34352000D03*
%TO.P,U1,23,GND*%
%TO.N,GND*%
X107641400Y-31812000D03*
%TO.P,U1,24,RAW*%
%TO.N,unconnected-(U1-Pad24)*%
X107641400Y-29272000D03*
%TD*%
D12*
%TO.P,SW23,1,1*%
%TO.N,/lcol4*%
X120700000Y-95750000D03*
D13*
%TO.P,SW23,2,2*%
%TO.N,Net-(D23-Pad2)*%
X132000000Y-97950000D03*
%TD*%
D12*
%TO.P,SW13,1,1*%
%TO.N,/lcol2*%
X57700000Y-54750000D03*
D13*
%TO.P,SW13,2,2*%
%TO.N,Net-(D13-Pad2)*%
X69000000Y-56950000D03*
%TD*%
D12*
%TO.P,SW7,1,1*%
%TO.N,/lcol1*%
X39700000Y-39750000D03*
D13*
%TO.P,SW7,2,2*%
%TO.N,Net-(D7-Pad2)*%
X51000000Y-41950000D03*
%TD*%
D12*
%TO.P,SW20,1,1*%
%TO.N,/lcol4*%
X93700000Y-27750000D03*
D13*
%TO.P,SW20,2,2*%
%TO.N,Net-(D20-Pad2)*%
X105000000Y-29950000D03*
%TD*%
D10*
%TO.P,D22,1,K*%
%TO.N,/lrow2*%
X96250000Y-96750000D03*
D11*
%TO.P,D22,2,A*%
%TO.N,Net-(D22-Pad2)*%
X88630000Y-96750000D03*
%TD*%
D12*
%TO.P,SW1,1,1*%
%TO.N,/lcol0*%
X21700000Y-34750000D03*
D13*
%TO.P,SW1,2,2*%
%TO.N,Net-(D1-Pad2)*%
X33000000Y-36950000D03*
%TD*%
D10*
%TO.P,D14,1,K*%
%TO.N,/lrow3*%
X106000000Y-101750000D03*
D11*
%TO.P,D14,2,A*%
%TO.N,Net-(D14-Pad2)*%
X98380000Y-101750000D03*
%TD*%
D12*
%TO.P,SW2,1,1*%
%TO.N,/lcol0*%
X21700000Y-51750000D03*
D13*
%TO.P,SW2,2,2*%
%TO.N,Net-(D2-Pad2)*%
X33000000Y-53950000D03*
%TD*%
D10*
%TO.P,D11,1,K*%
%TO.N,/lrow0*%
X25250000Y-26000000D03*
D11*
%TO.P,D11,2,A*%
%TO.N,Net-(D11-Pad2)*%
X32870000Y-26000000D03*
%TD*%
D12*
%TO.P,SW16,1,1*%
%TO.N,/lcol3*%
X75700000Y-27750000D03*
D13*
%TO.P,SW16,2,2*%
%TO.N,Net-(D16-Pad2)*%
X87000000Y-29950000D03*
%TD*%
D10*
%TO.P,D7,1,K*%
%TO.N,/lrow1*%
X86500000Y-104250000D03*
D11*
%TO.P,D7,2,A*%
%TO.N,Net-(D7-Pad2)*%
X78880000Y-104250000D03*
%TD*%
D10*
%TO.P,D1,1,K*%
%TO.N,/lrow0*%
X25250000Y-31000000D03*
D11*
%TO.P,D1,2,A*%
%TO.N,Net-(D1-Pad2)*%
X32870000Y-31000000D03*
%TD*%
D12*
%TO.P,SW22,1,1*%
%TO.N,/lcol4*%
X93700000Y-61750000D03*
D13*
%TO.P,SW22,2,2*%
%TO.N,Net-(D22-Pad2)*%
X105000000Y-63950000D03*
%TD*%
D10*
%TO.P,D16,1,K*%
%TO.N,/lrow0*%
X25250000Y-23500000D03*
D11*
%TO.P,D16,2,A*%
%TO.N,Net-(D16-Pad2)*%
X32870000Y-23500000D03*
%TD*%
D12*
%TO.P,SW3,1,1*%
%TO.N,/lcol0*%
X21700000Y-68750000D03*
D13*
%TO.P,SW3,2,2*%
%TO.N,Net-(D3-Pad2)*%
X33000000Y-70950000D03*
%TD*%
D10*
%TO.P,D19,1,K*%
%TO.N,/lrow3*%
X106000000Y-99250000D03*
D11*
%TO.P,D19,2,A*%
%TO.N,Net-(D19-Pad2)*%
X98380000Y-99250000D03*
%TD*%
D12*
%TO.P,SW10,1,1*%
%TO.N,/lcol1*%
X39700000Y-78750000D03*
D13*
%TO.P,SW10,2,2*%
%TO.N,Net-(D10-Pad2)*%
X51000000Y-80950000D03*
%TD*%
D17*
%TO.P,H4,1,1*%
%TO.N,GND*%
X96500000Y-22000000D03*
%TD*%
D18*
%TO.P,J1,6,Shield*%
%TO.N,GND*%
X122200000Y-67875000D03*
D19*
X118400000Y-60275000D03*
X118400000Y-67725000D03*
D18*
X122200000Y-60125000D03*
%TD*%
D12*
%TO.P,SW49,1,1*%
%TO.N,/lcol3*%
X57700000Y-95750000D03*
D13*
%TO.P,SW49,2,2*%
%TO.N,Net-(D47-Pad2)*%
X69000000Y-97950000D03*
%TD*%
D17*
%TO.P,H2,1,1*%
%TO.N,GND*%
X19250000Y-88250000D03*
%TD*%
%TO.P,H1,1,1*%
%TO.N,GND*%
X55250000Y-89750000D03*
%TD*%
D10*
%TO.P,D47,1,K*%
%TO.N,/lrow4*%
X25250000Y-84500000D03*
D11*
%TO.P,D47,2,A*%
%TO.N,Net-(D47-Pad2)*%
X32870000Y-84500000D03*
%TD*%
D17*
%TO.P,H8,1,1*%
%TO.N,GND*%
X20750000Y-23000000D03*
%TD*%
D10*
%TO.P,BZ1,1,-*%
%TO.N,/lbuzzer*%
X113500000Y-63500000D03*
D14*
%TO.P,BZ1,2,+*%
%TO.N,GND*%
X109500000Y-63500000D03*
%TD*%
D17*
%TO.P,H6,1,1*%
%TO.N,GND*%
X111750000Y-96500000D03*
%TD*%
%TO.P,H5,1,1*%
%TO.N,GND*%
X73250000Y-22000000D03*
%TD*%
%TO.P,H7,1,1*%
%TO.N,GND*%
X73250000Y-96500000D03*
%TD*%
D14*
%TO.P,C1,1*%
%TO.N,+5V*%
X117750000Y-71000000D03*
%TO.P,C1,2*%
%TO.N,GND*%
X122750000Y-71000000D03*
%TD*%
%TO.P,C2,1*%
%TO.N,+5V*%
X117750000Y-74000000D03*
%TO.P,C2,2*%
%TO.N,GND*%
X122750000Y-74000000D03*
%TD*%
D20*
%TO.N,Net-(D7-Pad2)*%
X63451400Y-77178900D03*
%TO.N,Net-(D8-Pad2)*%
X55318000Y-71034800D03*
%TO.N,Net-(D16-Pad2)*%
X81403300Y-30026700D03*
%TO.N,Net-(D19-Pad2)*%
X119815700Y-89220600D03*
%TO.N,/lSDA*%
X116600100Y-75180400D03*
%TO.N,/lSCL*%
X120873400Y-64000000D03*
%TO.N,/lcol0*%
X57700000Y-69088400D03*
%TO.N,/lcol1*%
X75700000Y-75850800D03*
X62824100Y-75850800D03*
%TO.N,/lcol2*%
X67962800Y-76823600D03*
X93700000Y-76823600D03*
%TO.N,/lcol3*%
X73667500Y-81511600D03*
X108334500Y-76984800D03*
X66477400Y-93525000D03*
%TD*%
D21*
%TO.N,GND*%
X122750000Y-71000000D02*
X123400300Y-70349700D01*
X117099700Y-67725000D02*
X117099700Y-67900300D01*
X122750000Y-74000000D02*
X122750000Y-71000000D01*
X66500000Y-89750000D02*
X73250000Y-96500000D01*
X109500000Y-63500000D02*
X109500000Y-69000000D01*
X117749900Y-61950400D02*
X118400000Y-61300300D01*
X118400000Y-42570600D02*
X107641400Y-31812000D01*
X122200000Y-67875000D02*
X123400300Y-67875000D01*
X118400000Y-60275000D02*
X118400000Y-42570600D01*
X122861400Y-36892000D02*
X122861400Y-34352000D01*
X123400300Y-70349700D02*
X123400300Y-67875000D01*
X118400000Y-67725000D02*
X117749900Y-67725000D01*
X109500000Y-69000000D02*
X108500000Y-70000000D01*
X117749900Y-67725000D02*
X117749900Y-61950400D01*
X117749900Y-67725000D02*
X117099700Y-67725000D01*
X117099700Y-67900300D02*
X115000000Y-70000000D01*
X118400000Y-60275000D02*
X118400000Y-61300300D01*
X55250000Y-89750000D02*
X66500000Y-89750000D01*
%TO.N,+5V*%
X113000000Y-108620000D02*
X113000000Y-105411800D01*
X114312500Y-71312500D02*
X110847500Y-67847500D01*
X113000000Y-105411800D02*
X117750000Y-100661800D01*
X117750000Y-71312500D02*
X117750000Y-71000000D01*
X117750000Y-100661800D02*
X117750000Y-74000000D01*
X110847500Y-40098100D02*
X107641400Y-36892000D01*
X117750000Y-74000000D02*
X117750000Y-71312500D01*
X117750000Y-71312500D02*
X114312500Y-71312500D01*
X110847500Y-67847500D02*
X110847500Y-40098100D01*
%TO.N,Net-(D1-Pad2)*%
X32870000Y-32100300D02*
X33000000Y-32230300D01*
X33000000Y-32230300D02*
X33000000Y-36950000D01*
X32870000Y-31000000D02*
X32870000Y-32100300D01*
%TO.N,/lrow1*%
X86500000Y-95649700D02*
X88675700Y-93474000D01*
X99750000Y-62162600D02*
X99750000Y-45750000D01*
X103528000Y-41972000D02*
X107641400Y-41972000D01*
X99750000Y-45750000D02*
X103528000Y-41972000D01*
X88675700Y-93474000D02*
X88675700Y-73236900D01*
X86500000Y-106750000D02*
X86500000Y-104250000D01*
X88675700Y-73236900D02*
X99750000Y-62162600D01*
X86500000Y-96750000D02*
X86500000Y-95649700D01*
%TO.N,Net-(D2-Pad2)*%
X51455000Y-100499600D02*
X57705400Y-106750000D01*
X34141800Y-72549511D02*
X34141800Y-79578000D01*
X32649900Y-90890800D02*
X33367400Y-90890800D01*
X33367400Y-90890800D02*
X35884479Y-93407879D01*
X31322300Y-89563200D02*
X32649900Y-90890800D01*
X35884479Y-96384479D02*
X39100100Y-99600100D01*
X46965200Y-99600100D02*
X47864700Y-100499600D01*
X34274511Y-72549511D02*
X34141800Y-72549511D01*
X57705400Y-106750000D02*
X78880000Y-106750000D01*
X35884479Y-93407879D02*
X35884479Y-96384479D01*
X31322300Y-82397500D02*
X31322300Y-89563200D01*
X34141800Y-56692100D02*
X34141800Y-69350489D01*
X34274511Y-69350489D02*
X34274511Y-72549511D01*
X33000000Y-55550300D02*
X34141800Y-56692100D01*
X47864700Y-100499600D02*
X51455000Y-100499600D01*
X33000000Y-53950000D02*
X33000000Y-55550300D01*
X34141800Y-79578000D02*
X31322300Y-82397500D01*
X34141800Y-69350489D02*
X34274511Y-69350489D01*
X39100100Y-99600100D02*
X46965200Y-99600100D01*
%TO.N,/lrow2*%
X106285600Y-45867800D02*
X107641400Y-44512000D01*
X106285600Y-85614100D02*
X106285600Y-45867800D01*
X96250000Y-95649700D02*
X106285600Y-85614100D01*
X96250000Y-96750000D02*
X96250000Y-95649700D01*
X96250000Y-99250000D02*
X96250000Y-96750000D01*
%TO.N,Net-(D3-Pad2)*%
X27750000Y-98500000D02*
X29400200Y-100150200D01*
X89730400Y-105649600D02*
X88630000Y-106750000D01*
X33000000Y-70950000D02*
X33000000Y-76227900D01*
X98899600Y-105649600D02*
X89730400Y-105649600D01*
X99498000Y-107221400D02*
X99498000Y-106248000D01*
X41290700Y-108276200D02*
X98443200Y-108276200D01*
X33164700Y-100150200D02*
X41290700Y-108276200D01*
X99498000Y-106248000D02*
X98899600Y-105649600D01*
X33000000Y-76227900D02*
X27750000Y-81477900D01*
X29400200Y-100150200D02*
X33164700Y-100150200D01*
X27750000Y-81477900D02*
X27750000Y-98500000D01*
X98443200Y-108276200D02*
X99498000Y-107221400D01*
%TO.N,/lrow3*%
X106000000Y-96750000D02*
X106000000Y-95649700D01*
X106000000Y-99250000D02*
X106000000Y-96750000D01*
X106000000Y-95649700D02*
X106785700Y-94864000D01*
X106000000Y-101750000D02*
X106000000Y-99250000D01*
X106000000Y-101750000D02*
X106000000Y-104250000D01*
X108738400Y-57981500D02*
X108738400Y-48149000D01*
X108738400Y-48149000D02*
X107641400Y-47052000D01*
X106785700Y-59934200D02*
X108738400Y-57981500D01*
X106785700Y-94864000D02*
X106785700Y-59934200D01*
X106000000Y-104250000D02*
X106000000Y-106750000D01*
%TO.N,Net-(D4-Pad2)*%
X78535700Y-105500000D02*
X81562600Y-105500000D01*
X76497000Y-93375500D02*
X76497000Y-103461300D01*
X69000000Y-85878500D02*
X76497000Y-93375500D01*
X76497000Y-103461300D02*
X78535700Y-105500000D01*
X69000000Y-73950000D02*
X69000000Y-85878500D01*
X83913000Y-107850400D02*
X97279600Y-107850400D01*
X97279600Y-107850400D02*
X98380000Y-106750000D01*
X81562600Y-105500000D02*
X83913000Y-107850400D01*
%TO.N,/lrow4*%
X25250000Y-89500000D02*
X25250000Y-92000000D01*
X25250000Y-87000000D02*
X25250000Y-89500000D01*
X25250000Y-84500000D02*
X25250000Y-87000000D01*
%TO.N,Net-(D5-Pad2)*%
X32870000Y-96219700D02*
X33000000Y-96349700D01*
X33000000Y-97950000D02*
X33000000Y-96349700D01*
X32870000Y-92000000D02*
X32870000Y-96219700D01*
%TO.N,/lrow0*%
X25250000Y-31000000D02*
X25250000Y-28500000D01*
X25250000Y-23500000D02*
X25250000Y-26000000D01*
X25250000Y-23500000D02*
X25250000Y-21000000D01*
X25250000Y-26000000D02*
X25250000Y-28500000D01*
%TO.N,Net-(D6-Pad2)*%
X32870000Y-28500000D02*
X32870000Y-27399700D01*
X47028500Y-20978500D02*
X38408200Y-20978500D01*
X33098000Y-27399700D02*
X32870000Y-27399700D01*
X51000000Y-24950000D02*
X47028500Y-20978500D01*
X34269600Y-25117100D02*
X34269600Y-26228100D01*
X34269600Y-26228100D02*
X33098000Y-27399700D01*
X38408200Y-20978500D02*
X34269600Y-25117100D01*
%TO.N,Net-(D7-Pad2)*%
X51000000Y-41950000D02*
X52275300Y-41950000D01*
X54249600Y-61727900D02*
X54249600Y-43924300D01*
X63537100Y-71015400D02*
X54249600Y-61727900D01*
X63537100Y-77093200D02*
X63537100Y-71015400D01*
X63451400Y-77178900D02*
X63537100Y-77093200D01*
X54249600Y-43924300D02*
X52275300Y-41950000D01*
%TO.N,Net-(D8-Pad2)*%
X51000000Y-66716800D02*
X55318000Y-71034800D01*
X51000000Y-58950000D02*
X51000000Y-66716800D01*
%TO.N,Net-(D9-Pad2)*%
X95542300Y-103149600D02*
X93042300Y-100649600D01*
X87000000Y-85644700D02*
X87000000Y-80950000D01*
X98380000Y-104250000D02*
X97279600Y-103149600D01*
X97279600Y-103149600D02*
X95542300Y-103149600D01*
X93042300Y-100649600D02*
X85798700Y-100649600D01*
X85798700Y-100649600D02*
X84999200Y-99850100D01*
X84999200Y-99850100D02*
X84999200Y-87645500D01*
X84999200Y-87645500D02*
X87000000Y-85644700D01*
%TO.N,Net-(D10-Pad2)*%
X44462400Y-82808600D02*
X44348800Y-82695000D01*
X33111400Y-82695000D02*
X31723700Y-84082700D01*
X44348800Y-82695000D02*
X33111400Y-82695000D01*
X51000000Y-80950000D02*
X49141400Y-82808600D01*
X31723700Y-84082700D02*
X31723700Y-88353700D01*
X49141400Y-82808600D02*
X44462400Y-82808600D01*
X31723700Y-88353700D02*
X32870000Y-89500000D01*
%TO.N,Net-(D11-Pad2)*%
X31752400Y-20517700D02*
X33709700Y-18560400D01*
X64610400Y-18560400D02*
X69000000Y-22950000D01*
X32870000Y-24899700D02*
X32594900Y-24899700D01*
X32594900Y-24899700D02*
X31752400Y-24057200D01*
X32870000Y-26000000D02*
X32870000Y-24899700D01*
X33709700Y-18560400D02*
X64610400Y-18560400D01*
X31752400Y-24057200D02*
X31752400Y-20517700D01*
%TO.N,Net-(D12-Pad2)*%
X77457100Y-90297206D02*
X77457100Y-86291700D01*
X77350490Y-90403816D02*
X77457100Y-90297206D01*
X72249600Y-43199600D02*
X69000000Y-39950000D01*
X78880000Y-101750000D02*
X77350490Y-100220490D01*
X77350490Y-100220490D02*
X77350490Y-90403816D01*
X72249600Y-81084200D02*
X72249600Y-43199600D01*
X77457100Y-86291700D02*
X72249600Y-81084200D01*
%TO.N,Net-(D13-Pad2)*%
X70275300Y-58225300D02*
X69000000Y-56950000D01*
X78424567Y-102849511D02*
X76950980Y-101375924D01*
X76950980Y-86351680D02*
X70275300Y-79676000D01*
X88630000Y-101750000D02*
X87530489Y-102849511D01*
X76950980Y-101375924D02*
X76950980Y-86351680D01*
X87530489Y-102849511D02*
X78424567Y-102849511D01*
X70275300Y-79676000D02*
X70275300Y-58225300D01*
%TO.N,Net-(D14-Pad2)*%
X95570600Y-100649600D02*
X97279600Y-100649600D01*
X97279600Y-100649600D02*
X98380000Y-101750000D01*
X95145400Y-100224400D02*
X95570600Y-100649600D01*
X105000000Y-80950000D02*
X105000000Y-84571700D01*
X95145400Y-94426300D02*
X95145400Y-100224400D01*
X105000000Y-84571700D02*
X95145400Y-94426300D01*
%TO.N,Net-(D15-Pad2)*%
X38584516Y-98399510D02*
X36283989Y-96098983D01*
X51000000Y-97950000D02*
X49202600Y-96152600D01*
X36283989Y-96098983D02*
X36283989Y-90413989D01*
X36283989Y-90413989D02*
X32870000Y-87000000D01*
X44482990Y-98399510D02*
X38584516Y-98399510D01*
X49202600Y-96152600D02*
X46729900Y-96152600D01*
X46729900Y-96152600D02*
X44482990Y-98399510D01*
%TO.N,Net-(D16-Pad2)*%
X86846000Y-28195700D02*
X83234300Y-28195700D01*
X83234300Y-28195700D02*
X81403300Y-30026700D01*
X87000000Y-28349700D02*
X86846000Y-28195700D01*
X87000000Y-29950000D02*
X87000000Y-28349700D01*
%TO.N,Net-(D17-Pad2)*%
X87000000Y-46950000D02*
X87000000Y-51048100D01*
X77750000Y-97176800D02*
X78722900Y-98149700D01*
X81172600Y-87146700D02*
X77750000Y-90569300D01*
X87000000Y-51048100D02*
X81172600Y-56875500D01*
X78880000Y-98149700D02*
X78880000Y-99250000D01*
X78722900Y-98149700D02*
X78880000Y-98149700D01*
X81172600Y-56875500D02*
X81172600Y-87146700D01*
X77750000Y-90569300D02*
X77750000Y-97176800D01*
%TO.N,Net-(D18-Pad2)*%
X88630000Y-99250000D02*
X87529600Y-98149600D01*
X88275300Y-86784100D02*
X88275300Y-63950000D01*
X85798900Y-98149600D02*
X85399600Y-97750300D01*
X85399600Y-89659800D02*
X88275300Y-86784100D01*
X87000000Y-63950000D02*
X88275300Y-63950000D01*
X85399600Y-97750300D02*
X85399600Y-89659800D01*
X87529600Y-98149600D02*
X85798900Y-98149600D01*
%TO.N,Net-(D19-Pad2)*%
X123000000Y-86036300D02*
X123000000Y-80950000D01*
X119815700Y-89220600D02*
X123000000Y-86036300D01*
%TO.N,Net-(D20-Pad2)*%
X63945900Y-23510300D02*
X65890600Y-25455000D01*
X63945900Y-21188100D02*
X63945900Y-23510300D01*
X65890600Y-25455000D02*
X100505000Y-25455000D01*
X33970300Y-21000000D02*
X36006400Y-18963900D01*
X32870000Y-21000000D02*
X33970300Y-21000000D01*
X36006400Y-18963900D02*
X61721700Y-18963900D01*
X61721700Y-18963900D02*
X63945900Y-21188100D01*
X100505000Y-25455000D02*
X105000000Y-29950000D01*
%TO.N,Net-(D21-Pad2)*%
X81821200Y-93808800D02*
X78880000Y-96750000D01*
X108738300Y-42470800D02*
X108738300Y-41553300D01*
X108738300Y-41553300D02*
X108076700Y-40891700D01*
X89900000Y-62000000D02*
X82750000Y-62000000D01*
X105000000Y-45450000D02*
X107386600Y-43063400D01*
X105108300Y-40891700D02*
X104427510Y-41572490D01*
X97724800Y-63621500D02*
X91521500Y-63621500D01*
X107386600Y-43063400D02*
X108145700Y-43063400D01*
X99350489Y-45584518D02*
X99350489Y-61995811D01*
X104427510Y-41572490D02*
X103362516Y-41572490D01*
X108145700Y-43063400D02*
X108738300Y-42470800D01*
X82750000Y-62000000D02*
X81821200Y-62928800D01*
X81821200Y-62928800D02*
X81821200Y-93808800D01*
X91521500Y-63621500D02*
X89900000Y-62000000D01*
X105000000Y-46950000D02*
X105000000Y-45450000D01*
X108076700Y-40891700D02*
X105108300Y-40891700D01*
X103362516Y-41572490D02*
X99350489Y-45584518D01*
X99350489Y-61995811D02*
X97724800Y-63621500D01*
%TO.N,Net-(D22-Pad2)*%
X89085900Y-89305700D02*
X89085900Y-95193800D01*
X89085900Y-95193800D02*
X88630000Y-95649700D01*
X88630000Y-96750000D02*
X88630000Y-95649700D01*
X105000000Y-73391600D02*
X89085900Y-89305700D01*
X105000000Y-63950000D02*
X105000000Y-73391600D01*
%TO.N,Net-(D23-Pad2)*%
X129635600Y-99800400D02*
X119692300Y-109743700D01*
X98380000Y-97850300D02*
X98380000Y-96750000D01*
X132000000Y-97950000D02*
X130149600Y-99800400D01*
X99779600Y-99021900D02*
X98608000Y-97850300D01*
X119692300Y-109743700D02*
X106243700Y-109743700D01*
X130149600Y-99800400D02*
X129635600Y-99800400D01*
X99779600Y-103279600D02*
X99779600Y-99021900D01*
X98608000Y-97850300D02*
X98380000Y-97850300D01*
X106243700Y-109743700D02*
X99779600Y-103279600D01*
%TO.N,/lSDA*%
X113000000Y-101000000D02*
X117018000Y-96982000D01*
X117018000Y-75598300D02*
X116600100Y-75180400D01*
X117018000Y-96982000D02*
X117018000Y-75598300D01*
%TO.N,/lSCL*%
X123923800Y-43034400D02*
X123923800Y-60949600D01*
X122861400Y-41972000D02*
X123923800Y-43034400D01*
X123923800Y-60949600D02*
X120873400Y-64000000D01*
%TO.N,/lcol0*%
X21700000Y-49986300D02*
X21700000Y-36350300D01*
X22449800Y-93399900D02*
X21700000Y-94149700D01*
X37384900Y-57476600D02*
X39643300Y-59735000D01*
X31986300Y-49986300D02*
X37384900Y-55384900D01*
X21700000Y-51750000D02*
X21700000Y-49986300D01*
X22449800Y-71100100D02*
X22449800Y-93399900D01*
X21700000Y-68750000D02*
X21700000Y-51750000D01*
X39643300Y-59735000D02*
X43019600Y-59735000D01*
X55034600Y-71750000D02*
X57700000Y-71750000D01*
X57700000Y-71750000D02*
X57700000Y-69088400D01*
X21700000Y-68750000D02*
X21700000Y-70350300D01*
X37384900Y-55384900D02*
X37384900Y-57476600D01*
X43019600Y-59735000D02*
X55034600Y-71750000D01*
X21700000Y-95750000D02*
X21700000Y-94149700D01*
X21700000Y-49986300D02*
X31986300Y-49986300D01*
X21700000Y-34750000D02*
X21700000Y-36350300D01*
X21700000Y-70350300D02*
X22449800Y-71100100D01*
%TO.N,/lcol1*%
X62800200Y-75717200D02*
X62824100Y-75741100D01*
X39700000Y-39750000D02*
X39700000Y-55149700D01*
X39700000Y-22750000D02*
X39700000Y-24350300D01*
X39700000Y-24350300D02*
X39700000Y-39750000D01*
X75700000Y-77149700D02*
X75700000Y-75850800D01*
X62800200Y-75717200D02*
X62883800Y-75633600D01*
X62883800Y-75633600D02*
X62883800Y-70928500D01*
X39700000Y-56750000D02*
X39700000Y-55149700D01*
X75700000Y-78750000D02*
X75700000Y-77149700D01*
X62883800Y-70928500D02*
X53062300Y-61107000D01*
X53062300Y-61107000D02*
X53062300Y-58298500D01*
X45229300Y-57199600D02*
X43825600Y-58603300D01*
X53062300Y-58298500D02*
X51963400Y-57199600D01*
X62824100Y-75741100D02*
X62824100Y-75850800D01*
X43825600Y-58603300D02*
X41553300Y-58603300D01*
X41553300Y-58603300D02*
X39700000Y-56750000D01*
X51963400Y-57199600D02*
X45229300Y-57199600D01*
X39700000Y-78750000D02*
X42732800Y-75717200D01*
X42732800Y-75717200D02*
X62800200Y-75717200D01*
%TO.N,/lcol2*%
X57700000Y-54750000D02*
X57700000Y-37750000D01*
X64151700Y-76499600D02*
X64151700Y-68570600D01*
X57700000Y-37750000D02*
X57700000Y-22350300D01*
X39700000Y-95750000D02*
X49449600Y-86000400D01*
X67962800Y-76823600D02*
X67638800Y-76499600D01*
X93700000Y-78750000D02*
X93700000Y-76823600D01*
X67638800Y-76499600D02*
X64151700Y-76499600D01*
X49449600Y-86000400D02*
X55633300Y-86000400D01*
X64151700Y-68570600D02*
X57700000Y-62118900D01*
X57700000Y-20750000D02*
X57700000Y-22350300D01*
X64151700Y-77482000D02*
X64151700Y-76499600D01*
X57700000Y-62118900D02*
X57700000Y-54750000D01*
X55633300Y-86000400D02*
X64151700Y-77482000D01*
%TO.N,/lcol3*%
X75700000Y-61750000D02*
X75700000Y-74200800D01*
X110099700Y-78750000D02*
X108334500Y-76984800D01*
X75700000Y-74200800D02*
X73667500Y-76233300D01*
X59925000Y-93525000D02*
X66477400Y-93525000D01*
X75700000Y-27750000D02*
X75700000Y-29350300D01*
X75700000Y-44750000D02*
X75700000Y-29350300D01*
X73667500Y-76233300D02*
X73667500Y-81511600D01*
X111700000Y-78750000D02*
X110099700Y-78750000D01*
X57700000Y-95750000D02*
X59925000Y-93525000D01*
X75700000Y-44750000D02*
X75700000Y-61750000D01*
%TO.N,/lcol4*%
X105850700Y-31828000D02*
X106928700Y-30750000D01*
X93700000Y-31683900D02*
X93700000Y-29350300D01*
X120700000Y-95750000D02*
X120700000Y-94149700D01*
X120150400Y-57383000D02*
X122861400Y-54672000D01*
X93700000Y-27750000D02*
X93700000Y-29350300D01*
X106928700Y-30750000D02*
X108114300Y-30750000D01*
X121383800Y-44019500D02*
X121383800Y-53194400D01*
X97907100Y-31828000D02*
X105850700Y-31828000D01*
X97763000Y-31683900D02*
X97907100Y-31828000D01*
X93700000Y-31683900D02*
X97763000Y-31683900D01*
X118150400Y-91600100D02*
X118150400Y-79899600D01*
X93700000Y-44750000D02*
X93700000Y-31683900D01*
X93700000Y-61750000D02*
X93700000Y-44750000D01*
X108114300Y-30750000D02*
X121383800Y-44019500D01*
X120700000Y-94149700D02*
X118150400Y-91600100D01*
X121383800Y-53194400D02*
X122861400Y-54672000D01*
X120150400Y-77899600D02*
X120150400Y-57383000D01*
X118150400Y-79899600D02*
X120150400Y-77899600D01*
%TO.N,/lRST*%
X109138700Y-58181600D02*
X109138700Y-39415300D01*
X107186100Y-73186100D02*
X107186100Y-60134200D01*
X107373000Y-38162000D02*
X106564300Y-37353300D01*
X108500000Y-74500000D02*
X107186100Y-73186100D01*
X106564300Y-37353300D02*
X106564300Y-35429100D01*
X109138700Y-39415300D02*
X107885400Y-38162000D01*
X107186100Y-60134200D02*
X109138700Y-58181600D01*
X106564300Y-35429100D02*
X107641400Y-34352000D01*
X115000000Y-74500000D02*
X108500000Y-74500000D01*
X107885400Y-38162000D02*
X107373000Y-38162000D01*
%TO.N,Net-(D47-Pad2)*%
X66187400Y-92824700D02*
X65904200Y-93107900D01*
X44145500Y-98000000D02*
X38750978Y-98000000D01*
X65904200Y-93107900D02*
X49037600Y-93107900D01*
X49037600Y-93107900D02*
X44145500Y-98000000D01*
X69000000Y-97950000D02*
X69000000Y-95057200D01*
X36683500Y-89138700D02*
X33145100Y-85600300D01*
X69000000Y-95057200D02*
X66767500Y-92824700D01*
X66767500Y-92824700D02*
X66187400Y-92824700D01*
X33145100Y-85600300D02*
X32870000Y-85600300D01*
X36683500Y-95932522D02*
X36683500Y-89138700D01*
X38750978Y-98000000D02*
X36683500Y-95932522D01*
X32870000Y-85600300D02*
X32870000Y-84500000D01*
%TD*%
M02*
