M48
; DRILL file {KiCad (5.99.0-12766-g4a3658027e)} date Sat 04 Dec 2021 14:11:22
; FORMAT={-:-/ absolute / metric / decimal}
; #@! TF.CreationDate,2021-12-04T14:11:22+09:00
; #@! TF.GenerationSoftware,Kicad,Pcbnew,(5.99.0-12766-g4a3658027e)
; #@! TF.FileFunction,Plated,1,2,PTH
FMAT,2
METRIC
; #@! TA.AperFunction,Plated,PTH,ViaDrill
T1C0.400
; #@! TA.AperFunction,Plated,PTH,ComponentDrill
T2C0.550
; #@! TA.AperFunction,Plated,PTH,ComponentDrill
T3C0.800
; #@! TA.AperFunction,Plated,PTH,ComponentDrill
T4C0.813
; #@! TA.AperFunction,Plated,PTH,ComponentDrill
T5C0.850
; #@! TA.AperFunction,Plated,PTH,ComponentDrill
T6C0.900
; #@! TA.AperFunction,Plated,PTH,ComponentDrill
T7C1.100
; #@! TA.AperFunction,Plated,PTH,ComponentDrill
T8C3.200
%
G90
G05
T1
X55.318Y-71.035
X57.7Y-69.088
X62.824Y-75.851
X63.451Y-77.179
X66.477Y-93.525
X67.963Y-76.824
X73.667Y-81.512
X75.7Y-75.851
X81.403Y-30.027
X93.7Y-76.824
X108.334Y-76.985
X116.6Y-75.18
X119.816Y-89.221
X120.873Y-64.0
T3
X25.25Y-21.0
X25.25Y-23.5
X25.25Y-26.0
X25.25Y-28.5
X25.25Y-31.0
X25.25Y-84.5
X25.25Y-87.0
X25.25Y-89.5
X25.25Y-92.0
X32.87Y-21.0
X32.87Y-23.5
X32.87Y-26.0
X32.87Y-28.5
X32.87Y-31.0
X32.87Y-84.5
X32.87Y-87.0
X32.87Y-89.5
X32.87Y-92.0
X78.88Y-96.75
X78.88Y-99.25
X78.88Y-101.75
X78.88Y-104.25
X78.88Y-106.75
X86.5Y-96.75
X86.5Y-99.25
X86.5Y-101.75
X86.5Y-104.25
X86.5Y-106.75
X88.63Y-96.75
X88.63Y-99.25
X88.63Y-101.75
X88.63Y-104.25
X88.63Y-106.75
X96.25Y-96.75
X96.25Y-99.25
X96.25Y-101.75
X96.25Y-104.25
X96.25Y-106.75
X98.38Y-96.75
X98.38Y-99.25
X98.38Y-101.75
X98.38Y-104.25
X98.38Y-106.75
X106.0Y-96.75
X106.0Y-99.25
X106.0Y-101.75
X106.0Y-104.25
X106.0Y-106.75
X110.0Y-101.0
X110.0Y-108.62
X113.0Y-101.0
X113.0Y-108.62
X117.75Y-71.0
X117.75Y-74.0
X122.75Y-71.0
X122.75Y-74.0
T4
X107.641Y-29.272
X107.641Y-31.812
X107.641Y-34.352
X107.641Y-36.892
X107.641Y-39.432
X107.641Y-41.972
X107.641Y-44.512
X107.641Y-47.052
X107.641Y-49.592
X107.641Y-52.132
X107.641Y-54.672
X107.641Y-57.212
X122.861Y-29.272
X122.861Y-31.812
X122.861Y-34.352
X122.861Y-36.892
X122.861Y-39.432
X122.861Y-41.972
X122.861Y-44.512
X122.861Y-47.052
X122.861Y-49.592
X122.861Y-52.132
X122.861Y-54.672
X122.861Y-57.212
T6
X109.5Y-63.5
X113.5Y-63.5
T7
X108.5Y-70.0
X108.5Y-74.5
X115.0Y-70.0
X115.0Y-74.5
T8
X19.25Y-88.25
X20.75Y-23.0
X55.25Y-89.75
X73.25Y-22.0
X73.25Y-96.5
X96.5Y-22.0
X111.75Y-96.5
T2
X121.875Y-60.125G85X122.525Y-60.125
G05
X121.875Y-67.875G85X122.525Y-67.875
G05
T5
X118.125Y-60.275G85X118.675Y-60.275
G05
X118.125Y-67.725G85X118.675Y-67.725
G05
T0
M30
