%TF.GenerationSoftware,KiCad,Pcbnew,(5.99.0-12766-g4a3658027e)*%
%TF.CreationDate,2021-12-04T14:11:10+09:00*%
%TF.ProjectId,left,6c656674-2e6b-4696-9361-645f70636258,rev?*%
%TF.SameCoordinates,Original*%
%TF.FileFunction,Legend,Bot*%
%TF.FilePolarity,Positive*%
%FSLAX46Y46*%
G04 Gerber Fmt 4.6, Leading zero omitted, Abs format (unit mm)*
G04 Created by KiCad (PCBNEW (5.99.0-12766-g4a3658027e)) date 2021-12-04 14:11:10*
%MOMM*%
%LPD*%
G01*
G04 APERTURE LIST*
%ADD10C,0.150000*%
%ADD11C,0.120000*%
%ADD12R,1.600000X1.600000*%
%ADD13O,1.600000X1.600000*%
%ADD14C,3.000000*%
%ADD15C,1.900000*%
%ADD16C,0.990600*%
%ADD17C,3.400000*%
%ADD18R,2.600000X2.600000*%
%ADD19R,1.950000X2.600000*%
%ADD20C,1.600000*%
%ADD21C,2.000000*%
%ADD22C,1.524000*%
%ADD23C,5.700000*%
%ADD24O,0.800000X0.800000*%
%ADD25O,1.800000X1.150000*%
%ADD26O,2.000000X1.450000*%
G04 APERTURE END LIST*
D10*
%TO.C,U1*%
%TO.C,SW21*%
X95604886Y-42437500D02*
X98204886Y-42437500D01*
X95600000Y-47087500D02*
X94600000Y-46150000D01*
X100629886Y-49287500D02*
X99354886Y-48262500D01*
X100629886Y-49287500D02*
X103179886Y-49287500D01*
X101204886Y-44637500D02*
X103179886Y-44637500D01*
X95604886Y-42437500D02*
X94654886Y-43362500D01*
X95604886Y-47087500D02*
X98179886Y-47087500D01*
X98205881Y-42438709D02*
G75*
G02*
X99067085Y-43140596I-38796J-926887D01*
G01*
X103179886Y-49287500D02*
G75*
G03*
X104179886Y-48362500I0J1003040D01*
G01*
X103179886Y-44637501D02*
G75*
G02*
X104254886Y-45562500I0J-1087162D01*
G01*
X99067085Y-43140596D02*
G75*
G03*
X101204886Y-44637500I2137801J778096D01*
G01*
X99354886Y-48262500D02*
G75*
G03*
X98179886Y-47087500I-1175000J0D01*
G01*
%TO.C,SW18*%
X77604886Y-59437500D02*
X76654886Y-60362500D01*
X77600000Y-64087500D02*
X76600000Y-63150000D01*
X82629886Y-66287500D02*
X81354886Y-65262500D01*
X77604886Y-59437500D02*
X80204886Y-59437500D01*
X77604886Y-64087500D02*
X80179886Y-64087500D01*
X83204886Y-61637500D02*
X85179886Y-61637500D01*
X82629886Y-66287500D02*
X85179886Y-66287500D01*
X80205881Y-59438709D02*
G75*
G02*
X81067085Y-60140596I-38796J-926887D01*
G01*
X81354886Y-65262500D02*
G75*
G03*
X80179886Y-64087500I-1175000J0D01*
G01*
X81067085Y-60140596D02*
G75*
G03*
X83204886Y-61637500I2137801J778096D01*
G01*
X85179886Y-66287500D02*
G75*
G03*
X86179886Y-65362500I0J1003040D01*
G01*
X85179886Y-61637501D02*
G75*
G02*
X86254886Y-62562500I0J-1087162D01*
G01*
%TO.C,SW8*%
X41604886Y-54437500D02*
X40654886Y-55362500D01*
X41604886Y-54437500D02*
X44204886Y-54437500D01*
X41604886Y-59087500D02*
X44179886Y-59087500D01*
X41600000Y-59087500D02*
X40600000Y-58150000D01*
X47204886Y-56637500D02*
X49179886Y-56637500D01*
X46629886Y-61287500D02*
X45354886Y-60262500D01*
X46629886Y-61287500D02*
X49179886Y-61287500D01*
X44205881Y-54438709D02*
G75*
G02*
X45067085Y-55140596I-38796J-926887D01*
G01*
X49179886Y-61287500D02*
G75*
G03*
X50179886Y-60362500I0J1003040D01*
G01*
X45067085Y-55140596D02*
G75*
G03*
X47204886Y-56637500I2137801J778096D01*
G01*
X45354886Y-60262500D02*
G75*
G03*
X44179886Y-59087500I-1175000J0D01*
G01*
X49179886Y-56637501D02*
G75*
G02*
X50254886Y-57562500I0J-1087162D01*
G01*
%TO.C,SW14*%
X95604886Y-81087500D02*
X98179886Y-81087500D01*
X101204886Y-78637500D02*
X103179886Y-78637500D01*
X95604886Y-76437500D02*
X98204886Y-76437500D01*
X95600000Y-81087500D02*
X94600000Y-80150000D01*
X95604886Y-76437500D02*
X94654886Y-77362500D01*
X100629886Y-83287500D02*
X99354886Y-82262500D01*
X100629886Y-83287500D02*
X103179886Y-83287500D01*
X103179886Y-83287500D02*
G75*
G03*
X104179886Y-82362500I0J1003040D01*
G01*
X99067085Y-77140596D02*
G75*
G03*
X101204886Y-78637500I2137801J778096D01*
G01*
X98205881Y-76438709D02*
G75*
G02*
X99067085Y-77140596I-38796J-926887D01*
G01*
X103179886Y-78637501D02*
G75*
G02*
X104254886Y-79562500I0J-1087162D01*
G01*
X99354886Y-82262500D02*
G75*
G03*
X98179886Y-81087500I-1175000J0D01*
G01*
%TO.C,SW9*%
X82629886Y-83287500D02*
X85179886Y-83287500D01*
X82629886Y-83287500D02*
X81354886Y-82262500D01*
X77604886Y-76437500D02*
X76654886Y-77362500D01*
X83204886Y-78637500D02*
X85179886Y-78637500D01*
X77600000Y-81087500D02*
X76600000Y-80150000D01*
X77604886Y-81087500D02*
X80179886Y-81087500D01*
X77604886Y-76437500D02*
X80204886Y-76437500D01*
X81354886Y-82262500D02*
G75*
G03*
X80179886Y-81087500I-1175000J0D01*
G01*
X81067085Y-77140596D02*
G75*
G03*
X83204886Y-78637500I2137801J778096D01*
G01*
X85179886Y-78637501D02*
G75*
G02*
X86254886Y-79562500I0J-1087162D01*
G01*
X85179886Y-83287500D02*
G75*
G03*
X86179886Y-82362500I0J1003040D01*
G01*
X80205881Y-76438709D02*
G75*
G02*
X81067085Y-77140596I-38796J-926887D01*
G01*
%TO.C,SW11*%
X65204886Y-20637500D02*
X67179886Y-20637500D01*
X64629886Y-25287500D02*
X67179886Y-25287500D01*
X64629886Y-25287500D02*
X63354886Y-24262500D01*
X59600000Y-23087500D02*
X58600000Y-22150000D01*
X59604886Y-23087500D02*
X62179886Y-23087500D01*
X59604886Y-18437500D02*
X58654886Y-19362500D01*
X59604886Y-18437500D02*
X62204886Y-18437500D01*
X67179886Y-20637501D02*
G75*
G02*
X68254886Y-21562500I0J-1087162D01*
G01*
X63354886Y-24262500D02*
G75*
G03*
X62179886Y-23087500I-1175000J0D01*
G01*
X67179886Y-25287500D02*
G75*
G03*
X68179886Y-24362500I0J1003040D01*
G01*
X62205881Y-18438709D02*
G75*
G02*
X63067085Y-19140596I-38796J-926887D01*
G01*
X63067085Y-19140596D02*
G75*
G03*
X65204886Y-20637500I2137801J778096D01*
G01*
%TO.C,SW19*%
X118629886Y-83287500D02*
X121179886Y-83287500D01*
X113604886Y-81087500D02*
X116179886Y-81087500D01*
X118629886Y-83287500D02*
X117354886Y-82262500D01*
X119204886Y-78637500D02*
X121179886Y-78637500D01*
X113604886Y-76437500D02*
X112654886Y-77362500D01*
X113604886Y-76437500D02*
X116204886Y-76437500D01*
X113600000Y-81087500D02*
X112600000Y-80150000D01*
X121179886Y-83287500D02*
G75*
G03*
X122179886Y-82362500I0J1003040D01*
G01*
X116205881Y-76438709D02*
G75*
G02*
X117067085Y-77140596I-38796J-926887D01*
G01*
X117354886Y-82262500D02*
G75*
G03*
X116179886Y-81087500I-1175000J0D01*
G01*
X121179886Y-78637501D02*
G75*
G02*
X122254886Y-79562500I0J-1087162D01*
G01*
X117067085Y-77140596D02*
G75*
G03*
X119204886Y-78637500I2137801J778096D01*
G01*
%TO.C,SW17*%
X77604886Y-42437500D02*
X80204886Y-42437500D01*
X77600000Y-47087500D02*
X76600000Y-46150000D01*
X82629886Y-49287500D02*
X85179886Y-49287500D01*
X83204886Y-44637500D02*
X85179886Y-44637500D01*
X82629886Y-49287500D02*
X81354886Y-48262500D01*
X77604886Y-47087500D02*
X80179886Y-47087500D01*
X77604886Y-42437500D02*
X76654886Y-43362500D01*
X80205881Y-42438709D02*
G75*
G02*
X81067085Y-43140596I-38796J-926887D01*
G01*
X85179886Y-44637501D02*
G75*
G02*
X86254886Y-45562500I0J-1087162D01*
G01*
X81067085Y-43140596D02*
G75*
G03*
X83204886Y-44637500I2137801J778096D01*
G01*
X85179886Y-49287500D02*
G75*
G03*
X86179886Y-48362500I0J1003040D01*
G01*
X81354886Y-48262500D02*
G75*
G03*
X80179886Y-47087500I-1175000J0D01*
G01*
%TO.C,SW5*%
X23604886Y-93437500D02*
X22654886Y-94362500D01*
X23600000Y-98087500D02*
X22600000Y-97150000D01*
X29204886Y-95637500D02*
X31179886Y-95637500D01*
X23604886Y-98087500D02*
X26179886Y-98087500D01*
X28629886Y-100287500D02*
X31179886Y-100287500D01*
X23604886Y-93437500D02*
X26204886Y-93437500D01*
X28629886Y-100287500D02*
X27354886Y-99262500D01*
X27067085Y-94140596D02*
G75*
G03*
X29204886Y-95637500I2137801J778096D01*
G01*
X31179886Y-100287500D02*
G75*
G03*
X32179886Y-99362500I0J1003040D01*
G01*
X27354886Y-99262500D02*
G75*
G03*
X26179886Y-98087500I-1175000J0D01*
G01*
X26205881Y-93438709D02*
G75*
G02*
X27067085Y-94140596I-38796J-926887D01*
G01*
X31179886Y-95637501D02*
G75*
G02*
X32254886Y-96562500I0J-1087162D01*
G01*
%TO.C,SW4*%
X59604886Y-69437500D02*
X58654886Y-70362500D01*
X64629886Y-76287500D02*
X67179886Y-76287500D01*
X59604886Y-74087500D02*
X62179886Y-74087500D01*
X59604886Y-69437500D02*
X62204886Y-69437500D01*
X65204886Y-71637500D02*
X67179886Y-71637500D01*
X64629886Y-76287500D02*
X63354886Y-75262500D01*
X59600000Y-74087500D02*
X58600000Y-73150000D01*
X67179886Y-76287500D02*
G75*
G03*
X68179886Y-75362500I0J1003040D01*
G01*
X62205881Y-69438709D02*
G75*
G02*
X63067085Y-70140596I-38796J-926887D01*
G01*
X67179886Y-71637501D02*
G75*
G02*
X68254886Y-72562500I0J-1087162D01*
G01*
X63354886Y-75262500D02*
G75*
G03*
X62179886Y-74087500I-1175000J0D01*
G01*
X63067085Y-70140596D02*
G75*
G03*
X65204886Y-71637500I2137801J778096D01*
G01*
%TO.C,SW15*%
X41604886Y-93437500D02*
X44204886Y-93437500D01*
X46629886Y-100287500D02*
X45354886Y-99262500D01*
X41600000Y-98087500D02*
X40600000Y-97150000D01*
X41604886Y-93437500D02*
X40654886Y-94362500D01*
X47204886Y-95637500D02*
X49179886Y-95637500D01*
X46629886Y-100287500D02*
X49179886Y-100287500D01*
X41604886Y-98087500D02*
X44179886Y-98087500D01*
X45354886Y-99262500D02*
G75*
G03*
X44179886Y-98087500I-1175000J0D01*
G01*
X44205881Y-93438709D02*
G75*
G02*
X45067085Y-94140596I-38796J-926887D01*
G01*
X49179886Y-100287500D02*
G75*
G03*
X50179886Y-99362500I0J1003040D01*
G01*
X49179886Y-95637501D02*
G75*
G02*
X50254886Y-96562500I0J-1087162D01*
G01*
X45067085Y-94140596D02*
G75*
G03*
X47204886Y-95637500I2137801J778096D01*
G01*
%TO.C,SW12*%
X64629886Y-42287500D02*
X67179886Y-42287500D01*
X64629886Y-42287500D02*
X63354886Y-41262500D01*
X59604886Y-40087500D02*
X62179886Y-40087500D01*
X59604886Y-35437500D02*
X62204886Y-35437500D01*
X59604886Y-35437500D02*
X58654886Y-36362500D01*
X65204886Y-37637500D02*
X67179886Y-37637500D01*
X59600000Y-40087500D02*
X58600000Y-39150000D01*
X63067085Y-36140596D02*
G75*
G03*
X65204886Y-37637500I2137801J778096D01*
G01*
X67179886Y-42287500D02*
G75*
G03*
X68179886Y-41362500I0J1003040D01*
G01*
X63354886Y-41262500D02*
G75*
G03*
X62179886Y-40087500I-1175000J0D01*
G01*
X62205881Y-35438709D02*
G75*
G02*
X63067085Y-36140596I-38796J-926887D01*
G01*
X67179886Y-37637501D02*
G75*
G02*
X68254886Y-38562500I0J-1087162D01*
G01*
%TO.C,SW6*%
X41604886Y-20437500D02*
X40654886Y-21362500D01*
X41604886Y-20437500D02*
X44204886Y-20437500D01*
X41600000Y-25087500D02*
X40600000Y-24150000D01*
X46629886Y-27287500D02*
X45354886Y-26262500D01*
X47204886Y-22637500D02*
X49179886Y-22637500D01*
X46629886Y-27287500D02*
X49179886Y-27287500D01*
X41604886Y-25087500D02*
X44179886Y-25087500D01*
X44205881Y-20438709D02*
G75*
G02*
X45067085Y-21140596I-38796J-926887D01*
G01*
X45354886Y-26262500D02*
G75*
G03*
X44179886Y-25087500I-1175000J0D01*
G01*
X49179886Y-22637501D02*
G75*
G02*
X50254886Y-23562500I0J-1087162D01*
G01*
X49179886Y-27287500D02*
G75*
G03*
X50179886Y-26362500I0J1003040D01*
G01*
X45067085Y-21140596D02*
G75*
G03*
X47204886Y-22637500I2137801J778096D01*
G01*
%TO.C,SW23*%
X122604886Y-93437500D02*
X125204886Y-93437500D01*
X128204886Y-95637500D02*
X130179886Y-95637500D01*
X122604886Y-98087500D02*
X125179886Y-98087500D01*
X122604886Y-93437500D02*
X121654886Y-94362500D01*
X127629886Y-100287500D02*
X130179886Y-100287500D01*
X122600000Y-98087500D02*
X121600000Y-97150000D01*
X127629886Y-100287500D02*
X126354886Y-99262500D01*
X125205881Y-93438709D02*
G75*
G02*
X126067085Y-94140596I-38796J-926887D01*
G01*
X126354886Y-99262500D02*
G75*
G03*
X125179886Y-98087500I-1175000J0D01*
G01*
X130179886Y-100287500D02*
G75*
G03*
X131179886Y-99362500I0J1003040D01*
G01*
X126067085Y-94140596D02*
G75*
G03*
X128204886Y-95637500I2137801J778096D01*
G01*
X130179886Y-95637501D02*
G75*
G02*
X131254886Y-96562500I0J-1087162D01*
G01*
%TO.C,SW13*%
X64629886Y-59287500D02*
X63354886Y-58262500D01*
X59600000Y-57087500D02*
X58600000Y-56150000D01*
X64629886Y-59287500D02*
X67179886Y-59287500D01*
X59604886Y-52437500D02*
X58654886Y-53362500D01*
X65204886Y-54637500D02*
X67179886Y-54637500D01*
X59604886Y-57087500D02*
X62179886Y-57087500D01*
X59604886Y-52437500D02*
X62204886Y-52437500D01*
X67179886Y-59287500D02*
G75*
G03*
X68179886Y-58362500I0J1003040D01*
G01*
X62205881Y-52438709D02*
G75*
G02*
X63067085Y-53140596I-38796J-926887D01*
G01*
X63354886Y-58262500D02*
G75*
G03*
X62179886Y-57087500I-1175000J0D01*
G01*
X63067085Y-53140596D02*
G75*
G03*
X65204886Y-54637500I2137801J778096D01*
G01*
X67179886Y-54637501D02*
G75*
G02*
X68254886Y-55562500I0J-1087162D01*
G01*
%TO.C,SW7*%
X46629886Y-44287500D02*
X45354886Y-43262500D01*
X41600000Y-42087500D02*
X40600000Y-41150000D01*
X46629886Y-44287500D02*
X49179886Y-44287500D01*
X41604886Y-37437500D02*
X40654886Y-38362500D01*
X41604886Y-42087500D02*
X44179886Y-42087500D01*
X47204886Y-39637500D02*
X49179886Y-39637500D01*
X41604886Y-37437500D02*
X44204886Y-37437500D01*
X44205881Y-37438709D02*
G75*
G02*
X45067085Y-38140596I-38796J-926887D01*
G01*
X45354886Y-43262500D02*
G75*
G03*
X44179886Y-42087500I-1175000J0D01*
G01*
X49179886Y-39637501D02*
G75*
G02*
X50254886Y-40562500I0J-1087162D01*
G01*
X49179886Y-44287500D02*
G75*
G03*
X50179886Y-43362500I0J1003040D01*
G01*
X45067085Y-38140596D02*
G75*
G03*
X47204886Y-39637500I2137801J778096D01*
G01*
%TO.C,SW20*%
X95604886Y-25437500D02*
X98204886Y-25437500D01*
X95604886Y-25437500D02*
X94654886Y-26362500D01*
X101204886Y-27637500D02*
X103179886Y-27637500D01*
X95600000Y-30087500D02*
X94600000Y-29150000D01*
X100629886Y-32287500D02*
X103179886Y-32287500D01*
X100629886Y-32287500D02*
X99354886Y-31262500D01*
X95604886Y-30087500D02*
X98179886Y-30087500D01*
X103179886Y-27637501D02*
G75*
G02*
X104254886Y-28562500I0J-1087162D01*
G01*
X98205881Y-25438709D02*
G75*
G02*
X99067085Y-26140596I-38796J-926887D01*
G01*
X99354886Y-31262500D02*
G75*
G03*
X98179886Y-30087500I-1175000J0D01*
G01*
X99067085Y-26140596D02*
G75*
G03*
X101204886Y-27637500I2137801J778096D01*
G01*
X103179886Y-32287500D02*
G75*
G03*
X104179886Y-31362500I0J1003040D01*
G01*
%TO.C,SW1*%
X23604886Y-32437500D02*
X26204886Y-32437500D01*
X23604886Y-32437500D02*
X22654886Y-33362500D01*
X23604886Y-37087500D02*
X26179886Y-37087500D01*
X28629886Y-39287500D02*
X31179886Y-39287500D01*
X29204886Y-34637500D02*
X31179886Y-34637500D01*
X23600000Y-37087500D02*
X22600000Y-36150000D01*
X28629886Y-39287500D02*
X27354886Y-38262500D01*
X26205881Y-32438709D02*
G75*
G02*
X27067085Y-33140596I-38796J-926887D01*
G01*
X31179886Y-34637501D02*
G75*
G02*
X32254886Y-35562500I0J-1087162D01*
G01*
X27067085Y-33140596D02*
G75*
G03*
X29204886Y-34637500I2137801J778096D01*
G01*
X31179886Y-39287500D02*
G75*
G03*
X32179886Y-38362500I0J1003040D01*
G01*
X27354886Y-38262500D02*
G75*
G03*
X26179886Y-37087500I-1175000J0D01*
G01*
%TO.C,SW2*%
X28629886Y-56287500D02*
X27354886Y-55262500D01*
X23600000Y-54087500D02*
X22600000Y-53150000D01*
X23604886Y-54087500D02*
X26179886Y-54087500D01*
X29204886Y-51637500D02*
X31179886Y-51637500D01*
X28629886Y-56287500D02*
X31179886Y-56287500D01*
X23604886Y-49437500D02*
X26204886Y-49437500D01*
X23604886Y-49437500D02*
X22654886Y-50362500D01*
X31179886Y-56287500D02*
G75*
G03*
X32179886Y-55362500I0J1003040D01*
G01*
X31179886Y-51637501D02*
G75*
G02*
X32254886Y-52562500I0J-1087162D01*
G01*
X26205881Y-49438709D02*
G75*
G02*
X27067085Y-50140596I-38796J-926887D01*
G01*
X27354886Y-55262500D02*
G75*
G03*
X26179886Y-54087500I-1175000J0D01*
G01*
X27067085Y-50140596D02*
G75*
G03*
X29204886Y-51637500I2137801J778096D01*
G01*
%TO.C,SW16*%
X83204886Y-27637500D02*
X85179886Y-27637500D01*
X82629886Y-32287500D02*
X85179886Y-32287500D01*
X77604886Y-25437500D02*
X76654886Y-26362500D01*
X77604886Y-25437500D02*
X80204886Y-25437500D01*
X77604886Y-30087500D02*
X80179886Y-30087500D01*
X77600000Y-30087500D02*
X76600000Y-29150000D01*
X82629886Y-32287500D02*
X81354886Y-31262500D01*
X80205881Y-25438709D02*
G75*
G02*
X81067085Y-26140596I-38796J-926887D01*
G01*
X81067085Y-26140596D02*
G75*
G03*
X83204886Y-27637500I2137801J778096D01*
G01*
X85179886Y-27637501D02*
G75*
G02*
X86254886Y-28562500I0J-1087162D01*
G01*
X85179886Y-32287500D02*
G75*
G03*
X86179886Y-31362500I0J1003040D01*
G01*
X81354886Y-31262500D02*
G75*
G03*
X80179886Y-30087500I-1175000J0D01*
G01*
%TO.C,SW22*%
X95604886Y-59437500D02*
X94654886Y-60362500D01*
X95600000Y-64087500D02*
X94600000Y-63150000D01*
X100629886Y-66287500D02*
X99354886Y-65262500D01*
X95604886Y-64087500D02*
X98179886Y-64087500D01*
X101204886Y-61637500D02*
X103179886Y-61637500D01*
X95604886Y-59437500D02*
X98204886Y-59437500D01*
X100629886Y-66287500D02*
X103179886Y-66287500D01*
X103179886Y-66287500D02*
G75*
G03*
X104179886Y-65362500I0J1003040D01*
G01*
X103179886Y-61637501D02*
G75*
G02*
X104254886Y-62562500I0J-1087162D01*
G01*
X98205881Y-59438709D02*
G75*
G02*
X99067085Y-60140596I-38796J-926887D01*
G01*
X99067085Y-60140596D02*
G75*
G03*
X101204886Y-61637500I2137801J778096D01*
G01*
X99354886Y-65262500D02*
G75*
G03*
X98179886Y-64087500I-1175000J0D01*
G01*
%TO.C,SW3*%
X23604886Y-66437500D02*
X26204886Y-66437500D01*
X23604886Y-71087500D02*
X26179886Y-71087500D01*
X28629886Y-73287500D02*
X27354886Y-72262500D01*
X23604886Y-66437500D02*
X22654886Y-67362500D01*
X28629886Y-73287500D02*
X31179886Y-73287500D01*
X29204886Y-68637500D02*
X31179886Y-68637500D01*
X23600000Y-71087500D02*
X22600000Y-70150000D01*
X26205881Y-66438709D02*
G75*
G02*
X27067085Y-67140596I-38796J-926887D01*
G01*
X27354886Y-72262500D02*
G75*
G03*
X26179886Y-71087500I-1175000J0D01*
G01*
X31179886Y-73287500D02*
G75*
G03*
X32179886Y-72362500I0J1003040D01*
G01*
X31179886Y-68637501D02*
G75*
G02*
X32254886Y-69562500I0J-1087162D01*
G01*
X27067085Y-67140596D02*
G75*
G03*
X29204886Y-68637500I2137801J778096D01*
G01*
%TO.C,SW10*%
X41604886Y-76437500D02*
X40654886Y-77362500D01*
X46629886Y-83287500D02*
X49179886Y-83287500D01*
X46629886Y-83287500D02*
X45354886Y-82262500D01*
X47204886Y-78637500D02*
X49179886Y-78637500D01*
X41600000Y-81087500D02*
X40600000Y-80150000D01*
X41604886Y-81087500D02*
X44179886Y-81087500D01*
X41604886Y-76437500D02*
X44204886Y-76437500D01*
X45354886Y-82262500D02*
G75*
G03*
X44179886Y-81087500I-1175000J0D01*
G01*
X45067085Y-77140596D02*
G75*
G03*
X47204886Y-78637500I2137801J778096D01*
G01*
X49179886Y-78637501D02*
G75*
G02*
X50254886Y-79562500I0J-1087162D01*
G01*
X49179886Y-83287500D02*
G75*
G03*
X50179886Y-82362500I0J1003040D01*
G01*
X44205881Y-76438709D02*
G75*
G02*
X45067085Y-77140596I-38796J-926887D01*
G01*
%TO.C,SW49*%
X64629886Y-100287500D02*
X63354886Y-99262500D01*
X65204886Y-95637500D02*
X67179886Y-95637500D01*
X64629886Y-100287500D02*
X67179886Y-100287500D01*
X59604886Y-98087500D02*
X62179886Y-98087500D01*
X59600000Y-98087500D02*
X58600000Y-97150000D01*
X59604886Y-93437500D02*
X62204886Y-93437500D01*
X59604886Y-93437500D02*
X58654886Y-94362500D01*
X67179886Y-95637501D02*
G75*
G02*
X68254886Y-96562500I0J-1087162D01*
G01*
X62205881Y-93438709D02*
G75*
G02*
X63067085Y-94140596I-38796J-926887D01*
G01*
X67179886Y-100287500D02*
G75*
G03*
X68179886Y-99362500I0J1003040D01*
G01*
X63067085Y-94140596D02*
G75*
G03*
X65204886Y-95637500I2137801J778096D01*
G01*
X63354886Y-99262500D02*
G75*
G03*
X62179886Y-98087500I-1175000J0D01*
G01*
D11*
%TO.C,C1*%
X117130000Y-72370000D02*
X123370000Y-72370000D01*
X123370000Y-72370000D02*
X123370000Y-71925000D01*
X117130000Y-70075000D02*
X117130000Y-69630000D01*
X117130000Y-69630000D02*
X123370000Y-69630000D01*
X123370000Y-70075000D02*
X123370000Y-69630000D01*
X117130000Y-72370000D02*
X117130000Y-71925000D01*
%TO.C,C2*%
X117130000Y-73075000D02*
X117130000Y-72630000D01*
X123370000Y-73075000D02*
X123370000Y-72630000D01*
X123370000Y-75370000D02*
X123370000Y-74925000D01*
X117130000Y-72630000D02*
X123370000Y-72630000D01*
X117130000Y-75370000D02*
X117130000Y-74925000D01*
X117130000Y-75370000D02*
X123370000Y-75370000D01*
%TD*%
%LPC*%
D12*
%TO.C,D21*%
X86500000Y-96750000D03*
D13*
X78880000Y-96750000D03*
%TD*%
D12*
%TO.C,D13*%
X96250000Y-101750000D03*
D13*
X88630000Y-101750000D03*
%TD*%
D14*
%TO.C,SW21*%
X102000000Y-47000000D03*
X97000000Y-44800000D03*
D15*
X91500000Y-50750000D03*
X102500000Y-50750000D03*
D16*
X91780000Y-54950000D03*
D17*
X97000000Y-50750000D03*
D18*
X93700000Y-44750000D03*
D19*
X105000000Y-46950000D03*
%TD*%
D20*
%TO.C,R1*%
X110000000Y-101000000D03*
D13*
X110000000Y-108620000D03*
%TD*%
D14*
%TO.C,SW18*%
X84000000Y-64000000D03*
D16*
X73780000Y-71950000D03*
D15*
X73500000Y-67750000D03*
D14*
X79000000Y-61800000D03*
D15*
X84500000Y-67750000D03*
D17*
X79000000Y-67750000D03*
D18*
X75700000Y-61750000D03*
D19*
X87000000Y-63950000D03*
%TD*%
D21*
%TO.C,SW47*%
X115000000Y-74500000D03*
X108500000Y-74500000D03*
X108500000Y-70000000D03*
X115000000Y-70000000D03*
%TD*%
D12*
%TO.C,D4*%
X106000000Y-106750000D03*
D13*
X98380000Y-106750000D03*
%TD*%
D14*
%TO.C,SW8*%
X48000000Y-59000000D03*
D15*
X48500000Y-62750000D03*
D17*
X43000000Y-62750000D03*
D15*
X37500000Y-62750000D03*
D14*
X43000000Y-56800000D03*
D16*
X37780000Y-66950000D03*
D18*
X39700000Y-56750000D03*
D19*
X51000000Y-58950000D03*
%TD*%
D16*
%TO.C,SW14*%
X91780000Y-88950000D03*
D15*
X102500000Y-84750000D03*
X91500000Y-84750000D03*
D14*
X102000000Y-81000000D03*
D17*
X97000000Y-84750000D03*
D14*
X97000000Y-78800000D03*
D18*
X93700000Y-78750000D03*
D19*
X105000000Y-80950000D03*
%TD*%
D15*
%TO.C,SW9*%
X84500000Y-84750000D03*
D16*
X73780000Y-88950000D03*
D14*
X84000000Y-81000000D03*
X79000000Y-78800000D03*
D17*
X79000000Y-84750000D03*
D15*
X73500000Y-84750000D03*
D18*
X75700000Y-78750000D03*
D19*
X87000000Y-80950000D03*
%TD*%
D14*
%TO.C,SW11*%
X66000000Y-23000000D03*
D16*
X55780000Y-30950000D03*
D14*
X61000000Y-20800000D03*
D15*
X55500000Y-26750000D03*
D17*
X61000000Y-26750000D03*
D15*
X66500000Y-26750000D03*
D18*
X57700000Y-20750000D03*
D19*
X69000000Y-22950000D03*
%TD*%
D12*
%TO.C,D8*%
X96250000Y-104250000D03*
D13*
X88630000Y-104250000D03*
%TD*%
D15*
%TO.C,SW19*%
X120500000Y-84750000D03*
D17*
X115000000Y-84750000D03*
D15*
X109500000Y-84750000D03*
D14*
X120000000Y-81000000D03*
D16*
X109780000Y-88950000D03*
D14*
X115000000Y-78800000D03*
D18*
X111700000Y-78750000D03*
D19*
X123000000Y-80950000D03*
%TD*%
D14*
%TO.C,SW17*%
X84000000Y-47000000D03*
D16*
X73780000Y-54950000D03*
D15*
X73500000Y-50750000D03*
D14*
X79000000Y-44800000D03*
D15*
X84500000Y-50750000D03*
D17*
X79000000Y-50750000D03*
D18*
X75700000Y-44750000D03*
D19*
X87000000Y-46950000D03*
%TD*%
D12*
%TO.C,D6*%
X25250000Y-28500000D03*
D13*
X32870000Y-28500000D03*
%TD*%
D14*
%TO.C,SW5*%
X25000000Y-95800000D03*
X30000000Y-98000000D03*
D15*
X19500000Y-101750000D03*
D16*
X19780000Y-105950000D03*
D15*
X30500000Y-101750000D03*
D17*
X25000000Y-101750000D03*
D18*
X21700000Y-95750000D03*
D19*
X33000000Y-97950000D03*
%TD*%
D14*
%TO.C,SW4*%
X66000000Y-74000000D03*
D15*
X66500000Y-77750000D03*
X55500000Y-77750000D03*
D14*
X61000000Y-71800000D03*
D16*
X55780000Y-81950000D03*
D17*
X61000000Y-77750000D03*
D18*
X57700000Y-71750000D03*
D19*
X69000000Y-73950000D03*
%TD*%
D17*
%TO.C,SW15*%
X43000000Y-101750000D03*
D15*
X37500000Y-101750000D03*
D16*
X37780000Y-105950000D03*
D14*
X43000000Y-95800000D03*
X48000000Y-98000000D03*
D15*
X48500000Y-101750000D03*
D18*
X39700000Y-95750000D03*
D19*
X51000000Y-97950000D03*
%TD*%
D12*
%TO.C,D23*%
X106000000Y-96750000D03*
D13*
X98380000Y-96750000D03*
%TD*%
D12*
%TO.C,D2*%
X86500000Y-106750000D03*
D13*
X78880000Y-106750000D03*
%TD*%
D12*
%TO.C,D3*%
X96250000Y-106750000D03*
D13*
X88630000Y-106750000D03*
%TD*%
D12*
%TO.C,D10*%
X25250000Y-89500000D03*
D13*
X32870000Y-89500000D03*
%TD*%
D14*
%TO.C,SW12*%
X61000000Y-37800000D03*
D17*
X61000000Y-43750000D03*
D16*
X55780000Y-47950000D03*
D14*
X66000000Y-40000000D03*
D15*
X66500000Y-43750000D03*
X55500000Y-43750000D03*
D18*
X57700000Y-37750000D03*
D19*
X69000000Y-39950000D03*
%TD*%
D12*
%TO.C,D5*%
X25250000Y-92000000D03*
D13*
X32870000Y-92000000D03*
%TD*%
D14*
%TO.C,SW6*%
X48000000Y-25000000D03*
D15*
X37500000Y-28750000D03*
D17*
X43000000Y-28750000D03*
D16*
X37780000Y-32950000D03*
D15*
X48500000Y-28750000D03*
D14*
X43000000Y-22800000D03*
D18*
X39700000Y-22750000D03*
D19*
X51000000Y-24950000D03*
%TD*%
D12*
%TO.C,D12*%
X86500000Y-101750000D03*
D13*
X78880000Y-101750000D03*
%TD*%
D12*
%TO.C,D20*%
X25250000Y-21000000D03*
D13*
X32870000Y-21000000D03*
%TD*%
D20*
%TO.C,R2*%
X113000000Y-101000000D03*
D13*
X113000000Y-108620000D03*
%TD*%
D12*
%TO.C,D9*%
X106000000Y-104250000D03*
D13*
X98380000Y-104250000D03*
%TD*%
D12*
%TO.C,D18*%
X96250000Y-99250000D03*
D13*
X88630000Y-99250000D03*
%TD*%
D12*
%TO.C,D17*%
X86500000Y-99250000D03*
D13*
X78880000Y-99250000D03*
%TD*%
D12*
%TO.C,D15*%
X25250000Y-87000000D03*
D13*
X32870000Y-87000000D03*
%TD*%
D22*
%TO.C,U1*%
X122861400Y-29272000D03*
X122861400Y-31812000D03*
X122861400Y-34352000D03*
X122861400Y-36892000D03*
X122861400Y-39432000D03*
X122861400Y-41972000D03*
X122861400Y-44512000D03*
X122861400Y-47052000D03*
X122861400Y-49592000D03*
X122861400Y-52132000D03*
X122861400Y-54672000D03*
X122861400Y-57212000D03*
X107641400Y-57212000D03*
X107641400Y-54672000D03*
X107641400Y-52132000D03*
X107641400Y-49592000D03*
X107641400Y-47052000D03*
X107641400Y-44512000D03*
X107641400Y-41972000D03*
X107641400Y-39432000D03*
X107641400Y-36892000D03*
X107641400Y-34352000D03*
X107641400Y-31812000D03*
X107641400Y-29272000D03*
%TD*%
D16*
%TO.C,SW23*%
X118780000Y-105950000D03*
D17*
X124000000Y-101750000D03*
D14*
X129000000Y-98000000D03*
D15*
X118500000Y-101750000D03*
X129500000Y-101750000D03*
D14*
X124000000Y-95800000D03*
D18*
X120700000Y-95750000D03*
D19*
X132000000Y-97950000D03*
%TD*%
D15*
%TO.C,SW13*%
X66500000Y-60750000D03*
D16*
X55780000Y-64950000D03*
D17*
X61000000Y-60750000D03*
D14*
X66000000Y-57000000D03*
X61000000Y-54800000D03*
D15*
X55500000Y-60750000D03*
D18*
X57700000Y-54750000D03*
D19*
X69000000Y-56950000D03*
%TD*%
D15*
%TO.C,SW7*%
X37500000Y-45750000D03*
D14*
X43000000Y-39800000D03*
D17*
X43000000Y-45750000D03*
D16*
X37780000Y-49950000D03*
D15*
X48500000Y-45750000D03*
D14*
X48000000Y-42000000D03*
D18*
X39700000Y-39750000D03*
D19*
X51000000Y-41950000D03*
%TD*%
D15*
%TO.C,SW20*%
X102500000Y-33750000D03*
D14*
X102000000Y-30000000D03*
D15*
X91500000Y-33750000D03*
D14*
X97000000Y-27800000D03*
D16*
X91780000Y-37950000D03*
D17*
X97000000Y-33750000D03*
D18*
X93700000Y-27750000D03*
D19*
X105000000Y-29950000D03*
%TD*%
D12*
%TO.C,D22*%
X96250000Y-96750000D03*
D13*
X88630000Y-96750000D03*
%TD*%
D15*
%TO.C,SW1*%
X19500000Y-40750000D03*
D14*
X25000000Y-34800000D03*
D16*
X19780000Y-44950000D03*
D15*
X30500000Y-40750000D03*
D14*
X30000000Y-37000000D03*
D17*
X25000000Y-40750000D03*
D18*
X21700000Y-34750000D03*
D19*
X33000000Y-36950000D03*
%TD*%
D12*
%TO.C,D14*%
X106000000Y-101750000D03*
D13*
X98380000Y-101750000D03*
%TD*%
D15*
%TO.C,SW2*%
X30500000Y-57750000D03*
D16*
X19780000Y-61950000D03*
D15*
X19500000Y-57750000D03*
D14*
X30000000Y-54000000D03*
D17*
X25000000Y-57750000D03*
D14*
X25000000Y-51800000D03*
D18*
X21700000Y-51750000D03*
D19*
X33000000Y-53950000D03*
%TD*%
D12*
%TO.C,D11*%
X25250000Y-26000000D03*
D13*
X32870000Y-26000000D03*
%TD*%
D17*
%TO.C,SW16*%
X79000000Y-33750000D03*
D15*
X73500000Y-33750000D03*
D14*
X79000000Y-27800000D03*
D16*
X73780000Y-37950000D03*
D14*
X84000000Y-30000000D03*
D15*
X84500000Y-33750000D03*
D18*
X75700000Y-27750000D03*
D19*
X87000000Y-29950000D03*
%TD*%
D12*
%TO.C,D7*%
X86500000Y-104250000D03*
D13*
X78880000Y-104250000D03*
%TD*%
D12*
%TO.C,D1*%
X25250000Y-31000000D03*
D13*
X32870000Y-31000000D03*
%TD*%
D14*
%TO.C,SW22*%
X102000000Y-64000000D03*
X97000000Y-61800000D03*
D15*
X102500000Y-67750000D03*
D17*
X97000000Y-67750000D03*
D15*
X91500000Y-67750000D03*
D16*
X91780000Y-71950000D03*
D18*
X93700000Y-61750000D03*
D19*
X105000000Y-63950000D03*
%TD*%
D12*
%TO.C,D16*%
X25250000Y-23500000D03*
D13*
X32870000Y-23500000D03*
%TD*%
D15*
%TO.C,SW3*%
X19500000Y-74750000D03*
D16*
X19780000Y-78950000D03*
D14*
X25000000Y-68800000D03*
X30000000Y-71000000D03*
D17*
X25000000Y-74750000D03*
D15*
X30500000Y-74750000D03*
D18*
X21700000Y-68750000D03*
D19*
X33000000Y-70950000D03*
%TD*%
D12*
%TO.C,D19*%
X106000000Y-99250000D03*
D13*
X98380000Y-99250000D03*
%TD*%
D15*
%TO.C,SW10*%
X37500000Y-84750000D03*
D16*
X37780000Y-88950000D03*
D14*
X43000000Y-78800000D03*
D15*
X48500000Y-84750000D03*
D17*
X43000000Y-84750000D03*
D14*
X48000000Y-81000000D03*
D18*
X39700000Y-78750000D03*
D19*
X51000000Y-80950000D03*
%TD*%
D23*
%TO.C,H4*%
X96500000Y-22000000D03*
%TD*%
D24*
%TO.C,J1*%
X119450000Y-61500000D03*
X119450000Y-66500000D03*
D25*
X122200000Y-67875000D03*
D26*
X118400000Y-60275000D03*
X118400000Y-67725000D03*
D25*
X122200000Y-60125000D03*
%TD*%
D17*
%TO.C,SW49*%
X61000000Y-101750000D03*
D14*
X61000000Y-95800000D03*
X66000000Y-98000000D03*
D15*
X55500000Y-101750000D03*
D16*
X55780000Y-105950000D03*
D15*
X66500000Y-101750000D03*
D18*
X57700000Y-95750000D03*
D19*
X69000000Y-97950000D03*
%TD*%
D23*
%TO.C,H2*%
X19250000Y-88250000D03*
%TD*%
%TO.C,H1*%
X55250000Y-89750000D03*
%TD*%
D12*
%TO.C,D47*%
X25250000Y-84500000D03*
D13*
X32870000Y-84500000D03*
%TD*%
D23*
%TO.C,H8*%
X20750000Y-23000000D03*
%TD*%
D12*
%TO.C,BZ1*%
X113500000Y-63500000D03*
D20*
X109500000Y-63500000D03*
%TD*%
D23*
%TO.C,H6*%
X111750000Y-96500000D03*
%TD*%
%TO.C,H5*%
X73250000Y-22000000D03*
%TD*%
%TO.C,H7*%
X73250000Y-96500000D03*
%TD*%
D20*
%TO.C,C1*%
X117750000Y-71000000D03*
X122750000Y-71000000D03*
%TD*%
%TO.C,C2*%
X117750000Y-74000000D03*
X122750000Y-74000000D03*
%TD*%
M02*
