%FSLAX45Y45*%
G04 Gerber Fmt 4.5, Leading zero omitted, Abs format (unit mm)*
G04 Created by KiCad (PCBNEW (5.99.0-12766-g4a3658027e)) date 2021-12-04 14:16:48*
%MOMM*%
%LPD*%
G01*
G04 APERTURE LIST*
%TA.AperFunction,Profile*%
%ADD10C,0.050000*%
%TD*%
%ADD11C,0.200000*%
%ADD12C,0.320000*%
G04 APERTURE END LIST*
D10*
X2125000Y-21300000D02*
X13825000Y-21300000D01*
X2125000Y-21300000D02*
X2125000Y-12900000D01*
X10425000Y-12100000D02*
G75*
G03*
X11125000Y-12800000I700000J0D01*
G01*
X13825000Y-21300000D02*
X13825000Y-19600000D01*
X11125000Y-12800000D02*
X12950000Y-12800000D01*
X12950000Y-12800000D02*
X12950000Y-18700000D01*
X7525000Y-12100000D02*
X10425000Y-12100000D01*
X2925000Y-12100000D02*
X7525000Y-12100000D01*
X13825000Y-19600000D02*
G75*
G02*
X12950000Y-18700000I12500J887500D01*
G01*
X2925000Y-12100000D02*
G75*
G03*
X2125000Y-12900000I0J-800000D01*
G01*
D11*
D12*
X2290000Y-18940000D02*
X2610000Y-19260000D01*
X2610000Y-18940000D02*
X2290000Y-19260000D01*
X2440000Y-12415000D02*
X2760000Y-12735000D01*
X2760000Y-12415000D02*
X2440000Y-12735000D01*
X5890000Y-19090000D02*
X6210000Y-19410000D01*
X6210000Y-19090000D02*
X5890000Y-19410000D01*
X7690000Y-12315000D02*
X8010000Y-12635000D01*
X8010000Y-12315000D02*
X7690000Y-12635000D01*
X7690000Y-19765000D02*
X8010000Y-20085000D01*
X8010000Y-19765000D02*
X7690000Y-20085000D01*
X10015000Y-12315000D02*
X10335000Y-12635000D01*
X10335000Y-12315000D02*
X10015000Y-12635000D01*
X11540000Y-19765000D02*
X11860000Y-20085000D01*
X11860000Y-19765000D02*
X11540000Y-20085000D01*
D11*
X2375119Y-21612976D02*
X2375119Y-21412976D01*
X2422738Y-21412976D01*
X2451310Y-21422500D01*
X2470357Y-21441548D01*
X2479881Y-21460595D01*
X2489405Y-21498690D01*
X2489405Y-21527262D01*
X2479881Y-21565357D01*
X2470357Y-21584405D01*
X2451310Y-21603452D01*
X2422738Y-21612976D01*
X2375119Y-21612976D01*
X2575119Y-21612976D02*
X2575119Y-21479643D01*
X2575119Y-21517738D02*
X2584643Y-21498690D01*
X2594167Y-21489167D01*
X2613214Y-21479643D01*
X2632262Y-21479643D01*
X2698929Y-21612976D02*
X2698929Y-21479643D01*
X2698929Y-21412976D02*
X2689405Y-21422500D01*
X2698929Y-21432024D01*
X2708452Y-21422500D01*
X2698929Y-21412976D01*
X2698929Y-21432024D01*
X2822738Y-21612976D02*
X2803690Y-21603452D01*
X2794167Y-21584405D01*
X2794167Y-21412976D01*
X2927500Y-21612976D02*
X2908452Y-21603452D01*
X2898928Y-21584405D01*
X2898928Y-21412976D01*
X3156071Y-21612976D02*
X3156071Y-21412976D01*
X3222738Y-21555833D01*
X3289405Y-21412976D01*
X3289405Y-21612976D01*
X3470357Y-21612976D02*
X3470357Y-21508214D01*
X3460833Y-21489167D01*
X3441786Y-21479643D01*
X3403690Y-21479643D01*
X3384643Y-21489167D01*
X3470357Y-21603452D02*
X3451309Y-21612976D01*
X3403690Y-21612976D01*
X3384643Y-21603452D01*
X3375119Y-21584405D01*
X3375119Y-21565357D01*
X3384643Y-21546310D01*
X3403690Y-21536786D01*
X3451309Y-21536786D01*
X3470357Y-21527262D01*
X3565595Y-21479643D02*
X3565595Y-21679643D01*
X3565595Y-21489167D02*
X3584643Y-21479643D01*
X3622738Y-21479643D01*
X3641786Y-21489167D01*
X3651309Y-21498690D01*
X3660833Y-21517738D01*
X3660833Y-21574881D01*
X3651309Y-21593929D01*
X3641786Y-21603452D01*
X3622738Y-21612976D01*
X3584643Y-21612976D01*
X3565595Y-21603452D01*
X3746548Y-21593929D02*
X3756071Y-21603452D01*
X3746548Y-21612976D01*
X3737024Y-21603452D01*
X3746548Y-21593929D01*
X3746548Y-21612976D01*
X3746548Y-21489167D02*
X3756071Y-21498690D01*
X3746548Y-21508214D01*
X3737024Y-21498690D01*
X3746548Y-21489167D01*
X3746548Y-21508214D01*
X1917500Y-21842500D02*
X2117500Y-22042500D01*
X2117500Y-21842500D02*
X1917500Y-22042500D01*
X2356071Y-21832976D02*
X2479881Y-21832976D01*
X2413214Y-21909167D01*
X2441786Y-21909167D01*
X2460833Y-21918690D01*
X2470357Y-21928214D01*
X2479881Y-21947262D01*
X2479881Y-21994881D01*
X2470357Y-22013929D01*
X2460833Y-22023452D01*
X2441786Y-22032976D01*
X2384643Y-22032976D01*
X2365595Y-22023452D01*
X2356071Y-22013929D01*
X2565595Y-22013929D02*
X2575119Y-22023452D01*
X2565595Y-22032976D01*
X2556071Y-22023452D01*
X2565595Y-22013929D01*
X2565595Y-22032976D01*
X2651310Y-21852024D02*
X2660833Y-21842500D01*
X2679881Y-21832976D01*
X2727500Y-21832976D01*
X2746548Y-21842500D01*
X2756071Y-21852024D01*
X2765595Y-21871071D01*
X2765595Y-21890119D01*
X2756071Y-21918690D01*
X2641786Y-22032976D01*
X2765595Y-22032976D01*
X2889405Y-21832976D02*
X2908452Y-21832976D01*
X2927500Y-21842500D01*
X2937024Y-21852024D01*
X2946548Y-21871071D01*
X2956071Y-21909167D01*
X2956071Y-21956786D01*
X2946548Y-21994881D01*
X2937024Y-22013929D01*
X2927500Y-22023452D01*
X2908452Y-22032976D01*
X2889405Y-22032976D01*
X2870357Y-22023452D01*
X2860833Y-22013929D01*
X2851309Y-21994881D01*
X2841786Y-21956786D01*
X2841786Y-21909167D01*
X2851309Y-21871071D01*
X2860833Y-21852024D01*
X2870357Y-21842500D01*
X2889405Y-21832976D01*
X3079881Y-21832976D02*
X3098928Y-21832976D01*
X3117976Y-21842500D01*
X3127500Y-21852024D01*
X3137024Y-21871071D01*
X3146548Y-21909167D01*
X3146548Y-21956786D01*
X3137024Y-21994881D01*
X3127500Y-22013929D01*
X3117976Y-22023452D01*
X3098928Y-22032976D01*
X3079881Y-22032976D01*
X3060833Y-22023452D01*
X3051309Y-22013929D01*
X3041786Y-21994881D01*
X3032262Y-21956786D01*
X3032262Y-21909167D01*
X3041786Y-21871071D01*
X3051309Y-21852024D01*
X3060833Y-21842500D01*
X3079881Y-21832976D01*
X3232262Y-22032976D02*
X3232262Y-21899643D01*
X3232262Y-21918690D02*
X3241786Y-21909167D01*
X3260833Y-21899643D01*
X3289405Y-21899643D01*
X3308452Y-21909167D01*
X3317976Y-21928214D01*
X3317976Y-22032976D01*
X3317976Y-21928214D02*
X3327500Y-21909167D01*
X3346548Y-21899643D01*
X3375119Y-21899643D01*
X3394167Y-21909167D01*
X3403690Y-21928214D01*
X3403690Y-22032976D01*
X3498928Y-22032976D02*
X3498928Y-21899643D01*
X3498928Y-21918690D02*
X3508452Y-21909167D01*
X3527500Y-21899643D01*
X3556071Y-21899643D01*
X3575119Y-21909167D01*
X3584643Y-21928214D01*
X3584643Y-22032976D01*
X3584643Y-21928214D02*
X3594167Y-21909167D01*
X3613214Y-21899643D01*
X3641786Y-21899643D01*
X3660833Y-21909167D01*
X3670357Y-21928214D01*
X3670357Y-22032976D01*
X4060833Y-21823452D02*
X3889405Y-22080595D01*
X4317976Y-21832976D02*
X4337024Y-21832976D01*
X4356071Y-21842500D01*
X4365595Y-21852024D01*
X4375119Y-21871071D01*
X4384643Y-21909167D01*
X4384643Y-21956786D01*
X4375119Y-21994881D01*
X4365595Y-22013929D01*
X4356071Y-22023452D01*
X4337024Y-22032976D01*
X4317976Y-22032976D01*
X4298929Y-22023452D01*
X4289405Y-22013929D01*
X4279881Y-21994881D01*
X4270357Y-21956786D01*
X4270357Y-21909167D01*
X4279881Y-21871071D01*
X4289405Y-21852024D01*
X4298929Y-21842500D01*
X4317976Y-21832976D01*
X4470357Y-22013929D02*
X4479881Y-22023452D01*
X4470357Y-22032976D01*
X4460833Y-22023452D01*
X4470357Y-22013929D01*
X4470357Y-22032976D01*
X4670357Y-22032976D02*
X4556071Y-22032976D01*
X4613214Y-22032976D02*
X4613214Y-21832976D01*
X4594167Y-21861548D01*
X4575119Y-21880595D01*
X4556071Y-21890119D01*
X4746548Y-21852024D02*
X4756071Y-21842500D01*
X4775119Y-21832976D01*
X4822738Y-21832976D01*
X4841786Y-21842500D01*
X4851310Y-21852024D01*
X4860833Y-21871071D01*
X4860833Y-21890119D01*
X4851310Y-21918690D01*
X4737024Y-22032976D01*
X4860833Y-22032976D01*
X5032262Y-21832976D02*
X4994167Y-21832976D01*
X4975119Y-21842500D01*
X4965595Y-21852024D01*
X4946548Y-21880595D01*
X4937024Y-21918690D01*
X4937024Y-21994881D01*
X4946548Y-22013929D01*
X4956071Y-22023452D01*
X4975119Y-22032976D01*
X5013214Y-22032976D01*
X5032262Y-22023452D01*
X5041786Y-22013929D01*
X5051310Y-21994881D01*
X5051310Y-21947262D01*
X5041786Y-21928214D01*
X5032262Y-21918690D01*
X5013214Y-21909167D01*
X4975119Y-21909167D01*
X4956071Y-21918690D01*
X4946548Y-21928214D01*
X4937024Y-21947262D01*
X5175119Y-21832976D02*
X5194167Y-21832976D01*
X5213214Y-21842500D01*
X5222738Y-21852024D01*
X5232262Y-21871071D01*
X5241786Y-21909167D01*
X5241786Y-21956786D01*
X5232262Y-21994881D01*
X5222738Y-22013929D01*
X5213214Y-22023452D01*
X5194167Y-22032976D01*
X5175119Y-22032976D01*
X5156071Y-22023452D01*
X5146548Y-22013929D01*
X5137024Y-21994881D01*
X5127500Y-21956786D01*
X5127500Y-21909167D01*
X5137024Y-21871071D01*
X5146548Y-21852024D01*
X5156071Y-21842500D01*
X5175119Y-21832976D01*
X5317976Y-21832976D02*
X5317976Y-21871071D01*
X5394167Y-21832976D02*
X5394167Y-21871071D01*
X5689405Y-22109167D02*
X5679881Y-22099643D01*
X5660833Y-22071071D01*
X5651309Y-22052024D01*
X5641786Y-22023452D01*
X5632262Y-21975833D01*
X5632262Y-21937738D01*
X5641786Y-21890119D01*
X5651309Y-21861548D01*
X5660833Y-21842500D01*
X5679881Y-21813929D01*
X5689405Y-21804405D01*
X5746548Y-21832976D02*
X5879881Y-21832976D01*
X5794167Y-22032976D01*
X6108452Y-22032976D02*
X6108452Y-21832976D01*
X6194167Y-22032976D02*
X6194167Y-21928214D01*
X6184643Y-21909167D01*
X6165595Y-21899643D01*
X6137024Y-21899643D01*
X6117976Y-21909167D01*
X6108452Y-21918690D01*
X6317976Y-22032976D02*
X6298928Y-22023452D01*
X6289405Y-22013929D01*
X6279881Y-21994881D01*
X6279881Y-21937738D01*
X6289405Y-21918690D01*
X6298928Y-21909167D01*
X6317976Y-21899643D01*
X6346548Y-21899643D01*
X6365595Y-21909167D01*
X6375119Y-21918690D01*
X6384643Y-21937738D01*
X6384643Y-21994881D01*
X6375119Y-22013929D01*
X6365595Y-22023452D01*
X6346548Y-22032976D01*
X6317976Y-22032976D01*
X6498928Y-22032976D02*
X6479881Y-22023452D01*
X6470357Y-22004405D01*
X6470357Y-21832976D01*
X6651309Y-22023452D02*
X6632262Y-22032976D01*
X6594167Y-22032976D01*
X6575119Y-22023452D01*
X6565595Y-22004405D01*
X6565595Y-21928214D01*
X6575119Y-21909167D01*
X6594167Y-21899643D01*
X6632262Y-21899643D01*
X6651309Y-21909167D01*
X6660833Y-21928214D01*
X6660833Y-21947262D01*
X6565595Y-21966310D01*
X6737024Y-22023452D02*
X6756071Y-22032976D01*
X6794167Y-22032976D01*
X6813214Y-22023452D01*
X6822738Y-22004405D01*
X6822738Y-21994881D01*
X6813214Y-21975833D01*
X6794167Y-21966310D01*
X6765595Y-21966310D01*
X6746548Y-21956786D01*
X6737024Y-21937738D01*
X6737024Y-21928214D01*
X6746548Y-21909167D01*
X6765595Y-21899643D01*
X6794167Y-21899643D01*
X6813214Y-21909167D01*
X6889405Y-22109167D02*
X6898928Y-22099643D01*
X6917976Y-22071071D01*
X6927500Y-22052024D01*
X6937024Y-22023452D01*
X6946548Y-21975833D01*
X6946548Y-21937738D01*
X6937024Y-21890119D01*
X6927500Y-21861548D01*
X6917976Y-21842500D01*
X6898928Y-21813929D01*
X6889405Y-21804405D01*
M02*
