%FSLAX45Y45*%
G04 Gerber Fmt 4.5, Leading zero omitted, Abs format (unit mm)*
G04 Created by KiCad (PCBNEW (5.99.0-12766-g4a3658027e)) date 2021-10-30 19:20:24*
%MOMM*%
%LPD*%
G01*
G04 APERTURE LIST*
%TA.AperFunction,Profile*%
%ADD10C,0.050000*%
%TD*%
%ADD11C,0.200000*%
%ADD12C,0.320000*%
G04 APERTURE END LIST*
D10*
X19425000Y-11675000D02*
X18450000Y-11675000D01*
X17625000Y-20725000D02*
X29325000Y-20725000D01*
X26750000Y-19250000D02*
X23800000Y-19250000D01*
X18450000Y-12925000D02*
X19425000Y-12925000D01*
X23800000Y-20500000D02*
X26750000Y-20500000D01*
X26625000Y-12225000D02*
X26625000Y-17325000D01*
X28450000Y-17325000D02*
X26625000Y-17325000D01*
X29325000Y-20725000D02*
X29325000Y-19025000D01*
X25925000Y-11525000D02*
G75*
G03*
X26625000Y-12225000I700000J0D01*
G01*
X18450000Y-11675000D02*
X18450000Y-12925000D01*
X18425000Y-11525000D02*
G75*
G03*
X17625000Y-12325000I0J-800000D01*
G01*
X28450000Y-18125000D02*
X28450000Y-17325000D01*
X19425000Y-12925000D02*
X19425000Y-11675000D01*
X18450000Y-18025000D02*
X18450000Y-19025000D01*
X29325000Y-19025000D02*
G75*
G02*
X28450000Y-18125000I12500J887500D01*
G01*
X17625000Y-20725000D02*
X17625000Y-12325000D01*
X26750000Y-20500000D02*
X26750000Y-19250000D01*
X18425000Y-11525000D02*
X23025000Y-11525000D01*
X19425000Y-19025000D02*
X19425000Y-18025000D01*
X23800000Y-19250000D02*
X23800000Y-20500000D01*
X18450000Y-19025000D02*
X19425000Y-19025000D01*
X23025000Y-11525000D02*
X25925000Y-11525000D01*
X19425000Y-18025000D02*
X18450000Y-18025000D01*
D11*
D12*
X17790000Y-18365000D02*
X18110000Y-18685000D01*
X18110000Y-18365000D02*
X17790000Y-18685000D01*
X17940000Y-11840000D02*
X18260000Y-12160000D01*
X18260000Y-11840000D02*
X17940000Y-12160000D01*
X21390000Y-18515000D02*
X21710000Y-18835000D01*
X21710000Y-18515000D02*
X21390000Y-18835000D01*
X23190000Y-11740000D02*
X23510000Y-12060000D01*
X23510000Y-11740000D02*
X23190000Y-12060000D01*
X23190000Y-19190000D02*
X23510000Y-19510000D01*
X23510000Y-19190000D02*
X23190000Y-19510000D01*
X25515000Y-11740000D02*
X25835000Y-12060000D01*
X25835000Y-11740000D02*
X25515000Y-12060000D01*
X27040000Y-19190000D02*
X27360000Y-19510000D01*
X27360000Y-19190000D02*
X27040000Y-19510000D01*
D11*
X17875119Y-21037976D02*
X17875119Y-20837976D01*
X17922738Y-20837976D01*
X17951310Y-20847500D01*
X17970357Y-20866548D01*
X17979881Y-20885595D01*
X17989405Y-20923690D01*
X17989405Y-20952262D01*
X17979881Y-20990357D01*
X17970357Y-21009405D01*
X17951310Y-21028452D01*
X17922738Y-21037976D01*
X17875119Y-21037976D01*
X18075119Y-21037976D02*
X18075119Y-20904643D01*
X18075119Y-20942738D02*
X18084643Y-20923690D01*
X18094167Y-20914167D01*
X18113214Y-20904643D01*
X18132262Y-20904643D01*
X18198929Y-21037976D02*
X18198929Y-20904643D01*
X18198929Y-20837976D02*
X18189405Y-20847500D01*
X18198929Y-20857024D01*
X18208452Y-20847500D01*
X18198929Y-20837976D01*
X18198929Y-20857024D01*
X18322738Y-21037976D02*
X18303690Y-21028452D01*
X18294167Y-21009405D01*
X18294167Y-20837976D01*
X18427500Y-21037976D02*
X18408452Y-21028452D01*
X18398929Y-21009405D01*
X18398929Y-20837976D01*
X18656071Y-21037976D02*
X18656071Y-20837976D01*
X18722738Y-20980833D01*
X18789405Y-20837976D01*
X18789405Y-21037976D01*
X18970357Y-21037976D02*
X18970357Y-20933214D01*
X18960833Y-20914167D01*
X18941786Y-20904643D01*
X18903690Y-20904643D01*
X18884643Y-20914167D01*
X18970357Y-21028452D02*
X18951310Y-21037976D01*
X18903690Y-21037976D01*
X18884643Y-21028452D01*
X18875119Y-21009405D01*
X18875119Y-20990357D01*
X18884643Y-20971310D01*
X18903690Y-20961786D01*
X18951310Y-20961786D01*
X18970357Y-20952262D01*
X19065595Y-20904643D02*
X19065595Y-21104643D01*
X19065595Y-20914167D02*
X19084643Y-20904643D01*
X19122738Y-20904643D01*
X19141786Y-20914167D01*
X19151310Y-20923690D01*
X19160833Y-20942738D01*
X19160833Y-20999881D01*
X19151310Y-21018929D01*
X19141786Y-21028452D01*
X19122738Y-21037976D01*
X19084643Y-21037976D01*
X19065595Y-21028452D01*
X19246548Y-21018929D02*
X19256071Y-21028452D01*
X19246548Y-21037976D01*
X19237024Y-21028452D01*
X19246548Y-21018929D01*
X19246548Y-21037976D01*
X19246548Y-20914167D02*
X19256071Y-20923690D01*
X19246548Y-20933214D01*
X19237024Y-20923690D01*
X19246548Y-20914167D01*
X19246548Y-20933214D01*
X17417500Y-21267500D02*
X17617500Y-21467500D01*
X17617500Y-21267500D02*
X17417500Y-21467500D01*
X17856071Y-21257976D02*
X17979881Y-21257976D01*
X17913214Y-21334167D01*
X17941786Y-21334167D01*
X17960833Y-21343690D01*
X17970357Y-21353214D01*
X17979881Y-21372262D01*
X17979881Y-21419881D01*
X17970357Y-21438929D01*
X17960833Y-21448452D01*
X17941786Y-21457976D01*
X17884643Y-21457976D01*
X17865595Y-21448452D01*
X17856071Y-21438929D01*
X18065595Y-21438929D02*
X18075119Y-21448452D01*
X18065595Y-21457976D01*
X18056071Y-21448452D01*
X18065595Y-21438929D01*
X18065595Y-21457976D01*
X18151310Y-21277024D02*
X18160833Y-21267500D01*
X18179881Y-21257976D01*
X18227500Y-21257976D01*
X18246548Y-21267500D01*
X18256071Y-21277024D01*
X18265595Y-21296071D01*
X18265595Y-21315119D01*
X18256071Y-21343690D01*
X18141786Y-21457976D01*
X18265595Y-21457976D01*
X18389405Y-21257976D02*
X18408452Y-21257976D01*
X18427500Y-21267500D01*
X18437024Y-21277024D01*
X18446548Y-21296071D01*
X18456071Y-21334167D01*
X18456071Y-21381786D01*
X18446548Y-21419881D01*
X18437024Y-21438929D01*
X18427500Y-21448452D01*
X18408452Y-21457976D01*
X18389405Y-21457976D01*
X18370357Y-21448452D01*
X18360833Y-21438929D01*
X18351310Y-21419881D01*
X18341786Y-21381786D01*
X18341786Y-21334167D01*
X18351310Y-21296071D01*
X18360833Y-21277024D01*
X18370357Y-21267500D01*
X18389405Y-21257976D01*
X18579881Y-21257976D02*
X18598929Y-21257976D01*
X18617976Y-21267500D01*
X18627500Y-21277024D01*
X18637024Y-21296071D01*
X18646548Y-21334167D01*
X18646548Y-21381786D01*
X18637024Y-21419881D01*
X18627500Y-21438929D01*
X18617976Y-21448452D01*
X18598929Y-21457976D01*
X18579881Y-21457976D01*
X18560833Y-21448452D01*
X18551310Y-21438929D01*
X18541786Y-21419881D01*
X18532262Y-21381786D01*
X18532262Y-21334167D01*
X18541786Y-21296071D01*
X18551310Y-21277024D01*
X18560833Y-21267500D01*
X18579881Y-21257976D01*
X18732262Y-21457976D02*
X18732262Y-21324643D01*
X18732262Y-21343690D02*
X18741786Y-21334167D01*
X18760833Y-21324643D01*
X18789405Y-21324643D01*
X18808452Y-21334167D01*
X18817976Y-21353214D01*
X18817976Y-21457976D01*
X18817976Y-21353214D02*
X18827500Y-21334167D01*
X18846548Y-21324643D01*
X18875119Y-21324643D01*
X18894167Y-21334167D01*
X18903690Y-21353214D01*
X18903690Y-21457976D01*
X18998929Y-21457976D02*
X18998929Y-21324643D01*
X18998929Y-21343690D02*
X19008452Y-21334167D01*
X19027500Y-21324643D01*
X19056071Y-21324643D01*
X19075119Y-21334167D01*
X19084643Y-21353214D01*
X19084643Y-21457976D01*
X19084643Y-21353214D02*
X19094167Y-21334167D01*
X19113214Y-21324643D01*
X19141786Y-21324643D01*
X19160833Y-21334167D01*
X19170357Y-21353214D01*
X19170357Y-21457976D01*
X19560833Y-21248452D02*
X19389405Y-21505595D01*
X19817976Y-21257976D02*
X19837024Y-21257976D01*
X19856071Y-21267500D01*
X19865595Y-21277024D01*
X19875119Y-21296071D01*
X19884643Y-21334167D01*
X19884643Y-21381786D01*
X19875119Y-21419881D01*
X19865595Y-21438929D01*
X19856071Y-21448452D01*
X19837024Y-21457976D01*
X19817976Y-21457976D01*
X19798929Y-21448452D01*
X19789405Y-21438929D01*
X19779881Y-21419881D01*
X19770357Y-21381786D01*
X19770357Y-21334167D01*
X19779881Y-21296071D01*
X19789405Y-21277024D01*
X19798929Y-21267500D01*
X19817976Y-21257976D01*
X19970357Y-21438929D02*
X19979881Y-21448452D01*
X19970357Y-21457976D01*
X19960833Y-21448452D01*
X19970357Y-21438929D01*
X19970357Y-21457976D01*
X20170357Y-21457976D02*
X20056071Y-21457976D01*
X20113214Y-21457976D02*
X20113214Y-21257976D01*
X20094167Y-21286548D01*
X20075119Y-21305595D01*
X20056071Y-21315119D01*
X20246548Y-21277024D02*
X20256071Y-21267500D01*
X20275119Y-21257976D01*
X20322738Y-21257976D01*
X20341786Y-21267500D01*
X20351310Y-21277024D01*
X20360833Y-21296071D01*
X20360833Y-21315119D01*
X20351310Y-21343690D01*
X20237024Y-21457976D01*
X20360833Y-21457976D01*
X20532262Y-21257976D02*
X20494167Y-21257976D01*
X20475119Y-21267500D01*
X20465595Y-21277024D01*
X20446548Y-21305595D01*
X20437024Y-21343690D01*
X20437024Y-21419881D01*
X20446548Y-21438929D01*
X20456071Y-21448452D01*
X20475119Y-21457976D01*
X20513214Y-21457976D01*
X20532262Y-21448452D01*
X20541786Y-21438929D01*
X20551310Y-21419881D01*
X20551310Y-21372262D01*
X20541786Y-21353214D01*
X20532262Y-21343690D01*
X20513214Y-21334167D01*
X20475119Y-21334167D01*
X20456071Y-21343690D01*
X20446548Y-21353214D01*
X20437024Y-21372262D01*
X20675119Y-21257976D02*
X20694167Y-21257976D01*
X20713214Y-21267500D01*
X20722738Y-21277024D01*
X20732262Y-21296071D01*
X20741786Y-21334167D01*
X20741786Y-21381786D01*
X20732262Y-21419881D01*
X20722738Y-21438929D01*
X20713214Y-21448452D01*
X20694167Y-21457976D01*
X20675119Y-21457976D01*
X20656071Y-21448452D01*
X20646548Y-21438929D01*
X20637024Y-21419881D01*
X20627500Y-21381786D01*
X20627500Y-21334167D01*
X20637024Y-21296071D01*
X20646548Y-21277024D01*
X20656071Y-21267500D01*
X20675119Y-21257976D01*
X20817976Y-21257976D02*
X20817976Y-21296071D01*
X20894167Y-21257976D02*
X20894167Y-21296071D01*
X21189405Y-21534167D02*
X21179881Y-21524643D01*
X21160833Y-21496071D01*
X21151310Y-21477024D01*
X21141786Y-21448452D01*
X21132262Y-21400833D01*
X21132262Y-21362738D01*
X21141786Y-21315119D01*
X21151310Y-21286548D01*
X21160833Y-21267500D01*
X21179881Y-21238929D01*
X21189405Y-21229405D01*
X21246548Y-21257976D02*
X21379881Y-21257976D01*
X21294167Y-21457976D01*
X21608452Y-21457976D02*
X21608452Y-21257976D01*
X21694167Y-21457976D02*
X21694167Y-21353214D01*
X21684643Y-21334167D01*
X21665595Y-21324643D01*
X21637024Y-21324643D01*
X21617976Y-21334167D01*
X21608452Y-21343690D01*
X21817976Y-21457976D02*
X21798929Y-21448452D01*
X21789405Y-21438929D01*
X21779881Y-21419881D01*
X21779881Y-21362738D01*
X21789405Y-21343690D01*
X21798929Y-21334167D01*
X21817976Y-21324643D01*
X21846548Y-21324643D01*
X21865595Y-21334167D01*
X21875119Y-21343690D01*
X21884643Y-21362738D01*
X21884643Y-21419881D01*
X21875119Y-21438929D01*
X21865595Y-21448452D01*
X21846548Y-21457976D01*
X21817976Y-21457976D01*
X21998929Y-21457976D02*
X21979881Y-21448452D01*
X21970357Y-21429405D01*
X21970357Y-21257976D01*
X22151310Y-21448452D02*
X22132262Y-21457976D01*
X22094167Y-21457976D01*
X22075119Y-21448452D01*
X22065595Y-21429405D01*
X22065595Y-21353214D01*
X22075119Y-21334167D01*
X22094167Y-21324643D01*
X22132262Y-21324643D01*
X22151310Y-21334167D01*
X22160833Y-21353214D01*
X22160833Y-21372262D01*
X22065595Y-21391310D01*
X22237024Y-21448452D02*
X22256071Y-21457976D01*
X22294167Y-21457976D01*
X22313214Y-21448452D01*
X22322738Y-21429405D01*
X22322738Y-21419881D01*
X22313214Y-21400833D01*
X22294167Y-21391310D01*
X22265595Y-21391310D01*
X22246548Y-21381786D01*
X22237024Y-21362738D01*
X22237024Y-21353214D01*
X22246548Y-21334167D01*
X22265595Y-21324643D01*
X22294167Y-21324643D01*
X22313214Y-21334167D01*
X22389405Y-21534167D02*
X22398928Y-21524643D01*
X22417976Y-21496071D01*
X22427500Y-21477024D01*
X22437024Y-21448452D01*
X22446548Y-21400833D01*
X22446548Y-21362738D01*
X22437024Y-21315119D01*
X22427500Y-21286548D01*
X22417976Y-21267500D01*
X22398928Y-21238929D01*
X22389405Y-21229405D01*
M02*
